<svg width="123" height="40" viewBox="0 0 123 40" fill="none" xmlns="http://www.w3.org/2000/svg">
<path d="M6 1H117V39H6V1Z" fill="white"/>
<path d="M6 1.5H117V0.5H6V1.5ZM117 38.5H6V39.5H117V38.5Z" fill="black"/>
<path d="M12.2714 33.04V31.552H14.8274V16.708H12.2714V15.22H16.5554V19.792L16.5074 21.16V21.916L16.5554 22.996V31.552H19.0634V33.04H12.2714ZM21.3794 28.24C20.3234 28.24 19.3754 28.008 18.5354 27.544C17.7034 27.08 17.0154 26.42 16.4714 25.564C15.9274 24.7 15.5674 23.668 15.3914 22.468L16.5074 21.64C16.5074 22.624 16.6954 23.496 17.0714 24.256C17.4474 25.008 17.9874 25.6 18.6914 26.032C19.3954 26.464 20.2314 26.68 21.1994 26.68C22.1514 26.68 22.9794 26.464 23.6834 26.032C24.3874 25.6 24.9274 25.004 25.3034 24.244C25.6874 23.476 25.8794 22.6 25.8794 21.616C25.8794 20.616 25.6834 19.736 25.2914 18.976C24.8994 18.216 24.3514 17.62 23.6474 17.188C22.9434 16.748 22.1274 16.528 21.1994 16.528C20.2474 16.528 19.4194 16.748 18.7154 17.188C18.0114 17.62 17.4674 18.22 17.0834 18.988C16.6994 19.756 16.5074 20.64 16.5074 21.64L16.2314 18.916H16.6394C16.7834 18.212 17.0634 17.564 17.4794 16.972C17.8954 16.372 18.4434 15.892 19.1234 15.532C19.8114 15.164 20.6274 14.98 21.5714 14.98C22.4674 14.98 23.2874 15.144 24.0314 15.472C24.7754 15.792 25.4154 16.252 25.9514 16.852C26.4954 17.444 26.9154 18.144 27.2114 18.952C27.5154 19.76 27.6674 20.648 27.6674 21.616C27.6674 22.904 27.4074 24.048 26.8874 25.048C26.3674 26.048 25.6354 26.832 24.6914 27.4C23.7554 27.96 22.6514 28.24 21.3794 28.24ZM36.473 28.228C35.145 28.228 33.981 27.948 32.981 27.388C31.981 26.82 31.201 26.044 30.641 25.06C30.081 24.076 29.801 22.94 29.801 21.652C29.801 20.356 30.081 19.208 30.641 18.208C31.201 17.2 31.981 16.412 32.981 15.844C33.981 15.276 35.145 14.992 36.473 14.992C37.801 14.992 38.965 15.276 39.965 15.844C40.965 16.412 41.745 17.2 42.305 18.208C42.865 19.208 43.145 20.356 43.145 21.652C43.145 22.94 42.865 24.076 42.305 25.06C41.745 26.044 40.965 26.82 39.965 27.388C38.965 27.948 37.801 28.228 36.473 28.228ZM36.473 26.632C37.433 26.632 38.277 26.424 39.005 26.008C39.741 25.592 40.313 25.012 40.721 24.268C41.137 23.516 41.345 22.644 41.345 21.652C41.345 20.652 41.137 19.772 40.721 19.012C40.313 18.252 39.741 17.66 39.005 17.236C38.277 16.804 37.433 16.588 36.473 16.588C35.513 16.588 34.665 16.804 33.929 17.236C33.201 17.66 32.629 18.252 32.213 19.012C31.805 19.772 31.601 20.652 31.601 21.652C31.601 22.644 31.805 23.516 32.213 24.268C32.629 25.012 33.201 25.592 33.929 26.008C34.665 26.424 35.513 26.632 36.473 26.632ZM51.4979 28.228C50.6419 28.228 49.9179 28.1 49.3259 27.844C48.7419 27.588 48.2779 27.248 47.9339 26.824C47.5899 26.392 47.3659 25.912 47.2619 25.384H46.8299L47.1779 23.968C47.3299 24.808 47.7459 25.492 48.4259 26.02C49.1139 26.548 50.0059 26.812 51.1019 26.812C52.0379 26.812 52.7619 26.624 53.2739 26.248C53.7939 25.864 54.0539 25.308 54.0539 24.58C54.0539 23.916 53.7979 23.4 53.2859 23.032C52.7739 22.664 51.8779 22.384 50.5979 22.192C48.7659 21.904 47.4619 21.452 46.6859 20.836C45.9099 20.212 45.5219 19.392 45.5219 18.376C45.5219 17.352 45.8779 16.532 46.5899 15.916C47.3019 15.3 48.2939 14.992 49.5659 14.992C50.4059 14.992 51.0979 15.12 51.6419 15.376C52.1939 15.632 52.6179 15.976 52.9139 16.408C53.2099 16.832 53.4019 17.3 53.4899 17.812H53.9219L53.5739 19.168C53.4299 18.352 53.0379 17.688 52.3979 17.176C51.7579 16.656 50.9219 16.396 49.8899 16.396C49.0579 16.396 48.4059 16.572 47.9339 16.924C47.4699 17.276 47.2379 17.744 47.2379 18.328C47.2379 18.944 47.5299 19.428 48.1139 19.78C48.6979 20.124 49.6179 20.396 50.8739 20.596C52.6499 20.876 53.9099 21.336 54.6539 21.976C55.3979 22.616 55.7699 23.48 55.7699 24.568C55.7699 25.712 55.4019 26.608 54.6659 27.256C53.9379 27.904 52.8819 28.228 51.4979 28.228ZM45.4499 28V23.968H47.1779V28H45.4499ZM53.5739 19.168V15.22H55.3019V19.168H53.5739ZM62.2589 26.512H64.7189V28H57.9389V26.512H60.5309V16.708H57.9389V15.22H62.2589V26.512ZM60.2069 9.832H62.4149V12.124H60.2069V9.832ZM69.4885 24.616C69.4885 25.288 69.6165 25.796 69.8725 26.14C70.1285 26.476 70.5205 26.644 71.0485 26.644C71.5685 26.644 71.9605 26.472 72.2245 26.128C72.4885 25.776 72.6205 25.272 72.6205 24.616V23.428H74.1805V24.604C74.1805 25.372 74.0645 26.028 73.8325 26.572C73.6085 27.108 73.2645 27.52 72.8005 27.808C72.3365 28.088 71.7405 28.228 71.0125 28.228C70.2685 28.228 69.6565 28.084 69.1765 27.796C68.6965 27.5 68.3405 27.084 68.1085 26.548C67.8765 26.012 67.7605 25.368 67.7605 24.616L67.7725 16.708H65.4925V15.22H67.7725V11.98H69.5005V15.22H74.0125L74.0005 16.708H69.5005L69.4885 24.616ZM80.3536 26.512H82.8136V28H76.0336V26.512H78.6256V16.708H76.0336V15.22H80.3536V26.512ZM78.3016 9.832H80.5096V12.124H78.3016V9.832ZM91.5196 15.22H97.1836V16.708H95.7436L91.0396 28H89.1676L84.3076 16.708H82.8796V15.22H88.6756V16.708H86.1796L90.8956 28L89.2756 26.188H90.9196L89.5156 28L94.0156 16.708H91.5196V15.22ZM104.265 28.228C102.945 28.228 101.801 27.948 100.833 27.388C99.8651 26.828 99.1171 26.056 98.5891 25.072C98.0611 24.08 97.7971 22.94 97.7971 21.652C97.7971 20.348 98.0611 19.196 98.5891 18.196C99.1251 17.196 99.8691 16.412 100.821 15.844C101.781 15.276 102.897 14.992 104.169 14.992C105.449 14.992 106.557 15.272 107.493 15.832C108.429 16.392 109.149 17.168 109.653 18.16C110.157 19.152 110.409 20.296 110.409 21.592C110.409 21.744 110.405 21.864 110.397 21.952C110.397 22.04 110.389 22.116 110.373 22.18H108.669C108.677 22.084 108.681 21.98 108.681 21.868C108.689 21.748 108.693 21.612 108.693 21.46C108.693 20.508 108.509 19.664 108.141 18.928C107.781 18.184 107.265 17.6 106.593 17.176C105.921 16.752 105.113 16.54 104.169 16.54C103.249 16.54 102.441 16.76 101.745 17.2C101.049 17.632 100.509 18.232 100.125 19C99.7411 19.76 99.5491 20.644 99.5491 21.652C99.5491 22.628 99.7371 23.492 100.113 24.244C100.497 24.988 101.041 25.572 101.745 25.996C102.449 26.42 103.285 26.632 104.253 26.632C105.261 26.632 106.133 26.396 106.869 25.924C107.613 25.444 108.165 24.792 108.525 23.968L110.157 24.58C109.685 25.708 108.929 26.6 107.889 27.256C106.857 27.904 105.649 28.228 104.265 28.228ZM98.8891 22.18V20.848H109.857L110.361 22.18H98.8891Z" fill="black"/>
<path d="M1 6.35211L6 1V39L1 33.6479V6.35211Z" fill="white"/>
<path d="M6 1L1 6.35211V33.6479L6 39" stroke="black" stroke-linecap="round"/>
<path d="M122 33.6479L117 39L117 1L122 6.35211L122 33.6479Z" fill="white"/>
<path d="M117 39L122 33.6479L122 6.35211L117 1" stroke="black" stroke-linecap="round"/>
</svg>
