<svg width="178" height="40" viewBox="0 0 178 40" fill="none" xmlns="http://www.w3.org/2000/svg">
<path d="M6 1H172V39H6V1Z" fill="white"/>
<path d="M6 1.5H172V0.5H6V1.5ZM172 38.5H6V39.5H172V38.5Z" fill="black"/>
<path d="M22.7803 16.708H20.3083V15.22H24.5083V26.512H27.0043V28H22.7803V16.708ZM15.6403 15.22V23.368C15.6403 24.416 15.8723 25.244 16.3363 25.852C16.8083 26.452 17.5483 26.752 18.5563 26.752C19.3643 26.752 20.0843 26.548 20.7163 26.14C21.3563 25.724 21.8603 25.128 22.2283 24.352C22.5963 23.576 22.7803 22.644 22.7803 21.556L23.2003 24.112H22.6963C22.4803 25.488 21.9443 26.528 21.0883 27.232C20.2403 27.928 19.1963 28.276 17.9563 28.276C16.5803 28.276 15.5603 27.868 14.8963 27.052C14.2403 26.236 13.9123 25.104 13.9123 23.656V16.708H11.5963V15.22H15.6403ZM32.7134 26.512H34.9934V28H28.3574V26.512H30.9854V16.708H28.3574V15.22H32.7134V26.512ZM40.0814 26.512V19.828C40.0814 18.78 39.8454 17.956 39.3734 17.356C38.9014 16.756 38.1574 16.456 37.1414 16.456C36.3174 16.456 35.5694 16.66 34.8974 17.068C34.2254 17.476 33.6934 18.068 33.3014 18.844C32.9094 19.62 32.7134 20.56 32.7134 21.664L32.3174 19.108H32.7974C32.9494 18.236 33.2414 17.496 33.6734 16.888C34.1054 16.272 34.6574 15.804 35.3294 15.484C36.0094 15.156 36.7894 14.992 37.6694 14.992C39.0614 14.992 40.0974 15.396 40.7774 16.204C41.4654 17.004 41.8094 18.136 41.8094 19.6V26.512H44.2694V28H37.8374V26.512H40.0814ZM52.0921 28.228C50.7721 28.228 49.6281 27.948 48.6601 27.388C47.6921 26.828 46.9441 26.056 46.4161 25.072C45.8881 24.08 45.6241 22.94 45.6241 21.652C45.6241 20.348 45.8881 19.196 46.4161 18.196C46.9521 17.196 47.6961 16.412 48.6481 15.844C49.6081 15.276 50.7241 14.992 51.9961 14.992C53.2761 14.992 54.3841 15.272 55.3201 15.832C56.2561 16.392 56.9761 17.168 57.4801 18.16C57.9841 19.152 58.2361 20.296 58.2361 21.592C58.2361 21.744 58.2321 21.864 58.2241 21.952C58.2241 22.04 58.2161 22.116 58.2001 22.18H56.4961C56.5041 22.084 56.5081 21.98 56.5081 21.868C56.5161 21.748 56.5201 21.612 56.5201 21.46C56.5201 20.508 56.3361 19.664 55.9681 18.928C55.6081 18.184 55.0921 17.6 54.4201 17.176C53.7481 16.752 52.9401 16.54 51.9961 16.54C51.0761 16.54 50.2681 16.76 49.5721 17.2C48.8761 17.632 48.3361 18.232 47.9521 19C47.5681 19.76 47.3761 20.644 47.3761 21.652C47.3761 22.628 47.5641 23.492 47.9401 24.244C48.3241 24.988 48.8681 25.572 49.5721 25.996C50.2761 26.42 51.1121 26.632 52.0801 26.632C53.0881 26.632 53.9601 26.396 54.6961 25.924C55.4401 25.444 55.9921 24.792 56.3521 23.968L57.9841 24.58C57.5121 25.708 56.7561 26.6 55.7161 27.256C54.6841 27.904 53.4761 28.228 52.0921 28.228ZM46.7161 22.18V20.848H57.6841L58.1881 22.18H46.7161ZM67.3554 15.22H73.0194V16.708H71.5794L66.8754 28H65.0034L60.1434 16.708H58.7154V15.22H64.5114V16.708H62.0154L66.7314 28L65.1114 26.188H66.7554L65.3514 28L69.8514 16.708H67.3554V15.22ZM80.1009 28.228C78.7809 28.228 77.6369 27.948 76.6689 27.388C75.7009 26.828 74.9529 26.056 74.4249 25.072C73.8969 24.08 73.6329 22.94 73.6329 21.652C73.6329 20.348 73.8969 19.196 74.4249 18.196C74.9609 17.196 75.7049 16.412 76.6569 15.844C77.6169 15.276 78.7329 14.992 80.0049 14.992C81.2849 14.992 82.3929 15.272 83.3289 15.832C84.2649 16.392 84.9849 17.168 85.4889 18.16C85.9929 19.152 86.2449 20.296 86.2449 21.592C86.2449 21.744 86.2409 21.864 86.2329 21.952C86.2329 22.04 86.2249 22.116 86.2089 22.18H84.5049C84.5129 22.084 84.5169 21.98 84.5169 21.868C84.5249 21.748 84.5289 21.612 84.5289 21.46C84.5289 20.508 84.3449 19.664 83.9769 18.928C83.6169 18.184 83.1009 17.6 82.4289 17.176C81.7569 16.752 80.9489 16.54 80.0049 16.54C79.0849 16.54 78.2769 16.76 77.5809 17.2C76.8849 17.632 76.3449 18.232 75.9609 19C75.5769 19.76 75.3849 20.644 75.3849 21.652C75.3849 22.628 75.5729 23.492 75.9489 24.244C76.3329 24.988 76.8769 25.572 77.5809 25.996C78.2849 26.42 79.1209 26.632 80.0889 26.632C81.0969 26.632 81.9689 26.396 82.7049 25.924C83.4489 25.444 84.0009 24.792 84.3609 23.968L85.9929 24.58C85.5209 25.708 84.7649 26.6 83.7249 27.256C82.6929 27.904 81.4849 28.228 80.1009 28.228ZM74.7249 22.18V20.848H85.6929L86.1969 22.18H74.7249ZM92.5044 26.512H94.7844V28H88.1484V26.512H90.7764V16.708H88.1484V15.22H92.5044V26.512ZM99.8724 26.512V19.828C99.8724 18.78 99.6364 17.956 99.1644 17.356C98.6924 16.756 97.9484 16.456 96.9324 16.456C96.1084 16.456 95.3604 16.66 94.6884 17.068C94.0164 17.476 93.4844 18.068 93.0924 18.844C92.7004 19.62 92.5044 20.56 92.5044 21.664L92.1084 19.108H92.5884C92.7404 18.236 93.0324 17.496 93.4644 16.888C93.8964 16.272 94.4484 15.804 95.1204 15.484C95.8004 15.156 96.5804 14.992 97.4604 14.992C98.8524 14.992 99.8884 15.396 100.568 16.204C101.256 17.004 101.6 18.136 101.6 19.6V26.512H104.06V28H97.6284V26.512H99.8724ZM118.762 28.228C117.442 28.228 116.298 27.948 115.33 27.388C114.362 26.828 113.614 26.056 113.086 25.072C112.558 24.08 112.294 22.94 112.294 21.652C112.294 20.348 112.558 19.196 113.086 18.196C113.622 17.196 114.366 16.412 115.318 15.844C116.278 15.276 117.394 14.992 118.666 14.992C119.946 14.992 121.054 15.272 121.99 15.832C122.926 16.392 123.646 17.168 124.15 18.16C124.654 19.152 124.906 20.296 124.906 21.592C124.906 21.744 124.902 21.864 124.894 21.952C124.894 22.04 124.886 22.116 124.87 22.18H123.166C123.174 22.084 123.178 21.98 123.178 21.868C123.186 21.748 123.19 21.612 123.19 21.46C123.19 20.508 123.006 19.664 122.638 18.928C122.278 18.184 121.762 17.6 121.09 17.176C120.418 16.752 119.61 16.54 118.666 16.54C117.746 16.54 116.938 16.76 116.242 17.2C115.546 17.632 115.006 18.232 114.622 19C114.238 19.76 114.046 20.644 114.046 21.652C114.046 22.628 114.234 23.492 114.61 24.244C114.994 24.988 115.538 25.572 116.242 25.996C116.946 26.42 117.782 26.632 118.75 26.632C119.758 26.632 120.63 26.396 121.366 25.924C122.11 25.444 122.662 24.792 123.022 23.968L124.654 24.58C124.182 25.708 123.426 26.6 122.386 27.256C121.354 27.904 120.146 28.228 118.762 28.228ZM113.386 22.18V20.848H124.354L124.858 22.18H113.386ZM133.894 15.22H139.846V16.708H138.25L132.97 29.704C132.538 30.776 131.87 31.6 130.966 32.176C130.07 32.752 128.954 33.04 127.618 33.04H126.358V31.516H127.618C128.514 31.516 129.294 31.328 129.958 30.952C130.63 30.584 131.118 30.04 131.422 29.32L132.334 27.076L132.034 28.564L127.15 16.708H125.386V15.22H131.458V16.708H129.034L133.342 27.472L131.77 26.08H133.426L132.526 26.896L136.522 16.708H133.894V15.22ZM146.935 28.228C145.615 28.228 144.471 27.948 143.503 27.388C142.535 26.828 141.787 26.056 141.259 25.072C140.731 24.08 140.467 22.94 140.467 21.652C140.467 20.348 140.731 19.196 141.259 18.196C141.795 17.196 142.539 16.412 143.491 15.844C144.451 15.276 145.567 14.992 146.839 14.992C148.119 14.992 149.227 15.272 150.163 15.832C151.099 16.392 151.819 17.168 152.323 18.16C152.827 19.152 153.079 20.296 153.079 21.592C153.079 21.744 153.075 21.864 153.067 21.952C153.067 22.04 153.059 22.116 153.043 22.18H151.339C151.347 22.084 151.351 21.98 151.351 21.868C151.359 21.748 151.363 21.612 151.363 21.46C151.363 20.508 151.179 19.664 150.811 18.928C150.451 18.184 149.935 17.6 149.263 17.176C148.591 16.752 147.783 16.54 146.839 16.54C145.919 16.54 145.111 16.76 144.415 17.2C143.719 17.632 143.179 18.232 142.795 19C142.411 19.76 142.219 20.644 142.219 21.652C142.219 22.628 142.407 23.492 142.783 24.244C143.167 24.988 143.711 25.572 144.415 25.996C145.119 26.42 145.955 26.632 146.923 26.632C147.931 26.632 148.803 26.396 149.539 25.924C150.283 25.444 150.835 24.792 151.195 23.968L152.827 24.58C152.355 25.708 151.599 26.6 150.559 27.256C149.527 27.904 148.319 28.228 146.935 28.228ZM141.559 22.18V20.848H152.527L153.031 22.18H141.559ZM161.343 28.228C160.487 28.228 159.763 28.1 159.171 27.844C158.587 27.588 158.123 27.248 157.779 26.824C157.435 26.392 157.211 25.912 157.107 25.384H156.675L157.023 23.968C157.175 24.808 157.591 25.492 158.271 26.02C158.959 26.548 159.851 26.812 160.947 26.812C161.883 26.812 162.607 26.624 163.119 26.248C163.639 25.864 163.899 25.308 163.899 24.58C163.899 23.916 163.643 23.4 163.131 23.032C162.619 22.664 161.723 22.384 160.443 22.192C158.611 21.904 157.307 21.452 156.531 20.836C155.755 20.212 155.367 19.392 155.367 18.376C155.367 17.352 155.723 16.532 156.435 15.916C157.147 15.3 158.139 14.992 159.411 14.992C160.251 14.992 160.943 15.12 161.487 15.376C162.039 15.632 162.463 15.976 162.759 16.408C163.055 16.832 163.247 17.3 163.335 17.812H163.767L163.419 19.168C163.275 18.352 162.883 17.688 162.243 17.176C161.603 16.656 160.767 16.396 159.735 16.396C158.903 16.396 158.251 16.572 157.779 16.924C157.315 17.276 157.083 17.744 157.083 18.328C157.083 18.944 157.375 19.428 157.959 19.78C158.543 20.124 159.463 20.396 160.719 20.596C162.495 20.876 163.755 21.336 164.499 21.976C165.243 22.616 165.615 23.48 165.615 24.568C165.615 25.712 165.247 26.608 164.511 27.256C163.783 27.904 162.727 28.228 161.343 28.228ZM155.295 28V23.968H157.023V28H155.295ZM163.419 19.168V15.22H165.147V19.168H163.419Z" fill="black"/>
<path d="M1 6.35211L6 1V39L1 33.6479V6.35211Z" fill="white"/>
<path d="M6 1L1 6.35211V33.6479L6 39" stroke="black" stroke-linecap="round"/>
<path d="M177 33.6479L172 39L172 1L177 6.35211L177 33.6479Z" fill="white"/>
<path d="M172 39L177 33.6479L177 6.35211L172 1" stroke="black" stroke-linecap="round"/>
</svg>
