<svg width="303" height="40" viewBox="0 0 303 40" fill="none" xmlns="http://www.w3.org/2000/svg">
<path d="M6 1H297V39H6V1Z" fill="white"/>
<path d="M6 1.5H297V0.5H6V1.5ZM297 38.5H6V39.5H297V38.5Z" fill="black"/>
<path d="M16.9791 26.512H19.4391V28H12.6591V26.512H15.2511V16.708H12.6591V15.22H16.9791V26.512ZM14.9271 9.832H17.1351V12.124H14.9271V9.832ZM25.1447 26.512H27.4247V28H20.7887V26.512H23.4167V16.708H20.7887V15.22H25.1447V26.512ZM32.5127 26.512V19.828C32.5127 18.78 32.2767 17.956 31.8047 17.356C31.3327 16.756 30.5887 16.456 29.5727 16.456C28.7487 16.456 28.0007 16.66 27.3287 17.068C26.6567 17.476 26.1247 18.068 25.7327 18.844C25.3407 19.62 25.1447 20.56 25.1447 21.664L24.7487 19.108H25.2287C25.3807 18.236 25.6727 17.496 26.1047 16.888C26.5367 16.272 27.0887 15.804 27.7607 15.484C28.4407 15.156 29.2207 14.992 30.1007 14.992C31.4927 14.992 32.5287 15.396 33.2087 16.204C33.8967 17.004 34.2407 18.136 34.2407 19.6V26.512H36.7007V28H30.2687V26.512H32.5127ZM41.3537 24.616C41.3537 25.288 41.4817 25.796 41.7377 26.14C41.9937 26.476 42.3857 26.644 42.9137 26.644C43.4337 26.644 43.8257 26.472 44.0897 26.128C44.3537 25.776 44.4857 25.272 44.4857 24.616V23.428H46.0457V24.604C46.0457 25.372 45.9297 26.028 45.6977 26.572C45.4737 27.108 45.1297 27.52 44.6657 27.808C44.2017 28.088 43.6057 28.228 42.8777 28.228C42.1337 28.228 41.5217 28.084 41.0417 27.796C40.5617 27.5 40.2057 27.084 39.9737 26.548C39.7417 26.012 39.6257 25.368 39.6257 24.616L39.6377 16.708H37.3577V15.22H39.6377V11.98H41.3657V15.22H45.8777L45.8657 16.708H41.3657L41.3537 24.616ZM54.3559 28.228C53.0359 28.228 51.8919 27.948 50.9239 27.388C49.9559 26.828 49.2079 26.056 48.6799 25.072C48.1519 24.08 47.8879 22.94 47.8879 21.652C47.8879 20.348 48.1519 19.196 48.6799 18.196C49.2159 17.196 49.9599 16.412 50.9119 15.844C51.8719 15.276 52.9879 14.992 54.2599 14.992C55.5399 14.992 56.6479 15.272 57.5839 15.832C58.5199 16.392 59.2399 17.168 59.7439 18.16C60.2479 19.152 60.4999 20.296 60.4999 21.592C60.4999 21.744 60.4959 21.864 60.4879 21.952C60.4879 22.04 60.4799 22.116 60.4639 22.18H58.7599C58.7679 22.084 58.7719 21.98 58.7719 21.868C58.7799 21.748 58.7839 21.612 58.7839 21.46C58.7839 20.508 58.5999 19.664 58.2319 18.928C57.8719 18.184 57.3559 17.6 56.6839 17.176C56.0119 16.752 55.2039 16.54 54.2599 16.54C53.3399 16.54 52.5319 16.76 51.8359 17.2C51.1399 17.632 50.5999 18.232 50.2159 19C49.8319 19.76 49.6399 20.644 49.6399 21.652C49.6399 22.628 49.8279 23.492 50.2039 24.244C50.5879 24.988 51.1319 25.572 51.8359 25.996C52.5399 26.42 53.3759 26.632 54.3439 26.632C55.3519 26.632 56.2239 26.396 56.9599 25.924C57.7039 25.444 58.2559 24.792 58.6159 23.968L60.2479 24.58C59.7759 25.708 59.0199 26.6 57.9799 27.256C56.9479 27.904 55.7399 28.228 54.3559 28.228ZM48.9799 22.18V20.848H59.9479L60.4519 22.18H48.9799ZM66.7594 26.512H69.0394V28H62.4034V26.512H65.0314V16.708H62.4034V15.22H66.7594V26.512ZM74.1274 26.512V19.828C74.1274 18.78 73.8914 17.956 73.4194 17.356C72.9474 16.756 72.2034 16.456 71.1874 16.456C70.3634 16.456 69.6154 16.66 68.9434 17.068C68.2714 17.476 67.7394 18.068 67.3474 18.844C66.9554 19.62 66.7594 20.56 66.7594 21.664L66.3634 19.108H66.8434C66.9954 18.236 67.2874 17.496 67.7194 16.888C68.1514 16.272 68.7034 15.804 69.3754 15.484C70.0554 15.156 70.8354 14.992 71.7154 14.992C73.1074 14.992 74.1434 15.396 74.8234 16.204C75.5114 17.004 75.8554 18.136 75.8554 19.6V26.512H78.3154V28H71.8834V26.512H74.1274ZM85.9084 28.228C85.0524 28.228 84.3284 28.1 83.7364 27.844C83.1524 27.588 82.6884 27.248 82.3444 26.824C82.0004 26.392 81.7764 25.912 81.6724 25.384H81.2404L81.5884 23.968C81.7404 24.808 82.1564 25.492 82.8364 26.02C83.5244 26.548 84.4164 26.812 85.5124 26.812C86.4484 26.812 87.1724 26.624 87.6844 26.248C88.2044 25.864 88.4644 25.308 88.4644 24.58C88.4644 23.916 88.2084 23.4 87.6964 23.032C87.1844 22.664 86.2884 22.384 85.0084 22.192C83.1764 21.904 81.8724 21.452 81.0964 20.836C80.3204 20.212 79.9324 19.392 79.9324 18.376C79.9324 17.352 80.2884 16.532 81.0004 15.916C81.7124 15.3 82.7044 14.992 83.9764 14.992C84.8164 14.992 85.5084 15.12 86.0524 15.376C86.6044 15.632 87.0284 15.976 87.3244 16.408C87.6204 16.832 87.8124 17.3 87.9004 17.812H88.3324L87.9844 19.168C87.8404 18.352 87.4484 17.688 86.8084 17.176C86.1684 16.656 85.3324 16.396 84.3004 16.396C83.4684 16.396 82.8164 16.572 82.3444 16.924C81.8804 17.276 81.6484 17.744 81.6484 18.328C81.6484 18.944 81.9404 19.428 82.5244 19.78C83.1084 20.124 84.0284 20.396 85.2844 20.596C87.0604 20.876 88.3204 21.336 89.0644 21.976C89.8084 22.616 90.1804 23.48 90.1804 24.568C90.1804 25.712 89.8124 26.608 89.0764 27.256C88.3484 27.904 87.2924 28.228 85.9084 28.228ZM79.8604 28V23.968H81.5884V28H79.8604ZM87.9844 19.168V15.22H89.7124V19.168H87.9844ZM98.8534 28.228C97.5334 28.228 96.3894 27.948 95.4214 27.388C94.4534 26.828 93.7054 26.056 93.1774 25.072C92.6494 24.08 92.3854 22.94 92.3854 21.652C92.3854 20.348 92.6494 19.196 93.1774 18.196C93.7134 17.196 94.4574 16.412 95.4094 15.844C96.3694 15.276 97.4854 14.992 98.7574 14.992C100.037 14.992 101.145 15.272 102.081 15.832C103.017 16.392 103.737 17.168 104.241 18.16C104.745 19.152 104.997 20.296 104.997 21.592C104.997 21.744 104.993 21.864 104.985 21.952C104.985 22.04 104.977 22.116 104.961 22.18H103.257C103.265 22.084 103.269 21.98 103.269 21.868C103.277 21.748 103.281 21.612 103.281 21.46C103.281 20.508 103.097 19.664 102.729 18.928C102.369 18.184 101.853 17.6 101.181 17.176C100.509 16.752 99.7014 16.54 98.7574 16.54C97.8374 16.54 97.0294 16.76 96.3334 17.2C95.6374 17.632 95.0974 18.232 94.7134 19C94.3294 19.76 94.1374 20.644 94.1374 21.652C94.1374 22.628 94.3254 23.492 94.7014 24.244C95.0854 24.988 95.6294 25.572 96.3334 25.996C97.0374 26.42 97.8734 26.632 98.8414 26.632C99.8494 26.632 100.721 26.396 101.457 25.924C102.201 25.444 102.753 24.792 103.113 23.968L104.745 24.58C104.273 25.708 103.517 26.6 102.477 27.256C101.445 27.904 100.237 28.228 98.8534 28.228ZM93.4774 22.18V20.848H104.445L104.949 22.18H93.4774ZM120.466 28.228C119.138 28.228 117.982 27.948 116.998 27.388C116.022 26.828 115.262 26.056 114.718 25.072C114.182 24.08 113.914 22.94 113.914 21.652C113.914 20.676 114.062 19.784 114.358 18.976C114.654 18.16 115.078 17.456 115.63 16.864C116.182 16.264 116.838 15.804 117.598 15.484C118.358 15.156 119.206 14.992 120.142 14.992C121.046 14.992 121.798 15.14 122.398 15.436C123.006 15.724 123.478 16.124 123.814 16.636C124.15 17.14 124.366 17.72 124.462 18.376H124.882L124.534 20.188C124.43 19.468 124.194 18.836 123.826 18.292C123.458 17.74 122.978 17.312 122.386 17.008C121.794 16.696 121.11 16.54 120.334 16.54C119.406 16.54 118.59 16.76 117.886 17.2C117.19 17.632 116.646 18.232 116.254 19C115.87 19.76 115.678 20.644 115.678 21.652C115.678 22.628 115.874 23.492 116.266 24.244C116.666 24.988 117.222 25.572 117.934 25.996C118.654 26.42 119.502 26.632 120.478 26.632C121.486 26.632 122.354 26.412 123.082 25.972C123.81 25.524 124.342 24.924 124.678 24.172L126.274 24.88C125.818 25.912 125.086 26.728 124.078 27.328C123.078 27.928 121.874 28.228 120.466 28.228ZM124.534 20.188V15.22H126.262V20.188H124.534ZM135.046 28.228C133.718 28.228 132.554 27.948 131.554 27.388C130.554 26.82 129.774 26.044 129.214 25.06C128.654 24.076 128.374 22.94 128.374 21.652C128.374 20.356 128.654 19.208 129.214 18.208C129.774 17.2 130.554 16.412 131.554 15.844C132.554 15.276 133.718 14.992 135.046 14.992C136.374 14.992 137.538 15.276 138.538 15.844C139.538 16.412 140.318 17.2 140.878 18.208C141.438 19.208 141.718 20.356 141.718 21.652C141.718 22.94 141.438 24.076 140.878 25.06C140.318 26.044 139.538 26.82 138.538 27.388C137.538 27.948 136.374 28.228 135.046 28.228ZM135.046 26.632C136.006 26.632 136.85 26.424 137.578 26.008C138.314 25.592 138.886 25.012 139.294 24.268C139.71 23.516 139.918 22.644 139.918 21.652C139.918 20.652 139.71 19.772 139.294 19.012C138.886 18.252 138.314 17.66 137.578 17.236C136.85 16.804 136.006 16.588 135.046 16.588C134.086 16.588 133.238 16.804 132.502 17.236C131.774 17.66 131.202 18.252 130.786 19.012C130.378 19.772 130.174 20.652 130.174 21.652C130.174 22.644 130.378 23.516 130.786 24.268C131.202 25.012 131.774 25.592 132.502 26.008C133.238 26.424 134.086 26.632 135.046 26.632ZM148.067 26.512H150.347V28H143.711V26.512H146.339V16.708H143.711V15.22H148.067V26.512ZM155.435 26.512V19.828C155.435 18.78 155.199 17.956 154.727 17.356C154.255 16.756 153.511 16.456 152.495 16.456C151.671 16.456 150.923 16.66 150.251 17.068C149.579 17.476 149.047 18.068 148.655 18.844C148.263 19.62 148.067 20.56 148.067 21.664L147.671 19.108H148.151C148.303 18.236 148.595 17.496 149.027 16.888C149.459 16.272 150.011 15.804 150.683 15.484C151.363 15.156 152.143 14.992 153.023 14.992C154.415 14.992 155.451 15.396 156.131 16.204C156.819 17.004 157.163 18.136 157.163 19.6V26.512H159.623V28H153.191V26.512H155.435ZM167.542 28.228C166.214 28.228 165.058 27.948 164.074 27.388C163.098 26.828 162.338 26.056 161.794 25.072C161.258 24.08 160.99 22.94 160.99 21.652C160.99 20.676 161.138 19.784 161.434 18.976C161.73 18.16 162.154 17.456 162.706 16.864C163.258 16.264 163.914 15.804 164.674 15.484C165.434 15.156 166.282 14.992 167.218 14.992C168.122 14.992 168.874 15.14 169.474 15.436C170.082 15.724 170.554 16.124 170.89 16.636C171.226 17.14 171.442 17.72 171.538 18.376H171.958L171.61 20.188C171.506 19.468 171.27 18.836 170.902 18.292C170.534 17.74 170.054 17.312 169.462 17.008C168.87 16.696 168.186 16.54 167.41 16.54C166.482 16.54 165.666 16.76 164.962 17.2C164.266 17.632 163.722 18.232 163.33 19C162.946 19.76 162.754 20.644 162.754 21.652C162.754 22.628 162.95 23.492 163.342 24.244C163.742 24.988 164.298 25.572 165.01 25.996C165.73 26.42 166.578 26.632 167.554 26.632C168.562 26.632 169.43 26.412 170.158 25.972C170.886 25.524 171.418 24.924 171.754 24.172L173.35 24.88C172.894 25.912 172.162 26.728 171.154 27.328C170.154 27.928 168.95 28.228 167.542 28.228ZM171.61 20.188V15.22H173.338V20.188H171.61ZM181.966 28.228C180.646 28.228 179.502 27.948 178.534 27.388C177.566 26.828 176.818 26.056 176.29 25.072C175.762 24.08 175.498 22.94 175.498 21.652C175.498 20.348 175.762 19.196 176.29 18.196C176.826 17.196 177.57 16.412 178.522 15.844C179.482 15.276 180.598 14.992 181.87 14.992C183.15 14.992 184.258 15.272 185.194 15.832C186.13 16.392 186.85 17.168 187.354 18.16C187.858 19.152 188.11 20.296 188.11 21.592C188.11 21.744 188.106 21.864 188.098 21.952C188.098 22.04 188.09 22.116 188.074 22.18H186.37C186.378 22.084 186.382 21.98 186.382 21.868C186.39 21.748 186.394 21.612 186.394 21.46C186.394 20.508 186.21 19.664 185.842 18.928C185.482 18.184 184.966 17.6 184.294 17.176C183.622 16.752 182.814 16.54 181.87 16.54C180.95 16.54 180.142 16.76 179.446 17.2C178.75 17.632 178.21 18.232 177.826 19C177.442 19.76 177.25 20.644 177.25 21.652C177.25 22.628 177.438 23.492 177.814 24.244C178.198 24.988 178.742 25.572 179.446 25.996C180.15 26.42 180.986 26.632 181.954 26.632C182.962 26.632 183.834 26.396 184.57 25.924C185.314 25.444 185.866 24.792 186.226 23.968L187.858 24.58C187.386 25.708 186.63 26.6 185.59 27.256C184.558 27.904 183.35 28.228 181.966 28.228ZM176.59 22.18V20.848H187.558L188.062 22.18H176.59ZM194.369 26.512H196.649V28H190.013V26.512H192.641V16.708H190.013V15.22H194.369V26.512ZM201.737 26.512V19.828C201.737 18.78 201.501 17.956 201.029 17.356C200.557 16.756 199.813 16.456 198.797 16.456C197.973 16.456 197.225 16.66 196.553 17.068C195.881 17.476 195.349 18.068 194.957 18.844C194.565 19.62 194.369 20.56 194.369 21.664L193.973 19.108H194.453C194.605 18.236 194.897 17.496 195.329 16.888C195.761 16.272 196.313 15.804 196.985 15.484C197.665 15.156 198.445 14.992 199.325 14.992C200.717 14.992 201.753 15.396 202.433 16.204C203.121 17.004 203.465 18.136 203.465 19.6V26.512H205.925V28H199.493V26.512H201.737ZM210.578 24.616C210.578 25.288 210.706 25.796 210.962 26.14C211.218 26.476 211.61 26.644 212.138 26.644C212.658 26.644 213.05 26.472 213.314 26.128C213.578 25.776 213.71 25.272 213.71 24.616V23.428H215.27V24.604C215.27 25.372 215.154 26.028 214.922 26.572C214.698 27.108 214.354 27.52 213.89 27.808C213.426 28.088 212.83 28.228 212.102 28.228C211.358 28.228 210.746 28.084 210.266 27.796C209.786 27.5 209.43 27.084 209.198 26.548C208.966 26.012 208.85 25.368 208.85 24.616L208.862 16.708H206.582V15.22H208.862V11.98H210.59V15.22H215.102L215.09 16.708H210.59L210.578 24.616ZM221.323 26.512H223.819V28H216.967V26.512H219.595V16.708H216.967V15.22H221.323V26.512ZM226.231 17.056C226.087 17.016 225.931 16.984 225.763 16.96C225.603 16.936 225.427 16.924 225.235 16.924C224.051 16.924 223.103 17.368 222.391 18.256C221.679 19.136 221.323 20.36 221.323 21.928L220.915 19.132H221.407C221.519 18.284 221.751 17.556 222.103 16.948C222.455 16.332 222.911 15.86 223.471 15.532C224.039 15.196 224.703 15.028 225.463 15.028C225.607 15.028 225.735 15.036 225.847 15.052C225.967 15.06 226.095 15.076 226.231 15.1V17.056ZM237.531 28C237.203 28 236.951 27.896 236.775 27.688C236.607 27.48 236.523 27.188 236.523 26.812V22.972L236.679 22.576L236.595 21.124L236.523 20.368V19.396C236.523 18.74 236.387 18.204 236.115 17.788C235.851 17.372 235.467 17.064 234.963 16.864C234.459 16.664 233.851 16.564 233.139 16.564C232.075 16.564 231.251 16.776 230.667 17.2C230.091 17.616 229.707 18.244 229.515 19.084L227.859 18.736C228.019 17.896 228.319 17.2 228.759 16.648C229.199 16.088 229.783 15.672 230.511 15.4C231.247 15.12 232.143 14.98 233.199 14.98C234.303 14.98 235.227 15.136 235.971 15.448C236.723 15.752 237.291 16.22 237.675 16.852C238.059 17.484 238.251 18.3 238.251 19.3V26.512H240.135V28H237.531ZM231.507 28.168C230.179 28.168 229.171 27.876 228.483 27.292C227.795 26.7 227.451 25.832 227.451 24.688C227.451 23.632 227.755 22.828 228.363 22.276C228.971 21.716 229.947 21.296 231.291 21.016L237.039 19.792V21.028L231.579 22.264C230.795 22.448 230.207 22.72 229.815 23.08C229.431 23.432 229.239 23.932 229.239 24.58C229.239 25.284 229.455 25.812 229.887 26.164C230.319 26.508 230.951 26.68 231.783 26.68C232.703 26.68 233.527 26.468 234.255 26.044C234.983 25.62 235.555 24.996 235.971 24.172C236.387 23.348 236.595 22.332 236.595 21.124L237.051 23.956H236.439C236.239 25.292 235.719 26.328 234.879 27.064C234.047 27.8 232.923 28.168 231.507 28.168ZM245.044 24.616C245.044 25.288 245.172 25.796 245.428 26.14C245.684 26.476 246.076 26.644 246.604 26.644C247.124 26.644 247.516 26.472 247.78 26.128C248.044 25.776 248.176 25.272 248.176 24.616V23.428H249.736V24.604C249.736 25.372 249.62 26.028 249.388 26.572C249.164 27.108 248.82 27.52 248.356 27.808C247.892 28.088 247.296 28.228 246.568 28.228C245.824 28.228 245.212 28.084 244.732 27.796C244.252 27.5 243.896 27.084 243.664 26.548C243.432 26.012 243.316 25.368 243.316 24.616L243.328 16.708H241.048V15.22H243.328V11.98H245.056V15.22H249.568L249.556 16.708H245.056L245.044 24.616ZM255.909 26.512H258.369V28H251.589V26.512H254.181V16.708H251.589V15.22H255.909V26.512ZM253.857 9.832H256.065V12.124H253.857V9.832ZM266.535 28.228C265.207 28.228 264.043 27.948 263.043 27.388C262.043 26.82 261.263 26.044 260.703 25.06C260.143 24.076 259.863 22.94 259.863 21.652C259.863 20.356 260.143 19.208 260.703 18.208C261.263 17.2 262.043 16.412 263.043 15.844C264.043 15.276 265.207 14.992 266.535 14.992C267.863 14.992 269.027 15.276 270.027 15.844C271.027 16.412 271.807 17.2 272.367 18.208C272.927 19.208 273.207 20.356 273.207 21.652C273.207 22.94 272.927 24.076 272.367 25.06C271.807 26.044 271.027 26.82 270.027 27.388C269.027 27.948 267.863 28.228 266.535 28.228ZM266.535 26.632C267.495 26.632 268.339 26.424 269.067 26.008C269.803 25.592 270.375 25.012 270.783 24.268C271.199 23.516 271.407 22.644 271.407 21.652C271.407 20.652 271.199 19.772 270.783 19.012C270.375 18.252 269.803 17.66 269.067 17.236C268.339 16.804 267.495 16.588 266.535 16.588C265.575 16.588 264.727 16.804 263.991 17.236C263.263 17.66 262.691 18.252 262.275 19.012C261.867 19.772 261.663 20.652 261.663 21.652C261.663 22.644 261.867 23.516 262.275 24.268C262.691 25.012 263.263 25.592 263.991 26.008C264.727 26.424 265.575 26.632 266.535 26.632ZM279.556 26.512H281.836V28H275.2V26.512H277.828V16.708H275.2V15.22H279.556V26.512ZM286.924 26.512V19.828C286.924 18.78 286.688 17.956 286.216 17.356C285.744 16.756 285 16.456 283.984 16.456C283.16 16.456 282.412 16.66 281.74 17.068C281.068 17.476 280.536 18.068 280.144 18.844C279.752 19.62 279.556 20.56 279.556 21.664L279.16 19.108H279.64C279.792 18.236 280.084 17.496 280.516 16.888C280.948 16.272 281.5 15.804 282.172 15.484C282.852 15.156 283.632 14.992 284.512 14.992C285.904 14.992 286.94 15.396 287.62 16.204C288.308 17.004 288.652 18.136 288.652 19.6V26.512H291.112V28H284.68V26.512H286.924Z" fill="black"/>
<path d="M1 6.35211L6 1V39L1 33.6479V6.35211Z" fill="white"/>
<path d="M6 1L1 6.35211V33.6479L6 39" stroke="black" stroke-linecap="round"/>
<path d="M302 33.6479L297 39L297 1L302 6.35211L302 33.6479Z" fill="white"/>
<path d="M297 39L302 33.6479L302 6.35211L297 1" stroke="black" stroke-linecap="round"/>
</svg>
