<svg width="337" height="40" viewBox="0 0 337 40" fill="none" xmlns="http://www.w3.org/2000/svg">
<path d="M6 1H331V39H6V1Z" fill="white"/>
<path d="M6 1.5H331V0.5H6V1.5ZM331 38.5H6V39.5H331V38.5Z" fill="black"/>
<path d="M16.2252 26.512H18.4932V28H11.9292V26.512H14.4972V10.528H11.9292V9.04H16.2252V26.512ZM23.5932 26.512V19.792C23.5932 18.752 23.3572 17.936 22.8852 17.344C22.4212 16.752 21.6892 16.456 20.6892 16.456C19.8492 16.456 19.0932 16.672 18.4212 17.104C17.7492 17.528 17.2132 18.148 16.8132 18.964C16.4212 19.772 16.2252 20.748 16.2252 21.892L15.8172 19.336H16.2972C16.4572 18.4 16.7572 17.608 17.1972 16.96C17.6452 16.304 18.2132 15.804 18.9012 15.46C19.5892 15.116 20.3772 14.944 21.2652 14.944C22.6572 14.944 23.6812 15.344 24.3372 16.144C24.9932 16.944 25.3212 18.068 25.3212 19.516V26.512H27.7692V28H21.3372V26.512H23.5932ZM35.5888 28.228C34.2688 28.228 33.1248 27.948 32.1568 27.388C31.1888 26.828 30.4408 26.056 29.9128 25.072C29.3848 24.08 29.1208 22.94 29.1208 21.652C29.1208 20.348 29.3848 19.196 29.9128 18.196C30.4488 17.196 31.1928 16.412 32.1448 15.844C33.1048 15.276 34.2208 14.992 35.4928 14.992C36.7728 14.992 37.8808 15.272 38.8168 15.832C39.7528 16.392 40.4728 17.168 40.9768 18.16C41.4808 19.152 41.7328 20.296 41.7328 21.592C41.7328 21.744 41.7288 21.864 41.7208 21.952C41.7208 22.04 41.7128 22.116 41.6968 22.18H39.9928C40.0008 22.084 40.0048 21.98 40.0048 21.868C40.0128 21.748 40.0168 21.612 40.0168 21.46C40.0168 20.508 39.8328 19.664 39.4648 18.928C39.1048 18.184 38.5888 17.6 37.9168 17.176C37.2448 16.752 36.4368 16.54 35.4928 16.54C34.5728 16.54 33.7648 16.76 33.0688 17.2C32.3728 17.632 31.8328 18.232 31.4488 19C31.0648 19.76 30.8728 20.644 30.8728 21.652C30.8728 22.628 31.0608 23.492 31.4368 24.244C31.8208 24.988 32.3648 25.572 33.0688 25.996C33.7728 26.42 34.6088 26.632 35.5768 26.632C36.5848 26.632 37.4568 26.396 38.1928 25.924C38.9368 25.444 39.4888 24.792 39.8488 23.968L41.4808 24.58C41.0088 25.708 40.2528 26.6 39.2128 27.256C38.1808 27.904 36.9728 28.228 35.5888 28.228ZM30.2128 22.18V20.848H41.1808L41.6848 22.18H30.2128ZM54.0163 28C53.6883 28 53.4363 27.896 53.2603 27.688C53.0923 27.48 53.0083 27.188 53.0083 26.812V22.972L53.1643 22.576L53.0803 21.124L53.0083 20.368V19.396C53.0083 18.74 52.8723 18.204 52.6003 17.788C52.3363 17.372 51.9523 17.064 51.4483 16.864C50.9443 16.664 50.3363 16.564 49.6243 16.564C48.5603 16.564 47.7363 16.776 47.1523 17.2C46.5763 17.616 46.1923 18.244 46.0003 19.084L44.3443 18.736C44.5043 17.896 44.8043 17.2 45.2443 16.648C45.6843 16.088 46.2683 15.672 46.9963 15.4C47.7323 15.12 48.6283 14.98 49.6843 14.98C50.7883 14.98 51.7123 15.136 52.4563 15.448C53.2083 15.752 53.7763 16.22 54.1603 16.852C54.5443 17.484 54.7363 18.3 54.7363 19.3V26.512H56.6203V28H54.0163ZM47.9923 28.168C46.6643 28.168 45.6563 27.876 44.9683 27.292C44.2803 26.7 43.9363 25.832 43.9363 24.688C43.9363 23.632 44.2403 22.828 44.8483 22.276C45.4563 21.716 46.4323 21.296 47.7763 21.016L53.5243 19.792V21.028L48.0643 22.264C47.2803 22.448 46.6923 22.72 46.3003 23.08C45.9163 23.432 45.7243 23.932 45.7243 24.58C45.7243 25.284 45.9403 25.812 46.3723 26.164C46.8043 26.508 47.4363 26.68 48.2683 26.68C49.1883 26.68 50.0123 26.468 50.7403 26.044C51.4683 25.62 52.0403 24.996 52.4563 24.172C52.8723 23.348 53.0803 22.332 53.0803 21.124L53.5363 23.956H52.9243C52.7243 25.292 52.2043 26.328 51.3643 27.064C50.5323 27.8 49.4083 28.168 47.9923 28.168ZM69.2952 28V23.224L69.3672 22.288V20.764L69.2952 19.084V10.528H65.8512V9.04H71.0232V26.512H73.4712V28H69.2952ZM64.4832 14.98C65.5392 14.98 66.4832 15.212 67.3152 15.676C68.1552 16.14 68.8472 16.804 69.3912 17.668C69.9352 18.524 70.2952 19.552 70.4712 20.752L69.3672 21.58C69.3672 20.596 69.1752 19.724 68.7912 18.964C68.4152 18.204 67.8752 17.612 67.1712 17.188C66.4672 16.756 65.6312 16.54 64.6632 16.54C63.7112 16.54 62.8832 16.756 62.1792 17.188C61.4752 17.62 60.9312 18.216 60.5472 18.976C60.1712 19.736 59.9832 20.616 59.9832 21.616C59.9832 22.608 60.1792 23.484 60.5712 24.244C60.9632 25.004 61.5112 25.604 62.2152 26.044C62.9272 26.476 63.7432 26.692 64.6632 26.692C65.6232 26.692 66.4512 26.476 67.1472 26.044C67.8512 25.604 68.3952 25 68.7792 24.232C69.1712 23.464 69.3672 22.58 69.3672 21.58L69.6312 24.304H69.2232C69.0792 25.008 68.7992 25.66 68.3832 26.26C67.9672 26.852 67.4192 27.332 66.7392 27.7C66.0592 28.06 65.2432 28.24 64.2912 28.24C63.4032 28.24 62.5872 28.08 61.8432 27.76C61.0992 27.432 60.4552 26.972 59.9112 26.38C59.3672 25.78 58.9432 25.076 58.6392 24.268C58.3432 23.46 58.1952 22.576 58.1952 21.616C58.1952 20.32 58.4552 19.172 58.9752 18.172C59.4952 17.172 60.2232 16.392 61.1592 15.832C62.1032 15.264 63.2112 14.98 64.4832 14.98ZM81.3098 28.228C80.4538 28.228 79.7298 28.1 79.1378 27.844C78.5538 27.588 78.0898 27.248 77.7458 26.824C77.4018 26.392 77.1778 25.912 77.0738 25.384H76.6418L76.9898 23.968C77.1418 24.808 77.5578 25.492 78.2378 26.02C78.9258 26.548 79.8178 26.812 80.9138 26.812C81.8498 26.812 82.5738 26.624 83.0858 26.248C83.6058 25.864 83.8658 25.308 83.8658 24.58C83.8658 23.916 83.6098 23.4 83.0978 23.032C82.5858 22.664 81.6898 22.384 80.4098 22.192C78.5778 21.904 77.2738 21.452 76.4978 20.836C75.7218 20.212 75.3338 19.392 75.3338 18.376C75.3338 17.352 75.6898 16.532 76.4018 15.916C77.1138 15.3 78.1058 14.992 79.3778 14.992C80.2178 14.992 80.9098 15.12 81.4538 15.376C82.0058 15.632 82.4298 15.976 82.7258 16.408C83.0218 16.832 83.2138 17.3 83.3018 17.812H83.7338L83.3858 19.168C83.2418 18.352 82.8498 17.688 82.2098 17.176C81.5698 16.656 80.7338 16.396 79.7018 16.396C78.8698 16.396 78.2178 16.572 77.7458 16.924C77.2818 17.276 77.0498 17.744 77.0498 18.328C77.0498 18.944 77.3418 19.428 77.9258 19.78C78.5098 20.124 79.4298 20.396 80.6858 20.596C82.4618 20.876 83.7218 21.336 84.4658 21.976C85.2098 22.616 85.5818 23.48 85.5818 24.568C85.5818 25.712 85.2138 26.608 84.4778 27.256C83.7498 27.904 82.6938 28.228 81.3098 28.228ZM75.2618 28V23.968H76.9898V28H75.2618ZM83.3858 19.168V15.22H85.1138V19.168H83.3858ZM94.2548 28.228C92.9348 28.228 91.7908 27.948 90.8228 27.388C89.8548 26.828 89.1068 26.056 88.5788 25.072C88.0508 24.08 87.7868 22.94 87.7868 21.652C87.7868 20.348 88.0508 19.196 88.5788 18.196C89.1148 17.196 89.8588 16.412 90.8108 15.844C91.7708 15.276 92.8868 14.992 94.1588 14.992C95.4388 14.992 96.5468 15.272 97.4828 15.832C98.4188 16.392 99.1388 17.168 99.6428 18.16C100.147 19.152 100.399 20.296 100.399 21.592C100.399 21.744 100.395 21.864 100.387 21.952C100.387 22.04 100.379 22.116 100.363 22.18H98.6588C98.6668 22.084 98.6708 21.98 98.6708 21.868C98.6788 21.748 98.6828 21.612 98.6828 21.46C98.6828 20.508 98.4988 19.664 98.1308 18.928C97.7708 18.184 97.2548 17.6 96.5828 17.176C95.9108 16.752 95.1028 16.54 94.1588 16.54C93.2388 16.54 92.4308 16.76 91.7348 17.2C91.0388 17.632 90.4988 18.232 90.1148 19C89.7308 19.76 89.5388 20.644 89.5388 21.652C89.5388 22.628 89.7268 23.492 90.1028 24.244C90.4868 24.988 91.0308 25.572 91.7348 25.996C92.4388 26.42 93.2748 26.632 94.2428 26.632C95.2508 26.632 96.1228 26.396 96.8588 25.924C97.6028 25.444 98.1548 24.792 98.5148 23.968L100.147 24.58C99.6748 25.708 98.9188 26.6 97.8788 27.256C96.8468 27.904 95.6388 28.228 94.2548 28.228ZM88.8788 22.18V20.848H99.8468L100.351 22.18H88.8788ZM105.722 24.616C105.722 25.288 105.85 25.796 106.106 26.14C106.362 26.476 106.754 26.644 107.282 26.644C107.802 26.644 108.194 26.472 108.458 26.128C108.722 25.776 108.854 25.272 108.854 24.616V23.428H110.414V24.604C110.414 25.372 110.298 26.028 110.066 26.572C109.842 27.108 109.498 27.52 109.034 27.808C108.57 28.088 107.974 28.228 107.246 28.228C106.502 28.228 105.89 28.084 105.41 27.796C104.93 27.5 104.574 27.084 104.342 26.548C104.11 26.012 103.994 25.368 103.994 24.616L104.006 16.708H101.726V15.22H104.006V11.98H105.734V15.22H110.246L110.234 16.708H105.734L105.722 24.616ZM129.254 28C128.926 28 128.674 27.896 128.498 27.688C128.33 27.48 128.246 27.188 128.246 26.812V22.972L128.402 22.576L128.318 21.124L128.246 20.368V19.396C128.246 18.74 128.11 18.204 127.838 17.788C127.574 17.372 127.19 17.064 126.686 16.864C126.182 16.664 125.574 16.564 124.862 16.564C123.798 16.564 122.974 16.776 122.39 17.2C121.814 17.616 121.43 18.244 121.238 19.084L119.582 18.736C119.742 17.896 120.042 17.2 120.482 16.648C120.922 16.088 121.506 15.672 122.234 15.4C122.97 15.12 123.866 14.98 124.922 14.98C126.026 14.98 126.95 15.136 127.694 15.448C128.446 15.752 129.014 16.22 129.398 16.852C129.782 17.484 129.974 18.3 129.974 19.3V26.512H131.858V28H129.254ZM123.23 28.168C121.902 28.168 120.894 27.876 120.206 27.292C119.518 26.7 119.174 25.832 119.174 24.688C119.174 23.632 119.478 22.828 120.086 22.276C120.694 21.716 121.67 21.296 123.014 21.016L128.762 19.792V21.028L123.302 22.264C122.518 22.448 121.93 22.72 121.538 23.08C121.154 23.432 120.962 23.932 120.962 24.58C120.962 25.284 121.178 25.812 121.61 26.164C122.042 26.508 122.674 26.68 123.506 26.68C124.426 26.68 125.25 26.468 125.978 26.044C126.706 25.62 127.278 24.996 127.694 24.172C128.11 23.348 128.318 22.332 128.318 21.124L128.774 23.956H128.162C127.962 25.292 127.442 26.328 126.602 27.064C125.77 27.8 124.646 28.168 123.23 28.168ZM137.703 26.512H140.199V28H133.347V26.512H135.975V16.708H133.347V15.22H137.703V26.512ZM142.611 17.056C142.467 17.016 142.311 16.984 142.143 16.96C141.983 16.936 141.807 16.924 141.615 16.924C140.431 16.924 139.483 17.368 138.771 18.256C138.059 19.136 137.703 20.36 137.703 21.928L137.295 19.132H137.787C137.899 18.284 138.131 17.556 138.483 16.948C138.835 16.332 139.291 15.86 139.851 15.532C140.419 15.196 141.083 15.028 141.843 15.028C141.987 15.028 142.115 15.036 142.227 15.052C142.347 15.06 142.475 15.076 142.611 15.1V17.056ZM150.323 28.228C148.995 28.228 147.831 27.948 146.831 27.388C145.831 26.82 145.051 26.044 144.491 25.06C143.931 24.076 143.651 22.94 143.651 21.652C143.651 20.356 143.931 19.208 144.491 18.208C145.051 17.2 145.831 16.412 146.831 15.844C147.831 15.276 148.995 14.992 150.323 14.992C151.651 14.992 152.815 15.276 153.815 15.844C154.815 16.412 155.595 17.2 156.155 18.208C156.715 19.208 156.995 20.356 156.995 21.652C156.995 22.94 156.715 24.076 156.155 25.06C155.595 26.044 154.815 26.82 153.815 27.388C152.815 27.948 151.651 28.228 150.323 28.228ZM150.323 26.632C151.283 26.632 152.127 26.424 152.855 26.008C153.591 25.592 154.163 25.012 154.571 24.268C154.987 23.516 155.195 22.644 155.195 21.652C155.195 20.652 154.987 19.772 154.571 19.012C154.163 18.252 153.591 17.66 152.855 17.236C152.127 16.804 151.283 16.588 150.323 16.588C149.363 16.588 148.515 16.804 147.779 17.236C147.051 17.66 146.479 18.252 146.063 19.012C145.655 19.772 145.451 20.652 145.451 21.652C145.451 22.644 145.655 23.516 146.063 24.268C146.479 25.012 147.051 25.592 147.779 26.008C148.515 26.424 149.363 26.632 150.323 26.632ZM169.548 16.708H167.076V15.22H171.276V26.512H173.772V28H169.548V16.708ZM162.408 15.22V23.368C162.408 24.416 162.64 25.244 163.104 25.852C163.576 26.452 164.316 26.752 165.324 26.752C166.132 26.752 166.852 26.548 167.484 26.14C168.124 25.724 168.628 25.128 168.996 24.352C169.364 23.576 169.548 22.644 169.548 21.556L169.968 24.112H169.464C169.248 25.488 168.712 26.528 167.856 27.232C167.008 27.928 165.964 28.276 164.724 28.276C163.348 28.276 162.328 27.868 161.664 27.052C161.008 26.236 160.68 25.104 160.68 23.656V16.708H158.364V15.22H162.408ZM179.481 26.512H181.761V28H175.125V26.512H177.753V16.708H175.125V15.22H179.481V26.512ZM186.849 26.512V19.828C186.849 18.78 186.613 17.956 186.141 17.356C185.669 16.756 184.925 16.456 183.909 16.456C183.085 16.456 182.337 16.66 181.665 17.068C180.993 17.476 180.461 18.068 180.069 18.844C179.677 19.62 179.481 20.56 179.481 21.664L179.085 19.108H179.565C179.717 18.236 180.009 17.496 180.441 16.888C180.873 16.272 181.425 15.804 182.097 15.484C182.777 15.156 183.557 14.992 184.437 14.992C185.829 14.992 186.865 15.396 187.545 16.204C188.233 17.004 188.577 18.136 188.577 19.6V26.512H191.037V28H184.605V26.512H186.849ZM203.456 28V23.224L203.528 22.288V20.764L203.456 19.084V10.528H200.012V9.04H205.184V26.512H207.632V28H203.456ZM198.644 14.98C199.7 14.98 200.644 15.212 201.476 15.676C202.316 16.14 203.008 16.804 203.552 17.668C204.096 18.524 204.456 19.552 204.632 20.752L203.528 21.58C203.528 20.596 203.336 19.724 202.952 18.964C202.576 18.204 202.036 17.612 201.332 17.188C200.628 16.756 199.792 16.54 198.824 16.54C197.872 16.54 197.044 16.756 196.34 17.188C195.636 17.62 195.092 18.216 194.708 18.976C194.332 19.736 194.144 20.616 194.144 21.616C194.144 22.608 194.34 23.484 194.732 24.244C195.124 25.004 195.672 25.604 196.376 26.044C197.088 26.476 197.904 26.692 198.824 26.692C199.784 26.692 200.612 26.476 201.308 26.044C202.012 25.604 202.556 25 202.94 24.232C203.332 23.464 203.528 22.58 203.528 21.58L203.792 24.304H203.384C203.24 25.008 202.96 25.66 202.544 26.26C202.128 26.852 201.58 27.332 200.9 27.7C200.22 28.06 199.404 28.24 198.452 28.24C197.564 28.24 196.748 28.08 196.004 27.76C195.26 27.432 194.616 26.972 194.072 26.38C193.528 25.78 193.104 25.076 192.8 24.268C192.504 23.46 192.356 22.576 192.356 21.616C192.356 20.32 192.616 19.172 193.136 18.172C193.656 17.172 194.384 16.392 195.32 15.832C196.264 15.264 197.372 14.98 198.644 14.98ZM219.34 24.616C219.34 25.288 219.468 25.796 219.724 26.14C219.98 26.476 220.372 26.644 220.9 26.644C221.42 26.644 221.812 26.472 222.076 26.128C222.34 25.776 222.472 25.272 222.472 24.616V23.428H224.032V24.604C224.032 25.372 223.916 26.028 223.684 26.572C223.46 27.108 223.116 27.52 222.652 27.808C222.188 28.088 221.592 28.228 220.864 28.228C220.12 28.228 219.508 28.084 219.028 27.796C218.548 27.5 218.192 27.084 217.96 26.548C217.728 26.012 217.612 25.368 217.612 24.616L217.624 16.708H215.344V15.22H217.624V11.98H219.352V15.22H223.864L223.852 16.708H219.352L219.34 24.616ZM229.537 26.512H231.805V28H225.241V26.512H227.809V10.528H225.241V9.04H229.537V26.512ZM236.905 26.512V19.792C236.905 18.752 236.669 17.936 236.197 17.344C235.733 16.752 235.001 16.456 234.001 16.456C233.161 16.456 232.405 16.672 231.733 17.104C231.061 17.528 230.525 18.148 230.125 18.964C229.733 19.772 229.537 20.748 229.537 21.892L229.129 19.336H229.609C229.769 18.4 230.069 17.608 230.509 16.96C230.957 16.304 231.525 15.804 232.213 15.46C232.901 15.116 233.689 14.944 234.577 14.944C235.969 14.944 236.993 15.344 237.649 16.144C238.305 16.944 238.633 18.068 238.633 19.516V26.512H241.081V28H234.649V26.512H236.905ZM248.901 28.228C247.581 28.228 246.437 27.948 245.469 27.388C244.501 26.828 243.753 26.056 243.225 25.072C242.697 24.08 242.433 22.94 242.433 21.652C242.433 20.348 242.697 19.196 243.225 18.196C243.761 17.196 244.505 16.412 245.457 15.844C246.417 15.276 247.533 14.992 248.805 14.992C250.085 14.992 251.193 15.272 252.129 15.832C253.065 16.392 253.785 17.168 254.289 18.16C254.793 19.152 255.045 20.296 255.045 21.592C255.045 21.744 255.041 21.864 255.033 21.952C255.033 22.04 255.025 22.116 255.009 22.18H253.305C253.313 22.084 253.317 21.98 253.317 21.868C253.325 21.748 253.329 21.612 253.329 21.46C253.329 20.508 253.145 19.664 252.777 18.928C252.417 18.184 251.901 17.6 251.229 17.176C250.557 16.752 249.749 16.54 248.805 16.54C247.885 16.54 247.077 16.76 246.381 17.2C245.685 17.632 245.145 18.232 244.761 19C244.377 19.76 244.185 20.644 244.185 21.652C244.185 22.628 244.373 23.492 244.749 24.244C245.133 24.988 245.677 25.572 246.381 25.996C247.085 26.42 247.921 26.632 248.889 26.632C249.897 26.632 250.769 26.396 251.505 25.924C252.249 25.444 252.801 24.792 253.161 23.968L254.793 24.58C254.321 25.708 253.565 26.6 252.525 27.256C251.493 27.904 250.285 28.228 248.901 28.228ZM243.525 22.18V20.848H254.493L254.997 22.18H243.525ZM268.114 26.512H270.394V28H263.758V26.512H266.386V16.708H263.758V15.22H268.114V26.512ZM275.482 26.512V19.828C275.482 18.78 275.246 17.956 274.774 17.356C274.302 16.756 273.558 16.456 272.542 16.456C271.718 16.456 270.97 16.66 270.298 17.068C269.626 17.476 269.094 18.068 268.702 18.844C268.31 19.62 268.114 20.56 268.114 21.664L267.718 19.108H268.198C268.35 18.236 268.642 17.496 269.074 16.888C269.506 16.272 270.058 15.804 270.73 15.484C271.41 15.156 272.19 14.992 273.07 14.992C274.462 14.992 275.498 15.396 276.178 16.204C276.866 17.004 277.21 18.136 277.21 19.6V26.512H279.67V28H273.238V26.512H275.482ZM287.492 28.228C286.172 28.228 285.028 27.948 284.06 27.388C283.092 26.828 282.344 26.056 281.816 25.072C281.288 24.08 281.024 22.94 281.024 21.652C281.024 20.348 281.288 19.196 281.816 18.196C282.352 17.196 283.096 16.412 284.048 15.844C285.008 15.276 286.124 14.992 287.396 14.992C288.676 14.992 289.784 15.272 290.72 15.832C291.656 16.392 292.376 17.168 292.88 18.16C293.384 19.152 293.636 20.296 293.636 21.592C293.636 21.744 293.632 21.864 293.624 21.952C293.624 22.04 293.616 22.116 293.6 22.18H291.896C291.904 22.084 291.908 21.98 291.908 21.868C291.916 21.748 291.92 21.612 291.92 21.46C291.92 20.508 291.736 19.664 291.368 18.928C291.008 18.184 290.492 17.6 289.82 17.176C289.148 16.752 288.34 16.54 287.396 16.54C286.476 16.54 285.668 16.76 284.972 17.2C284.276 17.632 283.736 18.232 283.352 19C282.968 19.76 282.776 20.644 282.776 21.652C282.776 22.628 282.964 23.492 283.34 24.244C283.724 24.988 284.268 25.572 284.972 25.996C285.676 26.42 286.512 26.632 287.48 26.632C288.488 26.632 289.36 26.396 290.096 25.924C290.84 25.444 291.392 24.792 291.752 23.968L293.384 24.58C292.912 25.708 292.156 26.6 291.116 27.256C290.084 27.904 288.876 28.228 287.492 28.228ZM282.116 22.18V20.848H293.084L293.588 22.18H282.116ZM302.296 28.228C300.968 28.228 299.812 27.948 298.828 27.388C297.852 26.828 297.092 26.056 296.548 25.072C296.012 24.08 295.744 22.94 295.744 21.652C295.744 20.676 295.892 19.784 296.188 18.976C296.484 18.16 296.908 17.456 297.46 16.864C298.012 16.264 298.668 15.804 299.428 15.484C300.188 15.156 301.036 14.992 301.972 14.992C302.876 14.992 303.628 15.14 304.228 15.436C304.836 15.724 305.308 16.124 305.644 16.636C305.98 17.14 306.196 17.72 306.292 18.376H306.712L306.364 20.188C306.26 19.468 306.024 18.836 305.656 18.292C305.288 17.74 304.808 17.312 304.216 17.008C303.624 16.696 302.94 16.54 302.164 16.54C301.236 16.54 300.42 16.76 299.716 17.2C299.02 17.632 298.476 18.232 298.084 19C297.7 19.76 297.508 20.644 297.508 21.652C297.508 22.628 297.704 23.492 298.096 24.244C298.496 24.988 299.052 25.572 299.764 25.996C300.484 26.42 301.332 26.632 302.308 26.632C303.316 26.632 304.184 26.412 304.912 25.972C305.64 25.524 306.172 24.924 306.508 24.172L308.104 24.88C307.648 25.912 306.916 26.728 305.908 27.328C304.908 27.928 303.704 28.228 302.296 28.228ZM306.364 20.188V15.22H308.092V20.188H306.364ZM314.056 26.512H316.324V28H309.76V26.512H312.328V10.528H309.76V9.04H314.056V26.512ZM318.52 19.9L323.596 26.512H325.264V28H318.688V26.512H321.46L317.296 20.944L318.52 19.9ZM313.54 24.556L313.18 23.176L321.016 16.708H317.116V15.22H325.06V16.708H323.26L313.54 24.556Z" fill="black"/>
<path d="M1 6.35211L6 1V39L1 33.6479V6.35211Z" fill="white"/>
<path d="M6 1L1 6.35211V33.6479L6 39" stroke="black" stroke-linecap="round"/>
<path d="M336 33.6479L331 39L331 1L336 6.35211L336 33.6479Z" fill="white"/>
<path d="M331 39L336 33.6479L336 6.35211L331 1" stroke="black" stroke-linecap="round"/>
</svg>
