<svg width="262" height="40" viewBox="0 0 262 40" fill="none" xmlns="http://www.w3.org/2000/svg">
<path d="M6 1H256V39H6V1Z" fill="white"/>
<path d="M6 1.5H256V0.5H6V1.5ZM256 38.5H6V39.5H256V38.5Z" fill="black"/>
<path d="M18.9238 28.228C18.0678 28.228 17.3438 28.1 16.7518 27.844C16.1678 27.588 15.7038 27.248 15.3598 26.824C15.0158 26.392 14.7918 25.912 14.6878 25.384H14.2558L14.6038 23.968C14.7558 24.808 15.1718 25.492 15.8518 26.02C16.5398 26.548 17.4318 26.812 18.5278 26.812C19.4638 26.812 20.1878 26.624 20.6998 26.248C21.2198 25.864 21.4798 25.308 21.4798 24.58C21.4798 23.916 21.2238 23.4 20.7118 23.032C20.1998 22.664 19.3038 22.384 18.0238 22.192C16.1918 21.904 14.8878 21.452 14.1118 20.836C13.3358 20.212 12.9478 19.392 12.9478 18.376C12.9478 17.352 13.3038 16.532 14.0158 15.916C14.7278 15.3 15.7198 14.992 16.9918 14.992C17.8318 14.992 18.5238 15.12 19.0678 15.376C19.6198 15.632 20.0438 15.976 20.3398 16.408C20.6358 16.832 20.8278 17.3 20.9158 17.812H21.3478L20.9998 19.168C20.8558 18.352 20.4638 17.688 19.8238 17.176C19.1838 16.656 18.3478 16.396 17.3158 16.396C16.4838 16.396 15.8318 16.572 15.3598 16.924C14.8958 17.276 14.6638 17.744 14.6638 18.328C14.6638 18.944 14.9558 19.428 15.5398 19.78C16.1238 20.124 17.0438 20.396 18.2998 20.596C20.0758 20.876 21.3358 21.336 22.0798 21.976C22.8238 22.616 23.1958 23.48 23.1958 24.568C23.1958 25.712 22.8278 26.608 22.0918 27.256C21.3638 27.904 20.3078 28.228 18.9238 28.228ZM12.8758 28V23.968H14.6038V28H12.8758ZM20.9998 19.168V15.22H22.7278V19.168H20.9998ZM28.6288 24.616C28.6288 25.288 28.7568 25.796 29.0128 26.14C29.2688 26.476 29.6608 26.644 30.1888 26.644C30.7088 26.644 31.1008 26.472 31.3648 26.128C31.6288 25.776 31.7608 25.272 31.7608 24.616V23.428H33.3208V24.604C33.3208 25.372 33.2048 26.028 32.9728 26.572C32.7488 27.108 32.4048 27.52 31.9408 27.808C31.4768 28.088 30.8808 28.228 30.1528 28.228C29.4088 28.228 28.7968 28.084 28.3168 27.796C27.8368 27.5 27.4808 27.084 27.2488 26.548C27.0168 26.012 26.9008 25.368 26.9008 24.616L26.9128 16.708H24.6328V15.22H26.9128V11.98H28.6408V15.22H33.1528L33.1408 16.708H28.6408L28.6288 24.616ZM39.3739 26.512H41.8699V28H35.0179V26.512H37.6459V16.708H35.0179V15.22H39.3739V26.512ZM44.2819 17.056C44.1379 17.016 43.9819 16.984 43.8139 16.96C43.6539 16.936 43.4779 16.924 43.2859 16.924C42.1019 16.924 41.1539 17.368 40.4419 18.256C39.7299 19.136 39.3739 20.36 39.3739 21.928L38.9659 19.132H39.4579C39.5699 18.284 39.8019 17.556 40.1539 16.948C40.5059 16.332 40.9619 15.86 41.5219 15.532C42.0899 15.196 42.7539 15.028 43.5139 15.028C43.6579 15.028 43.7859 15.036 43.8979 15.052C44.0179 15.06 44.1459 15.076 44.2819 15.1V17.056ZM51.8385 28.228C50.5185 28.228 49.3745 27.948 48.4065 27.388C47.4385 26.828 46.6905 26.056 46.1625 25.072C45.6345 24.08 45.3705 22.94 45.3705 21.652C45.3705 20.348 45.6345 19.196 46.1625 18.196C46.6985 17.196 47.4425 16.412 48.3945 15.844C49.3545 15.276 50.4705 14.992 51.7425 14.992C53.0225 14.992 54.1305 15.272 55.0665 15.832C56.0025 16.392 56.7225 17.168 57.2265 18.16C57.7305 19.152 57.9825 20.296 57.9825 21.592C57.9825 21.744 57.9785 21.864 57.9705 21.952C57.9705 22.04 57.9625 22.116 57.9465 22.18H56.2425C56.2505 22.084 56.2545 21.98 56.2545 21.868C56.2625 21.748 56.2665 21.612 56.2665 21.46C56.2665 20.508 56.0825 19.664 55.7145 18.928C55.3545 18.184 54.8385 17.6 54.1665 17.176C53.4945 16.752 52.6865 16.54 51.7425 16.54C50.8225 16.54 50.0145 16.76 49.3185 17.2C48.6225 17.632 48.0825 18.232 47.6985 19C47.3145 19.76 47.1225 20.644 47.1225 21.652C47.1225 22.628 47.3105 23.492 47.6865 24.244C48.0705 24.988 48.6145 25.572 49.3185 25.996C50.0225 26.42 50.8585 26.632 51.8265 26.632C52.8345 26.632 53.7065 26.396 54.4425 25.924C55.1865 25.444 55.7385 24.792 56.0985 23.968L57.7305 24.58C57.2585 25.708 56.5025 26.6 55.4625 27.256C54.4305 27.904 53.2225 28.228 51.8385 28.228ZM46.4625 22.18V20.848H57.4305L57.9345 22.18H46.4625ZM66.546 28.228C65.226 28.228 64.082 27.948 63.114 27.388C62.146 26.828 61.398 26.056 60.87 25.072C60.342 24.08 60.078 22.94 60.078 21.652C60.078 20.348 60.342 19.196 60.87 18.196C61.406 17.196 62.15 16.412 63.102 15.844C64.062 15.276 65.178 14.992 66.45 14.992C67.73 14.992 68.838 15.272 69.774 15.832C70.71 16.392 71.43 17.168 71.934 18.16C72.438 19.152 72.69 20.296 72.69 21.592C72.69 21.744 72.686 21.864 72.678 21.952C72.678 22.04 72.67 22.116 72.654 22.18H70.95C70.958 22.084 70.962 21.98 70.962 21.868C70.97 21.748 70.974 21.612 70.974 21.46C70.974 20.508 70.79 19.664 70.422 18.928C70.062 18.184 69.546 17.6 68.874 17.176C68.202 16.752 67.394 16.54 66.45 16.54C65.53 16.54 64.722 16.76 64.026 17.2C63.33 17.632 62.79 18.232 62.406 19C62.022 19.76 61.83 20.644 61.83 21.652C61.83 22.628 62.018 23.492 62.394 24.244C62.778 24.988 63.322 25.572 64.026 25.996C64.73 26.42 65.566 26.632 66.534 26.632C67.542 26.632 68.414 26.396 69.15 25.924C69.894 25.444 70.446 24.792 70.806 23.968L72.438 24.58C71.966 25.708 71.21 26.6 70.17 27.256C69.138 27.904 67.93 28.228 66.546 28.228ZM61.17 22.18V20.848H72.138L72.642 22.18H61.17ZM78.0135 24.616C78.0135 25.288 78.1415 25.796 78.3975 26.14C78.6535 26.476 79.0455 26.644 79.5735 26.644C80.0935 26.644 80.4855 26.472 80.7495 26.128C81.0135 25.776 81.1455 25.272 81.1455 24.616V23.428H82.7055V24.604C82.7055 25.372 82.5895 26.028 82.3575 26.572C82.1335 27.108 81.7895 27.52 81.3255 27.808C80.8615 28.088 80.2655 28.228 79.5375 28.228C78.7935 28.228 78.1815 28.084 77.7015 27.796C77.2215 27.5 76.8655 27.084 76.6335 26.548C76.4015 26.012 76.2855 25.368 76.2855 24.616L76.2975 16.708H74.0175V15.22H76.2975V11.98H78.0255V15.22H82.5375L82.5255 16.708H78.0255L78.0135 24.616ZM91.1648 28V26.512H93.6968V16.708H91.1648V15.22H93.6968V13.24C93.6968 11.848 94.0488 10.764 94.7528 9.988C95.4568 9.204 96.5208 8.812 97.9448 8.812C99.1048 8.812 100.005 9.068 100.645 9.58C101.293 10.092 101.725 10.836 101.941 11.812L100.381 12.292C100.237 11.66 99.9608 11.188 99.5528 10.876C99.1528 10.556 98.6168 10.396 97.9448 10.396C97.1448 10.396 96.5248 10.628 96.0848 11.092C95.6448 11.556 95.4248 12.272 95.4248 13.24V15.22H99.6728V16.708H95.4248V26.512H98.4848V28H91.1648ZM111.166 28C110.838 28 110.586 27.896 110.41 27.688C110.242 27.48 110.158 27.188 110.158 26.812V22.972L110.314 22.576L110.23 21.124L110.158 20.368V19.396C110.158 18.74 110.022 18.204 109.75 17.788C109.486 17.372 109.102 17.064 108.598 16.864C108.094 16.664 107.486 16.564 106.774 16.564C105.71 16.564 104.886 16.776 104.302 17.2C103.726 17.616 103.342 18.244 103.15 19.084L101.494 18.736C101.654 17.896 101.954 17.2 102.394 16.648C102.834 16.088 103.418 15.672 104.146 15.4C104.882 15.12 105.778 14.98 106.834 14.98C107.938 14.98 108.862 15.136 109.606 15.448C110.358 15.752 110.926 16.22 111.31 16.852C111.694 17.484 111.886 18.3 111.886 19.3V26.512H113.77V28H111.166ZM105.142 28.168C103.814 28.168 102.806 27.876 102.118 27.292C101.43 26.7 101.086 25.832 101.086 24.688C101.086 23.632 101.39 22.828 101.998 22.276C102.606 21.716 103.582 21.296 104.926 21.016L110.674 19.792V21.028L105.214 22.264C104.43 22.448 103.842 22.72 103.45 23.08C103.066 23.432 102.874 23.932 102.874 24.58C102.874 25.284 103.09 25.812 103.522 26.164C103.954 26.508 104.586 26.68 105.418 26.68C106.338 26.68 107.162 26.468 107.89 26.044C108.618 25.62 109.19 24.996 109.606 24.172C110.022 23.348 110.23 22.332 110.23 21.124L110.686 23.956H110.074C109.874 25.292 109.354 26.328 108.514 27.064C107.682 27.8 106.558 28.168 105.142 28.168ZM121.619 28.228C120.763 28.228 120.039 28.1 119.447 27.844C118.863 27.588 118.399 27.248 118.055 26.824C117.711 26.392 117.487 25.912 117.383 25.384H116.951L117.299 23.968C117.451 24.808 117.867 25.492 118.547 26.02C119.235 26.548 120.127 26.812 121.223 26.812C122.159 26.812 122.883 26.624 123.395 26.248C123.915 25.864 124.175 25.308 124.175 24.58C124.175 23.916 123.919 23.4 123.407 23.032C122.895 22.664 121.999 22.384 120.719 22.192C118.887 21.904 117.583 21.452 116.807 20.836C116.031 20.212 115.643 19.392 115.643 18.376C115.643 17.352 115.999 16.532 116.711 15.916C117.423 15.3 118.415 14.992 119.687 14.992C120.527 14.992 121.219 15.12 121.763 15.376C122.315 15.632 122.739 15.976 123.035 16.408C123.331 16.832 123.523 17.3 123.611 17.812H124.043L123.695 19.168C123.551 18.352 123.159 17.688 122.519 17.176C121.879 16.656 121.043 16.396 120.011 16.396C119.179 16.396 118.527 16.572 118.055 16.924C117.591 17.276 117.359 17.744 117.359 18.328C117.359 18.944 117.651 19.428 118.235 19.78C118.819 20.124 119.739 20.396 120.995 20.596C122.771 20.876 124.031 21.336 124.775 21.976C125.519 22.616 125.891 23.48 125.891 24.568C125.891 25.712 125.523 26.608 124.787 27.256C124.059 27.904 123.003 28.228 121.619 28.228ZM115.571 28V23.968H117.299V28H115.571ZM123.695 19.168V15.22H125.423V19.168H123.695ZM131.807 26.512H134.075V28H127.511V26.512H130.079V10.528H127.511V9.04H131.807V26.512ZM139.175 26.512V19.792C139.175 18.752 138.939 17.936 138.467 17.344C138.003 16.752 137.271 16.456 136.271 16.456C135.431 16.456 134.675 16.672 134.003 17.104C133.331 17.528 132.795 18.148 132.395 18.964C132.003 19.772 131.807 20.748 131.807 21.892L131.399 19.336H131.879C132.039 18.4 132.339 17.608 132.779 16.96C133.227 16.304 133.795 15.804 134.483 15.46C135.171 15.116 135.959 14.944 136.847 14.944C138.239 14.944 139.263 15.344 139.919 16.144C140.575 16.944 140.903 18.068 140.903 19.516V26.512H143.351V28H136.919V26.512H139.175ZM149.057 26.512H151.517V28H144.737V26.512H147.329V16.708H144.737V15.22H149.057V26.512ZM147.005 9.832H149.213V12.124H147.005V9.832ZM159.682 28.228C158.354 28.228 157.19 27.948 156.19 27.388C155.19 26.82 154.41 26.044 153.85 25.06C153.29 24.076 153.01 22.94 153.01 21.652C153.01 20.356 153.29 19.208 153.85 18.208C154.41 17.2 155.19 16.412 156.19 15.844C157.19 15.276 158.354 14.992 159.682 14.992C161.01 14.992 162.174 15.276 163.174 15.844C164.174 16.412 164.954 17.2 165.514 18.208C166.074 19.208 166.354 20.356 166.354 21.652C166.354 22.94 166.074 24.076 165.514 25.06C164.954 26.044 164.174 26.82 163.174 27.388C162.174 27.948 161.01 28.228 159.682 28.228ZM159.682 26.632C160.642 26.632 161.486 26.424 162.214 26.008C162.95 25.592 163.522 25.012 163.93 24.268C164.346 23.516 164.554 22.644 164.554 21.652C164.554 20.652 164.346 19.772 163.93 19.012C163.522 18.252 162.95 17.66 162.214 17.236C161.486 16.804 160.642 16.588 159.682 16.588C158.722 16.588 157.874 16.804 157.138 17.236C156.41 17.66 155.838 18.252 155.422 19.012C155.014 19.772 154.81 20.652 154.81 21.652C154.81 22.644 155.014 23.516 155.422 24.268C155.838 25.012 156.41 25.592 157.138 26.008C157.874 26.424 158.722 26.632 159.682 26.632ZM172.703 26.512H174.983V28H168.347V26.512H170.975V16.708H168.347V15.22H172.703V26.512ZM180.071 26.512V19.828C180.071 18.78 179.835 17.956 179.363 17.356C178.891 16.756 178.147 16.456 177.131 16.456C176.307 16.456 175.559 16.66 174.887 17.068C174.215 17.476 173.683 18.068 173.291 18.844C172.899 19.62 172.703 20.56 172.703 21.664L172.307 19.108H172.787C172.939 18.236 173.231 17.496 173.663 16.888C174.095 16.272 174.647 15.804 175.319 15.484C175.999 15.156 176.779 14.992 177.659 14.992C179.051 14.992 180.087 15.396 180.767 16.204C181.455 17.004 181.799 18.136 181.799 19.6V26.512H184.259V28H177.827V26.512H180.071ZM198.661 28.228C197.805 28.228 197.081 28.1 196.489 27.844C195.905 27.588 195.441 27.248 195.097 26.824C194.753 26.392 194.529 25.912 194.425 25.384H193.993L194.341 23.968C194.493 24.808 194.909 25.492 195.589 26.02C196.277 26.548 197.169 26.812 198.265 26.812C199.201 26.812 199.925 26.624 200.437 26.248C200.957 25.864 201.217 25.308 201.217 24.58C201.217 23.916 200.961 23.4 200.449 23.032C199.937 22.664 199.041 22.384 197.761 22.192C195.929 21.904 194.625 21.452 193.849 20.836C193.073 20.212 192.685 19.392 192.685 18.376C192.685 17.352 193.041 16.532 193.753 15.916C194.465 15.3 195.457 14.992 196.729 14.992C197.569 14.992 198.261 15.12 198.805 15.376C199.357 15.632 199.781 15.976 200.077 16.408C200.373 16.832 200.565 17.3 200.653 17.812H201.085L200.737 19.168C200.593 18.352 200.201 17.688 199.561 17.176C198.921 16.656 198.085 16.396 197.053 16.396C196.221 16.396 195.569 16.572 195.097 16.924C194.633 17.276 194.401 17.744 194.401 18.328C194.401 18.944 194.693 19.428 195.277 19.78C195.861 20.124 196.781 20.396 198.037 20.596C199.813 20.876 201.073 21.336 201.817 21.976C202.561 22.616 202.933 23.48 202.933 24.568C202.933 25.712 202.565 26.608 201.829 27.256C201.101 27.904 200.045 28.228 198.661 28.228ZM192.613 28V23.968H194.341V28H192.613ZM200.737 19.168V15.22H202.465V19.168H200.737ZM208.366 24.616C208.366 25.288 208.494 25.796 208.75 26.14C209.006 26.476 209.398 26.644 209.926 26.644C210.446 26.644 210.838 26.472 211.102 26.128C211.366 25.776 211.498 25.272 211.498 24.616V23.428H213.058V24.604C213.058 25.372 212.942 26.028 212.71 26.572C212.486 27.108 212.142 27.52 211.678 27.808C211.214 28.088 210.618 28.228 209.89 28.228C209.146 28.228 208.534 28.084 208.054 27.796C207.574 27.5 207.218 27.084 206.986 26.548C206.754 26.012 206.638 25.368 206.638 24.616L206.65 16.708H204.37V15.22H206.65V11.98H208.378V15.22H212.89L212.878 16.708H208.378L208.366 24.616ZM222.355 15.22H228.307V16.708H226.711L221.431 29.704C220.999 30.776 220.331 31.6 219.427 32.176C218.531 32.752 217.415 33.04 216.079 33.04H214.819V31.516H216.079C216.975 31.516 217.755 31.328 218.419 30.952C219.091 30.584 219.579 30.04 219.883 29.32L220.795 27.076L220.495 28.564L215.611 16.708H213.847V15.22H219.919V16.708H217.495L221.803 27.472L220.231 26.08H221.887L220.987 26.896L224.983 16.708H222.355V15.22ZM232.839 26.512H235.467V28H228.483V26.512H231.111V10.528H228.483V9.04H232.839V26.512ZM243.237 28.228C241.917 28.228 240.773 27.948 239.805 27.388C238.837 26.828 238.089 26.056 237.561 25.072C237.033 24.08 236.769 22.94 236.769 21.652C236.769 20.348 237.033 19.196 237.561 18.196C238.097 17.196 238.841 16.412 239.793 15.844C240.753 15.276 241.869 14.992 243.141 14.992C244.421 14.992 245.529 15.272 246.465 15.832C247.401 16.392 248.121 17.168 248.625 18.16C249.129 19.152 249.381 20.296 249.381 21.592C249.381 21.744 249.377 21.864 249.369 21.952C249.369 22.04 249.361 22.116 249.345 22.18H247.641C247.649 22.084 247.653 21.98 247.653 21.868C247.661 21.748 247.665 21.612 247.665 21.46C247.665 20.508 247.481 19.664 247.113 18.928C246.753 18.184 246.237 17.6 245.565 17.176C244.893 16.752 244.085 16.54 243.141 16.54C242.221 16.54 241.413 16.76 240.717 17.2C240.021 17.632 239.481 18.232 239.097 19C238.713 19.76 238.521 20.644 238.521 21.652C238.521 22.628 238.709 23.492 239.085 24.244C239.469 24.988 240.013 25.572 240.717 25.996C241.421 26.42 242.257 26.632 243.225 26.632C244.233 26.632 245.105 26.396 245.841 25.924C246.585 25.444 247.137 24.792 247.497 23.968L249.129 24.58C248.657 25.708 247.901 26.6 246.861 27.256C245.829 27.904 244.621 28.228 243.237 28.228ZM237.861 22.18V20.848H248.829L249.333 22.18H237.861Z" fill="black"/>
<path d="M1 6.35211L6 1V39L1 33.6479V6.35211Z" fill="white"/>
<path d="M6 1L1 6.35211V33.6479L6 39" stroke="black" stroke-linecap="round"/>
<path d="M261 33.6479L256 39L256 1L261 6.35211L261 33.6479Z" fill="white"/>
<path d="M256 39L261 33.6479L261 6.35211L256 1" stroke="black" stroke-linecap="round"/>
</svg>
