<svg width="127" height="40" viewBox="0 0 127 40" fill="none" xmlns="http://www.w3.org/2000/svg">
<path d="M6 1H121V39H6V1Z" fill="white"/>
<path d="M6 1.5H121V0.5H6V1.5ZM121 38.5H6V39.5H121V38.5Z" fill="black"/>
<path d="M19.0087 28.228C18.1527 28.228 17.4287 28.1 16.8367 27.844C16.2527 27.588 15.7887 27.248 15.4447 26.824C15.1007 26.392 14.8767 25.912 14.7727 25.384H14.3407L14.6887 23.968C14.8407 24.808 15.2567 25.492 15.9367 26.02C16.6247 26.548 17.5167 26.812 18.6127 26.812C19.5487 26.812 20.2727 26.624 20.7847 26.248C21.3047 25.864 21.5647 25.308 21.5647 24.58C21.5647 23.916 21.3087 23.4 20.7967 23.032C20.2847 22.664 19.3887 22.384 18.1087 22.192C16.2767 21.904 14.9727 21.452 14.1967 20.836C13.4207 20.212 13.0327 19.392 13.0327 18.376C13.0327 17.352 13.3887 16.532 14.1007 15.916C14.8127 15.3 15.8047 14.992 17.0767 14.992C17.9167 14.992 18.6087 15.12 19.1527 15.376C19.7047 15.632 20.1287 15.976 20.4247 16.408C20.7207 16.832 20.9127 17.3 21.0007 17.812H21.4327L21.0847 19.168C20.9407 18.352 20.5487 17.688 19.9087 17.176C19.2687 16.656 18.4327 16.396 17.4007 16.396C16.5687 16.396 15.9167 16.572 15.4447 16.924C14.9807 17.276 14.7487 17.744 14.7487 18.328C14.7487 18.944 15.0407 19.428 15.6247 19.78C16.2087 20.124 17.1287 20.396 18.3847 20.596C20.1607 20.876 21.4207 21.336 22.1647 21.976C22.9087 22.616 23.2807 23.48 23.2807 24.568C23.2807 25.712 22.9127 26.608 22.1767 27.256C21.4487 27.904 20.3927 28.228 19.0087 28.228ZM12.9607 28V23.968H14.6887V28H12.9607ZM21.0847 19.168V15.22H22.8127V19.168H21.0847ZM32.1097 28.228C30.7817 28.228 29.6177 27.948 28.6177 27.388C27.6177 26.82 26.8377 26.044 26.2777 25.06C25.7177 24.076 25.4377 22.94 25.4377 21.652C25.4377 20.356 25.7177 19.208 26.2777 18.208C26.8377 17.2 27.6177 16.412 28.6177 15.844C29.6177 15.276 30.7817 14.992 32.1097 14.992C33.4377 14.992 34.6017 15.276 35.6017 15.844C36.6017 16.412 37.3817 17.2 37.9417 18.208C38.5017 19.208 38.7817 20.356 38.7817 21.652C38.7817 22.94 38.5017 24.076 37.9417 25.06C37.3817 26.044 36.6017 26.82 35.6017 27.388C34.6017 27.948 33.4377 28.228 32.1097 28.228ZM32.1097 26.632C33.0697 26.632 33.9137 26.424 34.6417 26.008C35.3777 25.592 35.9497 25.012 36.3577 24.268C36.7737 23.516 36.9817 22.644 36.9817 21.652C36.9817 20.652 36.7737 19.772 36.3577 19.012C35.9497 18.252 35.3777 17.66 34.6417 17.236C33.9137 16.804 33.0697 16.588 32.1097 16.588C31.1497 16.588 30.3017 16.804 29.5657 17.236C28.8377 17.66 28.2657 18.252 27.8497 19.012C27.4417 19.772 27.2377 20.652 27.2377 21.652C27.2377 22.644 27.4417 23.516 27.8497 24.268C28.2657 25.012 28.8377 25.592 29.5657 26.008C30.3017 26.424 31.1497 26.632 32.1097 26.632ZM47.5306 28.228C46.2026 28.228 45.0466 27.948 44.0626 27.388C43.0866 26.828 42.3266 26.056 41.7826 25.072C41.2466 24.08 40.9786 22.94 40.9786 21.652C40.9786 20.676 41.1266 19.784 41.4226 18.976C41.7186 18.16 42.1426 17.456 42.6946 16.864C43.2466 16.264 43.9026 15.804 44.6626 15.484C45.4226 15.156 46.2706 14.992 47.2066 14.992C48.1106 14.992 48.8626 15.14 49.4626 15.436C50.0706 15.724 50.5426 16.124 50.8786 16.636C51.2146 17.14 51.4306 17.72 51.5266 18.376H51.9466L51.5986 20.188C51.4946 19.468 51.2586 18.836 50.8906 18.292C50.5226 17.74 50.0426 17.312 49.4506 17.008C48.8586 16.696 48.1746 16.54 47.3986 16.54C46.4706 16.54 45.6546 16.76 44.9506 17.2C44.2546 17.632 43.7106 18.232 43.3186 19C42.9346 19.76 42.7426 20.644 42.7426 21.652C42.7426 22.628 42.9386 23.492 43.3306 24.244C43.7306 24.988 44.2866 25.572 44.9986 25.996C45.7186 26.42 46.5666 26.632 47.5426 26.632C48.5506 26.632 49.4186 26.412 50.1466 25.972C50.8746 25.524 51.4066 24.924 51.7426 24.172L53.3386 24.88C52.8826 25.912 52.1506 26.728 51.1426 27.328C50.1426 27.928 48.9386 28.228 47.5306 28.228ZM51.5986 20.188V15.22H53.3266V20.188H51.5986ZM59.7706 26.512H62.2306V28H55.4506V26.512H58.0426V16.708H55.4506V15.22H59.7706V26.512ZM57.7186 9.832H59.9266V12.124H57.7186V9.832ZM73.7259 28C73.3979 28 73.1459 27.896 72.9699 27.688C72.8019 27.48 72.7179 27.188 72.7179 26.812V22.972L72.8739 22.576L72.7899 21.124L72.7179 20.368V19.396C72.7179 18.74 72.5819 18.204 72.3099 17.788C72.0459 17.372 71.6619 17.064 71.1579 16.864C70.6539 16.664 70.0459 16.564 69.3339 16.564C68.2699 16.564 67.4459 16.776 66.8619 17.2C66.2859 17.616 65.9019 18.244 65.7099 19.084L64.0539 18.736C64.2139 17.896 64.5139 17.2 64.9539 16.648C65.3939 16.088 65.9779 15.672 66.7059 15.4C67.4419 15.12 68.3379 14.98 69.3939 14.98C70.4979 14.98 71.4219 15.136 72.1659 15.448C72.9179 15.752 73.4859 16.22 73.8699 16.852C74.2539 17.484 74.4459 18.3 74.4459 19.3V26.512H76.3299V28H73.7259ZM67.7019 28.168C66.3739 28.168 65.3659 27.876 64.6779 27.292C63.9899 26.7 63.6459 25.832 63.6459 24.688C63.6459 23.632 63.9499 22.828 64.5579 22.276C65.1659 21.716 66.1419 21.296 67.4859 21.016L73.2339 19.792V21.028L67.7739 22.264C66.9899 22.448 66.4019 22.72 66.0099 23.08C65.6259 23.432 65.4339 23.932 65.4339 24.58C65.4339 25.284 65.6499 25.812 66.0819 26.164C66.5139 26.508 67.1459 26.68 67.9779 26.68C68.8979 26.68 69.7219 26.468 70.4499 26.044C71.1779 25.62 71.7499 24.996 72.1659 24.172C72.5819 23.348 72.7899 22.332 72.7899 21.124L73.2459 23.956H72.6339C72.4339 25.292 71.9139 26.328 71.0739 27.064C70.2419 27.8 69.1179 28.168 67.7019 28.168ZM79.211 28.264V10.528H76.643V9.04H80.939V19.696L80.867 21.196V22.792L80.939 25.12L79.367 28.264H79.211ZM85.679 28.24C84.607 28.24 83.647 28.04 82.799 27.64C81.959 27.232 81.263 26.656 80.711 25.912C80.167 25.16 79.803 24.268 79.619 23.236L80.867 21.616C80.867 22.6 81.055 23.472 81.431 24.232C81.807 24.992 82.347 25.592 83.051 26.032C83.755 26.464 84.591 26.68 85.559 26.68C86.543 26.68 87.383 26.468 88.079 26.044C88.783 25.62 89.319 25.028 89.687 24.268C90.063 23.5 90.251 22.608 90.251 21.592C90.251 20.6 90.051 19.724 89.651 18.964C89.259 18.204 88.711 17.608 88.007 17.176C87.303 16.744 86.487 16.528 85.559 16.528C84.607 16.528 83.779 16.744 83.075 17.176C82.371 17.608 81.827 18.204 81.443 18.964C81.059 19.724 80.867 20.608 80.867 21.616L80.591 18.916H80.999C81.151 18.212 81.431 17.564 81.839 16.972C82.255 16.372 82.803 15.892 83.483 15.532C84.171 15.164 84.991 14.98 85.943 14.98C86.831 14.98 87.647 15.144 88.391 15.472C89.135 15.792 89.779 16.252 90.323 16.852C90.867 17.444 91.287 18.148 91.583 18.964C91.879 19.772 92.027 20.66 92.027 21.628C92.027 22.916 91.763 24.06 91.235 25.06C90.715 26.052 89.979 26.832 89.027 27.4C88.075 27.96 86.959 28.24 85.679 28.24ZM97.7544 26.512H100.382V28H93.3984V26.512H96.0264V10.528H93.3984V9.04H97.7544V26.512ZM108.152 28.228C106.832 28.228 105.688 27.948 104.72 27.388C103.752 26.828 103.004 26.056 102.476 25.072C101.948 24.08 101.684 22.94 101.684 21.652C101.684 20.348 101.948 19.196 102.476 18.196C103.012 17.196 103.756 16.412 104.708 15.844C105.668 15.276 106.784 14.992 108.056 14.992C109.336 14.992 110.444 15.272 111.38 15.832C112.316 16.392 113.036 17.168 113.54 18.16C114.044 19.152 114.296 20.296 114.296 21.592C114.296 21.744 114.292 21.864 114.284 21.952C114.284 22.04 114.276 22.116 114.26 22.18H112.556C112.564 22.084 112.568 21.98 112.568 21.868C112.576 21.748 112.58 21.612 112.58 21.46C112.58 20.508 112.396 19.664 112.028 18.928C111.668 18.184 111.152 17.6 110.48 17.176C109.808 16.752 109 16.54 108.056 16.54C107.136 16.54 106.328 16.76 105.632 17.2C104.936 17.632 104.396 18.232 104.012 19C103.628 19.76 103.436 20.644 103.436 21.652C103.436 22.628 103.624 23.492 104 24.244C104.384 24.988 104.928 25.572 105.632 25.996C106.336 26.42 107.172 26.632 108.14 26.632C109.148 26.632 110.02 26.396 110.756 25.924C111.5 25.444 112.052 24.792 112.412 23.968L114.044 24.58C113.572 25.708 112.816 26.6 111.776 27.256C110.744 27.904 109.536 28.228 108.152 28.228ZM102.776 22.18V20.848H113.744L114.248 22.18H102.776Z" fill="black"/>
<path d="M1 6.35211L6 1V39L1 33.6479V6.35211Z" fill="white"/>
<path d="M6 1L1 6.35211V33.6479L6 39" stroke="black" stroke-linecap="round"/>
<path d="M126 33.6479L121 39L121 1L126 6.35211L126 33.6479Z" fill="white"/>
<path d="M121 39L126 33.6479L126 6.35211L121 1" stroke="black" stroke-linecap="round"/>
</svg>
