<svg width="207" height="40" viewBox="0 0 207 40" fill="none" xmlns="http://www.w3.org/2000/svg">
<path d="M6 1H201V39H6V1Z" fill="white"/>
<path d="M6 1.5H201V0.5H6V1.5ZM201 38.5H6V39.5H201V38.5Z" fill="black"/>
<path d="M19.1672 28.228C17.8392 28.228 16.6832 27.948 15.6992 27.388C14.7232 26.828 13.9632 26.056 13.4192 25.072C12.8832 24.08 12.6152 22.94 12.6152 21.652C12.6152 20.676 12.7632 19.784 13.0592 18.976C13.3552 18.16 13.7792 17.456 14.3312 16.864C14.8832 16.264 15.5392 15.804 16.2992 15.484C17.0592 15.156 17.9072 14.992 18.8432 14.992C19.7472 14.992 20.4992 15.14 21.0992 15.436C21.7072 15.724 22.1792 16.124 22.5152 16.636C22.8512 17.14 23.0672 17.72 23.1632 18.376H23.5832L23.2352 20.188C23.1312 19.468 22.8952 18.836 22.5272 18.292C22.1592 17.74 21.6792 17.312 21.0872 17.008C20.4952 16.696 19.8112 16.54 19.0352 16.54C18.1072 16.54 17.2912 16.76 16.5872 17.2C15.8912 17.632 15.3472 18.232 14.9552 19C14.5712 19.76 14.3792 20.644 14.3792 21.652C14.3792 22.628 14.5752 23.492 14.9672 24.244C15.3672 24.988 15.9232 25.572 16.6352 25.996C17.3552 26.42 18.2032 26.632 19.1792 26.632C20.1872 26.632 21.0552 26.412 21.7832 25.972C22.5112 25.524 23.0432 24.924 23.3792 24.172L24.9752 24.88C24.5192 25.912 23.7872 26.728 22.7792 27.328C21.7792 27.928 20.5752 28.228 19.1672 28.228ZM23.2352 20.188V15.22H24.9632V20.188H23.2352ZM31.2872 26.512H33.7832V28H26.9312V26.512H29.5592V16.708H26.9312V15.22H31.2872V26.512ZM36.1952 17.056C36.0512 17.016 35.8952 16.984 35.7272 16.96C35.5672 16.936 35.3912 16.924 35.1992 16.924C34.0152 16.924 33.0672 17.368 32.3552 18.256C31.6432 19.136 31.2872 20.36 31.2872 21.928L30.8792 19.132H31.3712C31.4832 18.284 31.7152 17.556 32.0672 16.948C32.4192 16.332 32.8752 15.86 33.4352 15.532C34.0032 15.196 34.6672 15.028 35.4272 15.028C35.5712 15.028 35.6992 15.036 35.8112 15.052C35.9312 15.06 36.0592 15.076 36.1952 15.1V17.056ZM47.9565 16.708H45.4845V15.22H49.6845V26.512H52.1805V28H47.9565V16.708ZM40.8165 15.22V23.368C40.8165 24.416 41.0485 25.244 41.5125 25.852C41.9845 26.452 42.7245 26.752 43.7325 26.752C44.5405 26.752 45.2605 26.548 45.8925 26.14C46.5325 25.724 47.0365 25.128 47.4045 24.352C47.7725 23.576 47.9565 22.644 47.9565 21.556L48.3765 24.112H47.8725C47.6565 25.488 47.1205 26.528 46.2645 27.232C45.4165 27.928 44.3725 28.276 43.1325 28.276C41.7565 28.276 40.7365 27.868 40.0725 27.052C39.4165 26.236 39.0885 25.104 39.0885 23.656V16.708H36.7725V15.22H40.8165ZM71.2217 28V26.512H73.4777V19.804C73.4777 18.756 73.2457 17.936 72.7817 17.344C72.3177 16.752 71.5937 16.456 70.6097 16.456C69.8177 16.456 69.1137 16.664 68.4977 17.08C67.8817 17.496 67.3977 18.092 67.0457 18.868C66.6937 19.644 66.5177 20.576 66.5177 21.664L66.0977 19.096H66.5897C66.7897 17.704 67.3057 16.664 68.1377 15.976C68.9777 15.288 69.9977 14.944 71.1977 14.944C72.5497 14.944 73.5537 15.344 74.2097 16.144C74.8737 16.944 75.2057 18.072 75.2057 19.528V26.512H77.6537V28H71.2217ZM53.5337 28V26.512H56.0897V16.708H53.5337V15.22H57.8177V26.512H60.0857V28H53.5337ZM62.5337 28V26.512H64.7897V19.804C64.7897 18.756 64.5577 17.936 64.0937 17.344C63.6297 16.752 62.9057 16.456 61.9217 16.456C61.1297 16.456 60.4257 16.664 59.8097 17.08C59.1937 17.496 58.7057 18.092 58.3457 18.868C57.9937 19.644 57.8177 20.576 57.8177 21.664L57.4097 19.096H57.9017C58.0937 17.704 58.6097 16.664 59.4497 15.976C60.2897 15.288 61.3097 14.944 62.5097 14.944C63.8617 14.944 64.8657 15.344 65.5217 16.144C66.1857 16.944 66.5177 18.072 66.5177 19.528V26.512H68.9657V28H62.5337ZM78.6178 33.04V31.552H81.1738V16.708H78.6178V15.22H82.9018V19.792L82.8538 21.16V21.916L82.9018 22.996V31.552H85.4098V33.04H78.6178ZM87.7258 28.24C86.6698 28.24 85.7218 28.008 84.8818 27.544C84.0498 27.08 83.3618 26.42 82.8178 25.564C82.2738 24.7 81.9138 23.668 81.7378 22.468L82.8538 21.64C82.8538 22.624 83.0418 23.496 83.4178 24.256C83.7938 25.008 84.3338 25.6 85.0378 26.032C85.7418 26.464 86.5778 26.68 87.5458 26.68C88.4978 26.68 89.3258 26.464 90.0298 26.032C90.7338 25.6 91.2738 25.004 91.6498 24.244C92.0338 23.476 92.2258 22.6 92.2258 21.616C92.2258 20.616 92.0298 19.736 91.6378 18.976C91.2458 18.216 90.6978 17.62 89.9938 17.188C89.2898 16.748 88.4738 16.528 87.5458 16.528C86.5938 16.528 85.7658 16.748 85.0618 17.188C84.3578 17.62 83.8138 18.22 83.4298 18.988C83.0458 19.756 82.8538 20.64 82.8538 21.64L82.5778 18.916H82.9858C83.1298 18.212 83.4098 17.564 83.8258 16.972C84.2418 16.372 84.7898 15.892 85.4698 15.532C86.1578 15.164 86.9738 14.98 87.9178 14.98C88.8138 14.98 89.6338 15.144 90.3778 15.472C91.1218 15.792 91.7618 16.252 92.2978 16.852C92.8418 17.444 93.2618 18.144 93.5578 18.952C93.8618 19.76 94.0138 20.648 94.0138 21.616C94.0138 22.904 93.7538 24.048 93.2338 25.048C92.7138 26.048 91.9818 26.832 91.0378 27.4C90.1018 27.96 88.9978 28.24 87.7258 28.24ZM99.7312 26.512H102.359V28H95.3752V26.512H98.0032V10.528H95.3752V9.04H99.7312V26.512ZM110.129 28.228C108.809 28.228 107.665 27.948 106.697 27.388C105.729 26.828 104.981 26.056 104.453 25.072C103.925 24.08 103.661 22.94 103.661 21.652C103.661 20.348 103.925 19.196 104.453 18.196C104.989 17.196 105.733 16.412 106.685 15.844C107.645 15.276 108.761 14.992 110.033 14.992C111.313 14.992 112.421 15.272 113.357 15.832C114.293 16.392 115.013 17.168 115.517 18.16C116.021 19.152 116.273 20.296 116.273 21.592C116.273 21.744 116.269 21.864 116.261 21.952C116.261 22.04 116.253 22.116 116.237 22.18H114.533C114.541 22.084 114.545 21.98 114.545 21.868C114.553 21.748 114.557 21.612 114.557 21.46C114.557 20.508 114.373 19.664 114.005 18.928C113.645 18.184 113.129 17.6 112.457 17.176C111.785 16.752 110.977 16.54 110.033 16.54C109.113 16.54 108.305 16.76 107.609 17.2C106.913 17.632 106.373 18.232 105.989 19C105.605 19.76 105.413 20.644 105.413 21.652C105.413 22.628 105.601 23.492 105.977 24.244C106.361 24.988 106.905 25.572 107.609 25.996C108.313 26.42 109.149 26.632 110.117 26.632C111.125 26.632 111.997 26.396 112.733 25.924C113.477 25.444 114.029 24.792 114.389 23.968L116.021 24.58C115.549 25.708 114.793 26.6 113.753 27.256C112.721 27.904 111.513 28.228 110.129 28.228ZM104.753 22.18V20.848H115.721L116.225 22.18H104.753ZM129.432 28V23.224L129.504 22.288V20.764L129.432 19.084V10.528H125.988V9.04H131.16V26.512H133.608V28H129.432ZM124.62 14.98C125.676 14.98 126.62 15.212 127.452 15.676C128.292 16.14 128.984 16.804 129.528 17.668C130.072 18.524 130.432 19.552 130.608 20.752L129.504 21.58C129.504 20.596 129.312 19.724 128.928 18.964C128.552 18.204 128.012 17.612 127.308 17.188C126.604 16.756 125.768 16.54 124.8 16.54C123.848 16.54 123.02 16.756 122.316 17.188C121.612 17.62 121.068 18.216 120.684 18.976C120.308 19.736 120.12 20.616 120.12 21.616C120.12 22.608 120.316 23.484 120.708 24.244C121.1 25.004 121.648 25.604 122.352 26.044C123.064 26.476 123.88 26.692 124.8 26.692C125.76 26.692 126.588 26.476 127.284 26.044C127.988 25.604 128.532 25 128.916 24.232C129.308 23.464 129.504 22.58 129.504 21.58L129.768 24.304H129.36C129.216 25.008 128.936 25.66 128.52 26.26C128.104 26.852 127.556 27.332 126.876 27.7C126.196 28.06 125.38 28.24 124.428 28.24C123.54 28.24 122.724 28.08 121.98 27.76C121.236 27.432 120.592 26.972 120.048 26.38C119.504 25.78 119.08 25.076 118.776 24.268C118.48 23.46 118.332 22.576 118.332 21.616C118.332 20.32 118.592 19.172 119.112 18.172C119.632 17.172 120.36 16.392 121.296 15.832C122.24 15.264 123.348 14.98 124.62 14.98ZM148.256 28.228C147.4 28.228 146.676 28.1 146.084 27.844C145.5 27.588 145.036 27.248 144.692 26.824C144.348 26.392 144.124 25.912 144.02 25.384H143.588L143.936 23.968C144.088 24.808 144.504 25.492 145.184 26.02C145.872 26.548 146.764 26.812 147.86 26.812C148.796 26.812 149.52 26.624 150.032 26.248C150.552 25.864 150.812 25.308 150.812 24.58C150.812 23.916 150.556 23.4 150.044 23.032C149.532 22.664 148.636 22.384 147.356 22.192C145.524 21.904 144.22 21.452 143.444 20.836C142.668 20.212 142.28 19.392 142.28 18.376C142.28 17.352 142.636 16.532 143.348 15.916C144.06 15.3 145.052 14.992 146.324 14.992C147.164 14.992 147.856 15.12 148.4 15.376C148.952 15.632 149.376 15.976 149.672 16.408C149.968 16.832 150.16 17.3 150.248 17.812H150.68L150.332 19.168C150.188 18.352 149.796 17.688 149.156 17.176C148.516 16.656 147.68 16.396 146.648 16.396C145.816 16.396 145.164 16.572 144.692 16.924C144.228 17.276 143.996 17.744 143.996 18.328C143.996 18.944 144.288 19.428 144.872 19.78C145.456 20.124 146.376 20.396 147.632 20.596C149.408 20.876 150.668 21.336 151.412 21.976C152.156 22.616 152.528 23.48 152.528 24.568C152.528 25.712 152.16 26.608 151.424 27.256C150.696 27.904 149.64 28.228 148.256 28.228ZM142.208 28V23.968H143.936V28H142.208ZM150.332 19.168V15.22H152.06V19.168H150.332ZM158.443 26.512H160.711V28H154.147V26.512H156.715V10.528H154.147V9.04H158.443V26.512ZM162.907 19.9L167.983 26.512H169.651V28H163.075V26.512H165.847L161.683 20.944L162.907 19.9ZM157.927 24.556L157.567 23.176L165.403 16.708H161.503V15.22H169.447V16.708H167.647L157.927 24.556ZM175.482 26.512H177.942V28H171.162V26.512H173.754V16.708H171.162V15.22H175.482V26.512ZM173.43 9.832H175.638V12.124H173.43V9.832ZM183.648 26.512H185.928V28H179.292V26.512H181.92V16.708H179.292V15.22H183.648V26.512ZM191.016 26.512V19.828C191.016 18.78 190.78 17.956 190.308 17.356C189.836 16.756 189.092 16.456 188.076 16.456C187.252 16.456 186.504 16.66 185.832 17.068C185.16 17.476 184.628 18.068 184.236 18.844C183.844 19.62 183.648 20.56 183.648 21.664L183.252 19.108H183.732C183.884 18.236 184.176 17.496 184.608 16.888C185.04 16.272 185.592 15.804 186.264 15.484C186.944 15.156 187.724 14.992 188.604 14.992C189.996 14.992 191.032 15.396 191.712 16.204C192.4 17.004 192.744 18.136 192.744 19.6V26.512H195.204V28H188.772V26.512H191.016Z" fill="black"/>
<path d="M1 6.35211L6 1V39L1 33.6479V6.35211Z" fill="white"/>
<path d="M6 1L1 6.35211V33.6479L6 39" stroke="black" stroke-linecap="round"/>
<path d="M206 33.6479L201 39L201 1L206 6.35211L206 33.6479Z" fill="white"/>
<path d="M201 39L206 33.6479L206 6.35211L201 1" stroke="black" stroke-linecap="round"/>
</svg>
