<svg width="109" height="40" viewBox="0 0 109 40" fill="none" xmlns="http://www.w3.org/2000/svg">
<path d="M6 1H103V39H6V1Z" fill="white"/>
<path d="M6 1.5H103V0.5H6V1.5ZM103 38.5H6V39.5H103V38.5Z" fill="black"/>
<path d="M14.0529 28.264V10.528H11.4849V9.04H15.7809V19.696L15.7089 21.196V22.792L15.7809 25.12L14.2089 28.264H14.0529ZM20.5209 28.24C19.4489 28.24 18.4889 28.04 17.6409 27.64C16.8009 27.232 16.1049 26.656 15.5529 25.912C15.0089 25.16 14.6449 24.268 14.4609 23.236L15.7089 21.616C15.7089 22.6 15.8969 23.472 16.2729 24.232C16.6489 24.992 17.1889 25.592 17.8929 26.032C18.5969 26.464 19.4329 26.68 20.4009 26.68C21.3849 26.68 22.2249 26.468 22.9209 26.044C23.6249 25.62 24.1609 25.028 24.5289 24.268C24.9049 23.5 25.0929 22.608 25.0929 21.592C25.0929 20.6 24.8929 19.724 24.4929 18.964C24.1009 18.204 23.5529 17.608 22.8489 17.176C22.1449 16.744 21.3289 16.528 20.4009 16.528C19.4489 16.528 18.6209 16.744 17.9169 17.176C17.2129 17.608 16.6689 18.204 16.2849 18.964C15.9009 19.724 15.7089 20.608 15.7089 21.616L15.4329 18.916H15.8409C15.9929 18.212 16.2729 17.564 16.6809 16.972C17.0969 16.372 17.6449 15.892 18.3249 15.532C19.0129 15.164 19.8329 14.98 20.7849 14.98C21.6729 14.98 22.4889 15.144 23.2329 15.472C23.9769 15.792 24.6209 16.252 25.1649 16.852C25.7089 17.444 26.1289 18.148 26.4249 18.964C26.7209 19.772 26.8689 20.66 26.8689 21.628C26.8689 22.916 26.6049 24.06 26.0769 25.06C25.5569 26.052 24.8209 26.832 23.8689 27.4C22.9169 27.96 21.8009 28.24 20.5209 28.24ZM35.5284 28.228C34.2084 28.228 33.0644 27.948 32.0964 27.388C31.1284 26.828 30.3804 26.056 29.8524 25.072C29.3244 24.08 29.0604 22.94 29.0604 21.652C29.0604 20.348 29.3244 19.196 29.8524 18.196C30.3884 17.196 31.1324 16.412 32.0844 15.844C33.0444 15.276 34.1604 14.992 35.4324 14.992C36.7124 14.992 37.8204 15.272 38.7564 15.832C39.6924 16.392 40.4124 17.168 40.9164 18.16C41.4204 19.152 41.6724 20.296 41.6724 21.592C41.6724 21.744 41.6684 21.864 41.6604 21.952C41.6604 22.04 41.6524 22.116 41.6364 22.18H39.9324C39.9404 22.084 39.9444 21.98 39.9444 21.868C39.9524 21.748 39.9564 21.612 39.9564 21.46C39.9564 20.508 39.7724 19.664 39.4044 18.928C39.0444 18.184 38.5284 17.6 37.8564 17.176C37.1844 16.752 36.3764 16.54 35.4324 16.54C34.5124 16.54 33.7044 16.76 33.0084 17.2C32.3124 17.632 31.7724 18.232 31.3884 19C31.0044 19.76 30.8124 20.644 30.8124 21.652C30.8124 22.628 31.0004 23.492 31.3764 24.244C31.7604 24.988 32.3044 25.572 33.0084 25.996C33.7124 26.42 34.5484 26.632 35.5164 26.632C36.5244 26.632 37.3964 26.396 38.1324 25.924C38.8764 25.444 39.4284 24.792 39.7884 23.968L41.4204 24.58C40.9484 25.708 40.1924 26.6 39.1524 27.256C38.1204 27.904 36.9124 28.228 35.5284 28.228ZM30.1524 22.18V20.848H41.1204L41.6244 22.18H30.1524ZM53.9559 28C53.6279 28 53.3759 27.896 53.1999 27.688C53.0319 27.48 52.9479 27.188 52.9479 26.812V22.972L53.1039 22.576L53.0199 21.124L52.9479 20.368V19.396C52.9479 18.74 52.8119 18.204 52.5399 17.788C52.2759 17.372 51.8919 17.064 51.3879 16.864C50.8839 16.664 50.2759 16.564 49.5639 16.564C48.4999 16.564 47.6759 16.776 47.0919 17.2C46.5159 17.616 46.1319 18.244 45.9399 19.084L44.2839 18.736C44.4439 17.896 44.7439 17.2 45.1839 16.648C45.6239 16.088 46.2079 15.672 46.9359 15.4C47.6719 15.12 48.5679 14.98 49.6239 14.98C50.7279 14.98 51.6519 15.136 52.3959 15.448C53.1479 15.752 53.7159 16.22 54.0999 16.852C54.4839 17.484 54.6759 18.3 54.6759 19.3V26.512H56.5599V28H53.9559ZM47.9319 28.168C46.6039 28.168 45.5959 27.876 44.9079 27.292C44.2199 26.7 43.8759 25.832 43.8759 24.688C43.8759 23.632 44.1799 22.828 44.7879 22.276C45.3959 21.716 46.3719 21.296 47.7159 21.016L53.4639 19.792V21.028L48.0039 22.264C47.2199 22.448 46.6319 22.72 46.2399 23.08C45.8559 23.432 45.6639 23.932 45.6639 24.58C45.6639 25.284 45.8799 25.812 46.3119 26.164C46.7439 26.508 47.3759 26.68 48.2079 26.68C49.1279 26.68 49.9519 26.468 50.6799 26.044C51.4079 25.62 51.9799 24.996 52.3959 24.172C52.8119 23.348 53.0199 22.332 53.0199 21.124L53.4759 23.956H52.8639C52.6639 25.292 52.1439 26.328 51.3039 27.064C50.4719 27.8 49.3479 28.168 47.9319 28.168ZM62.405 26.512H64.685V28H58.049V26.512H60.677V16.708H58.049V15.22H62.405V26.512ZM69.773 26.512V19.828C69.773 18.78 69.537 17.956 69.065 17.356C68.593 16.756 67.849 16.456 66.833 16.456C66.009 16.456 65.261 16.66 64.589 17.068C63.917 17.476 63.385 18.068 62.993 18.844C62.601 19.62 62.405 20.56 62.405 21.664L62.009 19.108H62.489C62.641 18.236 62.933 17.496 63.365 16.888C63.797 16.272 64.349 15.804 65.021 15.484C65.701 15.156 66.481 14.992 67.361 14.992C68.753 14.992 69.789 15.396 70.469 16.204C71.157 17.004 71.501 18.136 71.501 19.6V26.512H73.961V28H67.529V26.512H69.773ZM79.67 26.512H82.13V28H75.35V26.512H77.942V16.708H75.35V15.22H79.67V26.512ZM77.618 9.832H79.826V12.124H77.618V9.832ZM90.1396 28.228C88.8196 28.228 87.6756 27.948 86.7076 27.388C85.7396 26.828 84.9916 26.056 84.4636 25.072C83.9356 24.08 83.6716 22.94 83.6716 21.652C83.6716 20.348 83.9356 19.196 84.4636 18.196C84.9996 17.196 85.7436 16.412 86.6956 15.844C87.6556 15.276 88.7716 14.992 90.0436 14.992C91.3236 14.992 92.4316 15.272 93.3676 15.832C94.3036 16.392 95.0236 17.168 95.5276 18.16C96.0316 19.152 96.2836 20.296 96.2836 21.592C96.2836 21.744 96.2796 21.864 96.2716 21.952C96.2716 22.04 96.2636 22.116 96.2476 22.18H94.5436C94.5516 22.084 94.5556 21.98 94.5556 21.868C94.5636 21.748 94.5676 21.612 94.5676 21.46C94.5676 20.508 94.3836 19.664 94.0156 18.928C93.6556 18.184 93.1396 17.6 92.4676 17.176C91.7956 16.752 90.9876 16.54 90.0436 16.54C89.1236 16.54 88.3156 16.76 87.6196 17.2C86.9236 17.632 86.3836 18.232 85.9996 19C85.6156 19.76 85.4236 20.644 85.4236 21.652C85.4236 22.628 85.6116 23.492 85.9876 24.244C86.3716 24.988 86.9156 25.572 87.6196 25.996C88.3236 26.42 89.1596 26.632 90.1276 26.632C91.1356 26.632 92.0076 26.396 92.7436 25.924C93.4876 25.444 94.0396 24.792 94.3996 23.968L96.0316 24.58C95.5596 25.708 94.8036 26.6 93.7636 27.256C92.7316 27.904 91.5236 28.228 90.1396 28.228ZM84.7636 22.18V20.848H95.7316L96.2356 22.18H84.7636Z" fill="black"/>
<path d="M1 6.35211L6 1V39L1 33.6479V6.35211Z" fill="white"/>
<path d="M6 1L1 6.35211V33.6479L6 39" stroke="black" stroke-linecap="round"/>
<path d="M108 33.6479L103 39L103 1L108 6.35211L108 33.6479Z" fill="white"/>
<path d="M103 39L108 33.6479L108 6.35211L103 1" stroke="black" stroke-linecap="round"/>
</svg>
