<svg width="294" height="40" viewBox="0 0 294 40" fill="none" xmlns="http://www.w3.org/2000/svg">
<path d="M6 1H288V39H6V1Z" fill="white"/>
<path d="M6 1.5H288V0.5H6V1.5ZM288 38.5H6V39.5H288V38.5Z" fill="black"/>
<path d="M18.8921 28.228C18.0361 28.228 17.3121 28.1 16.7201 27.844C16.1361 27.588 15.6721 27.248 15.3281 26.824C14.9841 26.392 14.7601 25.912 14.6561 25.384H14.2241L14.5721 23.968C14.7241 24.808 15.1401 25.492 15.8201 26.02C16.5081 26.548 17.4001 26.812 18.4961 26.812C19.4321 26.812 20.1561 26.624 20.6681 26.248C21.1881 25.864 21.4481 25.308 21.4481 24.58C21.4481 23.916 21.1921 23.4 20.6801 23.032C20.1681 22.664 19.2721 22.384 17.9921 22.192C16.1601 21.904 14.8561 21.452 14.0801 20.836C13.3041 20.212 12.9161 19.392 12.9161 18.376C12.9161 17.352 13.2721 16.532 13.9841 15.916C14.6961 15.3 15.6881 14.992 16.9601 14.992C17.8001 14.992 18.4921 15.12 19.0361 15.376C19.5881 15.632 20.0121 15.976 20.3081 16.408C20.6041 16.832 20.7961 17.3 20.8841 17.812H21.3161L20.9681 19.168C20.8241 18.352 20.4321 17.688 19.7921 17.176C19.1521 16.656 18.3161 16.396 17.2841 16.396C16.4521 16.396 15.8001 16.572 15.3281 16.924C14.8641 17.276 14.6321 17.744 14.6321 18.328C14.6321 18.944 14.9241 19.428 15.5081 19.78C16.0921 20.124 17.0121 20.396 18.2681 20.596C20.0441 20.876 21.3041 21.336 22.0481 21.976C22.7921 22.616 23.1641 23.48 23.1641 24.568C23.1641 25.712 22.7961 26.608 22.0601 27.256C21.3321 27.904 20.2761 28.228 18.8921 28.228ZM12.8441 28V23.968H14.5721V28H12.8441ZM20.9681 19.168V15.22H22.6961V19.168H20.9681ZM29.6531 26.512H32.1131V28H25.3331V26.512H27.9251V16.708H25.3331V15.22H29.6531V26.512ZM27.6011 9.832H29.8091V12.124H27.6011V9.832ZM37.7531 26.512H40.3811V28H33.3971V26.512H36.0251V10.528H33.3971V9.04H37.7531V26.512ZM49.011 15.22H54.675V16.708H53.235L48.531 28H46.659L41.799 16.708H40.371V15.22H46.167V16.708H43.671L48.387 28L46.767 26.188H48.411L47.007 28L51.507 16.708H49.011V15.22ZM61.7565 28.228C60.4365 28.228 59.2925 27.948 58.3245 27.388C57.3565 26.828 56.6085 26.056 56.0805 25.072C55.5525 24.08 55.2885 22.94 55.2885 21.652C55.2885 20.348 55.5525 19.196 56.0805 18.196C56.6165 17.196 57.3605 16.412 58.3125 15.844C59.2725 15.276 60.3885 14.992 61.6605 14.992C62.9405 14.992 64.0485 15.272 64.9845 15.832C65.9205 16.392 66.6405 17.168 67.1445 18.16C67.6485 19.152 67.9005 20.296 67.9005 21.592C67.9005 21.744 67.8965 21.864 67.8885 21.952C67.8885 22.04 67.8805 22.116 67.8645 22.18H66.1605C66.1685 22.084 66.1725 21.98 66.1725 21.868C66.1805 21.748 66.1845 21.612 66.1845 21.46C66.1845 20.508 66.0005 19.664 65.6325 18.928C65.2725 18.184 64.7565 17.6 64.0845 17.176C63.4125 16.752 62.6045 16.54 61.6605 16.54C60.7405 16.54 59.9325 16.76 59.2365 17.2C58.5405 17.632 58.0005 18.232 57.6165 19C57.2325 19.76 57.0405 20.644 57.0405 21.652C57.0405 22.628 57.2285 23.492 57.6045 24.244C57.9885 24.988 58.5325 25.572 59.2365 25.996C59.9405 26.42 60.7765 26.632 61.7445 26.632C62.7525 26.632 63.6245 26.396 64.3605 25.924C65.1045 25.444 65.6565 24.792 66.0165 23.968L67.6485 24.58C67.1765 25.708 66.4205 26.6 65.3805 27.256C64.3485 27.904 63.1405 28.228 61.7565 28.228ZM56.3805 22.18V20.848H67.3485L67.8525 22.18H56.3805ZM74.16 26.512H76.656V28H69.804V26.512H72.432V16.708H69.804V15.22H74.16V26.512ZM79.068 17.056C78.924 17.016 78.768 16.984 78.6 16.96C78.44 16.936 78.264 16.924 78.072 16.924C76.888 16.924 75.94 17.368 75.228 18.256C74.516 19.136 74.16 20.36 74.16 21.928L73.752 19.132H74.244C74.356 18.284 74.588 17.556 74.94 16.948C75.292 16.332 75.748 15.86 76.308 15.532C76.876 15.196 77.54 15.028 78.3 15.028C78.444 15.028 78.572 15.036 78.684 15.052C78.804 15.06 78.932 15.076 79.068 15.1V17.056ZM85.4134 20.488V21.976H78.7294V20.488H85.4134ZM90.6609 26.512H93.1569V28H86.3049V26.512H88.9329V16.708H86.3049V15.22H90.6609V26.512ZM95.5689 17.056C95.4249 17.016 95.2689 16.984 95.1009 16.96C94.9409 16.936 94.7649 16.924 94.5729 16.924C93.3889 16.924 92.4409 17.368 91.7289 18.256C91.0169 19.136 90.6609 20.36 90.6609 21.928L90.2529 19.132H90.7449C90.8569 18.284 91.0889 17.556 91.4409 16.948C91.7929 16.332 92.2489 15.86 92.8089 15.532C93.3769 15.196 94.0409 15.028 94.8009 15.028C94.9449 15.028 95.0729 15.036 95.1849 15.052C95.3049 15.06 95.4329 15.076 95.5689 15.1V17.056ZM101.223 26.512H103.683V28H96.9028V26.512H99.4948V16.708H96.9028V15.22H101.223V26.512ZM99.1708 9.832H101.379V12.124H99.1708V9.832ZM122.72 28V26.512H124.976V19.804C124.976 18.756 124.744 17.936 124.28 17.344C123.816 16.752 123.092 16.456 122.108 16.456C121.316 16.456 120.612 16.664 119.996 17.08C119.38 17.496 118.896 18.092 118.544 18.868C118.192 19.644 118.016 20.576 118.016 21.664L117.596 19.096H118.088C118.288 17.704 118.804 16.664 119.636 15.976C120.476 15.288 121.496 14.944 122.696 14.944C124.048 14.944 125.052 15.344 125.708 16.144C126.372 16.944 126.704 18.072 126.704 19.528V26.512H129.152V28H122.72ZM105.032 28V26.512H107.588V16.708H105.032V15.22H109.316V26.512H111.584V28H105.032ZM114.032 28V26.512H116.288V19.804C116.288 18.756 116.056 17.936 115.592 17.344C115.128 16.752 114.404 16.456 113.42 16.456C112.628 16.456 111.924 16.664 111.308 17.08C110.692 17.496 110.204 18.092 109.844 18.868C109.492 19.644 109.316 20.576 109.316 21.664L108.908 19.096H109.4C109.592 17.704 110.108 16.664 110.948 15.976C111.788 15.288 112.808 14.944 114.008 14.944C115.36 14.944 116.364 15.344 117.02 16.144C117.684 16.944 118.016 18.072 118.016 19.528V26.512H120.464V28H114.032ZM148.069 28V26.512H150.325V19.804C150.325 18.756 150.093 17.936 149.629 17.344C149.165 16.752 148.441 16.456 147.457 16.456C146.665 16.456 145.961 16.664 145.345 17.08C144.729 17.496 144.245 18.092 143.893 18.868C143.541 19.644 143.365 20.576 143.365 21.664L142.945 19.096H143.437C143.637 17.704 144.153 16.664 144.985 15.976C145.825 15.288 146.845 14.944 148.045 14.944C149.397 14.944 150.401 15.344 151.057 16.144C151.721 16.944 152.053 18.072 152.053 19.528V26.512H154.501V28H148.069ZM130.381 28V26.512H132.937V16.708H130.381V15.22H134.665V26.512H136.933V28H130.381ZM139.381 28V26.512H141.637V19.804C141.637 18.756 141.405 17.936 140.941 17.344C140.477 16.752 139.753 16.456 138.769 16.456C137.977 16.456 137.273 16.664 136.657 17.08C136.041 17.496 135.553 18.092 135.193 18.868C134.841 19.644 134.665 20.576 134.665 21.664L134.257 19.096H134.749C134.941 17.704 135.457 16.664 136.297 15.976C137.137 15.288 138.157 14.944 139.357 14.944C140.709 14.944 141.713 15.344 142.369 16.144C143.033 16.944 143.365 18.072 143.365 19.528V26.512H145.813V28H139.381ZM162.318 28.228C160.998 28.228 159.854 27.948 158.886 27.388C157.918 26.828 157.17 26.056 156.642 25.072C156.114 24.08 155.85 22.94 155.85 21.652C155.85 20.348 156.114 19.196 156.642 18.196C157.178 17.196 157.922 16.412 158.874 15.844C159.834 15.276 160.95 14.992 162.222 14.992C163.502 14.992 164.61 15.272 165.546 15.832C166.482 16.392 167.202 17.168 167.706 18.16C168.21 19.152 168.462 20.296 168.462 21.592C168.462 21.744 168.458 21.864 168.45 21.952C168.45 22.04 168.442 22.116 168.426 22.18H166.722C166.73 22.084 166.734 21.98 166.734 21.868C166.742 21.748 166.746 21.612 166.746 21.46C166.746 20.508 166.562 19.664 166.194 18.928C165.834 18.184 165.318 17.6 164.646 17.176C163.974 16.752 163.166 16.54 162.222 16.54C161.302 16.54 160.494 16.76 159.798 17.2C159.102 17.632 158.562 18.232 158.178 19C157.794 19.76 157.602 20.644 157.602 21.652C157.602 22.628 157.79 23.492 158.166 24.244C158.55 24.988 159.094 25.572 159.798 25.996C160.502 26.42 161.338 26.632 162.306 26.632C163.314 26.632 164.186 26.396 164.922 25.924C165.666 25.444 166.218 24.792 166.578 23.968L168.21 24.58C167.738 25.708 166.982 26.6 165.942 27.256C164.91 27.904 163.702 28.228 162.318 28.228ZM156.942 22.18V20.848H167.91L168.414 22.18H156.942ZM181.622 28V23.224L181.694 22.288V20.764L181.622 19.084V10.528H178.178V9.04H183.35V26.512H185.798V28H181.622ZM176.81 14.98C177.866 14.98 178.81 15.212 179.642 15.676C180.482 16.14 181.174 16.804 181.718 17.668C182.262 18.524 182.622 19.552 182.798 20.752L181.694 21.58C181.694 20.596 181.502 19.724 181.118 18.964C180.742 18.204 180.202 17.612 179.498 17.188C178.794 16.756 177.958 16.54 176.99 16.54C176.038 16.54 175.21 16.756 174.506 17.188C173.802 17.62 173.258 18.216 172.874 18.976C172.498 19.736 172.31 20.616 172.31 21.616C172.31 22.608 172.506 23.484 172.898 24.244C173.29 25.004 173.838 25.604 174.542 26.044C175.254 26.476 176.07 26.692 176.99 26.692C177.95 26.692 178.778 26.476 179.474 26.044C180.178 25.604 180.722 25 181.106 24.232C181.498 23.464 181.694 22.58 181.694 21.58L181.958 24.304H181.55C181.406 25.008 181.126 25.66 180.71 26.26C180.294 26.852 179.746 27.332 179.066 27.7C178.386 28.06 177.57 28.24 176.618 28.24C175.73 28.24 174.914 28.08 174.17 27.76C173.426 27.432 172.782 26.972 172.238 26.38C171.694 25.78 171.27 25.076 170.966 24.268C170.67 23.46 170.522 22.576 170.522 21.616C170.522 20.32 170.782 19.172 171.302 18.172C171.822 17.172 172.55 16.392 173.486 15.832C174.43 15.264 175.538 14.98 176.81 14.98ZM200.314 33.304C199.194 33.304 198.178 33.196 197.266 32.98C196.362 32.772 195.642 32.44 195.106 31.984C194.57 31.528 194.302 30.924 194.302 30.172C194.302 29.42 194.57 28.848 195.106 28.456C195.65 28.072 196.35 27.82 197.206 27.7V27.496L199.342 27.7C198.454 27.7 197.758 27.804 197.254 28.012C196.75 28.228 196.394 28.5 196.186 28.828C195.978 29.164 195.874 29.508 195.874 29.86C195.874 30.404 196.074 30.828 196.474 31.132C196.874 31.436 197.41 31.652 198.082 31.78C198.762 31.908 199.522 31.972 200.362 31.972C202.05 31.972 203.282 31.744 204.058 31.288C204.842 30.84 205.234 30.212 205.234 29.404C205.234 28.268 204.498 27.7 203.026 27.7H198.13C197.17 27.7 196.414 27.528 195.862 27.184C195.318 26.832 195.046 26.328 195.046 25.672C195.046 25.048 195.294 24.572 195.79 24.244C196.286 23.908 196.994 23.704 197.914 23.632V23.272L200.098 23.896H198.79C198.102 23.896 197.578 23.992 197.218 24.184C196.858 24.368 196.678 24.652 196.678 25.036C196.678 25.396 196.842 25.656 197.17 25.816C197.506 25.968 198.01 26.044 198.682 26.044H202.978C203.802 26.044 204.502 26.18 205.078 26.452C205.662 26.716 206.102 27.096 206.398 27.592C206.702 28.088 206.854 28.68 206.854 29.368C206.854 30.104 206.646 30.768 206.23 31.36C205.814 31.96 205.126 32.432 204.166 32.776C203.214 33.128 201.93 33.304 200.314 33.304ZM200.098 23.896C199.082 23.896 198.178 23.712 197.386 23.344C196.594 22.976 195.97 22.46 195.514 21.796C195.058 21.132 194.83 20.352 194.83 19.456C194.83 18.56 195.054 17.78 195.502 17.116C195.958 16.444 196.578 15.924 197.362 15.556C198.154 15.18 199.066 14.992 200.098 14.992C201.146 14.992 202.07 15.188 202.87 15.58C203.678 15.972 204.294 16.516 204.718 17.212C204.926 17.532 205.078 17.88 205.174 18.256C205.278 18.624 205.33 19.024 205.33 19.456C205.33 20.352 205.106 21.132 204.658 21.796C204.21 22.46 203.59 22.976 202.798 23.344C202.014 23.712 201.114 23.896 200.098 23.896ZM200.098 22.48C200.778 22.48 201.382 22.356 201.91 22.108C202.446 21.86 202.866 21.508 203.17 21.052C203.482 20.596 203.638 20.064 203.638 19.456C203.638 18.848 203.482 18.316 203.17 17.86C202.866 17.396 202.446 17.04 201.91 16.792C201.382 16.536 200.778 16.408 200.098 16.408C199.402 16.408 198.786 16.536 198.25 16.792C197.714 17.04 197.29 17.396 196.978 17.86C196.674 18.316 196.522 18.848 196.522 19.456C196.522 20.064 196.674 20.596 196.978 21.052C197.29 21.508 197.714 21.86 198.25 22.108C198.794 22.356 199.41 22.48 200.098 22.48ZM205.33 19.456L204.73 18.052L204.202 17.188L204.682 16.996C204.658 16.916 204.638 16.836 204.622 16.756C204.614 16.668 204.61 16.576 204.61 16.48C204.61 16.144 204.69 15.84 204.85 15.568C205.01 15.296 205.242 15.08 205.546 14.92C205.85 14.76 206.222 14.68 206.662 14.68C206.774 14.68 206.874 14.684 206.962 14.692C207.058 14.7 207.15 14.716 207.238 14.74V16.408C207.086 16.384 206.946 16.368 206.818 16.36C206.69 16.344 206.562 16.336 206.434 16.336C206.098 16.336 205.826 16.384 205.618 16.48C205.418 16.576 205.274 16.7 205.186 16.852C205.098 16.996 205.054 17.156 205.054 17.332C205.054 17.5 205.078 17.684 205.126 17.884C205.174 18.076 205.218 18.3 205.258 18.556C205.306 18.812 205.33 19.112 205.33 19.456ZM212.685 26.512H215.313V28H208.329V26.512H210.957V10.528H208.329V9.04H212.685V26.512ZM227.06 28C226.732 28 226.48 27.896 226.304 27.688C226.136 27.48 226.052 27.188 226.052 26.812V22.972L226.208 22.576L226.124 21.124L226.052 20.368V19.396C226.052 18.74 225.916 18.204 225.644 17.788C225.38 17.372 224.996 17.064 224.492 16.864C223.988 16.664 223.38 16.564 222.668 16.564C221.604 16.564 220.78 16.776 220.196 17.2C219.62 17.616 219.236 18.244 219.044 19.084L217.388 18.736C217.548 17.896 217.848 17.2 218.288 16.648C218.728 16.088 219.312 15.672 220.04 15.4C220.776 15.12 221.672 14.98 222.728 14.98C223.832 14.98 224.756 15.136 225.5 15.448C226.252 15.752 226.82 16.22 227.204 16.852C227.588 17.484 227.78 18.3 227.78 19.3V26.512H229.664V28H227.06ZM221.036 28.168C219.708 28.168 218.7 27.876 218.012 27.292C217.324 26.7 216.98 25.832 216.98 24.688C216.98 23.632 217.284 22.828 217.892 22.276C218.5 21.716 219.476 21.296 220.82 21.016L226.568 19.792V21.028L221.108 22.264C220.324 22.448 219.736 22.72 219.344 23.08C218.96 23.432 218.768 23.932 218.768 24.58C218.768 25.284 218.984 25.812 219.416 26.164C219.848 26.508 220.48 26.68 221.312 26.68C222.232 26.68 223.056 26.468 223.784 26.044C224.512 25.62 225.084 24.996 225.5 24.172C225.916 23.348 226.124 22.332 226.124 21.124L226.58 23.956H225.968C225.768 25.292 225.248 26.328 224.408 27.064C223.576 27.8 222.452 28.168 221.036 28.168ZM237.513 28.228C236.657 28.228 235.933 28.1 235.341 27.844C234.757 27.588 234.293 27.248 233.949 26.824C233.605 26.392 233.381 25.912 233.277 25.384H232.845L233.193 23.968C233.345 24.808 233.761 25.492 234.441 26.02C235.129 26.548 236.021 26.812 237.117 26.812C238.053 26.812 238.777 26.624 239.289 26.248C239.809 25.864 240.069 25.308 240.069 24.58C240.069 23.916 239.813 23.4 239.301 23.032C238.789 22.664 237.893 22.384 236.613 22.192C234.781 21.904 233.477 21.452 232.701 20.836C231.925 20.212 231.537 19.392 231.537 18.376C231.537 17.352 231.893 16.532 232.605 15.916C233.317 15.3 234.309 14.992 235.581 14.992C236.421 14.992 237.113 15.12 237.657 15.376C238.209 15.632 238.633 15.976 238.929 16.408C239.225 16.832 239.417 17.3 239.505 17.812H239.937L239.589 19.168C239.445 18.352 239.053 17.688 238.413 17.176C237.773 16.656 236.937 16.396 235.905 16.396C235.073 16.396 234.421 16.572 233.949 16.924C233.485 17.276 233.253 17.744 233.253 18.328C233.253 18.944 233.545 19.428 234.129 19.78C234.713 20.124 235.633 20.396 236.889 20.596C238.665 20.876 239.925 21.336 240.669 21.976C241.413 22.616 241.785 23.48 241.785 24.568C241.785 25.712 241.417 26.608 240.681 27.256C239.953 27.904 238.897 28.228 237.513 28.228ZM231.465 28V23.968H233.193V28H231.465ZM239.589 19.168V15.22H241.317V19.168H239.589ZM250.158 28.228C249.302 28.228 248.578 28.1 247.986 27.844C247.402 27.588 246.938 27.248 246.594 26.824C246.25 26.392 246.026 25.912 245.922 25.384H245.49L245.838 23.968C245.99 24.808 246.406 25.492 247.086 26.02C247.774 26.548 248.666 26.812 249.762 26.812C250.698 26.812 251.422 26.624 251.934 26.248C252.454 25.864 252.714 25.308 252.714 24.58C252.714 23.916 252.458 23.4 251.946 23.032C251.434 22.664 250.538 22.384 249.258 22.192C247.426 21.904 246.122 21.452 245.346 20.836C244.57 20.212 244.182 19.392 244.182 18.376C244.182 17.352 244.538 16.532 245.25 15.916C245.962 15.3 246.954 14.992 248.226 14.992C249.066 14.992 249.758 15.12 250.302 15.376C250.854 15.632 251.278 15.976 251.574 16.408C251.87 16.832 252.062 17.3 252.15 17.812H252.582L252.234 19.168C252.09 18.352 251.698 17.688 251.058 17.176C250.418 16.656 249.582 16.396 248.55 16.396C247.718 16.396 247.066 16.572 246.594 16.924C246.13 17.276 245.898 17.744 245.898 18.328C245.898 18.944 246.19 19.428 246.774 19.78C247.358 20.124 248.278 20.396 249.534 20.596C251.31 20.876 252.57 21.336 253.314 21.976C254.058 22.616 254.43 23.48 254.43 24.568C254.43 25.712 254.062 26.608 253.326 27.256C252.598 27.904 251.542 28.228 250.158 28.228ZM244.11 28V23.968H245.838V28H244.11ZM252.234 19.168V15.22H253.962V19.168H252.234ZM263.103 28.228C261.783 28.228 260.639 27.948 259.671 27.388C258.703 26.828 257.955 26.056 257.427 25.072C256.899 24.08 256.635 22.94 256.635 21.652C256.635 20.348 256.899 19.196 257.427 18.196C257.963 17.196 258.707 16.412 259.659 15.844C260.619 15.276 261.735 14.992 263.007 14.992C264.287 14.992 265.395 15.272 266.331 15.832C267.267 16.392 267.987 17.168 268.491 18.16C268.995 19.152 269.247 20.296 269.247 21.592C269.247 21.744 269.243 21.864 269.235 21.952C269.235 22.04 269.227 22.116 269.211 22.18H267.507C267.515 22.084 267.519 21.98 267.519 21.868C267.527 21.748 267.531 21.612 267.531 21.46C267.531 20.508 267.347 19.664 266.979 18.928C266.619 18.184 266.103 17.6 265.431 17.176C264.759 16.752 263.951 16.54 263.007 16.54C262.087 16.54 261.279 16.76 260.583 17.2C259.887 17.632 259.347 18.232 258.963 19C258.579 19.76 258.387 20.644 258.387 21.652C258.387 22.628 258.575 23.492 258.951 24.244C259.335 24.988 259.879 25.572 260.583 25.996C261.287 26.42 262.123 26.632 263.091 26.632C264.099 26.632 264.971 26.396 265.707 25.924C266.451 25.444 267.003 24.792 267.363 23.968L268.995 24.58C268.523 25.708 267.767 26.6 266.727 27.256C265.695 27.904 264.487 28.228 263.103 28.228ZM257.727 22.18V20.848H268.695L269.199 22.18H257.727ZM277.511 28.228C276.655 28.228 275.931 28.1 275.339 27.844C274.755 27.588 274.291 27.248 273.947 26.824C273.603 26.392 273.379 25.912 273.275 25.384H272.843L273.191 23.968C273.343 24.808 273.759 25.492 274.439 26.02C275.127 26.548 276.019 26.812 277.115 26.812C278.051 26.812 278.775 26.624 279.287 26.248C279.807 25.864 280.067 25.308 280.067 24.58C280.067 23.916 279.811 23.4 279.299 23.032C278.787 22.664 277.891 22.384 276.611 22.192C274.779 21.904 273.475 21.452 272.699 20.836C271.923 20.212 271.535 19.392 271.535 18.376C271.535 17.352 271.891 16.532 272.603 15.916C273.315 15.3 274.307 14.992 275.579 14.992C276.419 14.992 277.111 15.12 277.655 15.376C278.207 15.632 278.631 15.976 278.927 16.408C279.223 16.832 279.415 17.3 279.503 17.812H279.935L279.587 19.168C279.443 18.352 279.051 17.688 278.411 17.176C277.771 16.656 276.935 16.396 275.903 16.396C275.071 16.396 274.419 16.572 273.947 16.924C273.483 17.276 273.251 17.744 273.251 18.328C273.251 18.944 273.543 19.428 274.127 19.78C274.711 20.124 275.631 20.396 276.887 20.596C278.663 20.876 279.923 21.336 280.667 21.976C281.411 22.616 281.783 23.48 281.783 24.568C281.783 25.712 281.415 26.608 280.679 27.256C279.951 27.904 278.895 28.228 277.511 28.228ZM271.463 28V23.968H273.191V28H271.463ZM279.587 19.168V15.22H281.315V19.168H279.587Z" fill="black"/>
<path d="M1 6.35211L6 1V39L1 33.6479V6.35211Z" fill="white"/>
<path d="M6 1L1 6.35211V33.6479L6 39" stroke="black" stroke-linecap="round"/>
<path d="M293 33.6479L288 39L288 1L293 6.35211L293 33.6479Z" fill="white"/>
<path d="M288 39L293 33.6479L293 6.35211L288 1" stroke="black" stroke-linecap="round"/>
</svg>
