<svg width="260" height="40" viewBox="0 0 260 40" fill="none" xmlns="http://www.w3.org/2000/svg">
<path d="M6 1H254V39H6V1Z" fill="white"/>
<path d="M6 1.5H254V0.5H6V1.5ZM254 38.5H6V39.5H254V38.5Z" fill="black"/>
<path d="M16.3628 26.512H18.6308V28H12.0668V26.512H14.6348V10.528H12.0668V9.04H16.3628V26.512ZM23.7308 26.512V19.792C23.7308 18.752 23.4948 17.936 23.0228 17.344C22.5588 16.752 21.8268 16.456 20.8268 16.456C19.9868 16.456 19.2308 16.672 18.5588 17.104C17.8868 17.528 17.3508 18.148 16.9508 18.964C16.5588 19.772 16.3628 20.748 16.3628 21.892L15.9548 19.336H16.4348C16.5948 18.4 16.8948 17.608 17.3348 16.96C17.7828 16.304 18.3508 15.804 19.0388 15.46C19.7268 15.116 20.5148 14.944 21.4028 14.944C22.7948 14.944 23.8188 15.344 24.4748 16.144C25.1308 16.944 25.4588 18.068 25.4588 19.516V26.512H27.9068V28H21.4748V26.512H23.7308ZM33.6128 26.512H36.0728V28H29.2928V26.512H31.8848V16.708H29.2928V15.22H33.6128V26.512ZM31.5608 9.832H33.7688V12.124H31.5608V9.832ZM37.1584 33.04V31.552H39.7144V16.708H37.1584V15.22H41.4424V19.792L41.3944 21.16V21.916L41.4424 22.996V31.552H43.9504V33.04H37.1584ZM46.2664 28.24C45.2104 28.24 44.2624 28.008 43.4224 27.544C42.5904 27.08 41.9024 26.42 41.3584 25.564C40.8144 24.7 40.4544 23.668 40.2784 22.468L41.3944 21.64C41.3944 22.624 41.5824 23.496 41.9584 24.256C42.3344 25.008 42.8744 25.6 43.5784 26.032C44.2824 26.464 45.1184 26.68 46.0864 26.68C47.0384 26.68 47.8664 26.464 48.5704 26.032C49.2744 25.6 49.8144 25.004 50.1904 24.244C50.5744 23.476 50.7664 22.6 50.7664 21.616C50.7664 20.616 50.5704 19.736 50.1784 18.976C49.7864 18.216 49.2384 17.62 48.5344 17.188C47.8304 16.748 47.0144 16.528 46.0864 16.528C45.1344 16.528 44.3064 16.748 43.6024 17.188C42.8984 17.62 42.3544 18.22 41.9704 18.988C41.5864 19.756 41.3944 20.64 41.3944 21.64L41.1184 18.916H41.5264C41.6704 18.212 41.9504 17.564 42.3664 16.972C42.7824 16.372 43.3304 15.892 44.0104 15.532C44.6984 15.164 45.5144 14.98 46.4584 14.98C47.3544 14.98 48.1744 15.144 48.9184 15.472C49.6624 15.792 50.3024 16.252 50.8384 16.852C51.3824 17.444 51.8024 18.144 52.0984 18.952C52.4024 19.76 52.5544 20.648 52.5544 21.616C52.5544 22.904 52.2944 24.048 51.7744 25.048C51.2544 26.048 50.5224 26.832 49.5784 27.4C48.6424 27.96 47.5384 28.24 46.2664 28.24ZM67.7131 28.228C66.8571 28.228 66.1331 28.1 65.5411 27.844C64.9571 27.588 64.4931 27.248 64.1491 26.824C63.8051 26.392 63.5811 25.912 63.4771 25.384H63.0451L63.3931 23.968C63.5451 24.808 63.9611 25.492 64.6411 26.02C65.3291 26.548 66.2211 26.812 67.3171 26.812C68.2531 26.812 68.9771 26.624 69.4891 26.248C70.0091 25.864 70.2691 25.308 70.2691 24.58C70.2691 23.916 70.0131 23.4 69.5011 23.032C68.9891 22.664 68.0931 22.384 66.8131 22.192C64.9811 21.904 63.6771 21.452 62.9011 20.836C62.1251 20.212 61.7371 19.392 61.7371 18.376C61.7371 17.352 62.0931 16.532 62.8051 15.916C63.5171 15.3 64.5091 14.992 65.7811 14.992C66.6211 14.992 67.3131 15.12 67.8571 15.376C68.4091 15.632 68.8331 15.976 69.1291 16.408C69.4251 16.832 69.6171 17.3 69.7051 17.812H70.1371L69.7891 19.168C69.6451 18.352 69.2531 17.688 68.6131 17.176C67.9731 16.656 67.1371 16.396 66.1051 16.396C65.2731 16.396 64.6211 16.572 64.1491 16.924C63.6851 17.276 63.4531 17.744 63.4531 18.328C63.4531 18.944 63.7451 19.428 64.3291 19.78C64.9131 20.124 65.8331 20.396 67.0891 20.596C68.8651 20.876 70.1251 21.336 70.8691 21.976C71.6131 22.616 71.9851 23.48 71.9851 24.568C71.9851 25.712 71.6171 26.608 70.8811 27.256C70.1531 27.904 69.0971 28.228 67.7131 28.228ZM61.6651 28V23.968H63.3931V28H61.6651ZM69.7891 19.168V15.22H71.5171V19.168H69.7891ZM77.4181 24.616C77.4181 25.288 77.5461 25.796 77.8021 26.14C78.0581 26.476 78.4501 26.644 78.9781 26.644C79.4981 26.644 79.8901 26.472 80.1541 26.128C80.4181 25.776 80.5501 25.272 80.5501 24.616V23.428H82.1101V24.604C82.1101 25.372 81.9941 26.028 81.7621 26.572C81.5381 27.108 81.1941 27.52 80.7301 27.808C80.2661 28.088 79.6701 28.228 78.9421 28.228C78.1981 28.228 77.5861 28.084 77.1061 27.796C76.6261 27.5 76.2701 27.084 76.0381 26.548C75.8061 26.012 75.6901 25.368 75.6901 24.616L75.7021 16.708H73.4221V15.22H75.7021V11.98H77.4301V15.22H81.9421L81.9301 16.708H77.4301L77.4181 24.616ZM91.4065 15.22H97.3585V16.708H95.7625L90.4825 29.704C90.0505 30.776 89.3825 31.6 88.4785 32.176C87.5825 32.752 86.4665 33.04 85.1305 33.04H83.8705V31.516H85.1305C86.0265 31.516 86.8065 31.328 87.4705 30.952C88.1425 30.584 88.6305 30.04 88.9345 29.32L89.8465 27.076L89.5465 28.564L84.6625 16.708H82.8985V15.22H88.9705V16.708H86.5465L90.8545 27.472L89.2825 26.08H90.9385L90.0385 26.896L94.0345 16.708H91.4065V15.22ZM101.891 26.512H104.519V28H97.5349V26.512H100.163V10.528H97.5349V9.04H101.891V26.512ZM112.288 28.228C110.968 28.228 109.824 27.948 108.856 27.388C107.888 26.828 107.14 26.056 106.612 25.072C106.084 24.08 105.82 22.94 105.82 21.652C105.82 20.348 106.084 19.196 106.612 18.196C107.148 17.196 107.892 16.412 108.844 15.844C109.804 15.276 110.92 14.992 112.192 14.992C113.472 14.992 114.58 15.272 115.516 15.832C116.452 16.392 117.172 17.168 117.676 18.16C118.18 19.152 118.432 20.296 118.432 21.592C118.432 21.744 118.428 21.864 118.42 21.952C118.42 22.04 118.412 22.116 118.396 22.18H116.692C116.7 22.084 116.704 21.98 116.704 21.868C116.712 21.748 116.716 21.612 116.716 21.46C116.716 20.508 116.532 19.664 116.164 18.928C115.804 18.184 115.288 17.6 114.616 17.176C113.944 16.752 113.136 16.54 112.192 16.54C111.272 16.54 110.464 16.76 109.768 17.2C109.072 17.632 108.532 18.232 108.148 19C107.764 19.76 107.572 20.644 107.572 21.652C107.572 22.628 107.76 23.492 108.136 24.244C108.52 24.988 109.064 25.572 109.768 25.996C110.472 26.42 111.308 26.632 112.276 26.632C113.284 26.632 114.156 26.396 114.892 25.924C115.636 25.444 116.188 24.792 116.548 23.968L118.18 24.58C117.708 25.708 116.952 26.6 115.912 27.256C114.88 27.904 113.672 28.228 112.288 28.228ZM106.912 22.18V20.848H117.88L118.384 22.18H106.912ZM128.537 28.264V10.528H125.969V9.04H130.265V19.696L130.193 21.196V22.792L130.265 25.12L128.693 28.264H128.537ZM135.005 28.24C133.933 28.24 132.973 28.04 132.125 27.64C131.285 27.232 130.589 26.656 130.037 25.912C129.493 25.16 129.129 24.268 128.945 23.236L130.193 21.616C130.193 22.6 130.381 23.472 130.757 24.232C131.133 24.992 131.673 25.592 132.377 26.032C133.081 26.464 133.917 26.68 134.885 26.68C135.869 26.68 136.709 26.468 137.405 26.044C138.109 25.62 138.645 25.028 139.013 24.268C139.389 23.5 139.577 22.608 139.577 21.592C139.577 20.6 139.377 19.724 138.977 18.964C138.585 18.204 138.037 17.608 137.333 17.176C136.629 16.744 135.813 16.528 134.885 16.528C133.933 16.528 133.105 16.744 132.401 17.176C131.697 17.608 131.153 18.204 130.769 18.964C130.385 19.724 130.193 20.608 130.193 21.616L129.917 18.916H130.325C130.477 18.212 130.757 17.564 131.165 16.972C131.581 16.372 132.129 15.892 132.809 15.532C133.497 15.164 134.317 14.98 135.269 14.98C136.157 14.98 136.973 15.144 137.717 15.472C138.461 15.792 139.105 16.252 139.649 16.852C140.193 17.444 140.613 18.148 140.909 18.964C141.205 19.772 141.353 20.66 141.353 21.628C141.353 22.916 141.089 24.06 140.561 25.06C140.041 26.052 139.305 26.832 138.353 27.4C137.401 27.96 136.285 28.24 135.005 28.24ZM147.08 26.512H149.708V28H142.724V26.512H145.352V10.528H142.724V9.04H147.08V26.512ZM161.456 28C161.128 28 160.876 27.896 160.7 27.688C160.532 27.48 160.448 27.188 160.448 26.812V22.972L160.604 22.576L160.52 21.124L160.448 20.368V19.396C160.448 18.74 160.312 18.204 160.04 17.788C159.776 17.372 159.392 17.064 158.888 16.864C158.384 16.664 157.776 16.564 157.064 16.564C156 16.564 155.176 16.776 154.592 17.2C154.016 17.616 153.632 18.244 153.44 19.084L151.784 18.736C151.944 17.896 152.244 17.2 152.684 16.648C153.124 16.088 153.708 15.672 154.436 15.4C155.172 15.12 156.068 14.98 157.124 14.98C158.228 14.98 159.152 15.136 159.896 15.448C160.648 15.752 161.216 16.22 161.6 16.852C161.984 17.484 162.176 18.3 162.176 19.3V26.512H164.06V28H161.456ZM155.432 28.168C154.104 28.168 153.096 27.876 152.408 27.292C151.72 26.7 151.376 25.832 151.376 24.688C151.376 23.632 151.68 22.828 152.288 22.276C152.896 21.716 153.872 21.296 155.216 21.016L160.964 19.792V21.028L155.504 22.264C154.72 22.448 154.132 22.72 153.74 23.08C153.356 23.432 153.164 23.932 153.164 24.58C153.164 25.284 153.38 25.812 153.812 26.164C154.244 26.508 154.876 26.68 155.708 26.68C156.628 26.68 157.452 26.468 158.18 26.044C158.908 25.62 159.48 24.996 159.896 24.172C160.312 23.348 160.52 22.332 160.52 21.124L160.976 23.956H160.364C160.164 25.292 159.644 26.328 158.804 27.064C157.972 27.8 156.848 28.168 155.432 28.168ZM172.234 28.228C170.906 28.228 169.75 27.948 168.766 27.388C167.79 26.828 167.03 26.056 166.486 25.072C165.95 24.08 165.682 22.94 165.682 21.652C165.682 20.676 165.83 19.784 166.126 18.976C166.422 18.16 166.846 17.456 167.398 16.864C167.95 16.264 168.606 15.804 169.366 15.484C170.126 15.156 170.974 14.992 171.91 14.992C172.814 14.992 173.566 15.14 174.166 15.436C174.774 15.724 175.246 16.124 175.582 16.636C175.918 17.14 176.134 17.72 176.23 18.376H176.65L176.302 20.188C176.198 19.468 175.962 18.836 175.594 18.292C175.226 17.74 174.746 17.312 174.154 17.008C173.562 16.696 172.878 16.54 172.102 16.54C171.174 16.54 170.358 16.76 169.654 17.2C168.958 17.632 168.414 18.232 168.022 19C167.638 19.76 167.446 20.644 167.446 21.652C167.446 22.628 167.642 23.492 168.034 24.244C168.434 24.988 168.99 25.572 169.702 25.996C170.422 26.42 171.27 26.632 172.246 26.632C173.254 26.632 174.122 26.412 174.85 25.972C175.578 25.524 176.11 24.924 176.446 24.172L178.042 24.88C177.586 25.912 176.854 26.728 175.846 27.328C174.846 27.928 173.642 28.228 172.234 28.228ZM176.302 20.188V15.22H178.03V20.188H176.302ZM183.994 26.512H186.262V28H179.698V26.512H182.266V10.528H179.698V9.04H183.994V26.512ZM188.458 19.9L193.534 26.512H195.202V28H188.626V26.512H191.398L187.234 20.944L188.458 19.9ZM183.478 24.556L183.118 23.176L190.954 16.708H187.054V15.22H194.998V16.708H193.198L183.478 24.556ZM210.123 28.228C208.795 28.228 207.639 27.948 206.655 27.388C205.679 26.828 204.919 26.056 204.375 25.072C203.839 24.08 203.571 22.94 203.571 21.652C203.571 20.676 203.719 19.784 204.015 18.976C204.311 18.16 204.735 17.456 205.287 16.864C205.839 16.264 206.495 15.804 207.255 15.484C208.015 15.156 208.863 14.992 209.799 14.992C210.703 14.992 211.455 15.14 212.055 15.436C212.663 15.724 213.135 16.124 213.471 16.636C213.807 17.14 214.023 17.72 214.119 18.376H214.539L214.191 20.188C214.087 19.468 213.851 18.836 213.483 18.292C213.115 17.74 212.635 17.312 212.043 17.008C211.451 16.696 210.767 16.54 209.991 16.54C209.063 16.54 208.247 16.76 207.543 17.2C206.847 17.632 206.303 18.232 205.911 19C205.527 19.76 205.335 20.644 205.335 21.652C205.335 22.628 205.531 23.492 205.923 24.244C206.323 24.988 206.879 25.572 207.591 25.996C208.311 26.42 209.159 26.632 210.135 26.632C211.143 26.632 212.011 26.412 212.739 25.972C213.467 25.524 213.999 24.924 214.335 24.172L215.931 24.88C215.475 25.912 214.743 26.728 213.735 27.328C212.735 27.928 211.531 28.228 210.123 28.228ZM214.191 20.188V15.22H215.919V20.188H214.191ZM228.267 28C227.939 28 227.687 27.896 227.511 27.688C227.343 27.48 227.259 27.188 227.259 26.812V22.972L227.415 22.576L227.331 21.124L227.259 20.368V19.396C227.259 18.74 227.123 18.204 226.851 17.788C226.587 17.372 226.203 17.064 225.699 16.864C225.195 16.664 224.587 16.564 223.875 16.564C222.811 16.564 221.987 16.776 221.403 17.2C220.827 17.616 220.443 18.244 220.251 19.084L218.595 18.736C218.755 17.896 219.055 17.2 219.495 16.648C219.935 16.088 220.519 15.672 221.247 15.4C221.983 15.12 222.879 14.98 223.935 14.98C225.039 14.98 225.963 15.136 226.707 15.448C227.459 15.752 228.027 16.22 228.411 16.852C228.795 17.484 228.987 18.3 228.987 19.3V26.512H230.871V28H228.267ZM222.243 28.168C220.915 28.168 219.907 27.876 219.219 27.292C218.531 26.7 218.187 25.832 218.187 24.688C218.187 23.632 218.491 22.828 219.099 22.276C219.707 21.716 220.683 21.296 222.027 21.016L227.775 19.792V21.028L222.315 22.264C221.531 22.448 220.943 22.72 220.551 23.08C220.167 23.432 219.975 23.932 219.975 24.58C219.975 25.284 220.191 25.812 220.623 26.164C221.055 26.508 221.687 26.68 222.519 26.68C223.439 26.68 224.263 26.468 224.991 26.044C225.719 25.62 226.291 24.996 226.707 24.172C227.123 23.348 227.331 22.332 227.331 21.124L227.787 23.956H227.175C226.975 25.292 226.455 26.328 225.615 27.064C224.783 27.8 223.659 28.168 222.243 28.168ZM232.096 33.04V31.552H234.652V16.708H232.096V15.22H236.38V19.792L236.332 21.16V21.916L236.38 22.996V31.552H238.888V33.04H232.096ZM241.204 28.24C240.148 28.24 239.2 28.008 238.36 27.544C237.528 27.08 236.84 26.42 236.296 25.564C235.752 24.7 235.392 23.668 235.216 22.468L236.332 21.64C236.332 22.624 236.52 23.496 236.896 24.256C237.272 25.008 237.812 25.6 238.516 26.032C239.22 26.464 240.056 26.68 241.024 26.68C241.976 26.68 242.804 26.464 243.508 26.032C244.212 25.6 244.752 25.004 245.128 24.244C245.512 23.476 245.704 22.6 245.704 21.616C245.704 20.616 245.508 19.736 245.116 18.976C244.724 18.216 244.176 17.62 243.472 17.188C242.768 16.748 241.952 16.528 241.024 16.528C240.072 16.528 239.244 16.748 238.54 17.188C237.836 17.62 237.292 18.22 236.908 18.988C236.524 19.756 236.332 20.64 236.332 21.64L236.056 18.916H236.464C236.608 18.212 236.888 17.564 237.304 16.972C237.72 16.372 238.268 15.892 238.948 15.532C239.636 15.164 240.452 14.98 241.396 14.98C242.292 14.98 243.112 15.144 243.856 15.472C244.6 15.792 245.24 16.252 245.776 16.852C246.32 17.444 246.74 18.144 247.036 18.952C247.34 19.76 247.492 20.648 247.492 21.616C247.492 22.904 247.232 24.048 246.712 25.048C246.192 26.048 245.46 26.832 244.516 27.4C243.58 27.96 242.476 28.24 241.204 28.24Z" fill="black"/>
<path d="M1 6.35211L6 1V39L1 33.6479V6.35211Z" fill="white"/>
<path d="M6 1L1 6.35211V33.6479L6 39" stroke="black" stroke-linecap="round"/>
<path d="M259 33.6479L254 39L254 1L259 6.35211L259 33.6479Z" fill="white"/>
<path d="M254 39L259 33.6479L259 6.35211L254 1" stroke="black" stroke-linecap="round"/>
</svg>
