<svg width="130" height="40" viewBox="0 0 130 40" fill="none" xmlns="http://www.w3.org/2000/svg">
<path d="M6 1H124V39H6V1Z" fill="white"/>
<path d="M6 1.5H124V0.5H6V1.5ZM124 38.5H6V39.5H124V38.5Z" fill="black"/>
<path d="M23.8405 28V23.224L23.9125 22.288V20.764L23.8405 19.084V10.528H20.3965V9.04H25.5685V26.512H28.0165V28H23.8405ZM19.0285 14.98C20.0845 14.98 21.0285 15.212 21.8605 15.676C22.7005 16.14 23.3925 16.804 23.9365 17.668C24.4805 18.524 24.8405 19.552 25.0165 20.752L23.9125 21.58C23.9125 20.596 23.7205 19.724 23.3365 18.964C22.9605 18.204 22.4205 17.612 21.7165 17.188C21.0125 16.756 20.1765 16.54 19.2085 16.54C18.2565 16.54 17.4285 16.756 16.7245 17.188C16.0205 17.62 15.4765 18.216 15.0925 18.976C14.7165 19.736 14.5285 20.616 14.5285 21.616C14.5285 22.608 14.7245 23.484 15.1165 24.244C15.5085 25.004 16.0565 25.604 16.7605 26.044C17.4725 26.476 18.2885 26.692 19.2085 26.692C20.1685 26.692 20.9965 26.476 21.6925 26.044C22.3965 25.604 22.9405 25 23.3245 24.232C23.7165 23.464 23.9125 22.58 23.9125 21.58L24.1765 24.304H23.7685C23.6245 25.008 23.3445 25.66 22.9285 26.26C22.5125 26.852 21.9645 27.332 21.2845 27.7C20.6045 28.06 19.7885 28.24 18.8365 28.24C17.9485 28.24 17.1325 28.08 16.3885 27.76C15.6445 27.432 15.0005 26.972 14.4565 26.38C13.9125 25.78 13.4885 25.076 13.1845 24.268C12.8885 23.46 12.7405 22.576 12.7405 21.616C12.7405 20.32 13.0005 19.172 13.5205 18.172C14.0405 17.172 14.7685 16.392 15.7045 15.832C16.6485 15.264 17.7565 14.98 19.0285 14.98ZM33.8511 26.512H36.3471V28H29.4951V26.512H32.1231V16.708H29.4951V15.22H33.8511V26.512ZM38.7591 17.056C38.6151 17.016 38.4591 16.984 38.2911 16.96C38.1311 16.936 37.9551 16.924 37.7631 16.924C36.5791 16.924 35.6311 17.368 34.9191 18.256C34.2071 19.136 33.8511 20.36 33.8511 21.928L33.4431 19.132H33.9351C34.0471 18.284 34.2791 17.556 34.6311 16.948C34.9831 16.332 35.4391 15.86 35.9991 15.532C36.5671 15.196 37.2311 15.028 37.9911 15.028C38.1351 15.028 38.2631 15.036 38.3751 15.052C38.4951 15.06 38.6231 15.076 38.7591 15.1V17.056ZM46.3157 28.228C44.9957 28.228 43.8517 27.948 42.8837 27.388C41.9157 26.828 41.1677 26.056 40.6397 25.072C40.1117 24.08 39.8477 22.94 39.8477 21.652C39.8477 20.348 40.1117 19.196 40.6397 18.196C41.1757 17.196 41.9197 16.412 42.8717 15.844C43.8317 15.276 44.9477 14.992 46.2197 14.992C47.4997 14.992 48.6077 15.272 49.5437 15.832C50.4797 16.392 51.1997 17.168 51.7037 18.16C52.2077 19.152 52.4597 20.296 52.4597 21.592C52.4597 21.744 52.4557 21.864 52.4477 21.952C52.4477 22.04 52.4397 22.116 52.4237 22.18H50.7197C50.7277 22.084 50.7317 21.98 50.7317 21.868C50.7397 21.748 50.7437 21.612 50.7437 21.46C50.7437 20.508 50.5597 19.664 50.1917 18.928C49.8317 18.184 49.3157 17.6 48.6437 17.176C47.9717 16.752 47.1637 16.54 46.2197 16.54C45.2997 16.54 44.4917 16.76 43.7957 17.2C43.0997 17.632 42.5597 18.232 42.1757 19C41.7917 19.76 41.5997 20.644 41.5997 21.652C41.5997 22.628 41.7877 23.492 42.1637 24.244C42.5477 24.988 43.0917 25.572 43.7957 25.996C44.4997 26.42 45.3357 26.632 46.3037 26.632C47.3117 26.632 48.1837 26.396 48.9197 25.924C49.6637 25.444 50.2157 24.792 50.5757 23.968L52.2077 24.58C51.7357 25.708 50.9797 26.6 49.9397 27.256C48.9077 27.904 47.6997 28.228 46.3157 28.228ZM40.9397 22.18V20.848H51.9077L52.4117 22.18H40.9397ZM64.7432 28C64.4152 28 64.1632 27.896 63.9872 27.688C63.8192 27.48 63.7352 27.188 63.7352 26.812V22.972L63.8912 22.576L63.8072 21.124L63.7352 20.368V19.396C63.7352 18.74 63.5992 18.204 63.3272 17.788C63.0632 17.372 62.6792 17.064 62.1752 16.864C61.6712 16.664 61.0632 16.564 60.3512 16.564C59.2872 16.564 58.4632 16.776 57.8792 17.2C57.3032 17.616 56.9192 18.244 56.7272 19.084L55.0712 18.736C55.2312 17.896 55.5312 17.2 55.9712 16.648C56.4112 16.088 56.9952 15.672 57.7232 15.4C58.4592 15.12 59.3552 14.98 60.4112 14.98C61.5152 14.98 62.4392 15.136 63.1832 15.448C63.9352 15.752 64.5032 16.22 64.8872 16.852C65.2712 17.484 65.4632 18.3 65.4632 19.3V26.512H67.3472V28H64.7432ZM58.7192 28.168C57.3912 28.168 56.3832 27.876 55.6952 27.292C55.0072 26.7 54.6632 25.832 54.6632 24.688C54.6632 23.632 54.9672 22.828 55.5752 22.276C56.1832 21.716 57.1592 21.296 58.5032 21.016L64.2512 19.792V21.028L58.7912 22.264C58.0072 22.448 57.4192 22.72 57.0272 23.08C56.6432 23.432 56.4512 23.932 56.4512 24.58C56.4512 25.284 56.6672 25.812 57.0992 26.164C57.5312 26.508 58.1632 26.68 58.9952 26.68C59.9152 26.68 60.7392 26.468 61.4672 26.044C62.1952 25.62 62.7672 24.996 63.1832 24.172C63.5992 23.348 63.8072 22.332 63.8072 21.124L64.2632 23.956H63.6512C63.4512 25.292 62.9312 26.328 62.0912 27.064C61.2592 27.8 60.1352 28.168 58.7192 28.168ZM86.5243 28V26.512H88.7803V19.804C88.7803 18.756 88.5483 17.936 88.0843 17.344C87.6203 16.752 86.8963 16.456 85.9123 16.456C85.1203 16.456 84.4163 16.664 83.8003 17.08C83.1843 17.496 82.7003 18.092 82.3483 18.868C81.9963 19.644 81.8203 20.576 81.8203 21.664L81.4003 19.096H81.8923C82.0923 17.704 82.6083 16.664 83.4403 15.976C84.2803 15.288 85.3003 14.944 86.5003 14.944C87.8523 14.944 88.8563 15.344 89.5123 16.144C90.1763 16.944 90.5083 18.072 90.5083 19.528V26.512H92.9563V28H86.5243ZM68.8363 28V26.512H71.3923V16.708H68.8363V15.22H73.1203V26.512H75.3883V28H68.8363ZM77.8363 28V26.512H80.0923V19.804C80.0923 18.756 79.8603 17.936 79.3963 17.344C78.9323 16.752 78.2083 16.456 77.2243 16.456C76.4323 16.456 75.7283 16.664 75.1123 17.08C74.4963 17.496 74.0083 18.092 73.6483 18.868C73.2963 19.644 73.1203 20.576 73.1203 21.664L72.7123 19.096H73.2043C73.3963 17.704 73.9123 16.664 74.7523 15.976C75.5923 15.288 76.6123 14.944 77.8123 14.944C79.1643 14.944 80.1683 15.344 80.8243 16.144C81.4883 16.944 81.8203 18.072 81.8203 19.528V26.512H84.2683V28H77.8363ZM100.774 28.228C99.4541 28.228 98.3101 27.948 97.3421 27.388C96.3741 26.828 95.6261 26.056 95.0981 25.072C94.5701 24.08 94.3061 22.94 94.3061 21.652C94.3061 20.348 94.5701 19.196 95.0981 18.196C95.6341 17.196 96.3781 16.412 97.3301 15.844C98.2901 15.276 99.4061 14.992 100.678 14.992C101.958 14.992 103.066 15.272 104.002 15.832C104.938 16.392 105.658 17.168 106.162 18.16C106.666 19.152 106.918 20.296 106.918 21.592C106.918 21.744 106.914 21.864 106.906 21.952C106.906 22.04 106.898 22.116 106.882 22.18H105.178C105.186 22.084 105.19 21.98 105.19 21.868C105.198 21.748 105.202 21.612 105.202 21.46C105.202 20.508 105.018 19.664 104.65 18.928C104.29 18.184 103.774 17.6 103.102 17.176C102.43 16.752 101.622 16.54 100.678 16.54C99.7582 16.54 98.9502 16.76 98.2541 17.2C97.5581 17.632 97.0181 18.232 96.6341 19C96.2501 19.76 96.0581 20.644 96.0581 21.652C96.0581 22.628 96.2461 23.492 96.6221 24.244C97.0061 24.988 97.5501 25.572 98.2541 25.996C98.9581 26.42 99.7941 26.632 100.762 26.632C101.77 26.632 102.642 26.396 103.378 25.924C104.122 25.444 104.674 24.792 105.034 23.968L106.666 24.58C106.194 25.708 105.438 26.6 104.398 27.256C103.366 27.904 102.158 28.228 100.774 28.228ZM95.3981 22.18V20.848H106.366L106.87 22.18H95.3981ZM113.178 26.512H115.674V28H108.822V26.512H111.45V16.708H108.822V15.22H113.178V26.512ZM118.086 17.056C117.942 17.016 117.786 16.984 117.618 16.96C117.458 16.936 117.282 16.924 117.09 16.924C115.906 16.924 114.958 17.368 114.246 18.256C113.534 19.136 113.178 20.36 113.178 21.928L112.77 19.132H113.262C113.374 18.284 113.606 17.556 113.958 16.948C114.31 16.332 114.766 15.86 115.326 15.532C115.894 15.196 116.558 15.028 117.318 15.028C117.462 15.028 117.59 15.036 117.702 15.052C117.822 15.06 117.95 15.076 118.086 15.1V17.056Z" fill="black"/>
<path d="M1 6.35211L6 1V39L1 33.6479V6.35211Z" fill="white"/>
<path d="M6 1L1 6.35211V33.6479L6 39" stroke="black" stroke-linecap="round"/>
<path d="M129 33.6479L124 39L124 1L129 6.35211L129 33.6479Z" fill="white"/>
<path d="M124 39L129 33.6479L129 6.35211L124 1" stroke="black" stroke-linecap="round"/>
</svg>
