<svg width="116" height="40" viewBox="0 0 116 40" fill="none" xmlns="http://www.w3.org/2000/svg">
<path d="M6 1H110V39H6V1Z" fill="white"/>
<path d="M6 1.5H110V0.5H6V1.5ZM110 38.5H6V39.5H110V38.5Z" fill="black"/>
<path d="M25.8677 26.512H28.3757V28H21.5117V26.512H24.1397V9.04H25.8677V26.512ZM12.4517 28V26.512H14.9837V16.708H12.4517V15.22H14.9837V14.008C14.9837 12.384 15.4117 11.112 16.2677 10.192C17.1237 9.272 18.3357 8.812 19.9037 8.812C21.0717 8.812 21.9997 9.088 22.6877 9.64C23.3837 10.184 23.8437 11.024 24.0677 12.16H25.3157L24.1397 14.248C24.1397 12.92 23.7757 11.948 23.0477 11.332C22.3277 10.708 21.3957 10.396 20.2517 10.396C19.1717 10.396 18.3117 10.668 17.6717 11.212C17.0317 11.748 16.7117 12.604 16.7117 13.78V15.22H20.8397V16.708H16.7117V26.512H19.6037V28H12.4517ZM36.116 28.228C34.796 28.228 33.652 27.948 32.684 27.388C31.716 26.828 30.968 26.056 30.44 25.072C29.912 24.08 29.648 22.94 29.648 21.652C29.648 20.348 29.912 19.196 30.44 18.196C30.976 17.196 31.72 16.412 32.672 15.844C33.632 15.276 34.748 14.992 36.02 14.992C37.3 14.992 38.408 15.272 39.344 15.832C40.28 16.392 41 17.168 41.504 18.16C42.008 19.152 42.26 20.296 42.26 21.592C42.26 21.744 42.256 21.864 42.248 21.952C42.248 22.04 42.24 22.116 42.224 22.18H40.52C40.528 22.084 40.532 21.98 40.532 21.868C40.54 21.748 40.544 21.612 40.544 21.46C40.544 20.508 40.36 19.664 39.992 18.928C39.632 18.184 39.116 17.6 38.444 17.176C37.772 16.752 36.964 16.54 36.02 16.54C35.1 16.54 34.292 16.76 33.596 17.2C32.9 17.632 32.36 18.232 31.976 19C31.592 19.76 31.4 20.644 31.4 21.652C31.4 22.628 31.588 23.492 31.964 24.244C32.348 24.988 32.892 25.572 33.596 25.996C34.3 26.42 35.136 26.632 36.104 26.632C37.112 26.632 37.984 26.396 38.72 25.924C39.464 25.444 40.016 24.792 40.376 23.968L42.008 24.58C41.536 25.708 40.78 26.6 39.74 27.256C38.708 27.904 37.5 28.228 36.116 28.228ZM30.74 22.18V20.848H41.708L42.212 22.18H30.74ZM55.3194 16.708L50.4954 22.096L51.0714 20.692V22.336L50.4954 20.932L55.4154 26.512H56.8434V28H51.2274V26.512H53.3034L49.4874 21.988L50.7594 22.576H49.1514L50.4594 21.988L46.6434 26.512H48.7434V28H43.3074V26.512H44.7354L49.6314 21.016L49.0554 22.432V20.776L49.6314 22.18L44.8314 16.708H43.3074V15.22H48.9114V16.708H46.9314L50.6514 21.136L49.3794 20.536H50.9874L49.6794 21.136L53.4114 16.708H51.3954V15.22H56.8434V16.708H55.3194ZM62.6439 26.512H65.1039V28H58.3239V26.512H60.9159V16.708H58.3239V15.22H62.6439V26.512ZM60.5919 9.832H62.7999V12.124H60.5919V9.832ZM68.408 28.264V10.528H65.84V9.04H70.136V19.696L70.064 21.196V22.792L70.136 25.12L68.564 28.264H68.408ZM74.876 28.24C73.804 28.24 72.844 28.04 71.996 27.64C71.156 27.232 70.46 26.656 69.908 25.912C69.364 25.16 69 24.268 68.816 23.236L70.064 21.616C70.064 22.6 70.252 23.472 70.628 24.232C71.004 24.992 71.544 25.592 72.248 26.032C72.952 26.464 73.788 26.68 74.756 26.68C75.74 26.68 76.58 26.468 77.276 26.044C77.98 25.62 78.516 25.028 78.884 24.268C79.26 23.5 79.448 22.608 79.448 21.592C79.448 20.6 79.248 19.724 78.848 18.964C78.456 18.204 77.908 17.608 77.204 17.176C76.5 16.744 75.684 16.528 74.756 16.528C73.804 16.528 72.976 16.744 72.272 17.176C71.568 17.608 71.024 18.204 70.64 18.964C70.256 19.724 70.064 20.608 70.064 21.616L69.788 18.916H70.196C70.348 18.212 70.628 17.564 71.036 16.972C71.452 16.372 72 15.892 72.68 15.532C73.368 15.164 74.188 14.98 75.14 14.98C76.028 14.98 76.844 15.144 77.588 15.472C78.332 15.792 78.976 16.252 79.52 16.852C80.064 17.444 80.484 18.148 80.78 18.964C81.076 19.772 81.224 20.66 81.224 21.628C81.224 22.916 80.96 24.06 80.432 25.06C79.912 26.052 79.176 26.832 78.224 27.4C77.272 27.96 76.156 28.24 74.876 28.24ZM86.9514 26.512H89.5794V28H82.5954V26.512H85.2234V10.528H82.5954V9.04H86.9514V26.512ZM97.3488 28.228C96.0288 28.228 94.8848 27.948 93.9168 27.388C92.9488 26.828 92.2008 26.056 91.6728 25.072C91.1448 24.08 90.8808 22.94 90.8808 21.652C90.8808 20.348 91.1448 19.196 91.6728 18.196C92.2088 17.196 92.9528 16.412 93.9048 15.844C94.8648 15.276 95.9808 14.992 97.2528 14.992C98.5328 14.992 99.6408 15.272 100.577 15.832C101.513 16.392 102.233 17.168 102.737 18.16C103.241 19.152 103.493 20.296 103.493 21.592C103.493 21.744 103.489 21.864 103.481 21.952C103.481 22.04 103.473 22.116 103.457 22.18H101.753C101.761 22.084 101.765 21.98 101.765 21.868C101.773 21.748 101.777 21.612 101.777 21.46C101.777 20.508 101.593 19.664 101.225 18.928C100.865 18.184 100.349 17.6 99.6768 17.176C99.0048 16.752 98.1968 16.54 97.2528 16.54C96.3328 16.54 95.5248 16.76 94.8288 17.2C94.1328 17.632 93.5928 18.232 93.2088 19C92.8248 19.76 92.6328 20.644 92.6328 21.652C92.6328 22.628 92.8208 23.492 93.1968 24.244C93.5808 24.988 94.1248 25.572 94.8288 25.996C95.5328 26.42 96.3688 26.632 97.3368 26.632C98.3448 26.632 99.2168 26.396 99.9528 25.924C100.697 25.444 101.249 24.792 101.609 23.968L103.241 24.58C102.769 25.708 102.013 26.6 100.973 27.256C99.9408 27.904 98.7328 28.228 97.3488 28.228ZM91.9728 22.18V20.848H102.941L103.445 22.18H91.9728Z" fill="black"/>
<path d="M1 6.35211L6 1V39L1 33.6479V6.35211Z" fill="white"/>
<path d="M6 1L1 6.35211V33.6479L6 39" stroke="black" stroke-linecap="round"/>
<path d="M115 33.6479L110 39L110 1L115 6.35211L115 33.6479Z" fill="white"/>
<path d="M110 39L115 33.6479L115 6.35211L110 1" stroke="black" stroke-linecap="round"/>
</svg>
