<svg width="137" height="40" viewBox="0 0 137 40" fill="none" xmlns="http://www.w3.org/2000/svg">
<path d="M6 1H131V39H6V1Z" fill="white"/>
<path d="M6 1.5H131V0.5H6V1.5ZM131 38.5H6V39.5H131V38.5Z" fill="black"/>
<path d="M18.7704 28.228C17.9144 28.228 17.1904 28.1 16.5984 27.844C16.0144 27.588 15.5504 27.248 15.2064 26.824C14.8624 26.392 14.6384 25.912 14.5344 25.384H14.1024L14.4504 23.968C14.6024 24.808 15.0184 25.492 15.6984 26.02C16.3864 26.548 17.2784 26.812 18.3744 26.812C19.3104 26.812 20.0344 26.624 20.5464 26.248C21.0664 25.864 21.3264 25.308 21.3264 24.58C21.3264 23.916 21.0704 23.4 20.5584 23.032C20.0464 22.664 19.1504 22.384 17.8704 22.192C16.0384 21.904 14.7344 21.452 13.9584 20.836C13.1824 20.212 12.7944 19.392 12.7944 18.376C12.7944 17.352 13.1504 16.532 13.8624 15.916C14.5744 15.3 15.5664 14.992 16.8384 14.992C17.6784 14.992 18.3704 15.12 18.9144 15.376C19.4664 15.632 19.8904 15.976 20.1864 16.408C20.4824 16.832 20.6744 17.3 20.7624 17.812H21.1944L20.8464 19.168C20.7024 18.352 20.3104 17.688 19.6704 17.176C19.0304 16.656 18.1944 16.396 17.1624 16.396C16.3304 16.396 15.6784 16.572 15.2064 16.924C14.7424 17.276 14.5104 17.744 14.5104 18.328C14.5104 18.944 14.8024 19.428 15.3864 19.78C15.9704 20.124 16.8904 20.396 18.1464 20.596C19.9224 20.876 21.1824 21.336 21.9264 21.976C22.6704 22.616 23.0424 23.48 23.0424 24.568C23.0424 25.712 22.6744 26.608 21.9384 27.256C21.2104 27.904 20.1544 28.228 18.7704 28.228ZM12.7224 28V23.968H14.4504V28H12.7224ZM20.8464 19.168V15.22H22.5744V19.168H20.8464ZM28.4754 24.616C28.4754 25.288 28.6034 25.796 28.8594 26.14C29.1154 26.476 29.5074 26.644 30.0354 26.644C30.5554 26.644 30.9474 26.472 31.2114 26.128C31.4754 25.776 31.6074 25.272 31.6074 24.616V23.428H33.1674V24.604C33.1674 25.372 33.0514 26.028 32.8194 26.572C32.5954 27.108 32.2514 27.52 31.7874 27.808C31.3234 28.088 30.7274 28.228 29.9994 28.228C29.2554 28.228 28.6434 28.084 28.1634 27.796C27.6834 27.5 27.3274 27.084 27.0954 26.548C26.8634 26.012 26.7474 25.368 26.7474 24.616L26.7594 16.708H24.4794V15.22H26.7594V11.98H28.4874V15.22H32.9994L32.9874 16.708H28.4874L28.4754 24.616ZM45.3776 16.708H42.9056V15.22H47.1056V26.512H49.6016V28H45.3776V16.708ZM38.2376 15.22V23.368C38.2376 24.416 38.4696 25.244 38.9336 25.852C39.4056 26.452 40.1456 26.752 41.1536 26.752C41.9616 26.752 42.6816 26.548 43.3136 26.14C43.9536 25.724 44.4576 25.128 44.8256 24.352C45.1936 23.576 45.3776 22.644 45.3776 21.556L45.7976 24.112H45.2936C45.0776 25.488 44.5416 26.528 43.6856 27.232C42.8376 27.928 41.7936 28.276 40.5536 28.276C39.1776 28.276 38.1576 27.868 37.4936 27.052C36.8376 26.236 36.5096 25.104 36.5096 23.656V16.708H34.1936V15.22H38.2376ZM52.3468 28.264V10.528H49.7788V9.04H54.0748V19.696L54.0028 21.196V22.792L54.0748 25.12L52.5028 28.264H52.3468ZM58.8148 28.24C57.7428 28.24 56.7828 28.04 55.9348 27.64C55.0948 27.232 54.3988 26.656 53.8468 25.912C53.3028 25.16 52.9388 24.268 52.7548 23.236L54.0028 21.616C54.0028 22.6 54.1908 23.472 54.5668 24.232C54.9428 24.992 55.4828 25.592 56.1868 26.032C56.8908 26.464 57.7268 26.68 58.6948 26.68C59.6788 26.68 60.5188 26.468 61.2148 26.044C61.9188 25.62 62.4548 25.028 62.8228 24.268C63.1988 23.5 63.3868 22.608 63.3868 21.592C63.3868 20.6 63.1868 19.724 62.7868 18.964C62.3948 18.204 61.8468 17.608 61.1428 17.176C60.4388 16.744 59.6228 16.528 58.6948 16.528C57.7428 16.528 56.9148 16.744 56.2108 17.176C55.5068 17.608 54.9628 18.204 54.5788 18.964C54.1948 19.724 54.0028 20.608 54.0028 21.616L53.7268 18.916H54.1348C54.2868 18.212 54.5668 17.564 54.9748 16.972C55.3908 16.372 55.9388 15.892 56.6188 15.532C57.3068 15.164 58.1268 14.98 59.0788 14.98C59.9668 14.98 60.7828 15.144 61.5268 15.472C62.2708 15.792 62.9148 16.252 63.4588 16.852C64.0028 17.444 64.4228 18.148 64.7188 18.964C65.0148 19.772 65.1628 20.66 65.1628 21.628C65.1628 22.916 64.8988 24.06 64.3708 25.06C63.8508 26.052 63.1148 26.832 62.1628 27.4C61.2108 27.96 60.0948 28.24 58.8148 28.24ZM68.5543 28.264V10.528H65.9863V9.04H70.2823V19.696L70.2103 21.196V22.792L70.2823 25.12L68.7103 28.264H68.5543ZM75.0223 28.24C73.9503 28.24 72.9903 28.04 72.1423 27.64C71.3023 27.232 70.6063 26.656 70.0543 25.912C69.5103 25.16 69.1463 24.268 68.9623 23.236L70.2103 21.616C70.2103 22.6 70.3983 23.472 70.7743 24.232C71.1503 24.992 71.6903 25.592 72.3943 26.032C73.0983 26.464 73.9343 26.68 74.9023 26.68C75.8863 26.68 76.7263 26.468 77.4223 26.044C78.1263 25.62 78.6623 25.028 79.0303 24.268C79.4063 23.5 79.5943 22.608 79.5943 21.592C79.5943 20.6 79.3943 19.724 78.9943 18.964C78.6023 18.204 78.0543 17.608 77.3503 17.176C76.6463 16.744 75.8303 16.528 74.9023 16.528C73.9503 16.528 73.1223 16.744 72.4183 17.176C71.7143 17.608 71.1703 18.204 70.7863 18.964C70.4023 19.724 70.2103 20.608 70.2103 21.616L69.9343 18.916H70.3423C70.4943 18.212 70.7743 17.564 71.1823 16.972C71.5983 16.372 72.1463 15.892 72.8263 15.532C73.5143 15.164 74.3343 14.98 75.2863 14.98C76.1743 14.98 76.9903 15.144 77.7343 15.472C78.4783 15.792 79.1223 16.252 79.6663 16.852C80.2103 17.444 80.6303 18.148 80.9263 18.964C81.2223 19.772 81.3703 20.66 81.3703 21.628C81.3703 22.916 81.1063 24.06 80.5783 25.06C80.0583 26.052 79.3223 26.832 78.3703 27.4C77.4183 27.96 76.3023 28.24 75.0223 28.24ZM90.1858 28.228C88.8578 28.228 87.6938 27.948 86.6938 27.388C85.6938 26.82 84.9138 26.044 84.3538 25.06C83.7938 24.076 83.5138 22.94 83.5138 21.652C83.5138 20.356 83.7938 19.208 84.3538 18.208C84.9138 17.2 85.6938 16.412 86.6938 15.844C87.6938 15.276 88.8578 14.992 90.1858 14.992C91.5138 14.992 92.6778 15.276 93.6778 15.844C94.6778 16.412 95.4578 17.2 96.0178 18.208C96.5778 19.208 96.8578 20.356 96.8578 21.652C96.8578 22.94 96.5778 24.076 96.0178 25.06C95.4578 26.044 94.6778 26.82 93.6778 27.388C92.6778 27.948 91.5138 28.228 90.1858 28.228ZM90.1858 26.632C91.1458 26.632 91.9898 26.424 92.7178 26.008C93.4538 25.592 94.0258 25.012 94.4338 24.268C94.8498 23.516 95.0578 22.644 95.0578 21.652C95.0578 20.652 94.8498 19.772 94.4338 19.012C94.0258 18.252 93.4538 17.66 92.7178 17.236C91.9898 16.804 91.1458 16.588 90.1858 16.588C89.2258 16.588 88.3778 16.804 87.6418 17.236C86.9138 17.66 86.3418 18.252 85.9258 19.012C85.5178 19.772 85.3138 20.652 85.3138 21.652C85.3138 22.644 85.5178 23.516 85.9258 24.268C86.3418 25.012 86.9138 25.592 87.6418 26.008C88.3778 26.424 89.2258 26.632 90.1858 26.632ZM103.207 26.512H105.703V28H98.8507V26.512H101.479V16.708H98.8507V15.22H103.207V26.512ZM108.115 17.056C107.971 17.016 107.815 16.984 107.647 16.96C107.487 16.936 107.311 16.924 107.119 16.924C105.935 16.924 104.987 17.368 104.275 18.256C103.563 19.136 103.207 20.36 103.207 21.928L102.799 19.132H103.291C103.403 18.284 103.635 17.556 103.987 16.948C104.339 16.332 104.795 15.86 105.355 15.532C105.923 15.196 106.587 15.028 107.347 15.028C107.491 15.028 107.619 15.036 107.731 15.052C107.851 15.06 107.979 15.076 108.115 15.1V17.056ZM113.649 26.512H115.929V28H109.293V26.512H111.921V16.708H109.293V15.22H113.649V26.512ZM121.017 26.512V19.828C121.017 18.78 120.781 17.956 120.309 17.356C119.837 16.756 119.093 16.456 118.077 16.456C117.253 16.456 116.505 16.66 115.833 17.068C115.161 17.476 114.629 18.068 114.237 18.844C113.845 19.62 113.649 20.56 113.649 21.664L113.253 19.108H113.733C113.885 18.236 114.177 17.496 114.609 16.888C115.041 16.272 115.593 15.804 116.265 15.484C116.945 15.156 117.725 14.992 118.605 14.992C119.997 14.992 121.033 15.396 121.713 16.204C122.401 17.004 122.745 18.136 122.745 19.6V26.512H125.205V28H118.773V26.512H121.017Z" fill="black"/>
<path d="M1 6.35211L6 1V39L1 33.6479V6.35211Z" fill="white"/>
<path d="M6 1L1 6.35211V33.6479L6 39" stroke="black" stroke-linecap="round"/>
<path d="M136 33.6479L131 39L131 1L136 6.35211L136 33.6479Z" fill="white"/>
<path d="M131 39L136 33.6479L136 6.35211L131 1" stroke="black" stroke-linecap="round"/>
</svg>
