<svg width="260" height="40" viewBox="0 0 260 40" fill="none" xmlns="http://www.w3.org/2000/svg">
<path d="M6 1H254V39H6V1Z" fill="white"/>
<path d="M6 1.5H254V0.5H6V1.5ZM254 38.5H6V39.5H254V38.5Z" fill="black"/>
<path d="M18.6387 28.228C17.7827 28.228 17.0587 28.1 16.4667 27.844C15.8827 27.588 15.4187 27.248 15.0747 26.824C14.7307 26.392 14.5067 25.912 14.4027 25.384H13.9707L14.3187 23.968C14.4707 24.808 14.8867 25.492 15.5667 26.02C16.2547 26.548 17.1467 26.812 18.2427 26.812C19.1787 26.812 19.9027 26.624 20.4147 26.248C20.9347 25.864 21.1947 25.308 21.1947 24.58C21.1947 23.916 20.9387 23.4 20.4267 23.032C19.9147 22.664 19.0187 22.384 17.7387 22.192C15.9067 21.904 14.6027 21.452 13.8267 20.836C13.0507 20.212 12.6627 19.392 12.6627 18.376C12.6627 17.352 13.0187 16.532 13.7307 15.916C14.4427 15.3 15.4347 14.992 16.7067 14.992C17.5467 14.992 18.2387 15.12 18.7827 15.376C19.3347 15.632 19.7587 15.976 20.0547 16.408C20.3507 16.832 20.5427 17.3 20.6307 17.812H21.0627L20.7147 19.168C20.5707 18.352 20.1787 17.688 19.5387 17.176C18.8987 16.656 18.0627 16.396 17.0307 16.396C16.1987 16.396 15.5467 16.572 15.0747 16.924C14.6107 17.276 14.3787 17.744 14.3787 18.328C14.3787 18.944 14.6707 19.428 15.2547 19.78C15.8387 20.124 16.7587 20.396 18.0147 20.596C19.7907 20.876 21.0507 21.336 21.7947 21.976C22.5387 22.616 22.9107 23.48 22.9107 24.568C22.9107 25.712 22.5427 26.608 21.8067 27.256C21.0787 27.904 20.0227 28.228 18.6387 28.228ZM12.5907 28V23.968H14.3187V28H12.5907ZM20.7147 19.168V15.22H22.4427V19.168H20.7147ZM31.7397 28.228C30.4117 28.228 29.2477 27.948 28.2477 27.388C27.2477 26.82 26.4677 26.044 25.9077 25.06C25.3477 24.076 25.0677 22.94 25.0677 21.652C25.0677 20.356 25.3477 19.208 25.9077 18.208C26.4677 17.2 27.2477 16.412 28.2477 15.844C29.2477 15.276 30.4117 14.992 31.7397 14.992C33.0677 14.992 34.2317 15.276 35.2317 15.844C36.2317 16.412 37.0117 17.2 37.5717 18.208C38.1317 19.208 38.4117 20.356 38.4117 21.652C38.4117 22.94 38.1317 24.076 37.5717 25.06C37.0117 26.044 36.2317 26.82 35.2317 27.388C34.2317 27.948 33.0677 28.228 31.7397 28.228ZM31.7397 26.632C32.6997 26.632 33.5437 26.424 34.2717 26.008C35.0077 25.592 35.5797 25.012 35.9877 24.268C36.4037 23.516 36.6117 22.644 36.6117 21.652C36.6117 20.652 36.4037 19.772 35.9877 19.012C35.5797 18.252 35.0077 17.66 34.2717 17.236C33.5437 16.804 32.6997 16.588 31.7397 16.588C30.7797 16.588 29.9317 16.804 29.1957 17.236C28.4677 17.66 27.8957 18.252 27.4797 19.012C27.0717 19.772 26.8677 20.652 26.8677 21.652C26.8677 22.644 27.0717 23.516 27.4797 24.268C27.8957 25.012 28.4677 25.592 29.1957 26.008C29.9317 26.424 30.7797 26.632 31.7397 26.632ZM44.1325 26.512H46.7605V28H39.7765V26.512H42.4045V10.528H39.7765V9.04H44.1325V26.512ZM52.6037 26.512H55.0637V28H48.2837V26.512H50.8757V16.708H48.2837V15.22H52.6037V26.512ZM50.5517 9.832H52.7597V12.124H50.5517V9.832ZM67.6694 28V23.224L67.7414 22.288V20.764L67.6694 19.084V10.528H64.2254V9.04H69.3974V26.512H71.8454V28H67.6694ZM62.8574 14.98C63.9134 14.98 64.8574 15.212 65.6894 15.676C66.5294 16.14 67.2214 16.804 67.7654 17.668C68.3094 18.524 68.6694 19.552 68.8454 20.752L67.7414 21.58C67.7414 20.596 67.5494 19.724 67.1654 18.964C66.7894 18.204 66.2494 17.612 65.5454 17.188C64.8414 16.756 64.0054 16.54 63.0374 16.54C62.0854 16.54 61.2574 16.756 60.5534 17.188C59.8494 17.62 59.3054 18.216 58.9214 18.976C58.5454 19.736 58.3574 20.616 58.3574 21.616C58.3574 22.608 58.5534 23.484 58.9454 24.244C59.3374 25.004 59.8854 25.604 60.5894 26.044C61.3014 26.476 62.1174 26.692 63.0374 26.692C63.9974 26.692 64.8254 26.476 65.5214 26.044C66.2254 25.604 66.7694 25 67.1534 24.232C67.5454 23.464 67.7414 22.58 67.7414 21.58L68.0054 24.304H67.5974C67.4534 25.008 67.1734 25.66 66.7574 26.26C66.3414 26.852 65.7934 27.332 65.1134 27.7C64.4334 28.06 63.6174 28.24 62.6654 28.24C61.7774 28.24 60.9614 28.08 60.2174 27.76C59.4734 27.432 58.8294 26.972 58.2854 26.38C57.7414 25.78 57.3174 25.076 57.0134 24.268C56.7174 23.46 56.5694 22.576 56.5694 21.616C56.5694 20.32 56.8294 19.172 57.3494 18.172C57.8694 17.172 58.5974 16.392 59.5334 15.832C60.4774 15.264 61.5854 14.98 62.8574 14.98ZM86.8891 28.228C85.5611 28.228 84.4051 27.948 83.4211 27.388C82.4451 26.828 81.6851 26.056 81.1411 25.072C80.6051 24.08 80.3371 22.94 80.3371 21.652C80.3371 20.676 80.4851 19.784 80.7811 18.976C81.0771 18.16 81.5011 17.456 82.0531 16.864C82.6051 16.264 83.2611 15.804 84.0211 15.484C84.7811 15.156 85.6291 14.992 86.5651 14.992C87.4691 14.992 88.2211 15.14 88.8211 15.436C89.4291 15.724 89.9011 16.124 90.2371 16.636C90.5731 17.14 90.7891 17.72 90.8851 18.376H91.3051L90.9571 20.188C90.8531 19.468 90.6171 18.836 90.2491 18.292C89.8811 17.74 89.4011 17.312 88.8091 17.008C88.2171 16.696 87.5331 16.54 86.7571 16.54C85.8291 16.54 85.0131 16.76 84.3091 17.2C83.6131 17.632 83.0691 18.232 82.6771 19C82.2931 19.76 82.1011 20.644 82.1011 21.652C82.1011 22.628 82.2971 23.492 82.6891 24.244C83.0891 24.988 83.6451 25.572 84.3571 25.996C85.0771 26.42 85.9251 26.632 86.9011 26.632C87.9091 26.632 88.7771 26.412 89.5051 25.972C90.2331 25.524 90.7651 24.924 91.1011 24.172L92.6971 24.88C92.2411 25.912 91.5091 26.728 90.5011 27.328C89.5011 27.928 88.2971 28.228 86.8891 28.228ZM90.9571 20.188V15.22H92.6851V20.188H90.9571ZM101.469 28.228C100.141 28.228 98.9771 27.948 97.9771 27.388C96.9771 26.82 96.1971 26.044 95.6371 25.06C95.0771 24.076 94.7971 22.94 94.7971 21.652C94.7971 20.356 95.0771 19.208 95.6371 18.208C96.1971 17.2 96.9771 16.412 97.9771 15.844C98.9771 15.276 100.141 14.992 101.469 14.992C102.797 14.992 103.961 15.276 104.961 15.844C105.961 16.412 106.741 17.2 107.301 18.208C107.861 19.208 108.141 20.356 108.141 21.652C108.141 22.94 107.861 24.076 107.301 25.06C106.741 26.044 105.961 26.82 104.961 27.388C103.961 27.948 102.797 28.228 101.469 28.228ZM101.469 26.632C102.429 26.632 103.273 26.424 104.001 26.008C104.737 25.592 105.309 25.012 105.717 24.268C106.133 23.516 106.341 22.644 106.341 21.652C106.341 20.652 106.133 19.772 105.717 19.012C105.309 18.252 104.737 17.66 104.001 17.236C103.273 16.804 102.429 16.588 101.469 16.588C100.509 16.588 99.6611 16.804 98.9251 17.236C98.1971 17.66 97.6251 18.252 97.2091 19.012C96.8011 19.772 96.5971 20.652 96.5971 21.652C96.5971 22.644 96.8011 23.516 97.2091 24.268C97.6251 25.012 98.1971 25.592 98.9251 26.008C99.6611 26.424 100.509 26.632 101.469 26.632ZM113.862 26.512H116.49V28H109.506V26.512H112.134V10.528H109.506V9.04H113.862V26.512ZM124.415 28.228C123.087 28.228 121.923 27.948 120.923 27.388C119.923 26.82 119.143 26.044 118.583 25.06C118.023 24.076 117.743 22.94 117.743 21.652C117.743 20.356 118.023 19.208 118.583 18.208C119.143 17.2 119.923 16.412 120.923 15.844C121.923 15.276 123.087 14.992 124.415 14.992C125.743 14.992 126.907 15.276 127.907 15.844C128.907 16.412 129.687 17.2 130.247 18.208C130.807 19.208 131.087 20.356 131.087 21.652C131.087 22.94 130.807 24.076 130.247 25.06C129.687 26.044 128.907 26.82 127.907 27.388C126.907 27.948 125.743 28.228 124.415 28.228ZM124.415 26.632C125.375 26.632 126.219 26.424 126.947 26.008C127.683 25.592 128.255 25.012 128.663 24.268C129.079 23.516 129.287 22.644 129.287 21.652C129.287 20.652 129.079 19.772 128.663 19.012C128.255 18.252 127.683 17.66 126.947 17.236C126.219 16.804 125.375 16.588 124.415 16.588C123.455 16.588 122.607 16.804 121.871 17.236C121.143 17.66 120.571 18.252 120.155 19.012C119.747 19.772 119.543 20.652 119.543 21.652C119.543 22.644 119.747 23.516 120.155 24.268C120.571 25.012 121.143 25.592 121.871 26.008C122.607 26.424 123.455 26.632 124.415 26.632ZM137.436 26.512H139.932V28H133.08V26.512H135.708V16.708H133.08V15.22H137.436V26.512ZM142.344 17.056C142.2 17.016 142.044 16.984 141.876 16.96C141.716 16.936 141.54 16.924 141.348 16.924C140.164 16.924 139.216 17.368 138.504 18.256C137.792 19.136 137.436 20.36 137.436 21.928L137.028 19.132H137.52C137.632 18.284 137.864 17.556 138.216 16.948C138.568 16.332 139.024 15.86 139.584 15.532C140.152 15.196 140.816 15.028 141.576 15.028C141.72 15.028 141.848 15.036 141.96 15.052C142.08 15.06 142.208 15.076 142.344 15.1V17.056ZM151.254 28.264V10.528H148.686V9.04H152.982V19.696L152.91 21.196V22.792L152.982 25.12L151.41 28.264H151.254ZM157.722 28.24C156.65 28.24 155.69 28.04 154.842 27.64C154.002 27.232 153.306 26.656 152.754 25.912C152.21 25.16 151.846 24.268 151.662 23.236L152.91 21.616C152.91 22.6 153.098 23.472 153.474 24.232C153.85 24.992 154.39 25.592 155.094 26.032C155.798 26.464 156.634 26.68 157.602 26.68C158.586 26.68 159.426 26.468 160.122 26.044C160.826 25.62 161.362 25.028 161.73 24.268C162.106 23.5 162.294 22.608 162.294 21.592C162.294 20.6 162.094 19.724 161.694 18.964C161.302 18.204 160.754 17.608 160.05 17.176C159.346 16.744 158.53 16.528 157.602 16.528C156.65 16.528 155.822 16.744 155.118 17.176C154.414 17.608 153.87 18.204 153.486 18.964C153.102 19.724 152.91 20.608 152.91 21.616L152.634 18.916H153.042C153.194 18.212 153.474 17.564 153.882 16.972C154.298 16.372 154.846 15.892 155.526 15.532C156.214 15.164 157.034 14.98 157.986 14.98C158.874 14.98 159.69 15.144 160.434 15.472C161.178 15.792 161.822 16.252 162.366 16.852C162.91 17.444 163.33 18.148 163.626 18.964C163.922 19.772 164.07 20.66 164.07 21.628C164.07 22.916 163.806 24.06 163.278 25.06C162.758 26.052 162.022 26.832 161.07 27.4C160.118 27.96 159.002 28.24 157.722 28.24ZM176.45 28C176.122 28 175.87 27.896 175.694 27.688C175.526 27.48 175.442 27.188 175.442 26.812V22.972L175.598 22.576L175.514 21.124L175.442 20.368V19.396C175.442 18.74 175.306 18.204 175.034 17.788C174.77 17.372 174.386 17.064 173.882 16.864C173.378 16.664 172.77 16.564 172.058 16.564C170.994 16.564 170.17 16.776 169.586 17.2C169.01 17.616 168.626 18.244 168.434 19.084L166.778 18.736C166.938 17.896 167.238 17.2 167.678 16.648C168.118 16.088 168.702 15.672 169.43 15.4C170.166 15.12 171.062 14.98 172.118 14.98C173.222 14.98 174.146 15.136 174.89 15.448C175.642 15.752 176.21 16.22 176.594 16.852C176.978 17.484 177.17 18.3 177.17 19.3V26.512H179.054V28H176.45ZM170.426 28.168C169.098 28.168 168.09 27.876 167.402 27.292C166.714 26.7 166.37 25.832 166.37 24.688C166.37 23.632 166.674 22.828 167.282 22.276C167.89 21.716 168.866 21.296 170.21 21.016L175.958 19.792V21.028L170.498 22.264C169.714 22.448 169.126 22.72 168.734 23.08C168.35 23.432 168.158 23.932 168.158 24.58C168.158 25.284 168.374 25.812 168.806 26.164C169.238 26.508 169.87 26.68 170.702 26.68C171.622 26.68 172.446 26.468 173.174 26.044C173.902 25.62 174.474 24.996 174.89 24.172C175.306 23.348 175.514 22.332 175.514 21.124L175.97 23.956H175.358C175.158 25.292 174.638 26.328 173.798 27.064C172.966 27.8 171.842 28.168 170.426 28.168ZM184.599 26.512H187.227V28H180.243V26.512H182.871V10.528H180.243V9.04H184.599V26.512ZM192.65 26.512H195.278V28H188.294V26.512H190.922V10.528H188.294V9.04H192.65V26.512ZM210.211 28.228C208.883 28.228 207.727 27.948 206.743 27.388C205.767 26.828 205.007 26.056 204.463 25.072C203.927 24.08 203.659 22.94 203.659 21.652C203.659 20.676 203.807 19.784 204.103 18.976C204.399 18.16 204.823 17.456 205.375 16.864C205.927 16.264 206.583 15.804 207.343 15.484C208.103 15.156 208.951 14.992 209.887 14.992C210.791 14.992 211.543 15.14 212.143 15.436C212.751 15.724 213.223 16.124 213.559 16.636C213.895 17.14 214.111 17.72 214.207 18.376H214.627L214.279 20.188C214.175 19.468 213.939 18.836 213.571 18.292C213.203 17.74 212.723 17.312 212.131 17.008C211.539 16.696 210.855 16.54 210.079 16.54C209.151 16.54 208.335 16.76 207.631 17.2C206.935 17.632 206.391 18.232 205.999 19C205.615 19.76 205.423 20.644 205.423 21.652C205.423 22.628 205.619 23.492 206.011 24.244C206.411 24.988 206.967 25.572 207.679 25.996C208.399 26.42 209.247 26.632 210.223 26.632C211.231 26.632 212.099 26.412 212.827 25.972C213.555 25.524 214.087 24.924 214.423 24.172L216.019 24.88C215.563 25.912 214.831 26.728 213.823 27.328C212.823 27.928 211.619 28.228 210.211 28.228ZM214.279 20.188V15.22H216.007V20.188H214.279ZM228.355 28C228.027 28 227.775 27.896 227.599 27.688C227.431 27.48 227.347 27.188 227.347 26.812V22.972L227.503 22.576L227.419 21.124L227.347 20.368V19.396C227.347 18.74 227.211 18.204 226.939 17.788C226.675 17.372 226.291 17.064 225.787 16.864C225.283 16.664 224.675 16.564 223.963 16.564C222.899 16.564 222.075 16.776 221.491 17.2C220.915 17.616 220.531 18.244 220.339 19.084L218.683 18.736C218.843 17.896 219.143 17.2 219.583 16.648C220.023 16.088 220.607 15.672 221.335 15.4C222.071 15.12 222.967 14.98 224.023 14.98C225.127 14.98 226.051 15.136 226.795 15.448C227.547 15.752 228.115 16.22 228.499 16.852C228.883 17.484 229.075 18.3 229.075 19.3V26.512H230.959V28H228.355ZM222.331 28.168C221.003 28.168 219.995 27.876 219.307 27.292C218.619 26.7 218.275 25.832 218.275 24.688C218.275 23.632 218.579 22.828 219.187 22.276C219.795 21.716 220.771 21.296 222.115 21.016L227.863 19.792V21.028L222.403 22.264C221.619 22.448 221.031 22.72 220.639 23.08C220.255 23.432 220.063 23.932 220.063 24.58C220.063 25.284 220.279 25.812 220.711 26.164C221.143 26.508 221.775 26.68 222.607 26.68C223.527 26.68 224.351 26.468 225.079 26.044C225.807 25.62 226.379 24.996 226.795 24.172C227.211 23.348 227.419 22.332 227.419 21.124L227.875 23.956H227.263C227.063 25.292 226.543 26.328 225.703 27.064C224.871 27.8 223.747 28.168 222.331 28.168ZM232.184 33.04V31.552H234.74V16.708H232.184V15.22H236.468V19.792L236.42 21.16V21.916L236.468 22.996V31.552H238.976V33.04H232.184ZM241.292 28.24C240.236 28.24 239.288 28.008 238.448 27.544C237.616 27.08 236.928 26.42 236.384 25.564C235.84 24.7 235.48 23.668 235.304 22.468L236.42 21.64C236.42 22.624 236.608 23.496 236.984 24.256C237.36 25.008 237.9 25.6 238.604 26.032C239.308 26.464 240.144 26.68 241.112 26.68C242.064 26.68 242.892 26.464 243.596 26.032C244.3 25.6 244.84 25.004 245.216 24.244C245.6 23.476 245.792 22.6 245.792 21.616C245.792 20.616 245.596 19.736 245.204 18.976C244.812 18.216 244.264 17.62 243.56 17.188C242.856 16.748 242.04 16.528 241.112 16.528C240.16 16.528 239.332 16.748 238.628 17.188C237.924 17.62 237.38 18.22 236.996 18.988C236.612 19.756 236.42 20.64 236.42 21.64L236.144 18.916H236.552C236.696 18.212 236.976 17.564 237.392 16.972C237.808 16.372 238.356 15.892 239.036 15.532C239.724 15.164 240.54 14.98 241.484 14.98C242.38 14.98 243.2 15.144 243.944 15.472C244.688 15.792 245.328 16.252 245.864 16.852C246.408 17.444 246.828 18.144 247.124 18.952C247.428 19.76 247.58 20.648 247.58 21.616C247.58 22.904 247.32 24.048 246.8 25.048C246.28 26.048 245.548 26.832 244.604 27.4C243.668 27.96 242.564 28.24 241.292 28.24Z" fill="black"/>
<path d="M1 6.35211L6 1V39L1 33.6479V6.35211Z" fill="white"/>
<path d="M6 1L1 6.35211V33.6479L6 39" stroke="black" stroke-linecap="round"/>
<path d="M259 33.6479L254 39L254 1L259 6.35211L259 33.6479Z" fill="white"/>
<path d="M254 39L259 33.6479L259 6.35211L254 1" stroke="black" stroke-linecap="round"/>
</svg>
