<svg width="94" height="40" viewBox="0 0 94 40" fill="none" xmlns="http://www.w3.org/2000/svg">
<path d="M6 1H88V39H6V1Z" fill="white"/>
<path d="M6 1.5H88V0.5H6V1.5ZM88 38.5H6V39.5H88V38.5Z" fill="black"/>
<path d="M12.0045 33.04V31.552H14.5605V16.708H12.0045V15.22H16.2885V19.792L16.2405 21.16V21.916L16.2885 22.996V31.552H18.7965V33.04H12.0045ZM21.1125 28.24C20.0565 28.24 19.1085 28.008 18.2685 27.544C17.4365 27.08 16.7485 26.42 16.2045 25.564C15.6605 24.7 15.3005 23.668 15.1245 22.468L16.2405 21.64C16.2405 22.624 16.4285 23.496 16.8045 24.256C17.1805 25.008 17.7205 25.6 18.4245 26.032C19.1285 26.464 19.9645 26.68 20.9325 26.68C21.8845 26.68 22.7125 26.464 23.4165 26.032C24.1205 25.6 24.6605 25.004 25.0365 24.244C25.4205 23.476 25.6125 22.6 25.6125 21.616C25.6125 20.616 25.4165 19.736 25.0245 18.976C24.6325 18.216 24.0845 17.62 23.3805 17.188C22.6765 16.748 21.8605 16.528 20.9325 16.528C19.9805 16.528 19.1525 16.748 18.4485 17.188C17.7445 17.62 17.2005 18.22 16.8165 18.988C16.4325 19.756 16.2405 20.64 16.2405 21.64L15.9645 18.916H16.3725C16.5165 18.212 16.7965 17.564 17.2125 16.972C17.6285 16.372 18.1765 15.892 18.8565 15.532C19.5445 15.164 20.3605 14.98 21.3045 14.98C22.2005 14.98 23.0205 15.144 23.7645 15.472C24.5085 15.792 25.1485 16.252 25.6845 16.852C26.2285 17.444 26.6485 18.144 26.9445 18.952C27.2485 19.76 27.4005 20.648 27.4005 21.616C27.4005 22.904 27.1405 24.048 26.6205 25.048C26.1005 26.048 25.3685 26.832 24.4245 27.4C23.4885 27.96 22.3845 28.24 21.1125 28.24ZM33.8661 26.512H36.3261V28H29.5461V26.512H32.1381V16.708H29.5461V15.22H33.8661V26.512ZM31.8141 9.832H34.0221V12.124H31.8141V9.832ZM44.4317 28.228C43.1037 28.228 41.9477 27.948 40.9637 27.388C39.9877 26.828 39.2277 26.056 38.6837 25.072C38.1477 24.08 37.8797 22.94 37.8797 21.652C37.8797 20.676 38.0277 19.784 38.3237 18.976C38.6197 18.16 39.0437 17.456 39.5957 16.864C40.1477 16.264 40.8037 15.804 41.5637 15.484C42.3237 15.156 43.1717 14.992 44.1077 14.992C45.0117 14.992 45.7637 15.14 46.3637 15.436C46.9717 15.724 47.4437 16.124 47.7797 16.636C48.1157 17.14 48.3317 17.72 48.4277 18.376H48.8477L48.4997 20.188C48.3957 19.468 48.1597 18.836 47.7917 18.292C47.4237 17.74 46.9437 17.312 46.3517 17.008C45.7597 16.696 45.0757 16.54 44.2997 16.54C43.3717 16.54 42.5557 16.76 41.8517 17.2C41.1557 17.632 40.6117 18.232 40.2197 19C39.8357 19.76 39.6437 20.644 39.6437 21.652C39.6437 22.628 39.8397 23.492 40.2317 24.244C40.6317 24.988 41.1877 25.572 41.8997 25.996C42.6197 26.42 43.4677 26.632 44.4437 26.632C45.4517 26.632 46.3197 26.412 47.0477 25.972C47.7757 25.524 48.3077 24.924 48.6437 24.172L50.2397 24.88C49.7837 25.912 49.0517 26.728 48.0437 27.328C47.0437 27.928 45.8397 28.228 44.4317 28.228ZM48.4997 20.188V15.22H50.2277V20.188H48.4997ZM56.1917 26.512H58.4597V28H51.8957V26.512H54.4637V10.528H51.8957V9.04H56.1917V26.512ZM60.6557 19.9L65.7317 26.512H67.3997V28H60.8237V26.512H63.5957L59.4317 20.944L60.6557 19.9ZM55.6757 24.556L55.3157 23.176L63.1517 16.708H59.2517V15.22H67.1957V16.708H65.3957L55.6757 24.556ZM76.5417 15.22H82.4937V16.708H80.8977L75.6177 29.704C75.1857 30.776 74.5177 31.6 73.6137 32.176C72.7177 32.752 71.6017 33.04 70.2657 33.04H69.0057V31.516H70.2657C71.1617 31.516 71.9417 31.328 72.6057 30.952C73.2777 30.584 73.7657 30.04 74.0697 29.32L74.9817 27.076L74.6817 28.564L69.7977 16.708H68.0337V15.22H74.1057V16.708H71.6817L75.9897 27.472L74.4177 26.08H76.0737L75.1737 26.896L79.1697 16.708H76.5417V15.22Z" fill="black"/>
<path d="M1 6.35211L6 1V39L1 33.6479V6.35211Z" fill="white"/>
<path d="M6 1L1 6.35211V33.6479L6 39" stroke="black" stroke-linecap="round"/>
<path d="M93 33.6479L88 39L88 1L93 6.35211L93 33.6479Z" fill="white"/>
<path d="M88 39L93 33.6479L93 6.35211L88 1" stroke="black" stroke-linecap="round"/>
</svg>
