<svg width="195" height="40" viewBox="0 0 195 40" fill="none" xmlns="http://www.w3.org/2000/svg">
<path d="M6 1H189V39H6V1Z" fill="white"/>
<path d="M6 1.5H189V0.5H6V1.5ZM189 38.5H6V39.5H189V38.5Z" fill="black"/>
<path d="M16.6383 26.512H19.1343V28H12.2823V26.512H14.9103V16.708H12.2823V15.22H16.6383V26.512ZM21.5463 17.056C21.4023 17.016 21.2463 16.984 21.0783 16.96C20.9183 16.936 20.7423 16.924 20.5503 16.924C19.3663 16.924 18.4183 17.368 17.7063 18.256C16.9943 19.136 16.6383 20.36 16.6383 21.928L16.2303 19.132H16.7223C16.8343 18.284 17.0663 17.556 17.4183 16.948C17.7703 16.332 18.2263 15.86 18.7863 15.532C19.3543 15.196 20.0183 15.028 20.7783 15.028C20.9223 15.028 21.0503 15.036 21.1623 15.052C21.2823 15.06 21.4103 15.076 21.5463 15.1V17.056ZM29.2589 28.228C27.9309 28.228 26.7669 27.948 25.7669 27.388C24.7669 26.82 23.9869 26.044 23.4269 25.06C22.8669 24.076 22.5869 22.94 22.5869 21.652C22.5869 20.356 22.8669 19.208 23.4269 18.208C23.9869 17.2 24.7669 16.412 25.7669 15.844C26.7669 15.276 27.9309 14.992 29.2589 14.992C30.5869 14.992 31.7509 15.276 32.7509 15.844C33.7509 16.412 34.5309 17.2 35.0909 18.208C35.6509 19.208 35.9309 20.356 35.9309 21.652C35.9309 22.94 35.6509 24.076 35.0909 25.06C34.5309 26.044 33.7509 26.82 32.7509 27.388C31.7509 27.948 30.5869 28.228 29.2589 28.228ZM29.2589 26.632C30.2189 26.632 31.0629 26.424 31.7909 26.008C32.5269 25.592 33.0989 25.012 33.5069 24.268C33.9229 23.516 34.1309 22.644 34.1309 21.652C34.1309 20.652 33.9229 19.772 33.5069 19.012C33.0989 18.252 32.5269 17.66 31.7909 17.236C31.0629 16.804 30.2189 16.588 29.2589 16.588C28.2989 16.588 27.4509 16.804 26.7149 17.236C25.9869 17.66 25.4149 18.252 24.9989 19.012C24.5909 19.772 24.3869 20.652 24.3869 21.652C24.3869 22.644 24.5909 23.516 24.9989 24.268C25.4149 25.012 25.9869 25.592 26.7149 26.008C27.4509 26.424 28.2989 26.632 29.2589 26.632ZM48.4838 16.708H46.0118V15.22H50.2118V26.512H52.7078V28H48.4838V16.708ZM41.3438 15.22V23.368C41.3438 24.416 41.5758 25.244 42.0398 25.852C42.5118 26.452 43.2518 26.752 44.2598 26.752C45.0678 26.752 45.7878 26.548 46.4198 26.14C47.0598 25.724 47.5638 25.128 47.9318 24.352C48.2998 23.576 48.4838 22.644 48.4838 21.556L48.9038 24.112H48.3998C48.1838 25.488 47.6478 26.528 46.7918 27.232C45.9438 27.928 44.8998 28.276 43.6598 28.276C42.2838 28.276 41.2638 27.868 40.5998 27.052C39.9438 26.236 39.6158 25.104 39.6158 23.656V16.708H37.2998V15.22H41.3438ZM58.417 26.512H60.697V28H54.061V26.512H56.689V16.708H54.061V15.22H58.417V26.512ZM65.785 26.512V19.828C65.785 18.78 65.549 17.956 65.077 17.356C64.605 16.756 63.861 16.456 62.845 16.456C62.021 16.456 61.273 16.66 60.601 17.068C59.929 17.476 59.397 18.068 59.005 18.844C58.613 19.62 58.417 20.56 58.417 21.664L58.021 19.108H58.501C58.653 18.236 58.945 17.496 59.377 16.888C59.809 16.272 60.361 15.804 61.033 15.484C61.713 15.156 62.493 14.992 63.373 14.992C64.765 14.992 65.801 15.396 66.481 16.204C67.169 17.004 67.513 18.136 67.513 19.6V26.512H69.973V28H63.541V26.512H65.785ZM82.3917 28V23.224L82.4637 22.288V20.764L82.3917 19.084V10.528H78.9477V9.04H84.1197V26.512H86.5677V28H82.3917ZM77.5797 14.98C78.6357 14.98 79.5797 15.212 80.4117 15.676C81.2517 16.14 81.9437 16.804 82.4877 17.668C83.0317 18.524 83.3917 19.552 83.5677 20.752L82.4637 21.58C82.4637 20.596 82.2717 19.724 81.8877 18.964C81.5117 18.204 80.9717 17.612 80.2677 17.188C79.5637 16.756 78.7277 16.54 77.7597 16.54C76.8077 16.54 75.9797 16.756 75.2757 17.188C74.5717 17.62 74.0277 18.216 73.6437 18.976C73.2677 19.736 73.0797 20.616 73.0797 21.616C73.0797 22.608 73.2757 23.484 73.6677 24.244C74.0597 25.004 74.6077 25.604 75.3117 26.044C76.0237 26.476 76.8397 26.692 77.7597 26.692C78.7197 26.692 79.5477 26.476 80.2437 26.044C80.9477 25.604 81.4917 25 81.8757 24.232C82.2677 23.464 82.4637 22.58 82.4637 21.58L82.7277 24.304H82.3197C82.1757 25.008 81.8957 25.66 81.4797 26.26C81.0637 26.852 80.5157 27.332 79.8357 27.7C79.1557 28.06 78.3397 28.24 77.3877 28.24C76.4997 28.24 75.6837 28.08 74.9397 27.76C74.1957 27.432 73.5517 26.972 73.0077 26.38C72.4637 25.78 72.0397 25.076 71.7357 24.268C71.4397 23.46 71.2917 22.576 71.2917 21.616C71.2917 20.32 71.5517 19.172 72.0717 18.172C72.5917 17.172 73.3197 16.392 74.2557 15.832C75.1997 15.264 76.3077 14.98 77.5797 14.98ZM101.083 33.304C99.9634 33.304 98.9474 33.196 98.0354 32.98C97.1314 32.772 96.4114 32.44 95.8754 31.984C95.3394 31.528 95.0714 30.924 95.0714 30.172C95.0714 29.42 95.3394 28.848 95.8754 28.456C96.4194 28.072 97.1194 27.82 97.9754 27.7V27.496L100.111 27.7C99.2234 27.7 98.5274 27.804 98.0234 28.012C97.5194 28.228 97.1634 28.5 96.9554 28.828C96.7474 29.164 96.6434 29.508 96.6434 29.86C96.6434 30.404 96.8434 30.828 97.2434 31.132C97.6434 31.436 98.1794 31.652 98.8514 31.78C99.5314 31.908 100.291 31.972 101.131 31.972C102.819 31.972 104.051 31.744 104.827 31.288C105.611 30.84 106.003 30.212 106.003 29.404C106.003 28.268 105.267 27.7 103.795 27.7H98.8994C97.9394 27.7 97.1834 27.528 96.6314 27.184C96.0874 26.832 95.8154 26.328 95.8154 25.672C95.8154 25.048 96.0634 24.572 96.5594 24.244C97.0554 23.908 97.7634 23.704 98.6834 23.632V23.272L100.867 23.896H99.5594C98.8714 23.896 98.3474 23.992 97.9874 24.184C97.6274 24.368 97.4474 24.652 97.4474 25.036C97.4474 25.396 97.6114 25.656 97.9394 25.816C98.2754 25.968 98.7794 26.044 99.4514 26.044H103.747C104.571 26.044 105.271 26.18 105.847 26.452C106.431 26.716 106.871 27.096 107.167 27.592C107.471 28.088 107.623 28.68 107.623 29.368C107.623 30.104 107.415 30.768 106.999 31.36C106.583 31.96 105.895 32.432 104.935 32.776C103.983 33.128 102.699 33.304 101.083 33.304ZM100.867 23.896C99.8514 23.896 98.9474 23.712 98.1554 23.344C97.3634 22.976 96.7394 22.46 96.2834 21.796C95.8274 21.132 95.5994 20.352 95.5994 19.456C95.5994 18.56 95.8234 17.78 96.2714 17.116C96.7274 16.444 97.3474 15.924 98.1314 15.556C98.9234 15.18 99.8354 14.992 100.867 14.992C101.915 14.992 102.839 15.188 103.639 15.58C104.447 15.972 105.063 16.516 105.487 17.212C105.695 17.532 105.847 17.88 105.943 18.256C106.047 18.624 106.099 19.024 106.099 19.456C106.099 20.352 105.875 21.132 105.427 21.796C104.979 22.46 104.359 22.976 103.567 23.344C102.783 23.712 101.883 23.896 100.867 23.896ZM100.867 22.48C101.547 22.48 102.151 22.356 102.679 22.108C103.215 21.86 103.635 21.508 103.939 21.052C104.251 20.596 104.407 20.064 104.407 19.456C104.407 18.848 104.251 18.316 103.939 17.86C103.635 17.396 103.215 17.04 102.679 16.792C102.151 16.536 101.547 16.408 100.867 16.408C100.171 16.408 99.5554 16.536 99.0194 16.792C98.4834 17.04 98.0594 17.396 97.7474 17.86C97.4434 18.316 97.2914 18.848 97.2914 19.456C97.2914 20.064 97.4434 20.596 97.7474 21.052C98.0594 21.508 98.4834 21.86 99.0194 22.108C99.5634 22.356 100.179 22.48 100.867 22.48ZM106.099 19.456L105.499 18.052L104.971 17.188L105.451 16.996C105.427 16.916 105.407 16.836 105.391 16.756C105.383 16.668 105.379 16.576 105.379 16.48C105.379 16.144 105.459 15.84 105.619 15.568C105.779 15.296 106.011 15.08 106.315 14.92C106.619 14.76 106.991 14.68 107.431 14.68C107.543 14.68 107.643 14.684 107.731 14.692C107.827 14.7 107.919 14.716 108.007 14.74V16.408C107.855 16.384 107.715 16.368 107.587 16.36C107.459 16.344 107.331 16.336 107.203 16.336C106.867 16.336 106.595 16.384 106.387 16.48C106.187 16.576 106.043 16.7 105.955 16.852C105.867 16.996 105.823 17.156 105.823 17.332C105.823 17.5 105.847 17.684 105.895 17.884C105.943 18.076 105.987 18.3 106.027 18.556C106.075 18.812 106.099 19.112 106.099 19.456ZM113.455 26.512H116.083V28H109.099V26.512H111.727V10.528H109.099V9.04H113.455V26.512ZM127.83 28C127.502 28 127.25 27.896 127.074 27.688C126.906 27.48 126.822 27.188 126.822 26.812V22.972L126.978 22.576L126.894 21.124L126.822 20.368V19.396C126.822 18.74 126.686 18.204 126.414 17.788C126.15 17.372 125.766 17.064 125.262 16.864C124.758 16.664 124.15 16.564 123.438 16.564C122.374 16.564 121.55 16.776 120.966 17.2C120.39 17.616 120.006 18.244 119.814 19.084L118.158 18.736C118.318 17.896 118.618 17.2 119.058 16.648C119.498 16.088 120.082 15.672 120.81 15.4C121.546 15.12 122.442 14.98 123.498 14.98C124.602 14.98 125.526 15.136 126.27 15.448C127.022 15.752 127.59 16.22 127.974 16.852C128.358 17.484 128.55 18.3 128.55 19.3V26.512H130.434V28H127.83ZM121.806 28.168C120.478 28.168 119.47 27.876 118.782 27.292C118.094 26.7 117.75 25.832 117.75 24.688C117.75 23.632 118.054 22.828 118.662 22.276C119.27 21.716 120.246 21.296 121.59 21.016L127.338 19.792V21.028L121.878 22.264C121.094 22.448 120.506 22.72 120.114 23.08C119.73 23.432 119.538 23.932 119.538 24.58C119.538 25.284 119.754 25.812 120.186 26.164C120.618 26.508 121.25 26.68 122.082 26.68C123.002 26.68 123.826 26.468 124.554 26.044C125.282 25.62 125.854 24.996 126.27 24.172C126.686 23.348 126.894 22.332 126.894 21.124L127.35 23.956H126.738C126.538 25.292 126.018 26.328 125.178 27.064C124.346 27.8 123.222 28.168 121.806 28.168ZM138.283 28.228C137.427 28.228 136.703 28.1 136.111 27.844C135.527 27.588 135.063 27.248 134.719 26.824C134.375 26.392 134.151 25.912 134.047 25.384H133.615L133.963 23.968C134.115 24.808 134.531 25.492 135.211 26.02C135.899 26.548 136.791 26.812 137.887 26.812C138.823 26.812 139.547 26.624 140.059 26.248C140.579 25.864 140.839 25.308 140.839 24.58C140.839 23.916 140.583 23.4 140.071 23.032C139.559 22.664 138.663 22.384 137.383 22.192C135.551 21.904 134.247 21.452 133.471 20.836C132.695 20.212 132.307 19.392 132.307 18.376C132.307 17.352 132.663 16.532 133.375 15.916C134.087 15.3 135.079 14.992 136.351 14.992C137.191 14.992 137.883 15.12 138.427 15.376C138.979 15.632 139.403 15.976 139.699 16.408C139.995 16.832 140.187 17.3 140.275 17.812H140.707L140.359 19.168C140.215 18.352 139.823 17.688 139.183 17.176C138.543 16.656 137.707 16.396 136.675 16.396C135.843 16.396 135.191 16.572 134.719 16.924C134.255 17.276 134.023 17.744 134.023 18.328C134.023 18.944 134.315 19.428 134.899 19.78C135.483 20.124 136.403 20.396 137.659 20.596C139.435 20.876 140.695 21.336 141.439 21.976C142.183 22.616 142.555 23.48 142.555 24.568C142.555 25.712 142.187 26.608 141.451 27.256C140.723 27.904 139.667 28.228 138.283 28.228ZM132.235 28V23.968H133.963V28H132.235ZM140.359 19.168V15.22H142.087V19.168H140.359ZM150.928 28.228C150.072 28.228 149.348 28.1 148.756 27.844C148.172 27.588 147.708 27.248 147.364 26.824C147.02 26.392 146.796 25.912 146.692 25.384H146.26L146.608 23.968C146.76 24.808 147.176 25.492 147.856 26.02C148.544 26.548 149.436 26.812 150.532 26.812C151.468 26.812 152.192 26.624 152.704 26.248C153.224 25.864 153.484 25.308 153.484 24.58C153.484 23.916 153.228 23.4 152.716 23.032C152.204 22.664 151.308 22.384 150.028 22.192C148.196 21.904 146.892 21.452 146.116 20.836C145.34 20.212 144.952 19.392 144.952 18.376C144.952 17.352 145.308 16.532 146.02 15.916C146.732 15.3 147.724 14.992 148.996 14.992C149.836 14.992 150.528 15.12 151.072 15.376C151.624 15.632 152.048 15.976 152.344 16.408C152.64 16.832 152.832 17.3 152.92 17.812H153.352L153.004 19.168C152.86 18.352 152.468 17.688 151.828 17.176C151.188 16.656 150.352 16.396 149.32 16.396C148.488 16.396 147.836 16.572 147.364 16.924C146.9 17.276 146.668 17.744 146.668 18.328C146.668 18.944 146.96 19.428 147.544 19.78C148.128 20.124 149.048 20.396 150.304 20.596C152.08 20.876 153.34 21.336 154.084 21.976C154.828 22.616 155.2 23.48 155.2 24.568C155.2 25.712 154.832 26.608 154.096 27.256C153.368 27.904 152.312 28.228 150.928 28.228ZM144.88 28V23.968H146.608V28H144.88ZM153.004 19.168V15.22H154.732V19.168H153.004ZM163.873 28.228C162.553 28.228 161.409 27.948 160.441 27.388C159.473 26.828 158.725 26.056 158.197 25.072C157.669 24.08 157.405 22.94 157.405 21.652C157.405 20.348 157.669 19.196 158.197 18.196C158.733 17.196 159.477 16.412 160.429 15.844C161.389 15.276 162.505 14.992 163.777 14.992C165.057 14.992 166.165 15.272 167.101 15.832C168.037 16.392 168.757 17.168 169.261 18.16C169.765 19.152 170.017 20.296 170.017 21.592C170.017 21.744 170.013 21.864 170.005 21.952C170.005 22.04 169.997 22.116 169.981 22.18H168.277C168.285 22.084 168.289 21.98 168.289 21.868C168.297 21.748 168.301 21.612 168.301 21.46C168.301 20.508 168.117 19.664 167.749 18.928C167.389 18.184 166.873 17.6 166.201 17.176C165.529 16.752 164.721 16.54 163.777 16.54C162.857 16.54 162.049 16.76 161.353 17.2C160.657 17.632 160.117 18.232 159.733 19C159.349 19.76 159.157 20.644 159.157 21.652C159.157 22.628 159.345 23.492 159.721 24.244C160.105 24.988 160.649 25.572 161.353 25.996C162.057 26.42 162.893 26.632 163.861 26.632C164.869 26.632 165.741 26.396 166.477 25.924C167.221 25.444 167.773 24.792 168.133 23.968L169.765 24.58C169.293 25.708 168.537 26.6 167.497 27.256C166.465 27.904 165.257 28.228 163.873 28.228ZM158.497 22.18V20.848H169.465L169.969 22.18H158.497ZM178.281 28.228C177.425 28.228 176.701 28.1 176.109 27.844C175.525 27.588 175.061 27.248 174.717 26.824C174.373 26.392 174.149 25.912 174.045 25.384H173.613L173.961 23.968C174.113 24.808 174.529 25.492 175.209 26.02C175.897 26.548 176.789 26.812 177.885 26.812C178.821 26.812 179.545 26.624 180.057 26.248C180.577 25.864 180.837 25.308 180.837 24.58C180.837 23.916 180.581 23.4 180.069 23.032C179.557 22.664 178.661 22.384 177.381 22.192C175.549 21.904 174.245 21.452 173.469 20.836C172.693 20.212 172.305 19.392 172.305 18.376C172.305 17.352 172.661 16.532 173.373 15.916C174.085 15.3 175.077 14.992 176.349 14.992C177.189 14.992 177.881 15.12 178.425 15.376C178.977 15.632 179.401 15.976 179.697 16.408C179.993 16.832 180.185 17.3 180.273 17.812H180.705L180.357 19.168C180.213 18.352 179.821 17.688 179.181 17.176C178.541 16.656 177.705 16.396 176.673 16.396C175.841 16.396 175.189 16.572 174.717 16.924C174.253 17.276 174.021 17.744 174.021 18.328C174.021 18.944 174.313 19.428 174.897 19.78C175.481 20.124 176.401 20.396 177.657 20.596C179.433 20.876 180.693 21.336 181.437 21.976C182.181 22.616 182.553 23.48 182.553 24.568C182.553 25.712 182.185 26.608 181.449 27.256C180.721 27.904 179.665 28.228 178.281 28.228ZM172.233 28V23.968H173.961V28H172.233ZM180.357 19.168V15.22H182.085V19.168H180.357Z" fill="black"/>
<path d="M1 6.35211L6 1V39L1 33.6479V6.35211Z" fill="white"/>
<path d="M6 1L1 6.35211V33.6479L6 39" stroke="black" stroke-linecap="round"/>
<path d="M194 33.6479L189 39L189 1L194 6.35211L194 33.6479Z" fill="white"/>
<path d="M189 39L194 33.6479L194 6.35211L189 1" stroke="black" stroke-linecap="round"/>
</svg>
