<svg width="107" height="40" viewBox="0 0 107 40" fill="none" xmlns="http://www.w3.org/2000/svg">
<path d="M6 1H101V39H6V1Z" fill="white"/>
<path d="M6 1.5H101V0.5H6V1.5ZM101 38.5H6V39.5H101V38.5Z" fill="black"/>
<path d="M18.8881 28.228C18.0321 28.228 17.3081 28.1 16.7161 27.844C16.1321 27.588 15.6681 27.248 15.3241 26.824C14.9801 26.392 14.7561 25.912 14.6521 25.384H14.2201L14.5681 23.968C14.7201 24.808 15.1361 25.492 15.8161 26.02C16.5041 26.548 17.3961 26.812 18.4921 26.812C19.4281 26.812 20.1521 26.624 20.6641 26.248C21.1841 25.864 21.4441 25.308 21.4441 24.58C21.4441 23.916 21.1881 23.4 20.6761 23.032C20.1641 22.664 19.2681 22.384 17.9881 22.192C16.1561 21.904 14.8521 21.452 14.0761 20.836C13.3001 20.212 12.9121 19.392 12.9121 18.376C12.9121 17.352 13.2681 16.532 13.9801 15.916C14.6921 15.3 15.6841 14.992 16.9561 14.992C17.7961 14.992 18.4881 15.12 19.0321 15.376C19.5841 15.632 20.0081 15.976 20.3041 16.408C20.6001 16.832 20.7921 17.3 20.8801 17.812H21.3121L20.9641 19.168C20.8201 18.352 20.4281 17.688 19.7881 17.176C19.1481 16.656 18.3121 16.396 17.2801 16.396C16.4481 16.396 15.7961 16.572 15.3241 16.924C14.8601 17.276 14.6281 17.744 14.6281 18.328C14.6281 18.944 14.9201 19.428 15.5041 19.78C16.0881 20.124 17.0081 20.396 18.2641 20.596C20.0401 20.876 21.3001 21.336 22.0441 21.976C22.7881 22.616 23.1601 23.48 23.1601 24.568C23.1601 25.712 22.7921 26.608 22.0561 27.256C21.3281 27.904 20.2721 28.228 18.8881 28.228ZM12.8401 28V23.968H14.5681V28H12.8401ZM20.9641 19.168V15.22H22.6921V19.168H20.9641ZM28.5931 24.616C28.5931 25.288 28.7211 25.796 28.9771 26.14C29.2331 26.476 29.6251 26.644 30.1531 26.644C30.6731 26.644 31.0651 26.472 31.3291 26.128C31.5931 25.776 31.7251 25.272 31.7251 24.616V23.428H33.2851V24.604C33.2851 25.372 33.1691 26.028 32.9371 26.572C32.7131 27.108 32.3691 27.52 31.9051 27.808C31.4411 28.088 30.8451 28.228 30.1171 28.228C29.3731 28.228 28.7611 28.084 28.2811 27.796C27.8011 27.5 27.4451 27.084 27.2131 26.548C26.9811 26.012 26.8651 25.368 26.8651 24.616L26.8771 16.708H24.5971V15.22H26.8771V11.98H28.6051V15.22H33.1171L33.1051 16.708H28.6051L28.5931 24.616ZM41.7513 28.228C40.4233 28.228 39.2593 27.948 38.2593 27.388C37.2593 26.82 36.4793 26.044 35.9193 25.06C35.3593 24.076 35.0793 22.94 35.0793 21.652C35.0793 20.356 35.3593 19.208 35.9193 18.208C36.4793 17.2 37.2593 16.412 38.2593 15.844C39.2593 15.276 40.4233 14.992 41.7513 14.992C43.0793 14.992 44.2433 15.276 45.2433 15.844C46.2433 16.412 47.0233 17.2 47.5833 18.208C48.1433 19.208 48.4233 20.356 48.4233 21.652C48.4233 22.94 48.1433 24.076 47.5833 25.06C47.0233 26.044 46.2433 26.82 45.2433 27.388C44.2433 27.948 43.0793 28.228 41.7513 28.228ZM41.7513 26.632C42.7113 26.632 43.5553 26.424 44.2833 26.008C45.0193 25.592 45.5913 25.012 45.9993 24.268C46.4153 23.516 46.6233 22.644 46.6233 21.652C46.6233 20.652 46.4153 19.772 45.9993 19.012C45.5913 18.252 45.0193 17.66 44.2833 17.236C43.5553 16.804 42.7113 16.588 41.7513 16.588C40.7913 16.588 39.9433 16.804 39.2073 17.236C38.4793 17.66 37.9073 18.252 37.4913 19.012C37.0833 19.772 36.8793 20.652 36.8793 21.652C36.8793 22.644 37.0833 23.516 37.4913 24.268C37.9073 25.012 38.4793 25.592 39.2073 26.008C39.9433 26.424 40.7913 26.632 41.7513 26.632ZM57.1722 28.228C55.8442 28.228 54.6882 27.948 53.7042 27.388C52.7282 26.828 51.9682 26.056 51.4242 25.072C50.8882 24.08 50.6202 22.94 50.6202 21.652C50.6202 20.676 50.7682 19.784 51.0642 18.976C51.3602 18.16 51.7842 17.456 52.3362 16.864C52.8882 16.264 53.5442 15.804 54.3042 15.484C55.0642 15.156 55.9122 14.992 56.8482 14.992C57.7522 14.992 58.5042 15.14 59.1042 15.436C59.7122 15.724 60.1842 16.124 60.5202 16.636C60.8562 17.14 61.0722 17.72 61.1682 18.376H61.5882L61.2402 20.188C61.1362 19.468 60.9002 18.836 60.5322 18.292C60.1642 17.74 59.6842 17.312 59.0922 17.008C58.5002 16.696 57.8162 16.54 57.0402 16.54C56.1122 16.54 55.2962 16.76 54.5922 17.2C53.8962 17.632 53.3522 18.232 52.9602 19C52.5762 19.76 52.3842 20.644 52.3842 21.652C52.3842 22.628 52.5802 23.492 52.9722 24.244C53.3722 24.988 53.9282 25.572 54.6402 25.996C55.3602 26.42 56.2082 26.632 57.1842 26.632C58.1922 26.632 59.0602 26.412 59.7882 25.972C60.5162 25.524 61.0482 24.924 61.3842 24.172L62.9802 24.88C62.5242 25.912 61.7922 26.728 60.7842 27.328C59.7842 27.928 58.5802 28.228 57.1722 28.228ZM61.2402 20.188V15.22H62.9682V20.188H61.2402ZM68.9322 26.512H71.2002V28H64.6362V26.512H67.2042V10.528H64.6362V9.04H68.9322V26.512ZM73.3962 19.9L78.4722 26.512H80.1402V28H73.5642V26.512H76.3362L72.1722 20.944L73.3962 19.9ZM68.4162 24.556L68.0562 23.176L75.8922 16.708H71.9922V15.22H79.9362V16.708H78.1362L68.4162 24.556ZM89.2821 15.22H95.2341V16.708H93.6381L88.3581 29.704C87.9261 30.776 87.2581 31.6 86.3541 32.176C85.4581 32.752 84.3421 33.04 83.0061 33.04H81.7461V31.516H83.0061C83.9021 31.516 84.6821 31.328 85.3461 30.952C86.0181 30.584 86.5061 30.04 86.8101 29.32L87.7221 27.076L87.4221 28.564L82.5381 16.708H80.7741V15.22H86.8461V16.708H84.4221L88.7301 27.472L87.1581 26.08H88.8141L87.9141 26.896L91.9101 16.708H89.2821V15.22Z" fill="black"/>
<path d="M1 6.35211L6 1V39L1 33.6479V6.35211Z" fill="white"/>
<path d="M6 1L1 6.35211V33.6479L6 39" stroke="black" stroke-linecap="round"/>
<path d="M106 33.6479L101 39L101 1L106 6.35211L106 33.6479Z" fill="white"/>
<path d="M101 39L106 33.6479L106 6.35211L101 1" stroke="black" stroke-linecap="round"/>
</svg>
