<svg width="240" height="40" viewBox="0 0 240 40" fill="none" xmlns="http://www.w3.org/2000/svg">
<path d="M6 1H234V39H6V1Z" fill="white"/>
<path d="M6 1.5H234V0.5H6V1.5ZM234 38.5H6V39.5H234V38.5Z" fill="black"/>
<path d="M18.8992 28.228C18.0432 28.228 17.3192 28.1 16.7272 27.844C16.1432 27.588 15.6792 27.248 15.3352 26.824C14.9912 26.392 14.7672 25.912 14.6632 25.384H14.2312L14.5792 23.968C14.7312 24.808 15.1472 25.492 15.8272 26.02C16.5152 26.548 17.4072 26.812 18.5032 26.812C19.4392 26.812 20.1632 26.624 20.6752 26.248C21.1952 25.864 21.4552 25.308 21.4552 24.58C21.4552 23.916 21.1992 23.4 20.6872 23.032C20.1752 22.664 19.2792 22.384 17.9992 22.192C16.1672 21.904 14.8632 21.452 14.0872 20.836C13.3112 20.212 12.9232 19.392 12.9232 18.376C12.9232 17.352 13.2792 16.532 13.9912 15.916C14.7032 15.3 15.6952 14.992 16.9672 14.992C17.8072 14.992 18.4992 15.12 19.0432 15.376C19.5952 15.632 20.0192 15.976 20.3152 16.408C20.6112 16.832 20.8032 17.3 20.8912 17.812H21.3232L20.9752 19.168C20.8312 18.352 20.4392 17.688 19.7992 17.176C19.1592 16.656 18.3232 16.396 17.2912 16.396C16.4592 16.396 15.8072 16.572 15.3352 16.924C14.8712 17.276 14.6392 17.744 14.6392 18.328C14.6392 18.944 14.9312 19.428 15.5152 19.78C16.0992 20.124 17.0192 20.396 18.2752 20.596C20.0512 20.876 21.3112 21.336 22.0552 21.976C22.7992 22.616 23.1712 23.48 23.1712 24.568C23.1712 25.712 22.8032 26.608 22.0672 27.256C21.3392 27.904 20.2832 28.228 18.8992 28.228ZM12.8512 28V23.968H14.5792V28H12.8512ZM20.9752 19.168V15.22H22.7032V19.168H20.9752ZM29.1464 26.512H31.7744V28H24.7904V26.512H27.4184V10.528H24.7904V9.04H29.1464V26.512ZM37.6177 26.512H40.0777V28H33.2977V26.512H35.8897V16.708H33.2977V15.22H37.6177V26.512ZM35.5657 9.832H37.7737V12.124H35.5657V9.832ZM48.1833 28.228C46.8553 28.228 45.6993 27.948 44.7153 27.388C43.7393 26.828 42.9793 26.056 42.4353 25.072C41.8993 24.08 41.6313 22.94 41.6313 21.652C41.6313 20.676 41.7793 19.784 42.0753 18.976C42.3713 18.16 42.7953 17.456 43.3473 16.864C43.8993 16.264 44.5553 15.804 45.3153 15.484C46.0753 15.156 46.9233 14.992 47.8593 14.992C48.7633 14.992 49.5153 15.14 50.1153 15.436C50.7233 15.724 51.1953 16.124 51.5313 16.636C51.8673 17.14 52.0833 17.72 52.1793 18.376H52.5993L52.2513 20.188C52.1473 19.468 51.9113 18.836 51.5433 18.292C51.1753 17.74 50.6953 17.312 50.1033 17.008C49.5113 16.696 48.8273 16.54 48.0513 16.54C47.1233 16.54 46.3073 16.76 45.6033 17.2C44.9073 17.632 44.3633 18.232 43.9713 19C43.5873 19.76 43.3953 20.644 43.3953 21.652C43.3953 22.628 43.5913 23.492 43.9833 24.244C44.3833 24.988 44.9393 25.572 45.6513 25.996C46.3713 26.42 47.2193 26.632 48.1953 26.632C49.2033 26.632 50.0713 26.412 50.7993 25.972C51.5273 25.524 52.0593 24.924 52.3953 24.172L53.9913 24.88C53.5353 25.912 52.8033 26.728 51.7953 27.328C50.7953 27.928 49.5913 28.228 48.1833 28.228ZM52.2513 20.188V15.22H53.9793V20.188H52.2513ZM59.9433 26.512H62.2113V28H55.6473V26.512H58.2153V10.528H55.6473V9.04H59.9433V26.512ZM64.4073 19.9L69.4833 26.512H71.1513V28H64.5753V26.512H67.3473L63.1833 20.944L64.4073 19.9ZM59.4273 24.556L59.0673 23.176L66.9033 16.708H63.0033V15.22H70.9473V16.708H69.1473L59.4273 24.556ZM78.7679 28.228C77.4479 28.228 76.3039 27.948 75.3359 27.388C74.3679 26.828 73.6199 26.056 73.0919 25.072C72.5639 24.08 72.2999 22.94 72.2999 21.652C72.2999 20.348 72.5639 19.196 73.0919 18.196C73.6279 17.196 74.3719 16.412 75.3239 15.844C76.2839 15.276 77.3999 14.992 78.6719 14.992C79.9519 14.992 81.0599 15.272 81.9959 15.832C82.9319 16.392 83.6519 17.168 84.1559 18.16C84.6599 19.152 84.9119 20.296 84.9119 21.592C84.9119 21.744 84.9079 21.864 84.8999 21.952C84.8999 22.04 84.8919 22.116 84.8759 22.18H83.1719C83.1799 22.084 83.1839 21.98 83.1839 21.868C83.1919 21.748 83.1959 21.612 83.1959 21.46C83.1959 20.508 83.0119 19.664 82.6439 18.928C82.2839 18.184 81.7679 17.6 81.0959 17.176C80.4239 16.752 79.6159 16.54 78.6719 16.54C77.7519 16.54 76.9439 16.76 76.2479 17.2C75.5519 17.632 75.0119 18.232 74.6279 19C74.2439 19.76 74.0519 20.644 74.0519 21.652C74.0519 22.628 74.2399 23.492 74.6159 24.244C74.9999 24.988 75.5439 25.572 76.2479 25.996C76.9519 26.42 77.7879 26.632 78.7559 26.632C79.7639 26.632 80.6359 26.396 81.3719 25.924C82.1159 25.444 82.6679 24.792 83.0279 23.968L84.6599 24.58C84.1879 25.708 83.4319 26.6 82.3919 27.256C81.3599 27.904 80.1519 28.228 78.7679 28.228ZM73.3919 22.18V20.848H84.3599L84.8639 22.18H73.3919ZM98.0714 28V23.224L98.1434 22.288V20.764L98.0714 19.084V10.528H94.6274V9.04H99.7994V26.512H102.247V28H98.0714ZM93.2594 14.98C94.3154 14.98 95.2594 15.212 96.0914 15.676C96.9314 16.14 97.6234 16.804 98.1674 17.668C98.7114 18.524 99.0714 19.552 99.2474 20.752L98.1434 21.58C98.1434 20.596 97.9514 19.724 97.5674 18.964C97.1914 18.204 96.6514 17.612 95.9474 17.188C95.2434 16.756 94.4074 16.54 93.4394 16.54C92.4874 16.54 91.6594 16.756 90.9554 17.188C90.2514 17.62 89.7074 18.216 89.3234 18.976C88.9474 19.736 88.7594 20.616 88.7594 21.616C88.7594 22.608 88.9554 23.484 89.3474 24.244C89.7394 25.004 90.2874 25.604 90.9914 26.044C91.7034 26.476 92.5194 26.692 93.4394 26.692C94.3994 26.692 95.2274 26.476 95.9234 26.044C96.6274 25.604 97.1714 25 97.5554 24.232C97.9474 23.464 98.1434 22.58 98.1434 21.58L98.4074 24.304H97.9994C97.8554 25.008 97.5754 25.66 97.1594 26.26C96.7434 26.852 96.1954 27.332 95.5154 27.7C94.8354 28.06 94.0194 28.24 93.0674 28.24C92.1794 28.24 91.3634 28.08 90.6194 27.76C89.8754 27.432 89.2314 26.972 88.6874 26.38C88.1434 25.78 87.7194 25.076 87.4154 24.268C87.1194 23.46 86.9714 22.576 86.9714 21.616C86.9714 20.32 87.2314 19.172 87.7514 18.172C88.2714 17.172 88.9994 16.392 89.9354 15.832C90.8794 15.264 91.9874 14.98 93.2594 14.98ZM109.386 20.488V21.976H102.702V20.488H109.386ZM112.232 28.264V10.528H109.664V9.04H113.96V19.696L113.888 21.196V22.792L113.96 25.12L112.388 28.264H112.232ZM118.7 28.24C117.628 28.24 116.668 28.04 115.82 27.64C114.98 27.232 114.284 26.656 113.732 25.912C113.188 25.16 112.824 24.268 112.64 23.236L113.888 21.616C113.888 22.6 114.076 23.472 114.452 24.232C114.828 24.992 115.368 25.592 116.072 26.032C116.776 26.464 117.612 26.68 118.58 26.68C119.564 26.68 120.404 26.468 121.1 26.044C121.804 25.62 122.34 25.028 122.708 24.268C123.084 23.5 123.272 22.608 123.272 21.592C123.272 20.6 123.072 19.724 122.672 18.964C122.28 18.204 121.732 17.608 121.028 17.176C120.324 16.744 119.508 16.528 118.58 16.528C117.628 16.528 116.8 16.744 116.096 17.176C115.392 17.608 114.848 18.204 114.464 18.964C114.08 19.724 113.888 20.608 113.888 21.616L113.612 18.916H114.02C114.172 18.212 114.452 17.564 114.86 16.972C115.276 16.372 115.824 15.892 116.504 15.532C117.192 15.164 118.012 14.98 118.964 14.98C119.852 14.98 120.668 15.144 121.412 15.472C122.156 15.792 122.8 16.252 123.344 16.852C123.888 17.444 124.308 18.148 124.604 18.964C124.9 19.772 125.048 20.66 125.048 21.628C125.048 22.916 124.784 24.06 124.256 25.06C123.736 26.052 123 26.832 122.048 27.4C121.096 27.96 119.98 28.24 118.7 28.24ZM137.427 28C137.099 28 136.847 27.896 136.671 27.688C136.503 27.48 136.419 27.188 136.419 26.812V22.972L136.575 22.576L136.491 21.124L136.419 20.368V19.396C136.419 18.74 136.283 18.204 136.011 17.788C135.747 17.372 135.363 17.064 134.859 16.864C134.355 16.664 133.747 16.564 133.035 16.564C131.971 16.564 131.147 16.776 130.563 17.2C129.987 17.616 129.603 18.244 129.411 19.084L127.755 18.736C127.915 17.896 128.215 17.2 128.655 16.648C129.095 16.088 129.679 15.672 130.407 15.4C131.143 15.12 132.039 14.98 133.095 14.98C134.199 14.98 135.123 15.136 135.867 15.448C136.619 15.752 137.187 16.22 137.571 16.852C137.955 17.484 138.147 18.3 138.147 19.3V26.512H140.031V28H137.427ZM131.403 28.168C130.075 28.168 129.067 27.876 128.379 27.292C127.691 26.7 127.347 25.832 127.347 24.688C127.347 23.632 127.651 22.828 128.259 22.276C128.867 21.716 129.843 21.296 131.187 21.016L136.935 19.792V21.028L131.475 22.264C130.691 22.448 130.103 22.72 129.711 23.08C129.327 23.432 129.135 23.932 129.135 24.58C129.135 25.284 129.351 25.812 129.783 26.164C130.215 26.508 130.847 26.68 131.679 26.68C132.599 26.68 133.423 26.468 134.151 26.044C134.879 25.62 135.451 24.996 135.867 24.172C136.283 23.348 136.491 22.332 136.491 21.124L136.947 23.956H136.335C136.135 25.292 135.615 26.328 134.775 27.064C133.943 27.8 132.819 28.168 131.403 28.168ZM148.206 28.228C146.878 28.228 145.722 27.948 144.738 27.388C143.762 26.828 143.002 26.056 142.458 25.072C141.922 24.08 141.654 22.94 141.654 21.652C141.654 20.676 141.802 19.784 142.098 18.976C142.394 18.16 142.818 17.456 143.37 16.864C143.922 16.264 144.578 15.804 145.338 15.484C146.098 15.156 146.946 14.992 147.882 14.992C148.786 14.992 149.538 15.14 150.138 15.436C150.746 15.724 151.218 16.124 151.554 16.636C151.89 17.14 152.106 17.72 152.202 18.376H152.622L152.274 20.188C152.17 19.468 151.934 18.836 151.566 18.292C151.198 17.74 150.718 17.312 150.126 17.008C149.534 16.696 148.85 16.54 148.074 16.54C147.146 16.54 146.33 16.76 145.626 17.2C144.93 17.632 144.386 18.232 143.994 19C143.61 19.76 143.418 20.644 143.418 21.652C143.418 22.628 143.614 23.492 144.006 24.244C144.406 24.988 144.962 25.572 145.674 25.996C146.394 26.42 147.242 26.632 148.218 26.632C149.226 26.632 150.094 26.412 150.822 25.972C151.55 25.524 152.082 24.924 152.418 24.172L154.014 24.88C153.558 25.912 152.826 26.728 151.818 27.328C150.818 27.928 149.614 28.228 148.206 28.228ZM152.274 20.188V15.22H154.002V20.188H152.274ZM159.966 26.512H162.234V28H155.67V26.512H158.238V10.528H155.67V9.04H159.966V26.512ZM164.43 19.9L169.506 26.512H171.174V28H164.598V26.512H167.37L163.206 20.944L164.43 19.9ZM159.45 24.556L159.09 23.176L166.926 16.708H163.026V15.22H170.97V16.708H169.17L159.45 24.556ZM183.334 26.512H185.602V28H179.038V26.512H181.606V10.528H179.038V9.04H183.334V26.512ZM190.702 26.512V19.792C190.702 18.752 190.466 17.936 189.994 17.344C189.53 16.752 188.798 16.456 187.798 16.456C186.958 16.456 186.202 16.672 185.53 17.104C184.858 17.528 184.322 18.148 183.922 18.964C183.53 19.772 183.334 20.748 183.334 21.892L182.926 19.336H183.406C183.566 18.4 183.866 17.608 184.306 16.96C184.754 16.304 185.322 15.804 186.01 15.46C186.698 15.116 187.486 14.944 188.374 14.944C189.766 14.944 190.79 15.344 191.446 16.144C192.102 16.944 192.43 18.068 192.43 19.516V26.512H194.878V28H188.446V26.512H190.702ZM206.488 28C206.16 28 205.908 27.896 205.732 27.688C205.564 27.48 205.48 27.188 205.48 26.812V22.972L205.636 22.576L205.552 21.124L205.48 20.368V19.396C205.48 18.74 205.344 18.204 205.072 17.788C204.808 17.372 204.424 17.064 203.92 16.864C203.416 16.664 202.808 16.564 202.096 16.564C201.032 16.564 200.208 16.776 199.624 17.2C199.048 17.616 198.664 18.244 198.472 19.084L196.816 18.736C196.976 17.896 197.276 17.2 197.716 16.648C198.156 16.088 198.74 15.672 199.468 15.4C200.204 15.12 201.1 14.98 202.156 14.98C203.26 14.98 204.184 15.136 204.928 15.448C205.68 15.752 206.248 16.22 206.632 16.852C207.016 17.484 207.208 18.3 207.208 19.3V26.512H209.092V28H206.488ZM200.464 28.168C199.136 28.168 198.128 27.876 197.44 27.292C196.752 26.7 196.408 25.832 196.408 24.688C196.408 23.632 196.712 22.828 197.32 22.276C197.928 21.716 198.904 21.296 200.248 21.016L205.996 19.792V21.028L200.536 22.264C199.752 22.448 199.164 22.72 198.772 23.08C198.388 23.432 198.196 23.932 198.196 24.58C198.196 25.284 198.412 25.812 198.844 26.164C199.276 26.508 199.908 26.68 200.74 26.68C201.66 26.68 202.484 26.468 203.212 26.044C203.94 25.62 204.512 24.996 204.928 24.172C205.344 23.348 205.552 22.332 205.552 21.124L206.008 23.956H205.396C205.196 25.292 204.676 26.328 203.836 27.064C203.004 27.8 201.88 28.168 200.464 28.168ZM215.057 26.512H217.517V28H210.737V26.512H213.329V16.708H210.737V15.22H215.057V26.512ZM213.005 9.832H215.213V12.124H213.005V9.832ZM223.223 26.512H225.719V28H218.867V26.512H221.495V16.708H218.867V15.22H223.223V26.512ZM228.131 17.056C227.987 17.016 227.831 16.984 227.663 16.96C227.503 16.936 227.327 16.924 227.135 16.924C225.951 16.924 225.003 17.368 224.291 18.256C223.579 19.136 223.223 20.36 223.223 21.928L222.815 19.132H223.307C223.419 18.284 223.651 17.556 224.003 16.948C224.355 16.332 224.811 15.86 225.371 15.532C225.939 15.196 226.603 15.028 227.363 15.028C227.507 15.028 227.635 15.036 227.747 15.052C227.867 15.06 227.995 15.076 228.131 15.1V17.056Z" fill="black"/>
<path d="M1 6.35211L6 1V39L1 33.6479V6.35211Z" fill="white"/>
<path d="M6 1L1 6.35211V33.6479L6 39" stroke="black" stroke-linecap="round"/>
<path d="M239 33.6479L234 39L234 1L239 6.35211L239 33.6479Z" fill="white"/>
<path d="M234 39L239 33.6479L239 6.35211L234 1" stroke="black" stroke-linecap="round"/>
</svg>
