<svg width="252" height="40" viewBox="0 0 252 40" fill="none" xmlns="http://www.w3.org/2000/svg">
<path d="M6 1H246V39H6V1Z" fill="white"/>
<path d="M6 1.5H246V0.5H6V1.5ZM246 38.5H6V39.5H246V38.5Z" fill="black"/>
<path d="M16.9828 26.512H19.2628V28H12.6268V26.512H15.2548V16.708H12.6268V15.22H16.9828V26.512ZM24.3508 26.512V19.828C24.3508 18.78 24.1148 17.956 23.6428 17.356C23.1708 16.756 22.4268 16.456 21.4108 16.456C20.5868 16.456 19.8388 16.66 19.1668 17.068C18.4948 17.476 17.9628 18.068 17.5708 18.844C17.1788 19.62 16.9828 20.56 16.9828 21.664L16.5868 19.108H17.0668C17.2188 18.236 17.5108 17.496 17.9428 16.888C18.3748 16.272 18.9268 15.804 19.5988 15.484C20.2788 15.156 21.0588 14.992 21.9388 14.992C23.3308 14.992 24.3668 15.396 25.0468 16.204C25.7348 17.004 26.0788 18.136 26.0788 19.6V26.512H28.5388V28H22.1068V26.512H24.3508ZM36.3615 28.228C35.0415 28.228 33.8975 27.948 32.9295 27.388C31.9615 26.828 31.2135 26.056 30.6855 25.072C30.1575 24.08 29.8935 22.94 29.8935 21.652C29.8935 20.348 30.1575 19.196 30.6855 18.196C31.2215 17.196 31.9655 16.412 32.9175 15.844C33.8775 15.276 34.9935 14.992 36.2655 14.992C37.5455 14.992 38.6535 15.272 39.5895 15.832C40.5255 16.392 41.2455 17.168 41.7495 18.16C42.2535 19.152 42.5055 20.296 42.5055 21.592C42.5055 21.744 42.5015 21.864 42.4935 21.952C42.4935 22.04 42.4855 22.116 42.4695 22.18H40.7655C40.7735 22.084 40.7775 21.98 40.7775 21.868C40.7855 21.748 40.7895 21.612 40.7895 21.46C40.7895 20.508 40.6055 19.664 40.2375 18.928C39.8775 18.184 39.3615 17.6 38.6895 17.176C38.0175 16.752 37.2095 16.54 36.2655 16.54C35.3455 16.54 34.5375 16.76 33.8415 17.2C33.1455 17.632 32.6055 18.232 32.2215 19C31.8375 19.76 31.6455 20.644 31.6455 21.652C31.6455 22.628 31.8335 23.492 32.2095 24.244C32.5935 24.988 33.1375 25.572 33.8415 25.996C34.5455 26.42 35.3815 26.632 36.3495 26.632C37.3575 26.632 38.2295 26.396 38.9655 25.924C39.7095 25.444 40.2615 24.792 40.6215 23.968L42.2535 24.58C41.7815 25.708 41.0255 26.6 39.9855 27.256C38.9535 27.904 37.7455 28.228 36.3615 28.228ZM30.9855 22.18V20.848H41.9535L42.4575 22.18H30.9855ZM54.969 16.708H52.497V15.22H56.697V26.512H59.193V28H54.969V16.708ZM47.829 15.22V23.368C47.829 24.416 48.061 25.244 48.525 25.852C48.997 26.452 49.737 26.752 50.745 26.752C51.553 26.752 52.273 26.548 52.905 26.14C53.545 25.724 54.049 25.128 54.417 24.352C54.785 23.576 54.969 22.644 54.969 21.556L55.389 24.112H54.885C54.669 25.488 54.133 26.528 53.277 27.232C52.429 27.928 51.385 28.276 50.145 28.276C48.769 28.276 47.749 27.868 47.085 27.052C46.429 26.236 46.101 25.104 46.101 23.656V16.708H43.785V15.22H47.829ZM63.9662 24.616C63.9662 25.288 64.0942 25.796 64.3502 26.14C64.6062 26.476 64.9982 26.644 65.5262 26.644C66.0462 26.644 66.4382 26.472 66.7022 26.128C66.9662 25.776 67.0982 25.272 67.0982 24.616V23.428H68.6582V24.604C68.6582 25.372 68.5422 26.028 68.3102 26.572C68.0862 27.108 67.7422 27.52 67.2782 27.808C66.8142 28.088 66.2182 28.228 65.4902 28.228C64.7462 28.228 64.1342 28.084 63.6542 27.796C63.1742 27.5 62.8182 27.084 62.5862 26.548C62.3542 26.012 62.2382 25.368 62.2382 24.616L62.2502 16.708H59.9702V15.22H62.2502V11.98H63.9782V15.22H68.4902L68.4782 16.708H63.9782L63.9662 24.616ZM74.7113 26.512H77.2073V28H70.3553V26.512H72.9833V16.708H70.3553V15.22H74.7113V26.512ZM79.6193 17.056C79.4753 17.016 79.3193 16.984 79.1513 16.96C78.9913 16.936 78.8153 16.924 78.6233 16.924C77.4393 16.924 76.4913 17.368 75.7793 18.256C75.0673 19.136 74.7113 20.36 74.7113 21.928L74.3033 19.132H74.7953C74.9073 18.284 75.1393 17.556 75.4913 16.948C75.8433 16.332 76.2993 15.86 76.8593 15.532C77.4273 15.196 78.0913 15.028 78.8513 15.028C78.9953 15.028 79.1233 15.036 79.2353 15.052C79.3553 15.06 79.4833 15.076 79.6193 15.1V17.056ZM90.9193 28C90.5913 28 90.3393 27.896 90.1633 27.688C89.9953 27.48 89.9113 27.188 89.9113 26.812V22.972L90.0673 22.576L89.9833 21.124L89.9113 20.368V19.396C89.9113 18.74 89.7753 18.204 89.5033 17.788C89.2393 17.372 88.8553 17.064 88.3513 16.864C87.8473 16.664 87.2393 16.564 86.5273 16.564C85.4633 16.564 84.6393 16.776 84.0553 17.2C83.4793 17.616 83.0953 18.244 82.9033 19.084L81.2473 18.736C81.4073 17.896 81.7073 17.2 82.1473 16.648C82.5873 16.088 83.1713 15.672 83.8993 15.4C84.6353 15.12 85.5313 14.98 86.5873 14.98C87.6913 14.98 88.6153 15.136 89.3593 15.448C90.1113 15.752 90.6793 16.22 91.0633 16.852C91.4473 17.484 91.6393 18.3 91.6393 19.3V26.512H93.5233V28H90.9193ZM84.8953 28.168C83.5673 28.168 82.5593 27.876 81.8713 27.292C81.1833 26.7 80.8393 25.832 80.8393 24.688C80.8393 23.632 81.1433 22.828 81.7513 22.276C82.3593 21.716 83.3353 21.296 84.6793 21.016L90.4273 19.792V21.028L84.9673 22.264C84.1833 22.448 83.5953 22.72 83.2033 23.08C82.8193 23.432 82.6273 23.932 82.6273 24.58C82.6273 25.284 82.8433 25.812 83.2753 26.164C83.7073 26.508 84.3393 26.68 85.1713 26.68C86.0913 26.68 86.9153 26.468 87.6433 26.044C88.3713 25.62 88.9433 24.996 89.3593 24.172C89.7753 23.348 89.9833 22.332 89.9833 21.124L90.4393 23.956H89.8273C89.6273 25.292 89.1073 26.328 88.2673 27.064C87.4353 27.8 86.3113 28.168 84.8953 28.168ZM99.0684 26.512H101.696V28H94.7124V26.512H97.3404V10.528H94.7124V9.04H99.0684V26.512ZM116.233 28.228C115.377 28.228 114.653 28.1 114.061 27.844C113.477 27.588 113.013 27.248 112.669 26.824C112.325 26.392 112.101 25.912 111.997 25.384H111.565L111.913 23.968C112.065 24.808 112.481 25.492 113.161 26.02C113.849 26.548 114.741 26.812 115.837 26.812C116.773 26.812 117.497 26.624 118.009 26.248C118.529 25.864 118.789 25.308 118.789 24.58C118.789 23.916 118.533 23.4 118.021 23.032C117.509 22.664 116.613 22.384 115.333 22.192C113.501 21.904 112.197 21.452 111.421 20.836C110.645 20.212 110.257 19.392 110.257 18.376C110.257 17.352 110.613 16.532 111.325 15.916C112.037 15.3 113.029 14.992 114.301 14.992C115.141 14.992 115.833 15.12 116.377 15.376C116.929 15.632 117.353 15.976 117.649 16.408C117.945 16.832 118.137 17.3 118.225 17.812H118.657L118.309 19.168C118.165 18.352 117.773 17.688 117.133 17.176C116.493 16.656 115.657 16.396 114.625 16.396C113.793 16.396 113.141 16.572 112.669 16.924C112.205 17.276 111.973 17.744 111.973 18.328C111.973 18.944 112.265 19.428 112.849 19.78C113.433 20.124 114.353 20.396 115.609 20.596C117.385 20.876 118.645 21.336 119.389 21.976C120.133 22.616 120.505 23.48 120.505 24.568C120.505 25.712 120.137 26.608 119.401 27.256C118.673 27.904 117.617 28.228 116.233 28.228ZM110.185 28V23.968H111.913V28H110.185ZM118.309 19.168V15.22H120.037V19.168H118.309ZM138.118 15.22H143.914V16.708H142.354L138.358 28H136.354L132.31 16.672L133.678 18.412H132.046L133.414 16.672L129.61 28H127.594L123.394 16.708H121.822V15.22H127.702V16.708H125.242L129.166 28L127.726 26.332H129.394L128.086 28L131.998 16.708H129.994V15.22H135.922V16.708H133.966L138.034 28L136.57 26.332H138.214L136.978 28L140.698 16.708H138.118V15.22ZM151.127 28.228C149.807 28.228 148.663 27.948 147.695 27.388C146.727 26.828 145.979 26.056 145.451 25.072C144.923 24.08 144.659 22.94 144.659 21.652C144.659 20.348 144.923 19.196 145.451 18.196C145.987 17.196 146.731 16.412 147.683 15.844C148.643 15.276 149.759 14.992 151.031 14.992C152.311 14.992 153.419 15.272 154.355 15.832C155.291 16.392 156.011 17.168 156.515 18.16C157.019 19.152 157.271 20.296 157.271 21.592C157.271 21.744 157.267 21.864 157.259 21.952C157.259 22.04 157.251 22.116 157.235 22.18H155.531C155.539 22.084 155.543 21.98 155.543 21.868C155.551 21.748 155.555 21.612 155.555 21.46C155.555 20.508 155.371 19.664 155.003 18.928C154.643 18.184 154.127 17.6 153.455 17.176C152.783 16.752 151.975 16.54 151.031 16.54C150.111 16.54 149.303 16.76 148.607 17.2C147.911 17.632 147.371 18.232 146.987 19C146.603 19.76 146.411 20.644 146.411 21.652C146.411 22.628 146.599 23.492 146.975 24.244C147.359 24.988 147.903 25.572 148.607 25.996C149.311 26.42 150.147 26.632 151.115 26.632C152.123 26.632 152.995 26.396 153.731 25.924C154.475 25.444 155.027 24.792 155.387 23.968L157.019 24.58C156.547 25.708 155.791 26.6 154.751 27.256C153.719 27.904 152.511 28.228 151.127 28.228ZM145.751 22.18V20.848H156.719L157.223 22.18H145.751ZM169.555 28C169.227 28 168.975 27.896 168.799 27.688C168.631 27.48 168.547 27.188 168.547 26.812V22.972L168.703 22.576L168.619 21.124L168.547 20.368V19.396C168.547 18.74 168.411 18.204 168.139 17.788C167.875 17.372 167.491 17.064 166.987 16.864C166.483 16.664 165.875 16.564 165.163 16.564C164.099 16.564 163.275 16.776 162.691 17.2C162.115 17.616 161.731 18.244 161.539 19.084L159.883 18.736C160.043 17.896 160.343 17.2 160.783 16.648C161.223 16.088 161.807 15.672 162.535 15.4C163.271 15.12 164.167 14.98 165.223 14.98C166.327 14.98 167.251 15.136 167.995 15.448C168.747 15.752 169.315 16.22 169.699 16.852C170.083 17.484 170.275 18.3 170.275 19.3V26.512H172.159V28H169.555ZM163.531 28.168C162.203 28.168 161.195 27.876 160.507 27.292C159.819 26.7 159.475 25.832 159.475 24.688C159.475 23.632 159.779 22.828 160.387 22.276C160.995 21.716 161.971 21.296 163.315 21.016L169.063 19.792V21.028L163.603 22.264C162.819 22.448 162.231 22.72 161.839 23.08C161.455 23.432 161.263 23.932 161.263 24.58C161.263 25.284 161.479 25.812 161.911 26.164C162.343 26.508 162.975 26.68 163.807 26.68C164.727 26.68 165.551 26.468 166.279 26.044C167.007 25.62 167.579 24.996 167.995 24.172C168.411 23.348 168.619 22.332 168.619 21.124L169.075 23.956H168.463C168.263 25.292 167.743 26.328 166.903 27.064C166.071 27.8 164.947 28.168 163.531 28.168ZM177.068 24.616C177.068 25.288 177.196 25.796 177.452 26.14C177.708 26.476 178.1 26.644 178.628 26.644C179.148 26.644 179.54 26.472 179.804 26.128C180.068 25.776 180.2 25.272 180.2 24.616V23.428H181.76V24.604C181.76 25.372 181.644 26.028 181.412 26.572C181.188 27.108 180.844 27.52 180.38 27.808C179.916 28.088 179.32 28.228 178.592 28.228C177.848 28.228 177.236 28.084 176.756 27.796C176.276 27.5 175.92 27.084 175.688 26.548C175.456 26.012 175.34 25.368 175.34 24.616L175.352 16.708H173.072V15.22H175.352V11.98H177.08V15.22H181.592L181.58 16.708H177.08L177.068 24.616ZM189.77 28.228C188.914 28.228 188.19 28.1 187.598 27.844C187.014 27.588 186.55 27.248 186.206 26.824C185.862 26.392 185.638 25.912 185.534 25.384H185.102L185.45 23.968C185.602 24.808 186.018 25.492 186.698 26.02C187.386 26.548 188.278 26.812 189.374 26.812C190.31 26.812 191.034 26.624 191.546 26.248C192.066 25.864 192.326 25.308 192.326 24.58C192.326 23.916 192.07 23.4 191.558 23.032C191.046 22.664 190.15 22.384 188.87 22.192C187.038 21.904 185.734 21.452 184.958 20.836C184.182 20.212 183.794 19.392 183.794 18.376C183.794 17.352 184.15 16.532 184.862 15.916C185.574 15.3 186.566 14.992 187.838 14.992C188.678 14.992 189.37 15.12 189.914 15.376C190.466 15.632 190.89 15.976 191.186 16.408C191.482 16.832 191.674 17.3 191.762 17.812H192.194L191.846 19.168C191.702 18.352 191.31 17.688 190.67 17.176C190.03 16.656 189.194 16.396 188.162 16.396C187.33 16.396 186.678 16.572 186.206 16.924C185.742 17.276 185.51 17.744 185.51 18.328C185.51 18.944 185.802 19.428 186.386 19.78C186.97 20.124 187.89 20.396 189.146 20.596C190.922 20.876 192.182 21.336 192.926 21.976C193.67 22.616 194.042 23.48 194.042 24.568C194.042 25.712 193.674 26.608 192.938 27.256C192.21 27.904 191.154 28.228 189.77 28.228ZM183.722 28V23.968H185.45V28H183.722ZM191.846 19.168V15.22H193.574V19.168H191.846ZM199.958 26.512H202.226V28H195.662V26.512H198.23V10.528H195.662V9.04H199.958V26.512ZM207.326 26.512V19.792C207.326 18.752 207.09 17.936 206.618 17.344C206.154 16.752 205.422 16.456 204.422 16.456C203.582 16.456 202.826 16.672 202.154 17.104C201.482 17.528 200.946 18.148 200.546 18.964C200.154 19.772 199.958 20.748 199.958 21.892L199.55 19.336H200.03C200.19 18.4 200.49 17.608 200.93 16.96C201.378 16.304 201.946 15.804 202.634 15.46C203.322 15.116 204.11 14.944 204.998 14.944C206.39 14.944 207.414 15.344 208.07 16.144C208.726 16.944 209.054 18.068 209.054 19.516V26.512H211.502V28H205.07V26.512H207.326ZM217.208 26.512H219.668V28H212.888V26.512H215.48V16.708H212.888V15.22H217.208V26.512ZM215.156 9.832H217.364V12.124H215.156V9.832ZM225.373 26.512H227.869V28H221.017V26.512H223.645V16.708H221.017V15.22H225.373V26.512ZM230.281 17.056C230.137 17.016 229.981 16.984 229.813 16.96C229.653 16.936 229.477 16.924 229.285 16.924C228.101 16.924 227.153 17.368 226.441 18.256C225.729 19.136 225.373 20.36 225.373 21.928L224.965 19.132H225.457C225.569 18.284 225.801 17.556 226.153 16.948C226.505 16.332 226.961 15.86 227.521 15.532C228.089 15.196 228.753 15.028 229.513 15.028C229.657 15.028 229.785 15.036 229.897 15.052C230.017 15.06 230.145 15.076 230.281 15.1V17.056ZM234.879 24.616C234.879 25.288 235.007 25.796 235.263 26.14C235.519 26.476 235.911 26.644 236.439 26.644C236.959 26.644 237.351 26.472 237.615 26.128C237.879 25.776 238.011 25.272 238.011 24.616V23.428H239.571V24.604C239.571 25.372 239.455 26.028 239.223 26.572C238.999 27.108 238.655 27.52 238.191 27.808C237.727 28.088 237.131 28.228 236.403 28.228C235.659 28.228 235.047 28.084 234.567 27.796C234.087 27.5 233.731 27.084 233.499 26.548C233.267 26.012 233.151 25.368 233.151 24.616L233.163 16.708H230.883V15.22H233.163V11.98H234.891V15.22H239.403L239.391 16.708H234.891L234.879 24.616Z" fill="black"/>
<path d="M1 6.35211L6 1V39L1 33.6479V6.35211Z" fill="white"/>
<path d="M6 1L1 6.35211V33.6479L6 39" stroke="black" stroke-linecap="round"/>
<path d="M251 33.6479L246 39L246 1L251 6.35211L251 33.6479Z" fill="white"/>
<path d="M246 39L251 33.6479L251 6.35211L246 1" stroke="black" stroke-linecap="round"/>
</svg>
