<svg width="293" height="40" viewBox="0 0 293 40" fill="none" xmlns="http://www.w3.org/2000/svg">
<path d="M6 1H287V39H6V1Z" fill="white"/>
<path d="M6 1.5H287V0.5H6V1.5ZM287 38.5H6V39.5H287V38.5Z" fill="black"/>
<path d="M19.1553 28.228C17.8353 28.228 16.6913 27.948 15.7233 27.388C14.7553 26.828 14.0073 26.056 13.4793 25.072C12.9513 24.08 12.6873 22.94 12.6873 21.652C12.6873 20.348 12.9513 19.196 13.4793 18.196C14.0153 17.196 14.7593 16.412 15.7113 15.844C16.6713 15.276 17.7873 14.992 19.0593 14.992C20.3393 14.992 21.4473 15.272 22.3833 15.832C23.3193 16.392 24.0393 17.168 24.5433 18.16C25.0473 19.152 25.2993 20.296 25.2993 21.592C25.2993 21.744 25.2953 21.864 25.2873 21.952C25.2873 22.04 25.2793 22.116 25.2633 22.18H23.5593C23.5673 22.084 23.5713 21.98 23.5713 21.868C23.5793 21.748 23.5833 21.612 23.5833 21.46C23.5833 20.508 23.3993 19.664 23.0313 18.928C22.6713 18.184 22.1553 17.6 21.4833 17.176C20.8113 16.752 20.0033 16.54 19.0593 16.54C18.1393 16.54 17.3313 16.76 16.6353 17.2C15.9393 17.632 15.3993 18.232 15.0153 19C14.6313 19.76 14.4393 20.644 14.4393 21.652C14.4393 22.628 14.6273 23.492 15.0033 24.244C15.3873 24.988 15.9313 25.572 16.6353 25.996C17.3393 26.42 18.1753 26.632 19.1433 26.632C20.1513 26.632 21.0233 26.396 21.7593 25.924C22.5033 25.444 23.0553 24.792 23.4153 23.968L25.0473 24.58C24.5753 25.708 23.8193 26.6 22.7793 27.256C21.7473 27.904 20.5393 28.228 19.1553 28.228ZM13.7793 22.18V20.848H24.7473L25.2513 22.18H13.7793ZM38.3586 16.708L33.5346 22.096L34.1106 20.692V22.336L33.5346 20.932L38.4546 26.512H39.8826V28H34.2666V26.512H36.3426L32.5266 21.988L33.7986 22.576H32.1906L33.4986 21.988L29.6826 26.512H31.7826V28H26.3466V26.512H27.7746L32.6706 21.016L32.0946 22.432V20.776L32.6706 22.18L27.8706 16.708H26.3466V15.22H31.9506V16.708H29.9706L33.6906 21.136L32.4186 20.536H34.0266L32.7186 21.136L36.4506 16.708H34.4346V15.22H39.8826V16.708H38.3586ZM47.4475 28.228C46.1195 28.228 44.9635 27.948 43.9795 27.388C43.0035 26.828 42.2435 26.056 41.6995 25.072C41.1635 24.08 40.8955 22.94 40.8955 21.652C40.8955 20.676 41.0435 19.784 41.3395 18.976C41.6355 18.16 42.0595 17.456 42.6115 16.864C43.1635 16.264 43.8195 15.804 44.5795 15.484C45.3395 15.156 46.1875 14.992 47.1235 14.992C48.0275 14.992 48.7795 15.14 49.3795 15.436C49.9875 15.724 50.4595 16.124 50.7955 16.636C51.1315 17.14 51.3475 17.72 51.4435 18.376H51.8635L51.5155 20.188C51.4115 19.468 51.1755 18.836 50.8075 18.292C50.4395 17.74 49.9595 17.312 49.3675 17.008C48.7755 16.696 48.0915 16.54 47.3155 16.54C46.3875 16.54 45.5715 16.76 44.8675 17.2C44.1715 17.632 43.6275 18.232 43.2355 19C42.8515 19.76 42.6595 20.644 42.6595 21.652C42.6595 22.628 42.8555 23.492 43.2475 24.244C43.6475 24.988 44.2035 25.572 44.9155 25.996C45.6355 26.42 46.4835 26.632 47.4595 26.632C48.4675 26.632 49.3355 26.412 50.0635 25.972C50.7915 25.524 51.3235 24.924 51.6595 24.172L53.2555 24.88C52.7995 25.912 52.0675 26.728 51.0595 27.328C50.0595 27.928 48.8555 28.228 47.4475 28.228ZM51.5155 20.188V15.22H53.2435V20.188H51.5155ZM61.8715 28.228C60.5515 28.228 59.4075 27.948 58.4395 27.388C57.4715 26.828 56.7235 26.056 56.1955 25.072C55.6675 24.08 55.4035 22.94 55.4035 21.652C55.4035 20.348 55.6675 19.196 56.1955 18.196C56.7315 17.196 57.4755 16.412 58.4275 15.844C59.3875 15.276 60.5035 14.992 61.7755 14.992C63.0555 14.992 64.1635 15.272 65.0995 15.832C66.0355 16.392 66.7555 17.168 67.2595 18.16C67.7635 19.152 68.0155 20.296 68.0155 21.592C68.0155 21.744 68.0115 21.864 68.0035 21.952C68.0035 22.04 67.9955 22.116 67.9795 22.18H66.2755C66.2835 22.084 66.2875 21.98 66.2875 21.868C66.2955 21.748 66.2995 21.612 66.2995 21.46C66.2995 20.508 66.1155 19.664 65.7475 18.928C65.3875 18.184 64.8715 17.6 64.1995 17.176C63.5275 16.752 62.7195 16.54 61.7755 16.54C60.8555 16.54 60.0475 16.76 59.3515 17.2C58.6555 17.632 58.1155 18.232 57.7315 19C57.3475 19.76 57.1555 20.644 57.1555 21.652C57.1555 22.628 57.3435 23.492 57.7195 24.244C58.1035 24.988 58.6475 25.572 59.3515 25.996C60.0555 26.42 60.8915 26.632 61.8595 26.632C62.8675 26.632 63.7395 26.396 64.4755 25.924C65.2195 25.444 65.7715 24.792 66.1315 23.968L67.7635 24.58C67.2915 25.708 66.5355 26.6 65.4955 27.256C64.4635 27.904 63.2555 28.228 61.8715 28.228ZM56.4955 22.18V20.848H67.4635L67.9675 22.18H56.4955ZM73.6469 26.512H76.2749V28H69.2909V26.512H71.9189V10.528H69.2909V9.04H73.6469V26.512ZM81.6981 26.512H84.3261V28H77.3421V26.512H79.9701V10.528H77.3421V9.04H81.6981V26.512ZM92.0956 28.228C90.7756 28.228 89.6316 27.948 88.6636 27.388C87.6956 26.828 86.9476 26.056 86.4196 25.072C85.8916 24.08 85.6276 22.94 85.6276 21.652C85.6276 20.348 85.8916 19.196 86.4196 18.196C86.9556 17.196 87.6996 16.412 88.6516 15.844C89.6116 15.276 90.7276 14.992 91.9996 14.992C93.2796 14.992 94.3876 15.272 95.3236 15.832C96.2596 16.392 96.9796 17.168 97.4836 18.16C97.9876 19.152 98.2396 20.296 98.2396 21.592C98.2396 21.744 98.2356 21.864 98.2276 21.952C98.2276 22.04 98.2196 22.116 98.2036 22.18H96.4996C96.5076 22.084 96.5116 21.98 96.5116 21.868C96.5196 21.748 96.5236 21.612 96.5236 21.46C96.5236 20.508 96.3396 19.664 95.9716 18.928C95.6116 18.184 95.0956 17.6 94.4236 17.176C93.7516 16.752 92.9436 16.54 91.9996 16.54C91.0796 16.54 90.2716 16.76 89.5756 17.2C88.8796 17.632 88.3396 18.232 87.9556 19C87.5716 19.76 87.3796 20.644 87.3796 21.652C87.3796 22.628 87.5676 23.492 87.9436 24.244C88.3276 24.988 88.8716 25.572 89.5756 25.996C90.2796 26.42 91.1156 26.632 92.0836 26.632C93.0916 26.632 93.9636 26.396 94.6996 25.924C95.4436 25.444 95.9956 24.792 96.3556 23.968L97.9876 24.58C97.5156 25.708 96.7596 26.6 95.7196 27.256C94.6876 27.904 93.4796 28.228 92.0956 28.228ZM86.7196 22.18V20.848H97.6876L98.1916 22.18H86.7196ZM104.499 26.512H106.779V28H100.143V26.512H102.771V16.708H100.143V15.22H104.499V26.512ZM111.867 26.512V19.828C111.867 18.78 111.631 17.956 111.159 17.356C110.687 16.756 109.943 16.456 108.927 16.456C108.103 16.456 107.355 16.66 106.683 17.068C106.011 17.476 105.479 18.068 105.087 18.844C104.695 19.62 104.499 20.56 104.499 21.664L104.103 19.108H104.583C104.735 18.236 105.027 17.496 105.459 16.888C105.891 16.272 106.443 15.804 107.115 15.484C107.795 15.156 108.575 14.992 109.455 14.992C110.847 14.992 111.883 15.396 112.563 16.204C113.251 17.004 113.595 18.136 113.595 19.6V26.512H116.055V28H109.623V26.512H111.867ZM120.708 24.616C120.708 25.288 120.836 25.796 121.092 26.14C121.348 26.476 121.74 26.644 122.268 26.644C122.788 26.644 123.18 26.472 123.444 26.128C123.708 25.776 123.84 25.272 123.84 24.616V23.428H125.4V24.604C125.4 25.372 125.284 26.028 125.052 26.572C124.828 27.108 124.484 27.52 124.02 27.808C123.556 28.088 122.96 28.228 122.232 28.228C121.488 28.228 120.876 28.084 120.396 27.796C119.916 27.5 119.56 27.084 119.328 26.548C119.096 26.012 118.98 25.368 118.98 24.616L118.992 16.708H116.712V15.22H118.992V11.98H120.72V15.22H125.232L125.22 16.708H120.72L120.708 24.616ZM140.675 28.228C139.347 28.228 138.183 27.948 137.183 27.388C136.183 26.82 135.403 26.044 134.843 25.06C134.283 24.076 134.003 22.94 134.003 21.652C134.003 20.356 134.283 19.208 134.843 18.208C135.403 17.2 136.183 16.412 137.183 15.844C138.183 15.276 139.347 14.992 140.675 14.992C142.003 14.992 143.167 15.276 144.167 15.844C145.167 16.412 145.947 17.2 146.507 18.208C147.067 19.208 147.347 20.356 147.347 21.652C147.347 22.94 147.067 24.076 146.507 25.06C145.947 26.044 145.167 26.82 144.167 27.388C143.167 27.948 142.003 28.228 140.675 28.228ZM140.675 26.632C141.635 26.632 142.479 26.424 143.207 26.008C143.943 25.592 144.515 25.012 144.923 24.268C145.339 23.516 145.547 22.644 145.547 21.652C145.547 20.652 145.339 19.772 144.923 19.012C144.515 18.252 143.943 17.66 143.207 17.236C142.479 16.804 141.635 16.588 140.675 16.588C139.715 16.588 138.867 16.804 138.131 17.236C137.403 17.66 136.831 18.252 136.415 19.012C136.007 19.772 135.803 20.652 135.803 21.652C135.803 22.644 136.007 23.516 136.415 24.268C136.831 25.012 137.403 25.592 138.131 26.008C138.867 26.424 139.715 26.632 140.675 26.632ZM150.732 28.264V10.528H148.164V9.04H152.46V19.696L152.388 21.196V22.792L152.46 25.12L150.888 28.264H150.732ZM157.2 28.24C156.128 28.24 155.168 28.04 154.32 27.64C153.48 27.232 152.784 26.656 152.232 25.912C151.688 25.16 151.324 24.268 151.14 23.236L152.388 21.616C152.388 22.6 152.576 23.472 152.952 24.232C153.328 24.992 153.868 25.592 154.572 26.032C155.276 26.464 156.112 26.68 157.08 26.68C158.064 26.68 158.904 26.468 159.6 26.044C160.304 25.62 160.84 25.028 161.208 24.268C161.584 23.5 161.772 22.608 161.772 21.592C161.772 20.6 161.572 19.724 161.172 18.964C160.78 18.204 160.232 17.608 159.528 17.176C158.824 16.744 158.008 16.528 157.08 16.528C156.128 16.528 155.3 16.744 154.596 17.176C153.892 17.608 153.348 18.204 152.964 18.964C152.58 19.724 152.388 20.608 152.388 21.616L152.112 18.916H152.52C152.672 18.212 152.952 17.564 153.36 16.972C153.776 16.372 154.324 15.892 155.004 15.532C155.692 15.164 156.512 14.98 157.464 14.98C158.352 14.98 159.168 15.144 159.912 15.472C160.656 15.792 161.3 16.252 161.844 16.852C162.388 17.444 162.808 18.148 163.104 18.964C163.4 19.772 163.548 20.66 163.548 21.628C163.548 22.916 163.284 24.06 162.756 25.06C162.236 26.052 161.5 26.832 160.548 27.4C159.596 27.96 158.48 28.24 157.2 28.24ZM171.908 28.228C171.052 28.228 170.328 28.1 169.736 27.844C169.152 27.588 168.688 27.248 168.344 26.824C168 26.392 167.776 25.912 167.672 25.384H167.24L167.588 23.968C167.74 24.808 168.156 25.492 168.836 26.02C169.524 26.548 170.416 26.812 171.512 26.812C172.448 26.812 173.172 26.624 173.684 26.248C174.204 25.864 174.464 25.308 174.464 24.58C174.464 23.916 174.208 23.4 173.696 23.032C173.184 22.664 172.288 22.384 171.008 22.192C169.176 21.904 167.872 21.452 167.096 20.836C166.32 20.212 165.932 19.392 165.932 18.376C165.932 17.352 166.288 16.532 167 15.916C167.712 15.3 168.704 14.992 169.976 14.992C170.816 14.992 171.508 15.12 172.052 15.376C172.604 15.632 173.028 15.976 173.324 16.408C173.62 16.832 173.812 17.3 173.9 17.812H174.332L173.984 19.168C173.84 18.352 173.448 17.688 172.808 17.176C172.168 16.656 171.332 16.396 170.3 16.396C169.468 16.396 168.816 16.572 168.344 16.924C167.88 17.276 167.648 17.744 167.648 18.328C167.648 18.944 167.94 19.428 168.524 19.78C169.108 20.124 170.028 20.396 171.284 20.596C173.06 20.876 174.32 21.336 175.064 21.976C175.808 22.616 176.18 23.48 176.18 24.568C176.18 25.712 175.812 26.608 175.076 27.256C174.348 27.904 173.292 28.228 171.908 28.228ZM165.86 28V23.968H167.588V28H165.86ZM173.984 19.168V15.22H175.712V19.168H173.984ZM184.853 28.228C183.533 28.228 182.389 27.948 181.421 27.388C180.453 26.828 179.705 26.056 179.177 25.072C178.649 24.08 178.385 22.94 178.385 21.652C178.385 20.348 178.649 19.196 179.177 18.196C179.713 17.196 180.457 16.412 181.409 15.844C182.369 15.276 183.485 14.992 184.757 14.992C186.037 14.992 187.145 15.272 188.081 15.832C189.017 16.392 189.737 17.168 190.241 18.16C190.745 19.152 190.997 20.296 190.997 21.592C190.997 21.744 190.993 21.864 190.985 21.952C190.985 22.04 190.977 22.116 190.961 22.18H189.257C189.265 22.084 189.269 21.98 189.269 21.868C189.277 21.748 189.281 21.612 189.281 21.46C189.281 20.508 189.097 19.664 188.729 18.928C188.369 18.184 187.853 17.6 187.181 17.176C186.509 16.752 185.701 16.54 184.757 16.54C183.837 16.54 183.029 16.76 182.333 17.2C181.637 17.632 181.097 18.232 180.713 19C180.329 19.76 180.137 20.644 180.137 21.652C180.137 22.628 180.325 23.492 180.701 24.244C181.085 24.988 181.629 25.572 182.333 25.996C183.037 26.42 183.873 26.632 184.841 26.632C185.849 26.632 186.721 26.396 187.457 25.924C188.201 25.444 188.753 24.792 189.113 23.968L190.745 24.58C190.273 25.708 189.517 26.6 188.477 27.256C187.445 27.904 186.237 28.228 184.853 28.228ZM179.477 22.18V20.848H190.445L190.949 22.18H179.477ZM197.256 26.512H199.752V28H192.9V26.512H195.528V16.708H192.9V15.22H197.256V26.512ZM202.164 17.056C202.02 17.016 201.864 16.984 201.696 16.96C201.536 16.936 201.36 16.924 201.168 16.924C199.984 16.924 199.036 17.368 198.324 18.256C197.612 19.136 197.256 20.36 197.256 21.928L196.848 19.132H197.34C197.452 18.284 197.684 17.556 198.036 16.948C198.388 16.332 198.844 15.86 199.404 15.532C199.972 15.196 200.636 15.028 201.396 15.028C201.54 15.028 201.668 15.036 201.78 15.052C201.9 15.06 202.028 15.076 202.164 15.1V17.056ZM211.284 15.22H216.948V16.708H215.508L210.804 28H208.932L204.072 16.708H202.644V15.22H208.44V16.708H205.944L210.66 28L209.04 26.188H210.684L209.28 28L213.78 16.708H211.284V15.22ZM227.539 28C227.211 28 226.959 27.896 226.783 27.688C226.615 27.48 226.531 27.188 226.531 26.812V22.972L226.687 22.576L226.603 21.124L226.531 20.368V19.396C226.531 18.74 226.395 18.204 226.123 17.788C225.859 17.372 225.475 17.064 224.971 16.864C224.467 16.664 223.859 16.564 223.147 16.564C222.083 16.564 221.259 16.776 220.675 17.2C220.099 17.616 219.715 18.244 219.523 19.084L217.867 18.736C218.027 17.896 218.327 17.2 218.767 16.648C219.207 16.088 219.791 15.672 220.519 15.4C221.255 15.12 222.151 14.98 223.207 14.98C224.311 14.98 225.235 15.136 225.979 15.448C226.731 15.752 227.299 16.22 227.683 16.852C228.067 17.484 228.259 18.3 228.259 19.3V26.512H230.143V28H227.539ZM221.515 28.168C220.187 28.168 219.179 27.876 218.491 27.292C217.803 26.7 217.459 25.832 217.459 24.688C217.459 23.632 217.763 22.828 218.371 22.276C218.979 21.716 219.955 21.296 221.299 21.016L227.047 19.792V21.028L221.587 22.264C220.803 22.448 220.215 22.72 219.823 23.08C219.439 23.432 219.247 23.932 219.247 24.58C219.247 25.284 219.463 25.812 219.895 26.164C220.327 26.508 220.959 26.68 221.791 26.68C222.711 26.68 223.535 26.468 224.263 26.044C224.991 25.62 225.563 24.996 225.979 24.172C226.395 23.348 226.603 22.332 226.603 21.124L227.059 23.956H226.447C226.247 25.292 225.727 26.328 224.887 27.064C224.055 27.8 222.931 28.168 221.515 28.168ZM235.052 24.616C235.052 25.288 235.18 25.796 235.436 26.14C235.692 26.476 236.084 26.644 236.612 26.644C237.132 26.644 237.524 26.472 237.788 26.128C238.052 25.776 238.184 25.272 238.184 24.616V23.428H239.744V24.604C239.744 25.372 239.628 26.028 239.396 26.572C239.172 27.108 238.828 27.52 238.364 27.808C237.9 28.088 237.304 28.228 236.576 28.228C235.832 28.228 235.22 28.084 234.74 27.796C234.26 27.5 233.904 27.084 233.672 26.548C233.44 26.012 233.324 25.368 233.324 24.616L233.336 16.708H231.056V15.22H233.336V11.98H235.064V15.22H239.576L239.564 16.708H235.064L235.052 24.616ZM245.917 26.512H248.377V28H241.597V26.512H244.189V16.708H241.597V15.22H245.917V26.512ZM243.865 9.832H246.073V12.124H243.865V9.832ZM256.543 28.228C255.215 28.228 254.051 27.948 253.051 27.388C252.051 26.82 251.271 26.044 250.711 25.06C250.151 24.076 249.871 22.94 249.871 21.652C249.871 20.356 250.151 19.208 250.711 18.208C251.271 17.2 252.051 16.412 253.051 15.844C254.051 15.276 255.215 14.992 256.543 14.992C257.871 14.992 259.035 15.276 260.035 15.844C261.035 16.412 261.815 17.2 262.375 18.208C262.935 19.208 263.215 20.356 263.215 21.652C263.215 22.94 262.935 24.076 262.375 25.06C261.815 26.044 261.035 26.82 260.035 27.388C259.035 27.948 257.871 28.228 256.543 28.228ZM256.543 26.632C257.503 26.632 258.347 26.424 259.075 26.008C259.811 25.592 260.383 25.012 260.791 24.268C261.207 23.516 261.415 22.644 261.415 21.652C261.415 20.652 261.207 19.772 260.791 19.012C260.383 18.252 259.811 17.66 259.075 17.236C258.347 16.804 257.503 16.588 256.543 16.588C255.583 16.588 254.735 16.804 253.999 17.236C253.271 17.66 252.699 18.252 252.283 19.012C251.875 19.772 251.671 20.652 251.671 21.652C251.671 22.644 251.875 23.516 252.283 24.268C252.699 25.012 253.271 25.592 253.999 26.008C254.735 26.424 255.583 26.632 256.543 26.632ZM269.564 26.512H271.844V28H265.208V26.512H267.836V16.708H265.208V15.22H269.564V26.512ZM276.932 26.512V19.828C276.932 18.78 276.696 17.956 276.224 17.356C275.752 16.756 275.008 16.456 273.992 16.456C273.168 16.456 272.42 16.66 271.748 17.068C271.076 17.476 270.544 18.068 270.152 18.844C269.76 19.62 269.564 20.56 269.564 21.664L269.168 19.108H269.648C269.8 18.236 270.092 17.496 270.524 16.888C270.956 16.272 271.508 15.804 272.18 15.484C272.86 15.156 273.64 14.992 274.52 14.992C275.912 14.992 276.948 15.396 277.628 16.204C278.316 17.004 278.66 18.136 278.66 19.6V26.512H281.12V28H274.688V26.512H276.932Z" fill="black"/>
<path d="M1 6.35211L6 1V39L1 33.6479V6.35211Z" fill="white"/>
<path d="M6 1L1 6.35211V33.6479L6 39" stroke="black" stroke-linecap="round"/>
<path d="M292 33.6479L287 39L287 1L292 6.35211L292 33.6479Z" fill="white"/>
<path d="M287 39L292 33.6479L292 6.35211L287 1" stroke="black" stroke-linecap="round"/>
</svg>
