<svg width="146" height="40" viewBox="0 0 146 40" fill="none" xmlns="http://www.w3.org/2000/svg">
<path d="M6 1H140V39H6V1Z" fill="white"/>
<path d="M6 1.5H140V0.5H6V1.5ZM140 38.5H6V39.5H140V38.5Z" fill="black"/>
<path d="M19.0609 28.228C17.7329 28.228 16.5769 27.948 15.5929 27.388C14.6169 26.828 13.8569 26.056 13.3129 25.072C12.7769 24.08 12.5089 22.94 12.5089 21.652C12.5089 20.676 12.6569 19.784 12.9529 18.976C13.2489 18.16 13.6729 17.456 14.2249 16.864C14.7769 16.264 15.4329 15.804 16.1929 15.484C16.9529 15.156 17.8009 14.992 18.7369 14.992C19.6409 14.992 20.3929 15.14 20.9929 15.436C21.6009 15.724 22.0729 16.124 22.4089 16.636C22.7449 17.14 22.9609 17.72 23.0569 18.376H23.4769L23.1289 20.188C23.0249 19.468 22.7889 18.836 22.4209 18.292C22.0529 17.74 21.5729 17.312 20.9809 17.008C20.3889 16.696 19.7049 16.54 18.9289 16.54C18.0009 16.54 17.1849 16.76 16.4809 17.2C15.7849 17.632 15.2409 18.232 14.8489 19C14.4649 19.76 14.2729 20.644 14.2729 21.652C14.2729 22.628 14.4689 23.492 14.8609 24.244C15.2609 24.988 15.8169 25.572 16.5289 25.996C17.2489 26.42 18.0969 26.632 19.0729 26.632C20.0809 26.632 20.9489 26.412 21.6769 25.972C22.4049 25.524 22.9369 24.924 23.2729 24.172L24.8689 24.88C24.4129 25.912 23.6809 26.728 22.6729 27.328C21.6729 27.928 20.4689 28.228 19.0609 28.228ZM23.1289 20.188V15.22H24.8569V20.188H23.1289ZM33.6409 28.228C32.3129 28.228 31.1489 27.948 30.1489 27.388C29.1489 26.82 28.3689 26.044 27.8089 25.06C27.2489 24.076 26.9689 22.94 26.9689 21.652C26.9689 20.356 27.2489 19.208 27.8089 18.208C28.3689 17.2 29.1489 16.412 30.1489 15.844C31.1489 15.276 32.3129 14.992 33.6409 14.992C34.9689 14.992 36.1329 15.276 37.1329 15.844C38.1329 16.412 38.9129 17.2 39.4729 18.208C40.0329 19.208 40.3129 20.356 40.3129 21.652C40.3129 22.94 40.0329 24.076 39.4729 25.06C38.9129 26.044 38.1329 26.82 37.1329 27.388C36.1329 27.948 34.9689 28.228 33.6409 28.228ZM33.6409 26.632C34.6009 26.632 35.4449 26.424 36.1729 26.008C36.9089 25.592 37.4809 25.012 37.8889 24.268C38.3049 23.516 38.5129 22.644 38.5129 21.652C38.5129 20.652 38.3049 19.772 37.8889 19.012C37.4809 18.252 36.9089 17.66 36.1729 17.236C35.4449 16.804 34.6009 16.588 33.6409 16.588C32.6809 16.588 31.8329 16.804 31.0969 17.236C30.3689 17.66 29.7969 18.252 29.3809 19.012C28.9729 19.772 28.7689 20.652 28.7689 21.652C28.7689 22.644 28.9729 23.516 29.3809 24.268C29.7969 25.012 30.3689 25.592 31.0969 26.008C31.8329 26.424 32.6809 26.632 33.6409 26.632ZM46.6619 26.512H48.9419V28H42.3059V26.512H44.9339V16.708H42.3059V15.22H46.6619V26.512ZM54.0299 26.512V19.828C54.0299 18.78 53.7939 17.956 53.3219 17.356C52.8499 16.756 52.1059 16.456 51.0899 16.456C50.2659 16.456 49.5179 16.66 48.8459 17.068C48.1739 17.476 47.6419 18.068 47.2499 18.844C46.8579 19.62 46.6619 20.56 46.6619 21.664L46.2659 19.108H46.7459C46.8979 18.236 47.1899 17.496 47.6219 16.888C48.0539 16.272 48.6059 15.804 49.2779 15.484C49.9579 15.156 50.7379 14.992 51.6179 14.992C53.0099 14.992 54.0459 15.396 54.7259 16.204C55.4139 17.004 55.7579 18.136 55.7579 19.6V26.512H58.2179V28H51.7859V26.512H54.0299ZM59.4509 28V26.512H61.9829V16.708H59.4509V15.22H61.9829V14.248C61.9829 12.552 62.4349 11.224 63.3389 10.264C64.2429 9.296 65.5469 8.812 67.2509 8.812C68.4269 8.812 69.3829 9.064 70.1189 9.568C70.8549 10.072 71.3389 10.868 71.5709 11.956H72.8189L71.6549 12.904C71.3509 12.04 70.8589 11.408 70.1789 11.008C69.4989 10.6 68.6309 10.396 67.5749 10.396C66.3349 10.396 65.3789 10.68 64.7069 11.248C64.0429 11.816 63.7109 12.772 63.7109 14.116V15.22H67.4429V16.708H63.7109V26.512H66.6029V28H59.4509ZM71.6549 12.904V9.04H73.3589V12.904H71.6549ZM73.4669 26.512H75.9269V28H69.1349V26.512H71.7389V16.708H69.1349V15.22H73.4669V26.512ZM88.5316 28V23.224L88.6036 22.288V20.764L88.5316 19.084V10.528H85.0876V9.04H90.2596V26.512H92.7076V28H88.5316ZM83.7196 14.98C84.7756 14.98 85.7196 15.212 86.5516 15.676C87.3916 16.14 88.0836 16.804 88.6276 17.668C89.1716 18.524 89.5316 19.552 89.7076 20.752L88.6036 21.58C88.6036 20.596 88.4116 19.724 88.0276 18.964C87.6516 18.204 87.1116 17.612 86.4076 17.188C85.7036 16.756 84.8676 16.54 83.8996 16.54C82.9476 16.54 82.1196 16.756 81.4156 17.188C80.7116 17.62 80.1676 18.216 79.7836 18.976C79.4076 19.736 79.2196 20.616 79.2196 21.616C79.2196 22.608 79.4156 23.484 79.8076 24.244C80.1996 25.004 80.7476 25.604 81.4516 26.044C82.1636 26.476 82.9796 26.692 83.8996 26.692C84.8596 26.692 85.6876 26.476 86.3836 26.044C87.0876 25.604 87.6316 25 88.0156 24.232C88.4076 23.464 88.6036 22.58 88.6036 21.58L88.8676 24.304H88.4596C88.3156 25.008 88.0356 25.66 87.6196 26.26C87.2036 26.852 86.6556 27.332 85.9756 27.7C85.2956 28.06 84.4796 28.24 83.5276 28.24C82.6396 28.24 81.8236 28.08 81.0796 27.76C80.3356 27.432 79.6916 26.972 79.1476 26.38C78.6036 25.78 78.1796 25.076 77.8756 24.268C77.5796 23.46 77.4316 22.576 77.4316 21.616C77.4316 20.32 77.6916 19.172 78.2116 18.172C78.7316 17.172 79.4596 16.392 80.3956 15.832C81.3396 15.264 82.4476 14.98 83.7196 14.98ZM100.588 28.228C99.2684 28.228 98.1244 27.948 97.1564 27.388C96.1884 26.828 95.4404 26.056 94.9124 25.072C94.3844 24.08 94.1204 22.94 94.1204 21.652C94.1204 20.348 94.3844 19.196 94.9124 18.196C95.4484 17.196 96.1924 16.412 97.1444 15.844C98.1044 15.276 99.2204 14.992 100.492 14.992C101.772 14.992 102.88 15.272 103.816 15.832C104.752 16.392 105.472 17.168 105.976 18.16C106.48 19.152 106.732 20.296 106.732 21.592C106.732 21.744 106.728 21.864 106.72 21.952C106.72 22.04 106.712 22.116 106.696 22.18H104.992C105 22.084 105.004 21.98 105.004 21.868C105.012 21.748 105.016 21.612 105.016 21.46C105.016 20.508 104.832 19.664 104.464 18.928C104.104 18.184 103.588 17.6 102.916 17.176C102.244 16.752 101.436 16.54 100.492 16.54C99.5724 16.54 98.7644 16.76 98.0684 17.2C97.3724 17.632 96.8324 18.232 96.4484 19C96.0644 19.76 95.8724 20.644 95.8724 21.652C95.8724 22.628 96.0604 23.492 96.4364 24.244C96.8204 24.988 97.3644 25.572 98.0684 25.996C98.7724 26.42 99.6084 26.632 100.576 26.632C101.584 26.632 102.456 26.396 103.192 25.924C103.936 25.444 104.488 24.792 104.848 23.968L106.48 24.58C106.008 25.708 105.252 26.6 104.212 27.256C103.18 27.904 101.972 28.228 100.588 28.228ZM95.2124 22.18V20.848H106.18L106.684 22.18H95.2124ZM112.992 26.512H115.272V28H108.636V26.512H111.264V16.708H108.636V15.22H112.992V26.512ZM120.36 26.512V19.828C120.36 18.78 120.124 17.956 119.652 17.356C119.18 16.756 118.436 16.456 117.42 16.456C116.596 16.456 115.848 16.66 115.176 17.068C114.504 17.476 113.972 18.068 113.58 18.844C113.188 19.62 112.992 20.56 112.992 21.664L112.596 19.108H113.076C113.228 18.236 113.52 17.496 113.952 16.888C114.384 16.272 114.936 15.804 115.608 15.484C116.288 15.156 117.068 14.992 117.948 14.992C119.34 14.992 120.376 15.396 121.056 16.204C121.744 17.004 122.088 18.136 122.088 19.6V26.512H124.548V28H118.116V26.512H120.36ZM129.201 24.616C129.201 25.288 129.329 25.796 129.585 26.14C129.841 26.476 130.233 26.644 130.761 26.644C131.281 26.644 131.673 26.472 131.937 26.128C132.201 25.776 132.333 25.272 132.333 24.616V23.428H133.893V24.604C133.893 25.372 133.777 26.028 133.545 26.572C133.321 27.108 132.977 27.52 132.513 27.808C132.049 28.088 131.453 28.228 130.725 28.228C129.981 28.228 129.369 28.084 128.889 27.796C128.409 27.5 128.053 27.084 127.821 26.548C127.589 26.012 127.473 25.368 127.473 24.616L127.485 16.708H125.205V15.22H127.485V11.98H129.213V15.22H133.725L133.713 16.708H129.213L129.201 24.616Z" fill="black"/>
<path d="M1 6.35211L6 1V39L1 33.6479V6.35211Z" fill="white"/>
<path d="M6 1L1 6.35211V33.6479L6 39" stroke="black" stroke-linecap="round"/>
<path d="M145 33.6479L140 39L140 1L145 6.35211L145 33.6479Z" fill="white"/>
<path d="M140 39L145 33.6479L145 6.35211L140 1" stroke="black" stroke-linecap="round"/>
</svg>
