<svg width="178" height="40" viewBox="0 0 178 40" fill="none" xmlns="http://www.w3.org/2000/svg">
<path d="M6 1H172V39H6V1Z" fill="white"/>
<path d="M6 1.5H172V0.5H6V1.5ZM172 38.5H6V39.5H172V38.5Z" fill="black"/>
<path d="M18.9679 28.228C17.6479 28.228 16.5039 27.948 15.5359 27.388C14.5679 26.828 13.8199 26.056 13.2919 25.072C12.7639 24.08 12.4999 22.94 12.4999 21.652C12.4999 20.348 12.7639 19.196 13.2919 18.196C13.8279 17.196 14.5719 16.412 15.5239 15.844C16.4839 15.276 17.5999 14.992 18.8719 14.992C20.1519 14.992 21.2599 15.272 22.1959 15.832C23.1319 16.392 23.8519 17.168 24.3559 18.16C24.8599 19.152 25.1119 20.296 25.1119 21.592C25.1119 21.744 25.1079 21.864 25.0999 21.952C25.0999 22.04 25.0919 22.116 25.0759 22.18H23.3719C23.3799 22.084 23.3839 21.98 23.3839 21.868C23.3919 21.748 23.3959 21.612 23.3959 21.46C23.3959 20.508 23.2119 19.664 22.8439 18.928C22.4839 18.184 21.9679 17.6 21.2959 17.176C20.6239 16.752 19.8159 16.54 18.8719 16.54C17.9519 16.54 17.1439 16.76 16.4479 17.2C15.7519 17.632 15.2119 18.232 14.8279 19C14.4439 19.76 14.2519 20.644 14.2519 21.652C14.2519 22.628 14.4399 23.492 14.8159 24.244C15.1999 24.988 15.7439 25.572 16.4479 25.996C17.1519 26.42 17.9879 26.632 18.9559 26.632C19.9639 26.632 20.8359 26.396 21.5719 25.924C22.3159 25.444 22.8679 24.792 23.2279 23.968L24.8599 24.58C24.3879 25.708 23.6319 26.6 22.5919 27.256C21.5599 27.904 20.3519 28.228 18.9679 28.228ZM13.5919 22.18V20.848H24.5599L25.0639 22.18H13.5919ZM31.3714 26.512H33.6514V28H27.0154V26.512H29.6434V16.708H27.0154V15.22H31.3714V26.512ZM38.7394 26.512V19.828C38.7394 18.78 38.5034 17.956 38.0314 17.356C37.5594 16.756 36.8154 16.456 35.7994 16.456C34.9754 16.456 34.2274 16.66 33.5554 17.068C32.8834 17.476 32.3514 18.068 31.9594 18.844C31.5674 19.62 31.3714 20.56 31.3714 21.664L30.9754 19.108H31.4554C31.6074 18.236 31.8994 17.496 32.3314 16.888C32.7634 16.272 33.3154 15.804 33.9874 15.484C34.6674 15.156 35.4474 14.992 36.3274 14.992C37.7194 14.992 38.7554 15.396 39.4354 16.204C40.1234 17.004 40.4674 18.136 40.4674 19.6V26.512H42.9274V28H36.4954V26.512H38.7394ZM47.5804 24.616C47.5804 25.288 47.7084 25.796 47.9644 26.14C48.2204 26.476 48.6124 26.644 49.1404 26.644C49.6604 26.644 50.0524 26.472 50.3164 26.128C50.5804 25.776 50.7124 25.272 50.7124 24.616V23.428H52.2724V24.604C52.2724 25.372 52.1564 26.028 51.9244 26.572C51.7004 27.108 51.3564 27.52 50.8924 27.808C50.4284 28.088 49.8324 28.228 49.1044 28.228C48.3604 28.228 47.7484 28.084 47.2684 27.796C46.7884 27.5 46.4324 27.084 46.2004 26.548C45.9684 26.012 45.8524 25.368 45.8524 24.616L45.8644 16.708H43.5844V15.22H45.8644V11.98H47.5924V15.22H52.1044L52.0924 16.708H47.5924L47.5804 24.616ZM60.5826 28.228C59.2626 28.228 58.1186 27.948 57.1506 27.388C56.1826 26.828 55.4346 26.056 54.9066 25.072C54.3786 24.08 54.1146 22.94 54.1146 21.652C54.1146 20.348 54.3786 19.196 54.9066 18.196C55.4426 17.196 56.1866 16.412 57.1386 15.844C58.0986 15.276 59.2146 14.992 60.4866 14.992C61.7666 14.992 62.8746 15.272 63.8106 15.832C64.7466 16.392 65.4666 17.168 65.9706 18.16C66.4746 19.152 66.7266 20.296 66.7266 21.592C66.7266 21.744 66.7226 21.864 66.7146 21.952C66.7146 22.04 66.7066 22.116 66.6906 22.18H64.9866C64.9946 22.084 64.9986 21.98 64.9986 21.868C65.0066 21.748 65.0106 21.612 65.0106 21.46C65.0106 20.508 64.8266 19.664 64.4586 18.928C64.0986 18.184 63.5826 17.6 62.9106 17.176C62.2386 16.752 61.4306 16.54 60.4866 16.54C59.5666 16.54 58.7586 16.76 58.0626 17.2C57.3666 17.632 56.8266 18.232 56.4426 19C56.0586 19.76 55.8666 20.644 55.8666 21.652C55.8666 22.628 56.0546 23.492 56.4306 24.244C56.8146 24.988 57.3586 25.572 58.0626 25.996C58.7666 26.42 59.6026 26.632 60.5706 26.632C61.5786 26.632 62.4506 26.396 63.1866 25.924C63.9306 25.444 64.4826 24.792 64.8426 23.968L66.4746 24.58C66.0026 25.708 65.2466 26.6 64.2066 27.256C63.1746 27.904 61.9666 28.228 60.5826 28.228ZM55.2066 22.18V20.848H66.1746L66.6786 22.18H55.2066ZM72.9861 26.512H75.4821V28H68.6301V26.512H71.2581V16.708H68.6301V15.22H72.9861V26.512ZM77.8941 17.056C77.7501 17.016 77.5941 16.984 77.4261 16.96C77.2661 16.936 77.0901 16.924 76.8981 16.924C75.7141 16.924 74.7661 17.368 74.0541 18.256C73.3421 19.136 72.9861 20.36 72.9861 21.928L72.5781 19.132H73.0701C73.1821 18.284 73.4141 17.556 73.7661 16.948C74.1181 16.332 74.5741 15.86 75.1341 15.532C75.7021 15.196 76.3661 15.028 77.1261 15.028C77.2701 15.028 77.3981 15.036 77.5101 15.052C77.6301 15.06 77.7581 15.076 77.8941 15.1V17.056ZM78.808 33.04V31.552H81.364V16.708H78.808V15.22H83.092V19.792L83.044 21.16V21.916L83.092 22.996V31.552H85.6V33.04H78.808ZM87.916 28.24C86.86 28.24 85.912 28.008 85.072 27.544C84.24 27.08 83.552 26.42 83.008 25.564C82.464 24.7 82.104 23.668 81.928 22.468L83.044 21.64C83.044 22.624 83.232 23.496 83.608 24.256C83.984 25.008 84.524 25.6 85.228 26.032C85.932 26.464 86.768 26.68 87.736 26.68C88.688 26.68 89.516 26.464 90.22 26.032C90.924 25.6 91.464 25.004 91.84 24.244C92.224 23.476 92.416 22.6 92.416 21.616C92.416 20.616 92.22 19.736 91.828 18.976C91.436 18.216 90.888 17.62 90.184 17.188C89.48 16.748 88.664 16.528 87.736 16.528C86.784 16.528 85.956 16.748 85.252 17.188C84.548 17.62 84.004 18.22 83.62 18.988C83.236 19.756 83.044 20.64 83.044 21.64L82.768 18.916H83.176C83.32 18.212 83.6 17.564 84.016 16.972C84.432 16.372 84.98 15.892 85.66 15.532C86.348 15.164 87.164 14.98 88.108 14.98C89.004 14.98 89.824 15.144 90.568 15.472C91.312 15.792 91.952 16.252 92.488 16.852C93.032 17.444 93.452 18.144 93.748 18.952C94.052 19.76 94.204 20.648 94.204 21.616C94.204 22.904 93.944 24.048 93.424 25.048C92.904 26.048 92.172 26.832 91.228 27.4C90.292 27.96 89.188 28.24 87.916 28.24ZM100.55 26.512H103.046V28H96.1935V26.512H98.8215V16.708H96.1935V15.22H100.55V26.512ZM105.458 17.056C105.314 17.016 105.158 16.984 104.99 16.96C104.83 16.936 104.654 16.924 104.462 16.924C103.278 16.924 102.33 17.368 101.618 18.256C100.906 19.136 100.55 20.36 100.55 21.928L100.142 19.132H100.634C100.746 18.284 100.978 17.556 101.33 16.948C101.682 16.332 102.138 15.86 102.698 15.532C103.266 15.196 103.93 15.028 104.69 15.028C104.834 15.028 104.962 15.036 105.074 15.052C105.194 15.06 105.322 15.076 105.458 15.1V17.056ZM111.111 26.512H113.571V28H106.791V26.512H109.383V16.708H106.791V15.22H111.111V26.512ZM109.059 9.832H111.267V12.124H109.059V9.832ZM121.281 28.228C120.425 28.228 119.701 28.1 119.109 27.844C118.525 27.588 118.061 27.248 117.717 26.824C117.373 26.392 117.149 25.912 117.045 25.384H116.613L116.961 23.968C117.113 24.808 117.529 25.492 118.209 26.02C118.897 26.548 119.789 26.812 120.885 26.812C121.821 26.812 122.545 26.624 123.057 26.248C123.577 25.864 123.837 25.308 123.837 24.58C123.837 23.916 123.581 23.4 123.069 23.032C122.557 22.664 121.661 22.384 120.381 22.192C118.549 21.904 117.245 21.452 116.469 20.836C115.693 20.212 115.305 19.392 115.305 18.376C115.305 17.352 115.661 16.532 116.373 15.916C117.085 15.3 118.077 14.992 119.349 14.992C120.189 14.992 120.881 15.12 121.425 15.376C121.977 15.632 122.401 15.976 122.697 16.408C122.993 16.832 123.185 17.3 123.273 17.812H123.705L123.357 19.168C123.213 18.352 122.821 17.688 122.181 17.176C121.541 16.656 120.705 16.396 119.673 16.396C118.841 16.396 118.189 16.572 117.717 16.924C117.253 17.276 117.021 17.744 117.021 18.328C117.021 18.944 117.313 19.428 117.897 19.78C118.481 20.124 119.401 20.396 120.657 20.596C122.433 20.876 123.693 21.336 124.437 21.976C125.181 22.616 125.553 23.48 125.553 24.568C125.553 25.712 125.185 26.608 124.449 27.256C123.721 27.904 122.665 28.228 121.281 28.228ZM115.233 28V23.968H116.961V28H115.233ZM123.357 19.168V15.22H125.085V19.168H123.357ZM132.042 26.512H134.502V28H127.722V26.512H130.314V16.708H127.722V15.22H132.042V26.512ZM129.99 9.832H132.198V12.124H129.99V9.832ZM140.208 26.512H142.488V28H135.852V26.512H138.48V16.708H135.852V15.22H140.208V26.512ZM147.576 26.512V19.828C147.576 18.78 147.34 17.956 146.868 17.356C146.396 16.756 145.652 16.456 144.636 16.456C143.812 16.456 143.064 16.66 142.392 17.068C141.72 17.476 141.188 18.068 140.796 18.844C140.404 19.62 140.208 20.56 140.208 21.664L139.812 19.108H140.292C140.444 18.236 140.736 17.496 141.168 16.888C141.6 16.272 142.152 15.804 142.824 15.484C143.504 15.156 144.284 14.992 145.164 14.992C146.556 14.992 147.592 15.396 148.272 16.204C148.96 17.004 149.304 18.136 149.304 19.6V26.512H151.764V28H145.332V26.512H147.576ZM159.225 33.304C158.105 33.304 157.089 33.196 156.177 32.98C155.273 32.772 154.553 32.44 154.017 31.984C153.481 31.528 153.213 30.924 153.213 30.172C153.213 29.42 153.481 28.848 154.017 28.456C154.561 28.072 155.261 27.82 156.117 27.7V27.496L158.253 27.7C157.365 27.7 156.669 27.804 156.165 28.012C155.661 28.228 155.305 28.5 155.097 28.828C154.889 29.164 154.785 29.508 154.785 29.86C154.785 30.404 154.985 30.828 155.385 31.132C155.785 31.436 156.321 31.652 156.993 31.78C157.673 31.908 158.433 31.972 159.273 31.972C160.961 31.972 162.193 31.744 162.969 31.288C163.753 30.84 164.145 30.212 164.145 29.404C164.145 28.268 163.409 27.7 161.937 27.7H157.041C156.081 27.7 155.325 27.528 154.773 27.184C154.229 26.832 153.957 26.328 153.957 25.672C153.957 25.048 154.205 24.572 154.701 24.244C155.197 23.908 155.905 23.704 156.825 23.632V23.272L159.009 23.896H157.701C157.013 23.896 156.489 23.992 156.129 24.184C155.769 24.368 155.589 24.652 155.589 25.036C155.589 25.396 155.753 25.656 156.081 25.816C156.417 25.968 156.921 26.044 157.593 26.044H161.889C162.713 26.044 163.413 26.18 163.989 26.452C164.573 26.716 165.013 27.096 165.309 27.592C165.613 28.088 165.765 28.68 165.765 29.368C165.765 30.104 165.557 30.768 165.141 31.36C164.725 31.96 164.037 32.432 163.077 32.776C162.125 33.128 160.841 33.304 159.225 33.304ZM159.009 23.896C157.993 23.896 157.089 23.712 156.297 23.344C155.505 22.976 154.881 22.46 154.425 21.796C153.969 21.132 153.741 20.352 153.741 19.456C153.741 18.56 153.965 17.78 154.413 17.116C154.869 16.444 155.489 15.924 156.273 15.556C157.065 15.18 157.977 14.992 159.009 14.992C160.057 14.992 160.981 15.188 161.781 15.58C162.589 15.972 163.205 16.516 163.629 17.212C163.837 17.532 163.989 17.88 164.085 18.256C164.189 18.624 164.241 19.024 164.241 19.456C164.241 20.352 164.017 21.132 163.569 21.796C163.121 22.46 162.501 22.976 161.709 23.344C160.925 23.712 160.025 23.896 159.009 23.896ZM159.009 22.48C159.689 22.48 160.293 22.356 160.821 22.108C161.357 21.86 161.777 21.508 162.081 21.052C162.393 20.596 162.549 20.064 162.549 19.456C162.549 18.848 162.393 18.316 162.081 17.86C161.777 17.396 161.357 17.04 160.821 16.792C160.293 16.536 159.689 16.408 159.009 16.408C158.313 16.408 157.697 16.536 157.161 16.792C156.625 17.04 156.201 17.396 155.889 17.86C155.585 18.316 155.433 18.848 155.433 19.456C155.433 20.064 155.585 20.596 155.889 21.052C156.201 21.508 156.625 21.86 157.161 22.108C157.705 22.356 158.321 22.48 159.009 22.48ZM164.241 19.456L163.641 18.052L163.113 17.188L163.593 16.996C163.569 16.916 163.549 16.836 163.533 16.756C163.525 16.668 163.521 16.576 163.521 16.48C163.521 16.144 163.601 15.84 163.761 15.568C163.921 15.296 164.153 15.08 164.457 14.92C164.761 14.76 165.133 14.68 165.573 14.68C165.685 14.68 165.785 14.684 165.873 14.692C165.969 14.7 166.061 14.716 166.149 14.74V16.408C165.997 16.384 165.857 16.368 165.729 16.36C165.601 16.344 165.473 16.336 165.345 16.336C165.009 16.336 164.737 16.384 164.529 16.48C164.329 16.576 164.185 16.7 164.097 16.852C164.009 16.996 163.965 17.156 163.965 17.332C163.965 17.5 163.989 17.684 164.037 17.884C164.085 18.076 164.129 18.3 164.169 18.556C164.217 18.812 164.241 19.112 164.241 19.456Z" fill="black"/>
<path d="M1 6.35211L6 1V39L1 33.6479V6.35211Z" fill="white"/>
<path d="M6 1L1 6.35211V33.6479L6 39" stroke="black" stroke-linecap="round"/>
<path d="M177 33.6479L172 39L172 1L177 6.35211L177 33.6479Z" fill="white"/>
<path d="M172 39L177 33.6479L177 6.35211L172 1" stroke="black" stroke-linecap="round"/>
</svg>
