<svg width="150" height="40" viewBox="0 0 150 40" fill="none" xmlns="http://www.w3.org/2000/svg">
<path d="M6 1H144V39H6V1Z" fill="white"/>
<path d="M6 1.5H144V0.5H6V1.5ZM144 38.5H6V39.5H144V38.5Z" fill="black"/>
<path d="M11.9897 33.04V31.552H14.5457V16.708H11.9897V15.22H16.2737V19.792L16.2257 21.16V21.916L16.2737 22.996V31.552H18.7817V33.04H11.9897ZM21.0977 28.24C20.0417 28.24 19.0937 28.008 18.2537 27.544C17.4217 27.08 16.7337 26.42 16.1897 25.564C15.6457 24.7 15.2857 23.668 15.1097 22.468L16.2257 21.64C16.2257 22.624 16.4137 23.496 16.7897 24.256C17.1657 25.008 17.7057 25.6 18.4097 26.032C19.1137 26.464 19.9497 26.68 20.9177 26.68C21.8697 26.68 22.6977 26.464 23.4017 26.032C24.1057 25.6 24.6457 25.004 25.0217 24.244C25.4057 23.476 25.5977 22.6 25.5977 21.616C25.5977 20.616 25.4017 19.736 25.0097 18.976C24.6177 18.216 24.0697 17.62 23.3657 17.188C22.6617 16.748 21.8457 16.528 20.9177 16.528C19.9657 16.528 19.1377 16.748 18.4337 17.188C17.7297 17.62 17.1857 18.22 16.8017 18.988C16.4177 19.756 16.2257 20.64 16.2257 21.64L15.9497 18.916H16.3577C16.5017 18.212 16.7817 17.564 17.1977 16.972C17.6137 16.372 18.1617 15.892 18.8417 15.532C19.5297 15.164 20.3457 14.98 21.2897 14.98C22.1857 14.98 23.0057 15.144 23.7497 15.472C24.4937 15.792 25.1337 16.252 25.6697 16.852C26.2137 17.444 26.6337 18.144 26.9297 18.952C27.2337 19.76 27.3857 20.648 27.3857 21.616C27.3857 22.904 27.1257 24.048 26.6057 25.048C26.0857 26.048 25.3537 26.832 24.4097 27.4C23.4737 27.96 22.3697 28.24 21.0977 28.24ZM36.0353 28.228C34.7153 28.228 33.5713 27.948 32.6033 27.388C31.6353 26.828 30.8873 26.056 30.3593 25.072C29.8313 24.08 29.5673 22.94 29.5673 21.652C29.5673 20.348 29.8313 19.196 30.3593 18.196C30.8953 17.196 31.6393 16.412 32.5913 15.844C33.5513 15.276 34.6673 14.992 35.9393 14.992C37.2193 14.992 38.3273 15.272 39.2633 15.832C40.1993 16.392 40.9193 17.168 41.4233 18.16C41.9273 19.152 42.1793 20.296 42.1793 21.592C42.1793 21.744 42.1753 21.864 42.1673 21.952C42.1673 22.04 42.1593 22.116 42.1433 22.18H40.4393C40.4473 22.084 40.4513 21.98 40.4513 21.868C40.4593 21.748 40.4633 21.612 40.4633 21.46C40.4633 20.508 40.2793 19.664 39.9113 18.928C39.5513 18.184 39.0353 17.6 38.3633 17.176C37.6913 16.752 36.8833 16.54 35.9393 16.54C35.0193 16.54 34.2113 16.76 33.5153 17.2C32.8193 17.632 32.2793 18.232 31.8953 19C31.5113 19.76 31.3193 20.644 31.3193 21.652C31.3193 22.628 31.5073 23.492 31.8833 24.244C32.2673 24.988 32.8113 25.572 33.5153 25.996C34.2193 26.42 35.0553 26.632 36.0233 26.632C37.0313 26.632 37.9033 26.396 38.6393 25.924C39.3833 25.444 39.9353 24.792 40.2953 23.968L41.9273 24.58C41.4553 25.708 40.6993 26.6 39.6593 27.256C38.6273 27.904 37.4193 28.228 36.0353 28.228ZM30.6593 22.18V20.848H41.6273L42.1313 22.18H30.6593ZM48.4388 26.512H50.9348V28H44.0828V26.512H46.7108V16.708H44.0828V15.22H48.4388V26.512ZM53.3468 17.056C53.2028 17.016 53.0468 16.984 52.8788 16.96C52.7188 16.936 52.5428 16.924 52.3508 16.924C51.1668 16.924 50.2188 17.368 49.5068 18.256C48.7948 19.136 48.4388 20.36 48.4388 21.928L48.0308 19.132H48.5228C48.6348 18.284 48.8668 17.556 49.2188 16.948C49.5708 16.332 50.0268 15.86 50.5868 15.532C51.1548 15.196 51.8188 15.028 52.5788 15.028C52.7228 15.028 52.8508 15.036 52.9628 15.052C53.0828 15.06 53.2108 15.076 53.3468 15.1V17.056ZM61.0018 28.228C60.1458 28.228 59.4218 28.1 58.8298 27.844C58.2458 27.588 57.7818 27.248 57.4378 26.824C57.0938 26.392 56.8698 25.912 56.7658 25.384H56.3338L56.6818 23.968C56.8338 24.808 57.2498 25.492 57.9298 26.02C58.6178 26.548 59.5098 26.812 60.6058 26.812C61.5418 26.812 62.2658 26.624 62.7778 26.248C63.2978 25.864 63.5578 25.308 63.5578 24.58C63.5578 23.916 63.3018 23.4 62.7898 23.032C62.2778 22.664 61.3818 22.384 60.1018 22.192C58.2698 21.904 56.9658 21.452 56.1898 20.836C55.4138 20.212 55.0258 19.392 55.0258 18.376C55.0258 17.352 55.3818 16.532 56.0938 15.916C56.8058 15.3 57.7978 14.992 59.0698 14.992C59.9098 14.992 60.6018 15.12 61.1458 15.376C61.6978 15.632 62.1218 15.976 62.4178 16.408C62.7138 16.832 62.9058 17.3 62.9938 17.812H63.4258L63.0778 19.168C62.9338 18.352 62.5418 17.688 61.9018 17.176C61.2618 16.656 60.4258 16.396 59.3938 16.396C58.5618 16.396 57.9098 16.572 57.4378 16.924C56.9738 17.276 56.7418 17.744 56.7418 18.328C56.7418 18.944 57.0338 19.428 57.6178 19.78C58.2018 20.124 59.1218 20.396 60.3778 20.596C62.1538 20.876 63.4138 21.336 64.1578 21.976C64.9018 22.616 65.2738 23.48 65.2738 24.568C65.2738 25.712 64.9058 26.608 64.1698 27.256C63.4418 27.904 62.3858 28.228 61.0018 28.228ZM54.9538 28V23.968H56.6818V28H54.9538ZM63.0778 19.168V15.22H64.8058V19.168H63.0778ZM71.7628 26.512H74.2228V28H67.4428V26.512H70.0348V16.708H67.4428V15.22H71.7628V26.512ZM69.7108 9.832H71.9188V12.124H69.7108V9.832ZM81.9324 28.228C81.0764 28.228 80.3524 28.1 79.7604 27.844C79.1764 27.588 78.7124 27.248 78.3684 26.824C78.0244 26.392 77.8004 25.912 77.6964 25.384H77.2644L77.6124 23.968C77.7644 24.808 78.1804 25.492 78.8604 26.02C79.5484 26.548 80.4404 26.812 81.5364 26.812C82.4724 26.812 83.1964 26.624 83.7084 26.248C84.2284 25.864 84.4884 25.308 84.4884 24.58C84.4884 23.916 84.2324 23.4 83.7204 23.032C83.2084 22.664 82.3124 22.384 81.0324 22.192C79.2004 21.904 77.8964 21.452 77.1204 20.836C76.3444 20.212 75.9564 19.392 75.9564 18.376C75.9564 17.352 76.3124 16.532 77.0244 15.916C77.7364 15.3 78.7284 14.992 80.0004 14.992C80.8404 14.992 81.5324 15.12 82.0764 15.376C82.6284 15.632 83.0524 15.976 83.3484 16.408C83.6444 16.832 83.8364 17.3 83.9244 17.812H84.3564L84.0084 19.168C83.8644 18.352 83.4724 17.688 82.8324 17.176C82.1924 16.656 81.3564 16.396 80.3244 16.396C79.4924 16.396 78.8404 16.572 78.3684 16.924C77.9044 17.276 77.6724 17.744 77.6724 18.328C77.6724 18.944 77.9644 19.428 78.5484 19.78C79.1324 20.124 80.0524 20.396 81.3084 20.596C83.0844 20.876 84.3444 21.336 85.0884 21.976C85.8324 22.616 86.2044 23.48 86.2044 24.568C86.2044 25.712 85.8364 26.608 85.1004 27.256C84.3724 27.904 83.3164 28.228 81.9324 28.228ZM75.8844 28V23.968H77.6124V28H75.8844ZM84.0084 19.168V15.22H85.7364V19.168H84.0084ZM91.6374 24.616C91.6374 25.288 91.7654 25.796 92.0214 26.14C92.2774 26.476 92.6694 26.644 93.1974 26.644C93.7174 26.644 94.1094 26.472 94.3734 26.128C94.6374 25.776 94.7694 25.272 94.7694 24.616V23.428H96.3294V24.604C96.3294 25.372 96.2134 26.028 95.9814 26.572C95.7574 27.108 95.4134 27.52 94.9494 27.808C94.4854 28.088 93.8894 28.228 93.1614 28.228C92.4174 28.228 91.8054 28.084 91.3254 27.796C90.8454 27.5 90.4894 27.084 90.2574 26.548C90.0254 26.012 89.9094 25.368 89.9094 24.616L89.9214 16.708H87.6414V15.22H89.9214V11.98H91.6494V15.22H96.1614L96.1494 16.708H91.6494L91.6374 24.616ZM104.64 28.228C103.32 28.228 102.176 27.948 101.208 27.388C100.24 26.828 99.4916 26.056 98.9636 25.072C98.4356 24.08 98.1716 22.94 98.1716 21.652C98.1716 20.348 98.4356 19.196 98.9636 18.196C99.4996 17.196 100.244 16.412 101.196 15.844C102.156 15.276 103.272 14.992 104.544 14.992C105.824 14.992 106.932 15.272 107.868 15.832C108.804 16.392 109.524 17.168 110.028 18.16C110.532 19.152 110.784 20.296 110.784 21.592C110.784 21.744 110.78 21.864 110.772 21.952C110.772 22.04 110.764 22.116 110.748 22.18H109.044C109.052 22.084 109.056 21.98 109.056 21.868C109.064 21.748 109.068 21.612 109.068 21.46C109.068 20.508 108.884 19.664 108.516 18.928C108.156 18.184 107.64 17.6 106.968 17.176C106.296 16.752 105.488 16.54 104.544 16.54C103.624 16.54 102.816 16.76 102.12 17.2C101.424 17.632 100.884 18.232 100.5 19C100.116 19.76 99.9236 20.644 99.9236 21.652C99.9236 22.628 100.112 23.492 100.488 24.244C100.872 24.988 101.416 25.572 102.12 25.996C102.824 26.42 103.66 26.632 104.628 26.632C105.636 26.632 106.508 26.396 107.244 25.924C107.988 25.444 108.54 24.792 108.9 23.968L110.532 24.58C110.06 25.708 109.304 26.6 108.264 27.256C107.232 27.904 106.024 28.228 104.64 28.228ZM99.2636 22.18V20.848H110.232L110.736 22.18H99.2636ZM117.043 26.512H119.323V28H112.687V26.512H115.315V16.708H112.687V15.22H117.043V26.512ZM124.411 26.512V19.828C124.411 18.78 124.175 17.956 123.703 17.356C123.231 16.756 122.487 16.456 121.471 16.456C120.647 16.456 119.899 16.66 119.227 17.068C118.555 17.476 118.023 18.068 117.631 18.844C117.239 19.62 117.043 20.56 117.043 21.664L116.647 19.108H117.127C117.279 18.236 117.571 17.496 118.003 16.888C118.435 16.272 118.987 15.804 119.659 15.484C120.339 15.156 121.119 14.992 121.999 14.992C123.391 14.992 124.427 15.396 125.107 16.204C125.795 17.004 126.139 18.136 126.139 19.6V26.512H128.599V28H122.167V26.512H124.411ZM133.252 24.616C133.252 25.288 133.38 25.796 133.636 26.14C133.892 26.476 134.284 26.644 134.812 26.644C135.332 26.644 135.724 26.472 135.988 26.128C136.252 25.776 136.384 25.272 136.384 24.616V23.428H137.944V24.604C137.944 25.372 137.828 26.028 137.596 26.572C137.372 27.108 137.028 27.52 136.564 27.808C136.1 28.088 135.504 28.228 134.776 28.228C134.032 28.228 133.42 28.084 132.94 27.796C132.46 27.5 132.104 27.084 131.872 26.548C131.64 26.012 131.524 25.368 131.524 24.616L131.536 16.708H129.256V15.22H131.536V11.98H133.264V15.22H137.776L137.764 16.708H133.264L133.252 24.616Z" fill="black"/>
<path d="M1 6.35211L6 1V39L1 33.6479V6.35211Z" fill="white"/>
<path d="M6 1L1 6.35211V33.6479L6 39" stroke="black" stroke-linecap="round"/>
<path d="M149 33.6479L144 39L144 1L149 6.35211L149 33.6479Z" fill="white"/>
<path d="M144 39L149 33.6479L149 6.35211L144 1" stroke="black" stroke-linecap="round"/>
</svg>
