<svg width="134" height="40" viewBox="0 0 134 40" fill="none" xmlns="http://www.w3.org/2000/svg">
<path d="M6 1H128V39H6V1Z" fill="white"/>
<path d="M6 1.5H128V0.5H6V1.5ZM128 38.5H6V39.5H128V38.5Z" fill="black"/>
<path d="M19.2264 28.228C17.8984 28.228 16.7344 27.948 15.7344 27.388C14.7344 26.82 13.9544 26.044 13.3944 25.06C12.8344 24.076 12.5544 22.94 12.5544 21.652C12.5544 20.356 12.8344 19.208 13.3944 18.208C13.9544 17.2 14.7344 16.412 15.7344 15.844C16.7344 15.276 17.8984 14.992 19.2264 14.992C20.5544 14.992 21.7184 15.276 22.7184 15.844C23.7184 16.412 24.4984 17.2 25.0584 18.208C25.6184 19.208 25.8984 20.356 25.8984 21.652C25.8984 22.94 25.6184 24.076 25.0584 25.06C24.4984 26.044 23.7184 26.82 22.7184 27.388C21.7184 27.948 20.5544 28.228 19.2264 28.228ZM19.2264 26.632C20.1864 26.632 21.0304 26.424 21.7584 26.008C22.4944 25.592 23.0664 25.012 23.4744 24.268C23.8904 23.516 24.0984 22.644 24.0984 21.652C24.0984 20.652 23.8904 19.772 23.4744 19.012C23.0664 18.252 22.4944 17.66 21.7584 17.236C21.0304 16.804 20.1864 16.588 19.2264 16.588C18.2664 16.588 17.4184 16.804 16.6824 17.236C15.9544 17.66 15.3824 18.252 14.9664 19.012C14.5584 19.772 14.3544 20.652 14.3544 21.652C14.3544 22.644 14.5584 23.516 14.9664 24.268C15.3824 25.012 15.9544 25.592 16.6824 26.008C17.4184 26.424 18.2664 26.632 19.2264 26.632ZM38.4513 16.708H35.9793V15.22H40.1793V26.512H42.6753V28H38.4513V16.708ZM31.3113 15.22V23.368C31.3113 24.416 31.5433 25.244 32.0073 25.852C32.4793 26.452 33.2193 26.752 34.2273 26.752C35.0353 26.752 35.7553 26.548 36.3873 26.14C37.0273 25.724 37.5313 25.128 37.8993 24.352C38.2673 23.576 38.4513 22.644 38.4513 21.556L38.8713 24.112H38.3673C38.1513 25.488 37.6153 26.528 36.7593 27.232C35.9113 27.928 34.8673 28.276 33.6273 28.276C32.2513 28.276 31.2313 27.868 30.5673 27.052C29.9113 26.236 29.5833 25.104 29.5833 23.656V16.708H27.2673V15.22H31.3113ZM47.4485 24.616C47.4485 25.288 47.5765 25.796 47.8325 26.14C48.0885 26.476 48.4805 26.644 49.0085 26.644C49.5285 26.644 49.9205 26.472 50.1845 26.128C50.4485 25.776 50.5805 25.272 50.5805 24.616V23.428H52.1405V24.604C52.1405 25.372 52.0245 26.028 51.7925 26.572C51.5685 27.108 51.2245 27.52 50.7605 27.808C50.2965 28.088 49.7005 28.228 48.9725 28.228C48.2285 28.228 47.6165 28.084 47.1365 27.796C46.6565 27.5 46.3005 27.084 46.0685 26.548C45.8365 26.012 45.7205 25.368 45.7205 24.616L45.7325 16.708H43.4525V15.22H45.7325V11.98H47.4605V15.22H51.9725L51.9605 16.708H47.4605L47.4485 24.616ZM60.0187 33.304C58.8987 33.304 57.8827 33.196 56.9707 32.98C56.0667 32.772 55.3467 32.44 54.8107 31.984C54.2747 31.528 54.0067 30.924 54.0067 30.172C54.0067 29.42 54.2747 28.848 54.8107 28.456C55.3547 28.072 56.0547 27.82 56.9107 27.7V27.496L59.0467 27.7C58.1587 27.7 57.4627 27.804 56.9587 28.012C56.4547 28.228 56.0987 28.5 55.8907 28.828C55.6827 29.164 55.5787 29.508 55.5787 29.86C55.5787 30.404 55.7787 30.828 56.1787 31.132C56.5787 31.436 57.1147 31.652 57.7867 31.78C58.4667 31.908 59.2267 31.972 60.0667 31.972C61.7547 31.972 62.9867 31.744 63.7627 31.288C64.5467 30.84 64.9387 30.212 64.9387 29.404C64.9387 28.268 64.2027 27.7 62.7307 27.7H57.8347C56.8747 27.7 56.1187 27.528 55.5667 27.184C55.0227 26.832 54.7507 26.328 54.7507 25.672C54.7507 25.048 54.9987 24.572 55.4947 24.244C55.9907 23.908 56.6987 23.704 57.6187 23.632V23.272L59.8027 23.896H58.4947C57.8067 23.896 57.2827 23.992 56.9227 24.184C56.5627 24.368 56.3827 24.652 56.3827 25.036C56.3827 25.396 56.5467 25.656 56.8747 25.816C57.2107 25.968 57.7147 26.044 58.3867 26.044H62.6827C63.5067 26.044 64.2067 26.18 64.7827 26.452C65.3667 26.716 65.8067 27.096 66.1027 27.592C66.4067 28.088 66.5587 28.68 66.5587 29.368C66.5587 30.104 66.3507 30.768 65.9347 31.36C65.5187 31.96 64.8307 32.432 63.8707 32.776C62.9187 33.128 61.6347 33.304 60.0187 33.304ZM59.8027 23.896C58.7867 23.896 57.8827 23.712 57.0907 23.344C56.2987 22.976 55.6747 22.46 55.2187 21.796C54.7627 21.132 54.5347 20.352 54.5347 19.456C54.5347 18.56 54.7587 17.78 55.2067 17.116C55.6627 16.444 56.2827 15.924 57.0667 15.556C57.8587 15.18 58.7707 14.992 59.8027 14.992C60.8507 14.992 61.7747 15.188 62.5747 15.58C63.3827 15.972 63.9987 16.516 64.4227 17.212C64.6307 17.532 64.7827 17.88 64.8787 18.256C64.9827 18.624 65.0347 19.024 65.0347 19.456C65.0347 20.352 64.8107 21.132 64.3627 21.796C63.9147 22.46 63.2947 22.976 62.5027 23.344C61.7187 23.712 60.8187 23.896 59.8027 23.896ZM59.8027 22.48C60.4827 22.48 61.0867 22.356 61.6147 22.108C62.1507 21.86 62.5707 21.508 62.8747 21.052C63.1867 20.596 63.3427 20.064 63.3427 19.456C63.3427 18.848 63.1867 18.316 62.8747 17.86C62.5707 17.396 62.1507 17.04 61.6147 16.792C61.0867 16.536 60.4827 16.408 59.8027 16.408C59.1067 16.408 58.4907 16.536 57.9547 16.792C57.4187 17.04 56.9947 17.396 56.6827 17.86C56.3787 18.316 56.2267 18.848 56.2267 19.456C56.2267 20.064 56.3787 20.596 56.6827 21.052C56.9947 21.508 57.4187 21.86 57.9547 22.108C58.4987 22.356 59.1147 22.48 59.8027 22.48ZM65.0347 19.456L64.4347 18.052L63.9067 17.188L64.3867 16.996C64.3627 16.916 64.3427 16.836 64.3267 16.756C64.3187 16.668 64.3147 16.576 64.3147 16.48C64.3147 16.144 64.3947 15.84 64.5547 15.568C64.7147 15.296 64.9467 15.08 65.2507 14.92C65.5547 14.76 65.9267 14.68 66.3667 14.68C66.4787 14.68 66.5787 14.684 66.6667 14.692C66.7627 14.7 66.8547 14.716 66.9427 14.74V16.408C66.7907 16.384 66.6507 16.368 66.5227 16.36C66.3947 16.344 66.2667 16.336 66.1387 16.336C65.8027 16.336 65.5307 16.384 65.3227 16.48C65.1227 16.576 64.9787 16.7 64.8907 16.852C64.8027 16.996 64.7587 17.156 64.7587 17.332C64.7587 17.5 64.7827 17.684 64.8307 17.884C64.8787 18.076 64.9227 18.3 64.9627 18.556C65.0107 18.812 65.0347 19.112 65.0347 19.456ZM74.7986 28.228C73.4706 28.228 72.3066 27.948 71.3066 27.388C70.3066 26.82 69.5266 26.044 68.9666 25.06C68.4066 24.076 68.1266 22.94 68.1266 21.652C68.1266 20.356 68.4066 19.208 68.9666 18.208C69.5266 17.2 70.3066 16.412 71.3066 15.844C72.3066 15.276 73.4706 14.992 74.7986 14.992C76.1266 14.992 77.2906 15.276 78.2906 15.844C79.2906 16.412 80.0706 17.2 80.6306 18.208C81.1906 19.208 81.4706 20.356 81.4706 21.652C81.4706 22.94 81.1906 24.076 80.6306 25.06C80.0706 26.044 79.2906 26.82 78.2906 27.388C77.2906 27.948 76.1266 28.228 74.7986 28.228ZM74.7986 26.632C75.7586 26.632 76.6026 26.424 77.3306 26.008C78.0666 25.592 78.6386 25.012 79.0466 24.268C79.4626 23.516 79.6706 22.644 79.6706 21.652C79.6706 20.652 79.4626 19.772 79.0466 19.012C78.6386 18.252 78.0666 17.66 77.3306 17.236C76.6026 16.804 75.7586 16.588 74.7986 16.588C73.8386 16.588 72.9906 16.804 72.2546 17.236C71.5266 17.66 70.9546 18.252 70.5386 19.012C70.1306 19.772 69.9266 20.652 69.9266 21.652C69.9266 22.644 70.1306 23.516 70.5386 24.268C70.9546 25.012 71.5266 25.592 72.2546 26.008C72.9906 26.424 73.8386 26.632 74.7986 26.632ZM87.9395 26.512H90.3995V28H83.6195V26.512H86.2115V16.708H83.6195V15.22H87.9395V26.512ZM85.8875 9.832H88.0955V12.124H85.8875V9.832ZM96.1052 26.512H98.3852V28H91.7492V26.512H94.3772V16.708H91.7492V15.22H96.1052V26.512ZM103.473 26.512V19.828C103.473 18.78 103.237 17.956 102.765 17.356C102.293 16.756 101.549 16.456 100.533 16.456C99.7092 16.456 98.9612 16.66 98.2892 17.068C97.6172 17.476 97.0852 18.068 96.6932 18.844C96.3012 19.62 96.1052 20.56 96.1052 21.664L95.7092 19.108H96.1892C96.3412 18.236 96.6332 17.496 97.0652 16.888C97.4972 16.272 98.0492 15.804 98.7212 15.484C99.4012 15.156 100.181 14.992 101.061 14.992C102.453 14.992 103.489 15.396 104.169 16.204C104.857 17.004 105.201 18.136 105.201 19.6V26.512H107.661V28H101.229V26.512H103.473ZM115.122 33.304C114.002 33.304 112.986 33.196 112.074 32.98C111.17 32.772 110.45 32.44 109.914 31.984C109.378 31.528 109.11 30.924 109.11 30.172C109.11 29.42 109.378 28.848 109.914 28.456C110.458 28.072 111.158 27.82 112.014 27.7V27.496L114.15 27.7C113.262 27.7 112.566 27.804 112.062 28.012C111.558 28.228 111.202 28.5 110.994 28.828C110.786 29.164 110.682 29.508 110.682 29.86C110.682 30.404 110.882 30.828 111.282 31.132C111.682 31.436 112.218 31.652 112.89 31.78C113.57 31.908 114.33 31.972 115.17 31.972C116.858 31.972 118.09 31.744 118.866 31.288C119.65 30.84 120.042 30.212 120.042 29.404C120.042 28.268 119.306 27.7 117.834 27.7H112.938C111.978 27.7 111.222 27.528 110.67 27.184C110.126 26.832 109.854 26.328 109.854 25.672C109.854 25.048 110.102 24.572 110.598 24.244C111.094 23.908 111.802 23.704 112.722 23.632V23.272L114.906 23.896H113.598C112.91 23.896 112.386 23.992 112.026 24.184C111.666 24.368 111.486 24.652 111.486 25.036C111.486 25.396 111.65 25.656 111.978 25.816C112.314 25.968 112.818 26.044 113.49 26.044H117.786C118.61 26.044 119.31 26.18 119.886 26.452C120.47 26.716 120.91 27.096 121.206 27.592C121.51 28.088 121.662 28.68 121.662 29.368C121.662 30.104 121.454 30.768 121.038 31.36C120.622 31.96 119.934 32.432 118.974 32.776C118.022 33.128 116.738 33.304 115.122 33.304ZM114.906 23.896C113.89 23.896 112.986 23.712 112.194 23.344C111.402 22.976 110.778 22.46 110.322 21.796C109.866 21.132 109.638 20.352 109.638 19.456C109.638 18.56 109.862 17.78 110.31 17.116C110.766 16.444 111.386 15.924 112.17 15.556C112.962 15.18 113.874 14.992 114.906 14.992C115.954 14.992 116.878 15.188 117.678 15.58C118.486 15.972 119.102 16.516 119.526 17.212C119.734 17.532 119.886 17.88 119.982 18.256C120.086 18.624 120.138 19.024 120.138 19.456C120.138 20.352 119.914 21.132 119.466 21.796C119.018 22.46 118.398 22.976 117.606 23.344C116.822 23.712 115.922 23.896 114.906 23.896ZM114.906 22.48C115.586 22.48 116.19 22.356 116.718 22.108C117.254 21.86 117.674 21.508 117.978 21.052C118.29 20.596 118.446 20.064 118.446 19.456C118.446 18.848 118.29 18.316 117.978 17.86C117.674 17.396 117.254 17.04 116.718 16.792C116.19 16.536 115.586 16.408 114.906 16.408C114.21 16.408 113.594 16.536 113.058 16.792C112.522 17.04 112.098 17.396 111.786 17.86C111.482 18.316 111.33 18.848 111.33 19.456C111.33 20.064 111.482 20.596 111.786 21.052C112.098 21.508 112.522 21.86 113.058 22.108C113.602 22.356 114.218 22.48 114.906 22.48ZM120.138 19.456L119.538 18.052L119.01 17.188L119.49 16.996C119.466 16.916 119.446 16.836 119.43 16.756C119.422 16.668 119.418 16.576 119.418 16.48C119.418 16.144 119.498 15.84 119.658 15.568C119.818 15.296 120.05 15.08 120.354 14.92C120.658 14.76 121.03 14.68 121.47 14.68C121.582 14.68 121.682 14.684 121.77 14.692C121.866 14.7 121.958 14.716 122.046 14.74V16.408C121.894 16.384 121.754 16.368 121.626 16.36C121.498 16.344 121.37 16.336 121.242 16.336C120.906 16.336 120.634 16.384 120.426 16.48C120.226 16.576 120.082 16.7 119.994 16.852C119.906 16.996 119.862 17.156 119.862 17.332C119.862 17.5 119.886 17.684 119.934 17.884C119.982 18.076 120.026 18.3 120.066 18.556C120.114 18.812 120.138 19.112 120.138 19.456Z" fill="black"/>
<path d="M1 6.35211L6 1V39L1 33.6479V6.35211Z" fill="white"/>
<path d="M6 1L1 6.35211V33.6479L6 39" stroke="black" stroke-linecap="round"/>
<path d="M133 33.6479L128 39L128 1L133 6.35211L133 33.6479Z" fill="white"/>
<path d="M128 39L133 33.6479L133 6.35211L128 1" stroke="black" stroke-linecap="round"/>
</svg>
