<svg width="159" height="40" viewBox="0 0 159 40" fill="none" xmlns="http://www.w3.org/2000/svg">
<path d="M6 1H153V39H6V1Z" fill="white"/>
<path d="M6 1.5H153V0.5H6V1.5ZM153 38.5H6V39.5H153V38.5Z" fill="black"/>
<path d="M18.5785 28.228C17.7225 28.228 16.9985 28.1 16.4065 27.844C15.8225 27.588 15.3585 27.248 15.0145 26.824C14.6705 26.392 14.4465 25.912 14.3425 25.384H13.9105L14.2585 23.968C14.4105 24.808 14.8265 25.492 15.5065 26.02C16.1945 26.548 17.0865 26.812 18.1825 26.812C19.1185 26.812 19.8425 26.624 20.3545 26.248C20.8745 25.864 21.1345 25.308 21.1345 24.58C21.1345 23.916 20.8785 23.4 20.3665 23.032C19.8545 22.664 18.9585 22.384 17.6785 22.192C15.8465 21.904 14.5425 21.452 13.7665 20.836C12.9905 20.212 12.6025 19.392 12.6025 18.376C12.6025 17.352 12.9585 16.532 13.6705 15.916C14.3825 15.3 15.3745 14.992 16.6465 14.992C17.4865 14.992 18.1785 15.12 18.7225 15.376C19.2745 15.632 19.6985 15.976 19.9945 16.408C20.2905 16.832 20.4825 17.3 20.5705 17.812H21.0025L20.6545 19.168C20.5105 18.352 20.1185 17.688 19.4785 17.176C18.8385 16.656 18.0025 16.396 16.9705 16.396C16.1385 16.396 15.4865 16.572 15.0145 16.924C14.5505 17.276 14.3185 17.744 14.3185 18.328C14.3185 18.944 14.6105 19.428 15.1945 19.78C15.7785 20.124 16.6985 20.396 17.9545 20.596C19.7305 20.876 20.9905 21.336 21.7345 21.976C22.4785 22.616 22.8505 23.48 22.8505 24.568C22.8505 25.712 22.4825 26.608 21.7465 27.256C21.0185 27.904 19.9625 28.228 18.5785 28.228ZM12.5305 28V23.968H14.2585V28H12.5305ZM20.6545 19.168V15.22H22.3825V19.168H20.6545ZM32.3223 15.22H38.2743V16.708H36.6783L31.3983 29.704C30.9663 30.776 30.2983 31.6 29.3943 32.176C28.4983 32.752 27.3823 33.04 26.0463 33.04H24.7863V31.516H26.0463C26.9423 31.516 27.7223 31.328 28.3863 30.952C29.0583 30.584 29.5463 30.04 29.8503 29.32L30.7623 27.076L30.4623 28.564L25.5783 16.708H23.8143V15.22H29.8863V16.708H27.4623L31.7703 27.472L30.1983 26.08H31.8543L30.9543 26.896L34.9503 16.708H32.3223V15.22ZM45.4388 28.228C44.5828 28.228 43.8588 28.1 43.2668 27.844C42.6828 27.588 42.2188 27.248 41.8748 26.824C41.5308 26.392 41.3068 25.912 41.2028 25.384H40.7708L41.1188 23.968C41.2708 24.808 41.6868 25.492 42.3668 26.02C43.0548 26.548 43.9468 26.812 45.0428 26.812C45.9788 26.812 46.7028 26.624 47.2148 26.248C47.7348 25.864 47.9948 25.308 47.9948 24.58C47.9948 23.916 47.7388 23.4 47.2268 23.032C46.7148 22.664 45.8188 22.384 44.5388 22.192C42.7068 21.904 41.4028 21.452 40.6268 20.836C39.8508 20.212 39.4628 19.392 39.4628 18.376C39.4628 17.352 39.8188 16.532 40.5308 15.916C41.2428 15.3 42.2348 14.992 43.5068 14.992C44.3468 14.992 45.0388 15.12 45.5828 15.376C46.1348 15.632 46.5588 15.976 46.8548 16.408C47.1508 16.832 47.3428 17.3 47.4308 17.812H47.8628L47.5148 19.168C47.3708 18.352 46.9788 17.688 46.3388 17.176C45.6988 16.656 44.8628 16.396 43.8308 16.396C42.9988 16.396 42.3468 16.572 41.8748 16.924C41.4108 17.276 41.1788 17.744 41.1788 18.328C41.1788 18.944 41.4708 19.428 42.0548 19.78C42.6388 20.124 43.5588 20.396 44.8148 20.596C46.5908 20.876 47.8508 21.336 48.5948 21.976C49.3388 22.616 49.7108 23.48 49.7108 24.568C49.7108 25.712 49.3428 26.608 48.6068 27.256C47.8788 27.904 46.8228 28.228 45.4388 28.228ZM39.3908 28V23.968H41.1188V28H39.3908ZM47.5148 19.168V15.22H49.2428V19.168H47.5148ZM55.1438 24.616C55.1438 25.288 55.2718 25.796 55.5278 26.14C55.7838 26.476 56.1758 26.644 56.7038 26.644C57.2238 26.644 57.6158 26.472 57.8798 26.128C58.1438 25.776 58.2758 25.272 58.2758 24.616V23.428H59.8358V24.604C59.8358 25.372 59.7198 26.028 59.4878 26.572C59.2638 27.108 58.9198 27.52 58.4558 27.808C57.9918 28.088 57.3958 28.228 56.6678 28.228C55.9238 28.228 55.3118 28.084 54.8318 27.796C54.3518 27.5 53.9958 27.084 53.7638 26.548C53.5318 26.012 53.4158 25.368 53.4158 24.616L53.4278 16.708H51.1478V15.22H53.4278V11.98H55.1558V15.22H59.6678L59.6558 16.708H55.1558L55.1438 24.616ZM68.146 28.228C66.826 28.228 65.682 27.948 64.714 27.388C63.746 26.828 62.998 26.056 62.47 25.072C61.942 24.08 61.678 22.94 61.678 21.652C61.678 20.348 61.942 19.196 62.47 18.196C63.006 17.196 63.75 16.412 64.702 15.844C65.662 15.276 66.778 14.992 68.05 14.992C69.33 14.992 70.438 15.272 71.374 15.832C72.31 16.392 73.03 17.168 73.534 18.16C74.038 19.152 74.29 20.296 74.29 21.592C74.29 21.744 74.286 21.864 74.278 21.952C74.278 22.04 74.27 22.116 74.254 22.18H72.55C72.558 22.084 72.562 21.98 72.562 21.868C72.57 21.748 72.574 21.612 72.574 21.46C72.574 20.508 72.39 19.664 72.022 18.928C71.662 18.184 71.146 17.6 70.474 17.176C69.802 16.752 68.994 16.54 68.05 16.54C67.13 16.54 66.322 16.76 65.626 17.2C64.93 17.632 64.39 18.232 64.006 19C63.622 19.76 63.43 20.644 63.43 21.652C63.43 22.628 63.618 23.492 63.994 24.244C64.378 24.988 64.922 25.572 65.626 25.996C66.33 26.42 67.166 26.632 68.134 26.632C69.142 26.632 70.014 26.396 70.75 25.924C71.494 25.444 72.046 24.792 72.406 23.968L74.038 24.58C73.566 25.708 72.81 26.6 71.77 27.256C70.738 27.904 69.53 28.228 68.146 28.228ZM62.77 22.18V20.848H73.738L74.242 22.18H62.77ZM93.8815 28V26.512H96.1375V19.804C96.1375 18.756 95.9055 17.936 95.4415 17.344C94.9775 16.752 94.2535 16.456 93.2695 16.456C92.4775 16.456 91.7735 16.664 91.1575 17.08C90.5415 17.496 90.0575 18.092 89.7055 18.868C89.3535 19.644 89.1775 20.576 89.1775 21.664L88.7575 19.096H89.2495C89.4495 17.704 89.9655 16.664 90.7975 15.976C91.6375 15.288 92.6575 14.944 93.8575 14.944C95.2095 14.944 96.2135 15.344 96.8695 16.144C97.5335 16.944 97.8655 18.072 97.8655 19.528V26.512H100.314V28H93.8815ZM76.1935 28V26.512H78.7495V16.708H76.1935V15.22H80.4775V26.512H82.7455V28H76.1935ZM85.1935 28V26.512H87.4495V19.804C87.4495 18.756 87.2175 17.936 86.7535 17.344C86.2895 16.752 85.5655 16.456 84.5815 16.456C83.7895 16.456 83.0855 16.664 82.4695 17.08C81.8535 17.496 81.3655 18.092 81.0055 18.868C80.6535 19.644 80.4775 20.576 80.4775 21.664L80.0695 19.096H80.5615C80.7535 17.704 81.2695 16.664 82.1095 15.976C82.9495 15.288 83.9695 14.944 85.1695 14.944C86.5215 14.944 87.5255 15.344 88.1815 16.144C88.8455 16.944 89.1775 18.072 89.1775 19.528V26.512H91.6255V28H85.1935ZM111.922 28C111.594 28 111.342 27.896 111.166 27.688C110.998 27.48 110.914 27.188 110.914 26.812V22.972L111.07 22.576L110.986 21.124L110.914 20.368V19.396C110.914 18.74 110.778 18.204 110.506 17.788C110.242 17.372 109.858 17.064 109.354 16.864C108.85 16.664 108.242 16.564 107.53 16.564C106.466 16.564 105.642 16.776 105.058 17.2C104.482 17.616 104.098 18.244 103.906 19.084L102.25 18.736C102.41 17.896 102.71 17.2 103.15 16.648C103.59 16.088 104.174 15.672 104.902 15.4C105.638 15.12 106.534 14.98 107.59 14.98C108.694 14.98 109.618 15.136 110.362 15.448C111.114 15.752 111.682 16.22 112.066 16.852C112.45 17.484 112.642 18.3 112.642 19.3V26.512H114.526V28H111.922ZM105.898 28.168C104.57 28.168 103.562 27.876 102.874 27.292C102.186 26.7 101.842 25.832 101.842 24.688C101.842 23.632 102.146 22.828 102.754 22.276C103.362 21.716 104.338 21.296 105.682 21.016L111.43 19.792V21.028L105.97 22.264C105.186 22.448 104.598 22.72 104.206 23.08C103.822 23.432 103.63 23.932 103.63 24.58C103.63 25.284 103.846 25.812 104.278 26.164C104.71 26.508 105.342 26.68 106.174 26.68C107.094 26.68 107.918 26.468 108.646 26.044C109.374 25.62 109.946 24.996 110.362 24.172C110.778 23.348 110.986 22.332 110.986 21.124L111.442 23.956H110.83C110.63 25.292 110.11 26.328 109.27 27.064C108.438 27.8 107.314 28.168 105.898 28.168ZM119.435 24.616C119.435 25.288 119.563 25.796 119.819 26.14C120.075 26.476 120.467 26.644 120.995 26.644C121.515 26.644 121.907 26.472 122.171 26.128C122.435 25.776 122.567 25.272 122.567 24.616V23.428H124.127V24.604C124.127 25.372 124.011 26.028 123.779 26.572C123.555 27.108 123.211 27.52 122.747 27.808C122.283 28.088 121.687 28.228 120.959 28.228C120.215 28.228 119.603 28.084 119.123 27.796C118.643 27.5 118.287 27.084 118.055 26.548C117.823 26.012 117.707 25.368 117.707 24.616L117.719 16.708H115.439V15.22H117.719V11.98H119.447V15.22H123.959L123.947 16.708H119.447L119.435 24.616ZM130.3 26.512H132.76V28H125.98V26.512H128.572V16.708H125.98V15.22H130.3V26.512ZM128.248 9.832H130.456V12.124H128.248V9.832ZM140.865 28.228C139.537 28.228 138.381 27.948 137.397 27.388C136.421 26.828 135.661 26.056 135.117 25.072C134.581 24.08 134.313 22.94 134.313 21.652C134.313 20.676 134.461 19.784 134.757 18.976C135.053 18.16 135.477 17.456 136.029 16.864C136.581 16.264 137.237 15.804 137.997 15.484C138.757 15.156 139.605 14.992 140.541 14.992C141.445 14.992 142.197 15.14 142.797 15.436C143.405 15.724 143.877 16.124 144.213 16.636C144.549 17.14 144.765 17.72 144.861 18.376H145.281L144.933 20.188C144.829 19.468 144.593 18.836 144.225 18.292C143.857 17.74 143.377 17.312 142.785 17.008C142.193 16.696 141.509 16.54 140.733 16.54C139.805 16.54 138.989 16.76 138.285 17.2C137.589 17.632 137.045 18.232 136.653 19C136.269 19.76 136.077 20.644 136.077 21.652C136.077 22.628 136.273 23.492 136.665 24.244C137.065 24.988 137.621 25.572 138.333 25.996C139.053 26.42 139.901 26.632 140.877 26.632C141.885 26.632 142.753 26.412 143.481 25.972C144.209 25.524 144.741 24.924 145.077 24.172L146.673 24.88C146.217 25.912 145.485 26.728 144.477 27.328C143.477 27.928 142.273 28.228 140.865 28.228ZM144.933 20.188V15.22H146.661V20.188H144.933Z" fill="black"/>
<path d="M1 6.35211L6 1V39L1 33.6479V6.35211Z" fill="white"/>
<path d="M6 1L1 6.35211V33.6479L6 39" stroke="black" stroke-linecap="round"/>
<path d="M158 33.6479L153 39L153 1L158 6.35211L158 33.6479Z" fill="white"/>
<path d="M153 39L158 33.6479L158 6.35211L153 1" stroke="black" stroke-linecap="round"/>
</svg>
