<svg width="177" height="40" viewBox="0 0 177 40" fill="none" xmlns="http://www.w3.org/2000/svg">
<path d="M6 1H171V39H6V1Z" fill="white"/>
<path d="M6 1.5H171V0.5H6V1.5ZM171 38.5H6V39.5H171V38.5Z" fill="black"/>
<path d="M19.0266 28.228C17.6986 28.228 16.5426 27.948 15.5586 27.388C14.5826 26.828 13.8226 26.056 13.2786 25.072C12.7426 24.08 12.4746 22.94 12.4746 21.652C12.4746 20.676 12.6226 19.784 12.9186 18.976C13.2146 18.16 13.6386 17.456 14.1906 16.864C14.7426 16.264 15.3986 15.804 16.1586 15.484C16.9186 15.156 17.7666 14.992 18.7026 14.992C19.6066 14.992 20.3586 15.14 20.9586 15.436C21.5666 15.724 22.0386 16.124 22.3746 16.636C22.7106 17.14 22.9266 17.72 23.0226 18.376H23.4426L23.0946 20.188C22.9906 19.468 22.7546 18.836 22.3866 18.292C22.0186 17.74 21.5386 17.312 20.9466 17.008C20.3546 16.696 19.6706 16.54 18.8946 16.54C17.9666 16.54 17.1506 16.76 16.4466 17.2C15.7506 17.632 15.2066 18.232 14.8146 19C14.4306 19.76 14.2386 20.644 14.2386 21.652C14.2386 22.628 14.4346 23.492 14.8266 24.244C15.2266 24.988 15.7826 25.572 16.4946 25.996C17.2146 26.42 18.0626 26.632 19.0386 26.632C20.0466 26.632 20.9146 26.412 21.6426 25.972C22.3706 25.524 22.9026 24.924 23.2386 24.172L24.8346 24.88C24.3786 25.912 23.6466 26.728 22.6386 27.328C21.6386 27.928 20.4346 28.228 19.0266 28.228ZM23.0946 20.188V15.22H24.8226V20.188H23.0946ZM37.1706 28C36.8426 28 36.5906 27.896 36.4146 27.688C36.2466 27.48 36.1626 27.188 36.1626 26.812V22.972L36.3186 22.576L36.2346 21.124L36.1626 20.368V19.396C36.1626 18.74 36.0266 18.204 35.7546 17.788C35.4906 17.372 35.1066 17.064 34.6026 16.864C34.0986 16.664 33.4906 16.564 32.7786 16.564C31.7146 16.564 30.8906 16.776 30.3066 17.2C29.7306 17.616 29.3466 18.244 29.1546 19.084L27.4986 18.736C27.6586 17.896 27.9586 17.2 28.3986 16.648C28.8386 16.088 29.4226 15.672 30.1506 15.4C30.8866 15.12 31.7826 14.98 32.8386 14.98C33.9426 14.98 34.8666 15.136 35.6106 15.448C36.3626 15.752 36.9306 16.22 37.3146 16.852C37.6986 17.484 37.8906 18.3 37.8906 19.3V26.512H39.7746V28H37.1706ZM31.1466 28.168C29.8186 28.168 28.8106 27.876 28.1226 27.292C27.4346 26.7 27.0906 25.832 27.0906 24.688C27.0906 23.632 27.3946 22.828 28.0026 22.276C28.6106 21.716 29.5866 21.296 30.9306 21.016L36.6786 19.792V21.028L31.2186 22.264C30.4346 22.448 29.8466 22.72 29.4546 23.08C29.0706 23.432 28.8786 23.932 28.8786 24.58C28.8786 25.284 29.0946 25.812 29.5266 26.164C29.9586 26.508 30.5906 26.68 31.4226 26.68C32.3426 26.68 33.1666 26.468 33.8946 26.044C34.6226 25.62 35.1946 24.996 35.6106 24.172C36.0266 23.348 36.2346 22.332 36.2346 21.124L36.6906 23.956H36.0786C35.8786 25.292 35.3586 26.328 34.5186 27.064C33.6866 27.8 32.5626 28.168 31.1466 28.168ZM47.6237 28.228C46.7677 28.228 46.0437 28.1 45.4517 27.844C44.8677 27.588 44.4037 27.248 44.0597 26.824C43.7157 26.392 43.4917 25.912 43.3877 25.384H42.9557L43.3037 23.968C43.4557 24.808 43.8717 25.492 44.5517 26.02C45.2397 26.548 46.1317 26.812 47.2277 26.812C48.1637 26.812 48.8877 26.624 49.3997 26.248C49.9197 25.864 50.1797 25.308 50.1797 24.58C50.1797 23.916 49.9237 23.4 49.4117 23.032C48.8997 22.664 48.0037 22.384 46.7237 22.192C44.8917 21.904 43.5877 21.452 42.8117 20.836C42.0357 20.212 41.6477 19.392 41.6477 18.376C41.6477 17.352 42.0037 16.532 42.7157 15.916C43.4277 15.3 44.4197 14.992 45.6917 14.992C46.5317 14.992 47.2237 15.12 47.7677 15.376C48.3197 15.632 48.7437 15.976 49.0397 16.408C49.3357 16.832 49.5277 17.3 49.6157 17.812H50.0477L49.6997 19.168C49.5557 18.352 49.1637 17.688 48.5237 17.176C47.8837 16.656 47.0477 16.396 46.0157 16.396C45.1837 16.396 44.5317 16.572 44.0597 16.924C43.5957 17.276 43.3637 17.744 43.3637 18.328C43.3637 18.944 43.6557 19.428 44.2397 19.78C44.8237 20.124 45.7437 20.396 46.9997 20.596C48.7757 20.876 50.0357 21.336 50.7797 21.976C51.5237 22.616 51.8957 23.48 51.8957 24.568C51.8957 25.712 51.5277 26.608 50.7917 27.256C50.0637 27.904 49.0077 28.228 47.6237 28.228ZM41.5757 28V23.968H43.3037V28H41.5757ZM49.6997 19.168V15.22H51.4277V19.168H49.6997ZM64.4687 16.708H61.9967V15.22H66.1967V26.512H68.6927V28H64.4687V16.708ZM57.3287 15.22V23.368C57.3287 24.416 57.5607 25.244 58.0247 25.852C58.4967 26.452 59.2367 26.752 60.2447 26.752C61.0527 26.752 61.7727 26.548 62.4047 26.14C63.0447 25.724 63.5487 25.128 63.9167 24.352C64.2847 23.576 64.4687 22.644 64.4687 21.556L64.8887 24.112H64.3847C64.1687 25.488 63.6327 26.528 62.7767 27.232C61.9287 27.928 60.8847 28.276 59.6447 28.276C58.2687 28.276 57.2487 27.868 56.5847 27.052C55.9287 26.236 55.6007 25.104 55.6007 23.656V16.708H53.2847V15.22H57.3287ZM80.4259 28C80.0979 28 79.8459 27.896 79.6699 27.688C79.5019 27.48 79.4179 27.188 79.4179 26.812V22.972L79.5739 22.576L79.4899 21.124L79.4179 20.368V19.396C79.4179 18.74 79.2819 18.204 79.0099 17.788C78.7459 17.372 78.3619 17.064 77.8579 16.864C77.3539 16.664 76.7459 16.564 76.0339 16.564C74.9699 16.564 74.1459 16.776 73.5619 17.2C72.9859 17.616 72.6019 18.244 72.4099 19.084L70.7539 18.736C70.9139 17.896 71.2139 17.2 71.6539 16.648C72.0939 16.088 72.6779 15.672 73.4059 15.4C74.1419 15.12 75.0379 14.98 76.0939 14.98C77.1979 14.98 78.1219 15.136 78.8659 15.448C79.6179 15.752 80.1859 16.22 80.5699 16.852C80.9539 17.484 81.1459 18.3 81.1459 19.3V26.512H83.0299V28H80.4259ZM74.4019 28.168C73.0739 28.168 72.0659 27.876 71.3779 27.292C70.6899 26.7 70.3459 25.832 70.3459 24.688C70.3459 23.632 70.6499 22.828 71.2579 22.276C71.8659 21.716 72.8419 21.296 74.1859 21.016L79.9339 19.792V21.028L74.4739 22.264C73.6899 22.448 73.1019 22.72 72.7099 23.08C72.3259 23.432 72.1339 23.932 72.1339 24.58C72.1339 25.284 72.3499 25.812 72.7819 26.164C73.2139 26.508 73.8459 26.68 74.6779 26.68C75.5979 26.68 76.4219 26.468 77.1499 26.044C77.8779 25.62 78.4499 24.996 78.8659 24.172C79.2819 23.348 79.4899 22.332 79.4899 21.124L79.9459 23.956H79.3339C79.1339 25.292 78.6139 26.328 77.7739 27.064C76.9419 27.8 75.8179 28.168 74.4019 28.168ZM88.575 26.512H91.203V28H84.219V26.512H86.847V10.528H84.219V9.04H88.575V26.512ZM109.759 28C109.431 28 109.179 27.896 109.003 27.688C108.835 27.48 108.751 27.188 108.751 26.812V22.972L108.907 22.576L108.823 21.124L108.751 20.368V19.396C108.751 18.74 108.615 18.204 108.343 17.788C108.079 17.372 107.695 17.064 107.191 16.864C106.687 16.664 106.079 16.564 105.367 16.564C104.303 16.564 103.479 16.776 102.895 17.2C102.319 17.616 101.935 18.244 101.743 19.084L100.087 18.736C100.247 17.896 100.547 17.2 100.987 16.648C101.427 16.088 102.011 15.672 102.739 15.4C103.475 15.12 104.371 14.98 105.427 14.98C106.531 14.98 107.455 15.136 108.199 15.448C108.951 15.752 109.519 16.22 109.903 16.852C110.287 17.484 110.479 18.3 110.479 19.3V26.512H112.363V28H109.759ZM103.735 28.168C102.407 28.168 101.399 27.876 100.711 27.292C100.023 26.7 99.6793 25.832 99.6793 24.688C99.6793 23.632 99.9833 22.828 100.591 22.276C101.199 21.716 102.175 21.296 103.519 21.016L109.267 19.792V21.028L103.807 22.264C103.023 22.448 102.435 22.72 102.043 23.08C101.659 23.432 101.467 23.932 101.467 24.58C101.467 25.284 101.683 25.812 102.115 26.164C102.547 26.508 103.179 26.68 104.011 26.68C104.931 26.68 105.755 26.468 106.483 26.044C107.211 25.62 107.783 24.996 108.199 24.172C108.615 23.348 108.823 22.332 108.823 21.124L109.279 23.956H108.667C108.467 25.292 107.947 26.328 107.107 27.064C106.275 27.8 105.151 28.168 103.735 28.168ZM117.272 24.616C117.272 25.288 117.4 25.796 117.656 26.14C117.912 26.476 118.304 26.644 118.832 26.644C119.352 26.644 119.744 26.472 120.008 26.128C120.272 25.776 120.404 25.272 120.404 24.616V23.428H121.964V24.604C121.964 25.372 121.848 26.028 121.616 26.572C121.392 27.108 121.048 27.52 120.584 27.808C120.12 28.088 119.524 28.228 118.796 28.228C118.052 28.228 117.44 28.084 116.96 27.796C116.48 27.5 116.124 27.084 115.892 26.548C115.66 26.012 115.544 25.368 115.544 24.616L115.556 16.708H113.276V15.22H115.556V11.98H117.284V15.22H121.796L121.784 16.708H117.284L117.272 24.616ZM127.035 24.616C127.035 25.288 127.163 25.796 127.419 26.14C127.675 26.476 128.067 26.644 128.595 26.644C129.115 26.644 129.507 26.472 129.771 26.128C130.035 25.776 130.167 25.272 130.167 24.616V23.428H131.727V24.604C131.727 25.372 131.611 26.028 131.379 26.572C131.155 27.108 130.811 27.52 130.347 27.808C129.883 28.088 129.287 28.228 128.559 28.228C127.815 28.228 127.203 28.084 126.723 27.796C126.243 27.5 125.887 27.084 125.655 26.548C125.423 26.012 125.307 25.368 125.307 24.616L125.319 16.708H123.039V15.22H125.319V11.98H127.047V15.22H131.559L131.547 16.708H127.047L127.035 24.616ZM137.9 26.512H140.36V28H133.58V26.512H136.172V16.708H133.58V15.22H137.9V26.512ZM135.848 9.832H138.056V12.124H135.848V9.832ZM146.065 26.512H148.561V28H141.709V26.512H144.337V16.708H141.709V15.22H146.065V26.512ZM150.973 17.056C150.829 17.016 150.673 16.984 150.505 16.96C150.345 16.936 150.169 16.924 149.977 16.924C148.793 16.924 147.845 17.368 147.133 18.256C146.421 19.136 146.065 20.36 146.065 21.928L145.657 19.132H146.149C146.261 18.284 146.493 17.556 146.845 16.948C147.197 16.332 147.653 15.86 148.213 15.532C148.781 15.196 149.445 15.028 150.205 15.028C150.349 15.028 150.477 15.036 150.589 15.052C150.709 15.06 150.837 15.076 150.973 15.1V17.056ZM158.53 28.228C157.21 28.228 156.066 27.948 155.098 27.388C154.13 26.828 153.382 26.056 152.854 25.072C152.326 24.08 152.062 22.94 152.062 21.652C152.062 20.348 152.326 19.196 152.854 18.196C153.39 17.196 154.134 16.412 155.086 15.844C156.046 15.276 157.162 14.992 158.434 14.992C159.714 14.992 160.822 15.272 161.758 15.832C162.694 16.392 163.414 17.168 163.918 18.16C164.422 19.152 164.674 20.296 164.674 21.592C164.674 21.744 164.67 21.864 164.662 21.952C164.662 22.04 164.654 22.116 164.638 22.18H162.934C162.942 22.084 162.946 21.98 162.946 21.868C162.954 21.748 162.958 21.612 162.958 21.46C162.958 20.508 162.774 19.664 162.406 18.928C162.046 18.184 161.53 17.6 160.858 17.176C160.186 16.752 159.378 16.54 158.434 16.54C157.514 16.54 156.706 16.76 156.01 17.2C155.314 17.632 154.774 18.232 154.39 19C154.006 19.76 153.814 20.644 153.814 21.652C153.814 22.628 154.002 23.492 154.378 24.244C154.762 24.988 155.306 25.572 156.01 25.996C156.714 26.42 157.55 26.632 158.518 26.632C159.526 26.632 160.398 26.396 161.134 25.924C161.878 25.444 162.43 24.792 162.79 23.968L164.422 24.58C163.95 25.708 163.194 26.6 162.154 27.256C161.122 27.904 159.914 28.228 158.53 28.228ZM153.154 22.18V20.848H164.122L164.626 22.18H153.154Z" fill="black"/>
<path d="M1 6.35211L6 1V39L1 33.6479V6.35211Z" fill="white"/>
<path d="M6 1L1 6.35211V33.6479L6 39" stroke="black" stroke-linecap="round"/>
<path d="M176 33.6479L171 39L171 1L176 6.35211L176 33.6479Z" fill="white"/>
<path d="M171 39L176 33.6479L176 6.35211L171 1" stroke="black" stroke-linecap="round"/>
</svg>
