<svg width="151" height="40" viewBox="0 0 151 40" fill="none" xmlns="http://www.w3.org/2000/svg">
<path d="M6 1H145V39H6V1Z" fill="white"/>
<path d="M6 1.5H145V0.5H6V1.5ZM145 38.5H6V39.5H145V38.5Z" fill="black"/>
<path d="M16.6438 26.512H19.1038V28H12.3238V26.512H14.9158V16.708H12.3238V15.22H16.6438V26.512ZM14.5918 9.832H16.7998V12.124H14.5918V9.832ZM24.8094 26.512H27.0894V28H20.4534V26.512H23.0814V16.708H20.4534V15.22H24.8094V26.512ZM32.1774 26.512V19.828C32.1774 18.78 31.9414 17.956 31.4694 17.356C30.9974 16.756 30.2534 16.456 29.2374 16.456C28.4134 16.456 27.6654 16.66 26.9934 17.068C26.3214 17.476 25.7894 18.068 25.3974 18.844C25.0054 19.62 24.8094 20.56 24.8094 21.664L24.4134 19.108H24.8934C25.0454 18.236 25.3374 17.496 25.7694 16.888C26.2014 16.272 26.7534 15.804 27.4254 15.484C28.1054 15.156 28.8854 14.992 29.7654 14.992C31.1574 14.992 32.1934 15.396 32.8734 16.204C33.5614 17.004 33.9054 18.136 33.9054 19.6V26.512H36.3654V28H29.9334V26.512H32.1774ZM48.7841 28V23.224L48.8561 22.288V20.764L48.7841 19.084V10.528H45.3401V9.04H50.5121V26.512H52.9601V28H48.7841ZM43.9721 14.98C45.0281 14.98 45.9721 15.212 46.8041 15.676C47.6441 16.14 48.3361 16.804 48.8801 17.668C49.4241 18.524 49.7841 19.552 49.9601 20.752L48.8561 21.58C48.8561 20.596 48.6641 19.724 48.2801 18.964C47.9041 18.204 47.3641 17.612 46.6601 17.188C45.9561 16.756 45.1201 16.54 44.1521 16.54C43.2001 16.54 42.3721 16.756 41.6681 17.188C40.9641 17.62 40.4201 18.216 40.0361 18.976C39.6601 19.736 39.4721 20.616 39.4721 21.616C39.4721 22.608 39.6681 23.484 40.0601 24.244C40.4521 25.004 41.0001 25.604 41.7041 26.044C42.4161 26.476 43.2321 26.692 44.1521 26.692C45.1121 26.692 45.9401 26.476 46.6361 26.044C47.3401 25.604 47.8841 25 48.2681 24.232C48.6601 23.464 48.8561 22.58 48.8561 21.58L49.1201 24.304H48.7121C48.5681 25.008 48.2881 25.66 47.8721 26.26C47.4561 26.852 46.9081 27.332 46.2281 27.7C45.5481 28.06 44.7321 28.24 43.7801 28.24C42.8921 28.24 42.0761 28.08 41.3321 27.76C40.5881 27.432 39.9441 26.972 39.4001 26.38C38.8561 25.78 38.4321 25.076 38.1281 24.268C37.8321 23.46 37.6841 22.576 37.6841 21.616C37.6841 20.32 37.9441 19.172 38.4641 18.172C38.9841 17.172 39.7121 16.392 40.6481 15.832C41.5921 15.264 42.7001 14.98 43.9721 14.98ZM58.9147 26.512H61.3747V28H54.5947V26.512H57.1867V16.708H54.5947V15.22H58.9147V26.512ZM56.8627 9.832H59.0707V12.124H56.8627V9.832ZM70.0807 15.22H75.7447V16.708H74.3047L69.6007 28H67.7287L62.8687 16.708H61.4407V15.22H67.2367V16.708H64.7407L69.4567 28L67.8367 26.188H69.4807L68.0767 28L72.5767 16.708H70.0807V15.22ZM81.2984 26.512H83.7584V28H76.9784V26.512H79.5704V16.708H76.9784V15.22H81.2984V26.512ZM79.2464 9.832H81.4544V12.124H79.2464V9.832ZM96.3641 28V23.224L96.4361 22.288V20.764L96.3641 19.084V10.528H92.9201V9.04H98.0921V26.512H100.54V28H96.3641ZM91.5521 14.98C92.6081 14.98 93.5521 15.212 94.3841 15.676C95.2241 16.14 95.9161 16.804 96.4601 17.668C97.0041 18.524 97.3641 19.552 97.5401 20.752L96.4361 21.58C96.4361 20.596 96.2441 19.724 95.8601 18.964C95.4841 18.204 94.9441 17.612 94.2401 17.188C93.5361 16.756 92.7001 16.54 91.7321 16.54C90.7801 16.54 89.9521 16.756 89.2481 17.188C88.5441 17.62 88.0001 18.216 87.6161 18.976C87.2401 19.736 87.0521 20.616 87.0521 21.616C87.0521 22.608 87.2481 23.484 87.6401 24.244C88.0321 25.004 88.5801 25.604 89.2841 26.044C89.9961 26.476 90.8121 26.692 91.7321 26.692C92.6921 26.692 93.5201 26.476 94.2161 26.044C94.9201 25.604 95.4641 25 95.8481 24.232C96.2401 23.464 96.4361 22.58 96.4361 21.58L96.7001 24.304H96.2921C96.1481 25.008 95.8681 25.66 95.4521 26.26C95.0361 26.852 94.4881 27.332 93.8081 27.7C93.1281 28.06 92.3121 28.24 91.3601 28.24C90.4721 28.24 89.6561 28.08 88.9121 27.76C88.1681 27.432 87.5241 26.972 86.9801 26.38C86.4361 25.78 86.0121 25.076 85.7081 24.268C85.4121 23.46 85.2641 22.576 85.2641 21.616C85.2641 20.32 85.5241 19.172 86.0441 18.172C86.5641 17.172 87.2921 16.392 88.2281 15.832C89.1721 15.264 90.2801 14.98 91.5521 14.98ZM112.579 16.708H110.107V15.22H114.307V26.512H116.803V28H112.579V16.708ZM105.439 15.22V23.368C105.439 24.416 105.671 25.244 106.135 25.852C106.607 26.452 107.347 26.752 108.355 26.752C109.163 26.752 109.883 26.548 110.515 26.14C111.155 25.724 111.659 25.128 112.027 24.352C112.395 23.576 112.579 22.644 112.579 21.556L112.999 24.112H112.495C112.279 25.488 111.743 26.528 110.887 27.232C110.039 27.928 108.995 28.276 107.755 28.276C106.379 28.276 105.359 27.868 104.695 27.052C104.039 26.236 103.711 25.104 103.711 23.656V16.708H101.395V15.22H105.439ZM128.536 28C128.208 28 127.956 27.896 127.78 27.688C127.612 27.48 127.528 27.188 127.528 26.812V22.972L127.684 22.576L127.6 21.124L127.528 20.368V19.396C127.528 18.74 127.392 18.204 127.12 17.788C126.856 17.372 126.472 17.064 125.968 16.864C125.464 16.664 124.856 16.564 124.144 16.564C123.08 16.564 122.256 16.776 121.672 17.2C121.096 17.616 120.712 18.244 120.52 19.084L118.864 18.736C119.024 17.896 119.324 17.2 119.764 16.648C120.204 16.088 120.788 15.672 121.516 15.4C122.252 15.12 123.148 14.98 124.204 14.98C125.308 14.98 126.232 15.136 126.976 15.448C127.728 15.752 128.296 16.22 128.68 16.852C129.064 17.484 129.256 18.3 129.256 19.3V26.512H131.14V28H128.536ZM122.512 28.168C121.184 28.168 120.176 27.876 119.488 27.292C118.8 26.7 118.456 25.832 118.456 24.688C118.456 23.632 118.76 22.828 119.368 22.276C119.976 21.716 120.952 21.296 122.296 21.016L128.044 19.792V21.028L122.584 22.264C121.8 22.448 121.212 22.72 120.82 23.08C120.436 23.432 120.244 23.932 120.244 24.58C120.244 25.284 120.46 25.812 120.892 26.164C121.324 26.508 121.956 26.68 122.788 26.68C123.708 26.68 124.532 26.468 125.26 26.044C125.988 25.62 126.56 24.996 126.976 24.172C127.392 23.348 127.6 22.332 127.6 21.124L128.056 23.956H127.444C127.244 25.292 126.724 26.328 125.884 27.064C125.052 27.8 123.928 28.168 122.512 28.168ZM136.685 26.512H139.313V28H132.329V26.512H134.957V10.528H132.329V9.04H136.685V26.512Z" fill="black"/>
<path d="M1 6.35211L6 1V39L1 33.6479V6.35211Z" fill="white"/>
<path d="M6 1L1 6.35211V33.6479L6 39" stroke="black" stroke-linecap="round"/>
<path d="M150 33.6479L145 39L145 1L150 6.35211L150 33.6479Z" fill="white"/>
<path d="M145 39L150 33.6479L150 6.35211L145 1" stroke="black" stroke-linecap="round"/>
</svg>
