<svg width="158" height="40" viewBox="0 0 158 40" fill="none" xmlns="http://www.w3.org/2000/svg">
<path d="M6 1H152V39H6V1Z" fill="white"/>
<path d="M6 1.5H152V0.5H6V1.5ZM152 38.5H6V39.5H152V38.5Z" fill="black"/>
<path d="M18.641 28.228C17.785 28.228 17.061 28.1 16.469 27.844C15.885 27.588 15.421 27.248 15.077 26.824C14.733 26.392 14.509 25.912 14.405 25.384H13.973L14.321 23.968C14.473 24.808 14.889 25.492 15.569 26.02C16.257 26.548 17.149 26.812 18.245 26.812C19.181 26.812 19.905 26.624 20.417 26.248C20.937 25.864 21.197 25.308 21.197 24.58C21.197 23.916 20.941 23.4 20.429 23.032C19.917 22.664 19.021 22.384 17.741 22.192C15.909 21.904 14.605 21.452 13.829 20.836C13.053 20.212 12.665 19.392 12.665 18.376C12.665 17.352 13.021 16.532 13.733 15.916C14.445 15.3 15.437 14.992 16.709 14.992C17.549 14.992 18.241 15.12 18.785 15.376C19.337 15.632 19.761 15.976 20.057 16.408C20.353 16.832 20.545 17.3 20.633 17.812H21.065L20.717 19.168C20.573 18.352 20.181 17.688 19.541 17.176C18.901 16.656 18.065 16.396 17.033 16.396C16.201 16.396 15.549 16.572 15.077 16.924C14.613 17.276 14.381 17.744 14.381 18.328C14.381 18.944 14.673 19.428 15.257 19.78C15.841 20.124 16.761 20.396 18.017 20.596C19.793 20.876 21.053 21.336 21.797 21.976C22.541 22.616 22.913 23.48 22.913 24.568C22.913 25.712 22.545 26.608 21.809 27.256C21.081 27.904 20.025 28.228 18.641 28.228ZM12.593 28V23.968H14.321V28H12.593ZM20.717 19.168V15.22H22.445V19.168H20.717ZM42.614 28V26.512H44.87V19.804C44.87 18.756 44.638 17.936 44.174 17.344C43.71 16.752 42.986 16.456 42.002 16.456C41.21 16.456 40.506 16.664 39.89 17.08C39.274 17.496 38.79 18.092 38.438 18.868C38.086 19.644 37.91 20.576 37.91 21.664L37.49 19.096H37.982C38.182 17.704 38.698 16.664 39.53 15.976C40.37 15.288 41.39 14.944 42.59 14.944C43.942 14.944 44.946 15.344 45.602 16.144C46.266 16.944 46.598 18.072 46.598 19.528V26.512H49.046V28H42.614ZM24.926 28V26.512H27.482V16.708H24.926V15.22H29.21V26.512H31.478V28H24.926ZM33.926 28V26.512H36.182V19.804C36.182 18.756 35.95 17.936 35.486 17.344C35.022 16.752 34.298 16.456 33.314 16.456C32.522 16.456 31.818 16.664 31.202 17.08C30.586 17.496 30.098 18.092 29.738 18.868C29.386 19.644 29.21 20.576 29.21 21.664L28.802 19.096H29.294C29.486 17.704 30.002 16.664 30.842 15.976C31.682 15.288 32.702 14.944 33.902 14.944C35.254 14.944 36.258 15.344 36.914 16.144C37.578 16.944 37.91 18.072 37.91 19.528V26.512H40.358V28H33.926ZM60.6542 28C60.3262 28 60.0742 27.896 59.8982 27.688C59.7302 27.48 59.6462 27.188 59.6462 26.812V22.972L59.8022 22.576L59.7182 21.124L59.6462 20.368V19.396C59.6462 18.74 59.5102 18.204 59.2382 17.788C58.9742 17.372 58.5902 17.064 58.0862 16.864C57.5822 16.664 56.9742 16.564 56.2622 16.564C55.1982 16.564 54.3742 16.776 53.7902 17.2C53.2142 17.616 52.8302 18.244 52.6382 19.084L50.9822 18.736C51.1422 17.896 51.4422 17.2 51.8822 16.648C52.3222 16.088 52.9062 15.672 53.6342 15.4C54.3702 15.12 55.2662 14.98 56.3222 14.98C57.4262 14.98 58.3502 15.136 59.0942 15.448C59.8462 15.752 60.4142 16.22 60.7982 16.852C61.1822 17.484 61.3742 18.3 61.3742 19.3V26.512H63.2582V28H60.6542ZM54.6302 28.168C53.3022 28.168 52.2942 27.876 51.6062 27.292C50.9182 26.7 50.5742 25.832 50.5742 24.688C50.5742 23.632 50.8782 22.828 51.4862 22.276C52.0942 21.716 53.0702 21.296 54.4142 21.016L60.1622 19.792V21.028L54.7022 22.264C53.9182 22.448 53.3302 22.72 52.9382 23.08C52.5542 23.432 52.3622 23.932 52.3622 24.58C52.3622 25.284 52.5782 25.812 53.0102 26.164C53.4422 26.508 54.0742 26.68 54.9062 26.68C55.8262 26.68 56.6502 26.468 57.3782 26.044C58.1062 25.62 58.6782 24.996 59.0942 24.172C59.5102 23.348 59.7182 22.332 59.7182 21.124L60.1742 23.956H59.5622C59.3622 25.292 58.8422 26.328 58.0022 27.064C57.1702 27.8 56.0462 28.168 54.6302 28.168ZM68.8033 26.512H71.4313V28H64.4473V26.512H67.0753V10.528H64.4473V9.04H68.8033V26.512ZM76.8545 26.512H79.4825V28H72.4985V26.512H75.1265V10.528H72.4985V9.04H76.8545V26.512ZM92.0149 26.512H94.2949V28H87.6589V26.512H90.2869V16.708H87.6589V15.22H92.0149V26.512ZM99.3829 26.512V19.828C99.3829 18.78 99.1469 17.956 98.6749 17.356C98.2029 16.756 97.4589 16.456 96.4429 16.456C95.6189 16.456 94.8709 16.66 94.1989 17.068C93.5269 17.476 92.9949 18.068 92.6029 18.844C92.2109 19.62 92.0149 20.56 92.0149 21.664L91.6189 19.108H92.0989C92.2509 18.236 92.5429 17.496 92.9749 16.888C93.4069 16.272 93.9589 15.804 94.6309 15.484C95.3109 15.156 96.0909 14.992 96.9709 14.992C98.3629 14.992 99.3989 15.396 100.079 16.204C100.767 17.004 101.111 18.136 101.111 19.6V26.512H103.571V28H97.1389V26.512H99.3829ZM111.55 28.228C110.222 28.228 109.058 27.948 108.058 27.388C107.058 26.82 106.278 26.044 105.718 25.06C105.158 24.076 104.878 22.94 104.878 21.652C104.878 20.356 105.158 19.208 105.718 18.208C106.278 17.2 107.058 16.412 108.058 15.844C109.058 15.276 110.222 14.992 111.55 14.992C112.878 14.992 114.042 15.276 115.042 15.844C116.042 16.412 116.822 17.2 117.382 18.208C117.942 19.208 118.222 20.356 118.222 21.652C118.222 22.94 117.942 24.076 117.382 25.06C116.822 26.044 116.042 26.82 115.042 27.388C114.042 27.948 112.878 28.228 111.55 28.228ZM111.55 26.632C112.51 26.632 113.354 26.424 114.082 26.008C114.818 25.592 115.39 25.012 115.798 24.268C116.214 23.516 116.422 22.644 116.422 21.652C116.422 20.652 116.214 19.772 115.798 19.012C115.39 18.252 114.818 17.66 114.082 17.236C113.354 16.804 112.51 16.588 111.55 16.588C110.59 16.588 109.742 16.804 109.006 17.236C108.278 17.66 107.706 18.252 107.29 19.012C106.882 19.772 106.678 20.652 106.678 21.652C106.678 22.644 106.882 23.516 107.29 24.268C107.706 25.012 108.278 25.592 109.006 26.008C109.742 26.424 110.59 26.632 111.55 26.632ZM126.574 28.228C125.718 28.228 124.994 28.1 124.402 27.844C123.818 27.588 123.354 27.248 123.01 26.824C122.666 26.392 122.442 25.912 122.338 25.384H121.906L122.254 23.968C122.406 24.808 122.822 25.492 123.502 26.02C124.19 26.548 125.082 26.812 126.178 26.812C127.114 26.812 127.838 26.624 128.35 26.248C128.87 25.864 129.13 25.308 129.13 24.58C129.13 23.916 128.874 23.4 128.362 23.032C127.85 22.664 126.954 22.384 125.674 22.192C123.842 21.904 122.538 21.452 121.762 20.836C120.986 20.212 120.598 19.392 120.598 18.376C120.598 17.352 120.954 16.532 121.666 15.916C122.378 15.3 123.37 14.992 124.642 14.992C125.482 14.992 126.174 15.12 126.718 15.376C127.27 15.632 127.694 15.976 127.99 16.408C128.286 16.832 128.478 17.3 128.566 17.812H128.998L128.65 19.168C128.506 18.352 128.114 17.688 127.474 17.176C126.834 16.656 125.998 16.396 124.966 16.396C124.134 16.396 123.482 16.572 123.01 16.924C122.546 17.276 122.314 17.744 122.314 18.328C122.314 18.944 122.606 19.428 123.19 19.78C123.774 20.124 124.694 20.396 125.95 20.596C127.726 20.876 128.986 21.336 129.73 21.976C130.474 22.616 130.846 23.48 130.846 24.568C130.846 25.712 130.478 26.608 129.742 27.256C129.014 27.904 127.958 28.228 126.574 28.228ZM120.526 28V23.968H122.254V28H120.526ZM128.65 19.168V15.22H130.378V19.168H128.65ZM139.519 28.228C138.199 28.228 137.055 27.948 136.087 27.388C135.119 26.828 134.371 26.056 133.843 25.072C133.315 24.08 133.051 22.94 133.051 21.652C133.051 20.348 133.315 19.196 133.843 18.196C134.379 17.196 135.123 16.412 136.075 15.844C137.035 15.276 138.151 14.992 139.423 14.992C140.703 14.992 141.811 15.272 142.747 15.832C143.683 16.392 144.403 17.168 144.907 18.16C145.411 19.152 145.663 20.296 145.663 21.592C145.663 21.744 145.659 21.864 145.651 21.952C145.651 22.04 145.643 22.116 145.627 22.18H143.923C143.931 22.084 143.935 21.98 143.935 21.868C143.943 21.748 143.947 21.612 143.947 21.46C143.947 20.508 143.763 19.664 143.395 18.928C143.035 18.184 142.519 17.6 141.847 17.176C141.175 16.752 140.367 16.54 139.423 16.54C138.503 16.54 137.695 16.76 136.999 17.2C136.303 17.632 135.763 18.232 135.379 19C134.995 19.76 134.803 20.644 134.803 21.652C134.803 22.628 134.991 23.492 135.367 24.244C135.751 24.988 136.295 25.572 136.999 25.996C137.703 26.42 138.539 26.632 139.507 26.632C140.515 26.632 141.387 26.396 142.123 25.924C142.867 25.444 143.419 24.792 143.779 23.968L145.411 24.58C144.939 25.708 144.183 26.6 143.143 27.256C142.111 27.904 140.903 28.228 139.519 28.228ZM134.143 22.18V20.848H145.111L145.615 22.18H134.143Z" fill="black"/>
<path d="M1 6.35211L6 1V39L1 33.6479V6.35211Z" fill="white"/>
<path d="M6 1L1 6.35211V33.6479L6 39" stroke="black" stroke-linecap="round"/>
<path d="M157 33.6479L152 39L152 1L157 6.35211L157 33.6479Z" fill="white"/>
<path d="M152 39L157 33.6479L157 6.35211L152 1" stroke="black" stroke-linecap="round"/>
</svg>
