<svg width="219" height="40" viewBox="0 0 219 40" fill="none" xmlns="http://www.w3.org/2000/svg">
<path d="M6 1H213V39H6V1Z" fill="white"/>
<path d="M6 1.5H213V0.5H6V1.5ZM213 38.5H6V39.5H213V38.5Z" fill="black"/>
<path d="M19.2544 28.228C17.9264 28.228 16.7704 27.948 15.7864 27.388C14.8104 26.828 14.0504 26.056 13.5064 25.072C12.9704 24.08 12.7024 22.94 12.7024 21.652C12.7024 20.676 12.8504 19.784 13.1464 18.976C13.4424 18.16 13.8664 17.456 14.4184 16.864C14.9704 16.264 15.6264 15.804 16.3864 15.484C17.1464 15.156 17.9944 14.992 18.9304 14.992C19.8344 14.992 20.5864 15.14 21.1864 15.436C21.7944 15.724 22.2664 16.124 22.6024 16.636C22.9384 17.14 23.1544 17.72 23.2504 18.376H23.6704L23.3224 20.188C23.2184 19.468 22.9824 18.836 22.6144 18.292C22.2464 17.74 21.7664 17.312 21.1744 17.008C20.5824 16.696 19.8984 16.54 19.1224 16.54C18.1944 16.54 17.3784 16.76 16.6744 17.2C15.9784 17.632 15.4344 18.232 15.0424 19C14.6584 19.76 14.4664 20.644 14.4664 21.652C14.4664 22.628 14.6624 23.492 15.0544 24.244C15.4544 24.988 16.0104 25.572 16.7224 25.996C17.4424 26.42 18.2904 26.632 19.2664 26.632C20.2744 26.632 21.1424 26.412 21.8704 25.972C22.5984 25.524 23.1304 24.924 23.4664 24.172L25.0624 24.88C24.6064 25.912 23.8744 26.728 22.8664 27.328C21.8664 27.928 20.6624 28.228 19.2544 28.228ZM23.3224 20.188V15.22H25.0504V20.188H23.3224ZM33.8344 28.228C32.5064 28.228 31.3424 27.948 30.3424 27.388C29.3424 26.82 28.5624 26.044 28.0024 25.06C27.4424 24.076 27.1624 22.94 27.1624 21.652C27.1624 20.356 27.4424 19.208 28.0024 18.208C28.5624 17.2 29.3424 16.412 30.3424 15.844C31.3424 15.276 32.5064 14.992 33.8344 14.992C35.1624 14.992 36.3264 15.276 37.3264 15.844C38.3264 16.412 39.1064 17.2 39.6664 18.208C40.2264 19.208 40.5064 20.356 40.5064 21.652C40.5064 22.94 40.2264 24.076 39.6664 25.06C39.1064 26.044 38.3264 26.82 37.3264 27.388C36.3264 27.948 35.1624 28.228 33.8344 28.228ZM33.8344 26.632C34.7944 26.632 35.6384 26.424 36.3664 26.008C37.1024 25.592 37.6744 25.012 38.0824 24.268C38.4984 23.516 38.7064 22.644 38.7064 21.652C38.7064 20.652 38.4984 19.772 38.0824 19.012C37.6744 18.252 37.1024 17.66 36.3664 17.236C35.6384 16.804 34.7944 16.588 33.8344 16.588C32.8744 16.588 32.0264 16.804 31.2904 17.236C30.5624 17.66 29.9904 18.252 29.5744 19.012C29.1664 19.772 28.9624 20.652 28.9624 21.652C28.9624 22.644 29.1664 23.516 29.5744 24.268C29.9904 25.012 30.5624 25.592 31.2904 26.008C32.0264 26.424 32.8744 26.632 33.8344 26.632ZM46.2272 26.512H48.8552V28H41.8712V26.512H44.4992V10.528H41.8712V9.04H46.2272V26.512ZM56.7806 28.228C55.4526 28.228 54.2886 27.948 53.2886 27.388C52.2886 26.82 51.5086 26.044 50.9486 25.06C50.3886 24.076 50.1086 22.94 50.1086 21.652C50.1086 20.356 50.3886 19.208 50.9486 18.208C51.5086 17.2 52.2886 16.412 53.2886 15.844C54.2886 15.276 55.4526 14.992 56.7806 14.992C58.1086 14.992 59.2726 15.276 60.2726 15.844C61.2726 16.412 62.0526 17.2 62.6126 18.208C63.1726 19.208 63.4526 20.356 63.4526 21.652C63.4526 22.94 63.1726 24.076 62.6126 25.06C62.0526 26.044 61.2726 26.82 60.2726 27.388C59.2726 27.948 58.1086 28.228 56.7806 28.228ZM56.7806 26.632C57.7406 26.632 58.5846 26.424 59.3126 26.008C60.0486 25.592 60.6206 25.012 61.0286 24.268C61.4446 23.516 61.6526 22.644 61.6526 21.652C61.6526 20.652 61.4446 19.772 61.0286 19.012C60.6206 18.252 60.0486 17.66 59.3126 17.236C58.5846 16.804 57.7406 16.588 56.7806 16.588C55.8206 16.588 54.9726 16.804 54.2366 17.236C53.5086 17.66 52.9366 18.252 52.5206 19.012C52.1126 19.772 51.9086 20.652 51.9086 21.652C51.9086 22.644 52.1126 23.516 52.5206 24.268C52.9366 25.012 53.5086 25.592 54.2366 26.008C54.9726 26.424 55.8206 26.632 56.7806 26.632ZM69.8016 26.512H72.2976V28H65.4456V26.512H68.0736V16.708H65.4456V15.22H69.8016V26.512ZM74.7096 17.056C74.5656 17.016 74.4096 16.984 74.2416 16.96C74.0816 16.936 73.9056 16.924 73.7136 16.924C72.5296 16.924 71.5816 17.368 70.8696 18.256C70.1576 19.136 69.8016 20.36 69.8016 21.928L69.3936 19.132H69.8856C69.9976 18.284 70.2296 17.556 70.5816 16.948C70.9336 16.332 71.3896 15.86 71.9496 15.532C72.5176 15.196 73.1816 15.028 73.9416 15.028C74.0856 15.028 74.2136 15.036 74.3256 15.052C74.4456 15.06 74.5736 15.076 74.7096 15.1V17.056ZM75.8874 28V26.512H78.4194V16.708H75.8874V15.22H78.4194V13.24C78.4194 11.848 78.7714 10.764 79.4754 9.988C80.1794 9.204 81.2434 8.812 82.6674 8.812C83.8274 8.812 84.7274 9.068 85.3674 9.58C86.0154 10.092 86.4474 10.836 86.6634 11.812L85.1034 12.292C84.9594 11.66 84.6834 11.188 84.2754 10.876C83.8754 10.556 83.3394 10.396 82.6674 10.396C81.8674 10.396 81.2474 10.628 80.8074 11.092C80.3674 11.556 80.1474 12.272 80.1474 13.24V15.22H84.3954V16.708H80.1474V26.512H83.2074V28H75.8874ZM96.444 16.708H93.972V15.22H98.172V26.512H100.668V28H96.444V16.708ZM89.304 15.22V23.368C89.304 24.416 89.536 25.244 90 25.852C90.472 26.452 91.212 26.752 92.22 26.752C93.028 26.752 93.748 26.548 94.38 26.14C95.02 25.724 95.524 25.128 95.892 24.352C96.26 23.576 96.444 22.644 96.444 21.556L96.864 24.112H96.36C96.144 25.488 95.608 26.528 94.752 27.232C93.904 27.928 92.86 28.276 91.62 28.276C90.244 28.276 89.224 27.868 88.56 27.052C87.904 26.236 87.576 25.104 87.576 23.656V16.708H85.26V15.22H89.304ZM106.077 26.512H108.705V28H101.721V26.512H104.349V10.528H101.721V9.04H106.077V26.512ZM123.637 28.228C122.309 28.228 121.153 27.948 120.169 27.388C119.193 26.828 118.433 26.056 117.889 25.072C117.353 24.08 117.085 22.94 117.085 21.652C117.085 20.676 117.233 19.784 117.529 18.976C117.825 18.16 118.249 17.456 118.801 16.864C119.353 16.264 120.009 15.804 120.769 15.484C121.529 15.156 122.377 14.992 123.313 14.992C124.217 14.992 124.969 15.14 125.569 15.436C126.177 15.724 126.649 16.124 126.985 16.636C127.321 17.14 127.537 17.72 127.633 18.376H128.053L127.705 20.188C127.601 19.468 127.365 18.836 126.997 18.292C126.629 17.74 126.149 17.312 125.557 17.008C124.965 16.696 124.281 16.54 123.505 16.54C122.577 16.54 121.761 16.76 121.057 17.2C120.361 17.632 119.817 18.232 119.425 19C119.041 19.76 118.849 20.644 118.849 21.652C118.849 22.628 119.045 23.492 119.437 24.244C119.837 24.988 120.393 25.572 121.105 25.996C121.825 26.42 122.673 26.632 123.649 26.632C124.657 26.632 125.525 26.412 126.253 25.972C126.981 25.524 127.513 24.924 127.849 24.172L129.445 24.88C128.989 25.912 128.257 26.728 127.249 27.328C126.249 27.928 125.045 28.228 123.637 28.228ZM127.705 20.188V15.22H129.433V20.188H127.705ZM135.457 26.512H138.085V28H131.101V26.512H133.729V10.528H131.101V9.04H135.457V26.512ZM146.011 28.228C144.683 28.228 143.519 27.948 142.519 27.388C141.519 26.82 140.739 26.044 140.179 25.06C139.619 24.076 139.339 22.94 139.339 21.652C139.339 20.356 139.619 19.208 140.179 18.208C140.739 17.2 141.519 16.412 142.519 15.844C143.519 15.276 144.683 14.992 146.011 14.992C147.339 14.992 148.503 15.276 149.503 15.844C150.503 16.412 151.283 17.2 151.843 18.208C152.403 19.208 152.683 20.356 152.683 21.652C152.683 22.94 152.403 24.076 151.843 25.06C151.283 26.044 150.503 26.82 149.503 27.388C148.503 27.948 147.339 28.228 146.011 28.228ZM146.011 26.632C146.971 26.632 147.815 26.424 148.543 26.008C149.279 25.592 149.851 25.012 150.259 24.268C150.675 23.516 150.883 22.644 150.883 21.652C150.883 20.652 150.675 19.772 150.259 19.012C149.851 18.252 149.279 17.66 148.543 17.236C147.815 16.804 146.971 16.588 146.011 16.588C145.051 16.588 144.203 16.804 143.467 17.236C142.739 17.66 142.167 18.252 141.751 19.012C141.343 19.772 141.139 20.652 141.139 21.652C141.139 22.644 141.343 23.516 141.751 24.268C142.167 25.012 142.739 25.592 143.467 26.008C144.203 26.424 145.051 26.632 146.011 26.632ZM158.096 24.616C158.096 25.288 158.224 25.796 158.48 26.14C158.736 26.476 159.128 26.644 159.656 26.644C160.176 26.644 160.568 26.472 160.832 26.128C161.096 25.776 161.228 25.272 161.228 24.616V23.428H162.788V24.604C162.788 25.372 162.672 26.028 162.44 26.572C162.216 27.108 161.872 27.52 161.408 27.808C160.944 28.088 160.348 28.228 159.62 28.228C158.876 28.228 158.264 28.084 157.784 27.796C157.304 27.5 156.948 27.084 156.716 26.548C156.484 26.012 156.368 25.368 156.368 24.616L156.38 16.708H154.1V15.22H156.38V11.98H158.108V15.22H162.62L162.608 16.708H158.108L158.096 24.616ZM168.293 26.512H170.561V28H163.997V26.512H166.565V10.528H163.997V9.04H168.293V26.512ZM175.661 26.512V19.792C175.661 18.752 175.425 17.936 174.953 17.344C174.489 16.752 173.757 16.456 172.757 16.456C171.917 16.456 171.161 16.672 170.489 17.104C169.817 17.528 169.281 18.148 168.881 18.964C168.489 19.772 168.293 20.748 168.293 21.892L167.885 19.336H168.365C168.525 18.4 168.825 17.608 169.265 16.96C169.713 16.304 170.281 15.804 170.969 15.46C171.657 15.116 172.445 14.944 173.333 14.944C174.725 14.944 175.749 15.344 176.405 16.144C177.061 16.944 177.389 18.068 177.389 19.516V26.512H179.837V28H173.405V26.512H175.661ZM187.657 28.228C186.337 28.228 185.193 27.948 184.225 27.388C183.257 26.828 182.509 26.056 181.981 25.072C181.453 24.08 181.189 22.94 181.189 21.652C181.189 20.348 181.453 19.196 181.981 18.196C182.517 17.196 183.261 16.412 184.213 15.844C185.173 15.276 186.289 14.992 187.561 14.992C188.841 14.992 189.949 15.272 190.885 15.832C191.821 16.392 192.541 17.168 193.045 18.16C193.549 19.152 193.801 20.296 193.801 21.592C193.801 21.744 193.797 21.864 193.789 21.952C193.789 22.04 193.781 22.116 193.765 22.18H192.061C192.069 22.084 192.073 21.98 192.073 21.868C192.081 21.748 192.085 21.612 192.085 21.46C192.085 20.508 191.901 19.664 191.533 18.928C191.173 18.184 190.657 17.6 189.985 17.176C189.313 16.752 188.505 16.54 187.561 16.54C186.641 16.54 185.833 16.76 185.137 17.2C184.441 17.632 183.901 18.232 183.517 19C183.133 19.76 182.941 20.644 182.941 21.652C182.941 22.628 183.129 23.492 183.505 24.244C183.889 24.988 184.433 25.572 185.137 25.996C185.841 26.42 186.677 26.632 187.645 26.632C188.653 26.632 189.525 26.396 190.261 25.924C191.005 25.444 191.557 24.792 191.917 23.968L193.549 24.58C193.077 25.708 192.321 26.6 191.281 27.256C190.249 27.904 189.041 28.228 187.657 28.228ZM182.281 22.18V20.848H193.249L193.753 22.18H182.281ZM202.065 28.228C201.209 28.228 200.485 28.1 199.893 27.844C199.309 27.588 198.845 27.248 198.501 26.824C198.157 26.392 197.933 25.912 197.829 25.384H197.397L197.745 23.968C197.897 24.808 198.313 25.492 198.993 26.02C199.681 26.548 200.573 26.812 201.669 26.812C202.605 26.812 203.329 26.624 203.841 26.248C204.361 25.864 204.621 25.308 204.621 24.58C204.621 23.916 204.365 23.4 203.853 23.032C203.341 22.664 202.445 22.384 201.165 22.192C199.333 21.904 198.029 21.452 197.253 20.836C196.477 20.212 196.089 19.392 196.089 18.376C196.089 17.352 196.445 16.532 197.157 15.916C197.869 15.3 198.861 14.992 200.133 14.992C200.973 14.992 201.665 15.12 202.209 15.376C202.761 15.632 203.185 15.976 203.481 16.408C203.777 16.832 203.969 17.3 204.057 17.812H204.489L204.141 19.168C203.997 18.352 203.605 17.688 202.965 17.176C202.325 16.656 201.489 16.396 200.457 16.396C199.625 16.396 198.973 16.572 198.501 16.924C198.037 17.276 197.805 17.744 197.805 18.328C197.805 18.944 198.097 19.428 198.681 19.78C199.265 20.124 200.185 20.396 201.441 20.596C203.217 20.876 204.477 21.336 205.221 21.976C205.965 22.616 206.337 23.48 206.337 24.568C206.337 25.712 205.969 26.608 205.233 27.256C204.505 27.904 203.449 28.228 202.065 28.228ZM196.017 28V23.968H197.745V28H196.017ZM204.141 19.168V15.22H205.869V19.168H204.141Z" fill="black"/>
<path d="M1 6.35211L6 1V39L1 33.6479V6.35211Z" fill="white"/>
<path d="M6 1L1 6.35211V33.6479L6 39" stroke="black" stroke-linecap="round"/>
<path d="M218 33.6479L213 39L213 1L218 6.35211L218 33.6479Z" fill="white"/>
<path d="M213 39L218 33.6479L218 6.35211L213 1" stroke="black" stroke-linecap="round"/>
</svg>
