<svg width="250" height="40" viewBox="0 0 250 40" fill="none" xmlns="http://www.w3.org/2000/svg">
<path d="M6 1H244V39H6V1Z" fill="white"/>
<path d="M6 1.5H244V0.5H6V1.5ZM244 38.5H6V39.5H244V38.5Z" fill="black"/>
<path d="M19.2045 28.228C17.8765 28.228 16.7125 27.948 15.7125 27.388C14.7125 26.82 13.9325 26.044 13.3725 25.06C12.8125 24.076 12.5325 22.94 12.5325 21.652C12.5325 20.356 12.8125 19.208 13.3725 18.208C13.9325 17.2 14.7125 16.412 15.7125 15.844C16.7125 15.276 17.8765 14.992 19.2045 14.992C20.5325 14.992 21.6965 15.276 22.6965 15.844C23.6965 16.412 24.4765 17.2 25.0365 18.208C25.5965 19.208 25.8765 20.356 25.8765 21.652C25.8765 22.94 25.5965 24.076 25.0365 25.06C24.4765 26.044 23.6965 26.82 22.6965 27.388C21.6965 27.948 20.5325 28.228 19.2045 28.228ZM19.2045 26.632C20.1645 26.632 21.0085 26.424 21.7365 26.008C22.4725 25.592 23.0445 25.012 23.4525 24.268C23.8685 23.516 24.0765 22.644 24.0765 21.652C24.0765 20.652 23.8685 19.772 23.4525 19.012C23.0445 18.252 22.4725 17.66 21.7365 17.236C21.0085 16.804 20.1645 16.588 19.2045 16.588C18.2445 16.588 17.3965 16.804 16.6605 17.236C15.9325 17.66 15.3605 18.252 14.9445 19.012C14.5365 19.772 14.3325 20.652 14.3325 21.652C14.3325 22.644 14.5365 23.516 14.9445 24.268C15.3605 25.012 15.9325 25.592 16.6605 26.008C17.3965 26.424 18.2445 26.632 19.2045 26.632ZM35.0852 15.22H40.7492V16.708H39.3092L34.6052 28H32.7332L27.8732 16.708H26.4452V15.22H32.2412V16.708H29.7452L34.4612 28L32.8412 26.188H34.4852L33.0812 28L37.5812 16.708H35.0852V15.22ZM47.8307 28.228C46.5107 28.228 45.3667 27.948 44.3987 27.388C43.4307 26.828 42.6827 26.056 42.1547 25.072C41.6267 24.08 41.3627 22.94 41.3627 21.652C41.3627 20.348 41.6267 19.196 42.1547 18.196C42.6907 17.196 43.4347 16.412 44.3867 15.844C45.3467 15.276 46.4627 14.992 47.7347 14.992C49.0147 14.992 50.1227 15.272 51.0587 15.832C51.9947 16.392 52.7147 17.168 53.2187 18.16C53.7227 19.152 53.9747 20.296 53.9747 21.592C53.9747 21.744 53.9707 21.864 53.9627 21.952C53.9627 22.04 53.9547 22.116 53.9387 22.18H52.2347C52.2427 22.084 52.2467 21.98 52.2467 21.868C52.2547 21.748 52.2587 21.612 52.2587 21.46C52.2587 20.508 52.0747 19.664 51.7067 18.928C51.3467 18.184 50.8307 17.6 50.1587 17.176C49.4867 16.752 48.6787 16.54 47.7347 16.54C46.8147 16.54 46.0067 16.76 45.3107 17.2C44.6147 17.632 44.0747 18.232 43.6907 19C43.3067 19.76 43.1147 20.644 43.1147 21.652C43.1147 22.628 43.3027 23.492 43.6787 24.244C44.0627 24.988 44.6067 25.572 45.3107 25.996C46.0147 26.42 46.8507 26.632 47.8187 26.632C48.8267 26.632 49.6987 26.396 50.4347 25.924C51.1787 25.444 51.7307 24.792 52.0907 23.968L53.7227 24.58C53.2507 25.708 52.4947 26.6 51.4547 27.256C50.4227 27.904 49.2147 28.228 47.8307 28.228ZM42.4547 22.18V20.848H53.4227L53.9267 22.18H42.4547ZM60.2342 26.512H62.7302V28H55.8782V26.512H58.5062V16.708H55.8782V15.22H60.2342V26.512ZM65.1422 17.056C64.9982 17.016 64.8422 16.984 64.6742 16.96C64.5142 16.936 64.3382 16.924 64.1462 16.924C62.9622 16.924 62.0142 17.368 61.3022 18.256C60.5902 19.136 60.2342 20.36 60.2342 21.928L59.8262 19.132H60.3182C60.4302 18.284 60.6622 17.556 61.0142 16.948C61.3662 16.332 61.8222 15.86 62.3822 15.532C62.9502 15.196 63.6142 15.028 64.3742 15.028C64.5182 15.028 64.6462 15.036 64.7582 15.052C64.8782 15.06 65.0062 15.076 65.1422 15.1V17.056ZM71.4876 20.488V21.976H64.8036V20.488H71.4876ZM72.2151 28V26.512H74.7471V16.708H72.2151V15.22H74.7471V14.248C74.7471 12.552 75.1991 11.224 76.1031 10.264C77.0071 9.296 78.3111 8.812 80.0151 8.812C81.1911 8.812 82.1471 9.064 82.8831 9.568C83.6191 10.072 84.1031 10.868 84.3351 11.956H85.5831L84.4191 12.904C84.1151 12.04 83.6231 11.408 82.9431 11.008C82.2631 10.6 81.3951 10.396 80.3391 10.396C79.0991 10.396 78.1431 10.68 77.4711 11.248C76.8071 11.816 76.4751 12.772 76.4751 14.116V15.22H80.2071V16.708H76.4751V26.512H79.3671V28H72.2151ZM84.4191 12.904V9.04H86.1231V12.904H84.4191ZM86.2311 26.512H88.6911V28H81.8991V26.512H84.5031V16.708H81.8991V15.22H86.2311V26.512ZM93.4598 24.616C93.4598 25.288 93.5878 25.796 93.8438 26.14C94.0998 26.476 94.4918 26.644 95.0198 26.644C95.5398 26.644 95.9318 26.472 96.1958 26.128C96.4598 25.776 96.5918 25.272 96.5918 24.616V23.428H98.1518V24.604C98.1518 25.372 98.0358 26.028 97.8038 26.572C97.5798 27.108 97.2358 27.52 96.7718 27.808C96.3078 28.088 95.7118 28.228 94.9838 28.228C94.2398 28.228 93.6278 28.084 93.1478 27.796C92.6678 27.5 92.3118 27.084 92.0798 26.548C91.8478 26.012 91.7318 25.368 91.7318 24.616L91.7438 16.708H89.4638V15.22H91.7438V11.98H93.4718V15.22H97.9838L97.9718 16.708H93.4718L93.4598 24.616ZM103.222 24.616C103.222 25.288 103.35 25.796 103.606 26.14C103.862 26.476 104.254 26.644 104.782 26.644C105.302 26.644 105.694 26.472 105.958 26.128C106.222 25.776 106.354 25.272 106.354 24.616V23.428H107.914V24.604C107.914 25.372 107.798 26.028 107.566 26.572C107.342 27.108 106.998 27.52 106.534 27.808C106.07 28.088 105.474 28.228 104.746 28.228C104.002 28.228 103.39 28.084 102.91 27.796C102.43 27.5 102.074 27.084 101.842 26.548C101.61 26.012 101.494 25.368 101.494 24.616L101.506 16.708H99.226V15.22H101.506V11.98H103.234V15.22H107.746L107.734 16.708H103.234L103.222 24.616ZM116.224 28.228C114.904 28.228 113.76 27.948 112.792 27.388C111.824 26.828 111.076 26.056 110.548 25.072C110.02 24.08 109.756 22.94 109.756 21.652C109.756 20.348 110.02 19.196 110.548 18.196C111.084 17.196 111.828 16.412 112.78 15.844C113.74 15.276 114.856 14.992 116.128 14.992C117.408 14.992 118.516 15.272 119.452 15.832C120.388 16.392 121.108 17.168 121.612 18.16C122.116 19.152 122.368 20.296 122.368 21.592C122.368 21.744 122.364 21.864 122.356 21.952C122.356 22.04 122.348 22.116 122.332 22.18H120.628C120.636 22.084 120.64 21.98 120.64 21.868C120.648 21.748 120.652 21.612 120.652 21.46C120.652 20.508 120.468 19.664 120.1 18.928C119.74 18.184 119.224 17.6 118.552 17.176C117.88 16.752 117.072 16.54 116.128 16.54C115.208 16.54 114.4 16.76 113.704 17.2C113.008 17.632 112.468 18.232 112.084 19C111.7 19.76 111.508 20.644 111.508 21.652C111.508 22.628 111.696 23.492 112.072 24.244C112.456 24.988 113 25.572 113.704 25.996C114.408 26.42 115.244 26.632 116.212 26.632C117.22 26.632 118.092 26.396 118.828 25.924C119.572 25.444 120.124 24.792 120.484 23.968L122.116 24.58C121.644 25.708 120.888 26.6 119.848 27.256C118.816 27.904 117.608 28.228 116.224 28.228ZM110.848 22.18V20.848H121.816L122.32 22.18H110.848ZM135.528 28V23.224L135.6 22.288V20.764L135.528 19.084V10.528H132.084V9.04H137.256V26.512H139.704V28H135.528ZM130.716 14.98C131.772 14.98 132.716 15.212 133.548 15.676C134.388 16.14 135.08 16.804 135.624 17.668C136.168 18.524 136.528 19.552 136.704 20.752L135.6 21.58C135.6 20.596 135.408 19.724 135.024 18.964C134.648 18.204 134.108 17.612 133.404 17.188C132.7 16.756 131.864 16.54 130.896 16.54C129.944 16.54 129.116 16.756 128.412 17.188C127.708 17.62 127.164 18.216 126.78 18.976C126.404 19.736 126.216 20.616 126.216 21.616C126.216 22.608 126.412 23.484 126.804 24.244C127.196 25.004 127.744 25.604 128.448 26.044C129.16 26.476 129.976 26.692 130.896 26.692C131.856 26.692 132.684 26.476 133.38 26.044C134.084 25.604 134.628 25 135.012 24.232C135.404 23.464 135.6 22.58 135.6 21.58L135.864 24.304H135.456C135.312 25.008 135.032 25.66 134.616 26.26C134.2 26.852 133.652 27.332 132.972 27.7C132.292 28.06 131.476 28.24 130.524 28.24C129.636 28.24 128.82 28.08 128.076 27.76C127.332 27.432 126.688 26.972 126.144 26.38C125.6 25.78 125.176 25.076 124.872 24.268C124.576 23.46 124.428 22.576 124.428 21.616C124.428 20.32 124.688 19.172 125.208 18.172C125.728 17.172 126.456 16.392 127.392 15.832C128.336 15.264 129.444 14.98 130.716 14.98ZM154.747 28.228C153.419 28.228 152.263 27.948 151.279 27.388C150.303 26.828 149.543 26.056 148.999 25.072C148.463 24.08 148.195 22.94 148.195 21.652C148.195 20.676 148.343 19.784 148.639 18.976C148.935 18.16 149.359 17.456 149.911 16.864C150.463 16.264 151.119 15.804 151.879 15.484C152.639 15.156 153.487 14.992 154.423 14.992C155.327 14.992 156.079 15.14 156.679 15.436C157.287 15.724 157.759 16.124 158.095 16.636C158.431 17.14 158.647 17.72 158.743 18.376H159.163L158.815 20.188C158.711 19.468 158.475 18.836 158.107 18.292C157.739 17.74 157.259 17.312 156.667 17.008C156.075 16.696 155.391 16.54 154.615 16.54C153.687 16.54 152.871 16.76 152.167 17.2C151.471 17.632 150.927 18.232 150.535 19C150.151 19.76 149.959 20.644 149.959 21.652C149.959 22.628 150.155 23.492 150.547 24.244C150.947 24.988 151.503 25.572 152.215 25.996C152.935 26.42 153.783 26.632 154.759 26.632C155.767 26.632 156.635 26.412 157.363 25.972C158.091 25.524 158.623 24.924 158.959 24.172L160.555 24.88C160.099 25.912 159.367 26.728 158.359 27.328C157.359 27.928 156.155 28.228 154.747 28.228ZM158.815 20.188V15.22H160.543V20.188H158.815ZM166.567 26.512H169.195V28H162.211V26.512H164.839V10.528H162.211V9.04H166.567V26.512ZM177.121 28.228C175.793 28.228 174.629 27.948 173.629 27.388C172.629 26.82 171.849 26.044 171.289 25.06C170.729 24.076 170.449 22.94 170.449 21.652C170.449 20.356 170.729 19.208 171.289 18.208C171.849 17.2 172.629 16.412 173.629 15.844C174.629 15.276 175.793 14.992 177.121 14.992C178.449 14.992 179.613 15.276 180.613 15.844C181.613 16.412 182.393 17.2 182.953 18.208C183.513 19.208 183.793 20.356 183.793 21.652C183.793 22.94 183.513 24.076 182.953 25.06C182.393 26.044 181.613 26.82 180.613 27.388C179.613 27.948 178.449 28.228 177.121 28.228ZM177.121 26.632C178.081 26.632 178.925 26.424 179.653 26.008C180.389 25.592 180.961 25.012 181.369 24.268C181.785 23.516 181.993 22.644 181.993 21.652C181.993 20.652 181.785 19.772 181.369 19.012C180.961 18.252 180.389 17.66 179.653 17.236C178.925 16.804 178.081 16.588 177.121 16.588C176.161 16.588 175.313 16.804 174.577 17.236C173.849 17.66 173.277 18.252 172.861 19.012C172.453 19.772 172.249 20.652 172.249 21.652C172.249 22.644 172.453 23.516 172.861 24.268C173.277 25.012 173.849 25.592 174.577 26.008C175.313 26.424 176.161 26.632 177.121 26.632ZM189.206 24.616C189.206 25.288 189.334 25.796 189.59 26.14C189.846 26.476 190.238 26.644 190.766 26.644C191.286 26.644 191.678 26.472 191.942 26.128C192.206 25.776 192.338 25.272 192.338 24.616V23.428H193.898V24.604C193.898 25.372 193.782 26.028 193.55 26.572C193.326 27.108 192.982 27.52 192.518 27.808C192.054 28.088 191.458 28.228 190.73 28.228C189.986 28.228 189.374 28.084 188.894 27.796C188.414 27.5 188.058 27.084 187.826 26.548C187.594 26.012 187.478 25.368 187.478 24.616L187.49 16.708H185.21V15.22H187.49V11.98H189.218V15.22H193.73L193.718 16.708H189.218L189.206 24.616ZM199.403 26.512H201.671V28H195.107V26.512H197.675V10.528H195.107V9.04H199.403V26.512ZM206.771 26.512V19.792C206.771 18.752 206.535 17.936 206.063 17.344C205.599 16.752 204.867 16.456 203.867 16.456C203.027 16.456 202.271 16.672 201.599 17.104C200.927 17.528 200.391 18.148 199.991 18.964C199.599 19.772 199.403 20.748 199.403 21.892L198.995 19.336H199.475C199.635 18.4 199.935 17.608 200.375 16.96C200.823 16.304 201.391 15.804 202.079 15.46C202.767 15.116 203.555 14.944 204.443 14.944C205.835 14.944 206.859 15.344 207.515 16.144C208.171 16.944 208.499 18.068 208.499 19.516V26.512H210.947V28H204.515V26.512H206.771ZM218.767 28.228C217.447 28.228 216.303 27.948 215.335 27.388C214.367 26.828 213.619 26.056 213.091 25.072C212.563 24.08 212.299 22.94 212.299 21.652C212.299 20.348 212.563 19.196 213.091 18.196C213.627 17.196 214.371 16.412 215.323 15.844C216.283 15.276 217.399 14.992 218.671 14.992C219.951 14.992 221.059 15.272 221.995 15.832C222.931 16.392 223.651 17.168 224.155 18.16C224.659 19.152 224.911 20.296 224.911 21.592C224.911 21.744 224.907 21.864 224.899 21.952C224.899 22.04 224.891 22.116 224.875 22.18H223.171C223.179 22.084 223.183 21.98 223.183 21.868C223.191 21.748 223.195 21.612 223.195 21.46C223.195 20.508 223.011 19.664 222.643 18.928C222.283 18.184 221.767 17.6 221.095 17.176C220.423 16.752 219.615 16.54 218.671 16.54C217.751 16.54 216.943 16.76 216.247 17.2C215.551 17.632 215.011 18.232 214.627 19C214.243 19.76 214.051 20.644 214.051 21.652C214.051 22.628 214.239 23.492 214.615 24.244C214.999 24.988 215.543 25.572 216.247 25.996C216.951 26.42 217.787 26.632 218.755 26.632C219.763 26.632 220.635 26.396 221.371 25.924C222.115 25.444 222.667 24.792 223.027 23.968L224.659 24.58C224.187 25.708 223.431 26.6 222.391 27.256C221.359 27.904 220.151 28.228 218.767 28.228ZM213.391 22.18V20.848H224.359L224.863 22.18H213.391ZM233.174 28.228C232.318 28.228 231.594 28.1 231.002 27.844C230.418 27.588 229.954 27.248 229.61 26.824C229.266 26.392 229.042 25.912 228.938 25.384H228.506L228.854 23.968C229.006 24.808 229.422 25.492 230.102 26.02C230.79 26.548 231.682 26.812 232.778 26.812C233.714 26.812 234.438 26.624 234.95 26.248C235.47 25.864 235.73 25.308 235.73 24.58C235.73 23.916 235.474 23.4 234.962 23.032C234.45 22.664 233.554 22.384 232.274 22.192C230.442 21.904 229.138 21.452 228.362 20.836C227.586 20.212 227.198 19.392 227.198 18.376C227.198 17.352 227.554 16.532 228.266 15.916C228.978 15.3 229.97 14.992 231.242 14.992C232.082 14.992 232.774 15.12 233.318 15.376C233.87 15.632 234.294 15.976 234.59 16.408C234.886 16.832 235.078 17.3 235.166 17.812H235.598L235.25 19.168C235.106 18.352 234.714 17.688 234.074 17.176C233.434 16.656 232.598 16.396 231.566 16.396C230.734 16.396 230.082 16.572 229.61 16.924C229.146 17.276 228.914 17.744 228.914 18.328C228.914 18.944 229.206 19.428 229.79 19.78C230.374 20.124 231.294 20.396 232.55 20.596C234.326 20.876 235.586 21.336 236.33 21.976C237.074 22.616 237.446 23.48 237.446 24.568C237.446 25.712 237.078 26.608 236.342 27.256C235.614 27.904 234.558 28.228 233.174 28.228ZM227.126 28V23.968H228.854V28H227.126ZM235.25 19.168V15.22H236.978V19.168H235.25Z" fill="black"/>
<path d="M1 6.35211L6 1V39L1 33.6479V6.35211Z" fill="white"/>
<path d="M6 1L1 6.35211V33.6479L6 39" stroke="black" stroke-linecap="round"/>
<path d="M249 33.6479L244 39L244 1L249 6.35211L249 33.6479Z" fill="white"/>
<path d="M244 39L249 33.6479L249 6.35211L244 1" stroke="black" stroke-linecap="round"/>
</svg>
