<svg width="145" height="40" viewBox="0 0 145 40" fill="none" xmlns="http://www.w3.org/2000/svg">
<path d="M6 1H139V39H6V1Z" fill="white"/>
<path d="M6 1.5H139V0.5H6V1.5ZM139 38.5H6V39.5H139V38.5Z" fill="black"/>
<path d="M18.9262 28.228C18.0702 28.228 17.3462 28.1 16.7542 27.844C16.1702 27.588 15.7062 27.248 15.3622 26.824C15.0182 26.392 14.7942 25.912 14.6902 25.384H14.2582L14.6062 23.968C14.7582 24.808 15.1742 25.492 15.8542 26.02C16.5422 26.548 17.4342 26.812 18.5302 26.812C19.4662 26.812 20.1902 26.624 20.7022 26.248C21.2222 25.864 21.4822 25.308 21.4822 24.58C21.4822 23.916 21.2262 23.4 20.7142 23.032C20.2022 22.664 19.3062 22.384 18.0262 22.192C16.1942 21.904 14.8902 21.452 14.1142 20.836C13.3382 20.212 12.9502 19.392 12.9502 18.376C12.9502 17.352 13.3062 16.532 14.0182 15.916C14.7302 15.3 15.7222 14.992 16.9942 14.992C17.8342 14.992 18.5262 15.12 19.0702 15.376C19.6222 15.632 20.0462 15.976 20.3422 16.408C20.6382 16.832 20.8302 17.3 20.9182 17.812H21.3502L21.0022 19.168C20.8582 18.352 20.4662 17.688 19.8262 17.176C19.1862 16.656 18.3502 16.396 17.3182 16.396C16.4862 16.396 15.8342 16.572 15.3622 16.924C14.8982 17.276 14.6662 17.744 14.6662 18.328C14.6662 18.944 14.9582 19.428 15.5422 19.78C16.1262 20.124 17.0462 20.396 18.3022 20.596C20.0782 20.876 21.3382 21.336 22.0822 21.976C22.8262 22.616 23.1982 23.48 23.1982 24.568C23.1982 25.712 22.8302 26.608 22.0942 27.256C21.3662 27.904 20.3102 28.228 18.9262 28.228ZM12.8782 28V23.968H14.6062V28H12.8782ZM21.0022 19.168V15.22H22.7302V19.168H21.0022ZM29.1134 26.512H31.3814V28H24.8174V26.512H27.3854V10.528H24.8174V9.04H29.1134V26.512ZM36.4814 26.512V19.792C36.4814 18.752 36.2454 17.936 35.7734 17.344C35.3094 16.752 34.5774 16.456 33.5774 16.456C32.7374 16.456 31.9814 16.672 31.3094 17.104C30.6374 17.528 30.1014 18.148 29.7014 18.964C29.3094 19.772 29.1134 20.748 29.1134 21.892L28.7054 19.336H29.1854C29.3454 18.4 29.6454 17.608 30.0854 16.96C30.5334 16.304 31.1014 15.804 31.7894 15.46C32.4774 15.116 33.2654 14.944 34.1534 14.944C35.5454 14.944 36.5694 15.344 37.2254 16.144C37.8814 16.944 38.2094 18.068 38.2094 19.516V26.512H40.6574V28H34.2254V26.512H36.4814ZM48.6331 28.228C47.3051 28.228 46.1411 27.948 45.1411 27.388C44.1411 26.82 43.3611 26.044 42.8011 25.06C42.2411 24.076 41.9611 22.94 41.9611 21.652C41.9611 20.356 42.2411 19.208 42.8011 18.208C43.3611 17.2 44.1411 16.412 45.1411 15.844C46.1411 15.276 47.3051 14.992 48.6331 14.992C49.9611 14.992 51.1251 15.276 52.1251 15.844C53.1251 16.412 53.9051 17.2 54.4651 18.208C55.0251 19.208 55.3051 20.356 55.3051 21.652C55.3051 22.94 55.0251 24.076 54.4651 25.06C53.9051 26.044 53.1251 26.82 52.1251 27.388C51.1251 27.948 49.9611 28.228 48.6331 28.228ZM48.6331 26.632C49.5931 26.632 50.4371 26.424 51.1651 26.008C51.9011 25.592 52.4731 25.012 52.8811 24.268C53.2971 23.516 53.5051 22.644 53.5051 21.652C53.5051 20.652 53.2971 19.772 52.8811 19.012C52.4731 18.252 51.9011 17.66 51.1651 17.236C50.4371 16.804 49.5931 16.588 48.6331 16.588C47.6731 16.588 46.8251 16.804 46.0891 17.236C45.3611 17.66 44.7891 18.252 44.3731 19.012C43.9651 19.772 43.7611 20.652 43.7611 21.652C43.7611 22.644 43.9651 23.516 44.3731 24.268C44.7891 25.012 45.3611 25.592 46.0891 26.008C46.8251 26.424 47.6731 26.632 48.6331 26.632ZM61.6541 26.512H64.1501V28H57.2981V26.512H59.9261V16.708H57.2981V15.22H61.6541V26.512ZM66.5621 17.056C66.4181 17.016 66.2621 16.984 66.0941 16.96C65.9341 16.936 65.7581 16.924 65.5661 16.924C64.3821 16.924 63.4341 17.368 62.7221 18.256C62.0101 19.136 61.6541 20.36 61.6541 21.928L61.2461 19.132H61.7381C61.8501 18.284 62.0821 17.556 62.4341 16.948C62.7861 16.332 63.2421 15.86 63.8021 15.532C64.3701 15.196 65.0341 15.028 65.7941 15.028C65.9381 15.028 66.0661 15.036 66.1781 15.052C66.2981 15.06 66.4261 15.076 66.5621 15.1V17.056ZM71.1599 24.616C71.1599 25.288 71.2879 25.796 71.5439 26.14C71.7999 26.476 72.1919 26.644 72.7199 26.644C73.2399 26.644 73.6319 26.472 73.8959 26.128C74.1599 25.776 74.2919 25.272 74.2919 24.616V23.428H75.8519V24.604C75.8519 25.372 75.7359 26.028 75.5039 26.572C75.2799 27.108 74.9359 27.52 74.4719 27.808C74.0079 28.088 73.4119 28.228 72.6839 28.228C71.9399 28.228 71.3279 28.084 70.8479 27.796C70.3679 27.5 70.0119 27.084 69.7799 26.548C69.5479 26.012 69.4319 25.368 69.4319 24.616L69.4439 16.708H67.1639V15.22H69.4439V11.98H71.1719V15.22H75.6839L75.6719 16.708H71.1719L71.1599 24.616ZM88.3072 26.512H90.5752V28H84.0112V26.512H86.5792V10.528H84.0112V9.04H88.3072V26.512ZM95.6752 26.512V19.792C95.6752 18.752 95.4392 17.936 94.9672 17.344C94.5032 16.752 93.7712 16.456 92.7712 16.456C91.9312 16.456 91.1752 16.672 90.5032 17.104C89.8312 17.528 89.2952 18.148 88.8952 18.964C88.5032 19.772 88.3072 20.748 88.3072 21.892L87.8992 19.336H88.3792C88.5392 18.4 88.8392 17.608 89.2792 16.96C89.7272 16.304 90.2952 15.804 90.9832 15.46C91.6712 15.116 92.4592 14.944 93.3472 14.944C94.7392 14.944 95.7632 15.344 96.4192 16.144C97.0752 16.944 97.4032 18.068 97.4032 19.516V26.512H99.8512V28H93.4192V26.512H95.6752ZM111.461 28C111.133 28 110.881 27.896 110.705 27.688C110.537 27.48 110.453 27.188 110.453 26.812V22.972L110.609 22.576L110.525 21.124L110.453 20.368V19.396C110.453 18.74 110.317 18.204 110.045 17.788C109.781 17.372 109.397 17.064 108.893 16.864C108.389 16.664 107.781 16.564 107.069 16.564C106.005 16.564 105.181 16.776 104.597 17.2C104.021 17.616 103.637 18.244 103.445 19.084L101.789 18.736C101.949 17.896 102.249 17.2 102.689 16.648C103.129 16.088 103.713 15.672 104.441 15.4C105.177 15.12 106.073 14.98 107.129 14.98C108.233 14.98 109.157 15.136 109.901 15.448C110.653 15.752 111.221 16.22 111.605 16.852C111.989 17.484 112.181 18.3 112.181 19.3V26.512H114.065V28H111.461ZM105.437 28.168C104.109 28.168 103.101 27.876 102.413 27.292C101.725 26.7 101.381 25.832 101.381 24.688C101.381 23.632 101.685 22.828 102.293 22.276C102.901 21.716 103.877 21.296 105.221 21.016L110.969 19.792V21.028L105.509 22.264C104.725 22.448 104.137 22.72 103.745 23.08C103.361 23.432 103.169 23.932 103.169 24.58C103.169 25.284 103.385 25.812 103.817 26.164C104.249 26.508 104.881 26.68 105.713 26.68C106.633 26.68 107.457 26.468 108.185 26.044C108.913 25.62 109.485 24.996 109.901 24.172C110.317 23.348 110.525 22.332 110.525 21.124L110.981 23.956H110.369C110.169 25.292 109.649 26.328 108.809 27.064C107.977 27.8 106.853 28.168 105.437 28.168ZM120.03 26.512H122.49V28H115.71V26.512H118.302V16.708H115.71V15.22H120.03V26.512ZM117.978 9.832H120.186V12.124H117.978V9.832ZM128.196 26.512H130.692V28H123.84V26.512H126.468V16.708H123.84V15.22H128.196V26.512ZM133.104 17.056C132.96 17.016 132.804 16.984 132.636 16.96C132.476 16.936 132.3 16.924 132.108 16.924C130.924 16.924 129.976 17.368 129.264 18.256C128.552 19.136 128.196 20.36 128.196 21.928L127.788 19.132H128.28C128.392 18.284 128.624 17.556 128.976 16.948C129.328 16.332 129.784 15.86 130.344 15.532C130.912 15.196 131.576 15.028 132.336 15.028C132.48 15.028 132.608 15.036 132.72 15.052C132.84 15.06 132.968 15.076 133.104 15.1V17.056Z" fill="black"/>
<path d="M1 6.35211L6 1V39L1 33.6479V6.35211Z" fill="white"/>
<path d="M6 1L1 6.35211V33.6479L6 39" stroke="black" stroke-linecap="round"/>
<path d="M144 33.6479L139 39L139 1L144 6.35211L144 33.6479Z" fill="white"/>
<path d="M139 39L144 33.6479L144 6.35211L139 1" stroke="black" stroke-linecap="round"/>
</svg>
