<svg width="161" height="40" viewBox="0 0 161 40" fill="none" xmlns="http://www.w3.org/2000/svg">
<path d="M6 1H155V39H6V1Z" fill="white"/>
<path d="M6 1.5H155V0.5H6V1.5ZM155 38.5H6V39.5H155V38.5Z" fill="black"/>
<path d="M13.9543 28.264V10.528H11.3863V9.04H15.6823V19.696L15.6103 21.196V22.792L15.6823 25.12L14.1103 28.264H13.9543ZM20.4223 28.24C19.3503 28.24 18.3903 28.04 17.5423 27.64C16.7023 27.232 16.0063 26.656 15.4543 25.912C14.9103 25.16 14.5463 24.268 14.3623 23.236L15.6103 21.616C15.6103 22.6 15.7983 23.472 16.1743 24.232C16.5503 24.992 17.0903 25.592 17.7943 26.032C18.4983 26.464 19.3343 26.68 20.3023 26.68C21.2863 26.68 22.1263 26.468 22.8223 26.044C23.5263 25.62 24.0623 25.028 24.4303 24.268C24.8063 23.5 24.9943 22.608 24.9943 21.592C24.9943 20.6 24.7943 19.724 24.3943 18.964C24.0023 18.204 23.4543 17.608 22.7503 17.176C22.0463 16.744 21.2303 16.528 20.3023 16.528C19.3503 16.528 18.5223 16.744 17.8183 17.176C17.1143 17.608 16.5703 18.204 16.1863 18.964C15.8023 19.724 15.6103 20.608 15.6103 21.616L15.3343 18.916H15.7423C15.8943 18.212 16.1743 17.564 16.5823 16.972C16.9983 16.372 17.5463 15.892 18.2263 15.532C18.9143 15.164 19.7343 14.98 20.6863 14.98C21.5743 14.98 22.3903 15.144 23.1343 15.472C23.8783 15.792 24.5223 16.252 25.0663 16.852C25.6103 17.444 26.0303 18.148 26.3263 18.964C26.6223 19.772 26.7703 20.66 26.7703 21.628C26.7703 22.916 26.5063 24.06 25.9783 25.06C25.4583 26.052 24.7223 26.832 23.7703 27.4C22.8183 27.96 21.7023 28.24 20.4223 28.24ZM33.1258 26.512H35.6218V28H28.7698V26.512H31.3978V16.708H28.7698V15.22H33.1258V26.512ZM38.0338 17.056C37.8898 17.016 37.7338 16.984 37.5658 16.96C37.4058 16.936 37.2298 16.924 37.0378 16.924C35.8538 16.924 34.9058 17.368 34.1938 18.256C33.4818 19.136 33.1258 20.36 33.1258 21.928L32.7178 19.132H33.2098C33.3218 18.284 33.5538 17.556 33.9058 16.948C34.2578 16.332 34.7138 15.86 35.2738 15.532C35.8418 15.196 36.5058 15.028 37.2658 15.028C37.4098 15.028 37.5378 15.036 37.6498 15.052C37.7698 15.06 37.8978 15.076 38.0338 15.1V17.056ZM45.7464 28.228C44.4184 28.228 43.2544 27.948 42.2544 27.388C41.2544 26.82 40.4744 26.044 39.9144 25.06C39.3544 24.076 39.0744 22.94 39.0744 21.652C39.0744 20.356 39.3544 19.208 39.9144 18.208C40.4744 17.2 41.2544 16.412 42.2544 15.844C43.2544 15.276 44.4184 14.992 45.7464 14.992C47.0744 14.992 48.2384 15.276 49.2384 15.844C50.2384 16.412 51.0184 17.2 51.5784 18.208C52.1384 19.208 52.4184 20.356 52.4184 21.652C52.4184 22.94 52.1384 24.076 51.5784 25.06C51.0184 26.044 50.2384 26.82 49.2384 27.388C48.2384 27.948 47.0744 28.228 45.7464 28.228ZM45.7464 26.632C46.7064 26.632 47.5504 26.424 48.2784 26.008C49.0144 25.592 49.5864 25.012 49.9944 24.268C50.4104 23.516 50.6184 22.644 50.6184 21.652C50.6184 20.652 50.4104 19.772 49.9944 19.012C49.5864 18.252 49.0144 17.66 48.2784 17.236C47.5504 16.804 46.7064 16.588 45.7464 16.588C44.7864 16.588 43.9384 16.804 43.2024 17.236C42.4744 17.66 41.9024 18.252 41.4864 19.012C41.0784 19.772 40.8744 20.652 40.8744 21.652C40.8744 22.644 41.0784 23.516 41.4864 24.268C41.9024 25.012 42.4744 25.592 43.2024 26.008C43.9384 26.424 44.7864 26.632 45.7464 26.632ZM69.4254 15.22H75.2214V16.708H73.6614L69.6654 28H67.6614L63.6174 16.672L64.9854 18.412H63.3534L64.7214 16.672L60.9174 28H58.9014L54.7014 16.708H53.1294V15.22H59.0094V16.708H56.5494L60.4734 28L59.0334 26.332H60.7014L59.3934 28L63.3054 16.708H61.3014V15.22H67.2294V16.708H65.2734L69.3414 28L67.8774 26.332H69.5214L68.2854 28L72.0054 16.708H69.4254V15.22ZM80.717 26.512H82.997V28H76.361V26.512H78.989V16.708H76.361V15.22H80.717V26.512ZM88.085 26.512V19.828C88.085 18.78 87.849 17.956 87.377 17.356C86.905 16.756 86.161 16.456 85.145 16.456C84.321 16.456 83.573 16.66 82.901 17.068C82.229 17.476 81.697 18.068 81.305 18.844C80.913 19.62 80.717 20.56 80.717 21.664L80.321 19.108H80.801C80.953 18.236 81.245 17.496 81.677 16.888C82.109 16.272 82.661 15.804 83.333 15.484C84.013 15.156 84.793 14.992 85.673 14.992C87.065 14.992 88.101 15.396 88.781 16.204C89.469 17.004 89.813 18.136 89.813 19.6V26.512H92.273V28H85.841V26.512H88.085ZM104.311 26.512H106.579V28H100.015V26.512H102.583V10.528H100.015V9.04H104.311V26.512ZM111.679 26.512V19.792C111.679 18.752 111.443 17.936 110.971 17.344C110.507 16.752 109.775 16.456 108.775 16.456C107.935 16.456 107.179 16.672 106.507 17.104C105.835 17.528 105.299 18.148 104.899 18.964C104.507 19.772 104.311 20.748 104.311 21.892L103.903 19.336H104.383C104.543 18.4 104.843 17.608 105.283 16.96C105.731 16.304 106.299 15.804 106.987 15.46C107.675 15.116 108.463 14.944 109.351 14.944C110.743 14.944 111.767 15.344 112.423 16.144C113.079 16.944 113.407 18.068 113.407 19.516V26.512H115.855V28H109.423V26.512H111.679ZM127.465 28C127.137 28 126.885 27.896 126.709 27.688C126.541 27.48 126.457 27.188 126.457 26.812V22.972L126.613 22.576L126.529 21.124L126.457 20.368V19.396C126.457 18.74 126.321 18.204 126.049 17.788C125.785 17.372 125.401 17.064 124.897 16.864C124.393 16.664 123.785 16.564 123.073 16.564C122.009 16.564 121.185 16.776 120.601 17.2C120.025 17.616 119.641 18.244 119.449 19.084L117.793 18.736C117.953 17.896 118.253 17.2 118.693 16.648C119.133 16.088 119.717 15.672 120.445 15.4C121.181 15.12 122.077 14.98 123.133 14.98C124.237 14.98 125.161 15.136 125.905 15.448C126.657 15.752 127.225 16.22 127.609 16.852C127.993 17.484 128.185 18.3 128.185 19.3V26.512H130.069V28H127.465ZM121.441 28.168C120.113 28.168 119.105 27.876 118.417 27.292C117.729 26.7 117.385 25.832 117.385 24.688C117.385 23.632 117.689 22.828 118.297 22.276C118.905 21.716 119.881 21.296 121.225 21.016L126.973 19.792V21.028L121.513 22.264C120.729 22.448 120.141 22.72 119.749 23.08C119.365 23.432 119.173 23.932 119.173 24.58C119.173 25.284 119.389 25.812 119.821 26.164C120.253 26.508 120.885 26.68 121.717 26.68C122.637 26.68 123.461 26.468 124.189 26.044C124.917 25.62 125.489 24.996 125.905 24.172C126.321 23.348 126.529 22.332 126.529 21.124L126.985 23.956H126.373C126.173 25.292 125.653 26.328 124.813 27.064C123.981 27.8 122.857 28.168 121.441 28.168ZM136.034 26.512H138.494V28H131.714V26.512H134.306V16.708H131.714V15.22H136.034V26.512ZM133.982 9.832H136.19V12.124H133.982V9.832ZM144.2 26.512H146.696V28H139.844V26.512H142.472V16.708H139.844V15.22H144.2V26.512ZM149.108 17.056C148.964 17.016 148.808 16.984 148.64 16.96C148.48 16.936 148.304 16.924 148.112 16.924C146.928 16.924 145.98 17.368 145.268 18.256C144.556 19.136 144.2 20.36 144.2 21.928L143.792 19.132H144.284C144.396 18.284 144.628 17.556 144.98 16.948C145.332 16.332 145.788 15.86 146.348 15.532C146.916 15.196 147.58 15.028 148.34 15.028C148.484 15.028 148.612 15.036 148.724 15.052C148.844 15.06 148.972 15.076 149.108 15.1V17.056Z" fill="black"/>
<path d="M1 6.35211L6 1V39L1 33.6479V6.35211Z" fill="white"/>
<path d="M6 1L1 6.35211V33.6479L6 39" stroke="black" stroke-linecap="round"/>
<path d="M160 33.6479L155 39L155 1L160 6.35211L160 33.6479Z" fill="white"/>
<path d="M155 39L160 33.6479L160 6.35211L155 1" stroke="black" stroke-linecap="round"/>
</svg>
