<svg width="142" height="40" viewBox="0 0 142 40" fill="none" xmlns="http://www.w3.org/2000/svg">
<path d="M6 1H136V39H6V1Z" fill="white"/>
<path d="M6 1.5H136V0.5H6V1.5ZM136 38.5H6V39.5H136V38.5Z" fill="black"/>
<path d="M19.0292 28.228C17.7012 28.228 16.5452 27.948 15.5612 27.388C14.5852 26.828 13.8252 26.056 13.2812 25.072C12.7452 24.08 12.4772 22.94 12.4772 21.652C12.4772 20.676 12.6252 19.784 12.9212 18.976C13.2172 18.16 13.6412 17.456 14.1932 16.864C14.7452 16.264 15.4012 15.804 16.1612 15.484C16.9212 15.156 17.7692 14.992 18.7052 14.992C19.6092 14.992 20.3612 15.14 20.9612 15.436C21.5692 15.724 22.0412 16.124 22.3772 16.636C22.7132 17.14 22.9292 17.72 23.0252 18.376H23.4452L23.0972 20.188C22.9932 19.468 22.7572 18.836 22.3892 18.292C22.0212 17.74 21.5412 17.312 20.9492 17.008C20.3572 16.696 19.6732 16.54 18.8972 16.54C17.9692 16.54 17.1532 16.76 16.4492 17.2C15.7532 17.632 15.2092 18.232 14.8172 19C14.4332 19.76 14.2412 20.644 14.2412 21.652C14.2412 22.628 14.4372 23.492 14.8292 24.244C15.2292 24.988 15.7852 25.572 16.4972 25.996C17.2172 26.42 18.0652 26.632 19.0412 26.632C20.0492 26.632 20.9172 26.412 21.6452 25.972C22.3732 25.524 22.9052 24.924 23.2412 24.172L24.8372 24.88C24.3812 25.912 23.6492 26.728 22.6412 27.328C21.6412 27.928 20.4372 28.228 19.0292 28.228ZM23.0972 20.188V15.22H24.8252V20.188H23.0972ZM37.3532 16.708H34.8812V15.22H39.0812V26.512H41.5772V28H37.3532V16.708ZM30.2132 15.22V23.368C30.2132 24.416 30.4452 25.244 30.9092 25.852C31.3812 26.452 32.1212 26.752 33.1292 26.752C33.9372 26.752 34.6572 26.548 35.2892 26.14C35.9292 25.724 36.4332 25.128 36.8012 24.352C37.1692 23.576 37.3532 22.644 37.3532 21.556L37.7732 24.112H37.2692C37.0532 25.488 36.5172 26.528 35.6612 27.232C34.8132 27.928 33.7692 28.276 32.5292 28.276C31.1532 28.276 30.1332 27.868 29.4692 27.052C28.8132 26.236 28.4852 25.104 28.4852 23.656V16.708H26.1692V15.22H30.2132ZM47.2864 26.512H49.7824V28H42.9304V26.512H45.5584V16.708H42.9304V15.22H47.2864V26.512ZM52.1944 17.056C52.0504 17.016 51.8944 16.984 51.7264 16.96C51.5664 16.936 51.3904 16.924 51.1984 16.924C50.0144 16.924 49.0664 17.368 48.3544 18.256C47.6424 19.136 47.2864 20.36 47.2864 21.928L46.8784 19.132H47.3704C47.4824 18.284 47.7144 17.556 48.0664 16.948C48.4184 16.332 48.8744 15.86 49.4344 15.532C50.0024 15.196 50.6664 15.028 51.4264 15.028C51.5704 15.028 51.6984 15.036 51.8104 15.052C51.9304 15.06 52.0584 15.076 52.1944 15.1V17.056ZM56.9361 26.512H59.5641V28H52.5801V26.512H55.2081V10.528H52.5801V9.04H56.9361V26.512ZM68.062 15.22H74.014V16.708H72.418L67.138 29.704C66.706 30.776 66.038 31.6 65.134 32.176C64.238 32.752 63.122 33.04 61.786 33.04H60.526V31.516H61.786C62.682 31.516 63.462 31.328 64.126 30.952C64.798 30.584 65.286 30.04 65.59 29.32L66.502 27.076L66.202 28.564L61.318 16.708H59.554V15.22H65.626V16.708H63.202L67.51 27.472L65.938 26.08H67.594L66.694 26.896L70.69 16.708H68.062V15.22ZM85.6002 26.512H87.8682V28H81.3042V26.512H83.8722V10.528H81.3042V9.04H85.6002V26.512ZM92.9682 26.512V19.792C92.9682 18.752 92.7322 17.936 92.2602 17.344C91.7962 16.752 91.0642 16.456 90.0642 16.456C89.2242 16.456 88.4682 16.672 87.7962 17.104C87.1242 17.528 86.5882 18.148 86.1882 18.964C85.7962 19.772 85.6002 20.748 85.6002 21.892L85.1922 19.336H85.6722C85.8322 18.4 86.1322 17.608 86.5722 16.96C87.0202 16.304 87.5882 15.804 88.2762 15.46C88.9642 15.116 89.7522 14.944 90.6402 14.944C92.0322 14.944 93.0562 15.344 93.7122 16.144C94.3682 16.944 94.6962 18.068 94.6962 19.516V26.512H97.1442V28H90.7122V26.512H92.9682ZM108.754 28C108.426 28 108.174 27.896 107.998 27.688C107.83 27.48 107.746 27.188 107.746 26.812V22.972L107.902 22.576L107.818 21.124L107.746 20.368V19.396C107.746 18.74 107.61 18.204 107.338 17.788C107.074 17.372 106.69 17.064 106.186 16.864C105.682 16.664 105.074 16.564 104.362 16.564C103.298 16.564 102.474 16.776 101.89 17.2C101.314 17.616 100.93 18.244 100.738 19.084L99.0822 18.736C99.2422 17.896 99.5422 17.2 99.9822 16.648C100.422 16.088 101.006 15.672 101.734 15.4C102.47 15.12 103.366 14.98 104.422 14.98C105.526 14.98 106.45 15.136 107.194 15.448C107.946 15.752 108.514 16.22 108.898 16.852C109.282 17.484 109.474 18.3 109.474 19.3V26.512H111.358V28H108.754ZM102.73 28.168C101.402 28.168 100.394 27.876 99.7062 27.292C99.0182 26.7 98.6742 25.832 98.6742 24.688C98.6742 23.632 98.9782 22.828 99.5862 22.276C100.194 21.716 101.17 21.296 102.514 21.016L108.262 19.792V21.028L102.802 22.264C102.018 22.448 101.43 22.72 101.038 23.08C100.654 23.432 100.462 23.932 100.462 24.58C100.462 25.284 100.678 25.812 101.11 26.164C101.542 26.508 102.174 26.68 103.006 26.68C103.926 26.68 104.75 26.468 105.478 26.044C106.206 25.62 106.778 24.996 107.194 24.172C107.61 23.348 107.818 22.332 107.818 21.124L108.274 23.956H107.662C107.462 25.292 106.942 26.328 106.102 27.064C105.27 27.8 104.146 28.168 102.73 28.168ZM117.323 26.512H119.783V28H113.003V26.512H115.595V16.708H113.003V15.22H117.323V26.512ZM115.271 9.832H117.479V12.124H115.271V9.832ZM125.489 26.512H127.985V28H121.133V26.512H123.761V16.708H121.133V15.22H125.489V26.512ZM130.397 17.056C130.253 17.016 130.097 16.984 129.929 16.96C129.769 16.936 129.593 16.924 129.401 16.924C128.217 16.924 127.269 17.368 126.557 18.256C125.845 19.136 125.489 20.36 125.489 21.928L125.081 19.132H125.573C125.685 18.284 125.917 17.556 126.269 16.948C126.621 16.332 127.077 15.86 127.637 15.532C128.205 15.196 128.869 15.028 129.629 15.028C129.773 15.028 129.901 15.036 130.013 15.052C130.133 15.06 130.261 15.076 130.397 15.1V17.056Z" fill="black"/>
<path d="M1 6.35211L6 1V39L1 33.6479V6.35211Z" fill="white"/>
<path d="M6 1L1 6.35211V33.6479L6 39" stroke="black" stroke-linecap="round"/>
<path d="M141 33.6479L136 39L136 1L141 6.35211L141 33.6479Z" fill="white"/>
<path d="M136 39L141 33.6479L141 6.35211L136 1" stroke="black" stroke-linecap="round"/>
</svg>
