<svg width="78" height="40" viewBox="0 0 78 40" fill="none" xmlns="http://www.w3.org/2000/svg">
<path d="M6 1H72V39H6V1Z" fill="white"/>
<path d="M6 1.5H72V0.5H6V1.5ZM72 38.5H6V39.5H72V38.5Z" fill="black"/>
<path d="M19.1166 28.228C17.7886 28.228 16.6326 27.948 15.6486 27.388C14.6726 26.828 13.9126 26.056 13.3686 25.072C12.8326 24.08 12.5646 22.94 12.5646 21.652C12.5646 20.676 12.7126 19.784 13.0086 18.976C13.3046 18.16 13.7286 17.456 14.2806 16.864C14.8326 16.264 15.4886 15.804 16.2486 15.484C17.0086 15.156 17.8566 14.992 18.7926 14.992C19.6966 14.992 20.4486 15.14 21.0486 15.436C21.6566 15.724 22.1286 16.124 22.4646 16.636C22.8006 17.14 23.0166 17.72 23.1126 18.376H23.5326L23.1846 20.188C23.0806 19.468 22.8446 18.836 22.4766 18.292C22.1086 17.74 21.6286 17.312 21.0366 17.008C20.4446 16.696 19.7606 16.54 18.9846 16.54C18.0566 16.54 17.2406 16.76 16.5366 17.2C15.8406 17.632 15.2966 18.232 14.9046 19C14.5206 19.76 14.3286 20.644 14.3286 21.652C14.3286 22.628 14.5246 23.492 14.9166 24.244C15.3166 24.988 15.8726 25.572 16.5846 25.996C17.3046 26.42 18.1526 26.632 19.1286 26.632C20.1366 26.632 21.0046 26.412 21.7326 25.972C22.4606 25.524 22.9926 24.924 23.3286 24.172L24.9246 24.88C24.4686 25.912 23.7366 26.728 22.7286 27.328C21.7286 27.928 20.5246 28.228 19.1166 28.228ZM23.1846 20.188V15.22H24.9126V20.188H23.1846ZM37.4406 16.708H34.9686V15.22H39.1686V26.512H41.6646V28H37.4406V16.708ZM30.3006 15.22V23.368C30.3006 24.416 30.5326 25.244 30.9966 25.852C31.4686 26.452 32.2086 26.752 33.2166 26.752C34.0246 26.752 34.7446 26.548 35.3766 26.14C36.0166 25.724 36.5206 25.128 36.8886 24.352C37.2566 23.576 37.4406 22.644 37.4406 21.556L37.8606 24.112H37.3566C37.1406 25.488 36.6046 26.528 35.7486 27.232C34.9006 27.928 33.8566 28.276 32.6166 28.276C31.2406 28.276 30.2206 27.868 29.5566 27.052C28.9006 26.236 28.5726 25.104 28.5726 23.656V16.708H26.2566V15.22H30.3006ZM46.4378 24.616C46.4378 25.288 46.5658 25.796 46.8218 26.14C47.0778 26.476 47.4698 26.644 47.9978 26.644C48.5178 26.644 48.9098 26.472 49.1738 26.128C49.4378 25.776 49.5698 25.272 49.5698 24.616V23.428H51.1298V24.604C51.1298 25.372 51.0138 26.028 50.7818 26.572C50.5578 27.108 50.2138 27.52 49.7498 27.808C49.2858 28.088 48.6898 28.228 47.9618 28.228C47.2178 28.228 46.6058 28.084 46.1258 27.796C45.6458 27.5 45.2898 27.084 45.0578 26.548C44.8258 26.012 44.7098 25.368 44.7098 24.616L44.7218 16.708H42.4418V15.22H44.7218V11.98H46.4498V15.22H50.9618L50.9498 16.708H46.4498L46.4378 24.616ZM59.4399 28.228C58.1199 28.228 56.9759 27.948 56.0079 27.388C55.0399 26.828 54.2919 26.056 53.7639 25.072C53.2359 24.08 52.9719 22.94 52.9719 21.652C52.9719 20.348 53.2359 19.196 53.7639 18.196C54.2999 17.196 55.0439 16.412 55.9959 15.844C56.9559 15.276 58.0719 14.992 59.3439 14.992C60.6239 14.992 61.7319 15.272 62.6679 15.832C63.6039 16.392 64.3239 17.168 64.8279 18.16C65.3319 19.152 65.5839 20.296 65.5839 21.592C65.5839 21.744 65.5799 21.864 65.5719 21.952C65.5719 22.04 65.5639 22.116 65.5479 22.18H63.8439C63.8519 22.084 63.8559 21.98 63.8559 21.868C63.8639 21.748 63.8679 21.612 63.8679 21.46C63.8679 20.508 63.6839 19.664 63.3159 18.928C62.9559 18.184 62.4399 17.6 61.7679 17.176C61.0959 16.752 60.2879 16.54 59.3439 16.54C58.4239 16.54 57.6159 16.76 56.9199 17.2C56.2239 17.632 55.6839 18.232 55.2999 19C54.9159 19.76 54.7239 20.644 54.7239 21.652C54.7239 22.628 54.9119 23.492 55.2879 24.244C55.6719 24.988 56.2159 25.572 56.9199 25.996C57.6239 26.42 58.4599 26.632 59.4279 26.632C60.4359 26.632 61.3079 26.396 62.0439 25.924C62.7879 25.444 63.3399 24.792 63.6999 23.968L65.3319 24.58C64.8599 25.708 64.1039 26.6 63.0639 27.256C62.0319 27.904 60.8239 28.228 59.4399 28.228ZM54.0639 22.18V20.848H65.0319L65.5359 22.18H54.0639Z" fill="black"/>
<path d="M1 6.35211L6 1V39L1 33.6479V6.35211Z" fill="white"/>
<path d="M6 1L1 6.35211V33.6479L6 39" stroke="black" stroke-linecap="round"/>
<path d="M77 33.6479L72 39L72 1L77 6.35211L77 33.6479Z" fill="white"/>
<path d="M72 39L77 33.6479L77 6.35211L72 1" stroke="black" stroke-linecap="round"/>
</svg>
