<svg width="104" height="40" viewBox="0 0 104 40" fill="none" xmlns="http://www.w3.org/2000/svg">
<path d="M6 1H98V39H6V1Z" fill="white"/>
<path d="M6 1.5H98V0.5H6V1.5ZM98 38.5H6V39.5H98V38.5Z" fill="black"/>
<path d="M25.3302 31.552H27.8502V33.04H20.8182V31.552H23.6022V23.14L23.6622 22.156V21.268L23.6022 19.864V17.956L25.1742 14.956H25.3302V31.552ZM18.8502 14.98C19.9222 14.98 20.8782 15.184 21.7182 15.592C22.5662 15.992 23.2662 16.568 23.8182 17.32C24.3702 18.064 24.7382 18.952 24.9222 19.984L23.6742 21.616C23.6742 20.624 23.4822 19.748 23.0982 18.988C22.7222 18.228 22.1822 17.632 21.4782 17.2C20.7742 16.76 19.9382 16.54 18.9702 16.54C17.9942 16.54 17.1542 16.752 16.4502 17.176C15.7462 17.6 15.2062 18.196 14.8302 18.964C14.4622 19.724 14.2782 20.612 14.2782 21.628C14.2782 22.62 14.4742 23.496 14.8662 24.256C15.2662 25.016 15.8182 25.612 16.5222 26.044C17.2342 26.476 18.0502 26.692 18.9702 26.692C19.9302 26.692 20.7582 26.476 21.4542 26.044C22.1582 25.612 22.7022 25.016 23.0862 24.256C23.4782 23.488 23.6742 22.608 23.6742 21.616L23.9382 24.304H23.5302C23.3862 25.008 23.1062 25.66 22.6902 26.26C22.2742 26.852 21.7262 27.332 21.0462 27.7C20.3662 28.06 19.5502 28.24 18.5982 28.24C17.7102 28.24 16.8942 28.08 16.1502 27.76C15.4062 27.432 14.7622 26.972 14.2182 26.38C13.6742 25.78 13.2502 25.076 12.9462 24.268C12.6502 23.452 12.5022 22.56 12.5022 21.592C12.5022 20.296 12.7662 19.152 13.2942 18.16C13.8222 17.168 14.5582 16.392 15.5022 15.832C16.4542 15.264 17.5702 14.98 18.8502 14.98ZM39.0902 16.708H36.6182V15.22H40.8182V26.512H43.3143V28H39.0902V16.708ZM31.9502 15.22V23.368C31.9502 24.416 32.1822 25.244 32.6462 25.852C33.1182 26.452 33.8582 26.752 34.8662 26.752C35.6742 26.752 36.3942 26.548 37.0262 26.14C37.6662 25.724 38.1702 25.128 38.5382 24.352C38.9062 23.576 39.0902 22.644 39.0902 21.556L39.5103 24.112H39.0062C38.7902 25.488 38.2542 26.528 37.3982 27.232C36.5502 27.928 35.5062 28.276 34.2662 28.276C32.8902 28.276 31.8702 27.868 31.2062 27.052C30.5502 26.236 30.2222 25.104 30.2222 23.656V16.708H27.9062V15.22H31.9502ZM49.1434 26.512H51.6034V28H44.8234V26.512H47.4154V16.708H44.8234V15.22H49.1434V26.512ZM47.0914 9.832H49.2994V12.124H47.0914V9.832ZM57.3091 26.512H59.8051V28H52.9531V26.512H55.5811V16.708H52.9531V15.22H57.3091V26.512ZM62.2171 17.056C62.0731 17.016 61.9171 16.984 61.7491 16.96C61.5891 16.936 61.4131 16.924 61.2211 16.924C60.0371 16.924 59.0891 17.368 58.3771 18.256C57.6651 19.136 57.3091 20.36 57.3091 21.928L56.9011 19.132H57.3931C57.5051 18.284 57.7371 17.556 58.0891 16.948C58.4411 16.332 58.8971 15.86 59.4571 15.532C60.0251 15.196 60.6891 15.028 61.4491 15.028C61.5931 15.028 61.7211 15.036 61.8331 15.052C61.9531 15.06 62.0811 15.076 62.2171 15.1V17.056ZM66.8988 26.512H69.1668V28H62.6028V26.512H65.1708V10.528H62.6028V9.04H66.8988V26.512ZM71.3628 19.9L76.4388 26.512H78.1068V28H71.5308V26.512H74.3028L70.1388 20.944L71.3628 19.9ZM66.3828 24.556L66.0228 23.176L73.8588 16.708H69.9588V15.22H77.9028V16.708H76.1028L66.3828 24.556ZM87.2487 15.22H93.2007V16.708H91.6047L86.3247 29.704C85.8927 30.776 85.2247 31.6 84.3207 32.176C83.4247 32.752 82.3087 33.04 80.9727 33.04H79.7127V31.516H80.9727C81.8687 31.516 82.6487 31.328 83.3127 30.952C83.9847 30.584 84.4727 30.04 84.7767 29.32L85.6887 27.076L85.3887 28.564L80.5047 16.708H78.7407V15.22H84.8127V16.708H82.3887L86.6967 27.472L85.1247 26.08H86.7807L85.8807 26.896L89.8767 16.708H87.2487V15.22Z" fill="black"/>
<path d="M1 6.35211L6 1V39L1 33.6479V6.35211Z" fill="white"/>
<path d="M6 1L1 6.35211V33.6479L6 39" stroke="black" stroke-linecap="round"/>
<path d="M103 33.6479L98 39L98 1L103 6.35211L103 33.6479Z" fill="white"/>
<path d="M98 39L103 33.6479L103 6.35211L98 1" stroke="black" stroke-linecap="round"/>
</svg>
