<svg width="179" height="40" viewBox="0 0 179 40" fill="none" xmlns="http://www.w3.org/2000/svg">
<path d="M6 1H173V39H6V1Z" fill="white"/>
<path d="M6 1.5H173V0.5H6V1.5ZM173 38.5H6V39.5H173V38.5Z" fill="black"/>
<path d="M12.5323 28V26.512H15.0643V16.708H12.5323V15.22H15.0643V13.24C15.0643 11.848 15.4163 10.764 16.1203 9.988C16.8243 9.204 17.8883 8.812 19.3123 8.812C20.4723 8.812 21.3723 9.068 22.0123 9.58C22.6603 10.092 23.0923 10.836 23.3083 11.812L21.7483 12.292C21.6043 11.66 21.3283 11.188 20.9203 10.876C20.5203 10.556 19.9843 10.396 19.3123 10.396C18.5123 10.396 17.8923 10.628 17.4523 11.092C17.0123 11.556 16.7923 12.272 16.7923 13.24V15.22H21.0403V16.708H16.7923V26.512H19.8523V28H12.5323ZM26.8848 26.512H29.3808V28H22.5288V26.512H25.1568V16.708H22.5288V15.22H26.8848V26.512ZM31.7928 17.056C31.6488 17.016 31.4928 16.984 31.3248 16.96C31.1648 16.936 30.9888 16.924 30.7968 16.924C29.6128 16.924 28.6648 17.368 27.9528 18.256C27.2408 19.136 26.8848 20.36 26.8848 21.928L26.4768 19.132H26.9688C27.0808 18.284 27.3128 17.556 27.6648 16.948C28.0168 16.332 28.4728 15.86 29.0328 15.532C29.6008 15.196 30.2648 15.028 31.0248 15.028C31.1688 15.028 31.2968 15.036 31.4088 15.052C31.5288 15.06 31.6568 15.076 31.7928 15.1V17.056ZM39.3495 28.228C38.0295 28.228 36.8855 27.948 35.9175 27.388C34.9495 26.828 34.2015 26.056 33.6735 25.072C33.1455 24.08 32.8815 22.94 32.8815 21.652C32.8815 20.348 33.1455 19.196 33.6735 18.196C34.2095 17.196 34.9535 16.412 35.9055 15.844C36.8655 15.276 37.9815 14.992 39.2535 14.992C40.5335 14.992 41.6415 15.272 42.5775 15.832C43.5135 16.392 44.2335 17.168 44.7375 18.16C45.2415 19.152 45.4935 20.296 45.4935 21.592C45.4935 21.744 45.4895 21.864 45.4815 21.952C45.4815 22.04 45.4735 22.116 45.4575 22.18H43.7535C43.7615 22.084 43.7655 21.98 43.7655 21.868C43.7735 21.748 43.7775 21.612 43.7775 21.46C43.7775 20.508 43.5935 19.664 43.2255 18.928C42.8655 18.184 42.3495 17.6 41.6775 17.176C41.0055 16.752 40.1975 16.54 39.2535 16.54C38.3335 16.54 37.5255 16.76 36.8295 17.2C36.1335 17.632 35.5935 18.232 35.2095 19C34.8255 19.76 34.6335 20.644 34.6335 21.652C34.6335 22.628 34.8215 23.492 35.1975 24.244C35.5815 24.988 36.1255 25.572 36.8295 25.996C37.5335 26.42 38.3695 26.632 39.3375 26.632C40.3455 26.632 41.2175 26.396 41.9535 25.924C42.6975 25.444 43.2495 24.792 43.6095 23.968L45.2415 24.58C44.7695 25.708 44.0135 26.6 42.9735 27.256C41.9415 27.904 40.7335 28.228 39.3495 28.228ZM33.9735 22.18V20.848H44.9415L45.4455 22.18H33.9735ZM54.057 28.228C52.737 28.228 51.593 27.948 50.625 27.388C49.657 26.828 48.909 26.056 48.381 25.072C47.853 24.08 47.589 22.94 47.589 21.652C47.589 20.348 47.853 19.196 48.381 18.196C48.917 17.196 49.661 16.412 50.613 15.844C51.573 15.276 52.689 14.992 53.961 14.992C55.241 14.992 56.349 15.272 57.285 15.832C58.221 16.392 58.941 17.168 59.445 18.16C59.949 19.152 60.201 20.296 60.201 21.592C60.201 21.744 60.197 21.864 60.189 21.952C60.189 22.04 60.181 22.116 60.165 22.18H58.461C58.469 22.084 58.473 21.98 58.473 21.868C58.481 21.748 58.485 21.612 58.485 21.46C58.485 20.508 58.301 19.664 57.933 18.928C57.573 18.184 57.057 17.6 56.385 17.176C55.713 16.752 54.905 16.54 53.961 16.54C53.041 16.54 52.233 16.76 51.537 17.2C50.841 17.632 50.301 18.232 49.917 19C49.533 19.76 49.341 20.644 49.341 21.652C49.341 22.628 49.529 23.492 49.905 24.244C50.289 24.988 50.833 25.572 51.537 25.996C52.241 26.42 53.077 26.632 54.045 26.632C55.053 26.632 55.925 26.396 56.661 25.924C57.405 25.444 57.957 24.792 58.317 23.968L59.949 24.58C59.477 25.708 58.721 26.6 57.681 27.256C56.649 27.904 55.441 28.228 54.057 28.228ZM48.681 22.18V20.848H59.649L60.153 22.18H48.681ZM68.561 20.488V21.976H61.877V20.488H68.561ZM76.5157 28.228C75.6597 28.228 74.9357 28.1 74.3437 27.844C73.7597 27.588 73.2957 27.248 72.9517 26.824C72.6077 26.392 72.3837 25.912 72.2797 25.384H71.8477L72.1957 23.968C72.3477 24.808 72.7637 25.492 73.4437 26.02C74.1317 26.548 75.0237 26.812 76.1197 26.812C77.0557 26.812 77.7797 26.624 78.2917 26.248C78.8117 25.864 79.0717 25.308 79.0717 24.58C79.0717 23.916 78.8157 23.4 78.3037 23.032C77.7917 22.664 76.8957 22.384 75.6157 22.192C73.7837 21.904 72.4797 21.452 71.7037 20.836C70.9277 20.212 70.5397 19.392 70.5397 18.376C70.5397 17.352 70.8957 16.532 71.6077 15.916C72.3197 15.3 73.3117 14.992 74.5837 14.992C75.4237 14.992 76.1157 15.12 76.6597 15.376C77.2117 15.632 77.6357 15.976 77.9317 16.408C78.2277 16.832 78.4197 17.3 78.5077 17.812H78.9397L78.5917 19.168C78.4477 18.352 78.0557 17.688 77.4157 17.176C76.7757 16.656 75.9397 16.396 74.9077 16.396C74.0757 16.396 73.4237 16.572 72.9517 16.924C72.4877 17.276 72.2557 17.744 72.2557 18.328C72.2557 18.944 72.5477 19.428 73.1317 19.78C73.7157 20.124 74.6357 20.396 75.8917 20.596C77.6677 20.876 78.9277 21.336 79.6717 21.976C80.4157 22.616 80.7877 23.48 80.7877 24.568C80.7877 25.712 80.4197 26.608 79.6837 27.256C78.9557 27.904 77.8997 28.228 76.5157 28.228ZM70.4677 28V23.968H72.1957V28H70.4677ZM78.5917 19.168V15.22H80.3197V19.168H78.5917ZM82.5367 33.04V31.552H85.0927V16.708H82.5367V15.22H86.8207V19.792L86.7727 21.16V21.916L86.8207 22.996V31.552H89.3287V33.04H82.5367ZM91.6447 28.24C90.5887 28.24 89.6407 28.008 88.8007 27.544C87.9687 27.08 87.2807 26.42 86.7367 25.564C86.1927 24.7 85.8327 23.668 85.6567 22.468L86.7727 21.64C86.7727 22.624 86.9607 23.496 87.3367 24.256C87.7127 25.008 88.2527 25.6 88.9567 26.032C89.6607 26.464 90.4967 26.68 91.4647 26.68C92.4167 26.68 93.2447 26.464 93.9487 26.032C94.6527 25.6 95.1927 25.004 95.5687 24.244C95.9527 23.476 96.1447 22.6 96.1447 21.616C96.1447 20.616 95.9487 19.736 95.5567 18.976C95.1647 18.216 94.6167 17.62 93.9127 17.188C93.2087 16.748 92.3927 16.528 91.4647 16.528C90.5127 16.528 89.6847 16.748 88.9807 17.188C88.2767 17.62 87.7327 18.22 87.3487 18.988C86.9647 19.756 86.7727 20.64 86.7727 21.64L86.4967 18.916H86.9047C87.0487 18.212 87.3287 17.564 87.7447 16.972C88.1607 16.372 88.7087 15.892 89.3887 15.532C90.0767 15.164 90.8927 14.98 91.8367 14.98C92.7327 14.98 93.5527 15.144 94.2967 15.472C95.0407 15.792 95.6807 16.252 96.2167 16.852C96.7607 17.444 97.1807 18.144 97.4767 18.952C97.7807 19.76 97.9327 20.648 97.9327 21.616C97.9327 22.904 97.6727 24.048 97.1527 25.048C96.6327 26.048 95.9007 26.832 94.9567 27.4C94.0207 27.96 92.9167 28.24 91.6447 28.24ZM104.398 26.512H106.858V28H100.078V26.512H102.67V16.708H100.078V15.22H104.398V26.512ZM102.346 9.832H104.554V12.124H102.346V9.832ZM112.564 26.512H115.06V28H108.208V26.512H110.836V16.708H108.208V15.22H112.564V26.512ZM117.472 17.056C117.328 17.016 117.172 16.984 117.004 16.96C116.844 16.936 116.668 16.924 116.476 16.924C115.292 16.924 114.344 17.368 113.632 18.256C112.92 19.136 112.564 20.36 112.564 21.928L112.156 19.132H112.648C112.76 18.284 112.992 17.556 113.344 16.948C113.696 16.332 114.152 15.86 114.712 15.532C115.28 15.196 115.944 15.028 116.704 15.028C116.848 15.028 116.976 15.036 117.088 15.052C117.208 15.06 117.336 15.076 117.472 15.1V17.056ZM123.126 26.512H125.586V28H118.806V26.512H121.398V16.708H118.806V15.22H123.126V26.512ZM121.074 9.832H123.282V12.124H121.074V9.832ZM130.355 24.616C130.355 25.288 130.483 25.796 130.739 26.14C130.995 26.476 131.387 26.644 131.915 26.644C132.435 26.644 132.827 26.472 133.091 26.128C133.355 25.776 133.487 25.272 133.487 24.616V23.428H135.047V24.604C135.047 25.372 134.931 26.028 134.699 26.572C134.475 27.108 134.131 27.52 133.667 27.808C133.203 28.088 132.607 28.228 131.879 28.228C131.135 28.228 130.523 28.084 130.043 27.796C129.563 27.5 129.207 27.084 128.975 26.548C128.743 26.012 128.627 25.368 128.627 24.616L128.639 16.708H126.359V15.22H128.639V11.98H130.367V15.22H134.879L134.867 16.708H130.367L130.355 24.616ZM143.358 28.228C142.038 28.228 140.894 27.948 139.926 27.388C138.958 26.828 138.21 26.056 137.682 25.072C137.154 24.08 136.89 22.94 136.89 21.652C136.89 20.348 137.154 19.196 137.682 18.196C138.218 17.196 138.962 16.412 139.914 15.844C140.874 15.276 141.99 14.992 143.262 14.992C144.542 14.992 145.65 15.272 146.586 15.832C147.522 16.392 148.242 17.168 148.746 18.16C149.25 19.152 149.502 20.296 149.502 21.592C149.502 21.744 149.498 21.864 149.49 21.952C149.49 22.04 149.482 22.116 149.466 22.18H147.762C147.77 22.084 147.774 21.98 147.774 21.868C147.782 21.748 147.786 21.612 147.786 21.46C147.786 20.508 147.602 19.664 147.234 18.928C146.874 18.184 146.358 17.6 145.686 17.176C145.014 16.752 144.206 16.54 143.262 16.54C142.342 16.54 141.534 16.76 140.838 17.2C140.142 17.632 139.602 18.232 139.218 19C138.834 19.76 138.642 20.644 138.642 21.652C138.642 22.628 138.83 23.492 139.206 24.244C139.59 24.988 140.134 25.572 140.838 25.996C141.542 26.42 142.378 26.632 143.346 26.632C144.354 26.632 145.226 26.396 145.962 25.924C146.706 25.444 147.258 24.792 147.618 23.968L149.25 24.58C148.778 25.708 148.022 26.6 146.982 27.256C145.95 27.904 144.742 28.228 143.358 28.228ZM137.982 22.18V20.848H148.95L149.454 22.18H137.982ZM162.661 28V23.224L162.733 22.288V20.764L162.661 19.084V10.528H159.217V9.04H164.389V26.512H166.837V28H162.661ZM157.849 14.98C158.905 14.98 159.849 15.212 160.681 15.676C161.521 16.14 162.213 16.804 162.757 17.668C163.301 18.524 163.661 19.552 163.837 20.752L162.733 21.58C162.733 20.596 162.541 19.724 162.157 18.964C161.781 18.204 161.241 17.612 160.537 17.188C159.833 16.756 158.997 16.54 158.029 16.54C157.077 16.54 156.249 16.756 155.545 17.188C154.841 17.62 154.297 18.216 153.913 18.976C153.537 19.736 153.349 20.616 153.349 21.616C153.349 22.608 153.545 23.484 153.937 24.244C154.329 25.004 154.877 25.604 155.581 26.044C156.293 26.476 157.109 26.692 158.029 26.692C158.989 26.692 159.817 26.476 160.513 26.044C161.217 25.604 161.761 25 162.145 24.232C162.537 23.464 162.733 22.58 162.733 21.58L162.997 24.304H162.589C162.445 25.008 162.165 25.66 161.749 26.26C161.333 26.852 160.785 27.332 160.105 27.7C159.425 28.06 158.609 28.24 157.657 28.24C156.769 28.24 155.953 28.08 155.209 27.76C154.465 27.432 153.821 26.972 153.277 26.38C152.733 25.78 152.309 25.076 152.005 24.268C151.709 23.46 151.561 22.576 151.561 21.616C151.561 20.32 151.821 19.172 152.341 18.172C152.861 17.172 153.589 16.392 154.525 15.832C155.469 15.264 156.577 14.98 157.849 14.98Z" fill="black"/>
<path d="M1 6.35211L6 1V39L1 33.6479V6.35211Z" fill="white"/>
<path d="M6 1L1 6.35211V33.6479L6 39" stroke="black" stroke-linecap="round"/>
<path d="M178 33.6479L173 39L173 1L178 6.35211L178 33.6479Z" fill="white"/>
<path d="M173 39L178 33.6479L178 6.35211L173 1" stroke="black" stroke-linecap="round"/>
</svg>
