<svg width="116" height="40" viewBox="0 0 116 40" fill="none" xmlns="http://www.w3.org/2000/svg">
<path d="M6 1H110V39H6V1Z" fill="white"/>
<path d="M6 1.5H110V0.5H6V1.5ZM110 38.5H6V39.5H110V38.5Z" fill="black"/>
<path d="M12.0002 33.04V31.552H14.5562V16.708H12.0002V15.22H16.2842V19.792L16.2362 21.16V21.916L16.2842 22.996V31.552H18.7922V33.04H12.0002ZM21.1082 28.24C20.0522 28.24 19.1042 28.008 18.2642 27.544C17.4322 27.08 16.7442 26.42 16.2002 25.564C15.6562 24.7 15.2962 23.668 15.1202 22.468L16.2362 21.64C16.2362 22.624 16.4242 23.496 16.8002 24.256C17.1762 25.008 17.7162 25.6 18.4202 26.032C19.1242 26.464 19.9602 26.68 20.9282 26.68C21.8802 26.68 22.7082 26.464 23.4122 26.032C24.1162 25.6 24.6562 25.004 25.0322 24.244C25.4162 23.476 25.6082 22.6 25.6082 21.616C25.6082 20.616 25.4122 19.736 25.0202 18.976C24.6282 18.216 24.0802 17.62 23.3762 17.188C22.6722 16.748 21.8562 16.528 20.9282 16.528C19.9762 16.528 19.1482 16.748 18.4442 17.188C17.7402 17.62 17.1962 18.22 16.8122 18.988C16.4282 19.756 16.2362 20.64 16.2362 21.64L15.9602 18.916H16.3682C16.5122 18.212 16.7922 17.564 17.2082 16.972C17.6242 16.372 18.1722 15.892 18.8522 15.532C19.5402 15.164 20.3562 14.98 21.3002 14.98C22.1962 14.98 23.0162 15.144 23.7602 15.472C24.5042 15.792 25.1442 16.252 25.6802 16.852C26.2242 17.444 26.6442 18.144 26.9402 18.952C27.2442 19.76 27.3962 20.648 27.3962 21.616C27.3962 22.904 27.1362 24.048 26.6162 25.048C26.0962 26.048 25.3642 26.832 24.4202 27.4C23.4842 27.96 22.3802 28.24 21.1082 28.24ZM39.7657 28C39.4377 28 39.1857 27.896 39.0097 27.688C38.8417 27.48 38.7577 27.188 38.7577 26.812V22.972L38.9137 22.576L38.8297 21.124L38.7577 20.368V19.396C38.7577 18.74 38.6217 18.204 38.3497 17.788C38.0857 17.372 37.7017 17.064 37.1977 16.864C36.6937 16.664 36.0857 16.564 35.3737 16.564C34.3097 16.564 33.4857 16.776 32.9017 17.2C32.3257 17.616 31.9417 18.244 31.7497 19.084L30.0937 18.736C30.2537 17.896 30.5537 17.2 30.9937 16.648C31.4337 16.088 32.0177 15.672 32.7457 15.4C33.4817 15.12 34.3777 14.98 35.4337 14.98C36.5377 14.98 37.4617 15.136 38.2057 15.448C38.9577 15.752 39.5257 16.22 39.9097 16.852C40.2937 17.484 40.4857 18.3 40.4857 19.3V26.512H42.3697V28H39.7657ZM33.7417 28.168C32.4137 28.168 31.4057 27.876 30.7177 27.292C30.0297 26.7 29.6857 25.832 29.6857 24.688C29.6857 23.632 29.9897 22.828 30.5977 22.276C31.2057 21.716 32.1817 21.296 33.5257 21.016L39.2737 19.792V21.028L33.8137 22.264C33.0297 22.448 32.4417 22.72 32.0497 23.08C31.6657 23.432 31.4737 23.932 31.4737 24.58C31.4737 25.284 31.6897 25.812 32.1217 26.164C32.5537 26.508 33.1857 26.68 34.0177 26.68C34.9377 26.68 35.7617 26.468 36.4897 26.044C37.2177 25.62 37.7897 24.996 38.2057 24.172C38.6217 23.348 38.8297 22.332 38.8297 21.124L39.2857 23.956H38.6737C38.4737 25.292 37.9537 26.328 37.1137 27.064C36.2817 27.8 35.1577 28.168 33.7417 28.168ZM50.2188 28.228C49.3628 28.228 48.6388 28.1 48.0468 27.844C47.4628 27.588 46.9988 27.248 46.6548 26.824C46.3108 26.392 46.0868 25.912 45.9828 25.384H45.5508L45.8988 23.968C46.0508 24.808 46.4668 25.492 47.1468 26.02C47.8348 26.548 48.7268 26.812 49.8228 26.812C50.7588 26.812 51.4828 26.624 51.9948 26.248C52.5148 25.864 52.7748 25.308 52.7748 24.58C52.7748 23.916 52.5188 23.4 52.0068 23.032C51.4948 22.664 50.5988 22.384 49.3188 22.192C47.4868 21.904 46.1828 21.452 45.4068 20.836C44.6308 20.212 44.2428 19.392 44.2428 18.376C44.2428 17.352 44.5988 16.532 45.3108 15.916C46.0228 15.3 47.0148 14.992 48.2868 14.992C49.1268 14.992 49.8188 15.12 50.3628 15.376C50.9148 15.632 51.3388 15.976 51.6348 16.408C51.9308 16.832 52.1228 17.3 52.2108 17.812H52.6428L52.2948 19.168C52.1508 18.352 51.7588 17.688 51.1188 17.176C50.4788 16.656 49.6428 16.396 48.6108 16.396C47.7788 16.396 47.1268 16.572 46.6548 16.924C46.1908 17.276 45.9588 17.744 45.9588 18.328C45.9588 18.944 46.2508 19.428 46.8348 19.78C47.4188 20.124 48.3388 20.396 49.5948 20.596C51.3708 20.876 52.6308 21.336 53.3748 21.976C54.1188 22.616 54.4908 23.48 54.4908 24.568C54.4908 25.712 54.1228 26.608 53.3868 27.256C52.6588 27.904 51.6028 28.228 50.2188 28.228ZM44.1708 28V23.968H45.8988V28H44.1708ZM52.2948 19.168V15.22H54.0228V19.168H52.2948ZM62.8638 28.228C62.0078 28.228 61.2838 28.1 60.6918 27.844C60.1078 27.588 59.6438 27.248 59.2998 26.824C58.9558 26.392 58.7318 25.912 58.6278 25.384H58.1958L58.5438 23.968C58.6958 24.808 59.1118 25.492 59.7918 26.02C60.4798 26.548 61.3718 26.812 62.4678 26.812C63.4038 26.812 64.1278 26.624 64.6398 26.248C65.1598 25.864 65.4198 25.308 65.4198 24.58C65.4198 23.916 65.1638 23.4 64.6518 23.032C64.1398 22.664 63.2438 22.384 61.9638 22.192C60.1318 21.904 58.8278 21.452 58.0518 20.836C57.2758 20.212 56.8878 19.392 56.8878 18.376C56.8878 17.352 57.2438 16.532 57.9558 15.916C58.6678 15.3 59.6598 14.992 60.9318 14.992C61.7718 14.992 62.4638 15.12 63.0078 15.376C63.5598 15.632 63.9838 15.976 64.2798 16.408C64.5758 16.832 64.7678 17.3 64.8558 17.812H65.2878L64.9398 19.168C64.7958 18.352 64.4038 17.688 63.7638 17.176C63.1238 16.656 62.2878 16.396 61.2558 16.396C60.4238 16.396 59.7718 16.572 59.2998 16.924C58.8358 17.276 58.6038 17.744 58.6038 18.328C58.6038 18.944 58.8958 19.428 59.4798 19.78C60.0638 20.124 60.9838 20.396 62.2398 20.596C64.0158 20.876 65.2758 21.336 66.0198 21.976C66.7638 22.616 67.1358 23.48 67.1358 24.568C67.1358 25.712 66.7678 26.608 66.0318 27.256C65.3038 27.904 64.2478 28.228 62.8638 28.228ZM56.8158 28V23.968H58.5438V28H56.8158ZM64.9398 19.168V15.22H66.6678V19.168H64.9398ZM73.6248 26.512H76.0848V28H69.3048V26.512H71.8968V16.708H69.3048V15.22H73.6248V26.512ZM71.5728 9.832H73.7808V12.124H71.5728V9.832ZM84.7908 15.22H90.4548V16.708H89.0148L84.3108 28H82.4388L77.5788 16.708H76.1508V15.22H81.9468V16.708H79.4508L84.1668 28L82.5468 26.188H84.1908L82.7868 28L87.2868 16.708H84.7908V15.22ZM97.5363 28.228C96.2163 28.228 95.0723 27.948 94.1043 27.388C93.1363 26.828 92.3883 26.056 91.8603 25.072C91.3323 24.08 91.0683 22.94 91.0683 21.652C91.0683 20.348 91.3323 19.196 91.8603 18.196C92.3963 17.196 93.1403 16.412 94.0923 15.844C95.0523 15.276 96.1683 14.992 97.4403 14.992C98.7203 14.992 99.8283 15.272 100.764 15.832C101.7 16.392 102.42 17.168 102.924 18.16C103.428 19.152 103.68 20.296 103.68 21.592C103.68 21.744 103.676 21.864 103.668 21.952C103.668 22.04 103.66 22.116 103.644 22.18H101.94C101.948 22.084 101.952 21.98 101.952 21.868C101.96 21.748 101.964 21.612 101.964 21.46C101.964 20.508 101.78 19.664 101.412 18.928C101.052 18.184 100.536 17.6 99.8643 17.176C99.1923 16.752 98.3843 16.54 97.4403 16.54C96.5203 16.54 95.7123 16.76 95.0163 17.2C94.3203 17.632 93.7803 18.232 93.3963 19C93.0123 19.76 92.8203 20.644 92.8203 21.652C92.8203 22.628 93.0083 23.492 93.3843 24.244C93.7683 24.988 94.3123 25.572 95.0163 25.996C95.7203 26.42 96.5563 26.632 97.5243 26.632C98.5323 26.632 99.4043 26.396 100.14 25.924C100.884 25.444 101.436 24.792 101.796 23.968L103.428 24.58C102.956 25.708 102.2 26.6 101.16 27.256C100.128 27.904 98.9203 28.228 97.5363 28.228ZM92.1603 22.18V20.848H103.128L103.632 22.18H92.1603Z" fill="black"/>
<path d="M1 6.35211L6 1V39L1 33.6479V6.35211Z" fill="white"/>
<path d="M6 1L1 6.35211V33.6479L6 39" stroke="black" stroke-linecap="round"/>
<path d="M115 33.6479L110 39L110 1L115 6.35211L115 33.6479Z" fill="white"/>
<path d="M110 39L115 33.6479L115 6.35211L110 1" stroke="black" stroke-linecap="round"/>
</svg>
