<svg width="66" height="40" viewBox="0 0 66 40" fill="none" xmlns="http://www.w3.org/2000/svg">
<path d="M6 1H60V39H6V1Z" fill="white"/>
<path d="M6 1.5H60V0.5H6V1.5ZM60 38.5H6V39.5H60V38.5Z" fill="black"/>
<path d="M18.6329 28.228C17.7769 28.228 17.0529 28.1 16.4609 27.844C15.8769 27.588 15.4129 27.248 15.0689 26.824C14.7249 26.392 14.5009 25.912 14.3969 25.384H13.9649L14.3129 23.968C14.4649 24.808 14.8809 25.492 15.5609 26.02C16.2489 26.548 17.1409 26.812 18.2369 26.812C19.1729 26.812 19.8969 26.624 20.4089 26.248C20.9289 25.864 21.1889 25.308 21.1889 24.58C21.1889 23.916 20.9329 23.4 20.4209 23.032C19.9089 22.664 19.0129 22.384 17.7329 22.192C15.9009 21.904 14.5969 21.452 13.8209 20.836C13.0449 20.212 12.6569 19.392 12.6569 18.376C12.6569 17.352 13.0129 16.532 13.7249 15.916C14.4369 15.3 15.4289 14.992 16.7009 14.992C17.5409 14.992 18.2329 15.12 18.7769 15.376C19.3289 15.632 19.7529 15.976 20.0489 16.408C20.3449 16.832 20.5369 17.3 20.6249 17.812H21.0569L20.7089 19.168C20.5649 18.352 20.1729 17.688 19.5329 17.176C18.8929 16.656 18.0569 16.396 17.0249 16.396C16.1929 16.396 15.5409 16.572 15.0689 16.924C14.6049 17.276 14.3729 17.744 14.3729 18.328C14.3729 18.944 14.6649 19.428 15.2489 19.78C15.8329 20.124 16.7529 20.396 18.0089 20.596C19.7849 20.876 21.0449 21.336 21.7889 21.976C22.5329 22.616 22.9049 23.48 22.9049 24.568C22.9049 25.712 22.5369 26.608 21.8009 27.256C21.0729 27.904 20.0169 28.228 18.6329 28.228ZM12.5849 28V23.968H14.3129V28H12.5849ZM20.7089 19.168V15.22H22.4369V19.168H20.7089ZM28.8202 26.512H31.0882V28H24.5242V26.512H27.0922V10.528H24.5242V9.04H28.8202V26.512ZM36.1882 26.512V19.792C36.1882 18.752 35.9522 17.936 35.4802 17.344C35.0162 16.752 34.2842 16.456 33.2842 16.456C32.4442 16.456 31.6882 16.672 31.0162 17.104C30.3442 17.528 29.8082 18.148 29.4082 18.964C29.0162 19.772 28.8202 20.748 28.8202 21.892L28.4122 19.336H28.8922C29.0522 18.4 29.3522 17.608 29.7922 16.96C30.2402 16.304 30.8082 15.804 31.4962 15.46C32.1842 15.116 32.9722 14.944 33.8602 14.944C35.2522 14.944 36.2762 15.344 36.9322 16.144C37.5882 16.944 37.9162 18.068 37.9162 19.516V26.512H40.3642V28H33.9322V26.512H36.1882ZM48.5373 15.22H54.4893V16.708H52.8933L47.6133 29.704C47.1813 30.776 46.5133 31.6 45.6093 32.176C44.7133 32.752 43.5973 33.04 42.2613 33.04H41.0013V31.516H42.2613C43.1573 31.516 43.9373 31.328 44.6013 30.952C45.2733 30.584 45.7613 30.04 46.0653 29.32L46.9773 27.076L46.6773 28.564L41.7933 16.708H40.0293V15.22H46.1013V16.708H43.6773L47.9853 27.472L46.4133 26.08H48.0693L47.1693 26.896L51.1653 16.708H48.5373V15.22Z" fill="black"/>
<path d="M1 6.35211L6 1V39L1 33.6479V6.35211Z" fill="white"/>
<path d="M6 1L1 6.35211V33.6479L6 39" stroke="black" stroke-linecap="round"/>
<path d="M65 33.6479L60 39L60 1L65 6.35211L65 33.6479Z" fill="white"/>
<path d="M60 39L65 33.6479L65 6.35211L60 1" stroke="black" stroke-linecap="round"/>
</svg>
