<svg width="92" height="40" viewBox="0 0 92 40" fill="none" xmlns="http://www.w3.org/2000/svg">
<path d="M6 1H86V39H6V1Z" fill="white"/>
<path d="M6 1.5H86V0.5H6V1.5ZM86 38.5H6V39.5H86V38.5Z" fill="black"/>
<path d="M13.8615 28.264V10.528H11.2935V9.04H15.5895V19.696L15.5175 21.196V22.792L15.5895 25.12L14.0175 28.264H13.8615ZM20.3295 28.24C19.2575 28.24 18.2975 28.04 17.4495 27.64C16.6095 27.232 15.9135 26.656 15.3615 25.912C14.8175 25.16 14.4535 24.268 14.2695 23.236L15.5175 21.616C15.5175 22.6 15.7055 23.472 16.0815 24.232C16.4575 24.992 16.9975 25.592 17.7015 26.032C18.4055 26.464 19.2415 26.68 20.2095 26.68C21.1935 26.68 22.0335 26.468 22.7295 26.044C23.4335 25.62 23.9695 25.028 24.3375 24.268C24.7135 23.5 24.9015 22.608 24.9015 21.592C24.9015 20.6 24.7015 19.724 24.3015 18.964C23.9095 18.204 23.3615 17.608 22.6575 17.176C21.9535 16.744 21.1375 16.528 20.2095 16.528C19.2575 16.528 18.4295 16.744 17.7255 17.176C17.0215 17.608 16.4775 18.204 16.0935 18.964C15.7095 19.724 15.5175 20.608 15.5175 21.616L15.2415 18.916H15.6495C15.8015 18.212 16.0815 17.564 16.4895 16.972C16.9055 16.372 17.4535 15.892 18.1335 15.532C18.8215 15.164 19.6415 14.98 20.5935 14.98C21.4815 14.98 22.2975 15.144 23.0415 15.472C23.7855 15.792 24.4295 16.252 24.9735 16.852C25.5175 17.444 25.9375 18.148 26.2335 18.964C26.5295 19.772 26.6775 20.66 26.6775 21.628C26.6775 22.916 26.4135 24.06 25.8855 25.06C25.3655 26.052 24.6295 26.832 23.6775 27.4C22.7255 27.96 21.6095 28.24 20.3295 28.24ZM32.4048 26.512H35.0328V28H28.0488V26.512H30.6768V10.528H28.0488V9.04H32.4048V26.512ZM46.9601 16.708H44.4881V15.22H48.6881V26.512H51.1841V28H46.9601V16.708ZM39.8201 15.22V23.368C39.8201 24.416 40.0521 25.244 40.5161 25.852C40.9881 26.452 41.7281 26.752 42.7361 26.752C43.5441 26.752 44.2641 26.548 44.8961 26.14C45.5361 25.724 46.0401 25.128 46.4081 24.352C46.7761 23.576 46.9601 22.644 46.9601 21.556L47.3801 24.112H46.8761C46.6601 25.488 46.1241 26.528 45.2681 27.232C44.4201 27.928 43.3761 28.276 42.1361 28.276C40.7601 28.276 39.7401 27.868 39.0761 27.052C38.4201 26.236 38.0921 25.104 38.0921 23.656V16.708H35.7761V15.22H39.8201ZM58.8973 28.228C58.0413 28.228 57.3173 28.1 56.7253 27.844C56.1413 27.588 55.6773 27.248 55.3333 26.824C54.9893 26.392 54.7653 25.912 54.6613 25.384H54.2293L54.5773 23.968C54.7293 24.808 55.1453 25.492 55.8253 26.02C56.5133 26.548 57.4053 26.812 58.5013 26.812C59.4373 26.812 60.1613 26.624 60.6733 26.248C61.1933 25.864 61.4533 25.308 61.4533 24.58C61.4533 23.916 61.1973 23.4 60.6853 23.032C60.1733 22.664 59.2773 22.384 57.9973 22.192C56.1653 21.904 54.8613 21.452 54.0853 20.836C53.3093 20.212 52.9213 19.392 52.9213 18.376C52.9213 17.352 53.2773 16.532 53.9893 15.916C54.7013 15.3 55.6933 14.992 56.9653 14.992C57.8053 14.992 58.4973 15.12 59.0413 15.376C59.5933 15.632 60.0173 15.976 60.3133 16.408C60.6093 16.832 60.8013 17.3 60.8893 17.812H61.3213L60.9733 19.168C60.8293 18.352 60.4373 17.688 59.7973 17.176C59.1573 16.656 58.3213 16.396 57.2893 16.396C56.4573 16.396 55.8053 16.572 55.3333 16.924C54.8693 17.276 54.6373 17.744 54.6373 18.328C54.6373 18.944 54.9293 19.428 55.5133 19.78C56.0973 20.124 57.0173 20.396 58.2733 20.596C60.0493 20.876 61.3093 21.336 62.0533 21.976C62.7973 22.616 63.1693 23.48 63.1693 24.568C63.1693 25.712 62.8013 26.608 62.0653 27.256C61.3373 27.904 60.2813 28.228 58.8973 28.228ZM52.8493 28V23.968H54.5773V28H52.8493ZM60.9733 19.168V15.22H62.7013V19.168H60.9733ZM69.0845 26.512H71.3525V28H64.7885V26.512H67.3565V10.528H64.7885V9.04H69.0845V26.512ZM76.4525 26.512V19.792C76.4525 18.752 76.2165 17.936 75.7445 17.344C75.2805 16.752 74.5485 16.456 73.5485 16.456C72.7085 16.456 71.9525 16.672 71.2805 17.104C70.6085 17.528 70.0725 18.148 69.6725 18.964C69.2805 19.772 69.0845 20.748 69.0845 21.892L68.6765 19.336H69.1565C69.3165 18.4 69.6165 17.608 70.0565 16.96C70.5045 16.304 71.0725 15.804 71.7605 15.46C72.4485 15.116 73.2365 14.944 74.1245 14.944C75.5165 14.944 76.5405 15.344 77.1965 16.144C77.8525 16.944 78.1805 18.068 78.1805 19.516V26.512H80.6285V28H74.1965V26.512H76.4525Z" fill="black"/>
<path d="M1 6.35211L6 1V39L1 33.6479V6.35211Z" fill="white"/>
<path d="M6 1L1 6.35211V33.6479L6 39" stroke="black" stroke-linecap="round"/>
<path d="M91 33.6479L86 39L86 1L91 6.35211L91 33.6479Z" fill="white"/>
<path d="M86 39L91 33.6479L91 6.35211L86 1" stroke="black" stroke-linecap="round"/>
</svg>
