<svg width="237" height="40" viewBox="0 0 237 40" fill="none" xmlns="http://www.w3.org/2000/svg">
<path d="M6 1H231V39H6V1Z" fill="white"/>
<path d="M6 1.5H231V0.5H6V1.5ZM231 38.5H6V39.5H231V38.5Z" fill="black"/>
<path d="M13.5857 28.264V10.528H11.0177V9.04H15.3137V19.696L15.2417 21.196V22.792L15.3137 25.12L13.7417 28.264H13.5857ZM20.0537 28.24C18.9817 28.24 18.0217 28.04 17.1737 27.64C16.3337 27.232 15.6377 26.656 15.0857 25.912C14.5417 25.16 14.1777 24.268 13.9937 23.236L15.2417 21.616C15.2417 22.6 15.4297 23.472 15.8057 24.232C16.1817 24.992 16.7217 25.592 17.4257 26.032C18.1297 26.464 18.9657 26.68 19.9337 26.68C20.9177 26.68 21.7577 26.468 22.4537 26.044C23.1577 25.62 23.6937 25.028 24.0617 24.268C24.4377 23.5 24.6257 22.608 24.6257 21.592C24.6257 20.6 24.4257 19.724 24.0257 18.964C23.6337 18.204 23.0857 17.608 22.3817 17.176C21.6777 16.744 20.8617 16.528 19.9337 16.528C18.9817 16.528 18.1537 16.744 17.4497 17.176C16.7457 17.608 16.2017 18.204 15.8177 18.964C15.4337 19.724 15.2417 20.608 15.2417 21.616L14.9657 18.916H15.3737C15.5257 18.212 15.8057 17.564 16.2137 16.972C16.6297 16.372 17.1777 15.892 17.8577 15.532C18.5457 15.164 19.3657 14.98 20.3177 14.98C21.2057 14.98 22.0217 15.144 22.7657 15.472C23.5097 15.792 24.1537 16.252 24.6977 16.852C25.2417 17.444 25.6617 18.148 25.9577 18.964C26.2537 19.772 26.4017 20.66 26.4017 21.628C26.4017 22.916 26.1377 24.06 25.6097 25.06C25.0897 26.052 24.3537 26.832 23.4017 27.4C22.4497 27.96 21.3337 28.24 20.0537 28.24ZM35.0612 28.228C33.7412 28.228 32.5972 27.948 31.6292 27.388C30.6612 26.828 29.9132 26.056 29.3852 25.072C28.8572 24.08 28.5932 22.94 28.5932 21.652C28.5932 20.348 28.8572 19.196 29.3852 18.196C29.9212 17.196 30.6652 16.412 31.6172 15.844C32.5772 15.276 33.6932 14.992 34.9652 14.992C36.2452 14.992 37.3532 15.272 38.2892 15.832C39.2252 16.392 39.9452 17.168 40.4492 18.16C40.9532 19.152 41.2052 20.296 41.2052 21.592C41.2052 21.744 41.2012 21.864 41.1932 21.952C41.1932 22.04 41.1852 22.116 41.1692 22.18H39.4652C39.4732 22.084 39.4772 21.98 39.4772 21.868C39.4852 21.748 39.4892 21.612 39.4892 21.46C39.4892 20.508 39.3052 19.664 38.9372 18.928C38.5772 18.184 38.0612 17.6 37.3892 17.176C36.7172 16.752 35.9092 16.54 34.9652 16.54C34.0452 16.54 33.2372 16.76 32.5412 17.2C31.8452 17.632 31.3052 18.232 30.9212 19C30.5372 19.76 30.3452 20.644 30.3452 21.652C30.3452 22.628 30.5332 23.492 30.9092 24.244C31.2932 24.988 31.8372 25.572 32.5412 25.996C33.2452 26.42 34.0812 26.632 35.0492 26.632C36.0572 26.632 36.9292 26.396 37.6652 25.924C38.4092 25.444 38.9612 24.792 39.3212 23.968L40.9532 24.58C40.4812 25.708 39.7252 26.6 38.6852 27.256C37.6532 27.904 36.4452 28.228 35.0612 28.228ZM29.6852 22.18V20.848H40.6532L41.1572 22.18H29.6852ZM53.4887 28C53.1607 28 52.9087 27.896 52.7327 27.688C52.5647 27.48 52.4807 27.188 52.4807 26.812V22.972L52.6367 22.576L52.5527 21.124L52.4807 20.368V19.396C52.4807 18.74 52.3447 18.204 52.0727 17.788C51.8087 17.372 51.4247 17.064 50.9207 16.864C50.4167 16.664 49.8087 16.564 49.0967 16.564C48.0327 16.564 47.2087 16.776 46.6247 17.2C46.0487 17.616 45.6647 18.244 45.4727 19.084L43.8167 18.736C43.9767 17.896 44.2767 17.2 44.7167 16.648C45.1567 16.088 45.7407 15.672 46.4687 15.4C47.2047 15.12 48.1007 14.98 49.1567 14.98C50.2607 14.98 51.1847 15.136 51.9287 15.448C52.6807 15.752 53.2487 16.22 53.6327 16.852C54.0167 17.484 54.2087 18.3 54.2087 19.3V26.512H56.0927V28H53.4887ZM47.4647 28.168C46.1367 28.168 45.1287 27.876 44.4407 27.292C43.7527 26.7 43.4087 25.832 43.4087 24.688C43.4087 23.632 43.7127 22.828 44.3207 22.276C44.9287 21.716 45.9047 21.296 47.2487 21.016L52.9967 19.792V21.028L47.5367 22.264C46.7527 22.448 46.1647 22.72 45.7727 23.08C45.3887 23.432 45.1967 23.932 45.1967 24.58C45.1967 25.284 45.4127 25.812 45.8447 26.164C46.2767 26.508 46.9087 26.68 47.7407 26.68C48.6607 26.68 49.4847 26.468 50.2127 26.044C50.9407 25.62 51.5127 24.996 51.9287 24.172C52.3447 23.348 52.5527 22.332 52.5527 21.124L53.0087 23.956H52.3967C52.1967 25.292 51.6767 26.328 50.8367 27.064C50.0047 27.8 48.8807 28.168 47.4647 28.168ZM68.7675 28V23.224L68.8395 22.288V20.764L68.7675 19.084V10.528H65.3235V9.04H70.4955V26.512H72.9435V28H68.7675ZM63.9555 14.98C65.0115 14.98 65.9555 15.212 66.7875 15.676C67.6275 16.14 68.3195 16.804 68.8635 17.668C69.4075 18.524 69.7675 19.552 69.9435 20.752L68.8395 21.58C68.8395 20.596 68.6475 19.724 68.2635 18.964C67.8875 18.204 67.3475 17.612 66.6435 17.188C65.9395 16.756 65.1035 16.54 64.1355 16.54C63.1835 16.54 62.3555 16.756 61.6515 17.188C60.9475 17.62 60.4035 18.216 60.0195 18.976C59.6435 19.736 59.4555 20.616 59.4555 21.616C59.4555 22.608 59.6515 23.484 60.0435 24.244C60.4355 25.004 60.9835 25.604 61.6875 26.044C62.3995 26.476 63.2155 26.692 64.1355 26.692C65.0955 26.692 65.9235 26.476 66.6195 26.044C67.3235 25.604 67.8675 25 68.2515 24.232C68.6435 23.464 68.8395 22.58 68.8395 21.58L69.1035 24.304H68.6955C68.5515 25.008 68.2715 25.66 67.8555 26.26C67.4395 26.852 66.8915 27.332 66.2115 27.7C65.5315 28.06 64.7155 28.24 63.7635 28.24C62.8755 28.24 62.0595 28.08 61.3155 27.76C60.5715 27.432 59.9275 26.972 59.3835 26.38C58.8395 25.78 58.4155 25.076 58.1115 24.268C57.8155 23.46 57.6675 22.576 57.6675 21.616C57.6675 20.32 57.9275 19.172 58.4475 18.172C58.9675 17.172 59.6955 16.392 60.6315 15.832C61.5755 15.264 62.6835 14.98 63.9555 14.98ZM80.8243 28.228C79.5043 28.228 78.3603 27.948 77.3923 27.388C76.4243 26.828 75.6763 26.056 75.1483 25.072C74.6203 24.08 74.3563 22.94 74.3563 21.652C74.3563 20.348 74.6203 19.196 75.1483 18.196C75.6843 17.196 76.4283 16.412 77.3803 15.844C78.3403 15.276 79.4563 14.992 80.7283 14.992C82.0083 14.992 83.1163 15.272 84.0523 15.832C84.9883 16.392 85.7083 17.168 86.2123 18.16C86.7163 19.152 86.9683 20.296 86.9683 21.592C86.9683 21.744 86.9643 21.864 86.9563 21.952C86.9563 22.04 86.9483 22.116 86.9323 22.18H85.2283C85.2363 22.084 85.2403 21.98 85.2403 21.868C85.2483 21.748 85.2523 21.612 85.2523 21.46C85.2523 20.508 85.0683 19.664 84.7003 18.928C84.3403 18.184 83.8243 17.6 83.1523 17.176C82.4803 16.752 81.6723 16.54 80.7283 16.54C79.8083 16.54 79.0003 16.76 78.3043 17.2C77.6083 17.632 77.0683 18.232 76.6843 19C76.3003 19.76 76.1083 20.644 76.1083 21.652C76.1083 22.628 76.2963 23.492 76.6723 24.244C77.0563 24.988 77.6003 25.572 78.3043 25.996C79.0083 26.42 79.8443 26.632 80.8123 26.632C81.8203 26.632 82.6923 26.396 83.4283 25.924C84.1723 25.444 84.7243 24.792 85.0843 23.968L86.7163 24.58C86.2443 25.708 85.4883 26.6 84.4483 27.256C83.4163 27.904 82.2083 28.228 80.8243 28.228ZM75.4483 22.18V20.848H86.4163L86.9203 22.18H75.4483ZM100.128 28V23.224L100.2 22.288V20.764L100.128 19.084V10.528H96.6838V9.04H101.856V26.512H104.304V28H100.128ZM95.3158 14.98C96.3718 14.98 97.3158 15.212 98.1478 15.676C98.9878 16.14 99.6798 16.804 100.224 17.668C100.768 18.524 101.128 19.552 101.304 20.752L100.2 21.58C100.2 20.596 100.008 19.724 99.6238 18.964C99.2478 18.204 98.7078 17.612 98.0038 17.188C97.2998 16.756 96.4638 16.54 95.4958 16.54C94.5438 16.54 93.7158 16.756 93.0118 17.188C92.3078 17.62 91.7638 18.216 91.3798 18.976C91.0038 19.736 90.8158 20.616 90.8158 21.616C90.8158 22.608 91.0118 23.484 91.4038 24.244C91.7958 25.004 92.3438 25.604 93.0478 26.044C93.7598 26.476 94.5758 26.692 95.4958 26.692C96.4558 26.692 97.2838 26.476 97.9798 26.044C98.6838 25.604 99.2278 25 99.6118 24.232C100.004 23.464 100.2 22.58 100.2 21.58L100.464 24.304H100.056C99.9118 25.008 99.6318 25.66 99.2158 26.26C98.7998 26.852 98.2518 27.332 97.5718 27.7C96.8918 28.06 96.0758 28.24 95.1238 28.24C94.2358 28.24 93.4198 28.08 92.6758 27.76C91.9318 27.432 91.2878 26.972 90.7438 26.38C90.1998 25.78 89.7758 25.076 89.4718 24.268C89.1758 23.46 89.0278 22.576 89.0278 21.616C89.0278 20.32 89.2878 19.172 89.8078 18.172C90.3278 17.172 91.0558 16.392 91.9918 15.832C92.9358 15.264 94.0438 14.98 95.3158 14.98ZM116.947 26.512H119.227V28H112.591V26.512H115.219V16.708H112.591V15.22H116.947V26.512ZM124.315 26.512V19.828C124.315 18.78 124.079 17.956 123.607 17.356C123.135 16.756 122.391 16.456 121.375 16.456C120.551 16.456 119.803 16.66 119.131 17.068C118.459 17.476 117.927 18.068 117.535 18.844C117.143 19.62 116.947 20.56 116.947 21.664L116.551 19.108H117.031C117.183 18.236 117.475 17.496 117.907 16.888C118.339 16.272 118.891 15.804 119.563 15.484C120.243 15.156 121.023 14.992 121.903 14.992C123.295 14.992 124.331 15.396 125.011 16.204C125.699 17.004 126.043 18.136 126.043 19.6V26.512H128.503V28H122.071V26.512H124.315ZM136.326 28.228C135.006 28.228 133.862 27.948 132.894 27.388C131.926 26.828 131.178 26.056 130.65 25.072C130.122 24.08 129.858 22.94 129.858 21.652C129.858 20.348 130.122 19.196 130.65 18.196C131.186 17.196 131.93 16.412 132.882 15.844C133.842 15.276 134.958 14.992 136.23 14.992C137.51 14.992 138.618 15.272 139.554 15.832C140.49 16.392 141.21 17.168 141.714 18.16C142.218 19.152 142.47 20.296 142.47 21.592C142.47 21.744 142.466 21.864 142.458 21.952C142.458 22.04 142.45 22.116 142.434 22.18H140.73C140.738 22.084 140.742 21.98 140.742 21.868C140.75 21.748 140.754 21.612 140.754 21.46C140.754 20.508 140.57 19.664 140.202 18.928C139.842 18.184 139.326 17.6 138.654 17.176C137.982 16.752 137.174 16.54 136.23 16.54C135.31 16.54 134.502 16.76 133.806 17.2C133.11 17.632 132.57 18.232 132.186 19C131.802 19.76 131.61 20.644 131.61 21.652C131.61 22.628 131.798 23.492 132.174 24.244C132.558 24.988 133.102 25.572 133.806 25.996C134.51 26.42 135.346 26.632 136.314 26.632C137.322 26.632 138.194 26.396 138.93 25.924C139.674 25.444 140.226 24.792 140.586 23.968L142.218 24.58C141.746 25.708 140.99 26.6 139.95 27.256C138.918 27.904 137.71 28.228 136.326 28.228ZM130.95 22.18V20.848H141.918L142.422 22.18H130.95ZM151.13 28.228C149.802 28.228 148.646 27.948 147.662 27.388C146.686 26.828 145.926 26.056 145.382 25.072C144.846 24.08 144.578 22.94 144.578 21.652C144.578 20.676 144.726 19.784 145.022 18.976C145.318 18.16 145.742 17.456 146.294 16.864C146.846 16.264 147.502 15.804 148.262 15.484C149.022 15.156 149.87 14.992 150.806 14.992C151.71 14.992 152.462 15.14 153.062 15.436C153.67 15.724 154.142 16.124 154.478 16.636C154.814 17.14 155.03 17.72 155.126 18.376H155.546L155.198 20.188C155.094 19.468 154.858 18.836 154.49 18.292C154.122 17.74 153.642 17.312 153.05 17.008C152.458 16.696 151.774 16.54 150.998 16.54C150.07 16.54 149.254 16.76 148.55 17.2C147.854 17.632 147.31 18.232 146.918 19C146.534 19.76 146.342 20.644 146.342 21.652C146.342 22.628 146.538 23.492 146.93 24.244C147.33 24.988 147.886 25.572 148.598 25.996C149.318 26.42 150.166 26.632 151.142 26.632C152.15 26.632 153.018 26.412 153.746 25.972C154.474 25.524 155.006 24.924 155.342 24.172L156.938 24.88C156.482 25.912 155.75 26.728 154.742 27.328C153.742 27.928 152.538 28.228 151.13 28.228ZM155.198 20.188V15.22H156.926V20.188H155.198ZM162.89 26.512H165.158V28H158.594V26.512H161.162V10.528H158.594V9.04H162.89V26.512ZM167.354 19.9L172.43 26.512H174.098V28H167.522V26.512H170.294L166.13 20.944L167.354 19.9ZM162.374 24.556L162.014 23.176L169.85 16.708H165.95V15.22H173.894V16.708H172.094L162.374 24.556ZM179.509 26.512H182.137V28H175.153V26.512H177.781V10.528H175.153V9.04H179.509V26.512ZM193.884 28C193.556 28 193.304 27.896 193.128 27.688C192.96 27.48 192.876 27.188 192.876 26.812V22.972L193.032 22.576L192.948 21.124L192.876 20.368V19.396C192.876 18.74 192.74 18.204 192.468 17.788C192.204 17.372 191.82 17.064 191.316 16.864C190.812 16.664 190.204 16.564 189.492 16.564C188.428 16.564 187.604 16.776 187.02 17.2C186.444 17.616 186.06 18.244 185.868 19.084L184.212 18.736C184.372 17.896 184.672 17.2 185.112 16.648C185.552 16.088 186.136 15.672 186.864 15.4C187.6 15.12 188.496 14.98 189.552 14.98C190.656 14.98 191.58 15.136 192.324 15.448C193.076 15.752 193.644 16.22 194.028 16.852C194.412 17.484 194.604 18.3 194.604 19.3V26.512H196.488V28H193.884ZM187.86 28.168C186.532 28.168 185.524 27.876 184.836 27.292C184.148 26.7 183.804 25.832 183.804 24.688C183.804 23.632 184.108 22.828 184.716 22.276C185.324 21.716 186.3 21.296 187.644 21.016L193.392 19.792V21.028L187.932 22.264C187.148 22.448 186.56 22.72 186.168 23.08C185.784 23.432 185.592 23.932 185.592 24.58C185.592 25.284 185.808 25.812 186.24 26.164C186.672 26.508 187.304 26.68 188.136 26.68C189.056 26.68 189.88 26.468 190.608 26.044C191.336 25.62 191.908 24.996 192.324 24.172C192.74 23.348 192.948 22.332 192.948 21.124L193.404 23.956H192.792C192.592 25.292 192.072 26.328 191.232 27.064C190.4 27.8 189.276 28.168 187.86 28.168ZM204.663 28.228C203.335 28.228 202.179 27.948 201.195 27.388C200.219 26.828 199.459 26.056 198.915 25.072C198.379 24.08 198.111 22.94 198.111 21.652C198.111 20.676 198.259 19.784 198.555 18.976C198.851 18.16 199.275 17.456 199.827 16.864C200.379 16.264 201.035 15.804 201.795 15.484C202.555 15.156 203.403 14.992 204.339 14.992C205.243 14.992 205.995 15.14 206.595 15.436C207.203 15.724 207.675 16.124 208.011 16.636C208.347 17.14 208.563 17.72 208.659 18.376H209.079L208.731 20.188C208.627 19.468 208.391 18.836 208.023 18.292C207.655 17.74 207.175 17.312 206.583 17.008C205.991 16.696 205.307 16.54 204.531 16.54C203.603 16.54 202.787 16.76 202.083 17.2C201.387 17.632 200.843 18.232 200.451 19C200.067 19.76 199.875 20.644 199.875 21.652C199.875 22.628 200.071 23.492 200.463 24.244C200.863 24.988 201.419 25.572 202.131 25.996C202.851 26.42 203.699 26.632 204.675 26.632C205.683 26.632 206.551 26.412 207.279 25.972C208.007 25.524 208.539 24.924 208.875 24.172L210.471 24.88C210.015 25.912 209.283 26.728 208.275 27.328C207.275 27.928 206.071 28.228 204.663 28.228ZM208.731 20.188V15.22H210.459V20.188H208.731ZM219.087 28.228C217.767 28.228 216.623 27.948 215.655 27.388C214.687 26.828 213.939 26.056 213.411 25.072C212.883 24.08 212.619 22.94 212.619 21.652C212.619 20.348 212.883 19.196 213.411 18.196C213.947 17.196 214.691 16.412 215.643 15.844C216.603 15.276 217.719 14.992 218.991 14.992C220.271 14.992 221.379 15.272 222.315 15.832C223.251 16.392 223.971 17.168 224.475 18.16C224.979 19.152 225.231 20.296 225.231 21.592C225.231 21.744 225.227 21.864 225.219 21.952C225.219 22.04 225.211 22.116 225.195 22.18H223.491C223.499 22.084 223.503 21.98 223.503 21.868C223.511 21.748 223.515 21.612 223.515 21.46C223.515 20.508 223.331 19.664 222.963 18.928C222.603 18.184 222.087 17.6 221.415 17.176C220.743 16.752 219.935 16.54 218.991 16.54C218.071 16.54 217.263 16.76 216.567 17.2C215.871 17.632 215.331 18.232 214.947 19C214.563 19.76 214.371 20.644 214.371 21.652C214.371 22.628 214.559 23.492 214.935 24.244C215.319 24.988 215.863 25.572 216.567 25.996C217.271 26.42 218.107 26.632 219.075 26.632C220.083 26.632 220.955 26.396 221.691 25.924C222.435 25.444 222.987 24.792 223.347 23.968L224.979 24.58C224.507 25.708 223.751 26.6 222.711 27.256C221.679 27.904 220.471 28.228 219.087 28.228ZM213.711 22.18V20.848H224.679L225.183 22.18H213.711Z" fill="black"/>
<path d="M1 6.35211L6 1V39L1 33.6479V6.35211Z" fill="white"/>
<path d="M6 1L1 6.35211V33.6479L6 39" stroke="black" stroke-linecap="round"/>
<path d="M236 33.6479L231 39L231 1L236 6.35211L236 33.6479Z" fill="white"/>
<path d="M231 39L236 33.6479L236 6.35211L231 1" stroke="black" stroke-linecap="round"/>
</svg>
