<svg width="125" height="40" viewBox="0 0 125 40" fill="none" xmlns="http://www.w3.org/2000/svg">
<path d="M6 1H119V39H6V1Z" fill="white"/>
<path d="M6 1.5H119V0.5H6V1.5ZM119 38.5H6V39.5H119V38.5Z" fill="black"/>
<path d="M23.4381 28V23.224L23.5101 22.288V20.764L23.4381 19.084V10.528H19.9941V9.04H25.1661V26.512H27.6141V28H23.4381ZM18.6261 14.98C19.6821 14.98 20.6261 15.212 21.4581 15.676C22.2981 16.14 22.9901 16.804 23.5341 17.668C24.0781 18.524 24.4381 19.552 24.6141 20.752L23.5101 21.58C23.5101 20.596 23.3181 19.724 22.9341 18.964C22.5581 18.204 22.0181 17.612 21.3141 17.188C20.6101 16.756 19.7741 16.54 18.8061 16.54C17.8541 16.54 17.0261 16.756 16.3221 17.188C15.6181 17.62 15.0741 18.216 14.6901 18.976C14.3141 19.736 14.1261 20.616 14.1261 21.616C14.1261 22.608 14.3221 23.484 14.7141 24.244C15.1061 25.004 15.6541 25.604 16.3581 26.044C17.0701 26.476 17.8861 26.692 18.8061 26.692C19.7661 26.692 20.5941 26.476 21.2901 26.044C21.9941 25.604 22.5381 25 22.9221 24.232C23.3141 23.464 23.5101 22.58 23.5101 21.58L23.7741 24.304H23.3661C23.2221 25.008 22.9421 25.66 22.5261 26.26C22.1101 26.852 21.5621 27.332 20.8821 27.7C20.2021 28.06 19.3861 28.24 18.4341 28.24C17.5461 28.24 16.7301 28.08 15.9861 27.76C15.2421 27.432 14.5981 26.972 14.0541 26.38C13.5101 25.78 13.0861 25.076 12.7821 24.268C12.4861 23.46 12.3381 22.576 12.3381 21.616C12.3381 20.32 12.5981 19.172 13.1181 18.172C13.6381 17.172 14.3661 16.392 15.3021 15.832C16.2461 15.264 17.3541 14.98 18.6261 14.98ZM33.5687 26.512H36.0287V28H29.2487V26.512H31.8407V16.708H29.2487V15.22H33.5687V26.512ZM31.5167 9.832H33.7247V12.124H31.5167V9.832ZM55.0664 28V26.512H57.3224V19.804C57.3224 18.756 57.0904 17.936 56.6264 17.344C56.1624 16.752 55.4384 16.456 54.4544 16.456C53.6624 16.456 52.9584 16.664 52.3424 17.08C51.7264 17.496 51.2424 18.092 50.8904 18.868C50.5384 19.644 50.3624 20.576 50.3624 21.664L49.9424 19.096H50.4344C50.6344 17.704 51.1504 16.664 51.9824 15.976C52.8224 15.288 53.8424 14.944 55.0424 14.944C56.3944 14.944 57.3984 15.344 58.0544 16.144C58.7184 16.944 59.0504 18.072 59.0504 19.528V26.512H61.4984V28H55.0664ZM37.3784 28V26.512H39.9344V16.708H37.3784V15.22H41.6624V26.512H43.9304V28H37.3784ZM46.3784 28V26.512H48.6344V19.804C48.6344 18.756 48.4024 17.936 47.9384 17.344C47.4744 16.752 46.7504 16.456 45.7664 16.456C44.9744 16.456 44.2704 16.664 43.6544 17.08C43.0384 17.496 42.5504 18.092 42.1904 18.868C41.8384 19.644 41.6624 20.576 41.6624 21.664L41.2544 19.096H41.7464C41.9384 17.704 42.4544 16.664 43.2944 15.976C44.1344 15.288 45.1544 14.944 46.3544 14.944C47.7064 14.944 48.7104 15.344 49.3664 16.144C50.0304 16.944 50.3624 18.072 50.3624 19.528V26.512H52.8104V28H46.3784ZM62.4625 33.04V31.552H65.0185V16.708H62.4625V15.22H66.7465V19.792L66.6985 21.16V21.916L66.7465 22.996V31.552H69.2545V33.04H62.4625ZM71.5705 28.24C70.5145 28.24 69.5665 28.008 68.7265 27.544C67.8945 27.08 67.2065 26.42 66.6625 25.564C66.1185 24.7 65.7585 23.668 65.5825 22.468L66.6985 21.64C66.6985 22.624 66.8865 23.496 67.2625 24.256C67.6385 25.008 68.1785 25.6 68.8825 26.032C69.5865 26.464 70.4225 26.68 71.3905 26.68C72.3425 26.68 73.1705 26.464 73.8745 26.032C74.5785 25.6 75.1185 25.004 75.4945 24.244C75.8785 23.476 76.0705 22.6 76.0705 21.616C76.0705 20.616 75.8745 19.736 75.4825 18.976C75.0905 18.216 74.5425 17.62 73.8385 17.188C73.1345 16.748 72.3185 16.528 71.3905 16.528C70.4385 16.528 69.6105 16.748 68.9065 17.188C68.2025 17.62 67.6585 18.22 67.2745 18.988C66.8905 19.756 66.6985 20.64 66.6985 21.64L66.4225 18.916H66.8305C66.9745 18.212 67.2545 17.564 67.6705 16.972C68.0865 16.372 68.6345 15.892 69.3145 15.532C70.0025 15.164 70.8185 14.98 71.7625 14.98C72.6585 14.98 73.4785 15.144 74.2225 15.472C74.9665 15.792 75.6065 16.252 76.1425 16.852C76.6865 17.444 77.1065 18.144 77.4025 18.952C77.7065 19.76 77.8585 20.648 77.8585 21.616C77.8585 22.904 77.5985 24.048 77.0785 25.048C76.5585 26.048 75.8265 26.832 74.8825 27.4C73.9465 27.96 72.8425 28.24 71.5705 28.24ZM83.5759 26.512H86.2039V28H79.2199V26.512H81.8479V10.528H79.2199V9.04H83.5759V26.512ZM93.9734 28.228C92.6534 28.228 91.5094 27.948 90.5414 27.388C89.5734 26.828 88.8254 26.056 88.2974 25.072C87.7694 24.08 87.5054 22.94 87.5054 21.652C87.5054 20.348 87.7694 19.196 88.2974 18.196C88.8334 17.196 89.5774 16.412 90.5294 15.844C91.4894 15.276 92.6054 14.992 93.8774 14.992C95.1574 14.992 96.2654 15.272 97.2014 15.832C98.1374 16.392 98.8574 17.168 99.3614 18.16C99.8654 19.152 100.117 20.296 100.117 21.592C100.117 21.744 100.113 21.864 100.105 21.952C100.105 22.04 100.097 22.116 100.081 22.18H98.3774C98.3854 22.084 98.3894 21.98 98.3894 21.868C98.3974 21.748 98.4014 21.612 98.4014 21.46C98.4014 20.508 98.2174 19.664 97.8494 18.928C97.4894 18.184 96.9734 17.6 96.3014 17.176C95.6294 16.752 94.8214 16.54 93.8774 16.54C92.9574 16.54 92.1494 16.76 91.4534 17.2C90.7574 17.632 90.2174 18.232 89.8334 19C89.4494 19.76 89.2574 20.644 89.2574 21.652C89.2574 22.628 89.4454 23.492 89.8214 24.244C90.2054 24.988 90.7494 25.572 91.4534 25.996C92.1574 26.42 92.9934 26.632 93.9614 26.632C94.9694 26.632 95.8414 26.396 96.5774 25.924C97.3214 25.444 97.8734 24.792 98.2334 23.968L99.8654 24.58C99.3934 25.708 98.6374 26.6 97.5974 27.256C96.5654 27.904 95.3574 28.228 93.9734 28.228ZM88.5974 22.18V20.848H99.5654L100.069 22.18H88.5974ZM108.381 28.228C107.525 28.228 106.801 28.1 106.209 27.844C105.625 27.588 105.161 27.248 104.817 26.824C104.473 26.392 104.249 25.912 104.145 25.384H103.713L104.061 23.968C104.213 24.808 104.629 25.492 105.309 26.02C105.997 26.548 106.889 26.812 107.985 26.812C108.921 26.812 109.645 26.624 110.157 26.248C110.677 25.864 110.937 25.308 110.937 24.58C110.937 23.916 110.681 23.4 110.169 23.032C109.657 22.664 108.761 22.384 107.481 22.192C105.649 21.904 104.345 21.452 103.569 20.836C102.793 20.212 102.405 19.392 102.405 18.376C102.405 17.352 102.761 16.532 103.473 15.916C104.185 15.3 105.177 14.992 106.449 14.992C107.289 14.992 107.981 15.12 108.525 15.376C109.077 15.632 109.501 15.976 109.797 16.408C110.093 16.832 110.285 17.3 110.373 17.812H110.805L110.457 19.168C110.313 18.352 109.921 17.688 109.281 17.176C108.641 16.656 107.805 16.396 106.773 16.396C105.941 16.396 105.289 16.572 104.817 16.924C104.353 17.276 104.121 17.744 104.121 18.328C104.121 18.944 104.413 19.428 104.997 19.78C105.581 20.124 106.501 20.396 107.757 20.596C109.533 20.876 110.793 21.336 111.537 21.976C112.281 22.616 112.653 23.48 112.653 24.568C112.653 25.712 112.285 26.608 111.549 27.256C110.821 27.904 109.765 28.228 108.381 28.228ZM102.333 28V23.968H104.061V28H102.333ZM110.457 19.168V15.22H112.185V19.168H110.457Z" fill="black"/>
<path d="M1 6.35211L6 1V39L1 33.6479V6.35211Z" fill="white"/>
<path d="M6 1L1 6.35211V33.6479L6 39" stroke="black" stroke-linecap="round"/>
<path d="M124 33.6479L119 39L119 1L124 6.35211L124 33.6479Z" fill="white"/>
<path d="M119 39L124 33.6479L124 6.35211L119 1" stroke="black" stroke-linecap="round"/>
</svg>
