<svg width="198" height="40" viewBox="0 0 198 40" fill="none" xmlns="http://www.w3.org/2000/svg">
<path d="M6 1H192V39H6V1Z" fill="white"/>
<path d="M6 1.5H192V0.5H6V1.5ZM192 38.5H6V39.5H192V38.5Z" fill="black"/>
<path d="M19.1142 28.228C17.7862 28.228 16.6302 27.948 15.6462 27.388C14.6702 26.828 13.9102 26.056 13.3662 25.072C12.8302 24.08 12.5622 22.94 12.5622 21.652C12.5622 20.676 12.7102 19.784 13.0062 18.976C13.3022 18.16 13.7262 17.456 14.2782 16.864C14.8302 16.264 15.4862 15.804 16.2462 15.484C17.0062 15.156 17.8542 14.992 18.7902 14.992C19.6942 14.992 20.4462 15.14 21.0462 15.436C21.6542 15.724 22.1262 16.124 22.4622 16.636C22.7982 17.14 23.0142 17.72 23.1102 18.376H23.5302L23.1822 20.188C23.0782 19.468 22.8422 18.836 22.4742 18.292C22.1062 17.74 21.6262 17.312 21.0342 17.008C20.4422 16.696 19.7582 16.54 18.9822 16.54C18.0542 16.54 17.2382 16.76 16.5342 17.2C15.8382 17.632 15.2942 18.232 14.9022 19C14.5182 19.76 14.3262 20.644 14.3262 21.652C14.3262 22.628 14.5222 23.492 14.9142 24.244C15.3142 24.988 15.8702 25.572 16.5822 25.996C17.3022 26.42 18.1502 26.632 19.1262 26.632C20.1342 26.632 21.0022 26.412 21.7302 25.972C22.4582 25.524 22.9902 24.924 23.3262 24.172L24.9222 24.88C24.4662 25.912 23.7342 26.728 22.7262 27.328C21.7262 27.928 20.5222 28.228 19.1142 28.228ZM23.1822 20.188V15.22H24.9102V20.188H23.1822ZM33.6942 28.228C32.3662 28.228 31.2022 27.948 30.2022 27.388C29.2022 26.82 28.4222 26.044 27.8622 25.06C27.3022 24.076 27.0222 22.94 27.0222 21.652C27.0222 20.356 27.3022 19.208 27.8622 18.208C28.4222 17.2 29.2022 16.412 30.2022 15.844C31.2022 15.276 32.3662 14.992 33.6942 14.992C35.0222 14.992 36.1862 15.276 37.1862 15.844C38.1862 16.412 38.9662 17.2 39.5262 18.208C40.0862 19.208 40.3662 20.356 40.3662 21.652C40.3662 22.94 40.0862 24.076 39.5262 25.06C38.9662 26.044 38.1862 26.82 37.1862 27.388C36.1862 27.948 35.0222 28.228 33.6942 28.228ZM33.6942 26.632C34.6542 26.632 35.4982 26.424 36.2262 26.008C36.9622 25.592 37.5342 25.012 37.9422 24.268C38.3582 23.516 38.5662 22.644 38.5662 21.652C38.5662 20.652 38.3582 19.772 37.9422 19.012C37.5342 18.252 36.9622 17.66 36.2262 17.236C35.4982 16.804 34.6542 16.588 33.6942 16.588C32.7342 16.588 31.8862 16.804 31.1502 17.236C30.4222 17.66 29.8502 18.252 29.4342 19.012C29.0262 19.772 28.8222 20.652 28.8222 21.652C28.8222 22.644 29.0262 23.516 29.4342 24.268C29.8502 25.012 30.4222 25.592 31.1502 26.008C31.8862 26.424 32.7342 26.632 33.6942 26.632ZM46.087 26.512H48.715V28H41.731V26.512H44.359V10.528H41.731V9.04H46.087V26.512ZM56.6405 28.228C55.3125 28.228 54.1485 27.948 53.1485 27.388C52.1485 26.82 51.3685 26.044 50.8085 25.06C50.2485 24.076 49.9685 22.94 49.9685 21.652C49.9685 20.356 50.2485 19.208 50.8085 18.208C51.3685 17.2 52.1485 16.412 53.1485 15.844C54.1485 15.276 55.3125 14.992 56.6405 14.992C57.9685 14.992 59.1325 15.276 60.1325 15.844C61.1325 16.412 61.9125 17.2 62.4725 18.208C63.0325 19.208 63.3125 20.356 63.3125 21.652C63.3125 22.94 63.0325 24.076 62.4725 25.06C61.9125 26.044 61.1325 26.82 60.1325 27.388C59.1325 27.948 57.9685 28.228 56.6405 28.228ZM56.6405 26.632C57.6005 26.632 58.4445 26.424 59.1725 26.008C59.9085 25.592 60.4805 25.012 60.8885 24.268C61.3045 23.516 61.5125 22.644 61.5125 21.652C61.5125 20.652 61.3045 19.772 60.8885 19.012C60.4805 18.252 59.9085 17.66 59.1725 17.236C58.4445 16.804 57.6005 16.588 56.6405 16.588C55.6805 16.588 54.8325 16.804 54.0965 17.236C53.3685 17.66 52.7965 18.252 52.3805 19.012C51.9725 19.772 51.7685 20.652 51.7685 21.652C51.7685 22.644 51.9725 23.516 52.3805 24.268C52.7965 25.012 53.3685 25.592 54.0965 26.008C54.8325 26.424 55.6805 26.632 56.6405 26.632ZM69.6614 26.512H72.1574V28H65.3054V26.512H67.9334V16.708H65.3054V15.22H69.6614V26.512ZM74.5694 17.056C74.4254 17.016 74.2694 16.984 74.1014 16.96C73.9414 16.936 73.7654 16.924 73.5734 16.924C72.3894 16.924 71.4414 17.368 70.7294 18.256C70.0174 19.136 69.6614 20.36 69.6614 21.928L69.2534 19.132H69.7454C69.8574 18.284 70.0894 17.556 70.4414 16.948C70.7934 16.332 71.2494 15.86 71.8094 15.532C72.3774 15.196 73.0414 15.028 73.8014 15.028C73.9454 15.028 74.0734 15.036 74.1854 15.052C74.3054 15.06 74.4334 15.076 74.5694 15.1V17.056ZM75.7473 28V26.512H78.2793V16.708H75.7473V15.22H78.2793V13.24C78.2793 11.848 78.6313 10.764 79.3353 9.988C80.0393 9.204 81.1033 8.812 82.5273 8.812C83.6873 8.812 84.5873 9.068 85.2273 9.58C85.8753 10.092 86.3073 10.836 86.5233 11.812L84.9633 12.292C84.8193 11.66 84.5433 11.188 84.1353 10.876C83.7353 10.556 83.1993 10.396 82.5273 10.396C81.7273 10.396 81.1073 10.628 80.6673 11.092C80.2273 11.556 80.0073 12.272 80.0073 13.24V15.22H84.2553V16.708H80.0073V26.512H83.0673V28H75.7473ZM96.3038 16.708H93.8318V15.22H98.0318V26.512H100.528V28H96.3038V16.708ZM89.1638 15.22V23.368C89.1638 24.416 89.3958 25.244 89.8598 25.852C90.3318 26.452 91.0718 26.752 92.0798 26.752C92.8878 26.752 93.6078 26.548 94.2399 26.14C94.8798 25.724 95.3838 25.128 95.7518 24.352C96.1198 23.576 96.3038 22.644 96.3038 21.556L96.7239 24.112H96.2198C96.0038 25.488 95.4678 26.528 94.6118 27.232C93.7638 27.928 92.7198 28.276 91.4798 28.276C90.1038 28.276 89.0838 27.868 88.4198 27.052C87.7638 26.236 87.4358 25.104 87.4358 23.656V16.708H85.1198V15.22H89.1638ZM105.937 26.512H108.565V28H101.581V26.512H104.209V10.528H101.581V9.04H105.937V26.512ZM121.217 26.512H123.677V28H116.897V26.512H119.489V16.708H116.897V15.22H121.217V26.512ZM119.165 9.832H121.373V12.124H119.165V9.832ZM128.447 24.616C128.447 25.288 128.575 25.796 128.831 26.14C129.087 26.476 129.479 26.644 130.007 26.644C130.527 26.644 130.919 26.472 131.183 26.128C131.447 25.776 131.579 25.272 131.579 24.616V23.428H133.139V24.604C133.139 25.372 133.023 26.028 132.791 26.572C132.567 27.108 132.223 27.52 131.759 27.808C131.295 28.088 130.699 28.228 129.971 28.228C129.227 28.228 128.615 28.084 128.135 27.796C127.655 27.5 127.299 27.084 127.067 26.548C126.835 26.012 126.719 25.368 126.719 24.616L126.731 16.708H124.451V15.22H126.731V11.98H128.459V15.22H132.971L132.959 16.708H128.459L128.447 24.616ZM141.449 28.228C140.129 28.228 138.985 27.948 138.017 27.388C137.049 26.828 136.301 26.056 135.773 25.072C135.245 24.08 134.981 22.94 134.981 21.652C134.981 20.348 135.245 19.196 135.773 18.196C136.309 17.196 137.053 16.412 138.005 15.844C138.965 15.276 140.081 14.992 141.353 14.992C142.633 14.992 143.741 15.272 144.677 15.832C145.613 16.392 146.333 17.168 146.837 18.16C147.341 19.152 147.593 20.296 147.593 21.592C147.593 21.744 147.589 21.864 147.581 21.952C147.581 22.04 147.573 22.116 147.557 22.18H145.853C145.861 22.084 145.865 21.98 145.865 21.868C145.873 21.748 145.877 21.612 145.877 21.46C145.877 20.508 145.693 19.664 145.325 18.928C144.965 18.184 144.449 17.6 143.777 17.176C143.105 16.752 142.297 16.54 141.353 16.54C140.433 16.54 139.625 16.76 138.929 17.2C138.233 17.632 137.693 18.232 137.309 19C136.925 19.76 136.733 20.644 136.733 21.652C136.733 22.628 136.921 23.492 137.297 24.244C137.681 24.988 138.225 25.572 138.929 25.996C139.633 26.42 140.469 26.632 141.437 26.632C142.445 26.632 143.317 26.396 144.053 25.924C144.797 25.444 145.349 24.792 145.709 23.968L147.341 24.58C146.869 25.708 146.113 26.6 145.073 27.256C144.041 27.904 142.833 28.228 141.449 28.228ZM136.073 22.18V20.848H147.041L147.545 22.18H136.073ZM167.185 28V26.512H169.441V19.804C169.441 18.756 169.209 17.936 168.745 17.344C168.281 16.752 167.557 16.456 166.573 16.456C165.781 16.456 165.077 16.664 164.461 17.08C163.845 17.496 163.361 18.092 163.009 18.868C162.657 19.644 162.481 20.576 162.481 21.664L162.061 19.096H162.553C162.753 17.704 163.269 16.664 164.101 15.976C164.941 15.288 165.961 14.944 167.161 14.944C168.513 14.944 169.517 15.344 170.173 16.144C170.837 16.944 171.169 18.072 171.169 19.528V26.512H173.617V28H167.185ZM149.497 28V26.512H152.053V16.708H149.497V15.22H153.781V26.512H156.049V28H149.497ZM158.497 28V26.512H160.753V19.804C160.753 18.756 160.521 17.936 160.057 17.344C159.593 16.752 158.869 16.456 157.885 16.456C157.093 16.456 156.389 16.664 155.773 17.08C155.157 17.496 154.669 18.092 154.309 18.868C153.957 19.644 153.781 20.576 153.781 21.664L153.373 19.096H153.865C154.057 17.704 154.573 16.664 155.413 15.976C156.253 15.288 157.273 14.944 158.473 14.944C159.825 14.944 160.829 15.344 161.485 16.144C162.149 16.944 162.481 18.072 162.481 19.528V26.512H164.929V28H158.497ZM181.205 28.228C180.349 28.228 179.625 28.1 179.033 27.844C178.449 27.588 177.985 27.248 177.641 26.824C177.297 26.392 177.073 25.912 176.969 25.384H176.537L176.885 23.968C177.037 24.808 177.453 25.492 178.133 26.02C178.821 26.548 179.713 26.812 180.809 26.812C181.745 26.812 182.469 26.624 182.981 26.248C183.501 25.864 183.761 25.308 183.761 24.58C183.761 23.916 183.505 23.4 182.993 23.032C182.481 22.664 181.585 22.384 180.305 22.192C178.473 21.904 177.169 21.452 176.393 20.836C175.617 20.212 175.229 19.392 175.229 18.376C175.229 17.352 175.585 16.532 176.297 15.916C177.009 15.3 178.001 14.992 179.273 14.992C180.113 14.992 180.805 15.12 181.349 15.376C181.901 15.632 182.325 15.976 182.621 16.408C182.917 16.832 183.109 17.3 183.197 17.812H183.629L183.281 19.168C183.137 18.352 182.745 17.688 182.105 17.176C181.465 16.656 180.629 16.396 179.597 16.396C178.765 16.396 178.113 16.572 177.641 16.924C177.177 17.276 176.945 17.744 176.945 18.328C176.945 18.944 177.237 19.428 177.821 19.78C178.405 20.124 179.325 20.396 180.581 20.596C182.357 20.876 183.617 21.336 184.361 21.976C185.105 22.616 185.477 23.48 185.477 24.568C185.477 25.712 185.109 26.608 184.373 27.256C183.645 27.904 182.589 28.228 181.205 28.228ZM175.157 28V23.968H176.885V28H175.157ZM183.281 19.168V15.22H185.009V19.168H183.281Z" fill="black"/>
<path d="M1 6.35211L6 1V39L1 33.6479V6.35211Z" fill="white"/>
<path d="M6 1L1 6.35211V33.6479L6 39" stroke="black" stroke-linecap="round"/>
<path d="M197 33.6479L192 39L192 1L197 6.35211L197 33.6479Z" fill="white"/>
<path d="M192 39L197 33.6479L197 6.35211L192 1" stroke="black" stroke-linecap="round"/>
</svg>
