<svg width="224" height="72" viewBox="0 0 224 72" fill="none" xmlns="http://www.w3.org/2000/svg">
<path d="M6 1H218V39H6V1Z" fill="white"/>
<path d="M6 1.5H218V0.5H6V1.5ZM218 38.5H6V39.5H218V38.5Z" fill="black"/>
<path d="M28.0925 11.1492V30.2472H26.406V11.1492H28.0925ZM12.0483 20.2652C14.616 20.2576 17.5711 20.2348 20.511 20.0905C21.0124 17.3481 21.0883 15.3349 21.1111 14.0207H13.7499V12.6229H22.79V13.3978C22.7748 14.6209 22.7748 16.8391 22.243 19.9841C23.1774 19.9233 24.1042 19.8474 25.0082 19.7486L25.1298 21.0249C23.1774 21.2756 21.1491 21.4427 19.1588 21.5414V29.1077H17.4723V21.6098C15.6491 21.6782 13.8943 21.6934 12.2914 21.6934L12.0483 20.2652ZM36.334 12.6229C38.0889 12.6305 39.5171 13.6561 40.3375 15.4185H45.3589V11.1492H47.0302V30.2776H45.3589V22.8633H40.459C39.6614 24.8004 38.18 25.9323 36.334 25.9323C33.5081 25.9323 31.5329 23.3494 31.5481 19.2776C31.5329 15.221 33.5081 12.6381 36.334 12.6229ZM33.1586 19.2776C33.1586 22.3923 34.4501 24.4282 36.334 24.4282C38.2028 24.4282 39.5095 22.3923 39.5095 19.2776C39.5095 16.1782 38.2028 14.1423 36.334 14.1271C34.4501 14.1423 33.1586 16.1782 33.1586 19.2776ZM40.8237 16.8315C41.006 17.5684 41.1048 18.3888 41.1048 19.2776C41.1048 20.0677 41.0288 20.797 40.8845 21.4655H45.3589V16.8315H40.8237ZM67.6695 20.8577V22.2555H59.9209V26.1602H58.2193V22.2555H50.182V20.8577H67.6695ZM52.1723 15.4793C52.1571 13.1091 54.8311 11.6506 58.903 11.6354C62.99 11.6506 65.6336 13.1091 65.6336 15.4793C65.6336 17.8343 62.99 19.2928 58.903 19.2928C54.8311 19.2928 52.1571 17.8343 52.1723 15.4793ZM52.4458 29.8218V24.2459H54.1323V28.3936H65.7248V29.8218H52.4458ZM53.9651 15.4793C53.9499 16.9682 55.9403 17.9102 58.903 17.9102C61.8809 17.9102 63.856 16.9682 63.856 15.4793C63.856 13.9599 61.8809 13.018 58.903 13.018C55.9403 13.018 53.9499 13.9599 53.9651 15.4793ZM80.1564 11.8481C83.0127 11.8633 85.0942 13.5953 85.1094 16.087C85.0942 18.5787 83.0127 20.2956 80.1564 20.2956C77.2696 20.2956 75.1881 18.5787 75.1881 16.087C75.1881 13.5953 77.2696 11.8633 80.1564 11.8481ZM76.8442 16.087C76.829 17.7583 78.242 18.913 80.1564 18.913C82.0555 18.913 83.4685 17.7583 83.4685 16.087C83.4685 14.4309 82.0555 13.261 80.1564 13.2762C78.242 13.261 76.829 14.4309 76.8442 16.087ZM78.0901 23.2431V21.8757H90.5182V26.4793H79.7917V28.6215H91.2019V29.989H78.1508V25.203H88.847V23.2431H78.0901ZM88.8318 20.9489V11.1492H90.5182V20.9489H88.8318ZM109.577 11.1492V30.2776H107.906V19.9006H104.184V18.4876H107.906V11.1492H109.577ZM94.4297 14.3246V12.9268H103.029V19.5967H96.1617V24.2459C99.4511 24.2383 101.844 24.1471 104.624 23.6229L104.761 25.0359C101.89 25.5525 99.4131 25.674 95.949 25.6892H94.4905V18.1989H101.388V14.3246H94.4297ZM122.301 13.9599C122.301 17.2265 126.039 20.1436 129.366 20.7666L128.576 22.1796C125.697 21.511 122.666 19.4675 121.427 16.6568C120.189 19.4523 117.166 21.5035 114.279 22.1796L113.504 20.7666C116.816 20.1285 120.523 17.2417 120.539 13.9599V12.4862H122.301V13.9599ZM112.775 27.6492V26.2362H130.262V27.6492H112.775ZM147.255 21.4655V22.8481H134.052V12.8052H147.043V14.203H135.754V17.0442H146.632V18.4116H135.754V21.4655H147.255ZM131.789 27.7555V26.3425H149.276V27.7555H131.789ZM165.585 11.1492V18.913H168.685V20.3412H165.585V30.232H163.899V11.1492H165.585ZM150.924 25.279C155.862 22.8253 158.551 19.1485 158.931 14.6133H151.82V13.2003H160.648C160.632 18.6091 158.095 23.5318 151.866 26.6008L150.924 25.279ZM181.795 23.9572C181.795 25.6512 182.714 27.4517 184.522 28.4848C186.345 27.3605 187.31 25.4385 187.31 23.9572V22.9088H188.966V23.9572C188.951 25.9323 190.394 27.8923 192.855 28.7279L192.004 29.9738C190.098 29.3052 188.761 27.9682 188.1 26.3653C187.507 27.9227 186.345 29.3888 184.575 30.1409C182.714 29.4268 181.536 28.029 180.967 26.4261C180.275 27.9682 178.961 29.2901 177.13 29.9738L176.279 28.7279C178.695 27.8315 180.154 25.7956 180.169 23.9572V22.9088H181.795V23.9572ZM175.778 16.7403C175.778 14.0815 177.89 12.2735 180.792 12.2735C183.694 12.2735 185.79 14.0815 185.79 16.7403C185.79 19.3688 183.694 21.1768 180.792 21.1768C177.89 21.1768 175.778 19.3688 175.778 16.7403ZM177.434 16.7403C177.419 18.518 178.832 19.7638 180.792 19.779C182.737 19.7638 184.15 18.518 184.15 16.7403C184.15 14.9627 182.737 13.7017 180.792 13.7168C178.832 13.7017 177.419 14.9627 177.434 16.7403ZM189.422 22.0732V11.1644H191.108V22.0732H189.422ZM209.787 16.9378V18.3052H196.721V11.8481H198.392V16.9378H209.787ZM194.321 22.2707V20.9033H211.808V22.2707H194.321ZM196.6 29.7762V24.2155H198.271V28.3785H209.909V29.7762H196.6Z" fill="black"/>
<path d="M1 6.35211L6 1V39L1 33.6479V6.35211Z" fill="white"/>
<path d="M6 1L1 6.35211V33.6479L6 39" stroke="black" stroke-linecap="round"/>
<path d="M223 33.6479L218 39L218 1L223 6.35211L223 33.6479Z" fill="white"/>
<path d="M218 39L223 33.6479L223 6.35211L218 1" stroke="black" stroke-linecap="round"/>
<path d="M37 32.9H186V70.9H37V32.9Z" fill="white"/>
<path d="M37 33.4H186V32.4H37V33.4ZM186 70.4H37V71.4H186V70.4Z" fill="black"/>
<path d="M57.7494 43.0492V50.6003H60.94V52.0133H57.7494V62.1776H56.063V43.0492H57.7494ZM43.8019 57.3917V44.918H52.7204V46.3006H45.4884V55.9636C48.9449 55.956 51.391 55.8192 54.2246 55.2951L54.4373 56.7536C51.4442 57.2854 48.9373 57.3917 45.306 57.3917H43.8019ZM67.5711 48.9138C67.5711 51.9525 69.136 55.0975 71.7493 56.4801L70.7617 57.7564C68.8625 56.7156 67.4875 54.7481 66.7886 52.4539C66.1125 54.8924 64.7451 57.0347 62.846 58.1514L61.828 56.8904C64.4109 55.3862 65.9606 52.0589 65.9758 48.9138V48.0326H62.2686V46.6196H65.9758V43.7481H67.5863V46.6196H71.2327V48.0326H67.5711V48.9138ZM72.5545 61.1749V43.4594H74.1498V50.7674H76.7631V43.0492H78.3888V62.1473H76.7631V52.2108H74.1498V61.1749H72.5545ZM98.4812 58.3489V59.7771H80.9936V58.3489H88.8486V54.7481H83.1815V48.8531H94.6069V45.86H83.1359V44.4622H96.2781V50.2357H84.8527V53.3503H96.7188V54.7481H90.5199V58.3489H98.4812ZM117.464 52.7578V54.1555H109.716V58.0602H108.014V54.1555H99.9769V52.7578H117.464ZM101.967 47.3793C101.952 45.0091 104.626 43.5506 108.698 43.5354C112.785 43.5506 115.429 45.0091 115.429 47.3793C115.429 49.7343 112.785 51.1928 108.698 51.1928C104.626 51.1928 101.952 49.7343 101.967 47.3793ZM102.241 61.7218V56.1459H103.927V60.2937H115.52V61.7218H102.241ZM103.76 47.3793C103.745 48.8683 105.735 49.8102 108.698 49.8102C111.676 49.8102 113.651 48.8683 113.651 47.3793C113.651 45.86 111.676 44.918 108.698 44.918C105.735 44.918 103.745 45.86 103.76 47.3793ZM135.071 44.7812V46.1942H127.444V50.1597H134.388V51.5271H127.444V56.1459C131.007 56.1459 133.453 56.0167 136.378 55.523L136.56 56.9207C133.537 57.4221 130.969 57.5285 127.292 57.5437H125.773V44.7812H135.071ZM138.642 62.1473V43.0492H140.328V62.1473H138.642ZM159.388 43.0492V62.1776H157.701V53.3959H153.462V51.9525H157.701V48.6404H153.462V47.2274H157.701V43.0492H159.388ZM143.541 56.7536C146.336 55.371 148.555 51.6942 148.57 48.1846V44.7053H150.272V48.1846C150.272 51.6486 152.49 55.1431 155.27 56.4497L154.252 57.8172C152.072 56.708 150.279 54.391 149.428 51.641C148.585 54.4898 146.777 56.9283 144.62 58.0906L143.541 56.7536ZM180.057 58.273V59.6859H162.57V58.273H180.057ZM163.633 53.6997C167.249 53.0464 170.425 50.6763 170.44 47.516H164.195V46.1334H170.455V43.505H172.111V46.1334H178.371V47.516H172.142C172.142 50.6763 175.302 53.0464 178.933 53.6997L178.249 55.0672C175.226 54.4518 172.476 52.8033 171.283 50.3116C170.083 52.8033 167.325 54.4518 164.302 55.0672L163.633 53.6997Z" fill="black"/>
<path d="M32 38.2521L37 32.9V70.9L32 65.5479V38.2521Z" fill="white"/>
<path d="M37 32.9L32 38.2521V65.5479L37 70.9" stroke="black" stroke-linecap="round"/>
<path d="M191 65.5479L186 70.9L186 32.9L191 38.2521L191 65.5479Z" fill="white"/>
<path d="M186 70.9L191 65.5479L191 38.2521L186 32.9" stroke="black" stroke-linecap="round"/>
<rect x="28" y="31.5" width="168" height="7" fill="white"/>
</svg>
