<svg width="279" height="40" viewBox="0 0 279 40" fill="none" xmlns="http://www.w3.org/2000/svg">
<path d="M6 1H273V39H6V1Z" fill="white"/>
<path d="M6 1.5H273V0.5H6V1.5ZM273 38.5H6V39.5H273V38.5Z" fill="black"/>
<path d="M18.814 33.304C17.694 33.304 16.678 33.196 15.766 32.98C14.862 32.772 14.142 32.44 13.606 31.984C13.07 31.528 12.802 30.924 12.802 30.172C12.802 29.42 13.07 28.848 13.606 28.456C14.15 28.072 14.85 27.82 15.706 27.7V27.496L17.842 27.7C16.954 27.7 16.258 27.804 15.754 28.012C15.25 28.228 14.894 28.5 14.686 28.828C14.478 29.164 14.374 29.508 14.374 29.86C14.374 30.404 14.574 30.828 14.974 31.132C15.374 31.436 15.91 31.652 16.582 31.78C17.262 31.908 18.022 31.972 18.862 31.972C20.55 31.972 21.782 31.744 22.558 31.288C23.342 30.84 23.734 30.212 23.734 29.404C23.734 28.268 22.998 27.7 21.526 27.7H16.63C15.67 27.7 14.914 27.528 14.362 27.184C13.818 26.832 13.546 26.328 13.546 25.672C13.546 25.048 13.794 24.572 14.29 24.244C14.786 23.908 15.494 23.704 16.414 23.632V23.272L18.598 23.896H17.29C16.602 23.896 16.078 23.992 15.718 24.184C15.358 24.368 15.178 24.652 15.178 25.036C15.178 25.396 15.342 25.656 15.67 25.816C16.006 25.968 16.51 26.044 17.182 26.044H21.478C22.302 26.044 23.002 26.18 23.578 26.452C24.162 26.716 24.602 27.096 24.898 27.592C25.202 28.088 25.354 28.68 25.354 29.368C25.354 30.104 25.146 30.768 24.73 31.36C24.314 31.96 23.626 32.432 22.666 32.776C21.714 33.128 20.43 33.304 18.814 33.304ZM18.598 23.896C17.582 23.896 16.678 23.712 15.886 23.344C15.094 22.976 14.47 22.46 14.014 21.796C13.558 21.132 13.33 20.352 13.33 19.456C13.33 18.56 13.554 17.78 14.002 17.116C14.458 16.444 15.078 15.924 15.862 15.556C16.654 15.18 17.566 14.992 18.598 14.992C19.646 14.992 20.57 15.188 21.37 15.58C22.178 15.972 22.794 16.516 23.218 17.212C23.426 17.532 23.578 17.88 23.674 18.256C23.778 18.624 23.83 19.024 23.83 19.456C23.83 20.352 23.606 21.132 23.158 21.796C22.71 22.46 22.09 22.976 21.298 23.344C20.514 23.712 19.614 23.896 18.598 23.896ZM18.598 22.48C19.278 22.48 19.882 22.356 20.41 22.108C20.946 21.86 21.366 21.508 21.67 21.052C21.982 20.596 22.138 20.064 22.138 19.456C22.138 18.848 21.982 18.316 21.67 17.86C21.366 17.396 20.946 17.04 20.41 16.792C19.882 16.536 19.278 16.408 18.598 16.408C17.902 16.408 17.286 16.536 16.75 16.792C16.214 17.04 15.79 17.396 15.478 17.86C15.174 18.316 15.022 18.848 15.022 19.456C15.022 20.064 15.174 20.596 15.478 21.052C15.79 21.508 16.214 21.86 16.75 22.108C17.294 22.356 17.91 22.48 18.598 22.48ZM23.83 19.456L23.23 18.052L22.702 17.188L23.182 16.996C23.158 16.916 23.138 16.836 23.122 16.756C23.114 16.668 23.11 16.576 23.11 16.48C23.11 16.144 23.19 15.84 23.35 15.568C23.51 15.296 23.742 15.08 24.046 14.92C24.35 14.76 24.722 14.68 25.162 14.68C25.274 14.68 25.374 14.684 25.462 14.692C25.558 14.7 25.65 14.716 25.738 14.74V16.408C25.586 16.384 25.446 16.368 25.318 16.36C25.19 16.344 25.062 16.336 24.934 16.336C24.598 16.336 24.326 16.384 24.118 16.48C23.918 16.576 23.774 16.7 23.686 16.852C23.598 16.996 23.554 17.156 23.554 17.332C23.554 17.5 23.578 17.684 23.626 17.884C23.674 18.076 23.718 18.3 23.758 18.556C23.806 18.812 23.83 19.112 23.83 19.456ZM33.5939 28.228C32.2659 28.228 31.1019 27.948 30.1019 27.388C29.1019 26.82 28.3219 26.044 27.7619 25.06C27.2019 24.076 26.9219 22.94 26.9219 21.652C26.9219 20.356 27.2019 19.208 27.7619 18.208C28.3219 17.2 29.1019 16.412 30.1019 15.844C31.1019 15.276 32.2659 14.992 33.5939 14.992C34.9219 14.992 36.0859 15.276 37.0859 15.844C38.0859 16.412 38.8659 17.2 39.4259 18.208C39.9859 19.208 40.2659 20.356 40.2659 21.652C40.2659 22.94 39.9859 24.076 39.4259 25.06C38.8659 26.044 38.0859 26.82 37.0859 27.388C36.0859 27.948 34.9219 28.228 33.5939 28.228ZM33.5939 26.632C34.5539 26.632 35.3979 26.424 36.1259 26.008C36.8619 25.592 37.4339 25.012 37.8419 24.268C38.2579 23.516 38.4659 22.644 38.4659 21.652C38.4659 20.652 38.2579 19.772 37.8419 19.012C37.4339 18.252 36.8619 17.66 36.1259 17.236C35.3979 16.804 34.5539 16.588 33.5939 16.588C32.6339 16.588 31.7859 16.804 31.0499 17.236C30.3219 17.66 29.7499 18.252 29.3339 19.012C28.9259 19.772 28.7219 20.652 28.7219 21.652C28.7219 22.644 28.9259 23.516 29.3339 24.268C29.7499 25.012 30.3219 25.592 31.0499 26.008C31.7859 26.424 32.6339 26.632 33.5939 26.632ZM49.0748 28.228C47.7468 28.228 46.5828 27.948 45.5828 27.388C44.5828 26.82 43.8028 26.044 43.2428 25.06C42.6828 24.076 42.4028 22.94 42.4028 21.652C42.4028 20.356 42.6828 19.208 43.2428 18.208C43.8028 17.2 44.5828 16.412 45.5828 15.844C46.5828 15.276 47.7468 14.992 49.0748 14.992C50.4028 14.992 51.5668 15.276 52.5668 15.844C53.5668 16.412 54.3468 17.2 54.9068 18.208C55.4668 19.208 55.7468 20.356 55.7468 21.652C55.7468 22.94 55.4668 24.076 54.9068 25.06C54.3468 26.044 53.5668 26.82 52.5668 27.388C51.5668 27.948 50.4028 28.228 49.0748 28.228ZM49.0748 26.632C50.0348 26.632 50.8788 26.424 51.6068 26.008C52.3428 25.592 52.9148 25.012 53.3228 24.268C53.7388 23.516 53.9468 22.644 53.9468 21.652C53.9468 20.652 53.7388 19.772 53.3228 19.012C52.9148 18.252 52.3428 17.66 51.6068 17.236C50.8788 16.804 50.0348 16.588 49.0748 16.588C48.1148 16.588 47.2668 16.804 46.5308 17.236C45.8028 17.66 45.2308 18.252 44.8148 19.012C44.4068 19.772 44.2028 20.652 44.2028 21.652C44.2028 22.644 44.4068 23.516 44.8148 24.268C45.2308 25.012 45.8028 25.592 46.5308 26.008C47.2668 26.424 48.1148 26.632 49.0748 26.632ZM68.9958 28V23.224L69.0678 22.288V20.764L68.9958 19.084V10.528H65.5518V9.04H70.7238V26.512H73.1718V28H68.9958ZM64.1838 14.98C65.2398 14.98 66.1838 15.212 67.0158 15.676C67.8558 16.14 68.5478 16.804 69.0918 17.668C69.6358 18.524 69.9958 19.552 70.1718 20.752L69.0678 21.58C69.0678 20.596 68.8758 19.724 68.4918 18.964C68.1158 18.204 67.5758 17.612 66.8718 17.188C66.1678 16.756 65.3318 16.54 64.3638 16.54C63.4118 16.54 62.5838 16.756 61.8798 17.188C61.1758 17.62 60.6318 18.216 60.2478 18.976C59.8718 19.736 59.6838 20.616 59.6838 21.616C59.6838 22.608 59.8798 23.484 60.2718 24.244C60.6638 25.004 61.2118 25.604 61.9158 26.044C62.6278 26.476 63.4438 26.692 64.3638 26.692C65.3238 26.692 66.1518 26.476 66.8478 26.044C67.5518 25.604 68.0958 25 68.4798 24.232C68.8718 23.464 69.0678 22.58 69.0678 21.58L69.3318 24.304H68.9238C68.7798 25.008 68.4998 25.66 68.0838 26.26C67.6678 26.852 67.1198 27.332 66.4398 27.7C65.7598 28.06 64.9438 28.24 63.9918 28.24C63.1038 28.24 62.2878 28.08 61.5438 27.76C60.7998 27.432 60.1558 26.972 59.6118 26.38C59.0678 25.78 58.6438 25.076 58.3398 24.268C58.0438 23.46 57.8958 22.576 57.8958 21.616C57.8958 20.32 58.1558 19.172 58.6758 18.172C59.1958 17.172 59.9238 16.392 60.8598 15.832C61.8038 15.264 62.9118 14.98 64.1838 14.98ZM88.2155 28.228C86.8875 28.228 85.7315 27.948 84.7475 27.388C83.7715 26.828 83.0115 26.056 82.4675 25.072C81.9315 24.08 81.6635 22.94 81.6635 21.652C81.6635 20.676 81.8115 19.784 82.1075 18.976C82.4035 18.16 82.8275 17.456 83.3795 16.864C83.9315 16.264 84.5875 15.804 85.3475 15.484C86.1075 15.156 86.9555 14.992 87.8915 14.992C88.7955 14.992 89.5475 15.14 90.1475 15.436C90.7555 15.724 91.2275 16.124 91.5635 16.636C91.8995 17.14 92.1155 17.72 92.2115 18.376H92.6315L92.2835 20.188C92.1795 19.468 91.9435 18.836 91.5755 18.292C91.2075 17.74 90.7275 17.312 90.1355 17.008C89.5435 16.696 88.8595 16.54 88.0835 16.54C87.1555 16.54 86.3395 16.76 85.6355 17.2C84.9395 17.632 84.3955 18.232 84.0035 19C83.6195 19.76 83.4275 20.644 83.4275 21.652C83.4275 22.628 83.6235 23.492 84.0155 24.244C84.4155 24.988 84.9715 25.572 85.6835 25.996C86.4035 26.42 87.2515 26.632 88.2275 26.632C89.2355 26.632 90.1035 26.412 90.8315 25.972C91.5595 25.524 92.0915 24.924 92.4275 24.172L94.0235 24.88C93.5675 25.912 92.8355 26.728 91.8275 27.328C90.8275 27.928 89.6235 28.228 88.2155 28.228ZM92.2835 20.188V15.22H94.0115V20.188H92.2835ZM102.795 28.228C101.467 28.228 100.303 27.948 99.3035 27.388C98.3035 26.82 97.5235 26.044 96.9635 25.06C96.4035 24.076 96.1235 22.94 96.1235 21.652C96.1235 20.356 96.4035 19.208 96.9635 18.208C97.5235 17.2 98.3035 16.412 99.3035 15.844C100.303 15.276 101.467 14.992 102.795 14.992C104.123 14.992 105.287 15.276 106.287 15.844C107.287 16.412 108.067 17.2 108.627 18.208C109.187 19.208 109.467 20.356 109.467 21.652C109.467 22.94 109.187 24.076 108.627 25.06C108.067 26.044 107.287 26.82 106.287 27.388C105.287 27.948 104.123 28.228 102.795 28.228ZM102.795 26.632C103.755 26.632 104.599 26.424 105.327 26.008C106.063 25.592 106.635 25.012 107.043 24.268C107.459 23.516 107.667 22.644 107.667 21.652C107.667 20.652 107.459 19.772 107.043 19.012C106.635 18.252 106.063 17.66 105.327 17.236C104.599 16.804 103.755 16.588 102.795 16.588C101.835 16.588 100.987 16.804 100.251 17.236C99.5235 17.66 98.9515 18.252 98.5355 19.012C98.1275 19.772 97.9235 20.652 97.9235 21.652C97.9235 22.644 98.1275 23.516 98.5355 24.268C98.9515 25.012 99.5235 25.592 100.251 26.008C100.987 26.424 101.835 26.632 102.795 26.632ZM129.148 28V26.512H131.404V19.804C131.404 18.756 131.172 17.936 130.708 17.344C130.244 16.752 129.52 16.456 128.536 16.456C127.744 16.456 127.04 16.664 126.424 17.08C125.808 17.496 125.324 18.092 124.972 18.868C124.62 19.644 124.444 20.576 124.444 21.664L124.024 19.096H124.516C124.716 17.704 125.232 16.664 126.064 15.976C126.904 15.288 127.924 14.944 129.124 14.944C130.476 14.944 131.48 15.344 132.136 16.144C132.8 16.944 133.132 18.072 133.132 19.528V26.512H135.58V28H129.148ZM111.46 28V26.512H114.016V16.708H111.46V15.22H115.744V26.512H118.012V28H111.46ZM120.46 28V26.512H122.716V19.804C122.716 18.756 122.484 17.936 122.02 17.344C121.556 16.752 120.832 16.456 119.848 16.456C119.056 16.456 118.352 16.664 117.736 17.08C117.12 17.496 116.632 18.092 116.272 18.868C115.92 19.644 115.744 20.576 115.744 21.664L115.336 19.096H115.828C116.02 17.704 116.536 16.664 117.376 15.976C118.216 15.288 119.236 14.944 120.436 14.944C121.788 14.944 122.792 15.344 123.448 16.144C124.112 16.944 124.444 18.072 124.444 19.528V26.512H126.892V28H120.46ZM154.497 28V26.512H156.753V19.804C156.753 18.756 156.521 17.936 156.057 17.344C155.593 16.752 154.869 16.456 153.885 16.456C153.093 16.456 152.389 16.664 151.773 17.08C151.157 17.496 150.673 18.092 150.321 18.868C149.969 19.644 149.793 20.576 149.793 21.664L149.373 19.096H149.865C150.065 17.704 150.581 16.664 151.413 15.976C152.253 15.288 153.273 14.944 154.473 14.944C155.825 14.944 156.829 15.344 157.485 16.144C158.149 16.944 158.481 18.072 158.481 19.528V26.512H160.929V28H154.497ZM136.809 28V26.512H139.365V16.708H136.809V15.22H141.093V26.512H143.361V28H136.809ZM145.809 28V26.512H148.065V19.804C148.065 18.756 147.833 17.936 147.369 17.344C146.905 16.752 146.181 16.456 145.197 16.456C144.405 16.456 143.701 16.664 143.085 17.08C142.469 17.496 141.981 18.092 141.621 18.868C141.269 19.644 141.093 20.576 141.093 21.664L140.685 19.096H141.177C141.369 17.704 141.885 16.664 142.725 15.976C143.565 15.288 144.585 14.944 145.785 14.944C147.137 14.944 148.141 15.344 148.797 16.144C149.461 16.944 149.793 18.072 149.793 19.528V26.512H152.241V28H145.809ZM172.576 16.708H170.104V15.22H174.304V26.512H176.8V28H172.576V16.708ZM165.436 15.22V23.368C165.436 24.416 165.668 25.244 166.132 25.852C166.604 26.452 167.344 26.752 168.352 26.752C169.16 26.752 169.88 26.548 170.512 26.14C171.152 25.724 171.656 25.128 172.024 24.352C172.392 23.576 172.576 22.644 172.576 21.556L172.996 24.112H172.492C172.276 25.488 171.74 26.528 170.884 27.232C170.036 27.928 168.992 28.276 167.752 28.276C166.376 28.276 165.356 27.868 164.692 27.052C164.036 26.236 163.708 25.104 163.708 23.656V16.708H161.392V15.22H165.436ZM182.509 26.512H184.789V28H178.153V26.512H180.781V16.708H178.153V15.22H182.509V26.512ZM189.877 26.512V19.828C189.877 18.78 189.641 17.956 189.169 17.356C188.697 16.756 187.953 16.456 186.937 16.456C186.113 16.456 185.365 16.66 184.693 17.068C184.021 17.476 183.489 18.068 183.097 18.844C182.705 19.62 182.509 20.56 182.509 21.664L182.113 19.108H182.593C182.745 18.236 183.037 17.496 183.469 16.888C183.901 16.272 184.453 15.804 185.125 15.484C185.805 15.156 186.585 14.992 187.465 14.992C188.857 14.992 189.893 15.396 190.573 16.204C191.261 17.004 191.605 18.136 191.605 19.6V26.512H194.065V28H187.633V26.512H189.877ZM199.774 26.512H202.234V28H195.454V26.512H198.046V16.708H195.454V15.22H199.774V26.512ZM197.722 9.832H199.93V12.124H197.722V9.832ZM210.34 28.228C209.012 28.228 207.856 27.948 206.872 27.388C205.896 26.828 205.136 26.056 204.592 25.072C204.056 24.08 203.788 22.94 203.788 21.652C203.788 20.676 203.936 19.784 204.232 18.976C204.528 18.16 204.952 17.456 205.504 16.864C206.056 16.264 206.712 15.804 207.472 15.484C208.232 15.156 209.08 14.992 210.016 14.992C210.92 14.992 211.672 15.14 212.272 15.436C212.88 15.724 213.352 16.124 213.688 16.636C214.024 17.14 214.24 17.72 214.336 18.376H214.756L214.408 20.188C214.304 19.468 214.068 18.836 213.7 18.292C213.332 17.74 212.852 17.312 212.26 17.008C211.668 16.696 210.984 16.54 210.208 16.54C209.28 16.54 208.464 16.76 207.76 17.2C207.064 17.632 206.52 18.232 206.128 19C205.744 19.76 205.552 20.644 205.552 21.652C205.552 22.628 205.748 23.492 206.14 24.244C206.54 24.988 207.096 25.572 207.808 25.996C208.528 26.42 209.376 26.632 210.352 26.632C211.36 26.632 212.228 26.412 212.956 25.972C213.684 25.524 214.216 24.924 214.552 24.172L216.148 24.88C215.692 25.912 214.96 26.728 213.952 27.328C212.952 27.928 211.748 28.228 210.34 28.228ZM214.408 20.188V15.22H216.136V20.188H214.408ZM228.484 28C228.156 28 227.904 27.896 227.728 27.688C227.56 27.48 227.476 27.188 227.476 26.812V22.972L227.632 22.576L227.548 21.124L227.476 20.368V19.396C227.476 18.74 227.34 18.204 227.068 17.788C226.804 17.372 226.42 17.064 225.916 16.864C225.412 16.664 224.804 16.564 224.092 16.564C223.028 16.564 222.204 16.776 221.62 17.2C221.044 17.616 220.66 18.244 220.468 19.084L218.812 18.736C218.972 17.896 219.272 17.2 219.712 16.648C220.152 16.088 220.736 15.672 221.464 15.4C222.2 15.12 223.096 14.98 224.152 14.98C225.256 14.98 226.18 15.136 226.924 15.448C227.676 15.752 228.244 16.22 228.628 16.852C229.012 17.484 229.204 18.3 229.204 19.3V26.512H231.088V28H228.484ZM222.46 28.168C221.132 28.168 220.124 27.876 219.436 27.292C218.748 26.7 218.404 25.832 218.404 24.688C218.404 23.632 218.708 22.828 219.316 22.276C219.924 21.716 220.9 21.296 222.244 21.016L227.992 19.792V21.028L222.532 22.264C221.748 22.448 221.16 22.72 220.768 23.08C220.384 23.432 220.192 23.932 220.192 24.58C220.192 25.284 220.408 25.812 220.84 26.164C221.272 26.508 221.904 26.68 222.736 26.68C223.656 26.68 224.48 26.468 225.208 26.044C225.936 25.62 226.508 24.996 226.924 24.172C227.34 23.348 227.548 22.332 227.548 21.124L228.004 23.956H227.392C227.192 25.292 226.672 26.328 225.832 27.064C225 27.8 223.876 28.168 222.46 28.168ZM235.997 24.616C235.997 25.288 236.125 25.796 236.381 26.14C236.637 26.476 237.029 26.644 237.557 26.644C238.077 26.644 238.469 26.472 238.733 26.128C238.997 25.776 239.129 25.272 239.129 24.616V23.428H240.689V24.604C240.689 25.372 240.573 26.028 240.341 26.572C240.117 27.108 239.773 27.52 239.309 27.808C238.845 28.088 238.249 28.228 237.521 28.228C236.777 28.228 236.165 28.084 235.685 27.796C235.205 27.5 234.849 27.084 234.617 26.548C234.385 26.012 234.269 25.368 234.269 24.616L234.281 16.708H232.001V15.22H234.281V11.98H236.009V15.22H240.521L240.509 16.708H236.009L235.997 24.616ZM249.155 28.228C247.827 28.228 246.663 27.948 245.663 27.388C244.663 26.82 243.883 26.044 243.323 25.06C242.763 24.076 242.483 22.94 242.483 21.652C242.483 20.356 242.763 19.208 243.323 18.208C243.883 17.2 244.663 16.412 245.663 15.844C246.663 15.276 247.827 14.992 249.155 14.992C250.483 14.992 251.647 15.276 252.647 15.844C253.647 16.412 254.427 17.2 254.987 18.208C255.547 19.208 255.827 20.356 255.827 21.652C255.827 22.94 255.547 24.076 254.987 25.06C254.427 26.044 253.647 26.82 252.647 27.388C251.647 27.948 250.483 28.228 249.155 28.228ZM249.155 26.632C250.115 26.632 250.959 26.424 251.687 26.008C252.423 25.592 252.995 25.012 253.403 24.268C253.819 23.516 254.027 22.644 254.027 21.652C254.027 20.652 253.819 19.772 253.403 19.012C252.995 18.252 252.423 17.66 251.687 17.236C250.959 16.804 250.115 16.588 249.155 16.588C248.195 16.588 247.347 16.804 246.611 17.236C245.883 17.66 245.311 18.252 244.895 19.012C244.487 19.772 244.283 20.652 244.283 21.652C244.283 22.644 244.487 23.516 244.895 24.268C245.311 25.012 245.883 25.592 246.611 26.008C247.347 26.424 248.195 26.632 249.155 26.632ZM262.176 26.512H264.672V28H257.82V26.512H260.448V16.708H257.82V15.22H262.176V26.512ZM267.084 17.056C266.94 17.016 266.784 16.984 266.616 16.96C266.456 16.936 266.28 16.924 266.088 16.924C264.904 16.924 263.956 17.368 263.244 18.256C262.532 19.136 262.176 20.36 262.176 21.928L261.768 19.132H262.26C262.372 18.284 262.604 17.556 262.956 16.948C263.308 16.332 263.764 15.86 264.324 15.532C264.892 15.196 265.556 15.028 266.316 15.028C266.46 15.028 266.588 15.036 266.7 15.052C266.82 15.06 266.948 15.076 267.084 15.1V17.056Z" fill="black"/>
<path d="M1 6.35211L6 1V39L1 33.6479V6.35211Z" fill="white"/>
<path d="M6 1L1 6.35211V33.6479L6 39" stroke="black" stroke-linecap="round"/>
<path d="M278 33.6479L273 39L273 1L278 6.35211L278 33.6479Z" fill="white"/>
<path d="M273 39L278 33.6479L278 6.35211L273 1" stroke="black" stroke-linecap="round"/>
</svg>
