<svg width="272" height="40" viewBox="0 0 272 40" fill="none" xmlns="http://www.w3.org/2000/svg">
<path d="M6 1H266V39H6V1Z" fill="white"/>
<path d="M6 1.5H266V0.5H6V1.5ZM266 38.5H6V39.5H266V38.5Z" fill="black"/>
<path d="M16.825 26.512H19.285V28H12.505V26.512H15.097V16.708H12.505V15.22H16.825V26.512ZM14.773 9.832H16.981V12.124H14.773V9.832ZM24.9906 26.512H27.2706V28H20.6346V26.512H23.2626V16.708H20.6346V15.22H24.9906V26.512ZM32.3586 26.512V19.828C32.3586 18.78 32.1226 17.956 31.6506 17.356C31.1786 16.756 30.4346 16.456 29.4186 16.456C28.5946 16.456 27.8466 16.66 27.1746 17.068C26.5026 17.476 25.9706 18.068 25.5786 18.844C25.1866 19.62 24.9906 20.56 24.9906 21.664L24.5946 19.108H25.0746C25.2266 18.236 25.5186 17.496 25.9506 16.888C26.3826 16.272 26.9346 15.804 27.6066 15.484C28.2866 15.156 29.0666 14.992 29.9466 14.992C31.3386 14.992 32.3746 15.396 33.0546 16.204C33.7426 17.004 34.0866 18.136 34.0866 19.6V26.512H36.5466V28H30.1146V26.512H32.3586ZM41.1996 24.616C41.1996 25.288 41.3276 25.796 41.5836 26.14C41.8396 26.476 42.2316 26.644 42.7596 26.644C43.2796 26.644 43.6716 26.472 43.9356 26.128C44.1996 25.776 44.3316 25.272 44.3316 24.616V23.428H45.8916V24.604C45.8916 25.372 45.7756 26.028 45.5436 26.572C45.3196 27.108 44.9756 27.52 44.5116 27.808C44.0476 28.088 43.4516 28.228 42.7236 28.228C41.9796 28.228 41.3676 28.084 40.8876 27.796C40.4076 27.5 40.0516 27.084 39.8196 26.548C39.5876 26.012 39.4716 25.368 39.4716 24.616L39.4836 16.708H37.2036V15.22H39.4836V11.98H41.2116V15.22H45.7236L45.7116 16.708H41.2116L41.1996 24.616ZM54.2018 28.228C52.8818 28.228 51.7378 27.948 50.7698 27.388C49.8018 26.828 49.0538 26.056 48.5258 25.072C47.9978 24.08 47.7338 22.94 47.7338 21.652C47.7338 20.348 47.9978 19.196 48.5258 18.196C49.0618 17.196 49.8058 16.412 50.7578 15.844C51.7178 15.276 52.8338 14.992 54.1058 14.992C55.3858 14.992 56.4938 15.272 57.4298 15.832C58.3658 16.392 59.0858 17.168 59.5898 18.16C60.0938 19.152 60.3458 20.296 60.3458 21.592C60.3458 21.744 60.3418 21.864 60.3338 21.952C60.3338 22.04 60.3258 22.116 60.3098 22.18H58.6058C58.6138 22.084 58.6178 21.98 58.6178 21.868C58.6258 21.748 58.6298 21.612 58.6298 21.46C58.6298 20.508 58.4458 19.664 58.0778 18.928C57.7178 18.184 57.2018 17.6 56.5298 17.176C55.8578 16.752 55.0498 16.54 54.1058 16.54C53.1858 16.54 52.3778 16.76 51.6818 17.2C50.9858 17.632 50.4458 18.232 50.0618 19C49.6778 19.76 49.4858 20.644 49.4858 21.652C49.4858 22.628 49.6738 23.492 50.0498 24.244C50.4338 24.988 50.9778 25.572 51.6818 25.996C52.3858 26.42 53.2218 26.632 54.1898 26.632C55.1978 26.632 56.0698 26.396 56.8058 25.924C57.5498 25.444 58.1018 24.792 58.4618 23.968L60.0938 24.58C59.6218 25.708 58.8658 26.6 57.8258 27.256C56.7938 27.904 55.5858 28.228 54.2018 28.228ZM48.8258 22.18V20.848H59.7938L60.2978 22.18H48.8258ZM66.6053 26.512H69.1013V28H62.2493V26.512H64.8773V16.708H62.2493V15.22H66.6053V26.512ZM71.5133 17.056C71.3693 17.016 71.2133 16.984 71.0453 16.96C70.8853 16.936 70.7093 16.924 70.5173 16.924C69.3333 16.924 68.3853 17.368 67.6733 18.256C66.9613 19.136 66.6053 20.36 66.6053 21.928L66.1973 19.132H66.6893C66.8013 18.284 67.0333 17.556 67.3853 16.948C67.7373 16.332 68.1933 15.86 68.7533 15.532C69.3213 15.196 69.9853 15.028 70.7453 15.028C70.8893 15.028 71.0173 15.036 71.1293 15.052C71.2493 15.06 71.3773 15.076 71.5133 15.1V17.056ZM79.0699 28.228C77.7499 28.228 76.6059 27.948 75.6379 27.388C74.6699 26.828 73.9219 26.056 73.3939 25.072C72.8659 24.08 72.6019 22.94 72.6019 21.652C72.6019 20.348 72.8659 19.196 73.3939 18.196C73.9299 17.196 74.6739 16.412 75.6259 15.844C76.5859 15.276 77.7019 14.992 78.9739 14.992C80.2539 14.992 81.3619 15.272 82.2979 15.832C83.2339 16.392 83.9539 17.168 84.4579 18.16C84.9619 19.152 85.2139 20.296 85.2139 21.592C85.2139 21.744 85.2099 21.864 85.2019 21.952C85.2019 22.04 85.1939 22.116 85.1779 22.18H83.4739C83.4819 22.084 83.4859 21.98 83.4859 21.868C83.4939 21.748 83.4979 21.612 83.4979 21.46C83.4979 20.508 83.3139 19.664 82.9459 18.928C82.5859 18.184 82.0699 17.6 81.3979 17.176C80.7259 16.752 79.9179 16.54 78.9739 16.54C78.0539 16.54 77.2459 16.76 76.5499 17.2C75.8539 17.632 75.3139 18.232 74.9299 19C74.5459 19.76 74.3539 20.644 74.3539 21.652C74.3539 22.628 74.5419 23.492 74.9179 24.244C75.3019 24.988 75.8459 25.572 76.5499 25.996C77.2539 26.42 78.0899 26.632 79.0579 26.632C80.0659 26.632 80.9379 26.396 81.6739 25.924C82.4179 25.444 82.9699 24.792 83.3299 23.968L84.9619 24.58C84.4899 25.708 83.7339 26.6 82.6939 27.256C81.6619 27.904 80.4539 28.228 79.0699 28.228ZM73.6939 22.18V20.848H84.6619L85.1659 22.18H73.6939ZM93.4774 28.228C92.6214 28.228 91.8974 28.1 91.3054 27.844C90.7214 27.588 90.2574 27.248 89.9134 26.824C89.5694 26.392 89.3454 25.912 89.2414 25.384H88.8094L89.1574 23.968C89.3094 24.808 89.7254 25.492 90.4054 26.02C91.0934 26.548 91.9854 26.812 93.0814 26.812C94.0174 26.812 94.7414 26.624 95.2534 26.248C95.7734 25.864 96.0334 25.308 96.0334 24.58C96.0334 23.916 95.7774 23.4 95.2654 23.032C94.7534 22.664 93.8574 22.384 92.5774 22.192C90.7454 21.904 89.4414 21.452 88.6654 20.836C87.8894 20.212 87.5014 19.392 87.5014 18.376C87.5014 17.352 87.8574 16.532 88.5694 15.916C89.2814 15.3 90.2734 14.992 91.5454 14.992C92.3854 14.992 93.0774 15.12 93.6214 15.376C94.1734 15.632 94.5974 15.976 94.8934 16.408C95.1894 16.832 95.3814 17.3 95.4694 17.812H95.9014L95.5534 19.168C95.4094 18.352 95.0174 17.688 94.3774 17.176C93.7374 16.656 92.9014 16.396 91.8694 16.396C91.0374 16.396 90.3854 16.572 89.9134 16.924C89.4494 17.276 89.2174 17.744 89.2174 18.328C89.2174 18.944 89.5094 19.428 90.0934 19.78C90.6774 20.124 91.5974 20.396 92.8534 20.596C94.6294 20.876 95.8894 21.336 96.6334 21.976C97.3774 22.616 97.7494 23.48 97.7494 24.568C97.7494 25.712 97.3814 26.608 96.6454 27.256C95.9174 27.904 94.8614 28.228 93.4774 28.228ZM87.4294 28V23.968H89.1574V28H87.4294ZM95.5534 19.168V15.22H97.2814V19.168H95.5534ZM103.182 24.616C103.182 25.288 103.31 25.796 103.566 26.14C103.822 26.476 104.214 26.644 104.742 26.644C105.262 26.644 105.654 26.472 105.918 26.128C106.182 25.776 106.314 25.272 106.314 24.616V23.428H107.874V24.604C107.874 25.372 107.758 26.028 107.526 26.572C107.302 27.108 106.958 27.52 106.494 27.808C106.03 28.088 105.434 28.228 104.706 28.228C103.962 28.228 103.35 28.084 102.87 27.796C102.39 27.5 102.034 27.084 101.802 26.548C101.57 26.012 101.454 25.368 101.454 24.616L101.466 16.708H99.1864V15.22H101.466V11.98H103.194V15.22H107.706L107.694 16.708H103.194L103.182 24.616ZM116.185 28.228C114.865 28.228 113.721 27.948 112.753 27.388C111.785 26.828 111.037 26.056 110.509 25.072C109.981 24.08 109.717 22.94 109.717 21.652C109.717 20.348 109.981 19.196 110.509 18.196C111.045 17.196 111.789 16.412 112.741 15.844C113.701 15.276 114.817 14.992 116.089 14.992C117.369 14.992 118.477 15.272 119.413 15.832C120.349 16.392 121.069 17.168 121.573 18.16C122.077 19.152 122.329 20.296 122.329 21.592C122.329 21.744 122.325 21.864 122.317 21.952C122.317 22.04 122.309 22.116 122.293 22.18H120.589C120.597 22.084 120.601 21.98 120.601 21.868C120.609 21.748 120.613 21.612 120.613 21.46C120.613 20.508 120.429 19.664 120.061 18.928C119.701 18.184 119.185 17.6 118.513 17.176C117.841 16.752 117.033 16.54 116.089 16.54C115.169 16.54 114.361 16.76 113.665 17.2C112.969 17.632 112.429 18.232 112.045 19C111.661 19.76 111.469 20.644 111.469 21.652C111.469 22.628 111.657 23.492 112.033 24.244C112.417 24.988 112.961 25.572 113.665 25.996C114.369 26.42 115.205 26.632 116.173 26.632C117.181 26.632 118.053 26.396 118.789 25.924C119.533 25.444 120.085 24.792 120.445 23.968L122.077 24.58C121.605 25.708 120.849 26.6 119.809 27.256C118.777 27.904 117.569 28.228 116.185 28.228ZM110.809 22.18V20.848H121.777L122.281 22.18H110.809ZM135.488 28V23.224L135.56 22.288V20.764L135.488 19.084V10.528H132.044V9.04H137.216V26.512H139.664V28H135.488ZM130.676 14.98C131.732 14.98 132.676 15.212 133.508 15.676C134.348 16.14 135.04 16.804 135.584 17.668C136.128 18.524 136.488 19.552 136.664 20.752L135.56 21.58C135.56 20.596 135.368 19.724 134.984 18.964C134.608 18.204 134.068 17.612 133.364 17.188C132.66 16.756 131.824 16.54 130.856 16.54C129.904 16.54 129.076 16.756 128.372 17.188C127.668 17.62 127.124 18.216 126.74 18.976C126.364 19.736 126.176 20.616 126.176 21.616C126.176 22.608 126.372 23.484 126.764 24.244C127.156 25.004 127.704 25.604 128.408 26.044C129.12 26.476 129.936 26.692 130.856 26.692C131.816 26.692 132.644 26.476 133.34 26.044C134.044 25.604 134.588 25 134.972 24.232C135.364 23.464 135.56 22.58 135.56 21.58L135.824 24.304H135.416C135.272 25.008 134.992 25.66 134.576 26.26C134.16 26.852 133.612 27.332 132.932 27.7C132.252 28.06 131.436 28.24 130.484 28.24C129.596 28.24 128.78 28.08 128.036 27.76C127.292 27.432 126.648 26.972 126.104 26.38C125.56 25.78 125.136 25.076 124.832 24.268C124.536 23.46 124.388 22.576 124.388 21.616C124.388 20.32 124.648 19.172 125.168 18.172C125.688 17.172 126.416 16.392 127.352 15.832C128.296 15.264 129.404 14.98 130.676 14.98ZM152.428 26.512H154.888V28H148.108V26.512H150.7V16.708H148.108V15.22H152.428V26.512ZM150.376 9.832H152.584V12.124H150.376V9.832ZM160.593 26.512H162.873V28H156.237V26.512H158.865V16.708H156.237V15.22H160.593V26.512ZM167.961 26.512V19.828C167.961 18.78 167.725 17.956 167.253 17.356C166.781 16.756 166.037 16.456 165.021 16.456C164.197 16.456 163.449 16.66 162.777 17.068C162.105 17.476 161.573 18.068 161.181 18.844C160.789 19.62 160.593 20.56 160.593 21.664L160.197 19.108H160.677C160.829 18.236 161.121 17.496 161.553 16.888C161.985 16.272 162.537 15.804 163.209 15.484C163.889 15.156 164.669 14.992 165.549 14.992C166.941 14.992 167.977 15.396 168.657 16.204C169.345 17.004 169.689 18.136 169.689 19.6V26.512H172.149V28H165.717V26.512H167.961ZM183.611 24.616C183.611 25.288 183.739 25.796 183.995 26.14C184.251 26.476 184.643 26.644 185.171 26.644C185.691 26.644 186.083 26.472 186.347 26.128C186.611 25.776 186.743 25.272 186.743 24.616V23.428H188.303V24.604C188.303 25.372 188.187 26.028 187.955 26.572C187.731 27.108 187.387 27.52 186.923 27.808C186.459 28.088 185.863 28.228 185.135 28.228C184.391 28.228 183.779 28.084 183.299 27.796C182.819 27.5 182.463 27.084 182.231 26.548C181.999 26.012 181.883 25.368 181.883 24.616L181.895 16.708H179.615V15.22H181.895V11.98H183.623V15.22H188.135L188.123 16.708H183.623L183.611 24.616ZM194.357 26.512H196.853V28H190.001V26.512H192.629V16.708H190.001V15.22H194.357V26.512ZM199.265 17.056C199.121 17.016 198.965 16.984 198.797 16.96C198.637 16.936 198.461 16.924 198.269 16.924C197.085 16.924 196.137 17.368 195.425 18.256C194.713 19.136 194.357 20.36 194.357 21.928L193.949 19.132H194.441C194.553 18.284 194.785 17.556 195.137 16.948C195.489 16.332 195.945 15.86 196.505 15.532C197.073 15.196 197.737 15.028 198.497 15.028C198.641 15.028 198.769 15.036 198.881 15.052C199.001 15.06 199.129 15.076 199.265 15.1V17.056ZM206.821 28.228C205.501 28.228 204.357 27.948 203.389 27.388C202.421 26.828 201.673 26.056 201.145 25.072C200.617 24.08 200.353 22.94 200.353 21.652C200.353 20.348 200.617 19.196 201.145 18.196C201.681 17.196 202.425 16.412 203.377 15.844C204.337 15.276 205.453 14.992 206.725 14.992C208.005 14.992 209.113 15.272 210.049 15.832C210.985 16.392 211.705 17.168 212.209 18.16C212.713 19.152 212.965 20.296 212.965 21.592C212.965 21.744 212.961 21.864 212.953 21.952C212.953 22.04 212.945 22.116 212.929 22.18H211.225C211.233 22.084 211.237 21.98 211.237 21.868C211.245 21.748 211.249 21.612 211.249 21.46C211.249 20.508 211.065 19.664 210.697 18.928C210.337 18.184 209.821 17.6 209.149 17.176C208.477 16.752 207.669 16.54 206.725 16.54C205.805 16.54 204.997 16.76 204.301 17.2C203.605 17.632 203.065 18.232 202.681 19C202.297 19.76 202.105 20.644 202.105 21.652C202.105 22.628 202.293 23.492 202.669 24.244C203.053 24.988 203.597 25.572 204.301 25.996C205.005 26.42 205.841 26.632 206.809 26.632C207.817 26.632 208.689 26.396 209.425 25.924C210.169 25.444 210.721 24.792 211.081 23.968L212.713 24.58C212.241 25.708 211.485 26.6 210.445 27.256C209.413 27.904 208.205 28.228 206.821 28.228ZM201.445 22.18V20.848H212.413L212.917 22.18H201.445ZM219.225 26.512H221.505V28H214.869V26.512H217.497V16.708H214.869V15.22H219.225V26.512ZM226.593 26.512V19.828C226.593 18.78 226.357 17.956 225.885 17.356C225.413 16.756 224.669 16.456 223.653 16.456C222.829 16.456 222.081 16.66 221.409 17.068C220.737 17.476 220.205 18.068 219.813 18.844C219.421 19.62 219.225 20.56 219.225 21.664L218.829 19.108H219.309C219.461 18.236 219.753 17.496 220.185 16.888C220.617 16.272 221.169 15.804 221.841 15.484C222.521 15.156 223.301 14.992 224.181 14.992C225.573 14.992 226.609 15.396 227.289 16.204C227.977 17.004 228.321 18.136 228.321 19.6V26.512H230.781V28H224.349V26.512H226.593ZM243.199 28V23.224L243.271 22.288V20.764L243.199 19.084V10.528H239.755V9.04H244.927V26.512H247.375V28H243.199ZM238.387 14.98C239.443 14.98 240.387 15.212 241.219 15.676C242.059 16.14 242.751 16.804 243.295 17.668C243.839 18.524 244.199 19.552 244.375 20.752L243.271 21.58C243.271 20.596 243.079 19.724 242.695 18.964C242.319 18.204 241.779 17.612 241.075 17.188C240.371 16.756 239.535 16.54 238.567 16.54C237.615 16.54 236.787 16.756 236.083 17.188C235.379 17.62 234.835 18.216 234.451 18.976C234.075 19.736 233.887 20.616 233.887 21.616C233.887 22.608 234.083 23.484 234.475 24.244C234.867 25.004 235.415 25.604 236.119 26.044C236.831 26.476 237.647 26.692 238.567 26.692C239.527 26.692 240.355 26.476 241.051 26.044C241.755 25.604 242.299 25 242.683 24.232C243.075 23.464 243.271 22.58 243.271 21.58L243.535 24.304H243.127C242.983 25.008 242.703 25.66 242.287 26.26C241.871 26.852 241.323 27.332 240.643 27.7C239.963 28.06 239.147 28.24 238.195 28.24C237.307 28.24 236.491 28.08 235.747 27.76C235.003 27.432 234.359 26.972 233.815 26.38C233.271 25.78 232.847 25.076 232.543 24.268C232.247 23.46 232.099 22.576 232.099 21.616C232.099 20.32 232.359 19.172 232.879 18.172C233.399 17.172 234.127 16.392 235.063 15.832C236.007 15.264 237.115 14.98 238.387 14.98ZM255.214 28.228C254.358 28.228 253.634 28.1 253.042 27.844C252.458 27.588 251.994 27.248 251.65 26.824C251.306 26.392 251.082 25.912 250.978 25.384H250.546L250.894 23.968C251.046 24.808 251.462 25.492 252.142 26.02C252.83 26.548 253.722 26.812 254.818 26.812C255.754 26.812 256.478 26.624 256.99 26.248C257.51 25.864 257.77 25.308 257.77 24.58C257.77 23.916 257.514 23.4 257.002 23.032C256.49 22.664 255.594 22.384 254.314 22.192C252.482 21.904 251.178 21.452 250.402 20.836C249.626 20.212 249.238 19.392 249.238 18.376C249.238 17.352 249.594 16.532 250.306 15.916C251.018 15.3 252.01 14.992 253.282 14.992C254.122 14.992 254.814 15.12 255.358 15.376C255.91 15.632 256.334 15.976 256.63 16.408C256.926 16.832 257.118 17.3 257.206 17.812H257.638L257.29 19.168C257.146 18.352 256.754 17.688 256.114 17.176C255.474 16.656 254.638 16.396 253.606 16.396C252.774 16.396 252.122 16.572 251.65 16.924C251.186 17.276 250.954 17.744 250.954 18.328C250.954 18.944 251.246 19.428 251.83 19.78C252.414 20.124 253.334 20.396 254.59 20.596C256.366 20.876 257.626 21.336 258.37 21.976C259.114 22.616 259.486 23.48 259.486 24.568C259.486 25.712 259.118 26.608 258.382 27.256C257.654 27.904 256.598 28.228 255.214 28.228ZM249.166 28V23.968H250.894V28H249.166ZM257.29 19.168V15.22H259.018V19.168H257.29Z" fill="black"/>
<path d="M1 6.35211L6 1V39L1 33.6479V6.35211Z" fill="white"/>
<path d="M6 1L1 6.35211V33.6479L6 39" stroke="black" stroke-linecap="round"/>
<path d="M271 33.6479L266 39L266 1L271 6.35211L271 33.6479Z" fill="white"/>
<path d="M266 39L271 33.6479L271 6.35211L266 1" stroke="black" stroke-linecap="round"/>
</svg>
