<svg width="96" height="40" viewBox="0 0 96 40" fill="none" xmlns="http://www.w3.org/2000/svg">
<path d="M6 0.900024H90V38.9H6V0.900024Z" fill="white"/>
<path d="M6 1.40002H90V0.400024H6V1.40002ZM90 38.4H6V39.4H90V38.4Z" fill="black"/>
<path d="M18.9488 28.128C18.0928 28.128 17.3688 28 16.7768 27.744C16.1928 27.488 15.7288 27.148 15.3848 26.724C15.0408 26.292 14.8168 25.812 14.7128 25.284H14.2808L14.6288 23.868C14.7808 24.708 15.1968 25.392 15.8768 25.92C16.5648 26.448 17.4568 26.712 18.5528 26.712C19.4888 26.712 20.2128 26.524 20.7248 26.148C21.2448 25.764 21.5048 25.208 21.5048 24.48C21.5048 23.816 21.2488 23.3 20.7368 22.932C20.2248 22.564 19.3288 22.284 18.0488 22.092C16.2168 21.804 14.9128 21.352 14.1368 20.736C13.3608 20.112 12.9728 19.292 12.9728 18.276C12.9728 17.252 13.3288 16.432 14.0408 15.816C14.7528 15.2 15.7448 14.892 17.0168 14.892C17.8568 14.892 18.5488 15.02 19.0928 15.276C19.6448 15.532 20.0688 15.876 20.3648 16.308C20.6608 16.732 20.8528 17.2 20.9408 17.712H21.3728L21.0248 19.068C20.8808 18.252 20.4888 17.588 19.8488 17.076C19.2088 16.556 18.3728 16.296 17.3408 16.296C16.5088 16.296 15.8568 16.472 15.3848 16.824C14.9208 17.176 14.6888 17.644 14.6888 18.228C14.6888 18.844 14.9808 19.328 15.5648 19.68C16.1488 20.024 17.0688 20.296 18.3248 20.496C20.1008 20.776 21.3608 21.236 22.1048 21.876C22.8488 22.516 23.2208 23.38 23.2208 24.468C23.2208 25.612 22.8528 26.508 22.1168 27.156C21.3888 27.804 20.3328 28.128 18.9488 28.128ZM12.9008 27.9V23.868H14.6288V27.9H12.9008ZM21.0248 19.068V15.12H22.7528V19.068H21.0248ZM42.9218 27.9V26.412H45.1778V19.704C45.1778 18.656 44.9458 17.836 44.4818 17.244C44.0178 16.652 43.2938 16.356 42.3098 16.356C41.5178 16.356 40.8138 16.564 40.1978 16.98C39.5818 17.396 39.0978 17.992 38.7458 18.768C38.3938 19.544 38.2178 20.476 38.2178 21.564L37.7978 18.996H38.2898C38.4898 17.604 39.0058 16.564 39.8378 15.876C40.6778 15.188 41.6978 14.844 42.8978 14.844C44.2498 14.844 45.2538 15.244 45.9098 16.044C46.5738 16.844 46.9058 17.972 46.9058 19.428V26.412H49.3538V27.9H42.9218ZM25.2338 27.9V26.412H27.7898V16.608H25.2338V15.12H29.5178V26.412H31.7858V27.9H25.2338ZM34.2338 27.9V26.412H36.4898V19.704C36.4898 18.656 36.2578 17.836 35.7938 17.244C35.3298 16.652 34.6058 16.356 33.6218 16.356C32.8298 16.356 32.1258 16.564 31.5098 16.98C30.8938 17.396 30.4058 17.992 30.0458 18.768C29.6938 19.544 29.5178 20.476 29.5178 21.564L29.1098 18.996H29.6018C29.7938 17.604 30.3098 16.564 31.1498 15.876C31.9898 15.188 33.0098 14.844 34.2098 14.844C35.5618 14.844 36.5658 15.244 37.2218 16.044C37.8858 16.844 38.2178 17.972 38.2178 19.428V26.412H40.6658V27.9H34.2338ZM60.962 27.9C60.634 27.9 60.382 27.796 60.206 27.588C60.038 27.38 59.954 27.088 59.954 26.712V22.872L60.11 22.476L60.026 21.024L59.954 20.268V19.296C59.954 18.64 59.818 18.104 59.546 17.688C59.282 17.272 58.898 16.964 58.394 16.764C57.89 16.564 57.282 16.464 56.57 16.464C55.506 16.464 54.682 16.676 54.098 17.1C53.522 17.516 53.138 18.144 52.946 18.984L51.29 18.636C51.45 17.796 51.75 17.1 52.19 16.548C52.63 15.988 53.214 15.572 53.942 15.3C54.678 15.02 55.574 14.88 56.63 14.88C57.734 14.88 58.658 15.036 59.402 15.348C60.154 15.652 60.722 16.12 61.106 16.752C61.49 17.384 61.682 18.2 61.682 19.2V26.412H63.566V27.9H60.962ZM54.938 28.068C53.61 28.068 52.602 27.776 51.914 27.192C51.226 26.6 50.882 25.732 50.882 24.588C50.882 23.532 51.186 22.728 51.794 22.176C52.402 21.616 53.378 21.196 54.722 20.916L60.47 19.692V20.928L55.01 22.164C54.226 22.348 53.638 22.62 53.246 22.98C52.862 23.332 52.67 23.832 52.67 24.48C52.67 25.184 52.886 25.712 53.318 26.064C53.75 26.408 54.382 26.58 55.214 26.58C56.134 26.58 56.958 26.368 57.686 25.944C58.414 25.52 58.986 24.896 59.402 24.072C59.818 23.248 60.026 22.232 60.026 21.024L60.482 23.856H59.87C59.67 25.192 59.15 26.228 58.31 26.964C57.478 27.7 56.354 28.068 54.938 28.068ZM69.4111 26.412H71.9071V27.9H65.0551V26.412H67.6831V16.608H65.0551V15.12H69.4111V26.412ZM74.3191 16.956C74.1751 16.916 74.0191 16.884 73.8511 16.86C73.6911 16.836 73.5151 16.824 73.3231 16.824C72.1391 16.824 71.1911 17.268 70.4791 18.156C69.7671 19.036 69.4111 20.26 69.4111 21.828L69.0031 19.032H69.4951C69.6071 18.184 69.8391 17.456 70.1911 16.848C70.5431 16.232 70.9991 15.76 71.5591 15.432C72.1271 15.096 72.7911 14.928 73.5511 14.928C73.6951 14.928 73.8231 14.936 73.9351 14.952C74.0551 14.96 74.1831 14.976 74.3191 15V16.956ZM78.917 24.516C78.917 25.188 79.045 25.696 79.301 26.04C79.557 26.376 79.949 26.544 80.477 26.544C80.997 26.544 81.389 26.372 81.653 26.028C81.917 25.676 82.049 25.172 82.049 24.516V23.328H83.609V24.504C83.609 25.272 83.493 25.928 83.261 26.472C83.037 27.008 82.693 27.42 82.229 27.708C81.765 27.988 81.169 28.128 80.441 28.128C79.697 28.128 79.085 27.984 78.605 27.696C78.125 27.4 77.769 26.984 77.537 26.448C77.305 25.912 77.189 25.268 77.189 24.516L77.201 16.608H74.921V15.12H77.201V11.88H78.929V15.12H83.441L83.429 16.608H78.929L78.917 24.516Z" fill="black"/>
<path d="M1 6.25214L6 0.900024V38.9L1 33.5479V6.25214Z" fill="white"/>
<path d="M6 0.900024L1 6.25214V33.5479L6 38.9" stroke="black" stroke-linecap="round"/>
<path d="M95 33.5479L90 38.9L90 0.900024L95 6.25214L95 33.5479Z" fill="white"/>
<path d="M90 38.9L95 33.5479L95 6.25214L90 0.900024" stroke="black" stroke-linecap="round"/>
</svg>
