<svg width="201" height="40" viewBox="0 0 201 40" fill="none" xmlns="http://www.w3.org/2000/svg">
<path d="M6 0.900024H195V38.9H6V0.900024Z" fill="white"/>
<path d="M6 1.40002H195V0.400024H6V1.40002ZM195 38.4H6V39.4H195V38.4Z" fill="black"/>
<path d="M15.9596 24.516C15.9596 25.188 16.0876 25.696 16.3436 26.04C16.5996 26.376 16.9916 26.544 17.5196 26.544C18.0396 26.544 18.4316 26.372 18.6956 26.028C18.9596 25.676 19.0916 25.172 19.0916 24.516V23.328H20.6516V24.504C20.6516 25.272 20.5356 25.928 20.3036 26.472C20.0796 27.008 19.7356 27.42 19.2716 27.708C18.8076 27.988 18.2116 28.128 17.4836 28.128C16.7396 28.128 16.1276 27.984 15.6476 27.696C15.1676 27.4 14.8116 26.984 14.5796 26.448C14.3476 25.912 14.2316 25.268 14.2316 24.516L14.2436 16.608H11.9636V15.12H14.2436V11.88H15.9716V15.12H20.4836L20.4716 16.608H15.9716L15.9596 24.516ZM26.8247 26.412H29.2847V27.9H22.5047V26.412H25.0967V16.608H22.5047V15.12H26.8247V26.412ZM24.7727 9.73202H26.9807V12.024H24.7727V9.73202ZM36.8623 33.204C35.7423 33.204 34.7263 33.096 33.8143 32.88C32.9103 32.672 32.1903 32.34 31.6543 31.884C31.1183 31.428 30.8503 30.824 30.8503 30.072C30.8503 29.32 31.1183 28.748 31.6543 28.356C32.1983 27.972 32.8983 27.72 33.7543 27.6V27.396L35.8903 27.6C35.0023 27.6 34.3063 27.704 33.8023 27.912C33.2983 28.128 32.9423 28.4 32.7343 28.728C32.5263 29.064 32.4223 29.408 32.4223 29.76C32.4223 30.304 32.6223 30.728 33.0223 31.032C33.4223 31.336 33.9583 31.552 34.6303 31.68C35.3103 31.808 36.0703 31.872 36.9103 31.872C38.5983 31.872 39.8303 31.644 40.6063 31.188C41.3903 30.74 41.7823 30.112 41.7823 29.304C41.7823 28.168 41.0463 27.6 39.5743 27.6H34.6783C33.7183 27.6 32.9623 27.428 32.4103 27.084C31.8663 26.732 31.5943 26.228 31.5943 25.572C31.5943 24.948 31.8423 24.472 32.3383 24.144C32.8343 23.808 33.5423 23.604 34.4623 23.532V23.172L36.6463 23.796H35.3383C34.6503 23.796 34.1263 23.892 33.7663 24.084C33.4063 24.268 33.2263 24.552 33.2263 24.936C33.2263 25.296 33.3903 25.556 33.7183 25.716C34.0543 25.868 34.5583 25.944 35.2303 25.944H39.5263C40.3503 25.944 41.0503 26.08 41.6263 26.352C42.2103 26.616 42.6503 26.996 42.9463 27.492C43.2503 27.988 43.4023 28.58 43.4023 29.268C43.4023 30.004 43.1943 30.668 42.7783 31.26C42.3623 31.86 41.6743 32.332 40.7143 32.676C39.7623 33.028 38.4783 33.204 36.8623 33.204ZM36.6463 23.796C35.6303 23.796 34.7263 23.612 33.9343 23.244C33.1423 22.876 32.5183 22.36 32.0623 21.696C31.6063 21.032 31.3783 20.252 31.3783 19.356C31.3783 18.46 31.6023 17.68 32.0503 17.016C32.5063 16.344 33.1263 15.824 33.9103 15.456C34.7023 15.08 35.6143 14.892 36.6463 14.892C37.6943 14.892 38.6183 15.088 39.4183 15.48C40.2263 15.872 40.8423 16.416 41.2663 17.112C41.4743 17.432 41.6263 17.78 41.7223 18.156C41.8263 18.524 41.8783 18.924 41.8783 19.356C41.8783 20.252 41.6543 21.032 41.2063 21.696C40.7583 22.36 40.1383 22.876 39.3463 23.244C38.5623 23.612 37.6623 23.796 36.6463 23.796ZM36.6463 22.38C37.3263 22.38 37.9303 22.256 38.4583 22.008C38.9943 21.76 39.4143 21.408 39.7183 20.952C40.0303 20.496 40.1863 19.964 40.1863 19.356C40.1863 18.748 40.0303 18.216 39.7183 17.76C39.4143 17.296 38.9943 16.94 38.4583 16.692C37.9303 16.436 37.3263 16.308 36.6463 16.308C35.9503 16.308 35.3343 16.436 34.7983 16.692C34.2623 16.94 33.8383 17.296 33.5263 17.76C33.2223 18.216 33.0703 18.748 33.0703 19.356C33.0703 19.964 33.2223 20.496 33.5263 20.952C33.8383 21.408 34.2623 21.76 34.7983 22.008C35.3423 22.256 35.9583 22.38 36.6463 22.38ZM41.8783 19.356L41.2783 17.952L40.7503 17.088L41.2303 16.896C41.2063 16.816 41.1863 16.736 41.1703 16.656C41.1623 16.568 41.1583 16.476 41.1583 16.38C41.1583 16.044 41.2383 15.74 41.3983 15.468C41.5583 15.196 41.7903 14.98 42.0943 14.82C42.3983 14.66 42.7703 14.58 43.2103 14.58C43.3223 14.58 43.4223 14.584 43.5103 14.592C43.6063 14.6 43.6983 14.616 43.7863 14.64V16.308C43.6343 16.284 43.4943 16.268 43.3663 16.26C43.2383 16.244 43.1103 16.236 42.9823 16.236C42.6463 16.236 42.3743 16.284 42.1663 16.38C41.9663 16.476 41.8223 16.6 41.7343 16.752C41.6463 16.896 41.6023 17.056 41.6023 17.232C41.6023 17.4 41.6263 17.584 41.6743 17.784C41.7223 17.976 41.7663 18.2 41.8063 18.456C41.8543 18.712 41.8783 19.012 41.8783 19.356ZM49.1738 26.412H51.4418V27.9H44.8778V26.412H47.4458V10.428H44.8778V8.94002H49.1738V26.412ZM56.5418 26.412V19.692C56.5418 18.652 56.3058 17.836 55.8338 17.244C55.3698 16.652 54.6378 16.356 53.6378 16.356C52.7978 16.356 52.0418 16.572 51.3698 17.004C50.6978 17.428 50.1618 18.048 49.7618 18.864C49.3698 19.672 49.1738 20.648 49.1738 21.792L48.7658 19.236H49.2458C49.4058 18.3 49.7058 17.508 50.1458 16.86C50.5938 16.204 51.1618 15.704 51.8498 15.36C52.5378 15.016 53.3258 14.844 54.2138 14.844C55.6058 14.844 56.6298 15.244 57.2858 16.044C57.9418 16.844 58.2698 17.968 58.2698 19.416V26.412H60.7178V27.9H54.2858V26.412H56.5418ZM65.3678 24.516C65.3678 25.188 65.4958 25.696 65.7518 26.04C66.0078 26.376 66.3998 26.544 66.9278 26.544C67.4478 26.544 67.8398 26.372 68.1038 26.028C68.3678 25.676 68.4998 25.172 68.4998 24.516V23.328H70.0598V24.504C70.0598 25.272 69.9438 25.928 69.7118 26.472C69.4878 27.008 69.1438 27.42 68.6798 27.708C68.2158 27.988 67.6198 28.128 66.8918 28.128C66.1478 28.128 65.5358 27.984 65.0558 27.696C64.5758 27.4 64.2198 26.984 63.9878 26.448C63.7558 25.912 63.6398 25.268 63.6398 24.516L63.6518 16.608H61.3718V15.12H63.6518V11.88H65.3798V15.12H69.8918L69.8798 16.608H65.3798L65.3678 24.516ZM84.747 33.204C83.627 33.204 82.611 33.096 81.699 32.88C80.795 32.672 80.075 32.34 79.539 31.884C79.003 31.428 78.735 30.824 78.735 30.072C78.735 29.32 79.003 28.748 79.539 28.356C80.083 27.972 80.783 27.72 81.639 27.6V27.396L83.775 27.6C82.887 27.6 82.191 27.704 81.687 27.912C81.183 28.128 80.827 28.4 80.619 28.728C80.411 29.064 80.307 29.408 80.307 29.76C80.307 30.304 80.507 30.728 80.907 31.032C81.307 31.336 81.843 31.552 82.515 31.68C83.195 31.808 83.955 31.872 84.795 31.872C86.483 31.872 87.715 31.644 88.491 31.188C89.275 30.74 89.667 30.112 89.667 29.304C89.667 28.168 88.931 27.6 87.459 27.6H82.563C81.603 27.6 80.847 27.428 80.295 27.084C79.751 26.732 79.479 26.228 79.479 25.572C79.479 24.948 79.727 24.472 80.223 24.144C80.719 23.808 81.427 23.604 82.347 23.532V23.172L84.531 23.796H83.223C82.535 23.796 82.011 23.892 81.651 24.084C81.291 24.268 81.111 24.552 81.111 24.936C81.111 25.296 81.275 25.556 81.603 25.716C81.939 25.868 82.443 25.944 83.115 25.944H87.411C88.235 25.944 88.935 26.08 89.511 26.352C90.095 26.616 90.535 26.996 90.831 27.492C91.135 27.988 91.287 28.58 91.287 29.268C91.287 30.004 91.079 30.668 90.663 31.26C90.247 31.86 89.559 32.332 88.599 32.676C87.647 33.028 86.363 33.204 84.747 33.204ZM84.531 23.796C83.515 23.796 82.611 23.612 81.819 23.244C81.027 22.876 80.403 22.36 79.947 21.696C79.491 21.032 79.263 20.252 79.263 19.356C79.263 18.46 79.487 17.68 79.935 17.016C80.391 16.344 81.011 15.824 81.795 15.456C82.587 15.08 83.499 14.892 84.531 14.892C85.579 14.892 86.503 15.088 87.303 15.48C88.111 15.872 88.727 16.416 89.151 17.112C89.359 17.432 89.511 17.78 89.607 18.156C89.711 18.524 89.763 18.924 89.763 19.356C89.763 20.252 89.539 21.032 89.091 21.696C88.643 22.36 88.023 22.876 87.231 23.244C86.447 23.612 85.547 23.796 84.531 23.796ZM84.531 22.38C85.211 22.38 85.815 22.256 86.343 22.008C86.879 21.76 87.299 21.408 87.603 20.952C87.915 20.496 88.071 19.964 88.071 19.356C88.071 18.748 87.915 18.216 87.603 17.76C87.299 17.296 86.879 16.94 86.343 16.692C85.815 16.436 85.211 16.308 84.531 16.308C83.835 16.308 83.219 16.436 82.683 16.692C82.147 16.94 81.723 17.296 81.411 17.76C81.107 18.216 80.955 18.748 80.955 19.356C80.955 19.964 81.107 20.496 81.411 20.952C81.723 21.408 82.147 21.76 82.683 22.008C83.227 22.256 83.843 22.38 84.531 22.38ZM89.763 19.356L89.163 17.952L88.635 17.088L89.115 16.896C89.091 16.816 89.071 16.736 89.055 16.656C89.047 16.568 89.043 16.476 89.043 16.38C89.043 16.044 89.123 15.74 89.283 15.468C89.443 15.196 89.675 14.98 89.979 14.82C90.283 14.66 90.655 14.58 91.095 14.58C91.207 14.58 91.307 14.584 91.395 14.592C91.491 14.6 91.583 14.616 91.671 14.64V16.308C91.519 16.284 91.379 16.268 91.251 16.26C91.123 16.244 90.995 16.236 90.867 16.236C90.531 16.236 90.259 16.284 90.051 16.38C89.851 16.476 89.707 16.6 89.619 16.752C89.531 16.896 89.487 17.056 89.487 17.232C89.487 17.4 89.511 17.584 89.559 17.784C89.607 17.976 89.651 18.2 89.691 18.456C89.739 18.712 89.763 19.012 89.763 19.356ZM97.4184 26.412H99.9144V27.9H93.0624V26.412H95.6904V16.608H93.0624V15.12H97.4184V26.412ZM102.326 16.956C102.182 16.916 102.026 16.884 101.858 16.86C101.698 16.836 101.522 16.824 101.33 16.824C100.146 16.824 99.1984 17.268 98.4864 18.156C97.7744 19.036 97.4184 20.26 97.4184 21.828L97.0104 19.032H97.5024C97.6144 18.184 97.8464 17.456 98.1984 16.848C98.5504 16.232 99.0064 15.76 99.5664 15.432C100.134 15.096 100.798 14.928 101.558 14.928C101.702 14.928 101.83 14.936 101.942 14.952C102.062 14.96 102.19 14.976 102.326 15V16.956ZM109.883 28.128C108.563 28.128 107.419 27.848 106.451 27.288C105.483 26.728 104.735 25.956 104.207 24.972C103.679 23.98 103.415 22.84 103.415 21.552C103.415 20.248 103.679 19.096 104.207 18.096C104.743 17.096 105.487 16.312 106.439 15.744C107.399 15.176 108.515 14.892 109.787 14.892C111.067 14.892 112.175 15.172 113.111 15.732C114.047 16.292 114.767 17.068 115.271 18.06C115.775 19.052 116.027 20.196 116.027 21.492C116.027 21.644 116.023 21.764 116.015 21.852C116.015 21.94 116.007 22.016 115.991 22.08H114.287C114.295 21.984 114.299 21.88 114.299 21.768C114.307 21.648 114.311 21.512 114.311 21.36C114.311 20.408 114.127 19.564 113.759 18.828C113.399 18.084 112.883 17.5 112.211 17.076C111.539 16.652 110.731 16.44 109.787 16.44C108.867 16.44 108.059 16.66 107.363 17.1C106.667 17.532 106.127 18.132 105.743 18.9C105.359 19.66 105.167 20.544 105.167 21.552C105.167 22.528 105.355 23.392 105.731 24.144C106.115 24.888 106.659 25.472 107.363 25.896C108.067 26.32 108.903 26.532 109.871 26.532C110.879 26.532 111.751 26.296 112.487 25.824C113.231 25.344 113.783 24.692 114.143 23.868L115.775 24.48C115.303 25.608 114.547 26.5 113.507 27.156C112.475 27.804 111.267 28.128 109.883 28.128ZM104.507 22.08V20.748H115.475L115.979 22.08H104.507ZM125.014 15.12H130.966V16.608H129.37L124.09 29.604C123.658 30.676 122.99 31.5 122.086 32.076C121.19 32.652 120.074 32.94 118.738 32.94H117.478V31.416H118.738C119.634 31.416 120.414 31.228 121.078 30.852C121.75 30.484 122.238 29.94 122.542 29.22L123.454 26.976L123.154 28.464L118.27 16.608H116.506V15.12H122.578V16.608H120.154L124.462 27.372L122.89 25.98H124.546L123.646 26.796L127.642 16.608H125.014V15.12ZM142.553 26.412H144.821V27.9H138.257V26.412H140.825V10.428H138.257V8.94002H142.553V26.412ZM147.017 19.8L152.093 26.412H153.761V27.9H147.185V26.412H149.957L145.793 20.844L147.017 19.8ZM142.037 24.456L141.677 23.076L149.513 16.608H145.613V15.12H153.557V16.608H151.757L142.037 24.456ZM159.472 26.412H161.752V27.9H155.116V26.412H157.744V16.608H155.116V15.12H159.472V26.412ZM166.84 26.412V19.728C166.84 18.68 166.604 17.856 166.132 17.256C165.66 16.656 164.916 16.356 163.9 16.356C163.076 16.356 162.328 16.56 161.656 16.968C160.984 17.376 160.452 17.968 160.06 18.744C159.668 19.52 159.472 20.46 159.472 21.564L159.076 19.008H159.556C159.708 18.136 160 17.396 160.432 16.788C160.864 16.172 161.416 15.704 162.088 15.384C162.768 15.056 163.548 14.892 164.428 14.892C165.82 14.892 166.856 15.296 167.536 16.104C168.224 16.904 168.568 18.036 168.568 19.5V26.412H171.028V27.9H164.596V26.412H166.84ZM176.737 26.412H179.197V27.9H172.417V26.412H175.009V16.608H172.417V15.12H176.737V26.412ZM174.685 9.73202H176.893V12.024H174.685V9.73202ZM183.966 24.516C183.966 25.188 184.094 25.696 184.35 26.04C184.606 26.376 184.998 26.544 185.526 26.544C186.046 26.544 186.438 26.372 186.702 26.028C186.966 25.676 187.098 25.172 187.098 24.516V23.328H188.658V24.504C188.658 25.272 188.542 25.928 188.31 26.472C188.086 27.008 187.742 27.42 187.278 27.708C186.814 27.988 186.218 28.128 185.49 28.128C184.746 28.128 184.134 27.984 183.654 27.696C183.174 27.4 182.818 26.984 182.586 26.448C182.354 25.912 182.238 25.268 182.238 24.516L182.25 16.608H179.97V15.12H182.25V11.88H183.978V15.12H188.49L188.478 16.608H183.978L183.966 24.516Z" fill="black"/>
<path d="M1 6.25214L6 0.900024V38.9L1 33.5479V6.25214Z" fill="white"/>
<path d="M6 0.900024L1 6.25214V33.5479L6 38.9" stroke="black" stroke-linecap="round"/>
<path d="M200 33.5479L195 38.9L195 0.900024L200 6.25214L200 33.5479Z" fill="white"/>
<path d="M195 38.9L200 33.5479L200 6.25214L195 0.900024" stroke="black" stroke-linecap="round"/>
</svg>
