<svg width="187" height="40" viewBox="0 0 187 40" fill="none" xmlns="http://www.w3.org/2000/svg">
<path d="M6 0.900024H181V38.9H6V0.900024Z" fill="white"/>
<path d="M6 1.40002H181V0.400024H6V1.40002ZM181 38.4H6V39.4H181V38.4Z" fill="black"/>
<path d="M23.4758 27.9V23.124L23.5478 22.188V20.664L23.4758 18.984V10.428H20.0318V8.94002H25.2038V26.412H27.6518V27.9H23.4758ZM18.6638 14.88C19.7198 14.88 20.6638 15.112 21.4958 15.576C22.3358 16.04 23.0278 16.704 23.5718 17.568C24.1158 18.424 24.4758 19.452 24.6518 20.652L23.5478 21.48C23.5478 20.496 23.3558 19.624 22.9718 18.864C22.5958 18.104 22.0558 17.512 21.3518 17.088C20.6478 16.656 19.8118 16.44 18.8438 16.44C17.8918 16.44 17.0638 16.656 16.3598 17.088C15.6558 17.52 15.1118 18.116 14.7278 18.876C14.3518 19.636 14.1638 20.516 14.1638 21.516C14.1638 22.508 14.3598 23.384 14.7518 24.144C15.1438 24.904 15.6918 25.504 16.3958 25.944C17.1078 26.376 17.9238 26.592 18.8438 26.592C19.8038 26.592 20.6318 26.376 21.3278 25.944C22.0318 25.504 22.5758 24.9 22.9598 24.132C23.3518 23.364 23.5478 22.48 23.5478 21.48L23.8118 24.204H23.4038C23.2598 24.908 22.9798 25.56 22.5638 26.16C22.1478 26.752 21.5998 27.232 20.9198 27.6C20.2398 27.96 19.4238 28.14 18.4718 28.14C17.5838 28.14 16.7678 27.98 16.0238 27.66C15.2798 27.332 14.6358 26.872 14.0918 26.28C13.5478 25.68 13.1238 24.976 12.8198 24.168C12.5238 23.36 12.3758 22.476 12.3758 21.516C12.3758 20.22 12.6358 19.072 13.1558 18.072C13.6758 17.072 14.4038 16.292 15.3398 15.732C16.2838 15.164 17.3918 14.88 18.6638 14.88ZM39.5104 27.9C39.1824 27.9 38.9304 27.796 38.7544 27.588C38.5864 27.38 38.5024 27.088 38.5024 26.712V22.872L38.6584 22.476L38.5744 21.024L38.5024 20.268V19.296C38.5024 18.64 38.3664 18.104 38.0944 17.688C37.8304 17.272 37.4464 16.964 36.9424 16.764C36.4384 16.564 35.8304 16.464 35.1184 16.464C34.0544 16.464 33.2304 16.676 32.6464 17.1C32.0704 17.516 31.6864 18.144 31.4944 18.984L29.8384 18.636C29.9984 17.796 30.2984 17.1 30.7384 16.548C31.1784 15.988 31.7624 15.572 32.4904 15.3C33.2264 15.02 34.1224 14.88 35.1784 14.88C36.2824 14.88 37.2064 15.036 37.9504 15.348C38.7024 15.652 39.2704 16.12 39.6544 16.752C40.0384 17.384 40.2304 18.2 40.2304 19.2V26.412H42.1144V27.9H39.5104ZM33.4864 28.068C32.1584 28.068 31.1504 27.776 30.4624 27.192C29.7744 26.6 29.4304 25.732 29.4304 24.588C29.4304 23.532 29.7344 22.728 30.3424 22.176C30.9504 21.616 31.9264 21.196 33.2704 20.916L39.0184 19.692V20.928L33.5584 22.164C32.7744 22.348 32.1864 22.62 31.7944 22.98C31.4104 23.332 31.2184 23.832 31.2184 24.48C31.2184 25.184 31.4344 25.712 31.8664 26.064C32.2984 26.408 32.9304 26.58 33.7624 26.58C34.6824 26.58 35.5064 26.368 36.2344 25.944C36.9624 25.52 37.5344 24.896 37.9504 24.072C38.3664 23.248 38.5744 22.232 38.5744 21.024L39.0304 23.856H38.4184C38.2184 25.192 37.6984 26.228 36.8584 26.964C36.0264 27.7 34.9024 28.068 33.4864 28.068ZM47.9595 26.412H50.4555V27.9H43.6035V26.412H46.2315V16.608H43.6035V15.12H47.9595V26.412ZM52.8675 16.956C52.7235 16.916 52.5675 16.884 52.3995 16.86C52.2395 16.836 52.0635 16.824 51.8715 16.824C50.6875 16.824 49.7395 17.268 49.0275 18.156C48.3155 19.036 47.9595 20.26 47.9595 21.828L47.5515 19.032H48.0435C48.1555 18.184 48.3875 17.456 48.7395 16.848C49.0915 16.232 49.5475 15.76 50.1075 15.432C50.6755 15.096 51.3395 14.928 52.0995 14.928C52.2435 14.928 52.3715 14.936 52.4835 14.952C52.6035 14.96 52.7315 14.976 52.8675 15V16.956ZM57.5492 26.412H59.8172V27.9H53.2532V26.412H55.8212V10.428H53.2532V8.94002H57.5492V26.412ZM62.0132 19.8L67.0892 26.412H68.7572V27.9H62.1812V26.412H64.9532L60.7892 20.844L62.0132 19.8ZM57.0332 24.456L56.6732 23.076L64.5092 16.608H60.6092V15.12H68.5532V16.608H66.7532L57.0332 24.456ZM78.3133 28.164V10.428H75.7453V8.94002H80.0413V19.596L79.9693 21.096V22.692L80.0413 25.02L78.4693 28.164H78.3133ZM84.7813 28.14C83.7093 28.14 82.7493 27.94 81.9013 27.54C81.0613 27.132 80.3653 26.556 79.8133 25.812C79.2693 25.06 78.9053 24.168 78.7213 23.136L79.9693 21.516C79.9693 22.5 80.1573 23.372 80.5333 24.132C80.9093 24.892 81.4493 25.492 82.1533 25.932C82.8573 26.364 83.6933 26.58 84.6613 26.58C85.6453 26.58 86.4853 26.368 87.1813 25.944C87.8853 25.52 88.4213 24.928 88.7893 24.168C89.1653 23.4 89.3533 22.508 89.3533 21.492C89.3533 20.5 89.1533 19.624 88.7533 18.864C88.3613 18.104 87.8133 17.508 87.1093 17.076C86.4053 16.644 85.5893 16.428 84.6613 16.428C83.7093 16.428 82.8813 16.644 82.1773 17.076C81.4733 17.508 80.9293 18.104 80.5453 18.864C80.1613 19.624 79.9693 20.508 79.9693 21.516L79.6933 18.816H80.1013C80.2533 18.112 80.5333 17.464 80.9413 16.872C81.3573 16.272 81.9053 15.792 82.5853 15.432C83.2733 15.064 84.0933 14.88 85.0453 14.88C85.9333 14.88 86.7493 15.044 87.4933 15.372C88.2373 15.692 88.8813 16.152 89.4253 16.752C89.9693 17.344 90.3893 18.048 90.6853 18.864C90.9813 19.672 91.1293 20.56 91.1293 21.528C91.1293 22.816 90.8653 23.96 90.3373 24.96C89.8173 25.952 89.0813 26.732 88.1293 27.3C87.1773 27.86 86.0613 28.14 84.7813 28.14ZM103.509 27.9C103.181 27.9 102.929 27.796 102.753 27.588C102.585 27.38 102.501 27.088 102.501 26.712V22.872L102.657 22.476L102.573 21.024L102.501 20.268V19.296C102.501 18.64 102.365 18.104 102.093 17.688C101.829 17.272 101.445 16.964 100.941 16.764C100.437 16.564 99.8288 16.464 99.1168 16.464C98.0528 16.464 97.2288 16.676 96.6448 17.1C96.0688 17.516 95.6848 18.144 95.4928 18.984L93.8368 18.636C93.9968 17.796 94.2968 17.1 94.7368 16.548C95.1768 15.988 95.7608 15.572 96.4888 15.3C97.2248 15.02 98.1208 14.88 99.1768 14.88C100.281 14.88 101.205 15.036 101.949 15.348C102.701 15.652 103.269 16.12 103.653 16.752C104.037 17.384 104.229 18.2 104.229 19.2V26.412H106.113V27.9H103.509ZM97.4848 28.068C96.1568 28.068 95.1488 27.776 94.4608 27.192C93.7728 26.6 93.4288 25.732 93.4288 24.588C93.4288 23.532 93.7328 22.728 94.3408 22.176C94.9488 21.616 95.9248 21.196 97.2688 20.916L103.017 19.692V20.928L97.5568 22.164C96.7728 22.348 96.1848 22.62 95.7928 22.98C95.4088 23.332 95.2168 23.832 95.2168 24.48C95.2168 25.184 95.4328 25.712 95.8648 26.064C96.2968 26.408 96.9288 26.58 97.7608 26.58C98.6808 26.58 99.5048 26.368 100.233 25.944C100.961 25.52 101.533 24.896 101.949 24.072C102.365 23.248 102.573 22.232 102.573 21.024L103.029 23.856H102.417C102.217 25.192 101.697 26.228 100.857 26.964C100.025 27.7 98.9008 28.068 97.4848 28.068ZM111.658 26.412H114.286V27.9H107.302V26.412H109.93V10.428H107.302V8.94002H111.658V26.412ZM119.709 26.412H122.337V27.9H115.353V26.412H117.981V10.428H115.353V8.94002H119.709V26.412ZM137.27 28.128C135.942 28.128 134.786 27.848 133.802 27.288C132.826 26.728 132.066 25.956 131.522 24.972C130.986 23.98 130.718 22.84 130.718 21.552C130.718 20.576 130.866 19.684 131.162 18.876C131.458 18.06 131.882 17.356 132.434 16.764C132.986 16.164 133.642 15.704 134.402 15.384C135.162 15.056 136.01 14.892 136.946 14.892C137.85 14.892 138.602 15.04 139.202 15.336C139.81 15.624 140.282 16.024 140.618 16.536C140.954 17.04 141.17 17.62 141.266 18.276H141.686L141.338 20.088C141.234 19.368 140.998 18.736 140.63 18.192C140.262 17.64 139.782 17.212 139.19 16.908C138.598 16.596 137.914 16.44 137.138 16.44C136.21 16.44 135.394 16.66 134.69 17.1C133.994 17.532 133.45 18.132 133.058 18.9C132.674 19.66 132.482 20.544 132.482 21.552C132.482 22.528 132.678 23.392 133.07 24.144C133.47 24.888 134.026 25.472 134.738 25.896C135.458 26.32 136.306 26.532 137.282 26.532C138.29 26.532 139.158 26.312 139.886 25.872C140.614 25.424 141.146 24.824 141.482 24.072L143.078 24.78C142.622 25.812 141.89 26.628 140.882 27.228C139.882 27.828 138.678 28.128 137.27 28.128ZM141.338 20.088V15.12H143.066V20.088H141.338ZM155.414 27.9C155.086 27.9 154.834 27.796 154.658 27.588C154.49 27.38 154.406 27.088 154.406 26.712V22.872L154.562 22.476L154.478 21.024L154.406 20.268V19.296C154.406 18.64 154.27 18.104 153.998 17.688C153.734 17.272 153.35 16.964 152.846 16.764C152.342 16.564 151.734 16.464 151.022 16.464C149.958 16.464 149.134 16.676 148.55 17.1C147.974 17.516 147.59 18.144 147.398 18.984L145.742 18.636C145.902 17.796 146.202 17.1 146.642 16.548C147.082 15.988 147.666 15.572 148.394 15.3C149.13 15.02 150.026 14.88 151.082 14.88C152.186 14.88 153.11 15.036 153.854 15.348C154.606 15.652 155.174 16.12 155.558 16.752C155.942 17.384 156.134 18.2 156.134 19.2V26.412H158.018V27.9H155.414ZM149.39 28.068C148.062 28.068 147.054 27.776 146.366 27.192C145.678 26.6 145.334 25.732 145.334 24.588C145.334 23.532 145.638 22.728 146.246 22.176C146.854 21.616 147.83 21.196 149.174 20.916L154.922 19.692V20.928L149.462 22.164C148.678 22.348 148.09 22.62 147.698 22.98C147.314 23.332 147.122 23.832 147.122 24.48C147.122 25.184 147.338 25.712 147.77 26.064C148.202 26.408 148.834 26.58 149.666 26.58C150.586 26.58 151.41 26.368 152.138 25.944C152.866 25.52 153.438 24.896 153.854 24.072C154.27 23.248 154.478 22.232 154.478 21.024L154.934 23.856H154.322C154.122 25.192 153.602 26.228 152.762 26.964C151.93 27.7 150.806 28.068 149.39 28.068ZM159.243 32.94V31.452H161.799V16.608H159.243V15.12H163.527V19.692L163.479 21.06V21.816L163.527 22.896V31.452H166.035V32.94H159.243ZM168.351 28.14C167.295 28.14 166.347 27.908 165.507 27.444C164.675 26.98 163.987 26.32 163.443 25.464C162.899 24.6 162.539 23.568 162.363 22.368L163.479 21.54C163.479 22.524 163.667 23.396 164.043 24.156C164.419 24.908 164.959 25.5 165.663 25.932C166.367 26.364 167.203 26.58 168.171 26.58C169.123 26.58 169.951 26.364 170.655 25.932C171.359 25.5 171.899 24.904 172.275 24.144C172.659 23.376 172.851 22.5 172.851 21.516C172.851 20.516 172.655 19.636 172.263 18.876C171.871 18.116 171.323 17.52 170.619 17.088C169.915 16.648 169.099 16.428 168.171 16.428C167.219 16.428 166.391 16.648 165.687 17.088C164.983 17.52 164.439 18.12 164.055 18.888C163.671 19.656 163.479 20.54 163.479 21.54L163.203 18.816H163.611C163.755 18.112 164.035 17.464 164.451 16.872C164.867 16.272 165.415 15.792 166.095 15.432C166.783 15.064 167.599 14.88 168.543 14.88C169.439 14.88 170.259 15.044 171.003 15.372C171.747 15.692 172.387 16.152 172.923 16.752C173.467 17.344 173.887 18.044 174.183 18.852C174.487 19.66 174.639 20.548 174.639 21.516C174.639 22.804 174.379 23.948 173.859 24.948C173.339 25.948 172.607 26.732 171.663 27.3C170.727 27.86 169.623 28.14 168.351 28.14Z" fill="black"/>
<path d="M1 6.25214L6 0.900024V38.9L1 33.5479V6.25214Z" fill="white"/>
<path d="M6 0.900024L1 6.25214V33.5479L6 38.9" stroke="black" stroke-linecap="round"/>
<path d="M186 33.5479L181 38.9L181 0.900024L186 6.25214L186 33.5479Z" fill="white"/>
<path d="M181 38.9L186 33.5479L186 6.25214L181 0.900024" stroke="black" stroke-linecap="round"/>
</svg>
