<svg width="142" height="40" viewBox="0 0 142 40" fill="none" xmlns="http://www.w3.org/2000/svg">
<path d="M6 0.900024H136V38.9H6V0.900024Z" fill="white"/>
<path d="M6 1.40002H136V0.400024H6V1.40002ZM136 38.4H6V39.4H136V38.4Z" fill="black"/>
<path d="M19.0292 28.128C17.7012 28.128 16.5452 27.848 15.5612 27.288C14.5852 26.728 13.8252 25.956 13.2812 24.972C12.7452 23.98 12.4772 22.84 12.4772 21.552C12.4772 20.576 12.6252 19.684 12.9212 18.876C13.2172 18.06 13.6412 17.356 14.1932 16.764C14.7452 16.164 15.4012 15.704 16.1612 15.384C16.9212 15.056 17.7692 14.892 18.7052 14.892C19.6092 14.892 20.3612 15.04 20.9612 15.336C21.5692 15.624 22.0412 16.024 22.3772 16.536C22.7132 17.04 22.9292 17.62 23.0252 18.276H23.4452L23.0972 20.088C22.9932 19.368 22.7572 18.736 22.3892 18.192C22.0212 17.64 21.5412 17.212 20.9492 16.908C20.3572 16.596 19.6732 16.44 18.8972 16.44C17.9692 16.44 17.1532 16.66 16.4492 17.1C15.7532 17.532 15.2092 18.132 14.8172 18.9C14.4332 19.66 14.2412 20.544 14.2412 21.552C14.2412 22.528 14.4372 23.392 14.8292 24.144C15.2292 24.888 15.7852 25.472 16.4972 25.896C17.2172 26.32 18.0652 26.532 19.0412 26.532C20.0492 26.532 20.9172 26.312 21.6452 25.872C22.3732 25.424 22.9052 24.824 23.2412 24.072L24.8372 24.78C24.3812 25.812 23.6492 26.628 22.6412 27.228C21.6412 27.828 20.4372 28.128 19.0292 28.128ZM23.0972 20.088V15.12H24.8252V20.088H23.0972ZM37.3532 16.608H34.8812V15.12H39.0812V26.412H41.5772V27.9H37.3532V16.608ZM30.2132 15.12V23.268C30.2132 24.316 30.4452 25.144 30.9092 25.752C31.3812 26.352 32.1212 26.652 33.1292 26.652C33.9372 26.652 34.6572 26.448 35.2892 26.04C35.9292 25.624 36.4332 25.028 36.8012 24.252C37.1692 23.476 37.3532 22.544 37.3532 21.456L37.7732 24.012H37.2692C37.0532 25.388 36.5172 26.428 35.6612 27.132C34.8132 27.828 33.7692 28.176 32.5292 28.176C31.1532 28.176 30.1332 27.768 29.4692 26.952C28.8132 26.136 28.4852 25.004 28.4852 23.556V16.608H26.1692V15.12H30.2132ZM47.2864 26.412H49.7824V27.9H42.9304V26.412H45.5584V16.608H42.9304V15.12H47.2864V26.412ZM52.1944 16.956C52.0504 16.916 51.8944 16.884 51.7264 16.86C51.5664 16.836 51.3904 16.824 51.1984 16.824C50.0144 16.824 49.0664 17.268 48.3544 18.156C47.6424 19.036 47.2864 20.26 47.2864 21.828L46.8784 19.032H47.3704C47.4824 18.184 47.7144 17.456 48.0664 16.848C48.4184 16.232 48.8744 15.76 49.4344 15.432C50.0024 15.096 50.6664 14.928 51.4264 14.928C51.5704 14.928 51.6984 14.936 51.8104 14.952C51.9304 14.96 52.0584 14.976 52.1944 15V16.956ZM56.9361 26.412H59.5641V27.9H52.5801V26.412H55.2081V10.428H52.5801V8.94002H56.9361V26.412ZM68.062 15.12H74.014V16.608H72.418L67.138 29.604C66.706 30.676 66.038 31.5 65.134 32.076C64.238 32.652 63.122 32.94 61.786 32.94H60.526V31.416H61.786C62.682 31.416 63.462 31.228 64.126 30.852C64.798 30.484 65.286 29.94 65.59 29.22L66.502 26.976L66.202 28.464L61.318 16.608H59.554V15.12H65.626V16.608H63.202L67.51 27.372L65.938 25.98H67.594L66.694 26.796L70.69 16.608H68.062V15.12ZM85.6002 26.412H87.8682V27.9H81.3042V26.412H83.8722V10.428H81.3042V8.94002H85.6002V26.412ZM92.9682 26.412V19.692C92.9682 18.652 92.7322 17.836 92.2602 17.244C91.7962 16.652 91.0642 16.356 90.0642 16.356C89.2242 16.356 88.4682 16.572 87.7962 17.004C87.1242 17.428 86.5882 18.048 86.1882 18.864C85.7962 19.672 85.6002 20.648 85.6002 21.792L85.1922 19.236H85.6722C85.8322 18.3 86.1322 17.508 86.5722 16.86C87.0202 16.204 87.5882 15.704 88.2762 15.36C88.9642 15.016 89.7522 14.844 90.6402 14.844C92.0322 14.844 93.0562 15.244 93.7122 16.044C94.3682 16.844 94.6962 17.968 94.6962 19.416V26.412H97.1442V27.9H90.7122V26.412H92.9682ZM108.754 27.9C108.426 27.9 108.174 27.796 107.998 27.588C107.83 27.38 107.746 27.088 107.746 26.712V22.872L107.902 22.476L107.818 21.024L107.746 20.268V19.296C107.746 18.64 107.61 18.104 107.338 17.688C107.074 17.272 106.69 16.964 106.186 16.764C105.682 16.564 105.074 16.464 104.362 16.464C103.298 16.464 102.474 16.676 101.89 17.1C101.314 17.516 100.93 18.144 100.738 18.984L99.0822 18.636C99.2422 17.796 99.5422 17.1 99.9822 16.548C100.422 15.988 101.006 15.572 101.734 15.3C102.47 15.02 103.366 14.88 104.422 14.88C105.526 14.88 106.45 15.036 107.194 15.348C107.946 15.652 108.514 16.12 108.898 16.752C109.282 17.384 109.474 18.2 109.474 19.2V26.412H111.358V27.9H108.754ZM102.73 28.068C101.402 28.068 100.394 27.776 99.7062 27.192C99.0182 26.6 98.6742 25.732 98.6742 24.588C98.6742 23.532 98.9782 22.728 99.5862 22.176C100.194 21.616 101.17 21.196 102.514 20.916L108.262 19.692V20.928L102.802 22.164C102.018 22.348 101.43 22.62 101.038 22.98C100.654 23.332 100.462 23.832 100.462 24.48C100.462 25.184 100.678 25.712 101.11 26.064C101.542 26.408 102.174 26.58 103.006 26.58C103.926 26.58 104.75 26.368 105.478 25.944C106.206 25.52 106.778 24.896 107.194 24.072C107.61 23.248 107.818 22.232 107.818 21.024L108.274 23.856H107.662C107.462 25.192 106.942 26.228 106.102 26.964C105.27 27.7 104.146 28.068 102.73 28.068ZM117.323 26.412H119.783V27.9H113.003V26.412H115.595V16.608H113.003V15.12H117.323V26.412ZM115.271 9.73202H117.479V12.024H115.271V9.73202ZM125.489 26.412H127.985V27.9H121.133V26.412H123.761V16.608H121.133V15.12H125.489V26.412ZM130.397 16.956C130.253 16.916 130.097 16.884 129.929 16.86C129.769 16.836 129.593 16.824 129.401 16.824C128.217 16.824 127.269 17.268 126.557 18.156C125.845 19.036 125.489 20.26 125.489 21.828L125.081 19.032H125.573C125.685 18.184 125.917 17.456 126.269 16.848C126.621 16.232 127.077 15.76 127.637 15.432C128.205 15.096 128.869 14.928 129.629 14.928C129.773 14.928 129.901 14.936 130.013 14.952C130.133 14.96 130.261 14.976 130.397 15V16.956Z" fill="black"/>
<path d="M1 6.25214L6 0.900024V38.9L1 33.5479V6.25214Z" fill="white"/>
<path d="M6 0.900024L1 6.25214V33.5479L6 38.9" stroke="black" stroke-linecap="round"/>
<path d="M141 33.5479L136 38.9L136 0.900024L141 6.25214L141 33.5479Z" fill="white"/>
<path d="M136 38.9L141 33.5479L141 6.25214L136 0.900024" stroke="black" stroke-linecap="round"/>
</svg>
