<svg width="287" height="40" viewBox="0 0 287 40" fill="none" xmlns="http://www.w3.org/2000/svg">
<path d="M6 0.900024H281V38.9H6V0.900024Z" fill="white"/>
<path d="M6 1.40002H281V0.400024H6V1.40002ZM281 38.4H6V39.4H281V38.4Z" fill="black"/>
<path d="M18.7967 28.128C17.9407 28.128 17.2167 28 16.6247 27.744C16.0407 27.488 15.5767 27.148 15.2327 26.724C14.8887 26.292 14.6647 25.812 14.5607 25.284H14.1287L14.4767 23.868C14.6287 24.708 15.0447 25.392 15.7247 25.92C16.4127 26.448 17.3047 26.712 18.4007 26.712C19.3367 26.712 20.0607 26.524 20.5727 26.148C21.0927 25.764 21.3527 25.208 21.3527 24.48C21.3527 23.816 21.0967 23.3 20.5847 22.932C20.0727 22.564 19.1767 22.284 17.8967 22.092C16.0647 21.804 14.7607 21.352 13.9847 20.736C13.2087 20.112 12.8207 19.292 12.8207 18.276C12.8207 17.252 13.1767 16.432 13.8887 15.816C14.6007 15.2 15.5927 14.892 16.8647 14.892C17.7047 14.892 18.3967 15.02 18.9407 15.276C19.4927 15.532 19.9167 15.876 20.2127 16.308C20.5087 16.732 20.7007 17.2 20.7887 17.712H21.2207L20.8727 19.068C20.7287 18.252 20.3367 17.588 19.6967 17.076C19.0567 16.556 18.2207 16.296 17.1887 16.296C16.3567 16.296 15.7047 16.472 15.2327 16.824C14.7687 17.176 14.5367 17.644 14.5367 18.228C14.5367 18.844 14.8287 19.328 15.4127 19.68C15.9967 20.024 16.9167 20.296 18.1727 20.496C19.9487 20.776 21.2087 21.236 21.9527 21.876C22.6967 22.516 23.0687 23.38 23.0687 24.468C23.0687 25.612 22.7007 26.508 21.9647 27.156C21.2367 27.804 20.1807 28.128 18.7967 28.128ZM12.7487 27.9V23.868H14.4767V27.9H12.7487ZM20.8727 19.068V15.12H22.6007V19.068H20.8727ZM42.7697 27.9V26.412H45.0257V19.704C45.0257 18.656 44.7937 17.836 44.3297 17.244C43.8657 16.652 43.1417 16.356 42.1577 16.356C41.3657 16.356 40.6617 16.564 40.0457 16.98C39.4297 17.396 38.9457 17.992 38.5937 18.768C38.2417 19.544 38.0657 20.476 38.0657 21.564L37.6457 18.996H38.1377C38.3377 17.604 38.8537 16.564 39.6857 15.876C40.5257 15.188 41.5457 14.844 42.7457 14.844C44.0977 14.844 45.1017 15.244 45.7577 16.044C46.4217 16.844 46.7537 17.972 46.7537 19.428V26.412H49.2017V27.9H42.7697ZM25.0817 27.9V26.412H27.6377V16.608H25.0817V15.12H29.3657V26.412H31.6337V27.9H25.0817ZM34.0817 27.9V26.412H36.3377V19.704C36.3377 18.656 36.1057 17.836 35.6417 17.244C35.1777 16.652 34.4537 16.356 33.4697 16.356C32.6777 16.356 31.9737 16.564 31.3577 16.98C30.7417 17.396 30.2537 17.992 29.8937 18.768C29.5417 19.544 29.3657 20.476 29.3657 21.564L28.9577 18.996H29.4497C29.6417 17.604 30.1577 16.564 30.9977 15.876C31.8377 15.188 32.8577 14.844 34.0577 14.844C35.4097 14.844 36.4137 15.244 37.0697 16.044C37.7337 16.844 38.0657 17.972 38.0657 19.428V26.412H40.5137V27.9H34.0817ZM60.8098 27.9C60.4818 27.9 60.2298 27.796 60.0538 27.588C59.8858 27.38 59.8018 27.088 59.8018 26.712V22.872L59.9578 22.476L59.8738 21.024L59.8018 20.268V19.296C59.8018 18.64 59.6658 18.104 59.3938 17.688C59.1298 17.272 58.7458 16.964 58.2418 16.764C57.7378 16.564 57.1298 16.464 56.4178 16.464C55.3538 16.464 54.5298 16.676 53.9458 17.1C53.3698 17.516 52.9858 18.144 52.7938 18.984L51.1378 18.636C51.2978 17.796 51.5978 17.1 52.0378 16.548C52.4778 15.988 53.0618 15.572 53.7898 15.3C54.5258 15.02 55.4218 14.88 56.4778 14.88C57.5818 14.88 58.5058 15.036 59.2498 15.348C60.0018 15.652 60.5698 16.12 60.9538 16.752C61.3378 17.384 61.5298 18.2 61.5298 19.2V26.412H63.4138V27.9H60.8098ZM54.7858 28.068C53.4578 28.068 52.4498 27.776 51.7618 27.192C51.0738 26.6 50.7298 25.732 50.7298 24.588C50.7298 23.532 51.0338 22.728 51.6418 22.176C52.2498 21.616 53.2258 21.196 54.5698 20.916L60.3178 19.692V20.928L54.8578 22.164C54.0738 22.348 53.4858 22.62 53.0938 22.98C52.7098 23.332 52.5178 23.832 52.5178 24.48C52.5178 25.184 52.7338 25.712 53.1658 26.064C53.5978 26.408 54.2298 26.58 55.0618 26.58C55.9818 26.58 56.8058 26.368 57.5338 25.944C58.2618 25.52 58.8338 24.896 59.2498 24.072C59.6658 23.248 59.8738 22.232 59.8738 21.024L60.3298 23.856H59.7178C59.5178 25.192 58.9978 26.228 58.1578 26.964C57.3258 27.7 56.2018 28.068 54.7858 28.068ZM68.9589 26.412H71.5869V27.9H64.6029V26.412H67.2309V10.428H64.6029V8.94002H68.9589V26.412ZM77.0102 26.412H79.6382V27.9H72.6542V26.412H75.2822V10.428H72.6542V8.94002H77.0102V26.412ZM94.1745 28.128C93.3185 28.128 92.5945 28 92.0025 27.744C91.4185 27.488 90.9545 27.148 90.6105 26.724C90.2665 26.292 90.0425 25.812 89.9385 25.284H89.5065L89.8545 23.868C90.0065 24.708 90.4225 25.392 91.1025 25.92C91.7905 26.448 92.6825 26.712 93.7785 26.712C94.7145 26.712 95.4385 26.524 95.9505 26.148C96.4705 25.764 96.7305 25.208 96.7305 24.48C96.7305 23.816 96.4745 23.3 95.9625 22.932C95.4505 22.564 94.5545 22.284 93.2745 22.092C91.4425 21.804 90.1385 21.352 89.3625 20.736C88.5865 20.112 88.1985 19.292 88.1985 18.276C88.1985 17.252 88.5545 16.432 89.2665 15.816C89.9785 15.2 90.9705 14.892 92.2425 14.892C93.0825 14.892 93.7745 15.02 94.3185 15.276C94.8705 15.532 95.2945 15.876 95.5905 16.308C95.8865 16.732 96.0785 17.2 96.1665 17.712H96.5985L96.2505 19.068C96.1065 18.252 95.7145 17.588 95.0745 17.076C94.4345 16.556 93.5985 16.296 92.5665 16.296C91.7345 16.296 91.0825 16.472 90.6105 16.824C90.1465 17.176 89.9145 17.644 89.9145 18.228C89.9145 18.844 90.2065 19.328 90.7905 19.68C91.3745 20.024 92.2945 20.296 93.5505 20.496C95.3265 20.776 96.5865 21.236 97.3305 21.876C98.0745 22.516 98.4465 23.38 98.4465 24.468C98.4465 25.612 98.0785 26.508 97.3425 27.156C96.6145 27.804 95.5585 28.128 94.1745 28.128ZM88.1265 27.9V23.868H89.8545V27.9H88.1265ZM96.2505 19.068V15.12H97.9785V19.068H96.2505ZM104.935 26.412H107.395V27.9H100.615V26.412H103.207V16.608H100.615V15.12H104.935V26.412ZM102.883 9.73202H105.091V12.024H102.883V9.73202ZM113.035 26.412H115.663V27.9H108.679V26.412H111.307V10.428H108.679V8.94002H113.035V26.412ZM124.293 15.12H129.957V16.608H128.517L123.813 27.9H121.941L117.081 16.608H115.653V15.12H121.449V16.608H118.953L123.669 27.9L122.049 26.088H123.693L122.289 27.9L126.789 16.608H124.293V15.12ZM137.039 28.128C135.719 28.128 134.575 27.848 133.607 27.288C132.639 26.728 131.891 25.956 131.363 24.972C130.835 23.98 130.571 22.84 130.571 21.552C130.571 20.248 130.835 19.096 131.363 18.096C131.899 17.096 132.643 16.312 133.595 15.744C134.555 15.176 135.671 14.892 136.943 14.892C138.223 14.892 139.331 15.172 140.267 15.732C141.203 16.292 141.923 17.068 142.427 18.06C142.931 19.052 143.183 20.196 143.183 21.492C143.183 21.644 143.179 21.764 143.171 21.852C143.171 21.94 143.163 22.016 143.147 22.08H141.443C141.451 21.984 141.455 21.88 141.455 21.768C141.463 21.648 141.467 21.512 141.467 21.36C141.467 20.408 141.283 19.564 140.915 18.828C140.555 18.084 140.039 17.5 139.367 17.076C138.695 16.652 137.887 16.44 136.943 16.44C136.023 16.44 135.215 16.66 134.519 17.1C133.823 17.532 133.283 18.132 132.899 18.9C132.515 19.66 132.323 20.544 132.323 21.552C132.323 22.528 132.511 23.392 132.887 24.144C133.271 24.888 133.815 25.472 134.519 25.896C135.223 26.32 136.059 26.532 137.027 26.532C138.035 26.532 138.907 26.296 139.643 25.824C140.387 25.344 140.939 24.692 141.299 23.868L142.931 24.48C142.459 25.608 141.703 26.5 140.663 27.156C139.631 27.804 138.423 28.128 137.039 28.128ZM131.663 22.08V20.748H142.631L143.135 22.08H131.663ZM149.442 26.412H151.938V27.9H145.086V26.412H147.714V16.608H145.086V15.12H149.442V26.412ZM154.35 16.956C154.206 16.916 154.05 16.884 153.882 16.86C153.722 16.836 153.546 16.824 153.354 16.824C152.17 16.824 151.222 17.268 150.51 18.156C149.798 19.036 149.442 20.26 149.442 21.828L149.034 19.032H149.526C149.638 18.184 149.87 17.456 150.222 16.848C150.574 16.232 151.03 15.76 151.59 15.432C152.158 15.096 152.822 14.928 153.582 14.928C153.726 14.928 153.854 14.936 153.966 14.952C154.086 14.96 154.214 14.976 154.35 15V16.956ZM166.225 26.412H168.505V27.9H161.869V26.412H164.497V16.608H161.869V15.12H166.225V26.412ZM173.593 26.412V19.728C173.593 18.68 173.357 17.856 172.885 17.256C172.413 16.656 171.669 16.356 170.653 16.356C169.829 16.356 169.081 16.56 168.409 16.968C167.737 17.376 167.205 17.968 166.813 18.744C166.421 19.52 166.225 20.46 166.225 21.564L165.829 19.008H166.309C166.461 18.136 166.753 17.396 167.185 16.788C167.617 16.172 168.169 15.704 168.841 15.384C169.521 15.056 170.301 14.892 171.181 14.892C172.573 14.892 173.609 15.296 174.289 16.104C174.977 16.904 175.321 18.036 175.321 19.5V26.412H177.781V27.9H171.349V26.412H173.593ZM185.603 28.128C184.283 28.128 183.139 27.848 182.171 27.288C181.203 26.728 180.455 25.956 179.927 24.972C179.399 23.98 179.135 22.84 179.135 21.552C179.135 20.248 179.399 19.096 179.927 18.096C180.463 17.096 181.207 16.312 182.159 15.744C183.119 15.176 184.235 14.892 185.507 14.892C186.787 14.892 187.895 15.172 188.831 15.732C189.767 16.292 190.487 17.068 190.991 18.06C191.495 19.052 191.747 20.196 191.747 21.492C191.747 21.644 191.743 21.764 191.735 21.852C191.735 21.94 191.727 22.016 191.711 22.08H190.007C190.015 21.984 190.019 21.88 190.019 21.768C190.027 21.648 190.031 21.512 190.031 21.36C190.031 20.408 189.847 19.564 189.479 18.828C189.119 18.084 188.603 17.5 187.931 17.076C187.259 16.652 186.451 16.44 185.507 16.44C184.587 16.44 183.779 16.66 183.083 17.1C182.387 17.532 181.847 18.132 181.463 18.9C181.079 19.66 180.887 20.544 180.887 21.552C180.887 22.528 181.075 23.392 181.451 24.144C181.835 24.888 182.379 25.472 183.083 25.896C183.787 26.32 184.623 26.532 185.591 26.532C186.599 26.532 187.471 26.296 188.207 25.824C188.951 25.344 189.503 24.692 189.863 23.868L191.495 24.48C191.023 25.608 190.267 26.5 189.227 27.156C188.195 27.804 186.987 28.128 185.603 28.128ZM180.227 22.08V20.748H191.195L191.699 22.08H180.227ZM200.407 28.128C199.079 28.128 197.923 27.848 196.939 27.288C195.963 26.728 195.203 25.956 194.659 24.972C194.123 23.98 193.855 22.84 193.855 21.552C193.855 20.576 194.003 19.684 194.299 18.876C194.595 18.06 195.019 17.356 195.571 16.764C196.123 16.164 196.779 15.704 197.539 15.384C198.299 15.056 199.147 14.892 200.083 14.892C200.987 14.892 201.739 15.04 202.339 15.336C202.947 15.624 203.419 16.024 203.755 16.536C204.091 17.04 204.307 17.62 204.403 18.276H204.823L204.475 20.088C204.371 19.368 204.135 18.736 203.767 18.192C203.399 17.64 202.919 17.212 202.327 16.908C201.735 16.596 201.051 16.44 200.275 16.44C199.347 16.44 198.531 16.66 197.827 17.1C197.131 17.532 196.587 18.132 196.195 18.9C195.811 19.66 195.619 20.544 195.619 21.552C195.619 22.528 195.815 23.392 196.207 24.144C196.607 24.888 197.163 25.472 197.875 25.896C198.595 26.32 199.443 26.532 200.419 26.532C201.427 26.532 202.295 26.312 203.023 25.872C203.751 25.424 204.283 24.824 204.619 24.072L206.215 24.78C205.759 25.812 205.027 26.628 204.019 27.228C203.019 27.828 201.815 28.128 200.407 28.128ZM204.475 20.088V15.12H206.203V20.088H204.475ZM212.167 26.412H214.435V27.9H207.871V26.412H210.439V10.428H207.871V8.94002H212.167V26.412ZM216.631 19.8L221.707 26.412H223.375V27.9H216.799V26.412H219.571L215.407 20.844L216.631 19.8ZM211.651 24.456L211.291 23.076L219.127 16.608H215.227V15.12H223.171V16.608H221.371L211.651 24.456ZM228.786 26.412H231.414V27.9H224.43V26.412H227.058V10.428H224.43V8.94002H228.786V26.412ZM243.161 27.9C242.833 27.9 242.581 27.796 242.405 27.588C242.237 27.38 242.153 27.088 242.153 26.712V22.872L242.309 22.476L242.225 21.024L242.153 20.268V19.296C242.153 18.64 242.017 18.104 241.745 17.688C241.481 17.272 241.097 16.964 240.593 16.764C240.089 16.564 239.481 16.464 238.769 16.464C237.705 16.464 236.881 16.676 236.297 17.1C235.721 17.516 235.337 18.144 235.145 18.984L233.489 18.636C233.649 17.796 233.949 17.1 234.389 16.548C234.829 15.988 235.413 15.572 236.141 15.3C236.877 15.02 237.773 14.88 238.829 14.88C239.933 14.88 240.857 15.036 241.601 15.348C242.353 15.652 242.921 16.12 243.305 16.752C243.689 17.384 243.881 18.2 243.881 19.2V26.412H245.765V27.9H243.161ZM237.137 28.068C235.809 28.068 234.801 27.776 234.113 27.192C233.425 26.6 233.081 25.732 233.081 24.588C233.081 23.532 233.385 22.728 233.993 22.176C234.601 21.616 235.577 21.196 236.921 20.916L242.669 19.692V20.928L237.209 22.164C236.425 22.348 235.837 22.62 235.445 22.98C235.061 23.332 234.869 23.832 234.869 24.48C234.869 25.184 235.085 25.712 235.517 26.064C235.949 26.408 236.581 26.58 237.413 26.58C238.333 26.58 239.157 26.368 239.885 25.944C240.613 25.52 241.185 24.896 241.601 24.072C242.017 23.248 242.225 22.232 242.225 21.024L242.681 23.856H242.069C241.869 25.192 241.349 26.228 240.509 26.964C239.677 27.7 238.553 28.068 237.137 28.068ZM253.94 28.128C252.612 28.128 251.456 27.848 250.472 27.288C249.496 26.728 248.736 25.956 248.192 24.972C247.656 23.98 247.388 22.84 247.388 21.552C247.388 20.576 247.536 19.684 247.832 18.876C248.128 18.06 248.552 17.356 249.104 16.764C249.656 16.164 250.312 15.704 251.072 15.384C251.832 15.056 252.68 14.892 253.616 14.892C254.52 14.892 255.272 15.04 255.872 15.336C256.48 15.624 256.952 16.024 257.288 16.536C257.624 17.04 257.84 17.62 257.936 18.276H258.356L258.008 20.088C257.904 19.368 257.668 18.736 257.3 18.192C256.932 17.64 256.452 17.212 255.86 16.908C255.268 16.596 254.584 16.44 253.808 16.44C252.88 16.44 252.064 16.66 251.36 17.1C250.664 17.532 250.12 18.132 249.728 18.9C249.344 19.66 249.152 20.544 249.152 21.552C249.152 22.528 249.348 23.392 249.74 24.144C250.14 24.888 250.696 25.472 251.408 25.896C252.128 26.32 252.976 26.532 253.952 26.532C254.96 26.532 255.828 26.312 256.556 25.872C257.284 25.424 257.816 24.824 258.152 24.072L259.748 24.78C259.292 25.812 258.56 26.628 257.552 27.228C256.552 27.828 255.348 28.128 253.94 28.128ZM258.008 20.088V15.12H259.736V20.088H258.008ZM268.364 28.128C267.044 28.128 265.9 27.848 264.932 27.288C263.964 26.728 263.216 25.956 262.688 24.972C262.16 23.98 261.896 22.84 261.896 21.552C261.896 20.248 262.16 19.096 262.688 18.096C263.224 17.096 263.968 16.312 264.92 15.744C265.88 15.176 266.996 14.892 268.268 14.892C269.548 14.892 270.656 15.172 271.592 15.732C272.528 16.292 273.248 17.068 273.752 18.06C274.256 19.052 274.508 20.196 274.508 21.492C274.508 21.644 274.504 21.764 274.496 21.852C274.496 21.94 274.488 22.016 274.472 22.08H272.768C272.776 21.984 272.78 21.88 272.78 21.768C272.788 21.648 272.792 21.512 272.792 21.36C272.792 20.408 272.608 19.564 272.24 18.828C271.88 18.084 271.364 17.5 270.692 17.076C270.02 16.652 269.212 16.44 268.268 16.44C267.348 16.44 266.54 16.66 265.844 17.1C265.148 17.532 264.608 18.132 264.224 18.9C263.84 19.66 263.648 20.544 263.648 21.552C263.648 22.528 263.836 23.392 264.212 24.144C264.596 24.888 265.14 25.472 265.844 25.896C266.548 26.32 267.384 26.532 268.352 26.532C269.36 26.532 270.232 26.296 270.968 25.824C271.712 25.344 272.264 24.692 272.624 23.868L274.256 24.48C273.784 25.608 273.028 26.5 271.988 27.156C270.956 27.804 269.748 28.128 268.364 28.128ZM262.988 22.08V20.748H273.956L274.46 22.08H262.988Z" fill="black"/>
<path d="M1 6.25214L6 0.900024V38.9L1 33.5479V6.25214Z" fill="white"/>
<path d="M6 0.900024L1 6.25214V33.5479L6 38.9" stroke="black" stroke-linecap="round"/>
<path d="M286 33.5479L281 38.9L281 0.900024L286 6.25214L286 33.5479Z" fill="white"/>
<path d="M281 38.9L286 33.5479L286 6.25214L281 0.900024" stroke="black" stroke-linecap="round"/>
</svg>
