<svg width="127" height="40" viewBox="0 0 127 40" fill="none" xmlns="http://www.w3.org/2000/svg">
<path d="M6 1H121V39H6V1Z" fill="white"/>
<path d="M6 1.5H121V0.5H6V1.5ZM121 38.5H6V39.5H121V38.5Z" fill="black"/>
<path d="M16.235 26.512H18.503V28H11.939V26.512H14.507V10.528H11.939V9.04H16.235V26.512ZM23.603 26.512V19.792C23.603 18.752 23.367 17.936 22.895 17.344C22.431 16.752 21.699 16.456 20.699 16.456C19.859 16.456 19.103 16.672 18.431 17.104C17.759 17.528 17.223 18.148 16.823 18.964C16.431 19.772 16.235 20.748 16.235 21.892L15.827 19.336H16.307C16.467 18.4 16.767 17.608 17.207 16.96C17.655 16.304 18.223 15.804 18.911 15.46C19.599 15.116 20.387 14.944 21.275 14.944C22.667 14.944 23.691 15.344 24.347 16.144C25.003 16.944 25.331 18.068 25.331 19.516V26.512H27.779V28H21.347V26.512H23.603ZM39.4284 16.708H36.9564V15.22H41.1564V26.512H43.6524V28H39.4284V16.708ZM32.2884 15.22V23.368C32.2884 24.416 32.5204 25.244 32.9844 25.852C33.4564 26.452 34.1964 26.752 35.2044 26.752C36.0124 26.752 36.7324 26.548 37.3644 26.14C38.0044 25.724 38.5084 25.128 38.8764 24.352C39.2444 23.576 39.4284 22.644 39.4284 21.556L39.8484 24.112H39.3444C39.1284 25.488 38.5924 26.528 37.7364 27.232C36.8884 27.928 35.8444 28.276 34.6044 28.276C33.2284 28.276 32.2084 27.868 31.5444 27.052C30.8884 26.236 30.5604 25.104 30.5604 23.656V16.708H28.2444V15.22H32.2884ZM62.6936 28V26.512H64.9496V19.804C64.9496 18.756 64.7176 17.936 64.2536 17.344C63.7896 16.752 63.0656 16.456 62.0816 16.456C61.2896 16.456 60.5856 16.664 59.9696 17.08C59.3536 17.496 58.8696 18.092 58.5176 18.868C58.1656 19.644 57.9896 20.576 57.9896 21.664L57.5696 19.096H58.0616C58.2616 17.704 58.7776 16.664 59.6096 15.976C60.4496 15.288 61.4696 14.944 62.6696 14.944C64.0216 14.944 65.0256 15.344 65.6816 16.144C66.3456 16.944 66.6776 18.072 66.6776 19.528V26.512H69.1256V28H62.6936ZM45.0056 28V26.512H47.5616V16.708H45.0056V15.22H49.2896V26.512H51.5576V28H45.0056ZM54.0056 28V26.512H56.2616V19.804C56.2616 18.756 56.0296 17.936 55.5656 17.344C55.1016 16.752 54.3776 16.456 53.3936 16.456C52.6016 16.456 51.8976 16.664 51.2816 17.08C50.6656 17.496 50.1776 18.092 49.8176 18.868C49.4656 19.644 49.2896 20.576 49.2896 21.664L48.8816 19.096H49.3736C49.5656 17.704 50.0816 16.664 50.9216 15.976C51.7616 15.288 52.7816 14.944 53.9816 14.944C55.3336 14.944 56.3376 15.344 56.9936 16.144C57.6576 16.944 57.9896 18.072 57.9896 19.528V26.512H60.4376V28H54.0056ZM80.7337 28C80.4057 28 80.1537 27.896 79.9777 27.688C79.8097 27.48 79.7257 27.188 79.7257 26.812V22.972L79.8817 22.576L79.7977 21.124L79.7257 20.368V19.396C79.7257 18.74 79.5897 18.204 79.3177 17.788C79.0537 17.372 78.6697 17.064 78.1657 16.864C77.6617 16.664 77.0537 16.564 76.3417 16.564C75.2777 16.564 74.4537 16.776 73.8697 17.2C73.2937 17.616 72.9097 18.244 72.7177 19.084L71.0617 18.736C71.2217 17.896 71.5217 17.2 71.9617 16.648C72.4017 16.088 72.9857 15.672 73.7137 15.4C74.4497 15.12 75.3457 14.98 76.4017 14.98C77.5057 14.98 78.4297 15.136 79.1737 15.448C79.9257 15.752 80.4937 16.22 80.8777 16.852C81.2617 17.484 81.4537 18.3 81.4537 19.3V26.512H83.3377V28H80.7337ZM74.7097 28.168C73.3817 28.168 72.3737 27.876 71.6857 27.292C70.9977 26.7 70.6537 25.832 70.6537 24.688C70.6537 23.632 70.9577 22.828 71.5657 22.276C72.1737 21.716 73.1497 21.296 74.4937 21.016L80.2417 19.792V21.028L74.7817 22.264C73.9977 22.448 73.4097 22.72 73.0177 23.08C72.6337 23.432 72.4417 23.932 72.4417 24.58C72.4417 25.284 72.6577 25.812 73.0897 26.164C73.5217 26.508 74.1537 26.68 74.9857 26.68C75.9057 26.68 76.7297 26.468 77.4577 26.044C78.1857 25.62 78.7577 24.996 79.1737 24.172C79.5897 23.348 79.7977 22.332 79.7977 21.124L80.2537 23.956H79.6417C79.4417 25.292 78.9217 26.328 78.0817 27.064C77.2497 27.8 76.1257 28.168 74.7097 28.168ZM89.1828 26.512H91.4628V28H84.8268V26.512H87.4548V16.708H84.8268V15.22H89.1828V26.512ZM96.5508 26.512V19.828C96.5508 18.78 96.3148 17.956 95.8428 17.356C95.3708 16.756 94.6268 16.456 93.6108 16.456C92.7868 16.456 92.0388 16.66 91.3668 17.068C90.6948 17.476 90.1628 18.068 89.7708 18.844C89.3788 19.62 89.1828 20.56 89.1828 21.664L88.7868 19.108H89.2668C89.4188 18.236 89.7108 17.496 90.1428 16.888C90.5748 16.272 91.1268 15.804 91.7988 15.484C92.4788 15.156 93.2588 14.992 94.1388 14.992C95.5308 14.992 96.5668 15.396 97.2468 16.204C97.9348 17.004 98.2788 18.136 98.2788 19.6V26.512H100.739V28H94.3068V26.512H96.5508ZM108.562 28.228C107.242 28.228 106.098 27.948 105.13 27.388C104.162 26.828 103.414 26.056 102.886 25.072C102.358 24.08 102.094 22.94 102.094 21.652C102.094 20.348 102.358 19.196 102.886 18.196C103.422 17.196 104.166 16.412 105.118 15.844C106.078 15.276 107.194 14.992 108.466 14.992C109.746 14.992 110.854 15.272 111.79 15.832C112.726 16.392 113.446 17.168 113.95 18.16C114.454 19.152 114.706 20.296 114.706 21.592C114.706 21.744 114.702 21.864 114.694 21.952C114.694 22.04 114.686 22.116 114.67 22.18H112.966C112.974 22.084 112.978 21.98 112.978 21.868C112.986 21.748 112.99 21.612 112.99 21.46C112.99 20.508 112.806 19.664 112.438 18.928C112.078 18.184 111.562 17.6 110.89 17.176C110.218 16.752 109.41 16.54 108.466 16.54C107.546 16.54 106.738 16.76 106.042 17.2C105.346 17.632 104.806 18.232 104.422 19C104.038 19.76 103.846 20.644 103.846 21.652C103.846 22.628 104.034 23.492 104.41 24.244C104.794 24.988 105.338 25.572 106.042 25.996C106.746 26.42 107.582 26.632 108.55 26.632C109.558 26.632 110.43 26.396 111.166 25.924C111.91 25.444 112.462 24.792 112.822 23.968L114.454 24.58C113.982 25.708 113.226 26.6 112.186 27.256C111.154 27.904 109.946 28.228 108.562 28.228ZM103.186 22.18V20.848H114.154L114.658 22.18H103.186Z" fill="black"/>
<path d="M1 6.35211L6 1V39L1 33.6479V6.35211Z" fill="white"/>
<path d="M6 1L1 6.35211V33.6479L6 39" stroke="black" stroke-linecap="round"/>
<path d="M126 33.6479L121 39L121 1L126 6.35211L126 33.6479Z" fill="white"/>
<path d="M121 39L126 33.6479L126 6.35211L121 1" stroke="black" stroke-linecap="round"/>
</svg>
