<svg width="365" height="40" viewBox="0 0 365 40" fill="none" xmlns="http://www.w3.org/2000/svg">
<path d="M6 1H359V39H6V1Z" fill="white"/>
<path d="M6 1.5H359V0.5H6V1.5ZM359 38.5H6V39.5H359V38.5Z" fill="black"/>
<path d="M12.1773 33.04V31.552H14.7333V16.708H12.1773V15.22H16.4613V19.792L16.4133 21.16V21.916L16.4613 22.996V31.552H18.9693V33.04H12.1773ZM21.2853 28.24C20.2293 28.24 19.2813 28.008 18.4413 27.544C17.6093 27.08 16.9213 26.42 16.3773 25.564C15.8333 24.7 15.4733 23.668 15.2973 22.468L16.4133 21.64C16.4133 22.624 16.6013 23.496 16.9773 24.256C17.3533 25.008 17.8933 25.6 18.5973 26.032C19.3013 26.464 20.1373 26.68 21.1053 26.68C22.0573 26.68 22.8853 26.464 23.5893 26.032C24.2933 25.6 24.8333 25.004 25.2093 24.244C25.5933 23.476 25.7853 22.6 25.7853 21.616C25.7853 20.616 25.5893 19.736 25.1973 18.976C24.8053 18.216 24.2573 17.62 23.5533 17.188C22.8493 16.748 22.0333 16.528 21.1053 16.528C20.1533 16.528 19.3253 16.748 18.6213 17.188C17.9173 17.62 17.3733 18.22 16.9893 18.988C16.6053 19.756 16.4133 20.64 16.4133 21.64L16.1373 18.916H16.5453C16.6893 18.212 16.9693 17.564 17.3853 16.972C17.8013 16.372 18.3493 15.892 19.0293 15.532C19.7173 15.164 20.5333 14.98 21.4773 14.98C22.3733 14.98 23.1933 15.144 23.9373 15.472C24.6813 15.792 25.3213 16.252 25.8573 16.852C26.4013 17.444 26.8213 18.144 27.1173 18.952C27.4213 19.76 27.5733 20.648 27.5733 21.616C27.5733 22.904 27.3133 24.048 26.7933 25.048C26.2733 26.048 25.5413 26.832 24.5973 27.4C23.6613 27.96 22.5573 28.24 21.2853 28.24ZM33.9189 26.512H36.4149V28H29.5629V26.512H32.1909V16.708H29.5629V15.22H33.9189V26.512ZM38.8269 17.056C38.6829 17.016 38.5269 16.984 38.3589 16.96C38.1989 16.936 38.0229 16.924 37.8309 16.924C36.6469 16.924 35.6989 17.368 34.9869 18.256C34.2749 19.136 33.9189 20.36 33.9189 21.928L33.5109 19.132H34.0029C34.1149 18.284 34.3469 17.556 34.6989 16.948C35.0509 16.332 35.5069 15.86 36.0669 15.532C36.6349 15.196 37.2989 15.028 38.0589 15.028C38.2029 15.028 38.3309 15.036 38.4429 15.052C38.5629 15.06 38.6909 15.076 38.8269 15.1V17.056ZM46.5395 28.228C45.2115 28.228 44.0475 27.948 43.0475 27.388C42.0475 26.82 41.2675 26.044 40.7075 25.06C40.1475 24.076 39.8675 22.94 39.8675 21.652C39.8675 20.356 40.1475 19.208 40.7075 18.208C41.2675 17.2 42.0475 16.412 43.0475 15.844C44.0475 15.276 45.2115 14.992 46.5395 14.992C47.8675 14.992 49.0315 15.276 50.0315 15.844C51.0315 16.412 51.8115 17.2 52.3715 18.208C52.9315 19.208 53.2115 20.356 53.2115 21.652C53.2115 22.94 52.9315 24.076 52.3715 25.06C51.8115 26.044 51.0315 26.82 50.0315 27.388C49.0315 27.948 47.8675 28.228 46.5395 28.228ZM46.5395 26.632C47.4995 26.632 48.3435 26.424 49.0715 26.008C49.8075 25.592 50.3795 25.012 50.7875 24.268C51.2035 23.516 51.4115 22.644 51.4115 21.652C51.4115 20.652 51.2035 19.772 50.7875 19.012C50.3795 18.252 49.8075 17.66 49.0715 17.236C48.3435 16.804 47.4995 16.588 46.5395 16.588C45.5795 16.588 44.7315 16.804 43.9955 17.236C43.2675 17.66 42.6955 18.252 42.2795 19.012C41.8715 19.772 41.6675 20.652 41.6675 21.652C41.6675 22.644 41.8715 23.516 42.2795 24.268C42.6955 25.012 43.2675 25.592 43.9955 26.008C44.7315 26.424 45.5795 26.632 46.5395 26.632ZM55.2045 28V26.512H57.7365V16.708H55.2045V15.22H57.7365V13.24C57.7365 11.848 58.0885 10.764 58.7925 9.988C59.4965 9.204 60.5605 8.812 61.9845 8.812C63.1445 8.812 64.0445 9.068 64.6845 9.58C65.3325 10.092 65.7645 10.836 65.9805 11.812L64.4205 12.292C64.2765 11.66 64.0005 11.188 63.5925 10.876C63.1925 10.556 62.6565 10.396 61.9845 10.396C61.1845 10.396 60.5645 10.628 60.1245 11.092C59.6845 11.556 59.4645 12.272 59.4645 13.24V15.22H63.7125V16.708H59.4645V26.512H62.5245V28H55.2045ZM71.5798 28.228C70.2598 28.228 69.1158 27.948 68.1478 27.388C67.1798 26.828 66.4318 26.056 65.9038 25.072C65.3758 24.08 65.1118 22.94 65.1118 21.652C65.1118 20.348 65.3758 19.196 65.9038 18.196C66.4398 17.196 67.1838 16.412 68.1358 15.844C69.0958 15.276 70.2118 14.992 71.4838 14.992C72.7638 14.992 73.8718 15.272 74.8078 15.832C75.7438 16.392 76.4638 17.168 76.9678 18.16C77.4718 19.152 77.7238 20.296 77.7238 21.592C77.7238 21.744 77.7198 21.864 77.7118 21.952C77.7118 22.04 77.7038 22.116 77.6878 22.18H75.9838C75.9918 22.084 75.9958 21.98 75.9958 21.868C76.0038 21.748 76.0078 21.612 76.0078 21.46C76.0078 20.508 75.8238 19.664 75.4558 18.928C75.0958 18.184 74.5798 17.6 73.9078 17.176C73.2358 16.752 72.4278 16.54 71.4838 16.54C70.5638 16.54 69.7558 16.76 69.0598 17.2C68.3638 17.632 67.8238 18.232 67.4398 19C67.0558 19.76 66.8638 20.644 66.8638 21.652C66.8638 22.628 67.0518 23.492 67.4278 24.244C67.8118 24.988 68.3558 25.572 69.0598 25.996C69.7638 26.42 70.5998 26.632 71.5678 26.632C72.5758 26.632 73.4478 26.396 74.1838 25.924C74.9278 25.444 75.4798 24.792 75.8398 23.968L77.4718 24.58C76.9998 25.708 76.2438 26.6 75.2038 27.256C74.1718 27.904 72.9638 28.228 71.5798 28.228ZM66.2038 22.18V20.848H77.1718L77.6758 22.18H66.2038ZM85.9873 28.228C85.1313 28.228 84.4073 28.1 83.8153 27.844C83.2313 27.588 82.7673 27.248 82.4233 26.824C82.0793 26.392 81.8553 25.912 81.7513 25.384H81.3193L81.6673 23.968C81.8193 24.808 82.2353 25.492 82.9153 26.02C83.6033 26.548 84.4953 26.812 85.5913 26.812C86.5273 26.812 87.2513 26.624 87.7633 26.248C88.2833 25.864 88.5433 25.308 88.5433 24.58C88.5433 23.916 88.2873 23.4 87.7753 23.032C87.2633 22.664 86.3673 22.384 85.0873 22.192C83.2553 21.904 81.9513 21.452 81.1753 20.836C80.3993 20.212 80.0113 19.392 80.0113 18.376C80.0113 17.352 80.3673 16.532 81.0793 15.916C81.7913 15.3 82.7833 14.992 84.0553 14.992C84.8953 14.992 85.5873 15.12 86.1313 15.376C86.6833 15.632 87.1073 15.976 87.4033 16.408C87.6993 16.832 87.8913 17.3 87.9793 17.812H88.4113L88.0633 19.168C87.9193 18.352 87.5273 17.688 86.8873 17.176C86.2473 16.656 85.4113 16.396 84.3793 16.396C83.5473 16.396 82.8953 16.572 82.4233 16.924C81.9593 17.276 81.7273 17.744 81.7273 18.328C81.7273 18.944 82.0193 19.428 82.6033 19.78C83.1873 20.124 84.1073 20.396 85.3633 20.596C87.1393 20.876 88.3993 21.336 89.1433 21.976C89.8873 22.616 90.2593 23.48 90.2593 24.568C90.2593 25.712 89.8913 26.608 89.1553 27.256C88.4273 27.904 87.3713 28.228 85.9873 28.228ZM79.9393 28V23.968H81.6673V28H79.9393ZM88.0633 19.168V15.22H89.7913V19.168H88.0633ZM98.6323 28.228C97.7763 28.228 97.0523 28.1 96.4603 27.844C95.8763 27.588 95.4123 27.248 95.0683 26.824C94.7243 26.392 94.5003 25.912 94.3963 25.384H93.9643L94.3123 23.968C94.4643 24.808 94.8803 25.492 95.5603 26.02C96.2483 26.548 97.1403 26.812 98.2363 26.812C99.1723 26.812 99.8963 26.624 100.408 26.248C100.928 25.864 101.188 25.308 101.188 24.58C101.188 23.916 100.932 23.4 100.42 23.032C99.9083 22.664 99.0123 22.384 97.7323 22.192C95.9003 21.904 94.5963 21.452 93.8203 20.836C93.0443 20.212 92.6563 19.392 92.6563 18.376C92.6563 17.352 93.0123 16.532 93.7243 15.916C94.4363 15.3 95.4283 14.992 96.7003 14.992C97.5403 14.992 98.2323 15.12 98.7763 15.376C99.3283 15.632 99.7523 15.976 100.048 16.408C100.344 16.832 100.536 17.3 100.624 17.812H101.056L100.708 19.168C100.564 18.352 100.172 17.688 99.5323 17.176C98.8923 16.656 98.0563 16.396 97.0243 16.396C96.1923 16.396 95.5403 16.572 95.0683 16.924C94.6043 17.276 94.3723 17.744 94.3723 18.328C94.3723 18.944 94.6643 19.428 95.2483 19.78C95.8323 20.124 96.7523 20.396 98.0083 20.596C99.7843 20.876 101.044 21.336 101.788 21.976C102.532 22.616 102.904 23.48 102.904 24.568C102.904 25.712 102.536 26.608 101.8 27.256C101.072 27.904 100.016 28.228 98.6323 28.228ZM92.5843 28V23.968H94.3123V28H92.5843ZM100.708 19.168V15.22H102.436V19.168H100.708ZM109.393 26.512H111.853V28H105.073V26.512H107.665V16.708H105.073V15.22H109.393V26.512ZM107.341 9.832H109.549V12.124H107.341V9.832ZM120.019 28.228C118.691 28.228 117.527 27.948 116.527 27.388C115.527 26.82 114.747 26.044 114.187 25.06C113.627 24.076 113.347 22.94 113.347 21.652C113.347 20.356 113.627 19.208 114.187 18.208C114.747 17.2 115.527 16.412 116.527 15.844C117.527 15.276 118.691 14.992 120.019 14.992C121.347 14.992 122.511 15.276 123.511 15.844C124.511 16.412 125.291 17.2 125.851 18.208C126.411 19.208 126.691 20.356 126.691 21.652C126.691 22.94 126.411 24.076 125.851 25.06C125.291 26.044 124.511 26.82 123.511 27.388C122.511 27.948 121.347 28.228 120.019 28.228ZM120.019 26.632C120.979 26.632 121.823 26.424 122.551 26.008C123.287 25.592 123.859 25.012 124.267 24.268C124.683 23.516 124.891 22.644 124.891 21.652C124.891 20.652 124.683 19.772 124.267 19.012C123.859 18.252 123.287 17.66 122.551 17.236C121.823 16.804 120.979 16.588 120.019 16.588C119.059 16.588 118.211 16.804 117.475 17.236C116.747 17.66 116.175 18.252 115.759 19.012C115.351 19.772 115.147 20.652 115.147 21.652C115.147 22.644 115.351 23.516 115.759 24.268C116.175 25.012 116.747 25.592 117.475 26.008C118.211 26.424 119.059 26.632 120.019 26.632ZM133.04 26.512H135.32V28H128.684V26.512H131.312V16.708H128.684V15.22H133.04V26.512ZM140.408 26.512V19.828C140.408 18.78 140.172 17.956 139.7 17.356C139.228 16.756 138.484 16.456 137.468 16.456C136.644 16.456 135.896 16.66 135.224 17.068C134.552 17.476 134.02 18.068 133.628 18.844C133.236 19.62 133.04 20.56 133.04 21.664L132.644 19.108H133.124C133.276 18.236 133.568 17.496 134 16.888C134.432 16.272 134.984 15.804 135.656 15.484C136.336 15.156 137.116 14.992 137.996 14.992C139.388 14.992 140.424 15.396 141.104 16.204C141.792 17.004 142.136 18.136 142.136 19.6V26.512H144.596V28H138.164V26.512H140.408ZM156.209 28C155.881 28 155.629 27.896 155.453 27.688C155.285 27.48 155.201 27.188 155.201 26.812V22.972L155.357 22.576L155.273 21.124L155.201 20.368V19.396C155.201 18.74 155.065 18.204 154.793 17.788C154.529 17.372 154.145 17.064 153.641 16.864C153.137 16.664 152.529 16.564 151.817 16.564C150.753 16.564 149.929 16.776 149.345 17.2C148.769 17.616 148.385 18.244 148.193 19.084L146.537 18.736C146.697 17.896 146.997 17.2 147.437 16.648C147.877 16.088 148.461 15.672 149.189 15.4C149.925 15.12 150.821 14.98 151.877 14.98C152.981 14.98 153.905 15.136 154.649 15.448C155.401 15.752 155.969 16.22 156.353 16.852C156.737 17.484 156.929 18.3 156.929 19.3V26.512H158.813V28H156.209ZM150.185 28.168C148.857 28.168 147.849 27.876 147.161 27.292C146.473 26.7 146.129 25.832 146.129 24.688C146.129 23.632 146.433 22.828 147.041 22.276C147.649 21.716 148.625 21.296 149.969 21.016L155.717 19.792V21.028L150.257 22.264C149.473 22.448 148.885 22.72 148.493 23.08C148.109 23.432 147.917 23.932 147.917 24.58C147.917 25.284 148.133 25.812 148.565 26.164C148.997 26.508 149.629 26.68 150.461 26.68C151.381 26.68 152.205 26.468 152.933 26.044C153.661 25.62 154.233 24.996 154.649 24.172C155.065 23.348 155.273 22.332 155.273 21.124L155.729 23.956H155.117C154.917 25.292 154.397 26.328 153.557 27.064C152.725 27.8 151.601 28.168 150.185 28.168ZM164.358 26.512H166.986V28H160.002V26.512H162.63V10.528H160.002V9.04H164.358V26.512ZM179.638 26.512H182.098V28H175.318V26.512H177.91V16.708H175.318V15.22H179.638V26.512ZM177.586 9.832H179.794V12.124H177.586V9.832ZM187.804 26.512H190.084V28H183.448V26.512H186.076V16.708H183.448V15.22H187.804V26.512ZM195.172 26.512V19.828C195.172 18.78 194.936 17.956 194.464 17.356C193.992 16.756 193.248 16.456 192.232 16.456C191.408 16.456 190.66 16.66 189.988 17.068C189.316 17.476 188.784 18.068 188.392 18.844C188 19.62 187.804 20.56 187.804 21.664L187.408 19.108H187.888C188.04 18.236 188.332 17.496 188.764 16.888C189.196 16.272 189.748 15.804 190.42 15.484C191.1 15.156 191.88 14.992 192.76 14.992C194.152 14.992 195.188 15.396 195.868 16.204C196.556 17.004 196.9 18.136 196.9 19.6V26.512H199.36V28H192.928V26.512H195.172ZM225.09 28V26.512H227.346V19.804C227.346 18.756 227.114 17.936 226.65 17.344C226.186 16.752 225.462 16.456 224.478 16.456C223.686 16.456 222.982 16.664 222.366 17.08C221.75 17.496 221.266 18.092 220.914 18.868C220.562 19.644 220.386 20.576 220.386 21.664L219.966 19.096H220.458C220.658 17.704 221.174 16.664 222.006 15.976C222.846 15.288 223.866 14.944 225.066 14.944C226.418 14.944 227.422 15.344 228.078 16.144C228.742 16.944 229.074 18.072 229.074 19.528V26.512H231.522V28H225.09ZM207.402 28V26.512H209.958V16.708H207.402V15.22H211.686V26.512H213.954V28H207.402ZM216.402 28V26.512H218.658V19.804C218.658 18.756 218.426 17.936 217.962 17.344C217.498 16.752 216.774 16.456 215.79 16.456C214.998 16.456 214.294 16.664 213.678 17.08C213.062 17.496 212.574 18.092 212.214 18.868C211.862 19.644 211.686 20.576 211.686 21.664L211.278 19.096H211.77C211.962 17.704 212.478 16.664 213.318 15.976C214.158 15.288 215.178 14.944 216.378 14.944C217.73 14.944 218.734 15.344 219.39 16.144C220.054 16.944 220.386 18.072 220.386 19.528V26.512H222.834V28H216.402ZM243.13 28C242.802 28 242.55 27.896 242.374 27.688C242.206 27.48 242.122 27.188 242.122 26.812V22.972L242.278 22.576L242.194 21.124L242.122 20.368V19.396C242.122 18.74 241.986 18.204 241.714 17.788C241.45 17.372 241.066 17.064 240.562 16.864C240.058 16.664 239.45 16.564 238.738 16.564C237.674 16.564 236.85 16.776 236.266 17.2C235.69 17.616 235.306 18.244 235.114 19.084L233.458 18.736C233.618 17.896 233.918 17.2 234.358 16.648C234.798 16.088 235.382 15.672 236.11 15.4C236.846 15.12 237.742 14.98 238.798 14.98C239.902 14.98 240.826 15.136 241.57 15.448C242.322 15.752 242.89 16.22 243.274 16.852C243.658 17.484 243.85 18.3 243.85 19.3V26.512H245.734V28H243.13ZM237.106 28.168C235.778 28.168 234.77 27.876 234.082 27.292C233.394 26.7 233.05 25.832 233.05 24.688C233.05 23.632 233.354 22.828 233.962 22.276C234.57 21.716 235.546 21.296 236.89 21.016L242.638 19.792V21.028L237.178 22.264C236.394 22.448 235.806 22.72 235.414 23.08C235.03 23.432 234.838 23.932 234.838 24.58C234.838 25.284 235.054 25.812 235.486 26.164C235.918 26.508 236.55 26.68 237.382 26.68C238.302 26.68 239.126 26.468 239.854 26.044C240.582 25.62 241.154 24.996 241.57 24.172C241.986 23.348 242.194 22.332 242.194 21.124L242.65 23.956H242.038C241.838 25.292 241.318 26.328 240.478 27.064C239.646 27.8 238.522 28.168 237.106 28.168ZM251.579 26.512H253.859V28H247.223V26.512H249.851V16.708H247.223V15.22H251.579V26.512ZM258.947 26.512V19.828C258.947 18.78 258.711 17.956 258.239 17.356C257.767 16.756 257.023 16.456 256.007 16.456C255.183 16.456 254.435 16.66 253.763 17.068C253.091 17.476 252.559 18.068 252.167 18.844C251.775 19.62 251.579 20.56 251.579 21.664L251.183 19.108H251.663C251.815 18.236 252.107 17.496 252.539 16.888C252.971 16.272 253.523 15.804 254.195 15.484C254.875 15.156 255.655 14.992 256.535 14.992C257.927 14.992 258.963 15.396 259.643 16.204C260.331 17.004 260.675 18.136 260.675 19.6V26.512H263.135V28H256.703V26.512H258.947ZM271.311 15.22H277.263V16.708H275.667L270.387 29.704C269.955 30.776 269.287 31.6 268.383 32.176C267.487 32.752 266.371 33.04 265.035 33.04H263.775V31.516H265.035C265.931 31.516 266.711 31.328 267.375 30.952C268.047 30.584 268.535 30.04 268.839 29.32L269.751 27.076L269.451 28.564L264.567 16.708H262.803V15.22H268.875V16.708H266.451L270.759 27.472L269.187 26.08H270.843L269.943 26.896L273.939 16.708H271.311V15.22ZM284.854 28V26.512H287.386V16.708H284.854V15.22H287.386V14.248C287.386 12.552 287.838 11.224 288.742 10.264C289.646 9.296 290.95 8.812 292.654 8.812C293.83 8.812 294.786 9.064 295.522 9.568C296.258 10.072 296.742 10.868 296.974 11.956H298.222L297.058 12.904C296.754 12.04 296.262 11.408 295.582 11.008C294.902 10.6 294.034 10.396 292.978 10.396C291.738 10.396 290.782 10.68 290.11 11.248C289.446 11.816 289.114 12.772 289.114 14.116V15.22H292.846V16.708H289.114V26.512H292.006V28H284.854ZM297.058 12.904V9.04H298.762V12.904H297.058ZM298.87 26.512H301.33V28H294.538V26.512H297.142V16.708H294.538V15.22H298.87V26.512ZM309.338 28.228C308.018 28.228 306.874 27.948 305.906 27.388C304.938 26.828 304.19 26.056 303.662 25.072C303.134 24.08 302.87 22.94 302.87 21.652C302.87 20.348 303.134 19.196 303.662 18.196C304.198 17.196 304.942 16.412 305.894 15.844C306.854 15.276 307.97 14.992 309.242 14.992C310.522 14.992 311.63 15.272 312.566 15.832C313.502 16.392 314.222 17.168 314.726 18.16C315.23 19.152 315.482 20.296 315.482 21.592C315.482 21.744 315.478 21.864 315.47 21.952C315.47 22.04 315.462 22.116 315.446 22.18H313.742C313.75 22.084 313.754 21.98 313.754 21.868C313.762 21.748 313.766 21.612 313.766 21.46C313.766 20.508 313.582 19.664 313.214 18.928C312.854 18.184 312.338 17.6 311.666 17.176C310.994 16.752 310.186 16.54 309.242 16.54C308.322 16.54 307.514 16.76 306.818 17.2C306.122 17.632 305.582 18.232 305.198 19C304.814 19.76 304.622 20.644 304.622 21.652C304.622 22.628 304.81 23.492 305.186 24.244C305.57 24.988 306.114 25.572 306.818 25.996C307.522 26.42 308.358 26.632 309.326 26.632C310.334 26.632 311.206 26.396 311.942 25.924C312.686 25.444 313.238 24.792 313.598 23.968L315.23 24.58C314.758 25.708 314.002 26.6 312.962 27.256C311.93 27.904 310.722 28.228 309.338 28.228ZM303.962 22.18V20.848H314.93L315.434 22.18H303.962ZM321.114 26.512H323.742V28H316.758V26.512H319.386V10.528H316.758V9.04H321.114V26.512ZM336.107 28V23.224L336.179 22.288V20.764L336.107 19.084V10.528H332.663V9.04H337.835V26.512H340.283V28H336.107ZM331.295 14.98C332.351 14.98 333.295 15.212 334.127 15.676C334.967 16.14 335.659 16.804 336.203 17.668C336.747 18.524 337.107 19.552 337.283 20.752L336.179 21.58C336.179 20.596 335.987 19.724 335.603 18.964C335.227 18.204 334.687 17.612 333.983 17.188C333.279 16.756 332.443 16.54 331.475 16.54C330.523 16.54 329.695 16.756 328.991 17.188C328.287 17.62 327.743 18.216 327.359 18.976C326.983 19.736 326.795 20.616 326.795 21.616C326.795 22.608 326.991 23.484 327.383 24.244C327.775 25.004 328.323 25.604 329.027 26.044C329.739 26.476 330.555 26.692 331.475 26.692C332.435 26.692 333.263 26.476 333.959 26.044C334.663 25.604 335.207 25 335.591 24.232C335.983 23.464 336.179 22.58 336.179 21.58L336.443 24.304H336.035C335.891 25.008 335.611 25.66 335.195 26.26C334.779 26.852 334.231 27.332 333.551 27.7C332.871 28.06 332.055 28.24 331.103 28.24C330.215 28.24 329.399 28.08 328.655 27.76C327.911 27.432 327.267 26.972 326.723 26.38C326.179 25.78 325.755 25.076 325.451 24.268C325.155 23.46 325.007 22.576 325.007 21.616C325.007 20.32 325.267 19.172 325.787 18.172C326.307 17.172 327.035 16.392 327.971 15.832C328.915 15.264 330.023 14.98 331.295 14.98ZM348.122 28.228C347.266 28.228 346.542 28.1 345.95 27.844C345.366 27.588 344.902 27.248 344.558 26.824C344.214 26.392 343.99 25.912 343.886 25.384H343.454L343.802 23.968C343.954 24.808 344.37 25.492 345.05 26.02C345.738 26.548 346.63 26.812 347.726 26.812C348.662 26.812 349.386 26.624 349.898 26.248C350.418 25.864 350.678 25.308 350.678 24.58C350.678 23.916 350.422 23.4 349.91 23.032C349.398 22.664 348.502 22.384 347.222 22.192C345.39 21.904 344.086 21.452 343.31 20.836C342.534 20.212 342.146 19.392 342.146 18.376C342.146 17.352 342.502 16.532 343.214 15.916C343.926 15.3 344.918 14.992 346.19 14.992C347.03 14.992 347.722 15.12 348.266 15.376C348.818 15.632 349.242 15.976 349.538 16.408C349.834 16.832 350.026 17.3 350.114 17.812H350.546L350.198 19.168C350.054 18.352 349.662 17.688 349.022 17.176C348.382 16.656 347.546 16.396 346.514 16.396C345.682 16.396 345.03 16.572 344.558 16.924C344.094 17.276 343.862 17.744 343.862 18.328C343.862 18.944 344.154 19.428 344.738 19.78C345.322 20.124 346.242 20.396 347.498 20.596C349.274 20.876 350.534 21.336 351.278 21.976C352.022 22.616 352.394 23.48 352.394 24.568C352.394 25.712 352.026 26.608 351.29 27.256C350.562 27.904 349.506 28.228 348.122 28.228ZM342.074 28V23.968H343.802V28H342.074ZM350.198 19.168V15.22H351.926V19.168H350.198Z" fill="black"/>
<path d="M1 6.35211L6 1V39L1 33.6479V6.35211Z" fill="white"/>
<path d="M6 1L1 6.35211V33.6479L6 39" stroke="black" stroke-linecap="round"/>
<path d="M364 33.6479L359 39L359 1L364 6.35211L364 33.6479Z" fill="white"/>
<path d="M359 39L364 33.6479L364 6.35211L359 1" stroke="black" stroke-linecap="round"/>
</svg>
