<svg width="106" height="40" viewBox="0 0 106 40" fill="none" xmlns="http://www.w3.org/2000/svg">
<path d="M6 1H100V39H6V1Z" fill="white"/>
<path d="M6 1.5H100V0.5H6V1.5ZM100 38.5H6V39.5H100V38.5Z" fill="black"/>
<path d="M16.4061 26.512H19.0341V28H12.0501V26.512H14.6781V10.528H12.0501V9.04H16.4061V26.512ZM26.9595 28.228C25.6315 28.228 24.4675 27.948 23.4675 27.388C22.4675 26.82 21.6875 26.044 21.1275 25.06C20.5675 24.076 20.2875 22.94 20.2875 21.652C20.2875 20.356 20.5675 19.208 21.1275 18.208C21.6875 17.2 22.4675 16.412 23.4675 15.844C24.4675 15.276 25.6315 14.992 26.9595 14.992C28.2875 14.992 29.4515 15.276 30.4515 15.844C31.4515 16.412 32.2315 17.2 32.7915 18.208C33.3515 19.208 33.6315 20.356 33.6315 21.652C33.6315 22.94 33.3515 24.076 32.7915 25.06C32.2315 26.044 31.4515 26.82 30.4515 27.388C29.4515 27.948 28.2875 28.228 26.9595 28.228ZM26.9595 26.632C27.9195 26.632 28.7635 26.424 29.4915 26.008C30.2275 25.592 30.7995 25.012 31.2075 24.268C31.6235 23.516 31.8315 22.644 31.8315 21.652C31.8315 20.652 31.6235 19.772 31.2075 19.012C30.7995 18.252 30.2275 17.66 29.4915 17.236C28.7635 16.804 27.9195 16.588 26.9595 16.588C25.9995 16.588 25.1515 16.804 24.4155 17.236C23.6875 17.66 23.1155 18.252 22.6995 19.012C22.2915 19.772 22.0875 20.652 22.0875 21.652C22.0875 22.644 22.2915 23.516 22.6995 24.268C23.1155 25.012 23.6875 25.592 24.4155 26.008C25.1515 26.424 25.9995 26.632 26.9595 26.632ZM41.8525 33.304C40.7325 33.304 39.7165 33.196 38.8045 32.98C37.9005 32.772 37.1805 32.44 36.6445 31.984C36.1085 31.528 35.8405 30.924 35.8405 30.172C35.8405 29.42 36.1085 28.848 36.6445 28.456C37.1885 28.072 37.8885 27.82 38.7445 27.7V27.496L40.8805 27.7C39.9925 27.7 39.2965 27.804 38.7925 28.012C38.2885 28.228 37.9325 28.5 37.7245 28.828C37.5165 29.164 37.4125 29.508 37.4125 29.86C37.4125 30.404 37.6125 30.828 38.0125 31.132C38.4125 31.436 38.9485 31.652 39.6205 31.78C40.3005 31.908 41.0605 31.972 41.9005 31.972C43.5885 31.972 44.8205 31.744 45.5965 31.288C46.3805 30.84 46.7725 30.212 46.7725 29.404C46.7725 28.268 46.0365 27.7 44.5645 27.7H39.6685C38.7085 27.7 37.9525 27.528 37.4005 27.184C36.8565 26.832 36.5845 26.328 36.5845 25.672C36.5845 25.048 36.8325 24.572 37.3285 24.244C37.8245 23.908 38.5325 23.704 39.4525 23.632V23.272L41.6365 23.896H40.3285C39.6405 23.896 39.1165 23.992 38.7565 24.184C38.3965 24.368 38.2165 24.652 38.2165 25.036C38.2165 25.396 38.3805 25.656 38.7085 25.816C39.0445 25.968 39.5485 26.044 40.2205 26.044H44.5165C45.3405 26.044 46.0405 26.18 46.6165 26.452C47.2005 26.716 47.6405 27.096 47.9365 27.592C48.2405 28.088 48.3925 28.68 48.3925 29.368C48.3925 30.104 48.1845 30.768 47.7685 31.36C47.3525 31.96 46.6645 32.432 45.7045 32.776C44.7525 33.128 43.4685 33.304 41.8525 33.304ZM41.6365 23.896C40.6205 23.896 39.7165 23.712 38.9245 23.344C38.1325 22.976 37.5085 22.46 37.0525 21.796C36.5965 21.132 36.3685 20.352 36.3685 19.456C36.3685 18.56 36.5925 17.78 37.0405 17.116C37.4965 16.444 38.1165 15.924 38.9005 15.556C39.6925 15.18 40.6045 14.992 41.6365 14.992C42.6845 14.992 43.6085 15.188 44.4085 15.58C45.2165 15.972 45.8325 16.516 46.2565 17.212C46.4645 17.532 46.6165 17.88 46.7125 18.256C46.8165 18.624 46.8685 19.024 46.8685 19.456C46.8685 20.352 46.6445 21.132 46.1965 21.796C45.7485 22.46 45.1285 22.976 44.3365 23.344C43.5525 23.712 42.6525 23.896 41.6365 23.896ZM41.6365 22.48C42.3165 22.48 42.9205 22.356 43.4485 22.108C43.9845 21.86 44.4045 21.508 44.7085 21.052C45.0205 20.596 45.1765 20.064 45.1765 19.456C45.1765 18.848 45.0205 18.316 44.7085 17.86C44.4045 17.396 43.9845 17.04 43.4485 16.792C42.9205 16.536 42.3165 16.408 41.6365 16.408C40.9405 16.408 40.3245 16.536 39.7885 16.792C39.2525 17.04 38.8285 17.396 38.5165 17.86C38.2125 18.316 38.0605 18.848 38.0605 19.456C38.0605 20.064 38.2125 20.596 38.5165 21.052C38.8285 21.508 39.2525 21.86 39.7885 22.108C40.3325 22.356 40.9485 22.48 41.6365 22.48ZM46.8685 19.456L46.2685 18.052L45.7405 17.188L46.2205 16.996C46.1965 16.916 46.1765 16.836 46.1605 16.756C46.1525 16.668 46.1485 16.576 46.1485 16.48C46.1485 16.144 46.2285 15.84 46.3885 15.568C46.5485 15.296 46.7805 15.08 47.0845 14.92C47.3885 14.76 47.7605 14.68 48.2005 14.68C48.3125 14.68 48.4125 14.684 48.5005 14.692C48.5965 14.7 48.6885 14.716 48.7765 14.74V16.408C48.6245 16.384 48.4845 16.368 48.3565 16.36C48.2285 16.344 48.1005 16.336 47.9725 16.336C47.6365 16.336 47.3645 16.384 47.1565 16.48C46.9565 16.576 46.8125 16.7 46.7245 16.852C46.6365 16.996 46.5925 17.156 46.5925 17.332C46.5925 17.5 46.6165 17.684 46.6645 17.884C46.7125 18.076 46.7565 18.3 46.7965 18.556C46.8445 18.812 46.8685 19.112 46.8685 19.456ZM54.6439 26.512H57.1039V28H50.3239V26.512H52.9159V16.708H50.3239V15.22H54.6439V26.512ZM52.5919 9.832H54.7999V12.124H52.5919V9.832ZM65.2095 28.228C63.8815 28.228 62.7255 27.948 61.7415 27.388C60.7655 26.828 60.0055 26.056 59.4615 25.072C58.9255 24.08 58.6575 22.94 58.6575 21.652C58.6575 20.676 58.8055 19.784 59.1015 18.976C59.3975 18.16 59.8215 17.456 60.3735 16.864C60.9255 16.264 61.5815 15.804 62.3415 15.484C63.1015 15.156 63.9495 14.992 64.8855 14.992C65.7895 14.992 66.5415 15.14 67.1415 15.436C67.7495 15.724 68.2215 16.124 68.5575 16.636C68.8935 17.14 69.1095 17.72 69.2055 18.376H69.6255L69.2775 20.188C69.1735 19.468 68.9375 18.836 68.5695 18.292C68.2015 17.74 67.7215 17.312 67.1295 17.008C66.5375 16.696 65.8535 16.54 65.0775 16.54C64.1495 16.54 63.3335 16.76 62.6295 17.2C61.9335 17.632 61.3895 18.232 60.9975 19C60.6135 19.76 60.4215 20.644 60.4215 21.652C60.4215 22.628 60.6175 23.492 61.0095 24.244C61.4095 24.988 61.9655 25.572 62.6775 25.996C63.3975 26.42 64.2455 26.632 65.2215 26.632C66.2295 26.632 67.0975 26.412 67.8255 25.972C68.5535 25.524 69.0855 24.924 69.4215 24.172L71.0175 24.88C70.5615 25.912 69.8295 26.728 68.8215 27.328C67.8215 27.928 66.6175 28.228 65.2095 28.228ZM69.2775 20.188V15.22H71.0055V20.188H69.2775ZM83.3535 28C83.0255 28 82.7735 27.896 82.5975 27.688C82.4295 27.48 82.3455 27.188 82.3455 26.812V22.972L82.5015 22.576L82.4175 21.124L82.3455 20.368V19.396C82.3455 18.74 82.2095 18.204 81.9375 17.788C81.6735 17.372 81.2895 17.064 80.7855 16.864C80.2815 16.664 79.6735 16.564 78.9615 16.564C77.8975 16.564 77.0735 16.776 76.4895 17.2C75.9135 17.616 75.5295 18.244 75.3375 19.084L73.6815 18.736C73.8415 17.896 74.1415 17.2 74.5815 16.648C75.0215 16.088 75.6055 15.672 76.3335 15.4C77.0695 15.12 77.9655 14.98 79.0215 14.98C80.1255 14.98 81.0495 15.136 81.7935 15.448C82.5455 15.752 83.1135 16.22 83.4975 16.852C83.8815 17.484 84.0735 18.3 84.0735 19.3V26.512H85.9575V28H83.3535ZM77.3295 28.168C76.0015 28.168 74.9935 27.876 74.3055 27.292C73.6175 26.7 73.2735 25.832 73.2735 24.688C73.2735 23.632 73.5775 22.828 74.1855 22.276C74.7935 21.716 75.7695 21.296 77.1135 21.016L82.8615 19.792V21.028L77.4015 22.264C76.6175 22.448 76.0295 22.72 75.6375 23.08C75.2535 23.432 75.0615 23.932 75.0615 24.58C75.0615 25.284 75.2775 25.812 75.7095 26.164C76.1415 26.508 76.7735 26.68 77.6055 26.68C78.5255 26.68 79.3495 26.468 80.0775 26.044C80.8055 25.62 81.3775 24.996 81.7935 24.172C82.2095 23.348 82.4175 22.332 82.4175 21.124L82.8735 23.956H82.2615C82.0615 25.292 81.5415 26.328 80.7015 27.064C79.8695 27.8 78.7455 28.168 77.3295 28.168ZM91.5027 26.512H94.1307V28H87.1467V26.512H89.7747V10.528H87.1467V9.04H91.5027V26.512Z" fill="black"/>
<path d="M1 6.35211L6 1V39L1 33.6479V6.35211Z" fill="white"/>
<path d="M6 1L1 6.35211V33.6479L6 39" stroke="black" stroke-linecap="round"/>
<path d="M105 33.6479L100 39L100 1L105 6.35211L105 33.6479Z" fill="white"/>
<path d="M100 39L105 33.6479L105 6.35211L100 1" stroke="black" stroke-linecap="round"/>
</svg>
