<svg width="164" height="40" viewBox="0 0 164 40" fill="none" xmlns="http://www.w3.org/2000/svg">
<path d="M6 1H158V39H6V1Z" fill="white"/>
<path d="M6 1.5H158V0.5H6V1.5ZM158 38.5H6V39.5H158V38.5Z" fill="black"/>
<path d="M30.2151 28V26.512H32.4711V19.804C32.4711 18.756 32.2391 17.936 31.7751 17.344C31.3111 16.752 30.5871 16.456 29.6031 16.456C28.8111 16.456 28.1071 16.664 27.4911 17.08C26.8751 17.496 26.3911 18.092 26.0391 18.868C25.6871 19.644 25.5111 20.576 25.5111 21.664L25.0911 19.096H25.5831C25.7831 17.704 26.2991 16.664 27.1311 15.976C27.9711 15.288 28.9911 14.944 30.1911 14.944C31.5431 14.944 32.5471 15.344 33.2031 16.144C33.8671 16.944 34.1991 18.072 34.1991 19.528V26.512H36.6471V28H30.2151ZM12.5271 28V26.512H15.0831V16.708H12.5271V15.22H16.8111V26.512H19.0791V28H12.5271ZM21.5271 28V26.512H23.7831V19.804C23.7831 18.756 23.5511 17.936 23.0871 17.344C22.6231 16.752 21.8991 16.456 20.9151 16.456C20.1231 16.456 19.4191 16.664 18.8031 17.08C18.1871 17.496 17.6991 18.092 17.3391 18.868C16.9871 19.644 16.8111 20.576 16.8111 21.664L16.4031 19.096H16.8951C17.0871 17.704 17.6031 16.664 18.4431 15.976C19.2831 15.288 20.3031 14.944 21.5031 14.944C22.8551 14.944 23.8591 15.344 24.5151 16.144C25.1791 16.944 25.5111 18.072 25.5111 19.528V26.512H27.9591V28H21.5271ZM44.4649 28.228C43.1449 28.228 42.0009 27.948 41.0329 27.388C40.0649 26.828 39.3169 26.056 38.7889 25.072C38.2609 24.08 37.9969 22.94 37.9969 21.652C37.9969 20.348 38.2609 19.196 38.7889 18.196C39.3249 17.196 40.0689 16.412 41.0209 15.844C41.9809 15.276 43.0969 14.992 44.3689 14.992C45.6489 14.992 46.7569 15.272 47.6929 15.832C48.6289 16.392 49.3489 17.168 49.8529 18.16C50.3569 19.152 50.6089 20.296 50.6089 21.592C50.6089 21.744 50.6049 21.864 50.5969 21.952C50.5969 22.04 50.5889 22.116 50.5729 22.18H48.8689C48.8769 22.084 48.8809 21.98 48.8809 21.868C48.8889 21.748 48.8929 21.612 48.8929 21.46C48.8929 20.508 48.7089 19.664 48.3409 18.928C47.9809 18.184 47.4649 17.6 46.7929 17.176C46.1209 16.752 45.3129 16.54 44.3689 16.54C43.4489 16.54 42.6409 16.76 41.9449 17.2C41.2489 17.632 40.7089 18.232 40.3249 19C39.9409 19.76 39.7489 20.644 39.7489 21.652C39.7489 22.628 39.9369 23.492 40.3129 24.244C40.6969 24.988 41.2409 25.572 41.9449 25.996C42.6489 26.42 43.4849 26.632 44.4529 26.632C45.4609 26.632 46.3329 26.396 47.0689 25.924C47.8129 25.444 48.3649 24.792 48.7249 23.968L50.3569 24.58C49.8849 25.708 49.1289 26.6 48.0889 27.256C47.0569 27.904 45.8489 28.228 44.4649 28.228ZM39.0889 22.18V20.848H50.0569L50.5609 22.18H39.0889ZM55.9324 24.616C55.9324 25.288 56.0604 25.796 56.3164 26.14C56.5724 26.476 56.9644 26.644 57.4924 26.644C58.0124 26.644 58.4044 26.472 58.6684 26.128C58.9324 25.776 59.0644 25.272 59.0644 24.616V23.428H60.6244V24.604C60.6244 25.372 60.5084 26.028 60.2764 26.572C60.0524 27.108 59.7084 27.52 59.2444 27.808C58.7804 28.088 58.1844 28.228 57.4564 28.228C56.7124 28.228 56.1004 28.084 55.6204 27.796C55.1404 27.5 54.7844 27.084 54.5524 26.548C54.3204 26.012 54.2044 25.368 54.2044 24.616L54.2164 16.708H51.9364V15.22H54.2164V11.98H55.9444V15.22H60.4564L60.4444 16.708H55.9444L55.9324 24.616ZM66.7975 26.512H69.2575V28H62.4775V26.512H65.0695V16.708H62.4775V15.22H66.7975V26.512ZM64.7455 9.832H66.9535V12.124H64.7455V9.832ZM77.3631 28.228C76.0351 28.228 74.8791 27.948 73.8951 27.388C72.9191 26.828 72.1591 26.056 71.6151 25.072C71.0791 24.08 70.8111 22.94 70.8111 21.652C70.8111 20.676 70.9591 19.784 71.2551 18.976C71.5511 18.16 71.9751 17.456 72.5271 16.864C73.0791 16.264 73.7351 15.804 74.4951 15.484C75.2551 15.156 76.1031 14.992 77.0391 14.992C77.9431 14.992 78.6951 15.14 79.2951 15.436C79.9031 15.724 80.3751 16.124 80.7111 16.636C81.0471 17.14 81.2631 17.72 81.3591 18.376H81.7791L81.4311 20.188C81.3271 19.468 81.0911 18.836 80.7231 18.292C80.3551 17.74 79.8751 17.312 79.2831 17.008C78.6911 16.696 78.0071 16.54 77.2311 16.54C76.3031 16.54 75.4871 16.76 74.7831 17.2C74.0871 17.632 73.5431 18.232 73.1511 19C72.7671 19.76 72.5751 20.644 72.5751 21.652C72.5751 22.628 72.7711 23.492 73.1631 24.244C73.5631 24.988 74.1191 25.572 74.8311 25.996C75.5511 26.42 76.3991 26.632 77.3751 26.632C78.3831 26.632 79.2511 26.412 79.9791 25.972C80.7071 25.524 81.2391 24.924 81.5751 24.172L83.1711 24.88C82.7151 25.912 81.9831 26.728 80.9751 27.328C79.9751 27.928 78.7711 28.228 77.3631 28.228ZM81.4311 20.188V15.22H83.1591V20.188H81.4311ZM95.6871 16.708H93.2151V15.22H97.4151V26.512H99.9111V28H95.6871V16.708ZM88.5471 15.22V23.368C88.5471 24.416 88.7791 25.244 89.2431 25.852C89.7151 26.452 90.4551 26.752 91.4631 26.752C92.2711 26.752 92.9911 26.548 93.6231 26.14C94.2631 25.724 94.7671 25.128 95.1351 24.352C95.5031 23.576 95.6871 22.644 95.6871 21.556L96.1071 24.112H95.6031C95.3871 25.488 94.8511 26.528 93.9951 27.232C93.1471 27.928 92.1031 28.276 90.8631 28.276C89.4871 28.276 88.4671 27.868 87.8031 27.052C87.1471 26.236 86.8191 25.104 86.8191 23.656V16.708H84.5031V15.22H88.5471ZM105.32 26.512H107.948V28H100.964V26.512H103.592V10.528H100.964V9.04H105.32V26.512ZM115.874 28.228C114.546 28.228 113.382 27.948 112.382 27.388C111.382 26.82 110.602 26.044 110.042 25.06C109.482 24.076 109.202 22.94 109.202 21.652C109.202 20.356 109.482 19.208 110.042 18.208C110.602 17.2 111.382 16.412 112.382 15.844C113.382 15.276 114.546 14.992 115.874 14.992C117.202 14.992 118.366 15.276 119.366 15.844C120.366 16.412 121.146 17.2 121.706 18.208C122.266 19.208 122.546 20.356 122.546 21.652C122.546 22.94 122.266 24.076 121.706 25.06C121.146 26.044 120.366 26.82 119.366 27.388C118.366 27.948 117.202 28.228 115.874 28.228ZM115.874 26.632C116.834 26.632 117.678 26.424 118.406 26.008C119.142 25.592 119.714 25.012 120.122 24.268C120.538 23.516 120.746 22.644 120.746 21.652C120.746 20.652 120.538 19.772 120.122 19.012C119.714 18.252 119.142 17.66 118.406 17.236C117.678 16.804 116.834 16.588 115.874 16.588C114.914 16.588 114.066 16.804 113.33 17.236C112.602 17.66 112.03 18.252 111.614 19.012C111.206 19.772 111.002 20.652 111.002 21.652C111.002 22.644 111.206 23.516 111.614 24.268C112.03 25.012 112.602 25.592 113.33 26.008C114.066 26.424 114.914 26.632 115.874 26.632ZM135.099 16.708H132.627V15.22H136.827V26.512H139.323V28H135.099V16.708ZM127.959 15.22V23.368C127.959 24.416 128.191 25.244 128.655 25.852C129.127 26.452 129.867 26.752 130.875 26.752C131.683 26.752 132.403 26.548 133.035 26.14C133.675 25.724 134.179 25.128 134.547 24.352C134.915 23.576 135.099 22.644 135.099 21.556L135.519 24.112H135.015C134.799 25.488 134.263 26.528 133.407 27.232C132.559 27.928 131.515 28.276 130.275 28.276C128.899 28.276 127.879 27.868 127.215 27.052C126.559 26.236 126.231 25.104 126.231 23.656V16.708H123.915V15.22H127.959ZM147.036 28.228C146.18 28.228 145.456 28.1 144.864 27.844C144.28 27.588 143.816 27.248 143.472 26.824C143.128 26.392 142.904 25.912 142.8 25.384H142.368L142.716 23.968C142.868 24.808 143.284 25.492 143.964 26.02C144.652 26.548 145.544 26.812 146.64 26.812C147.576 26.812 148.3 26.624 148.812 26.248C149.332 25.864 149.592 25.308 149.592 24.58C149.592 23.916 149.336 23.4 148.824 23.032C148.312 22.664 147.416 22.384 146.136 22.192C144.304 21.904 143 21.452 142.224 20.836C141.448 20.212 141.06 19.392 141.06 18.376C141.06 17.352 141.416 16.532 142.128 15.916C142.84 15.3 143.832 14.992 145.104 14.992C145.944 14.992 146.636 15.12 147.18 15.376C147.732 15.632 148.156 15.976 148.452 16.408C148.748 16.832 148.94 17.3 149.028 17.812H149.46L149.112 19.168C148.968 18.352 148.576 17.688 147.936 17.176C147.296 16.656 146.46 16.396 145.428 16.396C144.596 16.396 143.944 16.572 143.472 16.924C143.008 17.276 142.776 17.744 142.776 18.328C142.776 18.944 143.068 19.428 143.652 19.78C144.236 20.124 145.156 20.396 146.412 20.596C148.188 20.876 149.448 21.336 150.192 21.976C150.936 22.616 151.308 23.48 151.308 24.568C151.308 25.712 150.94 26.608 150.204 27.256C149.476 27.904 148.42 28.228 147.036 28.228ZM140.988 28V23.968H142.716V28H140.988ZM149.112 19.168V15.22H150.84V19.168H149.112Z" fill="black"/>
<path d="M1 6.35211L6 1V39L1 33.6479V6.35211Z" fill="white"/>
<path d="M6 1L1 6.35211V33.6479L6 39" stroke="black" stroke-linecap="round"/>
<path d="M163 33.6479L158 39L158 1L163 6.35211L163 33.6479Z" fill="white"/>
<path d="M158 39L163 33.6479L163 6.35211L158 1" stroke="black" stroke-linecap="round"/>
</svg>
