<svg width="167" height="40" viewBox="0 0 167 40" fill="none" xmlns="http://www.w3.org/2000/svg">
<path d="M6 1H161V39H6V1Z" fill="white"/>
<path d="M6 1.5H161V0.5H6V1.5ZM161 38.5H6V39.5H161V38.5Z" fill="black"/>
<path d="M30.0979 28V26.512H32.3539V19.804C32.3539 18.756 32.1219 17.936 31.6579 17.344C31.1939 16.752 30.4699 16.456 29.4859 16.456C28.6939 16.456 27.9899 16.664 27.3739 17.08C26.7579 17.496 26.2739 18.092 25.9219 18.868C25.5699 19.644 25.3939 20.576 25.3939 21.664L24.9739 19.096H25.4659C25.6659 17.704 26.1819 16.664 27.0139 15.976C27.8539 15.288 28.8739 14.944 30.0739 14.944C31.4259 14.944 32.4299 15.344 33.0859 16.144C33.7499 16.944 34.0819 18.072 34.0819 19.528V26.512H36.5299V28H30.0979ZM12.4099 28V26.512H14.9659V16.708H12.4099V15.22H16.6939V26.512H18.9619V28H12.4099ZM21.4099 28V26.512H23.6659V19.804C23.6659 18.756 23.4339 17.936 22.9699 17.344C22.5059 16.752 21.7819 16.456 20.7979 16.456C20.0059 16.456 19.3019 16.664 18.6859 17.08C18.0699 17.496 17.5819 18.092 17.2219 18.868C16.8699 19.644 16.6939 20.576 16.6939 21.664L16.2859 19.096H16.7779C16.9699 17.704 17.4859 16.664 18.3259 15.976C19.1659 15.288 20.1859 14.944 21.3859 14.944C22.7379 14.944 23.7419 15.344 24.3979 16.144C25.0619 16.944 25.3939 18.072 25.3939 19.528V26.512H27.8419V28H21.4099ZM44.3478 28.228C43.0278 28.228 41.8838 27.948 40.9158 27.388C39.9478 26.828 39.1998 26.056 38.6718 25.072C38.1438 24.08 37.8798 22.94 37.8798 21.652C37.8798 20.348 38.1438 19.196 38.6718 18.196C39.2078 17.196 39.9518 16.412 40.9038 15.844C41.8638 15.276 42.9798 14.992 44.2518 14.992C45.5318 14.992 46.6398 15.272 47.5758 15.832C48.5118 16.392 49.2318 17.168 49.7358 18.16C50.2398 19.152 50.4918 20.296 50.4918 21.592C50.4918 21.744 50.4878 21.864 50.4798 21.952C50.4798 22.04 50.4718 22.116 50.4558 22.18H48.7518C48.7598 22.084 48.7638 21.98 48.7638 21.868C48.7718 21.748 48.7758 21.612 48.7758 21.46C48.7758 20.508 48.5918 19.664 48.2238 18.928C47.8638 18.184 47.3478 17.6 46.6758 17.176C46.0038 16.752 45.1958 16.54 44.2518 16.54C43.3318 16.54 42.5238 16.76 41.8278 17.2C41.1318 17.632 40.5918 18.232 40.2078 19C39.8238 19.76 39.6318 20.644 39.6318 21.652C39.6318 22.628 39.8198 23.492 40.1958 24.244C40.5798 24.988 41.1238 25.572 41.8278 25.996C42.5318 26.42 43.3678 26.632 44.3358 26.632C45.3438 26.632 46.2158 26.396 46.9518 25.924C47.6958 25.444 48.2478 24.792 48.6078 23.968L50.2398 24.58C49.7678 25.708 49.0118 26.6 47.9718 27.256C46.9398 27.904 45.7318 28.228 44.3478 28.228ZM38.9718 22.18V20.848H49.9398L50.4438 22.18H38.9718ZM55.8153 24.616C55.8153 25.288 55.9433 25.796 56.1993 26.14C56.4553 26.476 56.8473 26.644 57.3753 26.644C57.8953 26.644 58.2873 26.472 58.5513 26.128C58.8153 25.776 58.9473 25.272 58.9473 24.616V23.428H60.5073V24.604C60.5073 25.372 60.3913 26.028 60.1593 26.572C59.9353 27.108 59.5913 27.52 59.1273 27.808C58.6633 28.088 58.0673 28.228 57.3393 28.228C56.5953 28.228 55.9833 28.084 55.5033 27.796C55.0233 27.5 54.6673 27.084 54.4353 26.548C54.2033 26.012 54.0873 25.368 54.0873 24.616L54.0993 16.708H51.8193V15.22H54.0993V11.98H55.8273V15.22H60.3393L60.3273 16.708H55.8273L55.8153 24.616ZM66.0128 26.512H68.2808V28H61.7168V26.512H64.2848V10.528H61.7168V9.04H66.0128V26.512ZM73.3808 26.512V19.792C73.3808 18.752 73.1448 17.936 72.6728 17.344C72.2088 16.752 71.4768 16.456 70.4768 16.456C69.6368 16.456 68.8808 16.672 68.2088 17.104C67.5368 17.528 67.0008 18.148 66.6008 18.964C66.2088 19.772 66.0128 20.748 66.0128 21.892L65.6048 19.336H66.0848C66.2448 18.4 66.5448 17.608 66.9848 16.96C67.4328 16.304 68.0008 15.804 68.6888 15.46C69.3768 15.116 70.1648 14.944 71.0528 14.944C72.4448 14.944 73.4688 15.344 74.1248 16.144C74.7808 16.944 75.1088 18.068 75.1088 19.516V26.512H77.5568V28H71.1248V26.512H73.3808ZM85.5325 28.228C84.2045 28.228 83.0405 27.948 82.0405 27.388C81.0405 26.82 80.2605 26.044 79.7005 25.06C79.1405 24.076 78.8605 22.94 78.8605 21.652C78.8605 20.356 79.1405 19.208 79.7005 18.208C80.2605 17.2 81.0405 16.412 82.0405 15.844C83.0405 15.276 84.2045 14.992 85.5325 14.992C86.8605 14.992 88.0245 15.276 89.0245 15.844C90.0245 16.412 90.8045 17.2 91.3645 18.208C91.9245 19.208 92.2045 20.356 92.2045 21.652C92.2045 22.94 91.9245 24.076 91.3645 25.06C90.8045 26.044 90.0245 26.82 89.0245 27.388C88.0245 27.948 86.8605 28.228 85.5325 28.228ZM85.5325 26.632C86.4925 26.632 87.3365 26.424 88.0645 26.008C88.8005 25.592 89.3725 25.012 89.7805 24.268C90.1965 23.516 90.4045 22.644 90.4045 21.652C90.4045 20.652 90.1965 19.772 89.7805 19.012C89.3725 18.252 88.8005 17.66 88.0645 17.236C87.3365 16.804 86.4925 16.588 85.5325 16.588C84.5725 16.588 83.7245 16.804 82.9885 17.236C82.2605 17.66 81.6885 18.252 81.2725 19.012C80.8645 19.772 80.6605 20.652 80.6605 21.652C80.6605 22.644 80.8645 23.516 81.2725 24.268C81.6885 25.012 82.2605 25.592 82.9885 26.008C83.7245 26.424 84.5725 26.632 85.5325 26.632ZM105.453 28V23.224L105.525 22.288V20.764L105.453 19.084V10.528H102.009V9.04H107.181V26.512H109.629V28H105.453ZM100.641 14.98C101.697 14.98 102.641 15.212 103.473 15.676C104.313 16.14 105.005 16.804 105.549 17.668C106.093 18.524 106.453 19.552 106.629 20.752L105.525 21.58C105.525 20.596 105.333 19.724 104.949 18.964C104.573 18.204 104.033 17.612 103.329 17.188C102.625 16.756 101.789 16.54 100.821 16.54C99.8694 16.54 99.0414 16.756 98.3374 17.188C97.6334 17.62 97.0894 18.216 96.7054 18.976C96.3294 19.736 96.1414 20.616 96.1414 21.616C96.1414 22.608 96.3374 23.484 96.7294 24.244C97.1214 25.004 97.6694 25.604 98.3734 26.044C99.0854 26.476 99.9014 26.692 100.821 26.692C101.781 26.692 102.609 26.476 103.305 26.044C104.009 25.604 104.553 25 104.937 24.232C105.329 23.464 105.525 22.58 105.525 21.58L105.789 24.304H105.381C105.237 25.008 104.957 25.66 104.541 26.26C104.125 26.852 103.577 27.332 102.897 27.7C102.217 28.06 101.401 28.24 100.449 28.24C99.5614 28.24 98.7454 28.08 98.0014 27.76C97.2574 27.432 96.6134 26.972 96.0694 26.38C95.5254 25.78 95.1014 25.076 94.7974 24.268C94.5014 23.46 94.3534 22.576 94.3534 21.616C94.3534 20.32 94.6134 19.172 95.1334 18.172C95.6534 17.172 96.3814 16.392 97.3174 15.832C98.2614 15.264 99.3694 14.98 100.641 14.98ZM115.584 26.512H118.044V28H111.264V26.512H113.856V16.708H111.264V15.22H115.584V26.512ZM113.532 9.832H115.74V12.124H113.532V9.832ZM126.15 28.228C124.822 28.228 123.666 27.948 122.682 27.388C121.706 26.828 120.946 26.056 120.402 25.072C119.866 24.08 119.598 22.94 119.598 21.652C119.598 20.676 119.746 19.784 120.042 18.976C120.338 18.16 120.762 17.456 121.314 16.864C121.866 16.264 122.522 15.804 123.282 15.484C124.042 15.156 124.89 14.992 125.826 14.992C126.73 14.992 127.482 15.14 128.082 15.436C128.69 15.724 129.162 16.124 129.498 16.636C129.834 17.14 130.05 17.72 130.146 18.376H130.566L130.218 20.188C130.114 19.468 129.878 18.836 129.51 18.292C129.142 17.74 128.662 17.312 128.07 17.008C127.478 16.696 126.794 16.54 126.018 16.54C125.09 16.54 124.274 16.76 123.57 17.2C122.874 17.632 122.33 18.232 121.938 19C121.554 19.76 121.362 20.644 121.362 21.652C121.362 22.628 121.558 23.492 121.95 24.244C122.35 24.988 122.906 25.572 123.618 25.996C124.338 26.42 125.186 26.632 126.162 26.632C127.17 26.632 128.038 26.412 128.766 25.972C129.494 25.524 130.026 24.924 130.362 24.172L131.958 24.88C131.502 25.912 130.77 26.728 129.762 27.328C128.762 27.928 127.558 28.228 126.15 28.228ZM130.218 20.188V15.22H131.946V20.188H130.218ZM144.294 28C143.966 28 143.714 27.896 143.538 27.688C143.37 27.48 143.286 27.188 143.286 26.812V22.972L143.442 22.576L143.358 21.124L143.286 20.368V19.396C143.286 18.74 143.15 18.204 142.878 17.788C142.614 17.372 142.23 17.064 141.726 16.864C141.222 16.664 140.614 16.564 139.902 16.564C138.838 16.564 138.014 16.776 137.43 17.2C136.854 17.616 136.47 18.244 136.278 19.084L134.622 18.736C134.782 17.896 135.082 17.2 135.522 16.648C135.962 16.088 136.546 15.672 137.274 15.4C138.01 15.12 138.906 14.98 139.962 14.98C141.066 14.98 141.99 15.136 142.734 15.448C143.486 15.752 144.054 16.22 144.438 16.852C144.822 17.484 145.014 18.3 145.014 19.3V26.512H146.898V28H144.294ZM138.27 28.168C136.942 28.168 135.934 27.876 135.246 27.292C134.558 26.7 134.214 25.832 134.214 24.688C134.214 23.632 134.518 22.828 135.126 22.276C135.734 21.716 136.71 21.296 138.054 21.016L143.802 19.792V21.028L138.342 22.264C137.558 22.448 136.97 22.72 136.578 23.08C136.194 23.432 136.002 23.932 136.002 24.58C136.002 25.284 136.218 25.812 136.65 26.164C137.082 26.508 137.714 26.68 138.546 26.68C139.466 26.68 140.29 26.468 141.018 26.044C141.746 25.62 142.318 24.996 142.734 24.172C143.15 23.348 143.358 22.332 143.358 21.124L143.814 23.956H143.202C143.002 25.292 142.482 26.328 141.642 27.064C140.81 27.8 139.686 28.168 138.27 28.168ZM152.443 26.512H155.071V28H148.087V26.512H150.715V10.528H148.087V9.04H152.443V26.512Z" fill="black"/>
<path d="M1 6.35211L6 1V39L1 33.6479V6.35211Z" fill="white"/>
<path d="M6 1L1 6.35211V33.6479L6 39" stroke="black" stroke-linecap="round"/>
<path d="M166 33.6479L161 39L161 1L166 6.35211L166 33.6479Z" fill="white"/>
<path d="M161 39L166 33.6479L166 6.35211L161 1" stroke="black" stroke-linecap="round"/>
</svg>
