<svg width="128" height="40" viewBox="0 0 128 40" fill="none" xmlns="http://www.w3.org/2000/svg">
<path d="M6 1H122V39H6V1Z" fill="white"/>
<path d="M6 1.5H122V0.5H6V1.5ZM122 38.5H6V39.5H122V38.5Z" fill="black"/>
<path d="M12.0822 33.04V31.552H14.6382V16.708H12.0822V15.22H16.3662V19.792L16.3182 21.16V21.916L16.3662 22.996V31.552H18.8742V33.04H12.0822ZM21.1902 28.24C20.1342 28.24 19.1862 28.008 18.3462 27.544C17.5142 27.08 16.8262 26.42 16.2822 25.564C15.7382 24.7 15.3782 23.668 15.2022 22.468L16.3182 21.64C16.3182 22.624 16.5062 23.496 16.8822 24.256C17.2582 25.008 17.7982 25.6 18.5022 26.032C19.2062 26.464 20.0422 26.68 21.0102 26.68C21.9622 26.68 22.7902 26.464 23.4942 26.032C24.1982 25.6 24.7382 25.004 25.1142 24.244C25.4982 23.476 25.6902 22.6 25.6902 21.616C25.6902 20.616 25.4942 19.736 25.1022 18.976C24.7102 18.216 24.1622 17.62 23.4582 17.188C22.7542 16.748 21.9382 16.528 21.0102 16.528C20.0582 16.528 19.2302 16.748 18.5262 17.188C17.8222 17.62 17.2782 18.22 16.8942 18.988C16.5102 19.756 16.3182 20.64 16.3182 21.64L16.0422 18.916H16.4502C16.5942 18.212 16.8742 17.564 17.2902 16.972C17.7062 16.372 18.2542 15.892 18.9342 15.532C19.6222 15.164 20.4382 14.98 21.3822 14.98C22.2782 14.98 23.0982 15.144 23.8422 15.472C24.5862 15.792 25.2262 16.252 25.7622 16.852C26.3062 17.444 26.7262 18.144 27.0222 18.952C27.3262 19.76 27.4782 20.648 27.4782 21.616C27.4782 22.904 27.2182 24.048 26.6982 25.048C26.1782 26.048 25.4462 26.832 24.5022 27.4C23.5662 27.96 22.4622 28.24 21.1902 28.24ZM33.1956 26.512H35.8236V28H28.8396V26.512H31.4676V10.528H28.8396V9.04H33.1956V26.512ZM47.5709 28C47.2429 28 46.9909 27.896 46.8149 27.688C46.6469 27.48 46.5629 27.188 46.5629 26.812V22.972L46.7189 22.576L46.6349 21.124L46.5629 20.368V19.396C46.5629 18.74 46.4269 18.204 46.1549 17.788C45.8909 17.372 45.5069 17.064 45.0029 16.864C44.4989 16.664 43.8909 16.564 43.1789 16.564C42.1149 16.564 41.2909 16.776 40.7069 17.2C40.1309 17.616 39.7469 18.244 39.5549 19.084L37.8989 18.736C38.0589 17.896 38.3589 17.2 38.7989 16.648C39.2389 16.088 39.8229 15.672 40.5509 15.4C41.2869 15.12 42.1829 14.98 43.2389 14.98C44.3429 14.98 45.2669 15.136 46.0109 15.448C46.7629 15.752 47.3309 16.22 47.7149 16.852C48.0989 17.484 48.2909 18.3 48.2909 19.3V26.512H50.1749V28H47.5709ZM41.5469 28.168C40.2189 28.168 39.2109 27.876 38.5229 27.292C37.8349 26.7 37.4909 25.832 37.4909 24.688C37.4909 23.632 37.7949 22.828 38.4029 22.276C39.0109 21.716 39.9869 21.296 41.3309 21.016L47.0789 19.792V21.028L41.6189 22.264C40.8349 22.448 40.2469 22.72 39.8549 23.08C39.4709 23.432 39.2789 23.932 39.2789 24.58C39.2789 25.284 39.4949 25.812 39.9269 26.164C40.3589 26.508 40.9909 26.68 41.8229 26.68C42.7429 26.68 43.5669 26.468 44.2949 26.044C45.0229 25.62 45.5949 24.996 46.0109 24.172C46.4269 23.348 46.6349 22.332 46.6349 21.124L47.0909 23.956H46.4789C46.2789 25.292 45.7589 26.328 44.9189 27.064C44.0869 27.8 42.9629 28.168 41.5469 28.168ZM56.02 26.512H58.3V28H51.664V26.512H54.292V16.708H51.664V15.22H56.02V26.512ZM63.388 26.512V19.828C63.388 18.78 63.152 17.956 62.68 17.356C62.208 16.756 61.464 16.456 60.448 16.456C59.624 16.456 58.876 16.66 58.204 17.068C57.532 17.476 57 18.068 56.608 18.844C56.216 19.62 56.02 20.56 56.02 21.664L55.624 19.108H56.104C56.256 18.236 56.548 17.496 56.98 16.888C57.412 16.272 57.964 15.804 58.636 15.484C59.316 15.156 60.096 14.992 60.976 14.992C62.368 14.992 63.404 15.396 64.084 16.204C64.772 17.004 65.116 18.136 65.116 19.6V26.512H67.576V28H61.144V26.512H63.388ZM73.165 26.512H75.445V28H68.809V26.512H71.437V16.708H68.809V15.22H73.165V26.512ZM80.533 26.512V19.828C80.533 18.78 80.297 17.956 79.825 17.356C79.353 16.756 78.609 16.456 77.593 16.456C76.769 16.456 76.021 16.66 75.349 17.068C74.677 17.476 74.145 18.068 73.753 18.844C73.361 19.62 73.165 20.56 73.165 21.664L72.769 19.108H73.249C73.401 18.236 73.693 17.496 74.125 16.888C74.557 16.272 75.109 15.804 75.781 15.484C76.461 15.156 77.241 14.992 78.121 14.992C79.513 14.992 80.549 15.396 81.229 16.204C81.917 17.004 82.261 18.136 82.261 19.6V26.512H84.721V28H78.289V26.512H80.533ZM92.5437 28.228C91.2237 28.228 90.0797 27.948 89.1117 27.388C88.1437 26.828 87.3957 26.056 86.8677 25.072C86.3397 24.08 86.0757 22.94 86.0757 21.652C86.0757 20.348 86.3397 19.196 86.8677 18.196C87.4037 17.196 88.1477 16.412 89.0997 15.844C90.0597 15.276 91.1757 14.992 92.4477 14.992C93.7277 14.992 94.8357 15.272 95.7717 15.832C96.7077 16.392 97.4277 17.168 97.9317 18.16C98.4357 19.152 98.6877 20.296 98.6877 21.592C98.6877 21.744 98.6837 21.864 98.6757 21.952C98.6757 22.04 98.6677 22.116 98.6517 22.18H96.9477C96.9557 22.084 96.9597 21.98 96.9597 21.868C96.9677 21.748 96.9717 21.612 96.9717 21.46C96.9717 20.508 96.7877 19.664 96.4197 18.928C96.0597 18.184 95.5437 17.6 94.8717 17.176C94.1997 16.752 93.3917 16.54 92.4477 16.54C91.5277 16.54 90.7197 16.76 90.0237 17.2C89.3277 17.632 88.7877 18.232 88.4037 19C88.0197 19.76 87.8277 20.644 87.8277 21.652C87.8277 22.628 88.0157 23.492 88.3917 24.244C88.7757 24.988 89.3197 25.572 90.0237 25.996C90.7277 26.42 91.5637 26.632 92.5317 26.632C93.5397 26.632 94.4117 26.396 95.1477 25.924C95.8917 25.444 96.4437 24.792 96.8037 23.968L98.4357 24.58C97.9637 25.708 97.2077 26.6 96.1677 27.256C95.1357 27.904 93.9277 28.228 92.5437 28.228ZM87.1677 22.18V20.848H98.1357L98.6397 22.18H87.1677ZM111.847 28V23.224L111.919 22.288V20.764L111.847 19.084V10.528H108.403V9.04H113.575V26.512H116.023V28H111.847ZM107.035 14.98C108.091 14.98 109.035 15.212 109.867 15.676C110.707 16.14 111.399 16.804 111.943 17.668C112.487 18.524 112.847 19.552 113.023 20.752L111.919 21.58C111.919 20.596 111.727 19.724 111.343 18.964C110.967 18.204 110.427 17.612 109.723 17.188C109.019 16.756 108.183 16.54 107.215 16.54C106.263 16.54 105.435 16.756 104.731 17.188C104.027 17.62 103.483 18.216 103.099 18.976C102.723 19.736 102.535 20.616 102.535 21.616C102.535 22.608 102.731 23.484 103.123 24.244C103.515 25.004 104.063 25.604 104.767 26.044C105.479 26.476 106.295 26.692 107.215 26.692C108.175 26.692 109.003 26.476 109.699 26.044C110.403 25.604 110.947 25 111.331 24.232C111.723 23.464 111.919 22.58 111.919 21.58L112.183 24.304H111.775C111.631 25.008 111.351 25.66 110.935 26.26C110.519 26.852 109.971 27.332 109.291 27.7C108.611 28.06 107.795 28.24 106.843 28.24C105.955 28.24 105.139 28.08 104.395 27.76C103.651 27.432 103.007 26.972 102.463 26.38C101.919 25.78 101.495 25.076 101.191 24.268C100.895 23.46 100.747 22.576 100.747 21.616C100.747 20.32 101.007 19.172 101.527 18.172C102.047 17.172 102.775 16.392 103.711 15.832C104.655 15.264 105.763 14.98 107.035 14.98Z" fill="black"/>
<path d="M1 6.35211L6 1V39L1 33.6479V6.35211Z" fill="white"/>
<path d="M6 1L1 6.35211V33.6479L6 39" stroke="black" stroke-linecap="round"/>
<path d="M127 33.6479L122 39L122 1L127 6.35211L127 33.6479Z" fill="white"/>
<path d="M122 39L127 33.6479L127 6.35211L122 1" stroke="black" stroke-linecap="round"/>
</svg>
