<svg width="137" height="40" viewBox="0 0 137 40" fill="none" xmlns="http://www.w3.org/2000/svg">
<path d="M6 1H131V39H6V1Z" fill="white"/>
<path d="M6 1.5H131V0.5H6V1.5ZM131 38.5H6V39.5H131V38.5Z" fill="black"/>
<path d="M19.0104 28.228C18.1544 28.228 17.4304 28.1 16.8384 27.844C16.2544 27.588 15.7904 27.248 15.4464 26.824C15.1024 26.392 14.8784 25.912 14.7744 25.384H14.3424L14.6904 23.968C14.8424 24.808 15.2584 25.492 15.9384 26.02C16.6264 26.548 17.5184 26.812 18.6144 26.812C19.5504 26.812 20.2744 26.624 20.7864 26.248C21.3064 25.864 21.5664 25.308 21.5664 24.58C21.5664 23.916 21.3104 23.4 20.7984 23.032C20.2864 22.664 19.3904 22.384 18.1104 22.192C16.2784 21.904 14.9744 21.452 14.1984 20.836C13.4224 20.212 13.0344 19.392 13.0344 18.376C13.0344 17.352 13.3904 16.532 14.1024 15.916C14.8144 15.3 15.8064 14.992 17.0784 14.992C17.9184 14.992 18.6104 15.12 19.1544 15.376C19.7064 15.632 20.1304 15.976 20.4264 16.408C20.7224 16.832 20.9144 17.3 21.0024 17.812H21.4344L21.0864 19.168C20.9424 18.352 20.5504 17.688 19.9104 17.176C19.2704 16.656 18.4344 16.396 17.4024 16.396C16.5704 16.396 15.9184 16.572 15.4464 16.924C14.9824 17.276 14.7504 17.744 14.7504 18.328C14.7504 18.944 15.0424 19.428 15.6264 19.78C16.2104 20.124 17.1304 20.396 18.3864 20.596C20.1624 20.876 21.4224 21.336 22.1664 21.976C22.9104 22.616 23.2824 23.48 23.2824 24.568C23.2824 25.712 22.9144 26.608 22.1784 27.256C21.4504 27.904 20.3944 28.228 19.0104 28.228ZM12.9624 28V23.968H14.6904V28H12.9624ZM21.0864 19.168V15.22H22.8144V19.168H21.0864ZM28.7154 24.616C28.7154 25.288 28.8434 25.796 29.0994 26.14C29.3554 26.476 29.7474 26.644 30.2754 26.644C30.7954 26.644 31.1874 26.472 31.4514 26.128C31.7154 25.776 31.8474 25.272 31.8474 24.616V23.428H33.4074V24.604C33.4074 25.372 33.2914 26.028 33.0594 26.572C32.8354 27.108 32.4914 27.52 32.0274 27.808C31.5634 28.088 30.9674 28.228 30.2394 28.228C29.4954 28.228 28.8834 28.084 28.4034 27.796C27.9234 27.5 27.5674 27.084 27.3354 26.548C27.1034 26.012 26.9874 25.368 26.9874 24.616L26.9994 16.708H24.7194V15.22H26.9994V11.98H28.7274V15.22H33.2394L33.2274 16.708H28.7274L28.7154 24.616ZM45.6176 16.708H43.1456V15.22H47.3456V26.512H49.8416V28H45.6176V16.708ZM38.4776 15.22V23.368C38.4776 24.416 38.7096 25.244 39.1736 25.852C39.6456 26.452 40.3856 26.752 41.3936 26.752C42.2016 26.752 42.9216 26.548 43.5536 26.14C44.1936 25.724 44.6976 25.128 45.0656 24.352C45.4336 23.576 45.6176 22.644 45.6176 21.556L46.0376 24.112H45.5336C45.3176 25.488 44.7816 26.528 43.9256 27.232C43.0776 27.928 42.0336 28.276 40.7936 28.276C39.4176 28.276 38.3976 27.868 37.7336 27.052C37.0776 26.236 36.7496 25.104 36.7496 23.656V16.708H34.4336V15.22H38.4776ZM52.5868 28.264V10.528H50.0188V9.04H54.3148V19.696L54.2428 21.196V22.792L54.3148 25.12L52.7428 28.264H52.5868ZM59.0548 28.24C57.9828 28.24 57.0228 28.04 56.1748 27.64C55.3348 27.232 54.6388 26.656 54.0868 25.912C53.5428 25.16 53.1788 24.268 52.9948 23.236L54.2428 21.616C54.2428 22.6 54.4308 23.472 54.8068 24.232C55.1828 24.992 55.7228 25.592 56.4268 26.032C57.1308 26.464 57.9668 26.68 58.9348 26.68C59.9188 26.68 60.7588 26.468 61.4548 26.044C62.1588 25.62 62.6948 25.028 63.0628 24.268C63.4388 23.5 63.6268 22.608 63.6268 21.592C63.6268 20.6 63.4268 19.724 63.0268 18.964C62.6348 18.204 62.0868 17.608 61.3828 17.176C60.6788 16.744 59.8628 16.528 58.9348 16.528C57.9828 16.528 57.1548 16.744 56.4508 17.176C55.7468 17.608 55.2028 18.204 54.8188 18.964C54.4348 19.724 54.2428 20.608 54.2428 21.616L53.9668 18.916H54.3748C54.5268 18.212 54.8068 17.564 55.2148 16.972C55.6308 16.372 56.1788 15.892 56.8588 15.532C57.5468 15.164 58.3668 14.98 59.3188 14.98C60.2068 14.98 61.0228 15.144 61.7668 15.472C62.5108 15.792 63.1548 16.252 63.6988 16.852C64.2428 17.444 64.6628 18.148 64.9588 18.964C65.2548 19.772 65.4028 20.66 65.4028 21.628C65.4028 22.916 65.1388 24.06 64.6108 25.06C64.0908 26.052 63.3548 26.832 62.4028 27.4C61.4508 27.96 60.3348 28.24 59.0548 28.24ZM68.7943 28.264V10.528H66.2263V9.04H70.5223V19.696L70.4503 21.196V22.792L70.5223 25.12L68.9503 28.264H68.7943ZM75.2623 28.24C74.1903 28.24 73.2303 28.04 72.3823 27.64C71.5423 27.232 70.8463 26.656 70.2943 25.912C69.7503 25.16 69.3863 24.268 69.2023 23.236L70.4503 21.616C70.4503 22.6 70.6383 23.472 71.0143 24.232C71.3903 24.992 71.9303 25.592 72.6343 26.032C73.3383 26.464 74.1743 26.68 75.1423 26.68C76.1263 26.68 76.9663 26.468 77.6623 26.044C78.3663 25.62 78.9023 25.028 79.2703 24.268C79.6463 23.5 79.8343 22.608 79.8343 21.592C79.8343 20.6 79.6343 19.724 79.2343 18.964C78.8423 18.204 78.2943 17.608 77.5903 17.176C76.8863 16.744 76.0703 16.528 75.1423 16.528C74.1903 16.528 73.3623 16.744 72.6583 17.176C71.9543 17.608 71.4103 18.204 71.0263 18.964C70.6423 19.724 70.4503 20.608 70.4503 21.616L70.1743 18.916H70.5823C70.7343 18.212 71.0143 17.564 71.4223 16.972C71.8383 16.372 72.3863 15.892 73.0663 15.532C73.7543 15.164 74.5743 14.98 75.5263 14.98C76.4143 14.98 77.2303 15.144 77.9743 15.472C78.7183 15.792 79.3623 16.252 79.9063 16.852C80.4503 17.444 80.8703 18.148 81.1663 18.964C81.4623 19.772 81.6103 20.66 81.6103 21.628C81.6103 22.916 81.3463 24.06 80.8183 25.06C80.2983 26.052 79.5623 26.832 78.6103 27.4C77.6583 27.96 76.5423 28.24 75.2623 28.24ZM90.4258 28.228C89.0978 28.228 87.9338 27.948 86.9338 27.388C85.9338 26.82 85.1538 26.044 84.5938 25.06C84.0338 24.076 83.7538 22.94 83.7538 21.652C83.7538 20.356 84.0338 19.208 84.5938 18.208C85.1538 17.2 85.9338 16.412 86.9338 15.844C87.9338 15.276 89.0978 14.992 90.4258 14.992C91.7538 14.992 92.9178 15.276 93.9178 15.844C94.9178 16.412 95.6978 17.2 96.2578 18.208C96.8178 19.208 97.0978 20.356 97.0978 21.652C97.0978 22.94 96.8178 24.076 96.2578 25.06C95.6978 26.044 94.9178 26.82 93.9178 27.388C92.9178 27.948 91.7538 28.228 90.4258 28.228ZM90.4258 26.632C91.3858 26.632 92.2298 26.424 92.9578 26.008C93.6938 25.592 94.2658 25.012 94.6738 24.268C95.0898 23.516 95.2978 22.644 95.2978 21.652C95.2978 20.652 95.0898 19.772 94.6738 19.012C94.2658 18.252 93.6938 17.66 92.9578 17.236C92.2298 16.804 91.3858 16.588 90.4258 16.588C89.4658 16.588 88.6178 16.804 87.8818 17.236C87.1538 17.66 86.5818 18.252 86.1658 19.012C85.7578 19.772 85.5538 20.652 85.5538 21.652C85.5538 22.644 85.7578 23.516 86.1658 24.268C86.5818 25.012 87.1538 25.592 87.8818 26.008C88.6178 26.424 89.4658 26.632 90.4258 26.632ZM103.447 26.512H105.943V28H99.0907V26.512H101.719V16.708H99.0907V15.22H103.447V26.512ZM108.355 17.056C108.211 17.016 108.055 16.984 107.887 16.96C107.727 16.936 107.551 16.924 107.359 16.924C106.175 16.924 105.227 17.368 104.515 18.256C103.803 19.136 103.447 20.36 103.447 21.928L103.039 19.132H103.531C103.643 18.284 103.875 17.556 104.227 16.948C104.579 16.332 105.035 15.86 105.595 15.532C106.163 15.196 106.827 15.028 107.587 15.028C107.731 15.028 107.859 15.036 107.971 15.052C108.091 15.06 108.219 15.076 108.355 15.1V17.056ZM113.889 26.512H116.169V28H109.533V26.512H112.161V16.708H109.533V15.22H113.889V26.512ZM121.257 26.512V19.828C121.257 18.78 121.021 17.956 120.549 17.356C120.077 16.756 119.333 16.456 118.317 16.456C117.493 16.456 116.745 16.66 116.073 17.068C115.401 17.476 114.869 18.068 114.477 18.844C114.085 19.62 113.889 20.56 113.889 21.664L113.493 19.108H113.973C114.125 18.236 114.417 17.496 114.849 16.888C115.281 16.272 115.833 15.804 116.505 15.484C117.185 15.156 117.965 14.992 118.845 14.992C120.237 14.992 121.273 15.396 121.953 16.204C122.641 17.004 122.985 18.136 122.985 19.6V26.512H125.445V28H119.013V26.512H121.257Z" fill="black"/>
<path d="M1 6.35211L6 1V39L1 33.6479V6.35211Z" fill="white"/>
<path d="M6 1L1 6.35211V33.6479L6 39" stroke="black" stroke-linecap="round"/>
<path d="M136 33.6479L131 39L131 1L136 6.35211L136 33.6479Z" fill="white"/>
<path d="M131 39L136 33.6479L136 6.35211L131 1" stroke="black" stroke-linecap="round"/>
</svg>
