<svg width="268" height="40" viewBox="0 0 268 40" fill="none" xmlns="http://www.w3.org/2000/svg">
<path d="M6 1H262V39H6V1Z" fill="white"/>
<path d="M6 1.5H262V0.5H6V1.5ZM262 38.5H6V39.5H262V38.5Z" fill="black"/>
<path d="M16.5453 26.512H18.8253V28H12.1893V26.512H14.8173V16.708H12.1893V15.22H16.5453V26.512ZM23.9133 26.512V19.828C23.9133 18.78 23.6773 17.956 23.2053 17.356C22.7333 16.756 21.9893 16.456 20.9733 16.456C20.1493 16.456 19.4013 16.66 18.7293 17.068C18.0573 17.476 17.5253 18.068 17.1333 18.844C16.7413 19.62 16.5453 20.56 16.5453 21.664L16.1493 19.108H16.6293C16.7813 18.236 17.0733 17.496 17.5053 16.888C17.9373 16.272 18.4893 15.804 19.1613 15.484C19.8413 15.156 20.6213 14.992 21.5013 14.992C22.8933 14.992 23.9293 15.396 24.6093 16.204C25.2973 17.004 25.6413 18.136 25.6413 19.6V26.512H28.1013V28H21.6693V26.512H23.9133ZM35.924 28.228C34.604 28.228 33.46 27.948 32.492 27.388C31.524 26.828 30.776 26.056 30.248 25.072C29.72 24.08 29.456 22.94 29.456 21.652C29.456 20.348 29.72 19.196 30.248 18.196C30.784 17.196 31.528 16.412 32.48 15.844C33.44 15.276 34.556 14.992 35.828 14.992C37.108 14.992 38.216 15.272 39.152 15.832C40.088 16.392 40.808 17.168 41.312 18.16C41.816 19.152 42.068 20.296 42.068 21.592C42.068 21.744 42.064 21.864 42.056 21.952C42.056 22.04 42.048 22.116 42.032 22.18H40.328C40.336 22.084 40.34 21.98 40.34 21.868C40.348 21.748 40.352 21.612 40.352 21.46C40.352 20.508 40.168 19.664 39.8 18.928C39.44 18.184 38.924 17.6 38.252 17.176C37.58 16.752 36.772 16.54 35.828 16.54C34.908 16.54 34.1 16.76 33.404 17.2C32.708 17.632 32.168 18.232 31.784 19C31.4 19.76 31.208 20.644 31.208 21.652C31.208 22.628 31.396 23.492 31.772 24.244C32.156 24.988 32.7 25.572 33.404 25.996C34.108 26.42 34.944 26.632 35.912 26.632C36.92 26.632 37.792 26.396 38.528 25.924C39.272 25.444 39.824 24.792 40.184 23.968L41.816 24.58C41.344 25.708 40.588 26.6 39.548 27.256C38.516 27.904 37.308 28.228 35.924 28.228ZM30.548 22.18V20.848H41.516L42.02 22.18H30.548ZM54.5315 16.708H52.0595V15.22H56.2595V26.512H58.7555V28H54.5315V16.708ZM47.3915 15.22V23.368C47.3915 24.416 47.6235 25.244 48.0875 25.852C48.5595 26.452 49.2995 26.752 50.3075 26.752C51.1155 26.752 51.8355 26.548 52.4675 26.14C53.1075 25.724 53.6115 25.128 53.9795 24.352C54.3475 23.576 54.5315 22.644 54.5315 21.556L54.9515 24.112H54.4475C54.2315 25.488 53.6955 26.528 52.8395 27.232C51.9915 27.928 50.9475 28.276 49.7075 28.276C48.3315 28.276 47.3115 27.868 46.6475 27.052C45.9915 26.236 45.6635 25.104 45.6635 23.656V16.708H43.3475V15.22H47.3915ZM63.5287 24.616C63.5287 25.288 63.6567 25.796 63.9127 26.14C64.1687 26.476 64.5607 26.644 65.0887 26.644C65.6087 26.644 66.0007 26.472 66.2647 26.128C66.5287 25.776 66.6607 25.272 66.6607 24.616V23.428H68.2207V24.604C68.2207 25.372 68.1047 26.028 67.8727 26.572C67.6487 27.108 67.3047 27.52 66.8407 27.808C66.3767 28.088 65.7807 28.228 65.0527 28.228C64.3087 28.228 63.6967 28.084 63.2167 27.796C62.7367 27.5 62.3807 27.084 62.1487 26.548C61.9167 26.012 61.8007 25.368 61.8007 24.616L61.8127 16.708H59.5327V15.22H61.8127V11.98H63.5407V15.22H68.0527L68.0407 16.708H63.5407L63.5287 24.616ZM74.2738 26.512H76.7698V28H69.9178V26.512H72.5458V16.708H69.9178V15.22H74.2738V26.512ZM79.1818 17.056C79.0378 17.016 78.8818 16.984 78.7138 16.96C78.5538 16.936 78.3778 16.924 78.1858 16.924C77.0018 16.924 76.0538 17.368 75.3418 18.256C74.6298 19.136 74.2738 20.36 74.2738 21.928L73.8658 19.132H74.3578C74.4698 18.284 74.7018 17.556 75.0538 16.948C75.4058 16.332 75.8618 15.86 76.4218 15.532C76.9898 15.196 77.6538 15.028 78.4138 15.028C78.5578 15.028 78.6858 15.036 78.7978 15.052C78.9178 15.06 79.0458 15.076 79.1818 15.1V17.056ZM90.4818 28C90.1538 28 89.9018 27.896 89.7258 27.688C89.5578 27.48 89.4738 27.188 89.4738 26.812V22.972L89.6298 22.576L89.5458 21.124L89.4738 20.368V19.396C89.4738 18.74 89.3378 18.204 89.0658 17.788C88.8018 17.372 88.4178 17.064 87.9138 16.864C87.4098 16.664 86.8018 16.564 86.0898 16.564C85.0258 16.564 84.2018 16.776 83.6178 17.2C83.0418 17.616 82.6578 18.244 82.4658 19.084L80.8098 18.736C80.9698 17.896 81.2698 17.2 81.7098 16.648C82.1498 16.088 82.7338 15.672 83.4618 15.4C84.1978 15.12 85.0938 14.98 86.1498 14.98C87.2538 14.98 88.1778 15.136 88.9218 15.448C89.6738 15.752 90.2418 16.22 90.6258 16.852C91.0098 17.484 91.2018 18.3 91.2018 19.3V26.512H93.0858V28H90.4818ZM84.4578 28.168C83.1298 28.168 82.1218 27.876 81.4338 27.292C80.7458 26.7 80.4018 25.832 80.4018 24.688C80.4018 23.632 80.7058 22.828 81.3138 22.276C81.9218 21.716 82.8978 21.296 84.2418 21.016L89.9898 19.792V21.028L84.5298 22.264C83.7458 22.448 83.1578 22.72 82.7658 23.08C82.3818 23.432 82.1898 23.932 82.1898 24.58C82.1898 25.284 82.4058 25.812 82.8378 26.164C83.2698 26.508 83.9018 26.68 84.7338 26.68C85.6538 26.68 86.4778 26.468 87.2058 26.044C87.9338 25.62 88.5058 24.996 88.9218 24.172C89.3378 23.348 89.5458 22.332 89.5458 21.124L90.0018 23.956H89.3898C89.1898 25.292 88.6698 26.328 87.8298 27.064C86.9978 27.8 85.8738 28.168 84.4578 28.168ZM98.6309 26.512H101.259V28H94.2749V26.512H96.9029V10.528H94.2749V9.04H98.6309V26.512ZM119.815 28C119.487 28 119.235 27.896 119.059 27.688C118.891 27.48 118.807 27.188 118.807 26.812V22.972L118.963 22.576L118.879 21.124L118.807 20.368V19.396C118.807 18.74 118.671 18.204 118.399 17.788C118.135 17.372 117.751 17.064 117.247 16.864C116.743 16.664 116.135 16.564 115.423 16.564C114.359 16.564 113.535 16.776 112.951 17.2C112.375 17.616 111.991 18.244 111.799 19.084L110.143 18.736C110.303 17.896 110.603 17.2 111.043 16.648C111.483 16.088 112.067 15.672 112.795 15.4C113.531 15.12 114.427 14.98 115.483 14.98C116.587 14.98 117.511 15.136 118.255 15.448C119.007 15.752 119.575 16.22 119.959 16.852C120.343 17.484 120.535 18.3 120.535 19.3V26.512H122.419V28H119.815ZM113.791 28.168C112.463 28.168 111.455 27.876 110.767 27.292C110.079 26.7 109.735 25.832 109.735 24.688C109.735 23.632 110.039 22.828 110.647 22.276C111.255 21.716 112.231 21.296 113.575 21.016L119.323 19.792V21.028L113.863 22.264C113.079 22.448 112.491 22.72 112.099 23.08C111.715 23.432 111.523 23.932 111.523 24.58C111.523 25.284 111.739 25.812 112.171 26.164C112.603 26.508 113.235 26.68 114.067 26.68C114.987 26.68 115.811 26.468 116.539 26.044C117.267 25.62 117.839 24.996 118.255 24.172C118.671 23.348 118.879 22.332 118.879 21.124L119.335 23.956H118.723C118.523 25.292 118.003 26.328 117.163 27.064C116.331 27.8 115.207 28.168 113.791 28.168ZM123.644 33.04V31.552H126.2V16.708H123.644V15.22H127.928V19.792L127.88 21.16V21.916L127.928 22.996V31.552H130.436V33.04H123.644ZM132.752 28.24C131.696 28.24 130.748 28.008 129.908 27.544C129.076 27.08 128.388 26.42 127.844 25.564C127.3 24.7 126.94 23.668 126.764 22.468L127.88 21.64C127.88 22.624 128.068 23.496 128.444 24.256C128.82 25.008 129.36 25.6 130.064 26.032C130.768 26.464 131.604 26.68 132.572 26.68C133.524 26.68 134.352 26.464 135.056 26.032C135.76 25.6 136.3 25.004 136.676 24.244C137.06 23.476 137.252 22.6 137.252 21.616C137.252 20.616 137.056 19.736 136.664 18.976C136.272 18.216 135.724 17.62 135.02 17.188C134.316 16.748 133.5 16.528 132.572 16.528C131.62 16.528 130.792 16.748 130.088 17.188C129.384 17.62 128.84 18.22 128.456 18.988C128.072 19.756 127.88 20.64 127.88 21.64L127.604 18.916H128.012C128.156 18.212 128.436 17.564 128.852 16.972C129.268 16.372 129.816 15.892 130.496 15.532C131.184 15.164 132 14.98 132.944 14.98C133.84 14.98 134.66 15.144 135.404 15.472C136.148 15.792 136.788 16.252 137.324 16.852C137.868 17.444 138.288 18.144 138.584 18.952C138.888 19.76 139.04 20.648 139.04 21.616C139.04 22.904 138.78 24.048 138.26 25.048C137.74 26.048 137.008 26.832 136.064 27.4C135.128 27.96 134.024 28.24 132.752 28.24ZM140.133 33.04V31.552H142.689V16.708H140.133V15.22H144.417V19.792L144.369 21.16V21.916L144.417 22.996V31.552H146.925V33.04H140.133ZM149.241 28.24C148.185 28.24 147.237 28.008 146.397 27.544C145.565 27.08 144.877 26.42 144.333 25.564C143.789 24.7 143.429 23.668 143.253 22.468L144.369 21.64C144.369 22.624 144.557 23.496 144.933 24.256C145.309 25.008 145.849 25.6 146.553 26.032C147.257 26.464 148.093 26.68 149.061 26.68C150.013 26.68 150.841 26.464 151.545 26.032C152.249 25.6 152.789 25.004 153.165 24.244C153.549 23.476 153.741 22.6 153.741 21.616C153.741 20.616 153.545 19.736 153.153 18.976C152.761 18.216 152.213 17.62 151.509 17.188C150.805 16.748 149.989 16.528 149.061 16.528C148.109 16.528 147.281 16.748 146.577 17.188C145.873 17.62 145.329 18.22 144.945 18.988C144.561 19.756 144.369 20.64 144.369 21.64L144.093 18.916H144.501C144.645 18.212 144.925 17.564 145.341 16.972C145.757 16.372 146.305 15.892 146.985 15.532C147.673 15.164 148.489 14.98 149.433 14.98C150.329 14.98 151.149 15.144 151.893 15.472C152.637 15.792 153.277 16.252 153.813 16.852C154.357 17.444 154.777 18.144 155.073 18.952C155.377 19.76 155.529 20.648 155.529 21.616C155.529 22.904 155.269 24.048 154.749 25.048C154.229 26.048 153.497 26.832 152.553 27.4C151.617 27.96 150.513 28.24 149.241 28.24ZM164.179 28.228C162.859 28.228 161.715 27.948 160.747 27.388C159.779 26.828 159.031 26.056 158.503 25.072C157.975 24.08 157.711 22.94 157.711 21.652C157.711 20.348 157.975 19.196 158.503 18.196C159.039 17.196 159.783 16.412 160.735 15.844C161.695 15.276 162.811 14.992 164.083 14.992C165.363 14.992 166.471 15.272 167.407 15.832C168.343 16.392 169.063 17.168 169.567 18.16C170.071 19.152 170.323 20.296 170.323 21.592C170.323 21.744 170.319 21.864 170.311 21.952C170.311 22.04 170.303 22.116 170.287 22.18H168.583C168.591 22.084 168.595 21.98 168.595 21.868C168.603 21.748 168.607 21.612 168.607 21.46C168.607 20.508 168.423 19.664 168.055 18.928C167.695 18.184 167.179 17.6 166.507 17.176C165.835 16.752 165.027 16.54 164.083 16.54C163.163 16.54 162.355 16.76 161.659 17.2C160.963 17.632 160.423 18.232 160.039 19C159.655 19.76 159.463 20.644 159.463 21.652C159.463 22.628 159.651 23.492 160.027 24.244C160.411 24.988 160.955 25.572 161.659 25.996C162.363 26.42 163.199 26.632 164.167 26.632C165.175 26.632 166.047 26.396 166.783 25.924C167.527 25.444 168.079 24.792 168.439 23.968L170.071 24.58C169.599 25.708 168.843 26.6 167.803 27.256C166.771 27.904 165.563 28.228 164.179 28.228ZM158.803 22.18V20.848H169.771L170.275 22.18H158.803ZM182.606 28C182.278 28 182.026 27.896 181.85 27.688C181.682 27.48 181.598 27.188 181.598 26.812V22.972L181.754 22.576L181.67 21.124L181.598 20.368V19.396C181.598 18.74 181.462 18.204 181.19 17.788C180.926 17.372 180.542 17.064 180.038 16.864C179.534 16.664 178.926 16.564 178.214 16.564C177.15 16.564 176.326 16.776 175.742 17.2C175.166 17.616 174.782 18.244 174.59 19.084L172.934 18.736C173.094 17.896 173.394 17.2 173.834 16.648C174.274 16.088 174.858 15.672 175.586 15.4C176.322 15.12 177.218 14.98 178.274 14.98C179.378 14.98 180.302 15.136 181.046 15.448C181.798 15.752 182.366 16.22 182.75 16.852C183.134 17.484 183.326 18.3 183.326 19.3V26.512H185.21V28H182.606ZM176.582 28.168C175.254 28.168 174.246 27.876 173.558 27.292C172.87 26.7 172.526 25.832 172.526 24.688C172.526 23.632 172.83 22.828 173.438 22.276C174.046 21.716 175.022 21.296 176.366 21.016L182.114 19.792V21.028L176.654 22.264C175.87 22.448 175.282 22.72 174.89 23.08C174.506 23.432 174.314 23.932 174.314 24.58C174.314 25.284 174.53 25.812 174.962 26.164C175.394 26.508 176.026 26.68 176.858 26.68C177.778 26.68 178.602 26.468 179.33 26.044C180.058 25.62 180.63 24.996 181.046 24.172C181.462 23.348 181.67 22.332 181.67 21.124L182.126 23.956H181.514C181.314 25.292 180.794 26.328 179.954 27.064C179.122 27.8 177.998 28.168 176.582 28.168ZM191.055 26.512H193.551V28H186.699V26.512H189.327V16.708H186.699V15.22H191.055V26.512ZM195.963 17.056C195.819 17.016 195.663 16.984 195.495 16.96C195.335 16.936 195.159 16.924 194.967 16.924C193.783 16.924 192.835 17.368 192.123 18.256C191.411 19.136 191.055 20.36 191.055 21.928L190.647 19.132H191.139C191.251 18.284 191.483 17.556 191.835 16.948C192.187 16.332 192.643 15.86 193.203 15.532C193.771 15.196 194.435 15.028 195.195 15.028C195.339 15.028 195.467 15.036 195.579 15.052C195.699 15.06 195.827 15.076 195.963 15.1V17.056ZM207.263 28C206.935 28 206.683 27.896 206.507 27.688C206.339 27.48 206.255 27.188 206.255 26.812V22.972L206.411 22.576L206.327 21.124L206.255 20.368V19.396C206.255 18.74 206.119 18.204 205.847 17.788C205.583 17.372 205.199 17.064 204.695 16.864C204.191 16.664 203.583 16.564 202.871 16.564C201.807 16.564 200.983 16.776 200.399 17.2C199.823 17.616 199.439 18.244 199.247 19.084L197.591 18.736C197.751 17.896 198.051 17.2 198.491 16.648C198.931 16.088 199.515 15.672 200.243 15.4C200.979 15.12 201.875 14.98 202.931 14.98C204.035 14.98 204.959 15.136 205.703 15.448C206.455 15.752 207.023 16.22 207.407 16.852C207.791 17.484 207.983 18.3 207.983 19.3V26.512H209.867V28H207.263ZM201.239 28.168C199.911 28.168 198.903 27.876 198.215 27.292C197.527 26.7 197.183 25.832 197.183 24.688C197.183 23.632 197.487 22.828 198.095 22.276C198.703 21.716 199.679 21.296 201.023 21.016L206.771 19.792V21.028L201.311 22.264C200.527 22.448 199.939 22.72 199.547 23.08C199.163 23.432 198.971 23.932 198.971 24.58C198.971 25.284 199.187 25.812 199.619 26.164C200.051 26.508 200.683 26.68 201.515 26.68C202.435 26.68 203.259 26.468 203.987 26.044C204.715 25.62 205.287 24.996 205.703 24.172C206.119 23.348 206.327 22.332 206.327 21.124L206.783 23.956H206.171C205.971 25.292 205.451 26.328 204.611 27.064C203.779 27.8 202.655 28.168 201.239 28.168ZM215.713 26.512H217.993V28H211.357V26.512H213.985V16.708H211.357V15.22H215.713V26.512ZM223.081 26.512V19.828C223.081 18.78 222.845 17.956 222.373 17.356C221.901 16.756 221.157 16.456 220.141 16.456C219.317 16.456 218.569 16.66 217.897 17.068C217.225 17.476 216.693 18.068 216.301 18.844C215.909 19.62 215.713 20.56 215.713 21.664L215.317 19.108H215.797C215.949 18.236 216.241 17.496 216.673 16.888C217.105 16.272 217.657 15.804 218.329 15.484C219.009 15.156 219.789 14.992 220.669 14.992C222.061 14.992 223.097 15.396 223.777 16.204C224.465 17.004 224.809 18.136 224.809 19.6V26.512H227.269V28H220.837V26.512H223.081ZM235.187 28.228C233.859 28.228 232.703 27.948 231.719 27.388C230.743 26.828 229.983 26.056 229.439 25.072C228.903 24.08 228.635 22.94 228.635 21.652C228.635 20.676 228.783 19.784 229.079 18.976C229.375 18.16 229.799 17.456 230.351 16.864C230.903 16.264 231.559 15.804 232.319 15.484C233.079 15.156 233.927 14.992 234.863 14.992C235.767 14.992 236.519 15.14 237.119 15.436C237.727 15.724 238.199 16.124 238.535 16.636C238.871 17.14 239.087 17.72 239.183 18.376H239.603L239.255 20.188C239.151 19.468 238.915 18.836 238.547 18.292C238.179 17.74 237.699 17.312 237.107 17.008C236.515 16.696 235.831 16.54 235.055 16.54C234.127 16.54 233.311 16.76 232.607 17.2C231.911 17.632 231.367 18.232 230.975 19C230.591 19.76 230.399 20.644 230.399 21.652C230.399 22.628 230.595 23.492 230.987 24.244C231.387 24.988 231.943 25.572 232.655 25.996C233.375 26.42 234.223 26.632 235.199 26.632C236.207 26.632 237.075 26.412 237.803 25.972C238.531 25.524 239.063 24.924 239.399 24.172L240.995 24.88C240.539 25.912 239.807 26.728 238.799 27.328C237.799 27.928 236.595 28.228 235.187 28.228ZM239.255 20.188V15.22H240.983V20.188H239.255ZM249.611 28.228C248.291 28.228 247.147 27.948 246.179 27.388C245.211 26.828 244.463 26.056 243.935 25.072C243.407 24.08 243.143 22.94 243.143 21.652C243.143 20.348 243.407 19.196 243.935 18.196C244.471 17.196 245.215 16.412 246.167 15.844C247.127 15.276 248.243 14.992 249.515 14.992C250.795 14.992 251.903 15.272 252.839 15.832C253.775 16.392 254.495 17.168 254.999 18.16C255.503 19.152 255.755 20.296 255.755 21.592C255.755 21.744 255.751 21.864 255.743 21.952C255.743 22.04 255.735 22.116 255.719 22.18H254.015C254.023 22.084 254.027 21.98 254.027 21.868C254.035 21.748 254.039 21.612 254.039 21.46C254.039 20.508 253.855 19.664 253.487 18.928C253.127 18.184 252.611 17.6 251.939 17.176C251.267 16.752 250.459 16.54 249.515 16.54C248.595 16.54 247.787 16.76 247.091 17.2C246.395 17.632 245.855 18.232 245.471 19C245.087 19.76 244.895 20.644 244.895 21.652C244.895 22.628 245.083 23.492 245.459 24.244C245.843 24.988 246.387 25.572 247.091 25.996C247.795 26.42 248.631 26.632 249.599 26.632C250.607 26.632 251.479 26.396 252.215 25.924C252.959 25.444 253.511 24.792 253.871 23.968L255.503 24.58C255.031 25.708 254.275 26.6 253.235 27.256C252.203 27.904 250.995 28.228 249.611 28.228ZM244.235 22.18V20.848H255.203L255.707 22.18H244.235Z" fill="black"/>
<path d="M1 6.35211L6 1V39L1 33.6479V6.35211Z" fill="white"/>
<path d="M6 1L1 6.35211V33.6479L6 39" stroke="black" stroke-linecap="round"/>
<path d="M267 33.6479L262 39L262 1L267 6.35211L267 33.6479Z" fill="white"/>
<path d="M262 39L267 33.6479L267 6.35211L262 1" stroke="black" stroke-linecap="round"/>
</svg>
