<svg width="88" height="40" viewBox="0 0 88 40" fill="none" xmlns="http://www.w3.org/2000/svg">
<path d="M6 1H82V39H6V1Z" fill="white"/>
<path d="M6 1.5H82V0.5H6V1.5ZM82 38.5H6V39.5H82V38.5Z" fill="black"/>
<path d="M25.3697 31.552H27.8897V33.04H20.8577V31.552H23.6417V23.14L23.7017 22.156V21.268L23.6417 19.864V17.956L25.2137 14.956H25.3697V31.552ZM18.8897 14.98C19.9617 14.98 20.9177 15.184 21.7577 15.592C22.6057 15.992 23.3057 16.568 23.8577 17.32C24.4097 18.064 24.7777 18.952 24.9617 19.984L23.7137 21.616C23.7137 20.624 23.5217 19.748 23.1377 18.988C22.7617 18.228 22.2217 17.632 21.5177 17.2C20.8137 16.76 19.9777 16.54 19.0097 16.54C18.0337 16.54 17.1937 16.752 16.4897 17.176C15.7857 17.6 15.2457 18.196 14.8697 18.964C14.5017 19.724 14.3177 20.612 14.3177 21.628C14.3177 22.62 14.5137 23.496 14.9057 24.256C15.3057 25.016 15.8577 25.612 16.5617 26.044C17.2737 26.476 18.0897 26.692 19.0097 26.692C19.9697 26.692 20.7977 26.476 21.4937 26.044C22.1977 25.612 22.7417 25.016 23.1257 24.256C23.5177 23.488 23.7137 22.608 23.7137 21.616L23.9777 24.304H23.5697C23.4257 25.008 23.1457 25.66 22.7297 26.26C22.3137 26.852 21.7657 27.332 21.0857 27.7C20.4057 28.06 19.5897 28.24 18.6377 28.24C17.7497 28.24 16.9337 28.08 16.1897 27.76C15.4457 27.432 14.8017 26.972 14.2577 26.38C13.7137 25.78 13.2897 25.076 12.9857 24.268C12.6897 23.452 12.5417 22.56 12.5417 21.592C12.5417 20.296 12.8057 19.152 13.3337 18.16C13.8617 17.168 14.5977 16.392 15.5417 15.832C16.4937 15.264 17.6097 14.98 18.8897 14.98ZM39.1298 16.708H36.6578V15.22H40.8578V26.512H43.3538V28H39.1298V16.708ZM31.9898 15.22V23.368C31.9898 24.416 32.2218 25.244 32.6858 25.852C33.1578 26.452 33.8978 26.752 34.9058 26.752C35.7138 26.752 36.4338 26.548 37.0658 26.14C37.7058 25.724 38.2098 25.128 38.5778 24.352C38.9458 23.576 39.1298 22.644 39.1298 21.556L39.5498 24.112H39.0458C38.8298 25.488 38.2938 26.528 37.4378 27.232C36.5898 27.928 35.5458 28.276 34.3058 28.276C32.9298 28.276 31.9098 27.868 31.2458 27.052C30.5898 26.236 30.2618 25.104 30.2618 23.656V16.708H27.9458V15.22H31.9898ZM49.183 26.512H51.643V28H44.863V26.512H47.455V16.708H44.863V15.22H49.183V26.512ZM47.131 9.832H49.339V12.124H47.131V9.832ZM59.6526 28.228C58.3326 28.228 57.1886 27.948 56.2206 27.388C55.2526 26.828 54.5046 26.056 53.9766 25.072C53.4486 24.08 53.1846 22.94 53.1846 21.652C53.1846 20.348 53.4486 19.196 53.9766 18.196C54.5126 17.196 55.2566 16.412 56.2086 15.844C57.1686 15.276 58.2846 14.992 59.5566 14.992C60.8366 14.992 61.9446 15.272 62.8806 15.832C63.8166 16.392 64.5366 17.168 65.0406 18.16C65.5446 19.152 65.7966 20.296 65.7966 21.592C65.7966 21.744 65.7926 21.864 65.7846 21.952C65.7846 22.04 65.7766 22.116 65.7606 22.18H64.0566C64.0646 22.084 64.0686 21.98 64.0686 21.868C64.0766 21.748 64.0806 21.612 64.0806 21.46C64.0806 20.508 63.8966 19.664 63.5286 18.928C63.1686 18.184 62.6526 17.6 61.9806 17.176C61.3086 16.752 60.5006 16.54 59.5566 16.54C58.6366 16.54 57.8286 16.76 57.1326 17.2C56.4366 17.632 55.8966 18.232 55.5126 19C55.1286 19.76 54.9366 20.644 54.9366 21.652C54.9366 22.628 55.1246 23.492 55.5006 24.244C55.8846 24.988 56.4286 25.572 57.1326 25.996C57.8366 26.42 58.6726 26.632 59.6406 26.632C60.6486 26.632 61.5206 26.396 62.2566 25.924C63.0006 25.444 63.5526 24.792 63.9126 23.968L65.5446 24.58C65.0726 25.708 64.3166 26.6 63.2766 27.256C62.2446 27.904 61.0366 28.228 59.6526 28.228ZM54.2766 22.18V20.848H65.2446L65.7486 22.18H54.2766ZM71.1201 24.616C71.1201 25.288 71.2481 25.796 71.5041 26.14C71.7601 26.476 72.1521 26.644 72.6801 26.644C73.2001 26.644 73.5921 26.472 73.8561 26.128C74.1201 25.776 74.2521 25.272 74.2521 24.616V23.428H75.8121V24.604C75.8121 25.372 75.6961 26.028 75.4641 26.572C75.2401 27.108 74.8961 27.52 74.4321 27.808C73.9681 28.088 73.3721 28.228 72.6441 28.228C71.9001 28.228 71.2881 28.084 70.8081 27.796C70.3281 27.5 69.9721 27.084 69.7401 26.548C69.5081 26.012 69.3921 25.368 69.3921 24.616L69.4041 16.708H67.1241V15.22H69.4041V11.98H71.1321V15.22H75.6441L75.6321 16.708H71.1321L71.1201 24.616Z" fill="black"/>
<path d="M1 6.35211L6 1V39L1 33.6479V6.35211Z" fill="white"/>
<path d="M6 1L1 6.35211V33.6479L6 39" stroke="black" stroke-linecap="round"/>
<path d="M87 33.6479L82 39L82 1L87 6.35211L87 33.6479Z" fill="white"/>
<path d="M82 39L87 33.6479L87 6.35211L82 1" stroke="black" stroke-linecap="round"/>
</svg>
