<svg width="189" height="40" viewBox="0 0 189 40" fill="none" xmlns="http://www.w3.org/2000/svg">
<path d="M6 1H183V39H6V1Z" fill="white"/>
<path d="M6 1.5H183V0.5H6V1.5ZM183 38.5H6V39.5H183V38.5Z" fill="black"/>
<path d="M17.0803 26.512H19.5403V28H12.7603V26.512H15.3523V16.708H12.7603V15.22H17.0803V26.512ZM15.0283 9.832H17.2363V12.124H15.0283V9.832ZM25.2459 26.512H27.5259V28H20.8899V26.512H23.5179V16.708H20.8899V15.22H25.2459V26.512ZM32.6139 26.512V19.828C32.6139 18.78 32.3779 17.956 31.9059 17.356C31.4339 16.756 30.6899 16.456 29.6739 16.456C28.8499 16.456 28.1019 16.66 27.4299 17.068C26.7579 17.476 26.2259 18.068 25.8339 18.844C25.4419 19.62 25.2459 20.56 25.2459 21.664L24.8499 19.108H25.3299C25.4819 18.236 25.7739 17.496 26.2059 16.888C26.6379 16.272 27.1899 15.804 27.8619 15.484C28.5419 15.156 29.3219 14.992 30.2019 14.992C31.5939 14.992 32.6299 15.396 33.3099 16.204C33.9979 17.004 34.3419 18.136 34.3419 19.6V26.512H36.8019V28H30.3699V26.512H32.6139ZM41.4549 24.616C41.4549 25.288 41.5829 25.796 41.8389 26.14C42.0949 26.476 42.4869 26.644 43.0149 26.644C43.5349 26.644 43.9269 26.472 44.1909 26.128C44.4549 25.776 44.5869 25.272 44.5869 24.616V23.428H46.1469V24.604C46.1469 25.372 46.0309 26.028 45.7989 26.572C45.5749 27.108 45.2309 27.52 44.7669 27.808C44.3029 28.088 43.7069 28.228 42.9789 28.228C42.2349 28.228 41.6229 28.084 41.1429 27.796C40.6629 27.5 40.3069 27.084 40.0749 26.548C39.8429 26.012 39.7269 25.368 39.7269 24.616L39.7389 16.708H37.4589V15.22H39.7389V11.98H41.4669V15.22H45.9789L45.9669 16.708H41.4669L41.4549 24.616ZM52.2 26.512H54.696V28H47.844V26.512H50.472V16.708H47.844V15.22H52.2V26.512ZM57.108 17.056C56.964 17.016 56.808 16.984 56.64 16.96C56.48 16.936 56.304 16.924 56.112 16.924C54.928 16.924 53.98 17.368 53.268 18.256C52.556 19.136 52.2 20.36 52.2 21.928L51.792 19.132H52.284C52.396 18.284 52.628 17.556 52.98 16.948C53.332 16.332 53.788 15.86 54.348 15.532C54.916 15.196 55.58 15.028 56.34 15.028C56.484 15.028 56.612 15.036 56.724 15.052C56.844 15.06 56.972 15.076 57.108 15.1V17.056ZM64.8206 28.228C63.4926 28.228 62.3286 27.948 61.3286 27.388C60.3286 26.82 59.5486 26.044 58.9886 25.06C58.4286 24.076 58.1486 22.94 58.1486 21.652C58.1486 20.356 58.4286 19.208 58.9886 18.208C59.5486 17.2 60.3286 16.412 61.3286 15.844C62.3286 15.276 63.4926 14.992 64.8206 14.992C66.1486 14.992 67.3126 15.276 68.3126 15.844C69.3126 16.412 70.0926 17.2 70.6526 18.208C71.2126 19.208 71.4926 20.356 71.4926 21.652C71.4926 22.94 71.2126 24.076 70.6526 25.06C70.0926 26.044 69.3126 26.82 68.3126 27.388C67.3126 27.948 66.1486 28.228 64.8206 28.228ZM64.8206 26.632C65.7806 26.632 66.6246 26.424 67.3526 26.008C68.0886 25.592 68.6606 25.012 69.0686 24.268C69.4846 23.516 69.6926 22.644 69.6926 21.652C69.6926 20.652 69.4846 19.772 69.0686 19.012C68.6606 18.252 68.0886 17.66 67.3526 17.236C66.6246 16.804 65.7806 16.588 64.8206 16.588C63.8606 16.588 63.0126 16.804 62.2766 17.236C61.5486 17.66 60.9766 18.252 60.5606 19.012C60.1526 19.772 59.9486 20.652 59.9486 21.652C59.9486 22.644 60.1526 23.516 60.5606 24.268C60.9766 25.012 61.5486 25.592 62.2766 26.008C63.0126 26.424 63.8606 26.632 64.8206 26.632ZM79.8456 28.228C78.9896 28.228 78.2656 28.1 77.6736 27.844C77.0896 27.588 76.6256 27.248 76.2816 26.824C75.9376 26.392 75.7136 25.912 75.6096 25.384H75.1776L75.5256 23.968C75.6776 24.808 76.0936 25.492 76.7736 26.02C77.4616 26.548 78.3536 26.812 79.4496 26.812C80.3856 26.812 81.1096 26.624 81.6216 26.248C82.1416 25.864 82.4016 25.308 82.4016 24.58C82.4016 23.916 82.1456 23.4 81.6336 23.032C81.1216 22.664 80.2256 22.384 78.9456 22.192C77.1136 21.904 75.8096 21.452 75.0336 20.836C74.2576 20.212 73.8696 19.392 73.8696 18.376C73.8696 17.352 74.2256 16.532 74.9376 15.916C75.6496 15.3 76.6416 14.992 77.9136 14.992C78.7536 14.992 79.4456 15.12 79.9896 15.376C80.5416 15.632 80.9656 15.976 81.2616 16.408C81.5576 16.832 81.7496 17.3 81.8376 17.812H82.2696L81.9216 19.168C81.7776 18.352 81.3856 17.688 80.7456 17.176C80.1056 16.656 79.2696 16.396 78.2376 16.396C77.4056 16.396 76.7536 16.572 76.2816 16.924C75.8176 17.276 75.5856 17.744 75.5856 18.328C75.5856 18.944 75.8776 19.428 76.4616 19.78C77.0456 20.124 77.9656 20.396 79.2216 20.596C80.9976 20.876 82.2576 21.336 83.0016 21.976C83.7456 22.616 84.1176 23.48 84.1176 24.568C84.1176 25.712 83.7496 26.608 83.0136 27.256C82.2856 27.904 81.2296 28.228 79.8456 28.228ZM73.7976 28V23.968H75.5256V28H73.7976ZM81.9216 19.168V15.22H83.6496V19.168H81.9216ZM85.8666 33.04V31.552H88.4226V16.708H85.8666V15.22H90.1506V19.792L90.1026 21.16V21.916L90.1506 22.996V31.552H92.6586V33.04H85.8666ZM94.9746 28.24C93.9186 28.24 92.9706 28.008 92.1306 27.544C91.2986 27.08 90.6106 26.42 90.0666 25.564C89.5226 24.7 89.1626 23.668 88.9866 22.468L90.1026 21.64C90.1026 22.624 90.2906 23.496 90.6666 24.256C91.0426 25.008 91.5826 25.6 92.2866 26.032C92.9906 26.464 93.8266 26.68 94.7946 26.68C95.7466 26.68 96.5746 26.464 97.2786 26.032C97.9826 25.6 98.5226 25.004 98.8986 24.244C99.2826 23.476 99.4746 22.6 99.4746 21.616C99.4746 20.616 99.2786 19.736 98.8866 18.976C98.4946 18.216 97.9466 17.62 97.2426 17.188C96.5386 16.748 95.7226 16.528 94.7946 16.528C93.8426 16.528 93.0146 16.748 92.3106 17.188C91.6066 17.62 91.0626 18.22 90.6786 18.988C90.2946 19.756 90.1026 20.64 90.1026 21.64L89.8266 18.916H90.2346C90.3786 18.212 90.6586 17.564 91.0746 16.972C91.4906 16.372 92.0386 15.892 92.7186 15.532C93.4066 15.164 94.2226 14.98 95.1666 14.98C96.0626 14.98 96.8826 15.144 97.6266 15.472C98.3706 15.792 99.0106 16.252 99.5466 16.852C100.091 17.444 100.511 18.144 100.807 18.952C101.111 19.76 101.263 20.648 101.263 21.616C101.263 22.904 101.003 24.048 100.483 25.048C99.9626 26.048 99.2306 26.832 98.2866 27.4C97.3506 27.96 96.2466 28.24 94.9746 28.24ZM109.912 28.228C108.592 28.228 107.448 27.948 106.48 27.388C105.512 26.828 104.764 26.056 104.236 25.072C103.708 24.08 103.444 22.94 103.444 21.652C103.444 20.348 103.708 19.196 104.236 18.196C104.772 17.196 105.516 16.412 106.468 15.844C107.428 15.276 108.544 14.992 109.816 14.992C111.096 14.992 112.204 15.272 113.14 15.832C114.076 16.392 114.796 17.168 115.3 18.16C115.804 19.152 116.056 20.296 116.056 21.592C116.056 21.744 116.052 21.864 116.044 21.952C116.044 22.04 116.036 22.116 116.02 22.18H114.316C114.324 22.084 114.328 21.98 114.328 21.868C114.336 21.748 114.34 21.612 114.34 21.46C114.34 20.508 114.156 19.664 113.788 18.928C113.428 18.184 112.912 17.6 112.24 17.176C111.568 16.752 110.76 16.54 109.816 16.54C108.896 16.54 108.088 16.76 107.392 17.2C106.696 17.632 106.156 18.232 105.772 19C105.388 19.76 105.196 20.644 105.196 21.652C105.196 22.628 105.384 23.492 105.76 24.244C106.144 24.988 106.688 25.572 107.392 25.996C108.096 26.42 108.932 26.632 109.9 26.632C110.908 26.632 111.78 26.396 112.516 25.924C113.26 25.444 113.812 24.792 114.172 23.968L115.804 24.58C115.332 25.708 114.576 26.6 113.536 27.256C112.504 27.904 111.296 28.228 109.912 28.228ZM104.536 22.18V20.848H115.504L116.008 22.18H104.536ZM124.716 28.228C123.388 28.228 122.232 27.948 121.248 27.388C120.272 26.828 119.512 26.056 118.968 25.072C118.432 24.08 118.164 22.94 118.164 21.652C118.164 20.676 118.312 19.784 118.608 18.976C118.904 18.16 119.328 17.456 119.88 16.864C120.432 16.264 121.088 15.804 121.848 15.484C122.608 15.156 123.456 14.992 124.392 14.992C125.296 14.992 126.048 15.14 126.648 15.436C127.256 15.724 127.728 16.124 128.064 16.636C128.4 17.14 128.616 17.72 128.712 18.376H129.132L128.784 20.188C128.68 19.468 128.444 18.836 128.076 18.292C127.708 17.74 127.228 17.312 126.636 17.008C126.044 16.696 125.36 16.54 124.584 16.54C123.656 16.54 122.84 16.76 122.136 17.2C121.44 17.632 120.896 18.232 120.504 19C120.12 19.76 119.928 20.644 119.928 21.652C119.928 22.628 120.124 23.492 120.516 24.244C120.916 24.988 121.472 25.572 122.184 25.996C122.904 26.42 123.752 26.632 124.728 26.632C125.736 26.632 126.604 26.412 127.332 25.972C128.06 25.524 128.592 24.924 128.928 24.172L130.524 24.88C130.068 25.912 129.336 26.728 128.328 27.328C127.328 27.928 126.124 28.228 124.716 28.228ZM128.784 20.188V15.22H130.512V20.188H128.784ZM135.9 24.616C135.9 25.288 136.028 25.796 136.284 26.14C136.54 26.476 136.932 26.644 137.46 26.644C137.98 26.644 138.372 26.472 138.636 26.128C138.9 25.776 139.032 25.272 139.032 24.616V23.428H140.592V24.604C140.592 25.372 140.476 26.028 140.244 26.572C140.02 27.108 139.676 27.52 139.212 27.808C138.748 28.088 138.152 28.228 137.424 28.228C136.68 28.228 136.068 28.084 135.588 27.796C135.108 27.5 134.752 27.084 134.52 26.548C134.288 26.012 134.172 25.368 134.172 24.616L134.184 16.708H131.904V15.22H134.184V11.98H135.912V15.22H140.424L140.412 16.708H135.912L135.9 24.616ZM146.765 26.512H149.225V28H142.445V26.512H145.037V16.708H142.445V15.22H146.765V26.512ZM144.713 9.832H146.921V12.124H144.713V9.832ZM157.931 15.22H163.595V16.708H162.155L157.451 28H155.579L150.719 16.708H149.291V15.22H155.087V16.708H152.591L157.307 28L155.687 26.188H157.331L155.927 28L160.427 16.708H157.931V15.22ZM170.676 28.228C169.356 28.228 168.212 27.948 167.244 27.388C166.276 26.828 165.528 26.056 165 25.072C164.472 24.08 164.208 22.94 164.208 21.652C164.208 20.348 164.472 19.196 165 18.196C165.536 17.196 166.28 16.412 167.232 15.844C168.192 15.276 169.308 14.992 170.58 14.992C171.86 14.992 172.968 15.272 173.904 15.832C174.84 16.392 175.56 17.168 176.064 18.16C176.568 19.152 176.82 20.296 176.82 21.592C176.82 21.744 176.816 21.864 176.808 21.952C176.808 22.04 176.8 22.116 176.784 22.18H175.08C175.088 22.084 175.092 21.98 175.092 21.868C175.1 21.748 175.104 21.612 175.104 21.46C175.104 20.508 174.92 19.664 174.552 18.928C174.192 18.184 173.676 17.6 173.004 17.176C172.332 16.752 171.524 16.54 170.58 16.54C169.66 16.54 168.852 16.76 168.156 17.2C167.46 17.632 166.92 18.232 166.536 19C166.152 19.76 165.96 20.644 165.96 21.652C165.96 22.628 166.148 23.492 166.524 24.244C166.908 24.988 167.452 25.572 168.156 25.996C168.86 26.42 169.696 26.632 170.664 26.632C171.672 26.632 172.544 26.396 173.28 25.924C174.024 25.444 174.576 24.792 174.936 23.968L176.568 24.58C176.096 25.708 175.34 26.6 174.3 27.256C173.268 27.904 172.06 28.228 170.676 28.228ZM165.3 22.18V20.848H176.268L176.772 22.18H165.3Z" fill="black"/>
<path d="M1 6.35211L6 1V39L1 33.6479V6.35211Z" fill="white"/>
<path d="M6 1L1 6.35211V33.6479L6 39" stroke="black" stroke-linecap="round"/>
<path d="M188 33.6479L183 39L183 1L188 6.35211L188 33.6479Z" fill="white"/>
<path d="M183 39L188 33.6479L188 6.35211L183 1" stroke="black" stroke-linecap="round"/>
</svg>
