<svg width="134" height="40" viewBox="0 0 134 40" fill="none" xmlns="http://www.w3.org/2000/svg">
<path d="M6 1H128V39H6V1Z" fill="white"/>
<path d="M6 1.5H128V0.5H6V1.5ZM128 38.5H6V39.5H128V38.5Z" fill="black"/>
<path d="M18.6879 28.228C17.8319 28.228 17.1079 28.1 16.5159 27.844C15.9319 27.588 15.4679 27.248 15.1239 26.824C14.7799 26.392 14.5559 25.912 14.4519 25.384H14.0199L14.3679 23.968C14.5199 24.808 14.9359 25.492 15.6159 26.02C16.3039 26.548 17.1959 26.812 18.2919 26.812C19.2279 26.812 19.9519 26.624 20.4639 26.248C20.9839 25.864 21.2439 25.308 21.2439 24.58C21.2439 23.916 20.9879 23.4 20.4759 23.032C19.9639 22.664 19.0679 22.384 17.7879 22.192C15.9559 21.904 14.6519 21.452 13.8759 20.836C13.0999 20.212 12.7119 19.392 12.7119 18.376C12.7119 17.352 13.0679 16.532 13.7799 15.916C14.4919 15.3 15.4839 14.992 16.7559 14.992C17.5959 14.992 18.2879 15.12 18.8319 15.376C19.3839 15.632 19.8079 15.976 20.1039 16.408C20.3999 16.832 20.5919 17.3 20.6799 17.812H21.1119L20.7639 19.168C20.6199 18.352 20.2279 17.688 19.5879 17.176C18.9479 16.656 18.1119 16.396 17.0799 16.396C16.2479 16.396 15.5959 16.572 15.1239 16.924C14.6599 17.276 14.4279 17.744 14.4279 18.328C14.4279 18.944 14.7199 19.428 15.3039 19.78C15.8879 20.124 16.8079 20.396 18.0639 20.596C19.8399 20.876 21.0999 21.336 21.8439 21.976C22.5879 22.616 22.9599 23.48 22.9599 24.568C22.9599 25.712 22.5919 26.608 21.8559 27.256C21.1279 27.904 20.0719 28.228 18.6879 28.228ZM12.6399 28V23.968H14.3679V28H12.6399ZM20.7639 19.168V15.22H22.4919V19.168H20.7639ZM31.6329 28.228C30.3129 28.228 29.1689 27.948 28.2009 27.388C27.2329 26.828 26.4849 26.056 25.9569 25.072C25.4289 24.08 25.1649 22.94 25.1649 21.652C25.1649 20.348 25.4289 19.196 25.9569 18.196C26.4929 17.196 27.2369 16.412 28.1889 15.844C29.1489 15.276 30.2649 14.992 31.5369 14.992C32.8169 14.992 33.9249 15.272 34.8609 15.832C35.7969 16.392 36.5169 17.168 37.0209 18.16C37.5249 19.152 37.7769 20.296 37.7769 21.592C37.7769 21.744 37.7729 21.864 37.7649 21.952C37.7649 22.04 37.7569 22.116 37.7409 22.18H36.0369C36.0449 22.084 36.0489 21.98 36.0489 21.868C36.0569 21.748 36.0609 21.612 36.0609 21.46C36.0609 20.508 35.8769 19.664 35.5089 18.928C35.1489 18.184 34.6329 17.6 33.9609 17.176C33.2889 16.752 32.4809 16.54 31.5369 16.54C30.6169 16.54 29.8089 16.76 29.1129 17.2C28.4169 17.632 27.8769 18.232 27.4929 19C27.1089 19.76 26.9169 20.644 26.9169 21.652C26.9169 22.628 27.1049 23.492 27.4809 24.244C27.8649 24.988 28.4089 25.572 29.1129 25.996C29.8169 26.42 30.6529 26.632 31.6209 26.632C32.6289 26.632 33.5009 26.396 34.2369 25.924C34.9809 25.444 35.5329 24.792 35.8929 23.968L37.5249 24.58C37.0529 25.708 36.2969 26.6 35.2569 27.256C34.2249 27.904 33.0169 28.228 31.6329 28.228ZM26.2569 22.18V20.848H37.2249L37.7289 22.18H26.2569ZM44.0364 26.512H46.3164V28H39.6804V26.512H42.3084V16.708H39.6804V15.22H44.0364V26.512ZM51.4044 26.512V19.828C51.4044 18.78 51.1684 17.956 50.6964 17.356C50.2244 16.756 49.4804 16.456 48.4644 16.456C47.6404 16.456 46.8924 16.66 46.2204 17.068C45.5484 17.476 45.0164 18.068 44.6244 18.844C44.2324 19.62 44.0364 20.56 44.0364 21.664L43.6404 19.108H44.1204C44.2724 18.236 44.5644 17.496 44.9964 16.888C45.4284 16.272 45.9804 15.804 46.6524 15.484C47.3324 15.156 48.1124 14.992 48.9924 14.992C50.3844 14.992 51.4204 15.396 52.1004 16.204C52.7884 17.004 53.1324 18.136 53.1324 19.6V26.512H55.5924V28H49.1604V26.512H51.4044ZM63.1854 28.228C62.3294 28.228 61.6054 28.1 61.0134 27.844C60.4294 27.588 59.9654 27.248 59.6214 26.824C59.2774 26.392 59.0534 25.912 58.9494 25.384H58.5174L58.8654 23.968C59.0174 24.808 59.4334 25.492 60.1134 26.02C60.8014 26.548 61.6934 26.812 62.7894 26.812C63.7254 26.812 64.4494 26.624 64.9614 26.248C65.4814 25.864 65.7414 25.308 65.7414 24.58C65.7414 23.916 65.4854 23.4 64.9734 23.032C64.4614 22.664 63.5654 22.384 62.2854 22.192C60.4534 21.904 59.1494 21.452 58.3734 20.836C57.5974 20.212 57.2094 19.392 57.2094 18.376C57.2094 17.352 57.5654 16.532 58.2774 15.916C58.9894 15.3 59.9814 14.992 61.2534 14.992C62.0934 14.992 62.7854 15.12 63.3294 15.376C63.8814 15.632 64.3054 15.976 64.6014 16.408C64.8974 16.832 65.0894 17.3 65.1774 17.812H65.6094L65.2614 19.168C65.1174 18.352 64.7254 17.688 64.0854 17.176C63.4454 16.656 62.6094 16.396 61.5774 16.396C60.7454 16.396 60.0934 16.572 59.6214 16.924C59.1574 17.276 58.9254 17.744 58.9254 18.328C58.9254 18.944 59.2174 19.428 59.8014 19.78C60.3854 20.124 61.3054 20.396 62.5614 20.596C64.3374 20.876 65.5974 21.336 66.3414 21.976C67.0854 22.616 67.4574 23.48 67.4574 24.568C67.4574 25.712 67.0894 26.608 66.3534 27.256C65.6254 27.904 64.5694 28.228 63.1854 28.228ZM57.1374 28V23.968H58.8654V28H57.1374ZM65.2614 19.168V15.22H66.9894V19.168H65.2614ZM73.9464 26.512H76.4064V28H69.6264V26.512H72.2184V16.708H69.6264V15.22H73.9464V26.512ZM71.8944 9.832H74.1024V12.124H71.8944V9.832ZM81.176 24.616C81.176 25.288 81.304 25.796 81.56 26.14C81.816 26.476 82.208 26.644 82.736 26.644C83.256 26.644 83.648 26.472 83.912 26.128C84.176 25.776 84.308 25.272 84.308 24.616V23.428H85.868V24.604C85.868 25.372 85.752 26.028 85.52 26.572C85.296 27.108 84.952 27.52 84.488 27.808C84.024 28.088 83.428 28.228 82.7 28.228C81.956 28.228 81.344 28.084 80.864 27.796C80.384 27.5 80.028 27.084 79.796 26.548C79.564 26.012 79.448 25.368 79.448 24.616L79.46 16.708H77.18V15.22H79.46V11.98H81.188V15.22H85.7L85.688 16.708H81.188L81.176 24.616ZM92.0411 26.512H94.5011V28H87.7211V26.512H90.3131V16.708H87.7211V15.22H92.0411V26.512ZM89.9891 9.832H92.1971V12.124H89.9891V9.832ZM103.207 15.22H108.871V16.708H107.431L102.727 28H100.855L95.9951 16.708H94.5671V15.22H100.363V16.708H97.8671L102.583 28L100.963 26.188H102.607L101.203 28L105.703 16.708H103.207V15.22ZM115.953 28.228C114.633 28.228 113.489 27.948 112.521 27.388C111.553 26.828 110.805 26.056 110.277 25.072C109.749 24.08 109.485 22.94 109.485 21.652C109.485 20.348 109.749 19.196 110.277 18.196C110.813 17.196 111.557 16.412 112.509 15.844C113.469 15.276 114.585 14.992 115.857 14.992C117.137 14.992 118.245 15.272 119.181 15.832C120.117 16.392 120.837 17.168 121.341 18.16C121.845 19.152 122.097 20.296 122.097 21.592C122.097 21.744 122.093 21.864 122.085 21.952C122.085 22.04 122.077 22.116 122.061 22.18H120.357C120.365 22.084 120.369 21.98 120.369 21.868C120.377 21.748 120.381 21.612 120.381 21.46C120.381 20.508 120.197 19.664 119.829 18.928C119.469 18.184 118.953 17.6 118.281 17.176C117.609 16.752 116.801 16.54 115.857 16.54C114.937 16.54 114.129 16.76 113.433 17.2C112.737 17.632 112.197 18.232 111.813 19C111.429 19.76 111.237 20.644 111.237 21.652C111.237 22.628 111.425 23.492 111.801 24.244C112.185 24.988 112.729 25.572 113.433 25.996C114.137 26.42 114.973 26.632 115.941 26.632C116.949 26.632 117.821 26.396 118.557 25.924C119.301 25.444 119.853 24.792 120.213 23.968L121.845 24.58C121.373 25.708 120.617 26.6 119.577 27.256C118.545 27.904 117.337 28.228 115.953 28.228ZM110.577 22.18V20.848H121.545L122.049 22.18H110.577Z" fill="black"/>
<path d="M1 6.35211L6 1V39L1 33.6479V6.35211Z" fill="white"/>
<path d="M6 1L1 6.35211V33.6479L6 39" stroke="black" stroke-linecap="round"/>
<path d="M133 33.6479L128 39L128 1L133 6.35211L133 33.6479Z" fill="white"/>
<path d="M128 39L133 33.6479L133 6.35211L128 1" stroke="black" stroke-linecap="round"/>
</svg>
