<svg width="193" height="40" viewBox="0 0 193 40" fill="none" xmlns="http://www.w3.org/2000/svg">
<path d="M6 1H187V39H6V1Z" fill="white"/>
<path d="M6 1.5H187V0.5H6V1.5ZM187 38.5H6V39.5H187V38.5Z" fill="black"/>
<path d="M18.7963 28.228C17.9403 28.228 17.2163 28.1 16.6243 27.844C16.0403 27.588 15.5763 27.248 15.2323 26.824C14.8883 26.392 14.6643 25.912 14.5603 25.384H14.1283L14.4763 23.968C14.6283 24.808 15.0443 25.492 15.7243 26.02C16.4123 26.548 17.3043 26.812 18.4003 26.812C19.3363 26.812 20.0603 26.624 20.5723 26.248C21.0923 25.864 21.3523 25.308 21.3523 24.58C21.3523 23.916 21.0963 23.4 20.5843 23.032C20.0723 22.664 19.1763 22.384 17.8963 22.192C16.0643 21.904 14.7603 21.452 13.9843 20.836C13.2083 20.212 12.8203 19.392 12.8203 18.376C12.8203 17.352 13.1763 16.532 13.8883 15.916C14.6003 15.3 15.5923 14.992 16.8643 14.992C17.7043 14.992 18.3963 15.12 18.9403 15.376C19.4923 15.632 19.9163 15.976 20.2123 16.408C20.5083 16.832 20.7003 17.3 20.7883 17.812H21.2203L20.8723 19.168C20.7283 18.352 20.3363 17.688 19.6963 17.176C19.0563 16.656 18.2203 16.396 17.1883 16.396C16.3563 16.396 15.7043 16.572 15.2323 16.924C14.7683 17.276 14.5363 17.744 14.5363 18.328C14.5363 18.944 14.8283 19.428 15.4123 19.78C15.9963 20.124 16.9163 20.396 18.1723 20.596C19.9483 20.876 21.2083 21.336 21.9523 21.976C22.6963 22.616 23.0683 23.48 23.0683 24.568C23.0683 25.712 22.7003 26.608 21.9643 27.256C21.2363 27.904 20.1803 28.228 18.7963 28.228ZM12.7483 28V23.968H14.4763V28H12.7483ZM20.8723 19.168V15.22H22.6003V19.168H20.8723ZM31.8973 28.228C30.5693 28.228 29.4053 27.948 28.4053 27.388C27.4053 26.82 26.6253 26.044 26.0653 25.06C25.5053 24.076 25.2253 22.94 25.2253 21.652C25.2253 20.356 25.5053 19.208 26.0653 18.208C26.6253 17.2 27.4053 16.412 28.4053 15.844C29.4053 15.276 30.5693 14.992 31.8973 14.992C33.2253 14.992 34.3893 15.276 35.3893 15.844C36.3893 16.412 37.1693 17.2 37.7293 18.208C38.2893 19.208 38.5693 20.356 38.5693 21.652C38.5693 22.94 38.2893 24.076 37.7293 25.06C37.1693 26.044 36.3893 26.82 35.3893 27.388C34.3893 27.948 33.2253 28.228 31.8973 28.228ZM31.8973 26.632C32.8573 26.632 33.7013 26.424 34.4293 26.008C35.1653 25.592 35.7373 25.012 36.1453 24.268C36.5613 23.516 36.7693 22.644 36.7693 21.652C36.7693 20.652 36.5613 19.772 36.1453 19.012C35.7373 18.252 35.1653 17.66 34.4293 17.236C33.7013 16.804 32.8573 16.588 31.8973 16.588C30.9373 16.588 30.0893 16.804 29.3533 17.236C28.6253 17.66 28.0533 18.252 27.6373 19.012C27.2293 19.772 27.0253 20.652 27.0253 21.652C27.0253 22.644 27.2293 23.516 27.6373 24.268C28.0533 25.012 28.6253 25.592 29.3533 26.008C30.0893 26.424 30.9373 26.632 31.8973 26.632ZM39.6655 33.04V31.552H42.2215V16.708H39.6655V15.22H43.9495V19.792L43.9015 21.16V21.916L43.9495 22.996V31.552H46.4575V33.04H39.6655ZM48.7735 28.24C47.7175 28.24 46.7695 28.008 45.9295 27.544C45.0975 27.08 44.4095 26.42 43.8655 25.564C43.3215 24.7 42.9615 23.668 42.7855 22.468L43.9015 21.64C43.9015 22.624 44.0895 23.496 44.4655 24.256C44.8415 25.008 45.3815 25.6 46.0855 26.032C46.7895 26.464 47.6255 26.68 48.5935 26.68C49.5455 26.68 50.3735 26.464 51.0775 26.032C51.7815 25.6 52.3215 25.004 52.6975 24.244C53.0815 23.476 53.2735 22.6 53.2735 21.616C53.2735 20.616 53.0775 19.736 52.6855 18.976C52.2935 18.216 51.7455 17.62 51.0415 17.188C50.3375 16.748 49.5215 16.528 48.5935 16.528C47.6415 16.528 46.8135 16.748 46.1095 17.188C45.4055 17.62 44.8615 18.22 44.4775 18.988C44.0935 19.756 43.9015 20.64 43.9015 21.64L43.6255 18.916H44.0335C44.1775 18.212 44.4575 17.564 44.8735 16.972C45.2895 16.372 45.8375 15.892 46.5175 15.532C47.2055 15.164 48.0215 14.98 48.9655 14.98C49.8615 14.98 50.6815 15.144 51.4255 15.472C52.1695 15.792 52.8095 16.252 53.3455 16.852C53.8895 17.444 54.3095 18.144 54.6055 18.952C54.9095 19.76 55.0615 20.648 55.0615 21.616C55.0615 22.904 54.8015 24.048 54.2815 25.048C53.7615 26.048 53.0295 26.832 52.0855 27.4C51.1495 27.96 50.0455 28.24 48.7735 28.24ZM60.7189 26.512H62.9869V28H56.4229V26.512H58.9909V10.528H56.4229V9.04H60.7189V26.512ZM68.0869 26.512V19.792C68.0869 18.752 67.8509 17.936 67.3789 17.344C66.9149 16.752 66.1829 16.456 65.1829 16.456C64.3429 16.456 63.5869 16.672 62.9149 17.104C62.2429 17.528 61.7069 18.148 61.3069 18.964C60.9149 19.772 60.7189 20.748 60.7189 21.892L60.3109 19.336H60.7909C60.9509 18.4 61.2509 17.608 61.6909 16.96C62.1389 16.304 62.7069 15.804 63.3949 15.46C64.0829 15.116 64.8709 14.944 65.7589 14.944C67.1509 14.944 68.1749 15.344 68.8309 16.144C69.4869 16.944 69.8149 18.068 69.8149 19.516V26.512H72.2629V28H65.8309V26.512H68.0869ZM77.9689 26.512H80.4289V28H73.6489V26.512H76.2409V16.708H73.6489V15.22H77.9689V26.512ZM75.9169 9.832H78.1249V12.124H75.9169V9.832ZM88.1385 28.228C87.2825 28.228 86.5585 28.1 85.9665 27.844C85.3825 27.588 84.9185 27.248 84.5745 26.824C84.2305 26.392 84.0065 25.912 83.9025 25.384H83.4705L83.8185 23.968C83.9705 24.808 84.3865 25.492 85.0665 26.02C85.7545 26.548 86.6465 26.812 87.7425 26.812C88.6785 26.812 89.4025 26.624 89.9145 26.248C90.4345 25.864 90.6945 25.308 90.6945 24.58C90.6945 23.916 90.4385 23.4 89.9265 23.032C89.4145 22.664 88.5185 22.384 87.2385 22.192C85.4065 21.904 84.1025 21.452 83.3265 20.836C82.5505 20.212 82.1625 19.392 82.1625 18.376C82.1625 17.352 82.5185 16.532 83.2305 15.916C83.9425 15.3 84.9345 14.992 86.2065 14.992C87.0465 14.992 87.7385 15.12 88.2825 15.376C88.8345 15.632 89.2585 15.976 89.5545 16.408C89.8505 16.832 90.0425 17.3 90.1305 17.812H90.5625L90.2145 19.168C90.0705 18.352 89.6785 17.688 89.0385 17.176C88.3985 16.656 87.5625 16.396 86.5305 16.396C85.6985 16.396 85.0465 16.572 84.5745 16.924C84.1105 17.276 83.8785 17.744 83.8785 18.328C83.8785 18.944 84.1705 19.428 84.7545 19.78C85.3385 20.124 86.2585 20.396 87.5145 20.596C89.2905 20.876 90.5505 21.336 91.2945 21.976C92.0385 22.616 92.4105 23.48 92.4105 24.568C92.4105 25.712 92.0425 26.608 91.3065 27.256C90.5785 27.904 89.5225 28.228 88.1385 28.228ZM82.0905 28V23.968H83.8185V28H82.0905ZM90.2145 19.168V15.22H91.9425V19.168H90.2145ZM97.8435 24.616C97.8435 25.288 97.9715 25.796 98.2275 26.14C98.4835 26.476 98.8755 26.644 99.4035 26.644C99.9235 26.644 100.316 26.472 100.58 26.128C100.844 25.776 100.976 25.272 100.976 24.616V23.428H102.536V24.604C102.536 25.372 102.42 26.028 102.188 26.572C101.964 27.108 101.62 27.52 101.156 27.808C100.692 28.088 100.096 28.228 99.3675 28.228C98.6235 28.228 98.0115 28.084 97.5315 27.796C97.0515 27.5 96.6955 27.084 96.4635 26.548C96.2315 26.012 96.1155 25.368 96.1155 24.616L96.1275 16.708H93.8475V15.22H96.1275V11.98H97.8555V15.22H102.368L102.356 16.708H97.8555L97.8435 24.616ZM108.709 26.512H111.169V28H104.389V26.512H106.981V16.708H104.389V15.22H108.709V26.512ZM106.657 9.832H108.865V12.124H106.657V9.832ZM119.274 28.228C117.946 28.228 116.79 27.948 115.806 27.388C114.83 26.828 114.07 26.056 113.526 25.072C112.99 24.08 112.722 22.94 112.722 21.652C112.722 20.676 112.87 19.784 113.166 18.976C113.462 18.16 113.886 17.456 114.438 16.864C114.99 16.264 115.646 15.804 116.406 15.484C117.166 15.156 118.014 14.992 118.95 14.992C119.854 14.992 120.606 15.14 121.206 15.436C121.814 15.724 122.286 16.124 122.622 16.636C122.958 17.14 123.174 17.72 123.27 18.376H123.69L123.342 20.188C123.238 19.468 123.002 18.836 122.634 18.292C122.266 17.74 121.786 17.312 121.194 17.008C120.602 16.696 119.918 16.54 119.142 16.54C118.214 16.54 117.398 16.76 116.694 17.2C115.998 17.632 115.454 18.232 115.062 19C114.678 19.76 114.486 20.644 114.486 21.652C114.486 22.628 114.682 23.492 115.074 24.244C115.474 24.988 116.03 25.572 116.742 25.996C117.462 26.42 118.31 26.632 119.286 26.632C120.294 26.632 121.162 26.412 121.89 25.972C122.618 25.524 123.15 24.924 123.486 24.172L125.082 24.88C124.626 25.912 123.894 26.728 122.886 27.328C121.886 27.928 120.682 28.228 119.274 28.228ZM123.342 20.188V15.22H125.07V20.188H123.342ZM137.418 28C137.09 28 136.838 27.896 136.662 27.688C136.494 27.48 136.41 27.188 136.41 26.812V22.972L136.566 22.576L136.482 21.124L136.41 20.368V19.396C136.41 18.74 136.274 18.204 136.002 17.788C135.738 17.372 135.354 17.064 134.85 16.864C134.346 16.664 133.738 16.564 133.026 16.564C131.962 16.564 131.138 16.776 130.554 17.2C129.978 17.616 129.594 18.244 129.402 19.084L127.746 18.736C127.906 17.896 128.206 17.2 128.646 16.648C129.086 16.088 129.67 15.672 130.398 15.4C131.134 15.12 132.03 14.98 133.086 14.98C134.19 14.98 135.114 15.136 135.858 15.448C136.61 15.752 137.178 16.22 137.562 16.852C137.946 17.484 138.138 18.3 138.138 19.3V26.512H140.022V28H137.418ZM131.394 28.168C130.066 28.168 129.058 27.876 128.37 27.292C127.682 26.7 127.338 25.832 127.338 24.688C127.338 23.632 127.642 22.828 128.25 22.276C128.858 21.716 129.834 21.296 131.178 21.016L136.926 19.792V21.028L131.466 22.264C130.682 22.448 130.094 22.72 129.702 23.08C129.318 23.432 129.126 23.932 129.126 24.58C129.126 25.284 129.342 25.812 129.774 26.164C130.206 26.508 130.838 26.68 131.67 26.68C132.59 26.68 133.414 26.468 134.142 26.044C134.87 25.62 135.442 24.996 135.858 24.172C136.274 23.348 136.482 22.332 136.482 21.124L136.938 23.956H136.326C136.126 25.292 135.606 26.328 134.766 27.064C133.934 27.8 132.81 28.168 131.394 28.168ZM144.931 24.616C144.931 25.288 145.059 25.796 145.315 26.14C145.571 26.476 145.963 26.644 146.491 26.644C147.011 26.644 147.403 26.472 147.667 26.128C147.931 25.776 148.063 25.272 148.063 24.616V23.428H149.623V24.604C149.623 25.372 149.507 26.028 149.275 26.572C149.051 27.108 148.707 27.52 148.243 27.808C147.779 28.088 147.183 28.228 146.455 28.228C145.711 28.228 145.099 28.084 144.619 27.796C144.139 27.5 143.783 27.084 143.551 26.548C143.319 26.012 143.203 25.368 143.203 24.616L143.215 16.708H140.935V15.22H143.215V11.98H144.943V15.22H149.455L149.443 16.708H144.943L144.931 24.616ZM157.934 28.228C156.614 28.228 155.47 27.948 154.502 27.388C153.534 26.828 152.786 26.056 152.258 25.072C151.73 24.08 151.466 22.94 151.466 21.652C151.466 20.348 151.73 19.196 152.258 18.196C152.794 17.196 153.538 16.412 154.49 15.844C155.45 15.276 156.566 14.992 157.838 14.992C159.118 14.992 160.226 15.272 161.162 15.832C162.098 16.392 162.818 17.168 163.322 18.16C163.826 19.152 164.078 20.296 164.078 21.592C164.078 21.744 164.074 21.864 164.066 21.952C164.066 22.04 164.058 22.116 164.042 22.18H162.338C162.346 22.084 162.35 21.98 162.35 21.868C162.358 21.748 162.362 21.612 162.362 21.46C162.362 20.508 162.178 19.664 161.81 18.928C161.45 18.184 160.934 17.6 160.262 17.176C159.59 16.752 158.782 16.54 157.838 16.54C156.918 16.54 156.11 16.76 155.414 17.2C154.718 17.632 154.178 18.232 153.794 19C153.41 19.76 153.218 20.644 153.218 21.652C153.218 22.628 153.406 23.492 153.782 24.244C154.166 24.988 154.71 25.572 155.414 25.996C156.118 26.42 156.954 26.632 157.922 26.632C158.93 26.632 159.802 26.396 160.538 25.924C161.282 25.444 161.834 24.792 162.194 23.968L163.826 24.58C163.354 25.708 162.598 26.6 161.558 27.256C160.526 27.904 159.318 28.228 157.934 28.228ZM152.558 22.18V20.848H163.526L164.03 22.18H152.558ZM177.237 28V23.224L177.309 22.288V20.764L177.237 19.084V10.528H173.793V9.04H178.965V26.512H181.413V28H177.237ZM172.425 14.98C173.481 14.98 174.425 15.212 175.257 15.676C176.097 16.14 176.789 16.804 177.333 17.668C177.877 18.524 178.237 19.552 178.413 20.752L177.309 21.58C177.309 20.596 177.117 19.724 176.733 18.964C176.357 18.204 175.817 17.612 175.113 17.188C174.409 16.756 173.573 16.54 172.605 16.54C171.653 16.54 170.825 16.756 170.121 17.188C169.417 17.62 168.873 18.216 168.489 18.976C168.113 19.736 167.925 20.616 167.925 21.616C167.925 22.608 168.121 23.484 168.513 24.244C168.905 25.004 169.453 25.604 170.157 26.044C170.869 26.476 171.685 26.692 172.605 26.692C173.565 26.692 174.393 26.476 175.089 26.044C175.793 25.604 176.337 25 176.721 24.232C177.113 23.464 177.309 22.58 177.309 21.58L177.573 24.304H177.165C177.021 25.008 176.741 25.66 176.325 26.26C175.909 26.852 175.361 27.332 174.681 27.7C174.001 28.06 173.185 28.24 172.233 28.24C171.345 28.24 170.529 28.08 169.785 27.76C169.041 27.432 168.397 26.972 167.853 26.38C167.309 25.78 166.885 25.076 166.581 24.268C166.285 23.46 166.137 22.576 166.137 21.616C166.137 20.32 166.397 19.172 166.917 18.172C167.437 17.172 168.165 16.392 169.101 15.832C170.045 15.264 171.153 14.98 172.425 14.98Z" fill="black"/>
<path d="M1 6.35211L6 1V39L1 33.6479V6.35211Z" fill="white"/>
<path d="M6 1L1 6.35211V33.6479L6 39" stroke="black" stroke-linecap="round"/>
<path d="M192 33.6479L187 39L187 1L192 6.35211L192 33.6479Z" fill="white"/>
<path d="M187 39L192 33.6479L192 6.35211L187 1" stroke="black" stroke-linecap="round"/>
</svg>
