<svg width="157" height="40" viewBox="0 0 157 40" fill="none" xmlns="http://www.w3.org/2000/svg">
<path d="M6 1H151V39H6V1Z" fill="white"/>
<path d="M6 1.5H151V0.5H6V1.5ZM151 38.5H6V39.5H151V38.5Z" fill="black"/>
<path d="M13.7998 28.264V10.528H11.2318V9.04H15.5278V19.696L15.4558 21.196V22.792L15.5278 25.12L13.9558 28.264H13.7998ZM20.2678 28.24C19.1958 28.24 18.2358 28.04 17.3878 27.64C16.5478 27.232 15.8518 26.656 15.2998 25.912C14.7558 25.16 14.3918 24.268 14.2078 23.236L15.4558 21.616C15.4558 22.6 15.6438 23.472 16.0198 24.232C16.3958 24.992 16.9358 25.592 17.6398 26.032C18.3438 26.464 19.1798 26.68 20.1478 26.68C21.1318 26.68 21.9718 26.468 22.6678 26.044C23.3718 25.62 23.9078 25.028 24.2758 24.268C24.6518 23.5 24.8398 22.608 24.8398 21.592C24.8398 20.6 24.6398 19.724 24.2398 18.964C23.8478 18.204 23.2998 17.608 22.5958 17.176C21.8918 16.744 21.0758 16.528 20.1478 16.528C19.1958 16.528 18.3678 16.744 17.6638 17.176C16.9598 17.608 16.4158 18.204 16.0318 18.964C15.6478 19.724 15.4558 20.608 15.4558 21.616L15.1798 18.916H15.5878C15.7398 18.212 16.0198 17.564 16.4278 16.972C16.8438 16.372 17.3918 15.892 18.0718 15.532C18.7598 15.164 19.5798 14.98 20.5318 14.98C21.4198 14.98 22.2358 15.144 22.9798 15.472C23.7238 15.792 24.3678 16.252 24.9118 16.852C25.4558 17.444 25.8758 18.148 26.1718 18.964C26.4678 19.772 26.6158 20.66 26.6158 21.628C26.6158 22.916 26.3518 24.06 25.8238 25.06C25.3038 26.052 24.5678 26.832 23.6158 27.4C22.6638 27.96 21.5478 28.24 20.2678 28.24ZM32.3431 26.512H34.9711V28H27.9871V26.512H30.6151V10.528H27.9871V9.04H32.3431V26.512ZM46.7184 28C46.3904 28 46.1384 27.896 45.9624 27.688C45.7944 27.48 45.7104 27.188 45.7104 26.812V22.972L45.8664 22.576L45.7824 21.124L45.7104 20.368V19.396C45.7104 18.74 45.5744 18.204 45.3024 17.788C45.0384 17.372 44.6544 17.064 44.1504 16.864C43.6464 16.664 43.0384 16.564 42.3264 16.564C41.2624 16.564 40.4384 16.776 39.8544 17.2C39.2784 17.616 38.8944 18.244 38.7024 19.084L37.0464 18.736C37.2064 17.896 37.5064 17.2 37.9464 16.648C38.3864 16.088 38.9704 15.672 39.6984 15.4C40.4344 15.12 41.3304 14.98 42.3864 14.98C43.4904 14.98 44.4144 15.136 45.1584 15.448C45.9104 15.752 46.4784 16.22 46.8624 16.852C47.2464 17.484 47.4384 18.3 47.4384 19.3V26.512H49.3224V28H46.7184ZM40.6944 28.168C39.3664 28.168 38.3584 27.876 37.6704 27.292C36.9824 26.7 36.6384 25.832 36.6384 24.688C36.6384 23.632 36.9424 22.828 37.5504 22.276C38.1584 21.716 39.1344 21.296 40.4784 21.016L46.2264 19.792V21.028L40.7664 22.264C39.9824 22.448 39.3944 22.72 39.0024 23.08C38.6184 23.432 38.4264 23.932 38.4264 24.58C38.4264 25.284 38.6424 25.812 39.0744 26.164C39.5064 26.508 40.1384 26.68 40.9704 26.68C41.8904 26.68 42.7144 26.468 43.4424 26.044C44.1704 25.62 44.7424 24.996 45.1584 24.172C45.5744 23.348 45.7824 22.332 45.7824 21.124L46.2384 23.956H45.6264C45.4264 25.292 44.9064 26.328 44.0664 27.064C43.2344 27.8 42.1104 28.168 40.6944 28.168ZM57.4972 28.228C56.1692 28.228 55.0132 27.948 54.0292 27.388C53.0532 26.828 52.2932 26.056 51.7492 25.072C51.2132 24.08 50.9452 22.94 50.9452 21.652C50.9452 20.676 51.0932 19.784 51.3892 18.976C51.6852 18.16 52.1092 17.456 52.6612 16.864C53.2132 16.264 53.8692 15.804 54.6292 15.484C55.3892 15.156 56.2372 14.992 57.1732 14.992C58.0772 14.992 58.8292 15.14 59.4292 15.436C60.0372 15.724 60.5092 16.124 60.8452 16.636C61.1812 17.14 61.3972 17.72 61.4932 18.376H61.9132L61.5652 20.188C61.4612 19.468 61.2252 18.836 60.8572 18.292C60.4892 17.74 60.0092 17.312 59.4172 17.008C58.8252 16.696 58.1412 16.54 57.3652 16.54C56.4372 16.54 55.6212 16.76 54.9172 17.2C54.2212 17.632 53.6772 18.232 53.2852 19C52.9012 19.76 52.7092 20.644 52.7092 21.652C52.7092 22.628 52.9052 23.492 53.2972 24.244C53.6972 24.988 54.2532 25.572 54.9652 25.996C55.6852 26.42 56.5332 26.632 57.5092 26.632C58.5172 26.632 59.3852 26.412 60.1132 25.972C60.8412 25.524 61.3732 24.924 61.7092 24.172L63.3052 24.88C62.8492 25.912 62.1172 26.728 61.1092 27.328C60.1092 27.928 58.9052 28.228 57.4972 28.228ZM61.5652 20.188V15.22H63.2932V20.188H61.5652ZM69.2572 26.512H71.5252V28H64.9612V26.512H67.5292V10.528H64.9612V9.04H69.2572V26.512ZM73.7212 19.9L78.7972 26.512H80.4652V28H73.8892V26.512H76.6612L72.4972 20.944L73.7212 19.9ZM68.7412 24.556L68.3812 23.176L76.2172 16.708H72.3172V15.22H80.2612V16.708H78.4612L68.7412 24.556ZM94.9893 28.228C94.1333 28.228 93.4093 28.1 92.8173 27.844C92.2333 27.588 91.7693 27.248 91.4253 26.824C91.0813 26.392 90.8573 25.912 90.7533 25.384H90.3213L90.6693 23.968C90.8213 24.808 91.2373 25.492 91.9173 26.02C92.6053 26.548 93.4973 26.812 94.5933 26.812C95.5293 26.812 96.2533 26.624 96.7653 26.248C97.2853 25.864 97.5453 25.308 97.5453 24.58C97.5453 23.916 97.2893 23.4 96.7773 23.032C96.2653 22.664 95.3693 22.384 94.0893 22.192C92.2573 21.904 90.9533 21.452 90.1773 20.836C89.4013 20.212 89.0133 19.392 89.0133 18.376C89.0133 17.352 89.3693 16.532 90.0813 15.916C90.7933 15.3 91.7853 14.992 93.0573 14.992C93.8973 14.992 94.5893 15.12 95.1333 15.376C95.6853 15.632 96.1093 15.976 96.4053 16.408C96.7013 16.832 96.8933 17.3 96.9813 17.812H97.4133L97.0653 19.168C96.9213 18.352 96.5293 17.688 95.8893 17.176C95.2493 16.656 94.4133 16.396 93.3813 16.396C92.5493 16.396 91.8973 16.572 91.4253 16.924C90.9613 17.276 90.7293 17.744 90.7293 18.328C90.7293 18.944 91.0213 19.428 91.6053 19.78C92.1893 20.124 93.1093 20.396 94.3653 20.596C96.1413 20.876 97.4013 21.336 98.1453 21.976C98.8893 22.616 99.2613 23.48 99.2613 24.568C99.2613 25.712 98.8933 26.608 98.1573 27.256C97.4293 27.904 96.3733 28.228 94.9893 28.228ZM88.9413 28V23.968H90.6693V28H88.9413ZM97.0653 19.168V15.22H98.7933V19.168H97.0653ZM105.177 26.512H107.445V28H100.881V26.512H103.449V10.528H100.881V9.04H105.177V26.512ZM112.545 26.512V19.792C112.545 18.752 112.309 17.936 111.837 17.344C111.373 16.752 110.641 16.456 109.641 16.456C108.801 16.456 108.045 16.672 107.373 17.104C106.701 17.528 106.165 18.148 105.765 18.964C105.373 19.772 105.177 20.748 105.177 21.892L104.769 19.336H105.249C105.409 18.4 105.709 17.608 106.149 16.96C106.597 16.304 107.165 15.804 107.853 15.46C108.541 15.116 109.329 14.944 110.217 14.944C111.609 14.944 112.633 15.344 113.289 16.144C113.945 16.944 114.273 18.068 114.273 19.516V26.512H116.721V28H110.289V26.512H112.545ZM122.427 26.512H124.887V28H118.107V26.512H120.699V16.708H118.107V15.22H122.427V26.512ZM120.375 9.832H122.583V12.124H120.375V9.832ZM130.592 26.512H133.088V28H126.236V26.512H128.864V16.708H126.236V15.22H130.592V26.512ZM135.5 17.056C135.356 17.016 135.2 16.984 135.032 16.96C134.872 16.936 134.696 16.924 134.504 16.924C133.32 16.924 132.372 17.368 131.66 18.256C130.948 19.136 130.592 20.36 130.592 21.928L130.184 19.132H130.676C130.788 18.284 131.02 17.556 131.372 16.948C131.724 16.332 132.18 15.86 132.74 15.532C133.308 15.196 133.972 15.028 134.732 15.028C134.876 15.028 135.004 15.036 135.116 15.052C135.236 15.06 135.364 15.076 135.5 15.1V17.056ZM140.098 24.616C140.098 25.288 140.226 25.796 140.482 26.14C140.738 26.476 141.13 26.644 141.658 26.644C142.178 26.644 142.57 26.472 142.834 26.128C143.098 25.776 143.23 25.272 143.23 24.616V23.428H144.79V24.604C144.79 25.372 144.674 26.028 144.442 26.572C144.218 27.108 143.874 27.52 143.41 27.808C142.946 28.088 142.35 28.228 141.622 28.228C140.878 28.228 140.266 28.084 139.786 27.796C139.306 27.5 138.95 27.084 138.718 26.548C138.486 26.012 138.37 25.368 138.37 24.616L138.382 16.708H136.102V15.22H138.382V11.98H140.11V15.22H144.622L144.61 16.708H140.11L140.098 24.616Z" fill="black"/>
<path d="M1 6.35211L6 1V39L1 33.6479V6.35211Z" fill="white"/>
<path d="M6 1L1 6.35211V33.6479L6 39" stroke="black" stroke-linecap="round"/>
<path d="M156 33.6479L151 39L151 1L156 6.35211L156 33.6479Z" fill="white"/>
<path d="M151 39L156 33.6479L156 6.35211L151 1" stroke="black" stroke-linecap="round"/>
</svg>
