<svg width="202" height="40" viewBox="0 0 202 40" fill="none" xmlns="http://www.w3.org/2000/svg">
<path d="M6 1H196V39H6V1Z" fill="white"/>
<path d="M6 1.5H196V0.5H6V1.5ZM196 38.5H6V39.5H196V38.5Z" fill="black"/>
<path d="M29.9898 28V26.512H32.2458V19.804C32.2458 18.756 32.0138 17.936 31.5498 17.344C31.0858 16.752 30.3618 16.456 29.3778 16.456C28.5858 16.456 27.8818 16.664 27.2658 17.08C26.6498 17.496 26.1658 18.092 25.8138 18.868C25.4618 19.644 25.2858 20.576 25.2858 21.664L24.8658 19.096H25.3578C25.5578 17.704 26.0738 16.664 26.9058 15.976C27.7458 15.288 28.7658 14.944 29.9658 14.944C31.3178 14.944 32.3218 15.344 32.9778 16.144C33.6418 16.944 33.9738 18.072 33.9738 19.528V26.512H36.4218V28H29.9898ZM12.3018 28V26.512H14.8578V16.708H12.3018V15.22H16.5858V26.512H18.8538V28H12.3018ZM21.3018 28V26.512H23.5578V19.804C23.5578 18.756 23.3258 17.936 22.8618 17.344C22.3978 16.752 21.6738 16.456 20.6898 16.456C19.8978 16.456 19.1938 16.664 18.5778 17.08C17.9618 17.496 17.4738 18.092 17.1138 18.868C16.7618 19.644 16.5858 20.576 16.5858 21.664L16.1778 19.096H16.6698C16.8618 17.704 17.3778 16.664 18.2178 15.976C19.0578 15.288 20.0778 14.944 21.2778 14.944C22.6298 14.944 23.6338 15.344 24.2898 16.144C24.9538 16.944 25.2858 18.072 25.2858 19.528V26.512H27.7338V28H21.3018ZM48.0693 16.708H45.5973V15.22H49.7973V26.512H52.2933V28H48.0693V16.708ZM40.9293 15.22V23.368C40.9293 24.416 41.1613 25.244 41.6253 25.852C42.0973 26.452 42.8373 26.752 43.8453 26.752C44.6533 26.752 45.3733 26.548 46.0053 26.14C46.6453 25.724 47.1493 25.128 47.5173 24.352C47.8853 23.576 48.0693 22.644 48.0693 21.556L48.4893 24.112H47.9853C47.7693 25.488 47.2333 26.528 46.3773 27.232C45.5293 27.928 44.4853 28.276 43.2453 28.276C41.8693 28.276 40.8493 27.868 40.1853 27.052C39.5293 26.236 39.2013 25.104 39.2013 23.656V16.708H36.8853V15.22H40.9293ZM57.0665 24.616C57.0665 25.288 57.1945 25.796 57.4505 26.14C57.7065 26.476 58.0985 26.644 58.6265 26.644C59.1465 26.644 59.5385 26.472 59.8025 26.128C60.0665 25.776 60.1985 25.272 60.1985 24.616V23.428H61.7585V24.604C61.7585 25.372 61.6425 26.028 61.4105 26.572C61.1865 27.108 60.8425 27.52 60.3785 27.808C59.9145 28.088 59.3185 28.228 58.5905 28.228C57.8465 28.228 57.2345 28.084 56.7545 27.796C56.2745 27.5 55.9185 27.084 55.6865 26.548C55.4545 26.012 55.3385 25.368 55.3385 24.616L55.3505 16.708H53.0705V15.22H55.3505V11.98H57.0785V15.22H61.5905L61.5785 16.708H57.0785L57.0665 24.616ZM70.0687 28.228C68.7487 28.228 67.6047 27.948 66.6367 27.388C65.6687 26.828 64.9207 26.056 64.3927 25.072C63.8647 24.08 63.6007 22.94 63.6007 21.652C63.6007 20.348 63.8647 19.196 64.3927 18.196C64.9287 17.196 65.6727 16.412 66.6247 15.844C67.5847 15.276 68.7007 14.992 69.9727 14.992C71.2527 14.992 72.3607 15.272 73.2967 15.832C74.2327 16.392 74.9527 17.168 75.4567 18.16C75.9607 19.152 76.2127 20.296 76.2127 21.592C76.2127 21.744 76.2087 21.864 76.2007 21.952C76.2007 22.04 76.1927 22.116 76.1767 22.18H74.4727C74.4807 22.084 74.4847 21.98 74.4847 21.868C74.4927 21.748 74.4967 21.612 74.4967 21.46C74.4967 20.508 74.3127 19.664 73.9447 18.928C73.5847 18.184 73.0687 17.6 72.3967 17.176C71.7247 16.752 70.9167 16.54 69.9727 16.54C69.0527 16.54 68.2447 16.76 67.5487 17.2C66.8527 17.632 66.3127 18.232 65.9287 19C65.5447 19.76 65.3527 20.644 65.3527 21.652C65.3527 22.628 65.5407 23.492 65.9167 24.244C66.3007 24.988 66.8447 25.572 67.5487 25.996C68.2527 26.42 69.0887 26.632 70.0567 26.632C71.0647 26.632 71.9367 26.396 72.6727 25.924C73.4167 25.444 73.9687 24.792 74.3287 23.968L75.9607 24.58C75.4887 25.708 74.7327 26.6 73.6927 27.256C72.6607 27.904 71.4527 28.228 70.0687 28.228ZM64.6927 22.18V20.848H75.6607L76.1647 22.18H64.6927ZM89.3722 28V23.224L89.4442 22.288V20.764L89.3722 19.084V10.528H85.9282V9.04H91.1002V26.512H93.5482V28H89.3722ZM84.5602 14.98C85.6162 14.98 86.5602 15.212 87.3922 15.676C88.2322 16.14 88.9242 16.804 89.4682 17.668C90.0122 18.524 90.3722 19.552 90.5482 20.752L89.4442 21.58C89.4442 20.596 89.2522 19.724 88.8682 18.964C88.4922 18.204 87.9522 17.612 87.2482 17.188C86.5442 16.756 85.7082 16.54 84.7402 16.54C83.7882 16.54 82.9602 16.756 82.2562 17.188C81.5522 17.62 81.0082 18.216 80.6242 18.976C80.2482 19.736 80.0602 20.616 80.0602 21.616C80.0602 22.608 80.2562 23.484 80.6482 24.244C81.0402 25.004 81.5882 25.604 82.2922 26.044C83.0042 26.476 83.8202 26.692 84.7402 26.692C85.7002 26.692 86.5282 26.476 87.2242 26.044C87.9282 25.604 88.4722 25 88.8562 24.232C89.2482 23.464 89.4442 22.58 89.4442 21.58L89.7082 24.304H89.3002C89.1562 25.008 88.8762 25.66 88.4602 26.26C88.0442 26.852 87.4962 27.332 86.8162 27.7C86.1362 28.06 85.3202 28.24 84.3682 28.24C83.4802 28.24 82.6642 28.08 81.9202 27.76C81.1762 27.432 80.5322 26.972 79.9882 26.38C79.4442 25.78 79.0202 25.076 78.7162 24.268C78.4202 23.46 78.2722 22.576 78.2722 21.616C78.2722 20.32 78.5322 19.172 79.0522 18.172C79.5722 17.172 80.3002 16.392 81.2362 15.832C82.1802 15.264 83.2882 14.98 84.5602 14.98ZM108.064 33.304C106.944 33.304 105.928 33.196 105.016 32.98C104.112 32.772 103.392 32.44 102.856 31.984C102.32 31.528 102.052 30.924 102.052 30.172C102.052 29.42 102.32 28.848 102.856 28.456C103.4 28.072 104.1 27.82 104.956 27.7V27.496L107.092 27.7C106.204 27.7 105.508 27.804 105.004 28.012C104.5 28.228 104.144 28.5 103.936 28.828C103.728 29.164 103.624 29.508 103.624 29.86C103.624 30.404 103.824 30.828 104.224 31.132C104.624 31.436 105.16 31.652 105.832 31.78C106.512 31.908 107.272 31.972 108.112 31.972C109.8 31.972 111.032 31.744 111.808 31.288C112.592 30.84 112.984 30.212 112.984 29.404C112.984 28.268 112.248 27.7 110.776 27.7H105.88C104.92 27.7 104.164 27.528 103.612 27.184C103.068 26.832 102.796 26.328 102.796 25.672C102.796 25.048 103.044 24.572 103.54 24.244C104.036 23.908 104.744 23.704 105.664 23.632V23.272L107.848 23.896H106.54C105.852 23.896 105.328 23.992 104.968 24.184C104.608 24.368 104.428 24.652 104.428 25.036C104.428 25.396 104.592 25.656 104.92 25.816C105.256 25.968 105.76 26.044 106.432 26.044H110.728C111.552 26.044 112.252 26.18 112.828 26.452C113.412 26.716 113.852 27.096 114.148 27.592C114.452 28.088 114.604 28.68 114.604 29.368C114.604 30.104 114.396 30.768 113.98 31.36C113.564 31.96 112.876 32.432 111.916 32.776C110.964 33.128 109.68 33.304 108.064 33.304ZM107.848 23.896C106.832 23.896 105.928 23.712 105.136 23.344C104.344 22.976 103.72 22.46 103.264 21.796C102.808 21.132 102.58 20.352 102.58 19.456C102.58 18.56 102.804 17.78 103.252 17.116C103.708 16.444 104.328 15.924 105.112 15.556C105.904 15.18 106.816 14.992 107.848 14.992C108.896 14.992 109.82 15.188 110.62 15.58C111.428 15.972 112.044 16.516 112.468 17.212C112.676 17.532 112.828 17.88 112.924 18.256C113.028 18.624 113.08 19.024 113.08 19.456C113.08 20.352 112.856 21.132 112.408 21.796C111.96 22.46 111.34 22.976 110.548 23.344C109.764 23.712 108.864 23.896 107.848 23.896ZM107.848 22.48C108.528 22.48 109.132 22.356 109.66 22.108C110.196 21.86 110.616 21.508 110.92 21.052C111.232 20.596 111.388 20.064 111.388 19.456C111.388 18.848 111.232 18.316 110.92 17.86C110.616 17.396 110.196 17.04 109.66 16.792C109.132 16.536 108.528 16.408 107.848 16.408C107.152 16.408 106.536 16.536 106 16.792C105.464 17.04 105.04 17.396 104.728 17.86C104.424 18.316 104.272 18.848 104.272 19.456C104.272 20.064 104.424 20.596 104.728 21.052C105.04 21.508 105.464 21.86 106 22.108C106.544 22.356 107.16 22.48 107.848 22.48ZM113.08 19.456L112.48 18.052L111.952 17.188L112.432 16.996C112.408 16.916 112.388 16.836 112.372 16.756C112.364 16.668 112.36 16.576 112.36 16.48C112.36 16.144 112.44 15.84 112.6 15.568C112.76 15.296 112.992 15.08 113.296 14.92C113.6 14.76 113.972 14.68 114.412 14.68C114.524 14.68 114.624 14.684 114.712 14.692C114.808 14.7 114.9 14.716 114.988 14.74V16.408C114.836 16.384 114.696 16.368 114.568 16.36C114.44 16.344 114.312 16.336 114.184 16.336C113.848 16.336 113.576 16.384 113.368 16.48C113.168 16.576 113.024 16.7 112.936 16.852C112.848 16.996 112.804 17.156 112.804 17.332C112.804 17.5 112.828 17.684 112.876 17.884C112.924 18.076 112.968 18.3 113.008 18.556C113.056 18.812 113.08 19.112 113.08 19.456ZM120.435 26.512H123.063V28H116.079V26.512H118.707V10.528H116.079V9.04H120.435V26.512ZM134.811 28C134.483 28 134.231 27.896 134.055 27.688C133.887 27.48 133.803 27.188 133.803 26.812V22.972L133.959 22.576L133.875 21.124L133.803 20.368V19.396C133.803 18.74 133.667 18.204 133.395 17.788C133.131 17.372 132.747 17.064 132.243 16.864C131.739 16.664 131.131 16.564 130.419 16.564C129.355 16.564 128.531 16.776 127.947 17.2C127.371 17.616 126.987 18.244 126.795 19.084L125.139 18.736C125.299 17.896 125.599 17.2 126.039 16.648C126.479 16.088 127.063 15.672 127.791 15.4C128.527 15.12 129.423 14.98 130.479 14.98C131.583 14.98 132.507 15.136 133.251 15.448C134.003 15.752 134.571 16.22 134.955 16.852C135.339 17.484 135.531 18.3 135.531 19.3V26.512H137.415V28H134.811ZM128.787 28.168C127.459 28.168 126.451 27.876 125.763 27.292C125.075 26.7 124.731 25.832 124.731 24.688C124.731 23.632 125.035 22.828 125.643 22.276C126.251 21.716 127.227 21.296 128.571 21.016L134.319 19.792V21.028L128.859 22.264C128.075 22.448 127.487 22.72 127.095 23.08C126.711 23.432 126.519 23.932 126.519 24.58C126.519 25.284 126.735 25.812 127.167 26.164C127.599 26.508 128.231 26.68 129.063 26.68C129.983 26.68 130.807 26.468 131.535 26.044C132.263 25.62 132.835 24.996 133.251 24.172C133.667 23.348 133.875 22.332 133.875 21.124L134.331 23.956H133.719C133.519 25.292 132.999 26.328 132.159 27.064C131.327 27.8 130.203 28.168 128.787 28.168ZM145.264 28.228C144.408 28.228 143.684 28.1 143.092 27.844C142.508 27.588 142.044 27.248 141.7 26.824C141.356 26.392 141.132 25.912 141.028 25.384H140.596L140.944 23.968C141.096 24.808 141.512 25.492 142.192 26.02C142.88 26.548 143.772 26.812 144.868 26.812C145.804 26.812 146.528 26.624 147.04 26.248C147.56 25.864 147.82 25.308 147.82 24.58C147.82 23.916 147.564 23.4 147.052 23.032C146.54 22.664 145.644 22.384 144.364 22.192C142.532 21.904 141.228 21.452 140.452 20.836C139.676 20.212 139.288 19.392 139.288 18.376C139.288 17.352 139.644 16.532 140.356 15.916C141.068 15.3 142.06 14.992 143.332 14.992C144.172 14.992 144.864 15.12 145.408 15.376C145.96 15.632 146.384 15.976 146.68 16.408C146.976 16.832 147.168 17.3 147.256 17.812H147.688L147.34 19.168C147.196 18.352 146.804 17.688 146.164 17.176C145.524 16.656 144.688 16.396 143.656 16.396C142.824 16.396 142.172 16.572 141.7 16.924C141.236 17.276 141.004 17.744 141.004 18.328C141.004 18.944 141.296 19.428 141.88 19.78C142.464 20.124 143.384 20.396 144.64 20.596C146.416 20.876 147.676 21.336 148.42 21.976C149.164 22.616 149.536 23.48 149.536 24.568C149.536 25.712 149.168 26.608 148.432 27.256C147.704 27.904 146.648 28.228 145.264 28.228ZM139.216 28V23.968H140.944V28H139.216ZM147.34 19.168V15.22H149.068V19.168H147.34ZM157.909 28.228C157.053 28.228 156.329 28.1 155.737 27.844C155.153 27.588 154.689 27.248 154.345 26.824C154.001 26.392 153.777 25.912 153.673 25.384H153.241L153.589 23.968C153.741 24.808 154.157 25.492 154.837 26.02C155.525 26.548 156.417 26.812 157.513 26.812C158.449 26.812 159.173 26.624 159.685 26.248C160.205 25.864 160.465 25.308 160.465 24.58C160.465 23.916 160.209 23.4 159.697 23.032C159.185 22.664 158.289 22.384 157.009 22.192C155.177 21.904 153.873 21.452 153.097 20.836C152.321 20.212 151.933 19.392 151.933 18.376C151.933 17.352 152.289 16.532 153.001 15.916C153.713 15.3 154.705 14.992 155.977 14.992C156.817 14.992 157.509 15.12 158.053 15.376C158.605 15.632 159.029 15.976 159.325 16.408C159.621 16.832 159.813 17.3 159.901 17.812H160.333L159.985 19.168C159.841 18.352 159.449 17.688 158.809 17.176C158.169 16.656 157.333 16.396 156.301 16.396C155.469 16.396 154.817 16.572 154.345 16.924C153.881 17.276 153.649 17.744 153.649 18.328C153.649 18.944 153.941 19.428 154.525 19.78C155.109 20.124 156.029 20.396 157.285 20.596C159.061 20.876 160.321 21.336 161.065 21.976C161.809 22.616 162.181 23.48 162.181 24.568C162.181 25.712 161.813 26.608 161.077 27.256C160.349 27.904 159.293 28.228 157.909 28.228ZM151.861 28V23.968H153.589V28H151.861ZM159.985 19.168V15.22H161.713V19.168H159.985ZM170.854 28.228C169.534 28.228 168.39 27.948 167.422 27.388C166.454 26.828 165.706 26.056 165.178 25.072C164.65 24.08 164.386 22.94 164.386 21.652C164.386 20.348 164.65 19.196 165.178 18.196C165.714 17.196 166.458 16.412 167.41 15.844C168.37 15.276 169.486 14.992 170.758 14.992C172.038 14.992 173.146 15.272 174.082 15.832C175.018 16.392 175.738 17.168 176.242 18.16C176.746 19.152 176.998 20.296 176.998 21.592C176.998 21.744 176.994 21.864 176.986 21.952C176.986 22.04 176.978 22.116 176.962 22.18H175.258C175.266 22.084 175.27 21.98 175.27 21.868C175.278 21.748 175.282 21.612 175.282 21.46C175.282 20.508 175.098 19.664 174.73 18.928C174.37 18.184 173.854 17.6 173.182 17.176C172.51 16.752 171.702 16.54 170.758 16.54C169.838 16.54 169.03 16.76 168.334 17.2C167.638 17.632 167.098 18.232 166.714 19C166.33 19.76 166.138 20.644 166.138 21.652C166.138 22.628 166.326 23.492 166.702 24.244C167.086 24.988 167.63 25.572 168.334 25.996C169.038 26.42 169.874 26.632 170.842 26.632C171.85 26.632 172.722 26.396 173.458 25.924C174.202 25.444 174.754 24.792 175.114 23.968L176.746 24.58C176.274 25.708 175.518 26.6 174.478 27.256C173.446 27.904 172.238 28.228 170.854 28.228ZM165.478 22.18V20.848H176.446L176.95 22.18H165.478ZM185.261 28.228C184.405 28.228 183.681 28.1 183.089 27.844C182.505 27.588 182.041 27.248 181.697 26.824C181.353 26.392 181.129 25.912 181.025 25.384H180.593L180.941 23.968C181.093 24.808 181.509 25.492 182.189 26.02C182.877 26.548 183.769 26.812 184.865 26.812C185.801 26.812 186.525 26.624 187.037 26.248C187.557 25.864 187.817 25.308 187.817 24.58C187.817 23.916 187.561 23.4 187.049 23.032C186.537 22.664 185.641 22.384 184.361 22.192C182.529 21.904 181.225 21.452 180.449 20.836C179.673 20.212 179.285 19.392 179.285 18.376C179.285 17.352 179.641 16.532 180.353 15.916C181.065 15.3 182.057 14.992 183.329 14.992C184.169 14.992 184.861 15.12 185.405 15.376C185.957 15.632 186.381 15.976 186.677 16.408C186.973 16.832 187.165 17.3 187.253 17.812H187.685L187.337 19.168C187.193 18.352 186.801 17.688 186.161 17.176C185.521 16.656 184.685 16.396 183.653 16.396C182.821 16.396 182.169 16.572 181.697 16.924C181.233 17.276 181.001 17.744 181.001 18.328C181.001 18.944 181.293 19.428 181.877 19.78C182.461 20.124 183.381 20.396 184.637 20.596C186.413 20.876 187.673 21.336 188.417 21.976C189.161 22.616 189.533 23.48 189.533 24.568C189.533 25.712 189.165 26.608 188.429 27.256C187.701 27.904 186.645 28.228 185.261 28.228ZM179.213 28V23.968H180.941V28H179.213ZM187.337 19.168V15.22H189.065V19.168H187.337Z" fill="black"/>
<path d="M1 6.35211L6 1V39L1 33.6479V6.35211Z" fill="white"/>
<path d="M6 1L1 6.35211V33.6479L6 39" stroke="black" stroke-linecap="round"/>
<path d="M201 33.6479L196 39L196 1L201 6.35211L201 33.6479Z" fill="white"/>
<path d="M196 39L201 33.6479L201 6.35211L196 1" stroke="black" stroke-linecap="round"/>
</svg>
