<svg width="79" height="40" viewBox="0 0 79 40" fill="none" xmlns="http://www.w3.org/2000/svg">
<path d="M6 1H73V39H6V1Z" fill="white"/>
<path d="M6 1.5H73V0.5H6V1.5ZM73 38.5H6V39.5H73V38.5Z" fill="black"/>
<path d="M17.0112 26.512H19.2912V28H12.6552V26.512H15.2832V16.708H12.6552V15.22H17.0112V26.512ZM24.3792 26.512V19.828C24.3792 18.78 24.1432 17.956 23.6713 17.356C23.1992 16.756 22.4552 16.456 21.4392 16.456C20.6152 16.456 19.8672 16.66 19.1952 17.068C18.5232 17.476 17.9912 18.068 17.5992 18.844C17.2072 19.62 17.0112 20.56 17.0112 21.664L16.6152 19.108H17.0952C17.2472 18.236 17.5392 17.496 17.9712 16.888C18.4032 16.272 18.9552 15.804 19.6272 15.484C20.3072 15.156 21.0872 14.992 21.9672 14.992C23.3592 14.992 24.3952 15.396 25.0753 16.204C25.7632 17.004 26.1072 18.136 26.1072 19.6V26.512H28.5673V28H22.1352V26.512H24.3792ZM36.3899 28.228C35.0699 28.228 33.9259 27.948 32.9579 27.388C31.9899 26.828 31.2419 26.056 30.7139 25.072C30.1859 24.08 29.9219 22.94 29.9219 21.652C29.9219 20.348 30.1859 19.196 30.7139 18.196C31.2499 17.196 31.9939 16.412 32.9459 15.844C33.9059 15.276 35.0219 14.992 36.2939 14.992C37.5739 14.992 38.6819 15.272 39.6179 15.832C40.5539 16.392 41.2739 17.168 41.7779 18.16C42.2819 19.152 42.5339 20.296 42.5339 21.592C42.5339 21.744 42.5299 21.864 42.5219 21.952C42.5219 22.04 42.5139 22.116 42.4979 22.18H40.7939C40.8019 22.084 40.8059 21.98 40.8059 21.868C40.8139 21.748 40.8179 21.612 40.8179 21.46C40.8179 20.508 40.6339 19.664 40.2659 18.928C39.9059 18.184 39.3899 17.6 38.7179 17.176C38.0459 16.752 37.2379 16.54 36.2939 16.54C35.3739 16.54 34.5659 16.76 33.8699 17.2C33.1739 17.632 32.6339 18.232 32.2499 19C31.8659 19.76 31.6739 20.644 31.6739 21.652C31.6739 22.628 31.8619 23.492 32.2379 24.244C32.6219 24.988 33.1659 25.572 33.8699 25.996C34.5739 26.42 35.4099 26.632 36.3779 26.632C37.3859 26.632 38.2579 26.396 38.9939 25.924C39.7379 25.444 40.2899 24.792 40.6499 23.968L42.2819 24.58C41.8099 25.708 41.0539 26.6 40.0139 27.256C38.9819 27.904 37.7739 28.228 36.3899 28.228ZM31.0139 22.18V20.848H41.9819L42.4859 22.18H31.0139ZM54.8174 28C54.4894 28 54.2374 27.896 54.0614 27.688C53.8934 27.48 53.8094 27.188 53.8094 26.812V22.972L53.9654 22.576L53.8814 21.124L53.8094 20.368V19.396C53.8094 18.74 53.6734 18.204 53.4014 17.788C53.1374 17.372 52.7534 17.064 52.2494 16.864C51.7454 16.664 51.1374 16.564 50.4254 16.564C49.3614 16.564 48.5374 16.776 47.9534 17.2C47.3774 17.616 46.9934 18.244 46.8014 19.084L45.1454 18.736C45.3054 17.896 45.6054 17.2 46.0454 16.648C46.4854 16.088 47.0694 15.672 47.7974 15.4C48.5334 15.12 49.4294 14.98 50.4854 14.98C51.5894 14.98 52.5134 15.136 53.2574 15.448C54.0094 15.752 54.5774 16.22 54.9614 16.852C55.3454 17.484 55.5374 18.3 55.5374 19.3V26.512H57.4214V28H54.8174ZM48.7934 28.168C47.4654 28.168 46.4574 27.876 45.7694 27.292C45.0814 26.7 44.7374 25.832 44.7374 24.688C44.7374 23.632 45.0414 22.828 45.6494 22.276C46.2574 21.716 47.2334 21.296 48.5774 21.016L54.3254 19.792V21.028L48.8654 22.264C48.0814 22.448 47.4934 22.72 47.1014 23.08C46.7174 23.432 46.5254 23.932 46.5254 24.58C46.5254 25.284 46.7414 25.812 47.1734 26.164C47.6054 26.508 48.2374 26.68 49.0694 26.68C49.9894 26.68 50.8134 26.468 51.5414 26.044C52.2694 25.62 52.8414 24.996 53.2574 24.172C53.6734 23.348 53.8814 22.332 53.8814 21.124L54.3374 23.956H53.7254C53.5254 25.292 53.0054 26.328 52.1654 27.064C51.3334 27.8 50.2094 28.168 48.7934 28.168ZM62.3306 24.616C62.3306 25.288 62.4586 25.796 62.7146 26.14C62.9706 26.476 63.3626 26.644 63.8906 26.644C64.4106 26.644 64.8026 26.472 65.0666 26.128C65.3306 25.776 65.4626 25.272 65.4626 24.616V23.428H67.0226V24.604C67.0226 25.372 66.9066 26.028 66.6746 26.572C66.4506 27.108 66.1066 27.52 65.6426 27.808C65.1786 28.088 64.5826 28.228 63.8546 28.228C63.1106 28.228 62.4986 28.084 62.0186 27.796C61.5386 27.5 61.1826 27.084 60.9506 26.548C60.7186 26.012 60.6026 25.368 60.6026 24.616L60.6146 16.708H58.3346V15.22H60.6146V11.98H62.3426V15.22H66.8546L66.8426 16.708H62.3426L62.3306 24.616Z" fill="black"/>
<path d="M1 6.35211L6 1V39L1 33.6479V6.35211Z" fill="white"/>
<path d="M6 1L1 6.35211V33.6479L6 39" stroke="black" stroke-linecap="round"/>
<path d="M78 33.6479L73 39L73 1L78 6.35211L78 33.6479Z" fill="white"/>
<path d="M73 39L78 33.6479L78 6.35211L73 1" stroke="black" stroke-linecap="round"/>
</svg>
