<svg width="85" height="40" viewBox="0 0 85 40" fill="none" xmlns="http://www.w3.org/2000/svg">
<path d="M6 1H79V39H6V1Z" fill="white"/>
<path d="M6 1.5H79V0.5H6V1.5ZM79 38.5H6V39.5H79V38.5Z" fill="black"/>
<path d="M18.9837 28.228C17.6557 28.228 16.4997 27.948 15.5157 27.388C14.5397 26.828 13.7797 26.056 13.2357 25.072C12.6997 24.08 12.4317 22.94 12.4317 21.652C12.4317 20.676 12.5797 19.784 12.8757 18.976C13.1717 18.16 13.5957 17.456 14.1477 16.864C14.6997 16.264 15.3557 15.804 16.1157 15.484C16.8757 15.156 17.7237 14.992 18.6597 14.992C19.5637 14.992 20.3157 15.14 20.9157 15.436C21.5237 15.724 21.9957 16.124 22.3318 16.636C22.6678 17.14 22.8837 17.72 22.9797 18.376H23.3997L23.0518 20.188C22.9478 19.468 22.7118 18.836 22.3438 18.292C21.9757 17.74 21.4957 17.312 20.9037 17.008C20.3117 16.696 19.6277 16.54 18.8517 16.54C17.9237 16.54 17.1077 16.76 16.4037 17.2C15.7077 17.632 15.1637 18.232 14.7717 19C14.3877 19.76 14.1957 20.644 14.1957 21.652C14.1957 22.628 14.3917 23.492 14.7837 24.244C15.1837 24.988 15.7397 25.572 16.4517 25.996C17.1717 26.42 18.0197 26.632 18.9957 26.632C20.0037 26.632 20.8717 26.412 21.5997 25.972C22.3277 25.524 22.8597 24.924 23.1957 24.172L24.7917 24.88C24.3357 25.912 23.6037 26.728 22.5957 27.328C21.5957 27.928 20.3917 28.228 18.9837 28.228ZM23.0518 20.188V15.22H24.7797V20.188H23.0518ZM37.1278 28C36.7998 28 36.5478 27.896 36.3718 27.688C36.2038 27.48 36.1198 27.188 36.1198 26.812V22.972L36.2758 22.576L36.1918 21.124L36.1198 20.368V19.396C36.1198 18.74 35.9838 18.204 35.7118 17.788C35.4478 17.372 35.0638 17.064 34.5598 16.864C34.0558 16.664 33.4478 16.564 32.7357 16.564C31.6718 16.564 30.8478 16.776 30.2637 17.2C29.6877 17.616 29.3037 18.244 29.1117 19.084L27.4557 18.736C27.6157 17.896 27.9157 17.2 28.3557 16.648C28.7957 16.088 29.3797 15.672 30.1077 15.4C30.8437 15.12 31.7397 14.98 32.7957 14.98C33.8997 14.98 34.8238 15.136 35.5677 15.448C36.3198 15.752 36.8878 16.22 37.2718 16.852C37.6558 17.484 37.8478 18.3 37.8478 19.3V26.512H39.7318V28H37.1278ZM31.1037 28.168C29.7757 28.168 28.7677 27.876 28.0797 27.292C27.3917 26.7 27.0477 25.832 27.0477 24.688C27.0477 23.632 27.3517 22.828 27.9597 22.276C28.5677 21.716 29.5438 21.296 30.8878 21.016L36.6358 19.792V21.028L31.1758 22.264C30.3918 22.448 29.8038 22.72 29.4117 23.08C29.0278 23.432 28.8358 23.932 28.8358 24.58C28.8358 25.284 29.0518 25.812 29.4837 26.164C29.9157 26.508 30.5477 26.68 31.3797 26.68C32.2998 26.68 33.1238 26.468 33.8517 26.044C34.5798 25.62 35.1518 24.996 35.5677 24.172C35.9838 23.348 36.1918 22.332 36.1918 21.124L36.6478 23.956H36.0358C35.8358 25.292 35.3158 26.328 34.4758 27.064C33.6438 27.8 32.5197 28.168 31.1037 28.168ZM45.2769 26.512H47.9049V28H40.9209V26.512H43.5489V10.528H40.9209V9.04H45.2769V26.512ZM66.9601 28V26.512H69.2161V19.804C69.2161 18.756 68.9841 17.936 68.5201 17.344C68.0561 16.752 67.3321 16.456 66.3481 16.456C65.5561 16.456 64.8521 16.664 64.2361 17.08C63.6201 17.496 63.1361 18.092 62.7841 18.868C62.4321 19.644 62.2561 20.576 62.2561 21.664L61.8361 19.096H62.3281C62.5281 17.704 63.0441 16.664 63.8761 15.976C64.7161 15.288 65.7361 14.944 66.9361 14.944C68.2881 14.944 69.2921 15.344 69.9481 16.144C70.6121 16.944 70.9441 18.072 70.9441 19.528V26.512H73.3921V28H66.9601ZM49.2721 28V26.512H51.8281V16.708H49.2721V15.22H53.5561V26.512H55.8241V28H49.2721ZM58.2721 28V26.512H60.5281V19.804C60.5281 18.756 60.2961 17.936 59.8321 17.344C59.3681 16.752 58.6441 16.456 57.6601 16.456C56.8681 16.456 56.1641 16.664 55.5481 17.08C54.9321 17.496 54.4441 18.092 54.0841 18.868C53.7321 19.644 53.5561 20.576 53.5561 21.664L53.1481 19.096H53.6401C53.8321 17.704 54.3481 16.664 55.1881 15.976C56.0281 15.288 57.0481 14.944 58.2481 14.944C59.6001 14.944 60.6041 15.344 61.2601 16.144C61.9241 16.944 62.2561 18.072 62.2561 19.528V26.512H64.7041V28H58.2721Z" fill="black"/>
<path d="M1 6.35211L6 1V39L1 33.6479V6.35211Z" fill="white"/>
<path d="M6 1L1 6.35211V33.6479L6 39" stroke="black" stroke-linecap="round"/>
<path d="M84 33.6479L79 39L79 1L84 6.35211L84 33.6479Z" fill="white"/>
<path d="M79 39L84 33.6479L84 6.35211L79 1" stroke="black" stroke-linecap="round"/>
</svg>
