<svg width="163" height="40" viewBox="0 0 163 40" fill="none" xmlns="http://www.w3.org/2000/svg">
<path d="M6 1H157V39H6V1Z" fill="white"/>
<path d="M6 1.5H157V0.5H6V1.5ZM157 38.5H6V39.5H157V38.5Z" fill="black"/>
<path d="M29.9551 28V26.512H32.2111V19.804C32.2111 18.756 31.9791 17.936 31.5151 17.344C31.0511 16.752 30.3271 16.456 29.3431 16.456C28.5511 16.456 27.8471 16.664 27.2311 17.08C26.6151 17.496 26.1311 18.092 25.7791 18.868C25.4271 19.644 25.2511 20.576 25.2511 21.664L24.8311 19.096H25.3231C25.5231 17.704 26.0391 16.664 26.8711 15.976C27.7111 15.288 28.7311 14.944 29.9311 14.944C31.2831 14.944 32.2871 15.344 32.9431 16.144C33.6071 16.944 33.9391 18.072 33.9391 19.528V26.512H36.3871V28H29.9551ZM12.2671 28V26.512H14.8231V16.708H12.2671V15.22H16.5511V26.512H18.8191V28H12.2671ZM21.2671 28V26.512H23.5231V19.804C23.5231 18.756 23.2911 17.936 22.8271 17.344C22.3631 16.752 21.6391 16.456 20.6551 16.456C19.8631 16.456 19.1591 16.664 18.5431 17.08C17.9271 17.496 17.4391 18.092 17.0791 18.868C16.7271 19.644 16.5511 20.576 16.5511 21.664L16.1431 19.096H16.6351C16.8271 17.704 17.3431 16.664 18.1831 15.976C19.0231 15.288 20.0431 14.944 21.2431 14.944C22.5951 14.944 23.5991 15.344 24.2551 16.144C24.9191 16.944 25.2511 18.072 25.2511 19.528V26.512H27.6991V28H21.2671ZM44.2049 28.228C42.8849 28.228 41.7409 27.948 40.7729 27.388C39.8049 26.828 39.0569 26.056 38.5289 25.072C38.0009 24.08 37.7369 22.94 37.7369 21.652C37.7369 20.348 38.0009 19.196 38.5289 18.196C39.0649 17.196 39.8089 16.412 40.7609 15.844C41.7209 15.276 42.8369 14.992 44.1089 14.992C45.3889 14.992 46.4969 15.272 47.4329 15.832C48.3689 16.392 49.0889 17.168 49.5929 18.16C50.0969 19.152 50.3489 20.296 50.3489 21.592C50.3489 21.744 50.3449 21.864 50.3369 21.952C50.3369 22.04 50.3289 22.116 50.3129 22.18H48.6089C48.6169 22.084 48.6209 21.98 48.6209 21.868C48.6289 21.748 48.6329 21.612 48.6329 21.46C48.6329 20.508 48.4489 19.664 48.0809 18.928C47.7209 18.184 47.2049 17.6 46.5329 17.176C45.8609 16.752 45.0529 16.54 44.1089 16.54C43.1889 16.54 42.3809 16.76 41.6849 17.2C40.9889 17.632 40.4489 18.232 40.0649 19C39.6809 19.76 39.4889 20.644 39.4889 21.652C39.4889 22.628 39.6769 23.492 40.0529 24.244C40.4369 24.988 40.9809 25.572 41.6849 25.996C42.3889 26.42 43.2249 26.632 44.1929 26.632C45.2009 26.632 46.0729 26.396 46.8089 25.924C47.5529 25.444 48.1049 24.792 48.4649 23.968L50.0969 24.58C49.6249 25.708 48.8689 26.6 47.8289 27.256C46.7969 27.904 45.5889 28.228 44.2049 28.228ZM38.8289 22.18V20.848H49.7969L50.3009 22.18H38.8289ZM55.6724 24.616C55.6724 25.288 55.8004 25.796 56.0564 26.14C56.3124 26.476 56.7044 26.644 57.2324 26.644C57.7524 26.644 58.1444 26.472 58.4084 26.128C58.6724 25.776 58.8044 25.272 58.8044 24.616V23.428H60.3644V24.604C60.3644 25.372 60.2484 26.028 60.0164 26.572C59.7924 27.108 59.4484 27.52 58.9844 27.808C58.5204 28.088 57.9244 28.228 57.1964 28.228C56.4524 28.228 55.8404 28.084 55.3604 27.796C54.8804 27.5 54.5244 27.084 54.2924 26.548C54.0604 26.012 53.9444 25.368 53.9444 24.616L53.9564 16.708H51.6764V15.22H53.9564V11.98H55.6844V15.22H60.1964L60.1844 16.708H55.6844L55.6724 24.616ZM66.5375 26.512H68.9975V28H62.2175V26.512H64.8095V16.708H62.2175V15.22H66.5375V26.512ZM64.4855 9.832H66.6935V12.124H64.4855V9.832ZM77.1031 28.228C75.7751 28.228 74.6191 27.948 73.6351 27.388C72.6591 26.828 71.8991 26.056 71.3551 25.072C70.8191 24.08 70.5511 22.94 70.5511 21.652C70.5511 20.676 70.6991 19.784 70.9951 18.976C71.2911 18.16 71.7151 17.456 72.2671 16.864C72.8191 16.264 73.4751 15.804 74.2351 15.484C74.9951 15.156 75.8431 14.992 76.7791 14.992C77.6831 14.992 78.4351 15.14 79.0351 15.436C79.6431 15.724 80.1151 16.124 80.4511 16.636C80.7871 17.14 81.0031 17.72 81.0991 18.376H81.5191L81.1711 20.188C81.0671 19.468 80.8311 18.836 80.4631 18.292C80.0951 17.74 79.6151 17.312 79.0231 17.008C78.4311 16.696 77.7471 16.54 76.9711 16.54C76.0431 16.54 75.2271 16.76 74.5231 17.2C73.8271 17.632 73.2831 18.232 72.8911 19C72.5071 19.76 72.3151 20.644 72.3151 21.652C72.3151 22.628 72.5111 23.492 72.9031 24.244C73.3031 24.988 73.8591 25.572 74.5711 25.996C75.2911 26.42 76.1391 26.632 77.1151 26.632C78.1231 26.632 78.9911 26.412 79.7191 25.972C80.4471 25.524 80.9791 24.924 81.3151 24.172L82.9111 24.88C82.4551 25.912 81.7231 26.728 80.7151 27.328C79.7151 27.928 78.5111 28.228 77.1031 28.228ZM81.1711 20.188V15.22H82.8991V20.188H81.1711ZM95.4271 16.708H92.9551V15.22H97.1551V26.512H99.6511V28H95.4271V16.708ZM88.2871 15.22V23.368C88.2871 24.416 88.5191 25.244 88.9831 25.852C89.4551 26.452 90.1951 26.752 91.2031 26.752C92.0111 26.752 92.7311 26.548 93.3631 26.14C94.0031 25.724 94.5071 25.128 94.8751 24.352C95.2431 23.576 95.4271 22.644 95.4271 21.556L95.8471 24.112H95.3431C95.1271 25.488 94.5911 26.528 93.7351 27.232C92.8871 27.928 91.8431 28.276 90.6031 28.276C89.2271 28.276 88.2071 27.868 87.5431 27.052C86.8871 26.236 86.5591 25.104 86.5591 23.656V16.708H84.2431V15.22H88.2871ZM105.06 26.512H107.688V28H100.704V26.512H103.332V10.528H100.704V9.04H105.06V26.512ZM115.614 28.228C114.286 28.228 113.122 27.948 112.122 27.388C111.122 26.82 110.342 26.044 109.782 25.06C109.222 24.076 108.942 22.94 108.942 21.652C108.942 20.356 109.222 19.208 109.782 18.208C110.342 17.2 111.122 16.412 112.122 15.844C113.122 15.276 114.286 14.992 115.614 14.992C116.942 14.992 118.106 15.276 119.106 15.844C120.106 16.412 120.886 17.2 121.446 18.208C122.006 19.208 122.286 20.356 122.286 21.652C122.286 22.94 122.006 24.076 121.446 25.06C120.886 26.044 120.106 26.82 119.106 27.388C118.106 27.948 116.942 28.228 115.614 28.228ZM115.614 26.632C116.574 26.632 117.418 26.424 118.146 26.008C118.882 25.592 119.454 25.012 119.862 24.268C120.278 23.516 120.486 22.644 120.486 21.652C120.486 20.652 120.278 19.772 119.862 19.012C119.454 18.252 118.882 17.66 118.146 17.236C117.418 16.804 116.574 16.588 115.614 16.588C114.654 16.588 113.806 16.804 113.07 17.236C112.342 17.66 111.77 18.252 111.354 19.012C110.946 19.772 110.742 20.652 110.742 21.652C110.742 22.644 110.946 23.516 111.354 24.268C111.77 25.012 112.342 25.592 113.07 26.008C113.806 26.424 114.654 26.632 115.614 26.632ZM134.839 16.708H132.367V15.22H136.567V26.512H139.063V28H134.839V16.708ZM127.699 15.22V23.368C127.699 24.416 127.931 25.244 128.395 25.852C128.867 26.452 129.607 26.752 130.615 26.752C131.423 26.752 132.143 26.548 132.775 26.14C133.415 25.724 133.919 25.128 134.287 24.352C134.655 23.576 134.839 22.644 134.839 21.556L135.259 24.112H134.755C134.539 25.488 134.003 26.528 133.147 27.232C132.299 27.928 131.255 28.276 130.015 28.276C128.639 28.276 127.619 27.868 126.955 27.052C126.299 26.236 125.971 25.104 125.971 23.656V16.708H123.655V15.22H127.699ZM146.776 28.228C145.92 28.228 145.196 28.1 144.604 27.844C144.02 27.588 143.556 27.248 143.212 26.824C142.868 26.392 142.644 25.912 142.54 25.384H142.108L142.456 23.968C142.608 24.808 143.024 25.492 143.704 26.02C144.392 26.548 145.284 26.812 146.38 26.812C147.316 26.812 148.04 26.624 148.552 26.248C149.072 25.864 149.332 25.308 149.332 24.58C149.332 23.916 149.076 23.4 148.564 23.032C148.052 22.664 147.156 22.384 145.876 22.192C144.044 21.904 142.74 21.452 141.964 20.836C141.188 20.212 140.8 19.392 140.8 18.376C140.8 17.352 141.156 16.532 141.868 15.916C142.58 15.3 143.572 14.992 144.844 14.992C145.684 14.992 146.376 15.12 146.92 15.376C147.472 15.632 147.896 15.976 148.192 16.408C148.488 16.832 148.68 17.3 148.768 17.812H149.2L148.852 19.168C148.708 18.352 148.316 17.688 147.676 17.176C147.036 16.656 146.2 16.396 145.168 16.396C144.336 16.396 143.684 16.572 143.212 16.924C142.748 17.276 142.516 17.744 142.516 18.328C142.516 18.944 142.808 19.428 143.392 19.78C143.976 20.124 144.896 20.396 146.152 20.596C147.928 20.876 149.188 21.336 149.932 21.976C150.676 22.616 151.048 23.48 151.048 24.568C151.048 25.712 150.68 26.608 149.944 27.256C149.216 27.904 148.16 28.228 146.776 28.228ZM140.728 28V23.968H142.456V28H140.728ZM148.852 19.168V15.22H150.58V19.168H148.852Z" fill="black"/>
<path d="M1 6.35211L6 1V39L1 33.6479V6.35211Z" fill="white"/>
<path d="M6 1L1 6.35211V33.6479L6 39" stroke="black" stroke-linecap="round"/>
<path d="M162 33.6479L157 39L157 1L162 6.35211L162 33.6479Z" fill="white"/>
<path d="M157 39L162 33.6479L162 6.35211L157 1" stroke="black" stroke-linecap="round"/>
</svg>
