<svg width="214" height="40" viewBox="0 0 214 40" fill="none" xmlns="http://www.w3.org/2000/svg">
<path d="M6 1H208V39H6V1Z" fill="white"/>
<path d="M6 1.5H208V0.5H6V1.5ZM208 38.5H6V39.5H208V38.5Z" fill="black"/>
<path d="M16.3034 26.512H18.5714V28H12.0074V26.512H14.5754V10.528H12.0074V9.04H16.3034V26.512ZM20.7674 19.9L25.8434 26.512H27.5114V28H20.9354V26.512H23.7074L19.5434 20.944L20.7674 19.9ZM15.7874 24.556L15.4274 23.176L23.2634 16.708H19.3634V15.22H27.3074V16.708H25.5074L15.7874 24.556ZM33.2225 26.512H35.5025V28H28.8665V26.512H31.4945V16.708H28.8665V15.22H33.2225V26.512ZM40.5905 26.512V19.828C40.5905 18.78 40.3545 17.956 39.8825 17.356C39.4105 16.756 38.6665 16.456 37.6505 16.456C36.8265 16.456 36.0785 16.66 35.4065 17.068C34.7345 17.476 34.2025 18.068 33.8105 18.844C33.4185 19.62 33.2225 20.56 33.2225 21.664L32.8265 19.108H33.3065C33.4585 18.236 33.7505 17.496 34.1825 16.888C34.6145 16.272 35.1665 15.804 35.8385 15.484C36.5185 15.156 37.2985 14.992 38.1785 14.992C39.5705 14.992 40.6065 15.396 41.2865 16.204C41.9745 17.004 42.3185 18.136 42.3185 19.6V26.512H44.7785V28H38.3465V26.512H40.5905ZM52.7572 28.228C51.4292 28.228 50.2652 27.948 49.2652 27.388C48.2652 26.82 47.4852 26.044 46.9252 25.06C46.3652 24.076 46.0852 22.94 46.0852 21.652C46.0852 20.356 46.3652 19.208 46.9252 18.208C47.4852 17.2 48.2652 16.412 49.2652 15.844C50.2652 15.276 51.4292 14.992 52.7572 14.992C54.0852 14.992 55.2492 15.276 56.2492 15.844C57.2492 16.412 58.0292 17.2 58.5892 18.208C59.1492 19.208 59.4292 20.356 59.4292 21.652C59.4292 22.94 59.1492 24.076 58.5892 25.06C58.0292 26.044 57.2492 26.82 56.2492 27.388C55.2492 27.948 54.0852 28.228 52.7572 28.228ZM52.7572 26.632C53.7172 26.632 54.5612 26.424 55.2892 26.008C56.0252 25.592 56.5972 25.012 57.0052 24.268C57.4212 23.516 57.6292 22.644 57.6292 21.652C57.6292 20.652 57.4212 19.772 57.0052 19.012C56.5972 18.252 56.0252 17.66 55.2892 17.236C54.5612 16.804 53.7172 16.588 52.7572 16.588C51.7972 16.588 50.9492 16.804 50.2132 17.236C49.4852 17.66 48.9132 18.252 48.4972 19.012C48.0892 19.772 47.8852 20.652 47.8852 21.652C47.8852 22.644 48.0892 23.516 48.4972 24.268C48.9132 25.012 49.4852 25.592 50.2132 26.008C50.9492 26.424 51.7972 26.632 52.7572 26.632ZM76.4362 15.22H82.2322V16.708H80.6722L76.6762 28H74.6722L70.6282 16.672L71.9962 18.412H70.3642L71.7322 16.672L67.9282 28H65.9122L61.7122 16.708H60.1402V15.22H66.0202V16.708H63.5602L67.4842 28L66.0442 26.332H67.7122L66.4042 28L70.3162 16.708H68.3122V15.22H74.2402V16.708H72.2842L76.3522 28L74.8882 26.332H76.5322L75.2962 28L79.0162 16.708H76.4362V15.22ZM86.9122 26.512H89.5402V28H82.5562V26.512H85.1842V10.528H82.5562V9.04H86.9122V26.512ZM97.3096 28.228C95.9896 28.228 94.8456 27.948 93.8776 27.388C92.9096 26.828 92.1616 26.056 91.6336 25.072C91.1056 24.08 90.8416 22.94 90.8416 21.652C90.8416 20.348 91.1056 19.196 91.6336 18.196C92.1696 17.196 92.9136 16.412 93.8656 15.844C94.8256 15.276 95.9416 14.992 97.2136 14.992C98.4936 14.992 99.6016 15.272 100.538 15.832C101.474 16.392 102.194 17.168 102.698 18.16C103.202 19.152 103.454 20.296 103.454 21.592C103.454 21.744 103.45 21.864 103.442 21.952C103.442 22.04 103.434 22.116 103.418 22.18H101.714C101.722 22.084 101.726 21.98 101.726 21.868C101.734 21.748 101.738 21.612 101.738 21.46C101.738 20.508 101.554 19.664 101.186 18.928C100.826 18.184 100.31 17.6 99.6376 17.176C98.9656 16.752 98.1576 16.54 97.2136 16.54C96.2936 16.54 95.4856 16.76 94.7896 17.2C94.0936 17.632 93.5536 18.232 93.1696 19C92.7856 19.76 92.5936 20.644 92.5936 21.652C92.5936 22.628 92.7816 23.492 93.1576 24.244C93.5416 24.988 94.0856 25.572 94.7896 25.996C95.4936 26.42 96.3296 26.632 97.2976 26.632C98.3056 26.632 99.1776 26.396 99.9136 25.924C100.658 25.444 101.21 24.792 101.57 23.968L103.202 24.58C102.73 25.708 101.974 26.6 100.934 27.256C99.9016 27.904 98.6936 28.228 97.3096 28.228ZM91.9336 22.18V20.848H102.902L103.406 22.18H91.9336ZM116.613 28V23.224L116.685 22.288V20.764L116.613 19.084V10.528H113.169V9.04H118.341V26.512H120.789V28H116.613ZM111.801 14.98C112.857 14.98 113.801 15.212 114.633 15.676C115.473 16.14 116.165 16.804 116.709 17.668C117.253 18.524 117.613 19.552 117.789 20.752L116.685 21.58C116.685 20.596 116.493 19.724 116.109 18.964C115.733 18.204 115.193 17.612 114.489 17.188C113.785 16.756 112.949 16.54 111.981 16.54C111.029 16.54 110.201 16.756 109.497 17.188C108.793 17.62 108.249 18.216 107.865 18.976C107.489 19.736 107.301 20.616 107.301 21.616C107.301 22.608 107.497 23.484 107.889 24.244C108.281 25.004 108.829 25.604 109.533 26.044C110.245 26.476 111.061 26.692 111.981 26.692C112.941 26.692 113.769 26.476 114.465 26.044C115.169 25.604 115.713 25 116.097 24.232C116.489 23.464 116.685 22.58 116.685 21.58L116.949 24.304H116.541C116.397 25.008 116.117 25.66 115.701 26.26C115.285 26.852 114.737 27.332 114.057 27.7C113.377 28.06 112.561 28.24 111.609 28.24C110.721 28.24 109.905 28.08 109.161 27.76C108.417 27.432 107.773 26.972 107.229 26.38C106.685 25.78 106.261 25.076 105.957 24.268C105.661 23.46 105.513 22.576 105.513 21.616C105.513 20.32 105.773 19.172 106.293 18.172C106.813 17.172 107.541 16.392 108.477 15.832C109.421 15.264 110.529 14.98 111.801 14.98ZM128.496 33.304C127.376 33.304 126.36 33.196 125.448 32.98C124.544 32.772 123.824 32.44 123.288 31.984C122.752 31.528 122.484 30.924 122.484 30.172C122.484 29.42 122.752 28.848 123.288 28.456C123.832 28.072 124.532 27.82 125.388 27.7V27.496L127.524 27.7C126.636 27.7 125.94 27.804 125.436 28.012C124.932 28.228 124.576 28.5 124.368 28.828C124.16 29.164 124.056 29.508 124.056 29.86C124.056 30.404 124.256 30.828 124.656 31.132C125.056 31.436 125.592 31.652 126.264 31.78C126.944 31.908 127.704 31.972 128.544 31.972C130.232 31.972 131.464 31.744 132.24 31.288C133.024 30.84 133.416 30.212 133.416 29.404C133.416 28.268 132.68 27.7 131.208 27.7H126.312C125.352 27.7 124.596 27.528 124.044 27.184C123.5 26.832 123.228 26.328 123.228 25.672C123.228 25.048 123.476 24.572 123.972 24.244C124.468 23.908 125.176 23.704 126.096 23.632V23.272L128.28 23.896H126.972C126.284 23.896 125.76 23.992 125.4 24.184C125.04 24.368 124.86 24.652 124.86 25.036C124.86 25.396 125.024 25.656 125.352 25.816C125.688 25.968 126.192 26.044 126.864 26.044H131.16C131.984 26.044 132.684 26.18 133.26 26.452C133.844 26.716 134.284 27.096 134.58 27.592C134.884 28.088 135.036 28.68 135.036 29.368C135.036 30.104 134.828 30.768 134.412 31.36C133.996 31.96 133.308 32.432 132.348 32.776C131.396 33.128 130.112 33.304 128.496 33.304ZM128.28 23.896C127.264 23.896 126.36 23.712 125.568 23.344C124.776 22.976 124.152 22.46 123.696 21.796C123.24 21.132 123.012 20.352 123.012 19.456C123.012 18.56 123.236 17.78 123.684 17.116C124.14 16.444 124.76 15.924 125.544 15.556C126.336 15.18 127.248 14.992 128.28 14.992C129.328 14.992 130.252 15.188 131.052 15.58C131.86 15.972 132.476 16.516 132.9 17.212C133.108 17.532 133.26 17.88 133.356 18.256C133.46 18.624 133.512 19.024 133.512 19.456C133.512 20.352 133.288 21.132 132.84 21.796C132.392 22.46 131.772 22.976 130.98 23.344C130.196 23.712 129.296 23.896 128.28 23.896ZM128.28 22.48C128.96 22.48 129.564 22.356 130.092 22.108C130.628 21.86 131.048 21.508 131.352 21.052C131.664 20.596 131.82 20.064 131.82 19.456C131.82 18.848 131.664 18.316 131.352 17.86C131.048 17.396 130.628 17.04 130.092 16.792C129.564 16.536 128.96 16.408 128.28 16.408C127.584 16.408 126.968 16.536 126.432 16.792C125.896 17.04 125.472 17.396 125.16 17.86C124.856 18.316 124.704 18.848 124.704 19.456C124.704 20.064 124.856 20.596 125.16 21.052C125.472 21.508 125.896 21.86 126.432 22.108C126.976 22.356 127.592 22.48 128.28 22.48ZM133.512 19.456L132.912 18.052L132.384 17.188L132.864 16.996C132.84 16.916 132.82 16.836 132.804 16.756C132.796 16.668 132.792 16.576 132.792 16.48C132.792 16.144 132.872 15.84 133.032 15.568C133.192 15.296 133.424 15.08 133.728 14.92C134.032 14.76 134.404 14.68 134.844 14.68C134.956 14.68 135.056 14.684 135.144 14.692C135.24 14.7 135.332 14.716 135.42 14.74V16.408C135.268 16.384 135.128 16.368 135 16.36C134.872 16.344 134.744 16.336 134.616 16.336C134.28 16.336 134.008 16.384 133.8 16.48C133.6 16.576 133.456 16.7 133.368 16.852C133.28 16.996 133.236 17.156 133.236 17.332C133.236 17.5 133.26 17.684 133.308 17.884C133.356 18.076 133.4 18.3 133.44 18.556C133.488 18.812 133.512 19.112 133.512 19.456ZM143.12 28.228C141.8 28.228 140.656 27.948 139.688 27.388C138.72 26.828 137.972 26.056 137.444 25.072C136.916 24.08 136.652 22.94 136.652 21.652C136.652 20.348 136.916 19.196 137.444 18.196C137.98 17.196 138.724 16.412 139.676 15.844C140.636 15.276 141.752 14.992 143.024 14.992C144.304 14.992 145.412 15.272 146.348 15.832C147.284 16.392 148.004 17.168 148.508 18.16C149.012 19.152 149.264 20.296 149.264 21.592C149.264 21.744 149.26 21.864 149.252 21.952C149.252 22.04 149.244 22.116 149.228 22.18H147.524C147.532 22.084 147.536 21.98 147.536 21.868C147.544 21.748 147.548 21.612 147.548 21.46C147.548 20.508 147.364 19.664 146.996 18.928C146.636 18.184 146.12 17.6 145.448 17.176C144.776 16.752 143.968 16.54 143.024 16.54C142.104 16.54 141.296 16.76 140.6 17.2C139.904 17.632 139.364 18.232 138.98 19C138.596 19.76 138.404 20.644 138.404 21.652C138.404 22.628 138.592 23.492 138.968 24.244C139.352 24.988 139.896 25.572 140.6 25.996C141.304 26.42 142.14 26.632 143.108 26.632C144.116 26.632 144.988 26.396 145.724 25.924C146.468 25.444 147.02 24.792 147.38 23.968L149.012 24.58C148.54 25.708 147.784 26.6 146.744 27.256C145.712 27.904 144.504 28.228 143.12 28.228ZM137.744 22.18V20.848H148.712L149.216 22.18H137.744ZM161.547 28C161.219 28 160.967 27.896 160.791 27.688C160.623 27.48 160.539 27.188 160.539 26.812V22.972L160.695 22.576L160.611 21.124L160.539 20.368V19.396C160.539 18.74 160.403 18.204 160.131 17.788C159.867 17.372 159.483 17.064 158.979 16.864C158.475 16.664 157.867 16.564 157.155 16.564C156.091 16.564 155.267 16.776 154.683 17.2C154.107 17.616 153.723 18.244 153.531 19.084L151.875 18.736C152.035 17.896 152.335 17.2 152.775 16.648C153.215 16.088 153.799 15.672 154.527 15.4C155.263 15.12 156.159 14.98 157.215 14.98C158.319 14.98 159.243 15.136 159.987 15.448C160.739 15.752 161.307 16.22 161.691 16.852C162.075 17.484 162.267 18.3 162.267 19.3V26.512H164.151V28H161.547ZM155.523 28.168C154.195 28.168 153.187 27.876 152.499 27.292C151.811 26.7 151.467 25.832 151.467 24.688C151.467 23.632 151.771 22.828 152.379 22.276C152.987 21.716 153.963 21.296 155.307 21.016L161.055 19.792V21.028L155.595 22.264C154.811 22.448 154.223 22.72 153.831 23.08C153.447 23.432 153.255 23.932 153.255 24.58C153.255 25.284 153.471 25.812 153.903 26.164C154.335 26.508 154.967 26.68 155.799 26.68C156.719 26.68 157.543 26.468 158.271 26.044C158.999 25.62 159.571 24.996 159.987 24.172C160.403 23.348 160.611 22.332 160.611 21.124L161.067 23.956H160.455C160.255 25.292 159.735 26.328 158.895 27.064C158.063 27.8 156.939 28.168 155.523 28.168ZM167.032 28.264V10.528H164.464V9.04H168.76V19.696L168.688 21.196V22.792L168.76 25.12L167.188 28.264H167.032ZM173.5 28.24C172.428 28.24 171.468 28.04 170.62 27.64C169.78 27.232 169.084 26.656 168.532 25.912C167.988 25.16 167.624 24.268 167.44 23.236L168.688 21.616C168.688 22.6 168.876 23.472 169.252 24.232C169.628 24.992 170.168 25.592 170.872 26.032C171.576 26.464 172.412 26.68 173.38 26.68C174.364 26.68 175.204 26.468 175.9 26.044C176.604 25.62 177.14 25.028 177.508 24.268C177.884 23.5 178.072 22.608 178.072 21.592C178.072 20.6 177.872 19.724 177.472 18.964C177.08 18.204 176.532 17.608 175.828 17.176C175.124 16.744 174.308 16.528 173.38 16.528C172.428 16.528 171.6 16.744 170.896 17.176C170.192 17.608 169.648 18.204 169.264 18.964C168.88 19.724 168.688 20.608 168.688 21.616L168.412 18.916H168.82C168.972 18.212 169.252 17.564 169.66 16.972C170.076 16.372 170.624 15.892 171.304 15.532C171.992 15.164 172.812 14.98 173.764 14.98C174.652 14.98 175.468 15.144 176.212 15.472C176.956 15.792 177.6 16.252 178.144 16.852C178.688 17.444 179.108 18.148 179.404 18.964C179.7 19.772 179.848 20.66 179.848 21.628C179.848 22.916 179.584 24.06 179.056 25.06C178.536 26.052 177.8 26.832 176.848 27.4C175.896 27.96 174.78 28.24 173.5 28.24ZM185.576 26.512H188.204V28H181.22V26.512H183.848V10.528H181.22V9.04H185.576V26.512ZM195.973 28.228C194.653 28.228 193.509 27.948 192.541 27.388C191.573 26.828 190.825 26.056 190.297 25.072C189.769 24.08 189.505 22.94 189.505 21.652C189.505 20.348 189.769 19.196 190.297 18.196C190.833 17.196 191.577 16.412 192.529 15.844C193.489 15.276 194.605 14.992 195.877 14.992C197.157 14.992 198.265 15.272 199.201 15.832C200.137 16.392 200.857 17.168 201.361 18.16C201.865 19.152 202.117 20.296 202.117 21.592C202.117 21.744 202.113 21.864 202.105 21.952C202.105 22.04 202.097 22.116 202.081 22.18H200.377C200.385 22.084 200.389 21.98 200.389 21.868C200.397 21.748 200.401 21.612 200.401 21.46C200.401 20.508 200.217 19.664 199.849 18.928C199.489 18.184 198.973 17.6 198.301 17.176C197.629 16.752 196.821 16.54 195.877 16.54C194.957 16.54 194.149 16.76 193.453 17.2C192.757 17.632 192.217 18.232 191.833 19C191.449 19.76 191.257 20.644 191.257 21.652C191.257 22.628 191.445 23.492 191.821 24.244C192.205 24.988 192.749 25.572 193.453 25.996C194.157 26.42 194.993 26.632 195.961 26.632C196.969 26.632 197.841 26.396 198.577 25.924C199.321 25.444 199.873 24.792 200.233 23.968L201.865 24.58C201.393 25.708 200.637 26.6 199.597 27.256C198.565 27.904 197.357 28.228 195.973 28.228ZM190.597 22.18V20.848H201.565L202.069 22.18H190.597Z" fill="black"/>
<path d="M1 6.35211L6 1V39L1 33.6479V6.35211Z" fill="white"/>
<path d="M6 1L1 6.35211V33.6479L6 39" stroke="black" stroke-linecap="round"/>
<path d="M213 33.6479L208 39L208 1L213 6.35211L213 33.6479Z" fill="white"/>
<path d="M208 39L213 33.6479L213 6.35211L208 1" stroke="black" stroke-linecap="round"/>
</svg>
