<svg width="410" height="40" viewBox="0 0 410 40" fill="none" xmlns="http://www.w3.org/2000/svg">
<path d="M6 1H404V39H6V1Z" fill="white"/>
<path d="M6 1.5H404V0.5H6V1.5ZM404 38.5H6V39.5H404V38.5Z" fill="black"/>
<path d="M27.9166 15.22H33.7127V16.708H32.1527L28.1566 28H26.1526L22.1086 16.672L23.4766 18.412H21.8446L23.2126 16.672L19.4086 28H17.3926L13.1926 16.708H11.6206V15.22H17.5006V16.708H15.0406L18.9646 28L17.5246 26.332H19.1926L17.8846 28L21.7966 16.708H19.7926V15.22H25.7207V16.708H23.7646L27.8327 28L26.3686 26.332H28.0127L26.7766 28L30.4967 16.708H27.9166V15.22ZM39.3283 26.512H41.7883V28H35.0083V26.512H37.6003V16.708H35.0083V15.22H39.3283V26.512ZM37.2763 9.832H39.4843V12.124H37.2763V9.832ZM47.4283 26.512H50.0563V28H43.0723V26.512H45.7003V10.528H43.0723V9.04H47.4283V26.512ZM55.4795 26.512H58.1075V28H51.1235V26.512H53.7515V10.528H51.1235V9.04H55.4795V26.512ZM63.9508 26.512H66.4108V28H59.6308V26.512H62.2228V16.708H59.6308V15.22H63.9508V26.512ZM61.8988 9.832H64.1068V12.124H61.8988V9.832ZM72.1164 26.512H74.3964V28H67.7604V26.512H70.3884V16.708H67.7604V15.22H72.1164V26.512ZM79.4844 26.512V19.828C79.4844 18.78 79.2484 17.956 78.7764 17.356C78.3044 16.756 77.5604 16.456 76.5444 16.456C75.7204 16.456 74.9724 16.66 74.3004 17.068C73.6284 17.476 73.0964 18.068 72.7044 18.844C72.3124 19.62 72.1164 20.56 72.1164 21.664L71.7204 19.108H72.2004C72.3524 18.236 72.6444 17.496 73.0764 16.888C73.5084 16.272 74.0604 15.804 74.7324 15.484C75.4124 15.156 76.1924 14.992 77.0724 14.992C78.4644 14.992 79.5004 15.396 80.1804 16.204C80.8684 17.004 81.2124 18.136 81.2124 19.6V26.512H83.6724V28H77.2404V26.512H79.4844ZM91.1334 33.304C90.0134 33.304 88.9974 33.196 88.0854 32.98C87.1814 32.772 86.4614 32.44 85.9254 31.984C85.3894 31.528 85.1214 30.924 85.1214 30.172C85.1214 29.42 85.3894 28.848 85.9254 28.456C86.4694 28.072 87.1694 27.82 88.0254 27.7V27.496L90.1614 27.7C89.2734 27.7 88.5774 27.804 88.0734 28.012C87.5694 28.228 87.2134 28.5 87.0054 28.828C86.7974 29.164 86.6934 29.508 86.6934 29.86C86.6934 30.404 86.8934 30.828 87.2934 31.132C87.6934 31.436 88.2294 31.652 88.9014 31.78C89.5814 31.908 90.3414 31.972 91.1814 31.972C92.8694 31.972 94.1014 31.744 94.8774 31.288C95.6614 30.84 96.0534 30.212 96.0534 29.404C96.0534 28.268 95.3174 27.7 93.8454 27.7H88.9494C87.9894 27.7 87.2334 27.528 86.6814 27.184C86.1374 26.832 85.8654 26.328 85.8654 25.672C85.8654 25.048 86.1134 24.572 86.6094 24.244C87.1054 23.908 87.8134 23.704 88.7334 23.632V23.272L90.9174 23.896H89.6094C88.9214 23.896 88.3974 23.992 88.0374 24.184C87.6774 24.368 87.4974 24.652 87.4974 25.036C87.4974 25.396 87.6614 25.656 87.9894 25.816C88.3254 25.968 88.8294 26.044 89.5014 26.044H93.7974C94.6214 26.044 95.3214 26.18 95.8974 26.452C96.4814 26.716 96.9214 27.096 97.2174 27.592C97.5214 28.088 97.6734 28.68 97.6734 29.368C97.6734 30.104 97.4654 30.768 97.0494 31.36C96.6334 31.96 95.9454 32.432 94.9854 32.776C94.0334 33.128 92.7494 33.304 91.1334 33.304ZM90.9174 23.896C89.9014 23.896 88.9974 23.712 88.2054 23.344C87.4134 22.976 86.7894 22.46 86.3334 21.796C85.8774 21.132 85.6494 20.352 85.6494 19.456C85.6494 18.56 85.8734 17.78 86.3214 17.116C86.7774 16.444 87.3974 15.924 88.1814 15.556C88.9734 15.18 89.8854 14.992 90.9174 14.992C91.9654 14.992 92.8894 15.188 93.6894 15.58C94.4974 15.972 95.1134 16.516 95.5374 17.212C95.7454 17.532 95.8974 17.88 95.9934 18.256C96.0974 18.624 96.1494 19.024 96.1494 19.456C96.1494 20.352 95.9254 21.132 95.4774 21.796C95.0294 22.46 94.4094 22.976 93.6174 23.344C92.8334 23.712 91.9334 23.896 90.9174 23.896ZM90.9174 22.48C91.5974 22.48 92.2014 22.356 92.7294 22.108C93.2654 21.86 93.6854 21.508 93.9894 21.052C94.3014 20.596 94.4574 20.064 94.4574 19.456C94.4574 18.848 94.3014 18.316 93.9894 17.86C93.6854 17.396 93.2654 17.04 92.7294 16.792C92.2014 16.536 91.5974 16.408 90.9174 16.408C90.2214 16.408 89.6054 16.536 89.0694 16.792C88.5334 17.04 88.1094 17.396 87.7974 17.86C87.4934 18.316 87.3414 18.848 87.3414 19.456C87.3414 20.064 87.4934 20.596 87.7974 21.052C88.1094 21.508 88.5334 21.86 89.0694 22.108C89.6134 22.356 90.2294 22.48 90.9174 22.48ZM96.1494 19.456L95.5494 18.052L95.0214 17.188L95.5014 16.996C95.4774 16.916 95.4574 16.836 95.4414 16.756C95.4334 16.668 95.4294 16.576 95.4294 16.48C95.4294 16.144 95.5094 15.84 95.6694 15.568C95.8294 15.296 96.0614 15.08 96.3654 14.92C96.6694 14.76 97.0414 14.68 97.4814 14.68C97.5934 14.68 97.6934 14.684 97.7814 14.692C97.8774 14.7 97.9694 14.716 98.0574 14.74V16.408C97.9054 16.384 97.7654 16.368 97.6374 16.36C97.5094 16.344 97.3814 16.336 97.2534 16.336C96.9174 16.336 96.6454 16.384 96.4374 16.48C96.2374 16.576 96.0934 16.7 96.0054 16.852C95.9174 16.996 95.8734 17.156 95.8734 17.332C95.8734 17.5 95.8974 17.684 95.9454 17.884C95.9934 18.076 96.0374 18.3 96.0774 18.556C96.1254 18.812 96.1494 19.112 96.1494 19.456ZM109.678 24.616C109.678 25.288 109.806 25.796 110.062 26.14C110.318 26.476 110.71 26.644 111.238 26.644C111.758 26.644 112.15 26.472 112.414 26.128C112.678 25.776 112.81 25.272 112.81 24.616V23.428H114.37V24.604C114.37 25.372 114.254 26.028 114.022 26.572C113.798 27.108 113.454 27.52 112.99 27.808C112.526 28.088 111.93 28.228 111.202 28.228C110.458 28.228 109.846 28.084 109.366 27.796C108.886 27.5 108.53 27.084 108.298 26.548C108.066 26.012 107.95 25.368 107.95 24.616L107.962 16.708H105.682V15.22H107.962V11.98H109.69V15.22H114.202L114.19 16.708H109.69L109.678 24.616ZM122.836 28.228C121.508 28.228 120.344 27.948 119.344 27.388C118.344 26.82 117.564 26.044 117.004 25.06C116.444 24.076 116.164 22.94 116.164 21.652C116.164 20.356 116.444 19.208 117.004 18.208C117.564 17.2 118.344 16.412 119.344 15.844C120.344 15.276 121.508 14.992 122.836 14.992C124.164 14.992 125.328 15.276 126.328 15.844C127.328 16.412 128.108 17.2 128.668 18.208C129.228 19.208 129.508 20.356 129.508 21.652C129.508 22.94 129.228 24.076 128.668 25.06C128.108 26.044 127.328 26.82 126.328 27.388C125.328 27.948 124.164 28.228 122.836 28.228ZM122.836 26.632C123.796 26.632 124.64 26.424 125.368 26.008C126.104 25.592 126.676 25.012 127.084 24.268C127.5 23.516 127.708 22.644 127.708 21.652C127.708 20.652 127.5 19.772 127.084 19.012C126.676 18.252 126.104 17.66 125.368 17.236C124.64 16.804 123.796 16.588 122.836 16.588C121.876 16.588 121.028 16.804 120.292 17.236C119.564 17.66 118.992 18.252 118.576 19.012C118.168 19.772 117.964 20.652 117.964 21.652C117.964 22.644 118.168 23.516 118.576 24.268C118.992 25.012 119.564 25.592 120.292 26.008C121.028 26.424 121.876 26.632 122.836 26.632ZM145.066 28.228C143.738 28.228 142.582 27.948 141.598 27.388C140.622 26.828 139.862 26.056 139.318 25.072C138.782 24.08 138.514 22.94 138.514 21.652C138.514 20.676 138.662 19.784 138.958 18.976C139.254 18.16 139.678 17.456 140.23 16.864C140.782 16.264 141.438 15.804 142.198 15.484C142.958 15.156 143.806 14.992 144.742 14.992C145.646 14.992 146.398 15.14 146.998 15.436C147.606 15.724 148.078 16.124 148.414 16.636C148.75 17.14 148.966 17.72 149.062 18.376H149.482L149.134 20.188C149.03 19.468 148.794 18.836 148.426 18.292C148.058 17.74 147.578 17.312 146.986 17.008C146.394 16.696 145.71 16.54 144.934 16.54C144.006 16.54 143.19 16.76 142.486 17.2C141.79 17.632 141.246 18.232 140.854 19C140.47 19.76 140.278 20.644 140.278 21.652C140.278 22.628 140.474 23.492 140.866 24.244C141.266 24.988 141.822 25.572 142.534 25.996C143.254 26.42 144.102 26.632 145.078 26.632C146.086 26.632 146.954 26.412 147.682 25.972C148.41 25.524 148.942 24.924 149.278 24.172L150.874 24.88C150.418 25.912 149.686 26.728 148.678 27.328C147.678 27.928 146.474 28.228 145.066 28.228ZM149.134 20.188V15.22H150.862V20.188H149.134ZM159.646 28.228C158.318 28.228 157.154 27.948 156.154 27.388C155.154 26.82 154.374 26.044 153.814 25.06C153.254 24.076 152.974 22.94 152.974 21.652C152.974 20.356 153.254 19.208 153.814 18.208C154.374 17.2 155.154 16.412 156.154 15.844C157.154 15.276 158.318 14.992 159.646 14.992C160.974 14.992 162.138 15.276 163.138 15.844C164.138 16.412 164.918 17.2 165.478 18.208C166.038 19.208 166.318 20.356 166.318 21.652C166.318 22.94 166.038 24.076 165.478 25.06C164.918 26.044 164.138 26.82 163.138 27.388C162.138 27.948 160.974 28.228 159.646 28.228ZM159.646 26.632C160.606 26.632 161.45 26.424 162.178 26.008C162.914 25.592 163.486 25.012 163.894 24.268C164.31 23.516 164.518 22.644 164.518 21.652C164.518 20.652 164.31 19.772 163.894 19.012C163.486 18.252 162.914 17.66 162.178 17.236C161.45 16.804 160.606 16.588 159.646 16.588C158.686 16.588 157.838 16.804 157.102 17.236C156.374 17.66 155.802 18.252 155.386 19.012C154.978 19.772 154.774 20.652 154.774 21.652C154.774 22.644 154.978 23.516 155.386 24.268C155.802 25.012 156.374 25.592 157.102 26.008C157.838 26.424 158.686 26.632 159.646 26.632ZM172.667 26.512H174.947V28H168.311V26.512H170.939V16.708H168.311V15.22H172.667V26.512ZM180.035 26.512V19.828C180.035 18.78 179.799 17.956 179.327 17.356C178.855 16.756 178.111 16.456 177.095 16.456C176.271 16.456 175.523 16.66 174.851 17.068C174.179 17.476 173.647 18.068 173.255 18.844C172.863 19.62 172.667 20.56 172.667 21.664L172.271 19.108H172.751C172.903 18.236 173.195 17.496 173.627 16.888C174.059 16.272 174.611 15.804 175.283 15.484C175.963 15.156 176.743 14.992 177.623 14.992C179.015 14.992 180.051 15.396 180.731 16.204C181.419 17.004 181.763 18.136 181.763 19.6V26.512H184.223V28H177.791V26.512H180.035ZM188.876 24.616C188.876 25.288 189.004 25.796 189.26 26.14C189.516 26.476 189.908 26.644 190.436 26.644C190.956 26.644 191.348 26.472 191.612 26.128C191.876 25.776 192.008 25.272 192.008 24.616V23.428H193.568V24.604C193.568 25.372 193.452 26.028 193.22 26.572C192.996 27.108 192.652 27.52 192.188 27.808C191.724 28.088 191.128 28.228 190.4 28.228C189.656 28.228 189.044 28.084 188.564 27.796C188.084 27.5 187.728 27.084 187.496 26.548C187.264 26.012 187.148 25.368 187.148 24.616L187.16 16.708H184.88V15.22H187.16V11.98H188.888V15.22H193.4L193.388 16.708H188.888L188.876 24.616ZM199.621 26.512H202.117V28H195.265V26.512H197.893V16.708H195.265V15.22H199.621V26.512ZM204.529 17.056C204.385 17.016 204.229 16.984 204.061 16.96C203.901 16.936 203.725 16.924 203.533 16.924C202.349 16.924 201.401 17.368 200.689 18.256C199.977 19.136 199.621 20.36 199.621 21.928L199.213 19.132H199.705C199.817 18.284 200.049 17.556 200.401 16.948C200.753 16.332 201.209 15.86 201.769 15.532C202.337 15.196 203.001 15.028 203.761 15.028C203.905 15.028 204.033 15.036 204.145 15.052C204.265 15.06 204.393 15.076 204.529 15.1V17.056ZM210.183 26.512H212.643V28H205.863V26.512H208.455V16.708H205.863V15.22H210.183V26.512ZM208.131 9.832H210.339V12.124H208.131V9.832ZM215.947 28.264V10.528H213.379V9.04H217.675V19.696L217.603 21.196V22.792L217.675 25.12L216.103 28.264H215.947ZM222.415 28.24C221.343 28.24 220.383 28.04 219.535 27.64C218.695 27.232 217.999 26.656 217.447 25.912C216.903 25.16 216.539 24.268 216.355 23.236L217.603 21.616C217.603 22.6 217.791 23.472 218.167 24.232C218.543 24.992 219.083 25.592 219.787 26.032C220.491 26.464 221.327 26.68 222.295 26.68C223.279 26.68 224.119 26.468 224.815 26.044C225.519 25.62 226.055 25.028 226.423 24.268C226.799 23.5 226.987 22.608 226.987 21.592C226.987 20.6 226.787 19.724 226.387 18.964C225.995 18.204 225.447 17.608 224.743 17.176C224.039 16.744 223.223 16.528 222.295 16.528C221.343 16.528 220.515 16.744 219.811 17.176C219.107 17.608 218.563 18.204 218.179 18.964C217.795 19.724 217.603 20.608 217.603 21.616L217.327 18.916H217.735C217.887 18.212 218.167 17.564 218.575 16.972C218.991 16.372 219.539 15.892 220.219 15.532C220.907 15.164 221.727 14.98 222.679 14.98C223.567 14.98 224.383 15.144 225.127 15.472C225.871 15.792 226.515 16.252 227.059 16.852C227.603 17.444 228.023 18.148 228.319 18.964C228.615 19.772 228.763 20.66 228.763 21.628C228.763 22.916 228.499 24.06 227.971 25.06C227.451 26.052 226.715 26.832 225.763 27.4C224.811 27.96 223.695 28.24 222.415 28.24ZM241.323 16.708H238.851V15.22H243.051V26.512H245.547V28H241.323V16.708ZM234.183 15.22V23.368C234.183 24.416 234.415 25.244 234.879 25.852C235.351 26.452 236.091 26.752 237.099 26.752C237.907 26.752 238.627 26.548 239.259 26.14C239.899 25.724 240.403 25.128 240.771 24.352C241.139 23.576 241.323 22.644 241.323 21.556L241.743 24.112H241.239C241.023 25.488 240.487 26.528 239.631 27.232C238.783 27.928 237.739 28.276 236.499 28.276C235.123 28.276 234.103 27.868 233.439 27.052C232.783 26.236 232.455 25.104 232.455 23.656V16.708H230.139V15.22H234.183ZM250.32 24.616C250.32 25.288 250.448 25.796 250.704 26.14C250.96 26.476 251.352 26.644 251.88 26.644C252.4 26.644 252.792 26.472 253.056 26.128C253.32 25.776 253.452 25.272 253.452 24.616V23.428H255.012V24.604C255.012 25.372 254.896 26.028 254.664 26.572C254.44 27.108 254.096 27.52 253.632 27.808C253.168 28.088 252.572 28.228 251.844 28.228C251.1 28.228 250.488 28.084 250.008 27.796C249.528 27.5 249.172 27.084 248.94 26.548C248.708 26.012 248.592 25.368 248.592 24.616L248.604 16.708H246.324V15.22H248.604V11.98H250.332V15.22H254.844L254.832 16.708H250.332L250.32 24.616ZM263.322 28.228C262.002 28.228 260.858 27.948 259.89 27.388C258.922 26.828 258.174 26.056 257.646 25.072C257.118 24.08 256.854 22.94 256.854 21.652C256.854 20.348 257.118 19.196 257.646 18.196C258.182 17.196 258.926 16.412 259.878 15.844C260.838 15.276 261.954 14.992 263.226 14.992C264.506 14.992 265.614 15.272 266.55 15.832C267.486 16.392 268.206 17.168 268.71 18.16C269.214 19.152 269.466 20.296 269.466 21.592C269.466 21.744 269.462 21.864 269.454 21.952C269.454 22.04 269.446 22.116 269.43 22.18H267.726C267.734 22.084 267.738 21.98 267.738 21.868C267.746 21.748 267.75 21.612 267.75 21.46C267.75 20.508 267.566 19.664 267.198 18.928C266.838 18.184 266.322 17.6 265.65 17.176C264.978 16.752 264.17 16.54 263.226 16.54C262.306 16.54 261.498 16.76 260.802 17.2C260.106 17.632 259.566 18.232 259.182 19C258.798 19.76 258.606 20.644 258.606 21.652C258.606 22.628 258.794 23.492 259.17 24.244C259.554 24.988 260.098 25.572 260.802 25.996C261.506 26.42 262.342 26.632 263.31 26.632C264.318 26.632 265.19 26.396 265.926 25.924C266.67 25.444 267.222 24.792 267.582 23.968L269.214 24.58C268.742 25.708 267.986 26.6 266.946 27.256C265.914 27.904 264.706 28.228 263.322 28.228ZM257.946 22.18V20.848H268.914L269.418 22.18H257.946ZM281.599 24.616C281.599 25.288 281.727 25.796 281.983 26.14C282.239 26.476 282.631 26.644 283.159 26.644C283.679 26.644 284.071 26.472 284.335 26.128C284.599 25.776 284.731 25.272 284.731 24.616V23.428H286.291V24.604C286.291 25.372 286.175 26.028 285.943 26.572C285.719 27.108 285.375 27.52 284.911 27.808C284.447 28.088 283.851 28.228 283.123 28.228C282.379 28.228 281.767 28.084 281.287 27.796C280.807 27.5 280.451 27.084 280.219 26.548C279.987 26.012 279.871 25.368 279.871 24.616L279.883 16.708H277.603V15.22H279.883V11.98H281.611V15.22H286.123L286.111 16.708H281.611L281.599 24.616ZM294.757 28.228C293.429 28.228 292.265 27.948 291.265 27.388C290.265 26.82 289.485 26.044 288.925 25.06C288.365 24.076 288.085 22.94 288.085 21.652C288.085 20.356 288.365 19.208 288.925 18.208C289.485 17.2 290.265 16.412 291.265 15.844C292.265 15.276 293.429 14.992 294.757 14.992C296.085 14.992 297.249 15.276 298.249 15.844C299.249 16.412 300.029 17.2 300.589 18.208C301.149 19.208 301.429 20.356 301.429 21.652C301.429 22.94 301.149 24.076 300.589 25.06C300.029 26.044 299.249 26.82 298.249 27.388C297.249 27.948 296.085 28.228 294.757 28.228ZM294.757 26.632C295.717 26.632 296.561 26.424 297.289 26.008C298.025 25.592 298.597 25.012 299.005 24.268C299.421 23.516 299.629 22.644 299.629 21.652C299.629 20.652 299.421 19.772 299.005 19.012C298.597 18.252 298.025 17.66 297.289 17.236C296.561 16.804 295.717 16.588 294.757 16.588C293.797 16.588 292.949 16.804 292.213 17.236C291.485 17.66 290.913 18.252 290.497 19.012C290.089 19.772 289.885 20.652 289.885 21.652C289.885 22.644 290.089 23.516 290.497 24.268C290.913 25.012 291.485 25.592 292.213 26.008C292.949 26.424 293.797 26.632 294.757 26.632ZM316.591 28.228C315.735 28.228 315.011 28.1 314.419 27.844C313.835 27.588 313.371 27.248 313.027 26.824C312.683 26.392 312.459 25.912 312.355 25.384H311.923L312.271 23.968C312.423 24.808 312.839 25.492 313.519 26.02C314.207 26.548 315.099 26.812 316.195 26.812C317.131 26.812 317.855 26.624 318.367 26.248C318.887 25.864 319.147 25.308 319.147 24.58C319.147 23.916 318.891 23.4 318.379 23.032C317.867 22.664 316.971 22.384 315.691 22.192C313.859 21.904 312.555 21.452 311.779 20.836C311.003 20.212 310.615 19.392 310.615 18.376C310.615 17.352 310.971 16.532 311.683 15.916C312.395 15.3 313.387 14.992 314.659 14.992C315.499 14.992 316.191 15.12 316.735 15.376C317.287 15.632 317.711 15.976 318.007 16.408C318.303 16.832 318.495 17.3 318.583 17.812H319.015L318.667 19.168C318.523 18.352 318.131 17.688 317.491 17.176C316.851 16.656 316.015 16.396 314.983 16.396C314.151 16.396 313.499 16.572 313.027 16.924C312.563 17.276 312.331 17.744 312.331 18.328C312.331 18.944 312.623 19.428 313.207 19.78C313.791 20.124 314.711 20.396 315.967 20.596C317.743 20.876 319.003 21.336 319.747 21.976C320.491 22.616 320.863 23.48 320.863 24.568C320.863 25.712 320.495 26.608 319.759 27.256C319.031 27.904 317.975 28.228 316.591 28.228ZM310.543 28V23.968H312.271V28H310.543ZM318.667 19.168V15.22H320.395V19.168H318.667ZM329.692 28.228C328.364 28.228 327.2 27.948 326.2 27.388C325.2 26.82 324.42 26.044 323.86 25.06C323.3 24.076 323.02 22.94 323.02 21.652C323.02 20.356 323.3 19.208 323.86 18.208C324.42 17.2 325.2 16.412 326.2 15.844C327.2 15.276 328.364 14.992 329.692 14.992C331.02 14.992 332.184 15.276 333.184 15.844C334.184 16.412 334.964 17.2 335.524 18.208C336.084 19.208 336.364 20.356 336.364 21.652C336.364 22.94 336.084 24.076 335.524 25.06C334.964 26.044 334.184 26.82 333.184 27.388C332.184 27.948 331.02 28.228 329.692 28.228ZM329.692 26.632C330.652 26.632 331.496 26.424 332.224 26.008C332.96 25.592 333.532 25.012 333.94 24.268C334.356 23.516 334.564 22.644 334.564 21.652C334.564 20.652 334.356 19.772 333.94 19.012C333.532 18.252 332.96 17.66 332.224 17.236C331.496 16.804 330.652 16.588 329.692 16.588C328.732 16.588 327.884 16.804 327.148 17.236C326.42 17.66 325.848 18.252 325.432 19.012C325.024 19.772 324.82 20.652 324.82 21.652C324.82 22.644 325.024 23.516 325.432 24.268C325.848 25.012 326.42 25.592 327.148 26.008C327.884 26.424 328.732 26.632 329.692 26.632ZM345.113 28.228C343.785 28.228 342.629 27.948 341.645 27.388C340.669 26.828 339.909 26.056 339.365 25.072C338.829 24.08 338.561 22.94 338.561 21.652C338.561 20.676 338.709 19.784 339.005 18.976C339.301 18.16 339.725 17.456 340.277 16.864C340.829 16.264 341.485 15.804 342.245 15.484C343.005 15.156 343.853 14.992 344.789 14.992C345.693 14.992 346.445 15.14 347.045 15.436C347.653 15.724 348.125 16.124 348.461 16.636C348.797 17.14 349.013 17.72 349.109 18.376H349.529L349.181 20.188C349.077 19.468 348.841 18.836 348.473 18.292C348.105 17.74 347.625 17.312 347.033 17.008C346.441 16.696 345.757 16.54 344.981 16.54C344.053 16.54 343.237 16.76 342.533 17.2C341.837 17.632 341.293 18.232 340.901 19C340.517 19.76 340.325 20.644 340.325 21.652C340.325 22.628 340.521 23.492 340.913 24.244C341.313 24.988 341.869 25.572 342.581 25.996C343.301 26.42 344.149 26.632 345.125 26.632C346.133 26.632 347.001 26.412 347.729 25.972C348.457 25.524 348.989 24.924 349.325 24.172L350.921 24.88C350.465 25.912 349.733 26.728 348.725 27.328C347.725 27.928 346.521 28.228 345.113 28.228ZM349.181 20.188V15.22H350.909V20.188H349.181ZM357.353 26.512H359.813V28H353.033V26.512H355.625V16.708H353.033V15.22H357.353V26.512ZM355.301 9.832H357.509V12.124H355.301V9.832ZM367.822 28.228C366.502 28.228 365.358 27.948 364.39 27.388C363.422 26.828 362.674 26.056 362.146 25.072C361.618 24.08 361.354 22.94 361.354 21.652C361.354 20.348 361.618 19.196 362.146 18.196C362.682 17.196 363.426 16.412 364.378 15.844C365.338 15.276 366.454 14.992 367.726 14.992C369.006 14.992 370.114 15.272 371.05 15.832C371.986 16.392 372.706 17.168 373.21 18.16C373.714 19.152 373.966 20.296 373.966 21.592C373.966 21.744 373.962 21.864 373.954 21.952C373.954 22.04 373.946 22.116 373.93 22.18H372.226C372.234 22.084 372.238 21.98 372.238 21.868C372.246 21.748 372.25 21.612 372.25 21.46C372.25 20.508 372.066 19.664 371.698 18.928C371.338 18.184 370.822 17.6 370.15 17.176C369.478 16.752 368.67 16.54 367.726 16.54C366.806 16.54 365.998 16.76 365.302 17.2C364.606 17.632 364.066 18.232 363.682 19C363.298 19.76 363.106 20.644 363.106 21.652C363.106 22.628 363.294 23.492 363.67 24.244C364.054 24.988 364.598 25.572 365.302 25.996C366.006 26.42 366.842 26.632 367.81 26.632C368.818 26.632 369.69 26.396 370.426 25.924C371.17 25.444 371.722 24.792 372.082 23.968L373.714 24.58C373.242 25.708 372.486 26.6 371.446 27.256C370.414 27.904 369.206 28.228 367.822 28.228ZM362.446 22.18V20.848H373.414L373.918 22.18H362.446ZM379.29 24.616C379.29 25.288 379.418 25.796 379.674 26.14C379.93 26.476 380.322 26.644 380.85 26.644C381.37 26.644 381.762 26.472 382.026 26.128C382.29 25.776 382.422 25.272 382.422 24.616V23.428H383.982V24.604C383.982 25.372 383.866 26.028 383.634 26.572C383.41 27.108 383.066 27.52 382.602 27.808C382.138 28.088 381.542 28.228 380.814 28.228C380.07 28.228 379.458 28.084 378.978 27.796C378.498 27.5 378.142 27.084 377.91 26.548C377.678 26.012 377.562 25.368 377.562 24.616L377.574 16.708H375.294V15.22H377.574V11.98H379.302V15.22H383.814L383.802 16.708H379.302L379.29 24.616ZM393.278 15.22H399.23V16.708H397.634L392.354 29.704C391.922 30.776 391.254 31.6 390.35 32.176C389.454 32.752 388.338 33.04 387.002 33.04H385.742V31.516H387.002C387.898 31.516 388.678 31.328 389.342 30.952C390.014 30.584 390.502 30.04 390.806 29.32L391.718 27.076L391.418 28.564L386.534 16.708H384.77V15.22H390.842V16.708H388.418L392.726 27.472L391.154 26.08H392.81L391.91 26.896L395.906 16.708H393.278V15.22Z" fill="black"/>
<path d="M1 6.35211L6 1V39L1 33.6479V6.35211Z" fill="white"/>
<path d="M6 1L1 6.35211V33.6479L6 39" stroke="black" stroke-linecap="round"/>
<path d="M409 33.6479L404 39L404 1L409 6.35211L409 33.6479Z" fill="white"/>
<path d="M404 39L409 33.6479L409 6.35211L404 1" stroke="black" stroke-linecap="round"/>
</svg>
