<svg width="363" height="40" viewBox="0 0 363 40" fill="none" xmlns="http://www.w3.org/2000/svg">
<path d="M6 1H357V39H6V1Z" fill="white"/>
<path d="M6 1.5H357V0.5H6V1.5ZM357 38.5H6V39.5H357V38.5Z" fill="black"/>
<path d="M13.8177 28.264V10.528H11.2497V9.04H15.5457V19.696L15.4737 21.196V22.792L15.5457 25.12L13.9737 28.264H13.8177ZM20.2857 28.24C19.2137 28.24 18.2537 28.04 17.4057 27.64C16.5657 27.232 15.8697 26.656 15.3177 25.912C14.7737 25.16 14.4097 24.268 14.2257 23.236L15.4737 21.616C15.4737 22.6 15.6617 23.472 16.0377 24.232C16.4137 24.992 16.9537 25.592 17.6577 26.032C18.3617 26.464 19.1977 26.68 20.1657 26.68C21.1497 26.68 21.9897 26.468 22.6857 26.044C23.3897 25.62 23.9257 25.028 24.2937 24.268C24.6697 23.5 24.8577 22.608 24.8577 21.592C24.8577 20.6 24.6577 19.724 24.2577 18.964C23.8657 18.204 23.3177 17.608 22.6137 17.176C21.9097 16.744 21.0937 16.528 20.1657 16.528C19.2137 16.528 18.3857 16.744 17.6817 17.176C16.9777 17.608 16.4337 18.204 16.0497 18.964C15.6657 19.724 15.4737 20.608 15.4737 21.616L15.1977 18.916H15.6057C15.7577 18.212 16.0377 17.564 16.4457 16.972C16.8617 16.372 17.4097 15.892 18.0897 15.532C18.7777 15.164 19.5977 14.98 20.5497 14.98C21.4377 14.98 22.2537 15.144 22.9977 15.472C23.7417 15.792 24.3857 16.252 24.9297 16.852C25.4737 17.444 25.8937 18.148 26.1897 18.964C26.4857 19.772 26.6337 20.66 26.6337 21.628C26.6337 22.916 26.3697 24.06 25.8417 25.06C25.3217 26.052 24.5857 26.832 23.6337 27.4C22.6817 27.96 21.5657 28.24 20.2857 28.24ZM32.3611 26.512H34.9891V28H28.0051V26.512H30.6331V10.528H28.0051V9.04H32.3611V26.512ZM46.7363 28C46.4083 28 46.1563 27.896 45.9803 27.688C45.8123 27.48 45.7283 27.188 45.7283 26.812V22.972L45.8843 22.576L45.8003 21.124L45.7283 20.368V19.396C45.7283 18.74 45.5923 18.204 45.3203 17.788C45.0563 17.372 44.6723 17.064 44.1683 16.864C43.6643 16.664 43.0563 16.564 42.3443 16.564C41.2803 16.564 40.4563 16.776 39.8723 17.2C39.2963 17.616 38.9123 18.244 38.7203 19.084L37.0643 18.736C37.2243 17.896 37.5243 17.2 37.9643 16.648C38.4043 16.088 38.9883 15.672 39.7163 15.4C40.4523 15.12 41.3483 14.98 42.4043 14.98C43.5083 14.98 44.4323 15.136 45.1763 15.448C45.9283 15.752 46.4963 16.22 46.8803 16.852C47.2643 17.484 47.4563 18.3 47.4563 19.3V26.512H49.3403V28H46.7363ZM40.7123 28.168C39.3843 28.168 38.3763 27.876 37.6883 27.292C37.0003 26.7 36.6563 25.832 36.6563 24.688C36.6563 23.632 36.9603 22.828 37.5683 22.276C38.1763 21.716 39.1523 21.296 40.4963 21.016L46.2443 19.792V21.028L40.7843 22.264C40.0003 22.448 39.4123 22.72 39.0203 23.08C38.6363 23.432 38.4443 23.932 38.4443 24.58C38.4443 25.284 38.6603 25.812 39.0923 26.164C39.5243 26.508 40.1563 26.68 40.9883 26.68C41.9083 26.68 42.7323 26.468 43.4603 26.044C44.1883 25.62 44.7603 24.996 45.1763 24.172C45.5923 23.348 45.8003 22.332 45.8003 21.124L46.2563 23.956H45.6443C45.4443 25.292 44.9243 26.328 44.0843 27.064C43.2523 27.8 42.1283 28.168 40.7123 28.168ZM57.5152 28.228C56.1872 28.228 55.0312 27.948 54.0472 27.388C53.0712 26.828 52.3112 26.056 51.7672 25.072C51.2312 24.08 50.9632 22.94 50.9632 21.652C50.9632 20.676 51.1112 19.784 51.4072 18.976C51.7032 18.16 52.1272 17.456 52.6792 16.864C53.2312 16.264 53.8872 15.804 54.6472 15.484C55.4072 15.156 56.2552 14.992 57.1912 14.992C58.0952 14.992 58.8472 15.14 59.4472 15.436C60.0552 15.724 60.5272 16.124 60.8632 16.636C61.1992 17.14 61.4152 17.72 61.5112 18.376H61.9312L61.5832 20.188C61.4792 19.468 61.2432 18.836 60.8752 18.292C60.5072 17.74 60.0272 17.312 59.4352 17.008C58.8432 16.696 58.1592 16.54 57.3832 16.54C56.4552 16.54 55.6392 16.76 54.9352 17.2C54.2392 17.632 53.6952 18.232 53.3032 19C52.9192 19.76 52.7272 20.644 52.7272 21.652C52.7272 22.628 52.9232 23.492 53.3152 24.244C53.7152 24.988 54.2712 25.572 54.9832 25.996C55.7032 26.42 56.5512 26.632 57.5272 26.632C58.5352 26.632 59.4032 26.412 60.1312 25.972C60.8592 25.524 61.3912 24.924 61.7272 24.172L63.3232 24.88C62.8672 25.912 62.1352 26.728 61.1272 27.328C60.1272 27.928 58.9232 28.228 57.5152 28.228ZM61.5832 20.188V15.22H63.3112V20.188H61.5832ZM69.2752 26.512H71.5432V28H64.9792V26.512H67.5472V10.528H64.9792V9.04H69.2752V26.512ZM73.7392 19.9L78.8152 26.512H80.4832V28H73.9072V26.512H76.6792L72.5152 20.944L73.7392 19.9ZM68.7592 24.556L68.3992 23.176L76.2352 16.708H72.3352V15.22H80.2792V16.708H78.4792L68.7592 24.556ZM92.6433 26.512H94.9113V28H88.3473V26.512H90.9153V10.528H88.3473V9.04H92.6433V26.512ZM100.011 26.512V19.792C100.011 18.752 99.7753 17.936 99.3033 17.344C98.8393 16.752 98.1073 16.456 97.1073 16.456C96.2673 16.456 95.5113 16.672 94.8393 17.104C94.1673 17.528 93.6313 18.148 93.2313 18.964C92.8393 19.772 92.6433 20.748 92.6433 21.892L92.2353 19.336H92.7153C92.8753 18.4 93.1753 17.608 93.6153 16.96C94.0633 16.304 94.6313 15.804 95.3193 15.46C96.0073 15.116 96.7953 14.944 97.6833 14.944C99.0753 14.944 100.099 15.344 100.755 16.144C101.411 16.944 101.739 18.068 101.739 19.516V26.512H104.187V28H97.7553V26.512H100.011ZM112.163 28.228C110.835 28.228 109.671 27.948 108.671 27.388C107.671 26.82 106.891 26.044 106.331 25.06C105.771 24.076 105.491 22.94 105.491 21.652C105.491 20.356 105.771 19.208 106.331 18.208C106.891 17.2 107.671 16.412 108.671 15.844C109.671 15.276 110.835 14.992 112.163 14.992C113.491 14.992 114.655 15.276 115.655 15.844C116.655 16.412 117.435 17.2 117.995 18.208C118.555 19.208 118.835 20.356 118.835 21.652C118.835 22.94 118.555 24.076 117.995 25.06C117.435 26.044 116.655 26.82 115.655 27.388C114.655 27.948 113.491 28.228 112.163 28.228ZM112.163 26.632C113.123 26.632 113.967 26.424 114.695 26.008C115.431 25.592 116.003 25.012 116.411 24.268C116.827 23.516 117.035 22.644 117.035 21.652C117.035 20.652 116.827 19.772 116.411 19.012C116.003 18.252 115.431 17.66 114.695 17.236C113.967 16.804 113.123 16.588 112.163 16.588C111.203 16.588 110.355 16.804 109.619 17.236C108.891 17.66 108.319 18.252 107.903 19.012C107.495 19.772 107.291 20.652 107.291 21.652C107.291 22.644 107.495 23.516 107.903 24.268C108.319 25.012 108.891 25.592 109.619 26.008C110.355 26.424 111.203 26.632 112.163 26.632ZM125.184 26.512H127.68V28H120.828V26.512H123.456V16.708H120.828V15.22H125.184V26.512ZM130.092 17.056C129.948 17.016 129.792 16.984 129.624 16.96C129.464 16.936 129.288 16.924 129.096 16.924C127.912 16.924 126.964 17.368 126.252 18.256C125.54 19.136 125.184 20.36 125.184 21.928L124.776 19.132H125.268C125.38 18.284 125.612 17.556 125.964 16.948C126.316 16.332 126.772 15.86 127.332 15.532C127.9 15.196 128.564 15.028 129.324 15.028C129.468 15.028 129.596 15.036 129.708 15.052C129.828 15.06 129.956 15.076 130.092 15.1V17.056ZM135.626 26.512H137.906V28H131.27V26.512H133.898V16.708H131.27V15.22H135.626V26.512ZM142.994 26.512V19.828C142.994 18.78 142.758 17.956 142.286 17.356C141.814 16.756 141.07 16.456 140.054 16.456C139.23 16.456 138.482 16.66 137.81 17.068C137.138 17.476 136.606 18.068 136.214 18.844C135.822 19.62 135.626 20.56 135.626 21.664L135.23 19.108H135.71C135.862 18.236 136.154 17.496 136.586 16.888C137.018 16.272 137.57 15.804 138.242 15.484C138.922 15.156 139.702 14.992 140.582 14.992C141.974 14.992 143.01 15.396 143.69 16.204C144.378 17.004 144.722 18.136 144.722 19.6V26.512H147.182V28H140.75V26.512H142.994ZM154.52 20.488V21.976H147.836V20.488H154.52ZM159.767 26.512H162.263V28H155.411V26.512H158.039V16.708H155.411V15.22H159.767V26.512ZM164.675 17.056C164.531 17.016 164.375 16.984 164.207 16.96C164.047 16.936 163.871 16.924 163.679 16.924C162.495 16.924 161.547 17.368 160.835 18.256C160.123 19.136 159.767 20.36 159.767 21.928L159.359 19.132H159.851C159.963 18.284 160.195 17.556 160.547 16.948C160.899 16.332 161.355 15.86 161.915 15.532C162.483 15.196 163.147 15.028 163.907 15.028C164.051 15.028 164.179 15.036 164.291 15.052C164.411 15.06 164.539 15.076 164.675 15.1V17.056ZM170.329 26.512H172.789V28H166.009V26.512H168.601V16.708H166.009V15.22H170.329V26.512ZM168.277 9.832H170.485V12.124H168.277V9.832ZM191.827 28V26.512H194.083V19.804C194.083 18.756 193.851 17.936 193.387 17.344C192.923 16.752 192.199 16.456 191.215 16.456C190.423 16.456 189.719 16.664 189.103 17.08C188.487 17.496 188.003 18.092 187.651 18.868C187.299 19.644 187.123 20.576 187.123 21.664L186.703 19.096H187.195C187.395 17.704 187.911 16.664 188.743 15.976C189.583 15.288 190.603 14.944 191.803 14.944C193.155 14.944 194.159 15.344 194.815 16.144C195.479 16.944 195.811 18.072 195.811 19.528V26.512H198.259V28H191.827ZM174.139 28V26.512H176.695V16.708H174.139V15.22H178.423V26.512H180.691V28H174.139ZM183.139 28V26.512H185.395V19.804C185.395 18.756 185.163 17.936 184.699 17.344C184.235 16.752 183.511 16.456 182.527 16.456C181.735 16.456 181.031 16.664 180.415 17.08C179.799 17.496 179.311 18.092 178.951 18.868C178.599 19.644 178.423 20.576 178.423 21.664L178.015 19.096H178.507C178.699 17.704 179.215 16.664 180.055 15.976C180.895 15.288 181.915 14.944 183.115 14.944C184.467 14.944 185.471 15.344 186.127 16.144C186.791 16.944 187.123 18.072 187.123 19.528V26.512H189.571V28H183.139ZM217.175 28V26.512H219.431V19.804C219.431 18.756 219.199 17.936 218.735 17.344C218.271 16.752 217.547 16.456 216.563 16.456C215.771 16.456 215.067 16.664 214.451 17.08C213.835 17.496 213.351 18.092 212.999 18.868C212.647 19.644 212.471 20.576 212.471 21.664L212.051 19.096H212.543C212.743 17.704 213.259 16.664 214.091 15.976C214.931 15.288 215.951 14.944 217.151 14.944C218.503 14.944 219.507 15.344 220.163 16.144C220.827 16.944 221.159 18.072 221.159 19.528V26.512H223.607V28H217.175ZM199.487 28V26.512H202.043V16.708H199.487V15.22H203.771V26.512H206.039V28H199.487ZM208.487 28V26.512H210.743V19.804C210.743 18.756 210.511 17.936 210.047 17.344C209.583 16.752 208.859 16.456 207.875 16.456C207.083 16.456 206.379 16.664 205.763 17.08C205.147 17.496 204.659 18.092 204.299 18.868C203.947 19.644 203.771 20.576 203.771 21.664L203.363 19.096H203.855C204.047 17.704 204.563 16.664 205.403 15.976C206.243 15.288 207.263 14.944 208.463 14.944C209.815 14.944 210.819 15.344 211.475 16.144C212.139 16.944 212.471 18.072 212.471 19.528V26.512H214.919V28H208.487ZM231.425 28.228C230.105 28.228 228.961 27.948 227.993 27.388C227.025 26.828 226.277 26.056 225.749 25.072C225.221 24.08 224.957 22.94 224.957 21.652C224.957 20.348 225.221 19.196 225.749 18.196C226.285 17.196 227.029 16.412 227.981 15.844C228.941 15.276 230.057 14.992 231.329 14.992C232.609 14.992 233.717 15.272 234.653 15.832C235.589 16.392 236.309 17.168 236.813 18.16C237.317 19.152 237.569 20.296 237.569 21.592C237.569 21.744 237.565 21.864 237.557 21.952C237.557 22.04 237.549 22.116 237.533 22.18H235.829C235.837 22.084 235.841 21.98 235.841 21.868C235.849 21.748 235.853 21.612 235.853 21.46C235.853 20.508 235.669 19.664 235.301 18.928C234.941 18.184 234.425 17.6 233.753 17.176C233.081 16.752 232.273 16.54 231.329 16.54C230.409 16.54 229.601 16.76 228.905 17.2C228.209 17.632 227.669 18.232 227.285 19C226.901 19.76 226.709 20.644 226.709 21.652C226.709 22.628 226.897 23.492 227.273 24.244C227.657 24.988 228.201 25.572 228.905 25.996C229.609 26.42 230.445 26.632 231.413 26.632C232.421 26.632 233.293 26.396 234.029 25.924C234.773 25.444 235.325 24.792 235.685 23.968L237.317 24.58C236.845 25.708 236.089 26.6 235.049 27.256C234.017 27.904 232.809 28.228 231.425 28.228ZM226.049 22.18V20.848H237.017L237.521 22.18H226.049ZM250.728 28V23.224L250.8 22.288V20.764L250.728 19.084V10.528H247.284V9.04H252.456V26.512H254.904V28H250.728ZM245.916 14.98C246.972 14.98 247.916 15.212 248.748 15.676C249.588 16.14 250.28 16.804 250.824 17.668C251.368 18.524 251.728 19.552 251.904 20.752L250.8 21.58C250.8 20.596 250.608 19.724 250.224 18.964C249.848 18.204 249.308 17.612 248.604 17.188C247.9 16.756 247.064 16.54 246.096 16.54C245.144 16.54 244.316 16.756 243.612 17.188C242.908 17.62 242.364 18.216 241.98 18.976C241.604 19.736 241.416 20.616 241.416 21.616C241.416 22.608 241.612 23.484 242.004 24.244C242.396 25.004 242.944 25.604 243.648 26.044C244.36 26.476 245.176 26.692 246.096 26.692C247.056 26.692 247.884 26.476 248.58 26.044C249.284 25.604 249.828 25 250.212 24.232C250.604 23.464 250.8 22.58 250.8 21.58L251.064 24.304H250.656C250.512 25.008 250.232 25.66 249.816 26.26C249.4 26.852 248.852 27.332 248.172 27.7C247.492 28.06 246.676 28.24 245.724 28.24C244.836 28.24 244.02 28.08 243.276 27.76C242.532 27.432 241.888 26.972 241.344 26.38C240.8 25.78 240.376 25.076 240.072 24.268C239.776 23.46 239.628 22.576 239.628 21.616C239.628 20.32 239.888 19.172 240.408 18.172C240.928 17.172 241.656 16.392 242.592 15.832C243.536 15.264 244.644 14.98 245.916 14.98ZM269.42 33.304C268.3 33.304 267.284 33.196 266.372 32.98C265.468 32.772 264.748 32.44 264.212 31.984C263.676 31.528 263.408 30.924 263.408 30.172C263.408 29.42 263.676 28.848 264.212 28.456C264.756 28.072 265.456 27.82 266.312 27.7V27.496L268.448 27.7C267.56 27.7 266.864 27.804 266.36 28.012C265.856 28.228 265.5 28.5 265.292 28.828C265.084 29.164 264.98 29.508 264.98 29.86C264.98 30.404 265.18 30.828 265.58 31.132C265.98 31.436 266.516 31.652 267.188 31.78C267.868 31.908 268.628 31.972 269.468 31.972C271.156 31.972 272.388 31.744 273.164 31.288C273.948 30.84 274.34 30.212 274.34 29.404C274.34 28.268 273.604 27.7 272.132 27.7H267.236C266.276 27.7 265.52 27.528 264.968 27.184C264.424 26.832 264.152 26.328 264.152 25.672C264.152 25.048 264.4 24.572 264.896 24.244C265.392 23.908 266.1 23.704 267.02 23.632V23.272L269.204 23.896H267.896C267.208 23.896 266.684 23.992 266.324 24.184C265.964 24.368 265.784 24.652 265.784 25.036C265.784 25.396 265.948 25.656 266.276 25.816C266.612 25.968 267.116 26.044 267.788 26.044H272.084C272.908 26.044 273.608 26.18 274.184 26.452C274.768 26.716 275.208 27.096 275.504 27.592C275.808 28.088 275.96 28.68 275.96 29.368C275.96 30.104 275.752 30.768 275.336 31.36C274.92 31.96 274.232 32.432 273.272 32.776C272.32 33.128 271.036 33.304 269.42 33.304ZM269.204 23.896C268.188 23.896 267.284 23.712 266.492 23.344C265.7 22.976 265.076 22.46 264.62 21.796C264.164 21.132 263.936 20.352 263.936 19.456C263.936 18.56 264.16 17.78 264.608 17.116C265.064 16.444 265.684 15.924 266.468 15.556C267.26 15.18 268.172 14.992 269.204 14.992C270.252 14.992 271.176 15.188 271.976 15.58C272.784 15.972 273.4 16.516 273.824 17.212C274.032 17.532 274.184 17.88 274.28 18.256C274.384 18.624 274.436 19.024 274.436 19.456C274.436 20.352 274.212 21.132 273.764 21.796C273.316 22.46 272.696 22.976 271.904 23.344C271.12 23.712 270.22 23.896 269.204 23.896ZM269.204 22.48C269.884 22.48 270.488 22.356 271.016 22.108C271.552 21.86 271.972 21.508 272.276 21.052C272.588 20.596 272.744 20.064 272.744 19.456C272.744 18.848 272.588 18.316 272.276 17.86C271.972 17.396 271.552 17.04 271.016 16.792C270.488 16.536 269.884 16.408 269.204 16.408C268.508 16.408 267.892 16.536 267.356 16.792C266.82 17.04 266.396 17.396 266.084 17.86C265.78 18.316 265.628 18.848 265.628 19.456C265.628 20.064 265.78 20.596 266.084 21.052C266.396 21.508 266.82 21.86 267.356 22.108C267.9 22.356 268.516 22.48 269.204 22.48ZM274.436 19.456L273.836 18.052L273.308 17.188L273.788 16.996C273.764 16.916 273.744 16.836 273.728 16.756C273.72 16.668 273.716 16.576 273.716 16.48C273.716 16.144 273.796 15.84 273.956 15.568C274.116 15.296 274.348 15.08 274.652 14.92C274.956 14.76 275.328 14.68 275.768 14.68C275.88 14.68 275.98 14.684 276.068 14.692C276.164 14.7 276.256 14.716 276.344 14.74V16.408C276.192 16.384 276.052 16.368 275.924 16.36C275.796 16.344 275.668 16.336 275.54 16.336C275.204 16.336 274.932 16.384 274.724 16.48C274.524 16.576 274.38 16.7 274.292 16.852C274.204 16.996 274.16 17.156 274.16 17.332C274.16 17.5 274.184 17.684 274.232 17.884C274.28 18.076 274.324 18.3 274.364 18.556C274.412 18.812 274.436 19.112 274.436 19.456ZM281.791 26.512H284.419V28H277.435V26.512H280.063V10.528H277.435V9.04H281.791V26.512ZM296.167 28C295.839 28 295.587 27.896 295.411 27.688C295.243 27.48 295.159 27.188 295.159 26.812V22.972L295.315 22.576L295.231 21.124L295.159 20.368V19.396C295.159 18.74 295.023 18.204 294.751 17.788C294.487 17.372 294.103 17.064 293.599 16.864C293.095 16.664 292.487 16.564 291.775 16.564C290.711 16.564 289.887 16.776 289.303 17.2C288.727 17.616 288.343 18.244 288.151 19.084L286.495 18.736C286.655 17.896 286.955 17.2 287.395 16.648C287.835 16.088 288.419 15.672 289.147 15.4C289.883 15.12 290.779 14.98 291.835 14.98C292.939 14.98 293.863 15.136 294.607 15.448C295.359 15.752 295.927 16.22 296.311 16.852C296.695 17.484 296.887 18.3 296.887 19.3V26.512H298.771V28H296.167ZM290.143 28.168C288.815 28.168 287.807 27.876 287.119 27.292C286.431 26.7 286.087 25.832 286.087 24.688C286.087 23.632 286.391 22.828 286.999 22.276C287.607 21.716 288.583 21.296 289.927 21.016L295.675 19.792V21.028L290.215 22.264C289.431 22.448 288.843 22.72 288.451 23.08C288.067 23.432 287.875 23.932 287.875 24.58C287.875 25.284 288.091 25.812 288.523 26.164C288.955 26.508 289.587 26.68 290.419 26.68C291.339 26.68 292.163 26.468 292.891 26.044C293.619 25.62 294.191 24.996 294.607 24.172C295.023 23.348 295.231 22.332 295.231 21.124L295.687 23.956H295.075C294.875 25.292 294.355 26.328 293.515 27.064C292.683 27.8 291.559 28.168 290.143 28.168ZM306.62 28.228C305.764 28.228 305.04 28.1 304.448 27.844C303.864 27.588 303.4 27.248 303.056 26.824C302.712 26.392 302.488 25.912 302.384 25.384H301.952L302.3 23.968C302.452 24.808 302.868 25.492 303.548 26.02C304.236 26.548 305.128 26.812 306.224 26.812C307.16 26.812 307.884 26.624 308.396 26.248C308.916 25.864 309.176 25.308 309.176 24.58C309.176 23.916 308.92 23.4 308.408 23.032C307.896 22.664 307 22.384 305.72 22.192C303.888 21.904 302.584 21.452 301.808 20.836C301.032 20.212 300.644 19.392 300.644 18.376C300.644 17.352 301 16.532 301.712 15.916C302.424 15.3 303.416 14.992 304.688 14.992C305.528 14.992 306.22 15.12 306.764 15.376C307.316 15.632 307.74 15.976 308.036 16.408C308.332 16.832 308.524 17.3 308.612 17.812H309.044L308.696 19.168C308.552 18.352 308.16 17.688 307.52 17.176C306.88 16.656 306.044 16.396 305.012 16.396C304.18 16.396 303.528 16.572 303.056 16.924C302.592 17.276 302.36 17.744 302.36 18.328C302.36 18.944 302.652 19.428 303.236 19.78C303.82 20.124 304.74 20.396 305.996 20.596C307.772 20.876 309.032 21.336 309.776 21.976C310.52 22.616 310.892 23.48 310.892 24.568C310.892 25.712 310.524 26.608 309.788 27.256C309.06 27.904 308.004 28.228 306.62 28.228ZM300.572 28V23.968H302.3V28H300.572ZM308.696 19.168V15.22H310.424V19.168H308.696ZM319.265 28.228C318.409 28.228 317.685 28.1 317.093 27.844C316.509 27.588 316.045 27.248 315.701 26.824C315.357 26.392 315.133 25.912 315.029 25.384H314.597L314.945 23.968C315.097 24.808 315.513 25.492 316.193 26.02C316.881 26.548 317.773 26.812 318.869 26.812C319.805 26.812 320.529 26.624 321.041 26.248C321.561 25.864 321.821 25.308 321.821 24.58C321.821 23.916 321.565 23.4 321.053 23.032C320.541 22.664 319.645 22.384 318.365 22.192C316.533 21.904 315.229 21.452 314.453 20.836C313.677 20.212 313.289 19.392 313.289 18.376C313.289 17.352 313.645 16.532 314.357 15.916C315.069 15.3 316.061 14.992 317.333 14.992C318.173 14.992 318.865 15.12 319.409 15.376C319.961 15.632 320.385 15.976 320.681 16.408C320.977 16.832 321.169 17.3 321.257 17.812H321.689L321.341 19.168C321.197 18.352 320.805 17.688 320.165 17.176C319.525 16.656 318.689 16.396 317.657 16.396C316.825 16.396 316.173 16.572 315.701 16.924C315.237 17.276 315.005 17.744 315.005 18.328C315.005 18.944 315.297 19.428 315.881 19.78C316.465 20.124 317.385 20.396 318.641 20.596C320.417 20.876 321.677 21.336 322.421 21.976C323.165 22.616 323.537 23.48 323.537 24.568C323.537 25.712 323.169 26.608 322.433 27.256C321.705 27.904 320.649 28.228 319.265 28.228ZM313.217 28V23.968H314.945V28H313.217ZM321.341 19.168V15.22H323.069V19.168H321.341ZM332.21 28.228C330.89 28.228 329.746 27.948 328.778 27.388C327.81 26.828 327.062 26.056 326.534 25.072C326.006 24.08 325.742 22.94 325.742 21.652C325.742 20.348 326.006 19.196 326.534 18.196C327.07 17.196 327.814 16.412 328.766 15.844C329.726 15.276 330.842 14.992 332.114 14.992C333.394 14.992 334.502 15.272 335.438 15.832C336.374 16.392 337.094 17.168 337.598 18.16C338.102 19.152 338.354 20.296 338.354 21.592C338.354 21.744 338.35 21.864 338.342 21.952C338.342 22.04 338.334 22.116 338.318 22.18H336.614C336.622 22.084 336.626 21.98 336.626 21.868C336.634 21.748 336.638 21.612 336.638 21.46C336.638 20.508 336.454 19.664 336.086 18.928C335.726 18.184 335.21 17.6 334.538 17.176C333.866 16.752 333.058 16.54 332.114 16.54C331.194 16.54 330.386 16.76 329.69 17.2C328.994 17.632 328.454 18.232 328.07 19C327.686 19.76 327.494 20.644 327.494 21.652C327.494 22.628 327.682 23.492 328.058 24.244C328.442 24.988 328.986 25.572 329.69 25.996C330.394 26.42 331.23 26.632 332.198 26.632C333.206 26.632 334.078 26.396 334.814 25.924C335.558 25.444 336.11 24.792 336.47 23.968L338.102 24.58C337.63 25.708 336.874 26.6 335.834 27.256C334.802 27.904 333.594 28.228 332.21 28.228ZM326.834 22.18V20.848H337.802L338.306 22.18H326.834ZM346.617 28.228C345.761 28.228 345.037 28.1 344.445 27.844C343.861 27.588 343.397 27.248 343.053 26.824C342.709 26.392 342.485 25.912 342.381 25.384H341.949L342.297 23.968C342.449 24.808 342.865 25.492 343.545 26.02C344.233 26.548 345.125 26.812 346.221 26.812C347.157 26.812 347.881 26.624 348.393 26.248C348.913 25.864 349.173 25.308 349.173 24.58C349.173 23.916 348.917 23.4 348.405 23.032C347.893 22.664 346.997 22.384 345.717 22.192C343.885 21.904 342.581 21.452 341.805 20.836C341.029 20.212 340.641 19.392 340.641 18.376C340.641 17.352 340.997 16.532 341.709 15.916C342.421 15.3 343.413 14.992 344.685 14.992C345.525 14.992 346.217 15.12 346.761 15.376C347.313 15.632 347.737 15.976 348.033 16.408C348.329 16.832 348.521 17.3 348.609 17.812H349.041L348.693 19.168C348.549 18.352 348.157 17.688 347.517 17.176C346.877 16.656 346.041 16.396 345.009 16.396C344.177 16.396 343.525 16.572 343.053 16.924C342.589 17.276 342.357 17.744 342.357 18.328C342.357 18.944 342.649 19.428 343.233 19.78C343.817 20.124 344.737 20.396 345.993 20.596C347.769 20.876 349.029 21.336 349.773 21.976C350.517 22.616 350.889 23.48 350.889 24.568C350.889 25.712 350.521 26.608 349.785 27.256C349.057 27.904 348.001 28.228 346.617 28.228ZM340.569 28V23.968H342.297V28H340.569ZM348.693 19.168V15.22H350.421V19.168H348.693Z" fill="black"/>
<path d="M1 6.35211L6 1V39L1 33.6479V6.35211Z" fill="white"/>
<path d="M6 1L1 6.35211V33.6479L6 39" stroke="black" stroke-linecap="round"/>
<path d="M362 33.6479L357 39L357 1L362 6.35211L362 33.6479Z" fill="white"/>
<path d="M357 39L362 33.6479L362 6.35211L357 1" stroke="black" stroke-linecap="round"/>
</svg>
