<svg width="278" height="40" viewBox="0 0 278 40" fill="none" xmlns="http://www.w3.org/2000/svg">
<path d="M6 1H272V39H6V1Z" fill="white"/>
<path d="M6 1.5H272V0.5H6V1.5ZM272 38.5H6V39.5H272V38.5Z" fill="black"/>
<path d="M16.4031 26.512H18.6711V28H12.1071V26.512H14.6751V10.528H12.1071V9.04H16.4031V26.512ZM23.7711 26.512V19.792C23.7711 18.752 23.5351 17.936 23.0631 17.344C22.5991 16.752 21.8671 16.456 20.8671 16.456C20.0271 16.456 19.2711 16.672 18.5991 17.104C17.9271 17.528 17.3911 18.148 16.9911 18.964C16.5991 19.772 16.4031 20.748 16.4031 21.892L15.9951 19.336H16.4751C16.6351 18.4 16.9351 17.608 17.3751 16.96C17.8231 16.304 18.3911 15.804 19.0791 15.46C19.7671 15.116 20.5551 14.944 21.4431 14.944C22.8351 14.944 23.8591 15.344 24.5151 16.144C25.1711 16.944 25.4991 18.068 25.4991 19.516V26.512H27.9471V28H21.5151V26.512H23.7711ZM39.5571 28C39.2291 28 38.9771 27.896 38.8011 27.688C38.6331 27.48 38.5491 27.188 38.5491 26.812V22.972L38.7051 22.576L38.6211 21.124L38.5491 20.368V19.396C38.5491 18.74 38.4131 18.204 38.1411 17.788C37.8771 17.372 37.4931 17.064 36.9891 16.864C36.4851 16.664 35.8771 16.564 35.1651 16.564C34.1011 16.564 33.2771 16.776 32.6931 17.2C32.1171 17.616 31.7331 18.244 31.5411 19.084L29.8851 18.736C30.0451 17.896 30.3451 17.2 30.7851 16.648C31.2251 16.088 31.8091 15.672 32.5371 15.4C33.2731 15.12 34.1691 14.98 35.2251 14.98C36.3291 14.98 37.2531 15.136 37.9971 15.448C38.7491 15.752 39.3171 16.22 39.7011 16.852C40.0851 17.484 40.2771 18.3 40.2771 19.3V26.512H42.1611V28H39.5571ZM33.5331 28.168C32.2051 28.168 31.1971 27.876 30.5091 27.292C29.8211 26.7 29.4771 25.832 29.4771 24.688C29.4771 23.632 29.7811 22.828 30.3891 22.276C30.9971 21.716 31.9731 21.296 33.3171 21.016L39.0651 19.792V21.028L33.6051 22.264C32.8211 22.448 32.2331 22.72 31.8411 23.08C31.4571 23.432 31.2651 23.932 31.2651 24.58C31.2651 25.284 31.4811 25.812 31.9131 26.164C32.3451 26.508 32.9771 26.68 33.8091 26.68C34.7291 26.68 35.5531 26.468 36.2811 26.044C37.0091 25.62 37.5811 24.996 37.9971 24.172C38.4131 23.348 38.6211 22.332 38.6211 21.124L39.0771 23.956H38.4651C38.2651 25.292 37.7451 26.328 36.9051 27.064C36.0731 27.8 34.9491 28.168 33.5331 28.168ZM48.1263 26.512H50.5863V28H43.8063V26.512H46.3983V16.708H43.8063V15.22H48.1263V26.512ZM46.0743 9.832H48.2823V12.124H46.0743V9.832ZM56.2919 26.512H58.7879V28H51.9359V26.512H54.5639V16.708H51.9359V15.22H56.2919V26.512ZM61.1999 17.056C61.0559 17.016 60.8999 16.984 60.7319 16.96C60.5719 16.936 60.3959 16.924 60.2039 16.924C59.0199 16.924 58.0719 17.368 57.3599 18.256C56.6479 19.136 56.2919 20.36 56.2919 21.928L55.8839 19.132H56.3759C56.4879 18.284 56.7199 17.556 57.0719 16.948C57.4239 16.332 57.8799 15.86 58.4399 15.532C59.0079 15.196 59.6719 15.028 60.4319 15.028C60.5759 15.028 60.7039 15.036 60.8159 15.052C60.9359 15.06 61.0639 15.076 61.1999 15.1V17.056ZM72.1381 24.616C72.1381 25.288 72.2661 25.796 72.5221 26.14C72.7781 26.476 73.1701 26.644 73.6981 26.644C74.2181 26.644 74.6101 26.472 74.8741 26.128C75.1381 25.776 75.2701 25.272 75.2701 24.616V23.428H76.8301V24.604C76.8301 25.372 76.7141 26.028 76.4821 26.572C76.2581 27.108 75.9141 27.52 75.4501 27.808C74.9861 28.088 74.3901 28.228 73.6621 28.228C72.9181 28.228 72.3061 28.084 71.8261 27.796C71.3461 27.5 70.9901 27.084 70.7581 26.548C70.5261 26.012 70.4101 25.368 70.4101 24.616L70.4221 16.708H68.1421V15.22H70.4221V11.98H72.1501V15.22H76.6621L76.6501 16.708H72.1501L72.1381 24.616ZM83.0031 26.512H85.4631V28H78.6831V26.512H81.2751V16.708H78.6831V15.22H83.0031V26.512ZM80.9511 9.832H83.1591V12.124H80.9511V9.832ZM93.4728 28.228C92.1528 28.228 91.0088 27.948 90.0408 27.388C89.0728 26.828 88.3248 26.056 87.7968 25.072C87.2688 24.08 87.0048 22.94 87.0048 21.652C87.0048 20.348 87.2688 19.196 87.7968 18.196C88.3328 17.196 89.0768 16.412 90.0288 15.844C90.9888 15.276 92.1048 14.992 93.3768 14.992C94.6568 14.992 95.7648 15.272 96.7008 15.832C97.6368 16.392 98.3568 17.168 98.8608 18.16C99.3648 19.152 99.6168 20.296 99.6168 21.592C99.6168 21.744 99.6128 21.864 99.6048 21.952C99.6048 22.04 99.5968 22.116 99.5808 22.18H97.8768C97.8848 22.084 97.8888 21.98 97.8888 21.868C97.8968 21.748 97.9008 21.612 97.9008 21.46C97.9008 20.508 97.7168 19.664 97.3488 18.928C96.9888 18.184 96.4728 17.6 95.8008 17.176C95.1288 16.752 94.3208 16.54 93.3768 16.54C92.4568 16.54 91.6488 16.76 90.9528 17.2C90.2568 17.632 89.7168 18.232 89.3328 19C88.9488 19.76 88.7568 20.644 88.7568 21.652C88.7568 22.628 88.9448 23.492 89.3208 24.244C89.7048 24.988 90.2488 25.572 90.9528 25.996C91.6568 26.42 92.4928 26.632 93.4608 26.632C94.4688 26.632 95.3408 26.396 96.0768 25.924C96.8208 25.444 97.3728 24.792 97.7328 23.968L99.3648 24.58C98.8928 25.708 98.1368 26.6 97.0968 27.256C96.0648 27.904 94.8568 28.228 93.4728 28.228ZM88.0968 22.18V20.848H99.0648L99.5688 22.18H88.0968ZM112.776 28V23.224L112.848 22.288V20.764L112.776 19.084V10.528H109.332V9.04H114.504V26.512H116.952V28H112.776ZM107.964 14.98C109.02 14.98 109.964 15.212 110.796 15.676C111.636 16.14 112.328 16.804 112.872 17.668C113.416 18.524 113.776 19.552 113.952 20.752L112.848 21.58C112.848 20.596 112.656 19.724 112.272 18.964C111.896 18.204 111.356 17.612 110.652 17.188C109.948 16.756 109.112 16.54 108.144 16.54C107.192 16.54 106.364 16.756 105.66 17.188C104.956 17.62 104.412 18.216 104.028 18.976C103.652 19.736 103.464 20.616 103.464 21.616C103.464 22.608 103.66 23.484 104.052 24.244C104.444 25.004 104.992 25.604 105.696 26.044C106.408 26.476 107.224 26.692 108.144 26.692C109.104 26.692 109.932 26.476 110.628 26.044C111.332 25.604 111.876 25 112.26 24.232C112.652 23.464 112.848 22.58 112.848 21.58L113.112 24.304H112.704C112.56 25.008 112.28 25.66 111.864 26.26C111.448 26.852 110.9 27.332 110.22 27.7C109.54 28.06 108.724 28.24 107.772 28.24C106.884 28.24 106.068 28.08 105.324 27.76C104.58 27.432 103.936 26.972 103.392 26.38C102.848 25.78 102.424 25.076 102.12 24.268C101.824 23.46 101.676 22.576 101.676 21.616C101.676 20.32 101.936 19.172 102.456 18.172C102.976 17.172 103.704 16.392 104.64 15.832C105.584 15.264 106.692 14.98 107.964 14.98ZM129.236 26.512H131.504V28H124.94V26.512H127.508V10.528H124.94V9.04H129.236V26.512ZM136.604 26.512V19.792C136.604 18.752 136.368 17.936 135.896 17.344C135.432 16.752 134.7 16.456 133.7 16.456C132.86 16.456 132.104 16.672 131.432 17.104C130.76 17.528 130.224 18.148 129.824 18.964C129.432 19.772 129.236 20.748 129.236 21.892L128.828 19.336H129.308C129.468 18.4 129.768 17.608 130.208 16.96C130.656 16.304 131.224 15.804 131.912 15.46C132.6 15.116 133.388 14.944 134.276 14.944C135.668 14.944 136.692 15.344 137.348 16.144C138.004 16.944 138.332 18.068 138.332 19.516V26.512H140.78V28H134.348V26.512H136.604ZM146.486 26.512H148.946V28H142.166V26.512H144.758V16.708H142.166V15.22H146.486V26.512ZM144.434 9.832H146.642V12.124H144.434V9.832ZM156.524 33.304C155.404 33.304 154.388 33.196 153.476 32.98C152.572 32.772 151.852 32.44 151.316 31.984C150.78 31.528 150.512 30.924 150.512 30.172C150.512 29.42 150.78 28.848 151.316 28.456C151.86 28.072 152.56 27.82 153.416 27.7V27.496L155.552 27.7C154.664 27.7 153.968 27.804 153.464 28.012C152.96 28.228 152.604 28.5 152.396 28.828C152.188 29.164 152.084 29.508 152.084 29.86C152.084 30.404 152.284 30.828 152.684 31.132C153.084 31.436 153.62 31.652 154.292 31.78C154.972 31.908 155.732 31.972 156.572 31.972C158.26 31.972 159.492 31.744 160.268 31.288C161.052 30.84 161.444 30.212 161.444 29.404C161.444 28.268 160.708 27.7 159.236 27.7H154.34C153.38 27.7 152.624 27.528 152.072 27.184C151.528 26.832 151.256 26.328 151.256 25.672C151.256 25.048 151.504 24.572 152 24.244C152.496 23.908 153.204 23.704 154.124 23.632V23.272L156.308 23.896H155C154.312 23.896 153.788 23.992 153.428 24.184C153.068 24.368 152.888 24.652 152.888 25.036C152.888 25.396 153.052 25.656 153.38 25.816C153.716 25.968 154.22 26.044 154.892 26.044H159.188C160.012 26.044 160.712 26.18 161.288 26.452C161.872 26.716 162.312 27.096 162.608 27.592C162.912 28.088 163.064 28.68 163.064 29.368C163.064 30.104 162.856 30.768 162.44 31.36C162.024 31.96 161.336 32.432 160.376 32.776C159.424 33.128 158.14 33.304 156.524 33.304ZM156.308 23.896C155.292 23.896 154.388 23.712 153.596 23.344C152.804 22.976 152.18 22.46 151.724 21.796C151.268 21.132 151.04 20.352 151.04 19.456C151.04 18.56 151.264 17.78 151.712 17.116C152.168 16.444 152.788 15.924 153.572 15.556C154.364 15.18 155.276 14.992 156.308 14.992C157.356 14.992 158.28 15.188 159.08 15.58C159.888 15.972 160.504 16.516 160.928 17.212C161.136 17.532 161.288 17.88 161.384 18.256C161.488 18.624 161.54 19.024 161.54 19.456C161.54 20.352 161.316 21.132 160.868 21.796C160.42 22.46 159.8 22.976 159.008 23.344C158.224 23.712 157.324 23.896 156.308 23.896ZM156.308 22.48C156.988 22.48 157.592 22.356 158.12 22.108C158.656 21.86 159.076 21.508 159.38 21.052C159.692 20.596 159.848 20.064 159.848 19.456C159.848 18.848 159.692 18.316 159.38 17.86C159.076 17.396 158.656 17.04 158.12 16.792C157.592 16.536 156.988 16.408 156.308 16.408C155.612 16.408 154.996 16.536 154.46 16.792C153.924 17.04 153.5 17.396 153.188 17.86C152.884 18.316 152.732 18.848 152.732 19.456C152.732 20.064 152.884 20.596 153.188 21.052C153.5 21.508 153.924 21.86 154.46 22.108C155.004 22.356 155.62 22.48 156.308 22.48ZM161.54 19.456L160.94 18.052L160.412 17.188L160.892 16.996C160.868 16.916 160.848 16.836 160.832 16.756C160.824 16.668 160.82 16.576 160.82 16.48C160.82 16.144 160.9 15.84 161.06 15.568C161.22 15.296 161.452 15.08 161.756 14.92C162.06 14.76 162.432 14.68 162.872 14.68C162.984 14.68 163.084 14.684 163.172 14.692C163.268 14.7 163.36 14.716 163.448 14.74V16.408C163.296 16.384 163.156 16.368 163.028 16.36C162.9 16.344 162.772 16.336 162.644 16.336C162.308 16.336 162.036 16.384 161.828 16.48C161.628 16.576 161.484 16.7 161.396 16.852C161.308 16.996 161.264 17.156 161.264 17.332C161.264 17.5 161.288 17.684 161.336 17.884C161.384 18.076 161.428 18.3 161.468 18.556C161.516 18.812 161.54 19.112 161.54 19.456ZM168.835 26.512H171.103V28H164.539V26.512H167.107V10.528H164.539V9.04H168.835V26.512ZM176.203 26.512V19.792C176.203 18.752 175.967 17.936 175.495 17.344C175.031 16.752 174.299 16.456 173.299 16.456C172.459 16.456 171.703 16.672 171.031 17.104C170.359 17.528 169.823 18.148 169.423 18.964C169.031 19.772 168.835 20.748 168.835 21.892L168.427 19.336H168.907C169.067 18.4 169.367 17.608 169.807 16.96C170.255 16.304 170.823 15.804 171.511 15.46C172.199 15.116 172.987 14.944 173.875 14.944C175.267 14.944 176.291 15.344 176.947 16.144C177.603 16.944 177.931 18.068 177.931 19.516V26.512H180.379V28H173.947V26.512H176.203ZM192.894 26.512H195.354V28H188.574V26.512H191.166V16.708H188.574V15.22H192.894V26.512ZM190.842 9.832H193.05V12.124H190.842V9.832ZM201.06 26.512H203.34V28H196.704V26.512H199.332V16.708H196.704V15.22H201.06V26.512ZM208.428 26.512V19.828C208.428 18.78 208.192 17.956 207.72 17.356C207.248 16.756 206.504 16.456 205.488 16.456C204.664 16.456 203.916 16.66 203.244 17.068C202.572 17.476 202.04 18.068 201.648 18.844C201.256 19.62 201.06 20.56 201.06 21.664L200.664 19.108H201.144C201.296 18.236 201.588 17.496 202.02 16.888C202.452 16.272 203.004 15.804 203.676 15.484C204.356 15.156 205.136 14.992 206.016 14.992C207.408 14.992 208.444 15.396 209.124 16.204C209.812 17.004 210.156 18.136 210.156 19.6V26.512H212.616V28H206.184V26.512H208.428ZM227.474 28.228C226.146 28.228 224.982 27.948 223.982 27.388C222.982 26.82 222.202 26.044 221.642 25.06C221.082 24.076 220.802 22.94 220.802 21.652C220.802 20.356 221.082 19.208 221.642 18.208C222.202 17.2 222.982 16.412 223.982 15.844C224.982 15.276 226.146 14.992 227.474 14.992C228.802 14.992 229.966 15.276 230.966 15.844C231.966 16.412 232.746 17.2 233.306 18.208C233.866 19.208 234.146 20.356 234.146 21.652C234.146 22.94 233.866 24.076 233.306 25.06C232.746 26.044 231.966 26.82 230.966 27.388C229.966 27.948 228.802 28.228 227.474 28.228ZM227.474 26.632C228.434 26.632 229.278 26.424 230.006 26.008C230.742 25.592 231.314 25.012 231.722 24.268C232.138 23.516 232.346 22.644 232.346 21.652C232.346 20.652 232.138 19.772 231.722 19.012C231.314 18.252 230.742 17.66 230.006 17.236C229.278 16.804 228.434 16.588 227.474 16.588C226.514 16.588 225.666 16.804 224.93 17.236C224.202 17.66 223.63 18.252 223.214 19.012C222.806 19.772 222.602 20.652 222.602 21.652C222.602 22.644 222.806 23.516 223.214 24.268C223.63 25.012 224.202 25.592 224.93 26.008C225.666 26.424 226.514 26.632 227.474 26.632ZM240.495 26.512H242.775V28H236.139V26.512H238.767V16.708H236.139V15.22H240.495V26.512ZM247.863 26.512V19.828C247.863 18.78 247.627 17.956 247.155 17.356C246.683 16.756 245.939 16.456 244.923 16.456C244.099 16.456 243.351 16.66 242.679 17.068C242.007 17.476 241.475 18.068 241.083 18.844C240.691 19.62 240.495 20.56 240.495 21.664L240.099 19.108H240.579C240.731 18.236 241.023 17.496 241.455 16.888C241.887 16.272 242.439 15.804 243.111 15.484C243.791 15.156 244.571 14.992 245.451 14.992C246.843 14.992 247.879 15.396 248.559 16.204C249.247 17.004 249.591 18.136 249.591 19.6V26.512H252.051V28H245.619V26.512H247.863ZM259.873 28.228C258.553 28.228 257.409 27.948 256.441 27.388C255.473 26.828 254.725 26.056 254.197 25.072C253.669 24.08 253.405 22.94 253.405 21.652C253.405 20.348 253.669 19.196 254.197 18.196C254.733 17.196 255.477 16.412 256.429 15.844C257.389 15.276 258.505 14.992 259.777 14.992C261.057 14.992 262.165 15.272 263.101 15.832C264.037 16.392 264.757 17.168 265.261 18.16C265.765 19.152 266.017 20.296 266.017 21.592C266.017 21.744 266.013 21.864 266.005 21.952C266.005 22.04 265.997 22.116 265.981 22.18H264.277C264.285 22.084 264.289 21.98 264.289 21.868C264.297 21.748 264.301 21.612 264.301 21.46C264.301 20.508 264.117 19.664 263.749 18.928C263.389 18.184 262.873 17.6 262.201 17.176C261.529 16.752 260.721 16.54 259.777 16.54C258.857 16.54 258.049 16.76 257.353 17.2C256.657 17.632 256.117 18.232 255.733 19C255.349 19.76 255.157 20.644 255.157 21.652C255.157 22.628 255.345 23.492 255.721 24.244C256.105 24.988 256.649 25.572 257.353 25.996C258.057 26.42 258.893 26.632 259.861 26.632C260.869 26.632 261.741 26.396 262.477 25.924C263.221 25.444 263.773 24.792 264.133 23.968L265.765 24.58C265.293 25.708 264.537 26.6 263.497 27.256C262.465 27.904 261.257 28.228 259.873 28.228ZM254.497 22.18V20.848H265.465L265.969 22.18H254.497Z" fill="black"/>
<path d="M1 6.35211L6 1V39L1 33.6479V6.35211Z" fill="white"/>
<path d="M6 1L1 6.35211V33.6479L6 39" stroke="black" stroke-linecap="round"/>
<path d="M277 33.6479L272 39L272 1L277 6.35211L277 33.6479Z" fill="white"/>
<path d="M272 39L277 33.6479L277 6.35211L272 1" stroke="black" stroke-linecap="round"/>
</svg>
