<svg width="224" height="40" viewBox="0 0 224 40" fill="none" xmlns="http://www.w3.org/2000/svg">
<path d="M6 1H218V39H6V1Z" fill="white"/>
<path d="M6 1.5H218V0.5H6V1.5ZM218 38.5H6V39.5H218V38.5Z" fill="black"/>
<path d="M16.4819 26.512H19.1099V28H12.1259V26.512H14.7539V10.528H12.1259V9.04H16.4819V26.512ZM24.9531 26.512H27.4131V28H20.6331V26.512H23.2251V16.708H20.6331V15.22H24.9531V26.512ZM22.9011 9.832H25.1091V12.124H22.9011V9.832ZM34.9907 33.304C33.8707 33.304 32.8547 33.196 31.9427 32.98C31.0387 32.772 30.3187 32.44 29.7827 31.984C29.2467 31.528 28.9787 30.924 28.9787 30.172C28.9787 29.42 29.2467 28.848 29.7827 28.456C30.3267 28.072 31.0267 27.82 31.8827 27.7V27.496L34.0187 27.7C33.1307 27.7 32.4347 27.804 31.9307 28.012C31.4267 28.228 31.0707 28.5 30.8627 28.828C30.6547 29.164 30.5507 29.508 30.5507 29.86C30.5507 30.404 30.7507 30.828 31.1507 31.132C31.5507 31.436 32.0867 31.652 32.7587 31.78C33.4387 31.908 34.1987 31.972 35.0387 31.972C36.7267 31.972 37.9587 31.744 38.7347 31.288C39.5187 30.84 39.9107 30.212 39.9107 29.404C39.9107 28.268 39.1747 27.7 37.7027 27.7H32.8067C31.8467 27.7 31.0907 27.528 30.5387 27.184C29.9947 26.832 29.7227 26.328 29.7227 25.672C29.7227 25.048 29.9707 24.572 30.4667 24.244C30.9627 23.908 31.6707 23.704 32.5907 23.632V23.272L34.7747 23.896H33.4667C32.7787 23.896 32.2547 23.992 31.8947 24.184C31.5347 24.368 31.3547 24.652 31.3547 25.036C31.3547 25.396 31.5187 25.656 31.8467 25.816C32.1827 25.968 32.6867 26.044 33.3587 26.044H37.6547C38.4787 26.044 39.1787 26.18 39.7547 26.452C40.3387 26.716 40.7787 27.096 41.0747 27.592C41.3787 28.088 41.5307 28.68 41.5307 29.368C41.5307 30.104 41.3227 30.768 40.9067 31.36C40.4907 31.96 39.8027 32.432 38.8427 32.776C37.8907 33.128 36.6067 33.304 34.9907 33.304ZM34.7747 23.896C33.7587 23.896 32.8547 23.712 32.0627 23.344C31.2707 22.976 30.6467 22.46 30.1907 21.796C29.7347 21.132 29.5067 20.352 29.5067 19.456C29.5067 18.56 29.7307 17.78 30.1787 17.116C30.6347 16.444 31.2547 15.924 32.0387 15.556C32.8307 15.18 33.7427 14.992 34.7747 14.992C35.8227 14.992 36.7467 15.188 37.5467 15.58C38.3547 15.972 38.9707 16.516 39.3947 17.212C39.6027 17.532 39.7547 17.88 39.8507 18.256C39.9547 18.624 40.0067 19.024 40.0067 19.456C40.0067 20.352 39.7827 21.132 39.3347 21.796C38.8867 22.46 38.2667 22.976 37.4747 23.344C36.6907 23.712 35.7907 23.896 34.7747 23.896ZM34.7747 22.48C35.4547 22.48 36.0587 22.356 36.5867 22.108C37.1227 21.86 37.5427 21.508 37.8467 21.052C38.1587 20.596 38.3147 20.064 38.3147 19.456C38.3147 18.848 38.1587 18.316 37.8467 17.86C37.5427 17.396 37.1227 17.04 36.5867 16.792C36.0587 16.536 35.4547 16.408 34.7747 16.408C34.0787 16.408 33.4627 16.536 32.9267 16.792C32.3907 17.04 31.9667 17.396 31.6547 17.86C31.3507 18.316 31.1987 18.848 31.1987 19.456C31.1987 20.064 31.3507 20.596 31.6547 21.052C31.9667 21.508 32.3907 21.86 32.9267 22.108C33.4707 22.356 34.0867 22.48 34.7747 22.48ZM40.0067 19.456L39.4067 18.052L38.8787 17.188L39.3587 16.996C39.3347 16.916 39.3147 16.836 39.2987 16.756C39.2907 16.668 39.2867 16.576 39.2867 16.48C39.2867 16.144 39.3667 15.84 39.5267 15.568C39.6867 15.296 39.9187 15.08 40.2227 14.92C40.5267 14.76 40.8987 14.68 41.3387 14.68C41.4507 14.68 41.5507 14.684 41.6387 14.692C41.7347 14.7 41.8267 14.716 41.9147 14.74V16.408C41.7627 16.384 41.6227 16.368 41.4947 16.36C41.3667 16.344 41.2387 16.336 41.1107 16.336C40.7747 16.336 40.5027 16.384 40.2947 16.48C40.0947 16.576 39.9507 16.7 39.8627 16.852C39.7747 16.996 39.7307 17.156 39.7307 17.332C39.7307 17.5 39.7547 17.684 39.8027 17.884C39.8507 18.076 39.8947 18.3 39.9347 18.556C39.9827 18.812 40.0067 19.112 40.0067 19.456ZM47.3022 26.512H49.5702V28H43.0062V26.512H45.5742V10.528H43.0062V9.04H47.3022V26.512ZM54.6702 26.512V19.792C54.6702 18.752 54.4342 17.936 53.9622 17.344C53.4982 16.752 52.7662 16.456 51.7662 16.456C50.9262 16.456 50.1702 16.672 49.4982 17.104C48.8262 17.528 48.2902 18.148 47.8902 18.964C47.4982 19.772 47.3022 20.748 47.3022 21.892L46.8942 19.336H47.3742C47.5342 18.4 47.8342 17.608 48.2742 16.96C48.7222 16.304 49.2902 15.804 49.9782 15.46C50.6662 15.116 51.4542 14.944 52.3422 14.944C53.7342 14.944 54.7582 15.344 55.4142 16.144C56.0702 16.944 56.3982 18.068 56.3982 19.516V26.512H58.8462V28H52.4142V26.512H54.6702ZM63.4962 24.616C63.4962 25.288 63.6242 25.796 63.8802 26.14C64.1362 26.476 64.5282 26.644 65.0562 26.644C65.5762 26.644 65.9682 26.472 66.2322 26.128C66.4962 25.776 66.6282 25.272 66.6282 24.616V23.428H68.1882V24.604C68.1882 25.372 68.0722 26.028 67.8402 26.572C67.6162 27.108 67.2722 27.52 66.8082 27.808C66.3442 28.088 65.7482 28.228 65.0202 28.228C64.2762 28.228 63.6642 28.084 63.1842 27.796C62.7042 27.5 62.3482 27.084 62.1162 26.548C61.8842 26.012 61.7682 25.368 61.7682 24.616L61.7802 16.708H59.5002V15.22H61.7802V11.98H63.5082V15.22H68.0202L68.0082 16.708H63.5082L63.4962 24.616ZM78.0394 28.264V10.528H75.4714V9.04H79.7674V19.696L79.6954 21.196V22.792L79.7674 25.12L78.1954 28.264H78.0394ZM84.5074 28.24C83.4354 28.24 82.4754 28.04 81.6274 27.64C80.7874 27.232 80.0914 26.656 79.5394 25.912C78.9954 25.16 78.6314 24.268 78.4474 23.236L79.6954 21.616C79.6954 22.6 79.8834 23.472 80.2594 24.232C80.6354 24.992 81.1754 25.592 81.8794 26.032C82.5834 26.464 83.4194 26.68 84.3874 26.68C85.3714 26.68 86.2114 26.468 86.9074 26.044C87.6114 25.62 88.1474 25.028 88.5154 24.268C88.8914 23.5 89.0794 22.608 89.0794 21.592C89.0794 20.6 88.8794 19.724 88.4794 18.964C88.0874 18.204 87.5394 17.608 86.8354 17.176C86.1314 16.744 85.3154 16.528 84.3874 16.528C83.4354 16.528 82.6074 16.744 81.9034 17.176C81.1994 17.608 80.6554 18.204 80.2714 18.964C79.8874 19.724 79.6954 20.608 79.6954 21.616L79.4194 18.916H79.8274C79.9794 18.212 80.2594 17.564 80.6674 16.972C81.0834 16.372 81.6314 15.892 82.3114 15.532C82.9994 15.164 83.8194 14.98 84.7714 14.98C85.6594 14.98 86.4754 15.144 87.2194 15.472C87.9634 15.792 88.6074 16.252 89.1514 16.852C89.6954 17.444 90.1154 18.148 90.4114 18.964C90.7074 19.772 90.8554 20.66 90.8554 21.628C90.8554 22.916 90.5914 24.06 90.0634 25.06C89.5434 26.052 88.8074 26.832 87.8554 27.4C86.9034 27.96 85.7874 28.24 84.5074 28.24ZM97.2109 26.512H99.7069V28H92.8549V26.512H95.4829V16.708H92.8549V15.22H97.2109V26.512ZM102.119 17.056C101.975 17.016 101.819 16.984 101.651 16.96C101.491 16.936 101.315 16.924 101.123 16.924C99.9389 16.924 98.9909 17.368 98.2789 18.256C97.5669 19.136 97.2109 20.36 97.2109 21.928L96.8029 19.132H97.2949C97.4069 18.284 97.6389 17.556 97.9909 16.948C98.3429 16.332 98.7989 15.86 99.3589 15.532C99.9269 15.196 100.591 15.028 101.351 15.028C101.495 15.028 101.623 15.036 101.735 15.052C101.855 15.06 101.983 15.076 102.119 15.1V17.056ZM109.832 28.228C108.504 28.228 107.34 27.948 106.34 27.388C105.34 26.82 104.56 26.044 104 25.06C103.44 24.076 103.16 22.94 103.16 21.652C103.16 20.356 103.44 19.208 104 18.208C104.56 17.2 105.34 16.412 106.34 15.844C107.34 15.276 108.504 14.992 109.832 14.992C111.16 14.992 112.324 15.276 113.324 15.844C114.324 16.412 115.104 17.2 115.664 18.208C116.224 19.208 116.504 20.356 116.504 21.652C116.504 22.94 116.224 24.076 115.664 25.06C115.104 26.044 114.324 26.82 113.324 27.388C112.324 27.948 111.16 28.228 109.832 28.228ZM109.832 26.632C110.792 26.632 111.636 26.424 112.364 26.008C113.1 25.592 113.672 25.012 114.08 24.268C114.496 23.516 114.704 22.644 114.704 21.652C114.704 20.652 114.496 19.772 114.08 19.012C113.672 18.252 113.1 17.66 112.364 17.236C111.636 16.804 110.792 16.588 109.832 16.588C108.872 16.588 108.024 16.804 107.288 17.236C106.56 17.66 105.988 18.252 105.572 19.012C105.164 19.772 104.96 20.652 104.96 21.652C104.96 22.644 105.164 23.516 105.572 24.268C105.988 25.012 106.56 25.592 107.288 26.008C108.024 26.424 108.872 26.632 109.832 26.632ZM133.511 15.22H139.307V16.708H137.747L133.751 28H131.747L127.703 16.672L129.071 18.412H127.439L128.807 16.672L125.003 28H122.987L118.787 16.708H117.215V15.22H123.095V16.708H120.635L124.559 28L123.119 26.332H124.787L123.479 28L127.391 16.708H125.387V15.22H131.315V16.708H129.359L133.427 28L131.963 26.332H133.607L132.371 28L136.091 16.708H133.511V15.22ZM144.802 26.512H147.082V28H140.446V26.512H143.074V16.708H140.446V15.22H144.802V26.512ZM152.17 26.512V19.828C152.17 18.78 151.934 17.956 151.462 17.356C150.99 16.756 150.246 16.456 149.23 16.456C148.406 16.456 147.658 16.66 146.986 17.068C146.314 17.476 145.782 18.068 145.39 18.844C144.998 19.62 144.802 20.56 144.802 21.664L144.406 19.108H144.886C145.038 18.236 145.33 17.496 145.762 16.888C146.194 16.272 146.746 15.804 147.418 15.484C148.098 15.156 148.878 14.992 149.758 14.992C151.15 14.992 152.186 15.396 152.866 16.204C153.554 17.004 153.898 18.136 153.898 19.6V26.512H156.358V28H149.926V26.512H152.17ZM168.396 26.512H170.664V28H164.1V26.512H166.668V10.528H164.1V9.04H168.396V26.512ZM175.764 26.512V19.792C175.764 18.752 175.528 17.936 175.056 17.344C174.592 16.752 173.86 16.456 172.86 16.456C172.02 16.456 171.264 16.672 170.592 17.104C169.92 17.528 169.384 18.148 168.984 18.964C168.592 19.772 168.396 20.748 168.396 21.892L167.988 19.336H168.468C168.628 18.4 168.928 17.608 169.368 16.96C169.816 16.304 170.384 15.804 171.072 15.46C171.76 15.116 172.548 14.944 173.436 14.944C174.828 14.944 175.852 15.344 176.508 16.144C177.164 16.944 177.492 18.068 177.492 19.516V26.512H179.94V28H173.508V26.512H175.764ZM191.55 28C191.222 28 190.97 27.896 190.794 27.688C190.626 27.48 190.542 27.188 190.542 26.812V22.972L190.698 22.576L190.614 21.124L190.542 20.368V19.396C190.542 18.74 190.406 18.204 190.134 17.788C189.87 17.372 189.486 17.064 188.982 16.864C188.478 16.664 187.87 16.564 187.158 16.564C186.094 16.564 185.27 16.776 184.686 17.2C184.11 17.616 183.726 18.244 183.534 19.084L181.878 18.736C182.038 17.896 182.338 17.2 182.778 16.648C183.218 16.088 183.802 15.672 184.53 15.4C185.266 15.12 186.162 14.98 187.218 14.98C188.322 14.98 189.246 15.136 189.99 15.448C190.742 15.752 191.31 16.22 191.694 16.852C192.078 17.484 192.27 18.3 192.27 19.3V26.512H194.154V28H191.55ZM185.526 28.168C184.198 28.168 183.19 27.876 182.502 27.292C181.814 26.7 181.47 25.832 181.47 24.688C181.47 23.632 181.774 22.828 182.382 22.276C182.99 21.716 183.966 21.296 185.31 21.016L191.058 19.792V21.028L185.598 22.264C184.814 22.448 184.226 22.72 183.834 23.08C183.45 23.432 183.258 23.932 183.258 24.58C183.258 25.284 183.474 25.812 183.906 26.164C184.338 26.508 184.97 26.68 185.802 26.68C186.722 26.68 187.546 26.468 188.274 26.044C189.002 25.62 189.574 24.996 189.99 24.172C190.406 23.348 190.614 22.332 190.614 21.124L191.07 23.956H190.458C190.258 25.292 189.738 26.328 188.898 27.064C188.066 27.8 186.942 28.168 185.526 28.168ZM200.119 26.512H202.579V28H195.799V26.512H198.391V16.708H195.799V15.22H200.119V26.512ZM198.067 9.832H200.275V12.124H198.067V9.832ZM208.285 26.512H210.781V28H203.929V26.512H206.557V16.708H203.929V15.22H208.285V26.512ZM213.193 17.056C213.049 17.016 212.893 16.984 212.725 16.96C212.565 16.936 212.389 16.924 212.197 16.924C211.013 16.924 210.065 17.368 209.353 18.256C208.641 19.136 208.285 20.36 208.285 21.928L207.877 19.132H208.369C208.481 18.284 208.713 17.556 209.065 16.948C209.417 16.332 209.873 15.86 210.433 15.532C211.001 15.196 211.665 15.028 212.425 15.028C212.569 15.028 212.697 15.036 212.809 15.052C212.929 15.06 213.057 15.076 213.193 15.1V17.056Z" fill="black"/>
<path d="M1 6.35211L6 1V39L1 33.6479V6.35211Z" fill="white"/>
<path d="M6 1L1 6.35211V33.6479L6 39" stroke="black" stroke-linecap="round"/>
<path d="M223 33.6479L218 39L218 1L223 6.35211L223 33.6479Z" fill="white"/>
<path d="M218 39L223 33.6479L223 6.35211L218 1" stroke="black" stroke-linecap="round"/>
</svg>
