<svg width="263" height="40" viewBox="0 0 263 40" fill="none" xmlns="http://www.w3.org/2000/svg">
<path d="M6 1H257V39H6V1Z" fill="white"/>
<path d="M6 1.5H257V0.5H6V1.5ZM257 38.5H6V39.5H257V38.5Z" fill="black"/>
<path d="M29.9376 28V26.512H32.1936V19.804C32.1936 18.756 31.9616 17.936 31.4976 17.344C31.0336 16.752 30.3096 16.456 29.3256 16.456C28.5336 16.456 27.8296 16.664 27.2136 17.08C26.5976 17.496 26.1136 18.092 25.7616 18.868C25.4096 19.644 25.2336 20.576 25.2336 21.664L24.8136 19.096H25.3056C25.5056 17.704 26.0216 16.664 26.8536 15.976C27.6936 15.288 28.7136 14.944 29.9136 14.944C31.2656 14.944 32.2696 15.344 32.9256 16.144C33.5896 16.944 33.9216 18.072 33.9216 19.528V26.512H36.3696V28H29.9376ZM12.2496 28V26.512H14.8056V16.708H12.2496V15.22H16.5336V26.512H18.8016V28H12.2496ZM21.2496 28V26.512H23.5056V19.804C23.5056 18.756 23.2736 17.936 22.8096 17.344C22.3456 16.752 21.6216 16.456 20.6376 16.456C19.8456 16.456 19.1416 16.664 18.5256 17.08C17.9096 17.496 17.4216 18.092 17.0616 18.868C16.7096 19.644 16.5336 20.576 16.5336 21.664L16.1256 19.096H16.6176C16.8096 17.704 17.3256 16.664 18.1656 15.976C19.0056 15.288 20.0256 14.944 21.2256 14.944C22.5776 14.944 23.5816 15.344 24.2376 16.144C24.9016 16.944 25.2336 18.072 25.2336 19.528V26.512H27.6816V28H21.2496ZM47.9778 28C47.6498 28 47.3978 27.896 47.2218 27.688C47.0538 27.48 46.9698 27.188 46.9698 26.812V22.972L47.1258 22.576L47.0418 21.124L46.9698 20.368V19.396C46.9698 18.74 46.8338 18.204 46.5618 17.788C46.2978 17.372 45.9138 17.064 45.4098 16.864C44.9058 16.664 44.2978 16.564 43.5858 16.564C42.5218 16.564 41.6978 16.776 41.1138 17.2C40.5378 17.616 40.1538 18.244 39.9618 19.084L38.3058 18.736C38.4658 17.896 38.7658 17.2 39.2058 16.648C39.6458 16.088 40.2298 15.672 40.9578 15.4C41.6938 15.12 42.5898 14.98 43.6458 14.98C44.7498 14.98 45.6738 15.136 46.4178 15.448C47.1698 15.752 47.7378 16.22 48.1218 16.852C48.5058 17.484 48.6978 18.3 48.6978 19.3V26.512H50.5818V28H47.9778ZM41.9538 28.168C40.6258 28.168 39.6178 27.876 38.9298 27.292C38.2418 26.7 37.8978 25.832 37.8978 24.688C37.8978 23.632 38.2018 22.828 38.8098 22.276C39.4178 21.716 40.3938 21.296 41.7378 21.016L47.4858 19.792V21.028L42.0258 22.264C41.2418 22.448 40.6538 22.72 40.2618 23.08C39.8778 23.432 39.6858 23.932 39.6858 24.58C39.6858 25.284 39.9018 25.812 40.3338 26.164C40.7658 26.508 41.3978 26.68 42.2298 26.68C43.1498 26.68 43.9738 26.468 44.7018 26.044C45.4298 25.62 46.0018 24.996 46.4178 24.172C46.8338 23.348 47.0418 22.332 47.0418 21.124L47.4978 23.956H46.8858C46.6858 25.292 46.1658 26.328 45.3258 27.064C44.4938 27.8 43.3698 28.168 41.9538 28.168ZM56.4269 26.512H58.7069V28H52.0709V26.512H54.6989V16.708H52.0709V15.22H56.4269V26.512ZM63.7949 26.512V19.828C63.7949 18.78 63.5589 17.956 63.0869 17.356C62.6149 16.756 61.8709 16.456 60.8549 16.456C60.0309 16.456 59.2829 16.66 58.6109 17.068C57.9389 17.476 57.4069 18.068 57.0149 18.844C56.6229 19.62 56.4269 20.56 56.4269 21.664L56.0309 19.108H56.5109C56.6629 18.236 56.9549 17.496 57.3869 16.888C57.8189 16.272 58.3709 15.804 59.0429 15.484C59.7229 15.156 60.5029 14.992 61.3829 14.992C62.7749 14.992 63.8109 15.396 64.4909 16.204C65.1789 17.004 65.5229 18.136 65.5229 19.6V26.512H67.9829V28H61.5509V26.512H63.7949ZM76.159 15.22H82.111V16.708H80.515L75.235 29.704C74.803 30.776 74.135 31.6 73.231 32.176C72.335 32.752 71.219 33.04 69.883 33.04H68.623V31.516H69.883C70.779 31.516 71.559 31.328 72.223 30.952C72.895 30.584 73.383 30.04 73.687 29.32L74.599 27.076L74.299 28.564L69.415 16.708H67.651V15.22H73.723V16.708H71.299L75.607 27.472L74.035 26.08H75.691L74.791 26.896L78.787 16.708H76.159V15.22ZM96.3612 28.228C95.0412 28.228 93.8972 27.948 92.9292 27.388C91.9612 26.828 91.2132 26.056 90.6852 25.072C90.1572 24.08 89.8932 22.94 89.8932 21.652C89.8932 20.348 90.1572 19.196 90.6852 18.196C91.2212 17.196 91.9652 16.412 92.9172 15.844C93.8772 15.276 94.9932 14.992 96.2652 14.992C97.5452 14.992 98.6532 15.272 99.5892 15.832C100.525 16.392 101.245 17.168 101.749 18.16C102.253 19.152 102.505 20.296 102.505 21.592C102.505 21.744 102.501 21.864 102.493 21.952C102.493 22.04 102.485 22.116 102.469 22.18H100.765C100.773 22.084 100.777 21.98 100.777 21.868C100.785 21.748 100.789 21.612 100.789 21.46C100.789 20.508 100.605 19.664 100.237 18.928C99.8772 18.184 99.3612 17.6 98.6892 17.176C98.0172 16.752 97.2092 16.54 96.2652 16.54C95.3452 16.54 94.5372 16.76 93.8412 17.2C93.1452 17.632 92.6052 18.232 92.2212 19C91.8372 19.76 91.6452 20.644 91.6452 21.652C91.6452 22.628 91.8332 23.492 92.2092 24.244C92.5932 24.988 93.1372 25.572 93.8412 25.996C94.5452 26.42 95.3812 26.632 96.3492 26.632C97.3572 26.632 98.2292 26.396 98.9652 25.924C99.7092 25.444 100.261 24.792 100.621 23.968L102.253 24.58C101.781 25.708 101.025 26.6 99.9852 27.256C98.9532 27.904 97.7452 28.228 96.3612 28.228ZM90.9852 22.18V20.848H101.953L102.457 22.18H90.9852ZM114.789 28C114.461 28 114.209 27.896 114.033 27.688C113.865 27.48 113.781 27.188 113.781 26.812V22.972L113.937 22.576L113.853 21.124L113.781 20.368V19.396C113.781 18.74 113.645 18.204 113.373 17.788C113.109 17.372 112.725 17.064 112.221 16.864C111.717 16.664 111.109 16.564 110.397 16.564C109.333 16.564 108.509 16.776 107.925 17.2C107.349 17.616 106.965 18.244 106.773 19.084L105.117 18.736C105.277 17.896 105.577 17.2 106.017 16.648C106.457 16.088 107.041 15.672 107.769 15.4C108.505 15.12 109.401 14.98 110.457 14.98C111.561 14.98 112.485 15.136 113.229 15.448C113.981 15.752 114.549 16.22 114.933 16.852C115.317 17.484 115.509 18.3 115.509 19.3V26.512H117.393V28H114.789ZM108.765 28.168C107.437 28.168 106.429 27.876 105.741 27.292C105.053 26.7 104.709 25.832 104.709 24.688C104.709 23.632 105.013 22.828 105.621 22.276C106.229 21.716 107.205 21.296 108.549 21.016L114.297 19.792V21.028L108.837 22.264C108.053 22.448 107.465 22.72 107.073 23.08C106.689 23.432 106.497 23.932 106.497 24.58C106.497 25.284 106.713 25.812 107.145 26.164C107.577 26.508 108.209 26.68 109.041 26.68C109.961 26.68 110.785 26.468 111.513 26.044C112.241 25.62 112.813 24.996 113.229 24.172C113.645 23.348 113.853 22.332 113.853 21.124L114.309 23.956H113.697C113.497 25.292 112.977 26.328 112.137 27.064C111.305 27.8 110.181 28.168 108.765 28.168ZM123.238 26.512H125.734V28H118.882V26.512H121.51V16.708H118.882V15.22H123.238V26.512ZM128.146 17.056C128.002 17.016 127.846 16.984 127.678 16.96C127.518 16.936 127.342 16.924 127.15 16.924C125.966 16.924 125.018 17.368 124.306 18.256C123.594 19.136 123.238 20.36 123.238 21.928L122.83 19.132H123.322C123.434 18.284 123.666 17.556 124.018 16.948C124.37 16.332 124.826 15.86 125.386 15.532C125.954 15.196 126.618 15.028 127.378 15.028C127.522 15.028 127.65 15.036 127.762 15.052C127.882 15.06 128.01 15.076 128.146 15.1V17.056ZM135.4 33.04V31.552H137.956V16.708H135.4V15.22H139.684V19.792L139.636 21.16V21.916L139.684 22.996V31.552H142.192V33.04H135.4ZM144.508 28.24C143.452 28.24 142.504 28.008 141.664 27.544C140.832 27.08 140.144 26.42 139.6 25.564C139.056 24.7 138.696 23.668 138.52 22.468L139.636 21.64C139.636 22.624 139.824 23.496 140.2 24.256C140.576 25.008 141.116 25.6 141.82 26.032C142.524 26.464 143.36 26.68 144.328 26.68C145.28 26.68 146.108 26.464 146.812 26.032C147.516 25.6 148.056 25.004 148.432 24.244C148.816 23.476 149.008 22.6 149.008 21.616C149.008 20.616 148.812 19.736 148.42 18.976C148.028 18.216 147.48 17.62 146.776 17.188C146.072 16.748 145.256 16.528 144.328 16.528C143.376 16.528 142.548 16.748 141.844 17.188C141.14 17.62 140.596 18.22 140.212 18.988C139.828 19.756 139.636 20.64 139.636 21.64L139.36 18.916H139.768C139.912 18.212 140.192 17.564 140.608 16.972C141.024 16.372 141.572 15.892 142.252 15.532C142.94 15.164 143.756 14.98 144.7 14.98C145.596 14.98 146.416 15.144 147.16 15.472C147.904 15.792 148.544 16.252 149.08 16.852C149.624 17.444 150.044 18.144 150.34 18.952C150.644 19.76 150.796 20.648 150.796 21.616C150.796 22.904 150.536 24.048 150.016 25.048C149.496 26.048 148.764 26.832 147.82 27.4C146.884 27.96 145.78 28.24 144.508 28.24ZM157.262 26.512H159.722V28H152.942V26.512H155.534V16.708H152.942V15.22H157.262V26.512ZM155.21 9.832H157.418V12.124H155.21V9.832ZM167.731 28.228C166.411 28.228 165.267 27.948 164.299 27.388C163.331 26.828 162.583 26.056 162.055 25.072C161.527 24.08 161.263 22.94 161.263 21.652C161.263 20.348 161.527 19.196 162.055 18.196C162.591 17.196 163.335 16.412 164.287 15.844C165.247 15.276 166.363 14.992 167.635 14.992C168.915 14.992 170.023 15.272 170.959 15.832C171.895 16.392 172.615 17.168 173.119 18.16C173.623 19.152 173.875 20.296 173.875 21.592C173.875 21.744 173.871 21.864 173.863 21.952C173.863 22.04 173.855 22.116 173.839 22.18H172.135C172.143 22.084 172.147 21.98 172.147 21.868C172.155 21.748 172.159 21.612 172.159 21.46C172.159 20.508 171.975 19.664 171.607 18.928C171.247 18.184 170.731 17.6 170.059 17.176C169.387 16.752 168.579 16.54 167.635 16.54C166.715 16.54 165.907 16.76 165.211 17.2C164.515 17.632 163.975 18.232 163.591 19C163.207 19.76 163.015 20.644 163.015 21.652C163.015 22.628 163.203 23.492 163.579 24.244C163.963 24.988 164.507 25.572 165.211 25.996C165.915 26.42 166.751 26.632 167.719 26.632C168.727 26.632 169.599 26.396 170.335 25.924C171.079 25.444 171.631 24.792 171.991 23.968L173.623 24.58C173.151 25.708 172.395 26.6 171.355 27.256C170.323 27.904 169.115 28.228 167.731 28.228ZM162.355 22.18V20.848H173.323L173.827 22.18H162.355ZM180.135 26.512H182.631V28H175.779V26.512H178.407V16.708H175.779V15.22H180.135V26.512ZM185.043 17.056C184.899 17.016 184.743 16.984 184.575 16.96C184.415 16.936 184.239 16.924 184.047 16.924C182.863 16.924 181.915 17.368 181.203 18.256C180.491 19.136 180.135 20.36 180.135 21.928L179.727 19.132H180.219C180.331 18.284 180.563 17.556 180.915 16.948C181.267 16.332 181.723 15.86 182.283 15.532C182.851 15.196 183.515 15.028 184.275 15.028C184.419 15.028 184.547 15.036 184.659 15.052C184.779 15.06 184.907 15.076 185.043 15.1V17.056ZM192.695 28.228C191.367 28.228 190.211 27.948 189.227 27.388C188.251 26.828 187.491 26.056 186.947 25.072C186.411 24.08 186.143 22.94 186.143 21.652C186.143 20.676 186.291 19.784 186.587 18.976C186.883 18.16 187.307 17.456 187.859 16.864C188.411 16.264 189.067 15.804 189.827 15.484C190.587 15.156 191.435 14.992 192.371 14.992C193.275 14.992 194.027 15.14 194.627 15.436C195.235 15.724 195.707 16.124 196.043 16.636C196.379 17.14 196.595 17.72 196.691 18.376H197.111L196.763 20.188C196.659 19.468 196.423 18.836 196.055 18.292C195.687 17.74 195.207 17.312 194.615 17.008C194.023 16.696 193.339 16.54 192.563 16.54C191.635 16.54 190.819 16.76 190.115 17.2C189.419 17.632 188.875 18.232 188.483 19C188.099 19.76 187.907 20.644 187.907 21.652C187.907 22.628 188.103 23.492 188.495 24.244C188.895 24.988 189.451 25.572 190.163 25.996C190.883 26.42 191.731 26.632 192.707 26.632C193.715 26.632 194.583 26.412 195.311 25.972C196.039 25.524 196.571 24.924 196.907 24.172L198.503 24.88C198.047 25.912 197.315 26.728 196.307 27.328C195.307 27.928 194.103 28.228 192.695 28.228ZM196.763 20.188V15.22H198.491V20.188H196.763ZM204.935 26.512H207.395V28H200.615V26.512H203.207V16.708H200.615V15.22H204.935V26.512ZM202.883 9.832H205.091V12.124H202.883V9.832ZM213.101 26.512H215.381V28H208.745V26.512H211.373V16.708H208.745V15.22H213.101V26.512ZM220.469 26.512V19.828C220.469 18.78 220.233 17.956 219.761 17.356C219.289 16.756 218.545 16.456 217.529 16.456C216.705 16.456 215.957 16.66 215.285 17.068C214.613 17.476 214.081 18.068 213.689 18.844C213.297 19.62 213.101 20.56 213.101 21.664L212.705 19.108H213.185C213.337 18.236 213.629 17.496 214.061 16.888C214.493 16.272 215.045 15.804 215.717 15.484C216.397 15.156 217.177 14.992 218.057 14.992C219.449 14.992 220.485 15.396 221.165 16.204C221.853 17.004 222.197 18.136 222.197 19.6V26.512H224.657V28H218.225V26.512H220.469ZM232.118 33.304C230.998 33.304 229.982 33.196 229.07 32.98C228.166 32.772 227.446 32.44 226.91 31.984C226.374 31.528 226.106 30.924 226.106 30.172C226.106 29.42 226.374 28.848 226.91 28.456C227.454 28.072 228.154 27.82 229.01 27.7V27.496L231.146 27.7C230.258 27.7 229.562 27.804 229.058 28.012C228.554 28.228 228.198 28.5 227.99 28.828C227.782 29.164 227.678 29.508 227.678 29.86C227.678 30.404 227.878 30.828 228.278 31.132C228.678 31.436 229.214 31.652 229.886 31.78C230.566 31.908 231.326 31.972 232.166 31.972C233.854 31.972 235.086 31.744 235.862 31.288C236.646 30.84 237.038 30.212 237.038 29.404C237.038 28.268 236.302 27.7 234.83 27.7H229.934C228.974 27.7 228.218 27.528 227.666 27.184C227.122 26.832 226.85 26.328 226.85 25.672C226.85 25.048 227.098 24.572 227.594 24.244C228.09 23.908 228.798 23.704 229.718 23.632V23.272L231.902 23.896H230.594C229.906 23.896 229.382 23.992 229.022 24.184C228.662 24.368 228.482 24.652 228.482 25.036C228.482 25.396 228.646 25.656 228.974 25.816C229.31 25.968 229.814 26.044 230.486 26.044H234.782C235.606 26.044 236.306 26.18 236.882 26.452C237.466 26.716 237.906 27.096 238.202 27.592C238.506 28.088 238.658 28.68 238.658 29.368C238.658 30.104 238.45 30.768 238.034 31.36C237.618 31.96 236.93 32.432 235.97 32.776C235.018 33.128 233.734 33.304 232.118 33.304ZM231.902 23.896C230.886 23.896 229.982 23.712 229.19 23.344C228.398 22.976 227.774 22.46 227.318 21.796C226.862 21.132 226.634 20.352 226.634 19.456C226.634 18.56 226.858 17.78 227.306 17.116C227.762 16.444 228.382 15.924 229.166 15.556C229.958 15.18 230.87 14.992 231.902 14.992C232.95 14.992 233.874 15.188 234.674 15.58C235.482 15.972 236.098 16.516 236.522 17.212C236.73 17.532 236.882 17.88 236.978 18.256C237.082 18.624 237.134 19.024 237.134 19.456C237.134 20.352 236.91 21.132 236.462 21.796C236.014 22.46 235.394 22.976 234.602 23.344C233.818 23.712 232.918 23.896 231.902 23.896ZM231.902 22.48C232.582 22.48 233.186 22.356 233.714 22.108C234.25 21.86 234.67 21.508 234.974 21.052C235.286 20.596 235.442 20.064 235.442 19.456C235.442 18.848 235.286 18.316 234.974 17.86C234.67 17.396 234.25 17.04 233.714 16.792C233.186 16.536 232.582 16.408 231.902 16.408C231.206 16.408 230.59 16.536 230.054 16.792C229.518 17.04 229.094 17.396 228.782 17.86C228.478 18.316 228.326 18.848 228.326 19.456C228.326 20.064 228.478 20.596 228.782 21.052C229.094 21.508 229.518 21.86 230.054 22.108C230.598 22.356 231.214 22.48 231.902 22.48ZM237.134 19.456L236.534 18.052L236.006 17.188L236.486 16.996C236.462 16.916 236.442 16.836 236.426 16.756C236.418 16.668 236.414 16.576 236.414 16.48C236.414 16.144 236.494 15.84 236.654 15.568C236.814 15.296 237.046 15.08 237.35 14.92C237.654 14.76 238.026 14.68 238.466 14.68C238.578 14.68 238.678 14.684 238.766 14.692C238.862 14.7 238.954 14.716 239.042 14.74V16.408C238.89 16.384 238.75 16.368 238.622 16.36C238.494 16.344 238.366 16.336 238.238 16.336C237.902 16.336 237.63 16.384 237.422 16.48C237.222 16.576 237.078 16.7 236.99 16.852C236.902 16.996 236.858 17.156 236.858 17.332C236.858 17.5 236.882 17.684 236.93 17.884C236.978 18.076 237.022 18.3 237.062 18.556C237.11 18.812 237.134 19.112 237.134 19.456ZM246.793 28.228C245.937 28.228 245.213 28.1 244.621 27.844C244.037 27.588 243.573 27.248 243.229 26.824C242.885 26.392 242.661 25.912 242.557 25.384H242.125L242.473 23.968C242.625 24.808 243.041 25.492 243.721 26.02C244.409 26.548 245.301 26.812 246.397 26.812C247.333 26.812 248.057 26.624 248.569 26.248C249.089 25.864 249.349 25.308 249.349 24.58C249.349 23.916 249.093 23.4 248.581 23.032C248.069 22.664 247.173 22.384 245.893 22.192C244.061 21.904 242.757 21.452 241.981 20.836C241.205 20.212 240.817 19.392 240.817 18.376C240.817 17.352 241.173 16.532 241.885 15.916C242.597 15.3 243.589 14.992 244.861 14.992C245.701 14.992 246.393 15.12 246.937 15.376C247.489 15.632 247.913 15.976 248.209 16.408C248.505 16.832 248.697 17.3 248.785 17.812H249.217L248.869 19.168C248.725 18.352 248.333 17.688 247.693 17.176C247.053 16.656 246.217 16.396 245.185 16.396C244.353 16.396 243.701 16.572 243.229 16.924C242.765 17.276 242.533 17.744 242.533 18.328C242.533 18.944 242.825 19.428 243.409 19.78C243.993 20.124 244.913 20.396 246.169 20.596C247.945 20.876 249.205 21.336 249.949 21.976C250.693 22.616 251.065 23.48 251.065 24.568C251.065 25.712 250.697 26.608 249.961 27.256C249.233 27.904 248.177 28.228 246.793 28.228ZM240.745 28V23.968H242.473V28H240.745ZM248.869 19.168V15.22H250.597V19.168H248.869Z" fill="black"/>
<path d="M1 6.35211L6 1V39L1 33.6479V6.35211Z" fill="white"/>
<path d="M6 1L1 6.35211V33.6479L6 39" stroke="black" stroke-linecap="round"/>
<path d="M262 33.6479L257 39L257 1L262 6.35211L262 33.6479Z" fill="white"/>
<path d="M257 39L262 33.6479L262 6.35211L257 1" stroke="black" stroke-linecap="round"/>
</svg>
