<svg width="206" height="40" viewBox="0 0 206 40" fill="none" xmlns="http://www.w3.org/2000/svg">
<path d="M6 1H200V39H6V1Z" fill="white"/>
<path d="M6 1.5H200V0.5H6V1.5ZM200 38.5H6V39.5H200V38.5Z" fill="black"/>
<path d="M16.4472 26.512H19.0752V28H12.0912V26.512H14.7192V10.528H12.0912V9.04H16.4472V26.512ZM24.9184 26.512H27.3784V28H20.5984V26.512H23.1904V16.708H20.5984V15.22H24.9184V26.512ZM22.8664 9.832H25.0744V12.124H22.8664V9.832ZM34.9561 33.304C33.8361 33.304 32.8201 33.196 31.9081 32.98C31.0041 32.772 30.2841 32.44 29.7481 31.984C29.2121 31.528 28.9441 30.924 28.9441 30.172C28.9441 29.42 29.2121 28.848 29.7481 28.456C30.2921 28.072 30.9921 27.82 31.8481 27.7V27.496L33.9841 27.7C33.0961 27.7 32.4001 27.804 31.8961 28.012C31.3921 28.228 31.0361 28.5 30.8281 28.828C30.6201 29.164 30.5161 29.508 30.5161 29.86C30.5161 30.404 30.7161 30.828 31.1161 31.132C31.5161 31.436 32.0521 31.652 32.7241 31.78C33.4041 31.908 34.1641 31.972 35.0041 31.972C36.6921 31.972 37.9241 31.744 38.7001 31.288C39.4841 30.84 39.8761 30.212 39.8761 29.404C39.8761 28.268 39.1401 27.7 37.6681 27.7H32.7721C31.8121 27.7 31.0561 27.528 30.5041 27.184C29.9601 26.832 29.6881 26.328 29.6881 25.672C29.6881 25.048 29.9361 24.572 30.4321 24.244C30.9281 23.908 31.6361 23.704 32.5561 23.632V23.272L34.7401 23.896H33.4321C32.7441 23.896 32.2201 23.992 31.8601 24.184C31.5001 24.368 31.3201 24.652 31.3201 25.036C31.3201 25.396 31.4841 25.656 31.8121 25.816C32.1481 25.968 32.6521 26.044 33.3241 26.044H37.6201C38.4441 26.044 39.1441 26.18 39.7201 26.452C40.3041 26.716 40.7441 27.096 41.0401 27.592C41.3441 28.088 41.4961 28.68 41.4961 29.368C41.4961 30.104 41.2881 30.768 40.8721 31.36C40.4561 31.96 39.7681 32.432 38.8081 32.776C37.8561 33.128 36.5721 33.304 34.9561 33.304ZM34.7401 23.896C33.7241 23.896 32.8201 23.712 32.0281 23.344C31.2361 22.976 30.6121 22.46 30.1561 21.796C29.7001 21.132 29.4721 20.352 29.4721 19.456C29.4721 18.56 29.6961 17.78 30.1441 17.116C30.6001 16.444 31.2201 15.924 32.0041 15.556C32.7961 15.18 33.7081 14.992 34.7401 14.992C35.7881 14.992 36.7121 15.188 37.5121 15.58C38.3201 15.972 38.9361 16.516 39.3601 17.212C39.5681 17.532 39.7201 17.88 39.8161 18.256C39.9201 18.624 39.9721 19.024 39.9721 19.456C39.9721 20.352 39.7481 21.132 39.3001 21.796C38.8521 22.46 38.2321 22.976 37.4401 23.344C36.6561 23.712 35.7561 23.896 34.7401 23.896ZM34.7401 22.48C35.4201 22.48 36.0241 22.356 36.5521 22.108C37.0881 21.86 37.5081 21.508 37.8121 21.052C38.1241 20.596 38.2801 20.064 38.2801 19.456C38.2801 18.848 38.1241 18.316 37.8121 17.86C37.5081 17.396 37.0881 17.04 36.5521 16.792C36.0241 16.536 35.4201 16.408 34.7401 16.408C34.0441 16.408 33.4281 16.536 32.8921 16.792C32.3561 17.04 31.9321 17.396 31.6201 17.86C31.3161 18.316 31.1641 18.848 31.1641 19.456C31.1641 20.064 31.3161 20.596 31.6201 21.052C31.9321 21.508 32.3561 21.86 32.8921 22.108C33.4361 22.356 34.0521 22.48 34.7401 22.48ZM39.9721 19.456L39.3721 18.052L38.8441 17.188L39.3241 16.996C39.3001 16.916 39.2801 16.836 39.2641 16.756C39.2561 16.668 39.2521 16.576 39.2521 16.48C39.2521 16.144 39.3321 15.84 39.4921 15.568C39.6521 15.296 39.8841 15.08 40.1881 14.92C40.4921 14.76 40.8641 14.68 41.3041 14.68C41.4161 14.68 41.5161 14.684 41.6041 14.692C41.7001 14.7 41.7921 14.716 41.8801 14.74V16.408C41.7281 16.384 41.5881 16.368 41.4601 16.36C41.3321 16.344 41.2041 16.336 41.0761 16.336C40.7401 16.336 40.4681 16.384 40.2601 16.48C40.0601 16.576 39.9161 16.7 39.8281 16.852C39.7401 16.996 39.6961 17.156 39.6961 17.332C39.6961 17.5 39.7201 17.684 39.7681 17.884C39.8161 18.076 39.8601 18.3 39.9001 18.556C39.9481 18.812 39.9721 19.112 39.9721 19.456ZM47.2675 26.512H49.5355V28H42.9715V26.512H45.5395V10.528H42.9715V9.04H47.2675V26.512ZM54.6355 26.512V19.792C54.6355 18.752 54.3995 17.936 53.9275 17.344C53.4635 16.752 52.7315 16.456 51.7315 16.456C50.8915 16.456 50.1355 16.672 49.4635 17.104C48.7915 17.528 48.2555 18.148 47.8555 18.964C47.4635 19.772 47.2675 20.748 47.2675 21.892L46.8595 19.336H47.3395C47.4995 18.4 47.7995 17.608 48.2395 16.96C48.6875 16.304 49.2555 15.804 49.9435 15.46C50.6315 15.116 51.4195 14.944 52.3075 14.944C53.6995 14.944 54.7235 15.344 55.3795 16.144C56.0355 16.944 56.3635 18.068 56.3635 19.516V26.512H58.8115V28H52.3795V26.512H54.6355ZM63.4615 24.616C63.4615 25.288 63.5895 25.796 63.8455 26.14C64.1015 26.476 64.4935 26.644 65.0215 26.644C65.5415 26.644 65.9335 26.472 66.1975 26.128C66.4615 25.776 66.5935 25.272 66.5935 24.616V23.428H68.1535V24.604C68.1535 25.372 68.0375 26.028 67.8055 26.572C67.5815 27.108 67.2375 27.52 66.7735 27.808C66.3095 28.088 65.7135 28.228 64.9855 28.228C64.2415 28.228 63.6295 28.084 63.1495 27.796C62.6695 27.5 62.3135 27.084 62.0815 26.548C61.8495 26.012 61.7335 25.368 61.7335 24.616L61.7455 16.708H59.4655V15.22H61.7455V11.98H63.4735V15.22H67.9855L67.9735 16.708H63.4735L63.4615 24.616ZM83.2728 28.228C81.9528 28.228 80.8088 27.948 79.8408 27.388C78.8728 26.828 78.1248 26.056 77.5968 25.072C77.0688 24.08 76.8048 22.94 76.8048 21.652C76.8048 20.348 77.0688 19.196 77.5968 18.196C78.1328 17.196 78.8768 16.412 79.8288 15.844C80.7888 15.276 81.9048 14.992 83.1768 14.992C84.4568 14.992 85.5648 15.272 86.5008 15.832C87.4368 16.392 88.1568 17.168 88.6608 18.16C89.1648 19.152 89.4168 20.296 89.4168 21.592C89.4168 21.744 89.4128 21.864 89.4048 21.952C89.4048 22.04 89.3968 22.116 89.3808 22.18H87.6768C87.6848 22.084 87.6888 21.98 87.6888 21.868C87.6968 21.748 87.7008 21.612 87.7008 21.46C87.7008 20.508 87.5168 19.664 87.1488 18.928C86.7888 18.184 86.2728 17.6 85.6008 17.176C84.9288 16.752 84.1208 16.54 83.1768 16.54C82.2568 16.54 81.4488 16.76 80.7528 17.2C80.0568 17.632 79.5168 18.232 79.1328 19C78.7488 19.76 78.5568 20.644 78.5568 21.652C78.5568 22.628 78.7448 23.492 79.1208 24.244C79.5048 24.988 80.0488 25.572 80.7528 25.996C81.4568 26.42 82.2928 26.632 83.2608 26.632C84.2688 26.632 85.1408 26.396 85.8768 25.924C86.6208 25.444 87.1728 24.792 87.5328 23.968L89.1648 24.58C88.6928 25.708 87.9368 26.6 86.8968 27.256C85.8648 27.904 84.6568 28.228 83.2728 28.228ZM77.8968 22.18V20.848H88.8648L89.3688 22.18H77.8968ZM98.404 15.22H104.356V16.708H102.76L97.48 29.704C97.048 30.776 96.38 31.6 95.476 32.176C94.58 32.752 93.464 33.04 92.128 33.04H90.868V31.516H92.128C93.024 31.516 93.804 31.328 94.468 30.952C95.14 30.584 95.628 30.04 95.932 29.32L96.844 27.076L96.544 28.564L91.66 16.708H89.896V15.22H95.968V16.708H93.544L97.852 27.472L96.28 26.08H97.936L97.036 26.896L101.032 16.708H98.404V15.22ZM111.446 28.228C110.126 28.228 108.982 27.948 108.014 27.388C107.046 26.828 106.298 26.056 105.77 25.072C105.242 24.08 104.978 22.94 104.978 21.652C104.978 20.348 105.242 19.196 105.77 18.196C106.306 17.196 107.05 16.412 108.002 15.844C108.962 15.276 110.078 14.992 111.35 14.992C112.63 14.992 113.738 15.272 114.674 15.832C115.61 16.392 116.33 17.168 116.834 18.16C117.338 19.152 117.59 20.296 117.59 21.592C117.59 21.744 117.586 21.864 117.578 21.952C117.578 22.04 117.57 22.116 117.554 22.18H115.85C115.858 22.084 115.862 21.98 115.862 21.868C115.87 21.748 115.874 21.612 115.874 21.46C115.874 20.508 115.69 19.664 115.322 18.928C114.962 18.184 114.446 17.6 113.774 17.176C113.102 16.752 112.294 16.54 111.35 16.54C110.43 16.54 109.622 16.76 108.926 17.2C108.23 17.632 107.69 18.232 107.306 19C106.922 19.76 106.73 20.644 106.73 21.652C106.73 22.628 106.918 23.492 107.294 24.244C107.678 24.988 108.222 25.572 108.926 25.996C109.63 26.42 110.466 26.632 111.434 26.632C112.442 26.632 113.314 26.396 114.05 25.924C114.794 25.444 115.346 24.792 115.706 23.968L117.338 24.58C116.866 25.708 116.11 26.6 115.07 27.256C114.038 27.904 112.83 28.228 111.446 28.228ZM106.07 22.18V20.848H117.038L117.542 22.18H106.07ZM120.885 28.264V10.528H118.317V9.04H122.613V19.696L122.541 21.196V22.792L122.613 25.12L121.041 28.264H120.885ZM127.353 28.24C126.281 28.24 125.321 28.04 124.473 27.64C123.633 27.232 122.937 26.656 122.385 25.912C121.841 25.16 121.477 24.268 121.293 23.236L122.541 21.616C122.541 22.6 122.729 23.472 123.105 24.232C123.481 24.992 124.021 25.592 124.725 26.032C125.429 26.464 126.265 26.68 127.233 26.68C128.217 26.68 129.057 26.468 129.753 26.044C130.457 25.62 130.993 25.028 131.361 24.268C131.737 23.5 131.925 22.608 131.925 21.592C131.925 20.6 131.725 19.724 131.325 18.964C130.933 18.204 130.385 17.608 129.681 17.176C128.977 16.744 128.161 16.528 127.233 16.528C126.281 16.528 125.453 16.744 124.749 17.176C124.045 17.608 123.501 18.204 123.117 18.964C122.733 19.724 122.541 20.608 122.541 21.616L122.265 18.916H122.673C122.825 18.212 123.105 17.564 123.513 16.972C123.929 16.372 124.477 15.892 125.157 15.532C125.845 15.164 126.665 14.98 127.617 14.98C128.505 14.98 129.321 15.144 130.065 15.472C130.809 15.792 131.453 16.252 131.997 16.852C132.541 17.444 132.961 18.148 133.257 18.964C133.553 19.772 133.701 20.66 133.701 21.628C133.701 22.916 133.437 24.06 132.909 25.06C132.389 26.052 131.653 26.832 130.701 27.4C129.749 27.96 128.633 28.24 127.353 28.24ZM140.057 26.512H142.553V28H135.701V26.512H138.329V16.708H135.701V15.22H140.057V26.512ZM144.965 17.056C144.821 17.016 144.665 16.984 144.497 16.96C144.337 16.936 144.161 16.924 143.969 16.924C142.785 16.924 141.837 17.368 141.125 18.256C140.413 19.136 140.057 20.36 140.057 21.928L139.649 19.132H140.141C140.253 18.284 140.485 17.556 140.837 16.948C141.189 16.332 141.645 15.86 142.205 15.532C142.773 15.196 143.437 15.028 144.197 15.028C144.341 15.028 144.469 15.036 144.581 15.052C144.701 15.06 144.829 15.076 144.965 15.1V17.056ZM152.677 28.228C151.349 28.228 150.185 27.948 149.185 27.388C148.185 26.82 147.405 26.044 146.845 25.06C146.285 24.076 146.005 22.94 146.005 21.652C146.005 20.356 146.285 19.208 146.845 18.208C147.405 17.2 148.185 16.412 149.185 15.844C150.185 15.276 151.349 14.992 152.677 14.992C154.005 14.992 155.169 15.276 156.169 15.844C157.169 16.412 157.949 17.2 158.509 18.208C159.069 19.208 159.349 20.356 159.349 21.652C159.349 22.94 159.069 24.076 158.509 25.06C157.949 26.044 157.169 26.82 156.169 27.388C155.169 27.948 154.005 28.228 152.677 28.228ZM152.677 26.632C153.637 26.632 154.481 26.424 155.209 26.008C155.945 25.592 156.517 25.012 156.925 24.268C157.341 23.516 157.549 22.644 157.549 21.652C157.549 20.652 157.341 19.772 156.925 19.012C156.517 18.252 155.945 17.66 155.209 17.236C154.481 16.804 153.637 16.588 152.677 16.588C151.717 16.588 150.869 16.804 150.133 17.236C149.405 17.66 148.833 18.252 148.417 19.012C148.009 19.772 147.805 20.652 147.805 21.652C147.805 22.644 148.009 23.516 148.417 24.268C148.833 25.012 149.405 25.592 150.133 26.008C150.869 26.424 151.717 26.632 152.677 26.632ZM176.356 15.22H182.152V16.708H180.592L176.596 28H174.592L170.548 16.672L171.916 18.412H170.284L171.652 16.672L167.848 28H165.832L161.632 16.708H160.06V15.22H165.94V16.708H163.48L167.404 28L165.964 26.332H167.632L166.324 28L170.236 16.708H168.232V15.22H174.16V16.708H172.204L176.272 28L174.808 26.332H176.452L175.216 28L178.936 16.708H176.356V15.22ZM189.652 28.228C188.796 28.228 188.072 28.1 187.48 27.844C186.896 27.588 186.432 27.248 186.088 26.824C185.744 26.392 185.52 25.912 185.416 25.384H184.984L185.332 23.968C185.484 24.808 185.9 25.492 186.58 26.02C187.268 26.548 188.16 26.812 189.256 26.812C190.192 26.812 190.916 26.624 191.428 26.248C191.948 25.864 192.208 25.308 192.208 24.58C192.208 23.916 191.952 23.4 191.44 23.032C190.928 22.664 190.032 22.384 188.752 22.192C186.92 21.904 185.616 21.452 184.84 20.836C184.064 20.212 183.676 19.392 183.676 18.376C183.676 17.352 184.032 16.532 184.744 15.916C185.456 15.3 186.448 14.992 187.72 14.992C188.56 14.992 189.252 15.12 189.796 15.376C190.348 15.632 190.772 15.976 191.068 16.408C191.364 16.832 191.556 17.3 191.644 17.812H192.076L191.728 19.168C191.584 18.352 191.192 17.688 190.552 17.176C189.912 16.656 189.076 16.396 188.044 16.396C187.212 16.396 186.56 16.572 186.088 16.924C185.624 17.276 185.392 17.744 185.392 18.328C185.392 18.944 185.684 19.428 186.268 19.78C186.852 20.124 187.772 20.396 189.028 20.596C190.804 20.876 192.064 21.336 192.808 21.976C193.552 22.616 193.924 23.48 193.924 24.568C193.924 25.712 193.556 26.608 192.82 27.256C192.092 27.904 191.036 28.228 189.652 28.228ZM183.604 28V23.968H185.332V28H183.604ZM191.728 19.168V15.22H193.456V19.168H191.728Z" fill="black"/>
<path d="M1 6.35211L6 1V39L1 33.6479V6.35211Z" fill="white"/>
<path d="M6 1L1 6.35211V33.6479L6 39" stroke="black" stroke-linecap="round"/>
<path d="M205 33.6479L200 39L200 1L205 6.35211L205 33.6479Z" fill="white"/>
<path d="M200 39L205 33.6479L205 6.35211L200 1" stroke="black" stroke-linecap="round"/>
</svg>
