<svg width="286" height="40" viewBox="0 0 286 40" fill="none" xmlns="http://www.w3.org/2000/svg">
<path d="M6 1H280V39H6V1Z" fill="white"/>
<path d="M6 1.5H280V0.5H6V1.5ZM280 38.5H6V39.5H280V38.5Z" fill="black"/>
<path d="M18.5366 28.228C17.6806 28.228 16.9566 28.1 16.3646 27.844C15.7806 27.588 15.3166 27.248 14.9726 26.824C14.6286 26.392 14.4046 25.912 14.3006 25.384H13.8686L14.2166 23.968C14.3686 24.808 14.7846 25.492 15.4646 26.02C16.1526 26.548 17.0446 26.812 18.1407 26.812C19.0766 26.812 19.8006 26.624 20.3126 26.248C20.8326 25.864 21.0926 25.308 21.0926 24.58C21.0926 23.916 20.8366 23.4 20.3246 23.032C19.8126 22.664 18.9166 22.384 17.6367 22.192C15.8046 21.904 14.5006 21.452 13.7246 20.836C12.9486 20.212 12.5606 19.392 12.5606 18.376C12.5606 17.352 12.9166 16.532 13.6286 15.916C14.3406 15.3 15.3326 14.992 16.6046 14.992C17.4446 14.992 18.1367 15.12 18.6807 15.376C19.2326 15.632 19.6566 15.976 19.9527 16.408C20.2487 16.832 20.4407 17.3 20.5287 17.812H20.9607L20.6126 19.168C20.4687 18.352 20.0767 17.688 19.4366 17.176C18.7966 16.656 17.9606 16.396 16.9286 16.396C16.0966 16.396 15.4446 16.572 14.9726 16.924C14.5086 17.276 14.2766 17.744 14.2766 18.328C14.2766 18.944 14.5686 19.428 15.1526 19.78C15.7366 20.124 16.6566 20.396 17.9127 20.596C19.6887 20.876 20.9487 21.336 21.6927 21.976C22.4367 22.616 22.8087 23.48 22.8087 24.568C22.8087 25.712 22.4406 26.608 21.7046 27.256C20.9766 27.904 19.9206 28.228 18.5366 28.228ZM12.4886 28V23.968H14.2166V28H12.4886ZM20.6126 19.168V15.22H22.3407V19.168H20.6126ZM42.5097 28V26.512H44.7657V19.804C44.7657 18.756 44.5337 17.936 44.0697 17.344C43.6057 16.752 42.8817 16.456 41.8977 16.456C41.1057 16.456 40.4017 16.664 39.7857 17.08C39.1697 17.496 38.6857 18.092 38.3337 18.868C37.9817 19.644 37.8057 20.576 37.8057 21.664L37.3857 19.096H37.8777C38.0777 17.704 38.5937 16.664 39.4257 15.976C40.2657 15.288 41.2857 14.944 42.4857 14.944C43.8377 14.944 44.8417 15.344 45.4977 16.144C46.1617 16.944 46.4937 18.072 46.4937 19.528V26.512H48.9417V28H42.5097ZM24.8217 28V26.512H27.3777V16.708H24.8217V15.22H29.1057V26.512H31.3737V28H24.8217ZM33.8217 28V26.512H36.0777V19.804C36.0777 18.756 35.8457 17.936 35.3817 17.344C34.9177 16.752 34.1937 16.456 33.2097 16.456C32.4177 16.456 31.7137 16.664 31.0977 17.08C30.4817 17.496 29.9937 18.092 29.6337 18.868C29.2817 19.644 29.1057 20.576 29.1057 21.664L28.6977 19.096H29.1897C29.3817 17.704 29.8977 16.664 30.7377 15.976C31.5777 15.288 32.5977 14.944 33.7977 14.944C35.1497 14.944 36.1537 15.344 36.8097 16.144C37.4737 16.944 37.8057 18.072 37.8057 19.528V26.512H40.2537V28H33.8217ZM60.5498 28C60.2218 28 59.9698 27.896 59.7938 27.688C59.6258 27.48 59.5418 27.188 59.5418 26.812V22.972L59.6978 22.576L59.6138 21.124L59.5418 20.368V19.396C59.5418 18.74 59.4058 18.204 59.1338 17.788C58.8698 17.372 58.4858 17.064 57.9818 16.864C57.4778 16.664 56.8698 16.564 56.1578 16.564C55.0938 16.564 54.2698 16.776 53.6858 17.2C53.1098 17.616 52.7258 18.244 52.5338 19.084L50.8778 18.736C51.0378 17.896 51.3378 17.2 51.7778 16.648C52.2178 16.088 52.8018 15.672 53.5298 15.4C54.2658 15.12 55.1618 14.98 56.2178 14.98C57.3218 14.98 58.2458 15.136 58.9898 15.448C59.7418 15.752 60.3098 16.22 60.6938 16.852C61.0778 17.484 61.2698 18.3 61.2698 19.3V26.512H63.1538V28H60.5498ZM54.5258 28.168C53.1978 28.168 52.1898 27.876 51.5018 27.292C50.8138 26.7 50.4698 25.832 50.4698 24.688C50.4698 23.632 50.7738 22.828 51.3818 22.276C51.9898 21.716 52.9658 21.296 54.3098 21.016L60.0578 19.792V21.028L54.5978 22.264C53.8138 22.448 53.2258 22.72 52.8338 23.08C52.4498 23.432 52.2578 23.932 52.2578 24.58C52.2578 25.284 52.4738 25.812 52.9058 26.164C53.3378 26.508 53.9698 26.68 54.8018 26.68C55.7218 26.68 56.5458 26.468 57.2738 26.044C58.0018 25.62 58.5738 24.996 58.9898 24.172C59.4058 23.348 59.6138 22.332 59.6138 21.124L60.0698 23.956H59.4578C59.2578 25.292 58.7378 26.328 57.8978 27.064C57.0658 27.8 55.9418 28.168 54.5258 28.168ZM68.6989 26.512H71.3269V28H64.3429V26.512H66.9709V10.528H64.3429V9.04H68.6989V26.512ZM76.7502 26.512H79.3782V28H72.3942V26.512H75.0222V10.528H72.3942V9.04H76.7502V26.512ZM93.9145 28.228C93.0585 28.228 92.3345 28.1 91.7425 27.844C91.1585 27.588 90.6945 27.248 90.3505 26.824C90.0065 26.392 89.7825 25.912 89.6785 25.384H89.2465L89.5945 23.968C89.7465 24.808 90.1625 25.492 90.8425 26.02C91.5305 26.548 92.4225 26.812 93.5185 26.812C94.4545 26.812 95.1785 26.624 95.6905 26.248C96.2105 25.864 96.4705 25.308 96.4705 24.58C96.4705 23.916 96.2145 23.4 95.7025 23.032C95.1905 22.664 94.2945 22.384 93.0145 22.192C91.1825 21.904 89.8785 21.452 89.1025 20.836C88.3265 20.212 87.9385 19.392 87.9385 18.376C87.9385 17.352 88.2945 16.532 89.0065 15.916C89.7185 15.3 90.7105 14.992 91.9825 14.992C92.8225 14.992 93.5145 15.12 94.0585 15.376C94.6105 15.632 95.0345 15.976 95.3305 16.408C95.6265 16.832 95.8185 17.3 95.9065 17.812H96.3385L95.9905 19.168C95.8465 18.352 95.4545 17.688 94.8145 17.176C94.1745 16.656 93.3385 16.396 92.3065 16.396C91.4745 16.396 90.8225 16.572 90.3505 16.924C89.8865 17.276 89.6545 17.744 89.6545 18.328C89.6545 18.944 89.9465 19.428 90.5305 19.78C91.1145 20.124 92.0345 20.396 93.2905 20.596C95.0665 20.876 96.3265 21.336 97.0705 21.976C97.8145 22.616 98.1865 23.48 98.1865 24.568C98.1865 25.712 97.8185 26.608 97.0825 27.256C96.3545 27.904 95.2985 28.228 93.9145 28.228ZM87.8665 28V23.968H89.5945V28H87.8665ZM95.9905 19.168V15.22H97.7185V19.168H95.9905ZM104.675 26.512H107.135V28H100.355V26.512H102.947V16.708H100.355V15.22H104.675V26.512ZM102.623 9.832H104.831V12.124H102.623V9.832ZM112.775 26.512H115.403V28H108.419V26.512H111.047V10.528H108.419V9.04H112.775V26.512ZM124.033 15.22H129.697V16.708H128.257L123.553 28H121.681L116.821 16.708H115.393V15.22H121.189V16.708H118.693L123.409 28L121.789 26.188H123.433L122.029 28L126.529 16.708H124.033V15.22ZM136.779 28.228C135.459 28.228 134.315 27.948 133.347 27.388C132.379 26.828 131.631 26.056 131.103 25.072C130.575 24.08 130.311 22.94 130.311 21.652C130.311 20.348 130.575 19.196 131.103 18.196C131.639 17.196 132.383 16.412 133.335 15.844C134.295 15.276 135.411 14.992 136.683 14.992C137.963 14.992 139.071 15.272 140.007 15.832C140.943 16.392 141.663 17.168 142.167 18.16C142.671 19.152 142.923 20.296 142.923 21.592C142.923 21.744 142.919 21.864 142.911 21.952C142.911 22.04 142.903 22.116 142.887 22.18H141.183C141.191 22.084 141.195 21.98 141.195 21.868C141.203 21.748 141.207 21.612 141.207 21.46C141.207 20.508 141.023 19.664 140.655 18.928C140.295 18.184 139.779 17.6 139.107 17.176C138.435 16.752 137.627 16.54 136.683 16.54C135.763 16.54 134.955 16.76 134.259 17.2C133.563 17.632 133.023 18.232 132.639 19C132.255 19.76 132.063 20.644 132.063 21.652C132.063 22.628 132.251 23.492 132.627 24.244C133.011 24.988 133.555 25.572 134.259 25.996C134.963 26.42 135.799 26.632 136.767 26.632C137.775 26.632 138.647 26.396 139.383 25.924C140.127 25.444 140.679 24.792 141.039 23.968L142.671 24.58C142.199 25.708 141.443 26.6 140.403 27.256C139.371 27.904 138.163 28.228 136.779 28.228ZM131.403 22.18V20.848H142.371L142.875 22.18H131.403ZM149.182 26.512H151.678V28H144.826V26.512H147.454V16.708H144.826V15.22H149.182V26.512ZM154.09 17.056C153.946 17.016 153.79 16.984 153.622 16.96C153.462 16.936 153.286 16.924 153.094 16.924C151.91 16.924 150.962 17.368 150.25 18.256C149.538 19.136 149.182 20.36 149.182 21.928L148.774 19.132H149.266C149.378 18.284 149.61 17.556 149.962 16.948C150.314 16.332 150.77 15.86 151.33 15.532C151.898 15.196 152.562 15.028 153.322 15.028C153.466 15.028 153.594 15.036 153.706 15.052C153.826 15.06 153.954 15.076 154.09 15.1V17.056ZM165.965 26.512H168.245V28H161.609V26.512H164.237V16.708H161.609V15.22H165.965V26.512ZM173.333 26.512V19.828C173.333 18.78 173.097 17.956 172.625 17.356C172.153 16.756 171.409 16.456 170.393 16.456C169.569 16.456 168.821 16.66 168.149 17.068C167.477 17.476 166.945 18.068 166.553 18.844C166.161 19.62 165.965 20.56 165.965 21.664L165.569 19.108H166.049C166.201 18.236 166.493 17.496 166.925 16.888C167.357 16.272 167.909 15.804 168.581 15.484C169.261 15.156 170.041 14.992 170.921 14.992C172.313 14.992 173.349 15.396 174.029 16.204C174.717 17.004 175.061 18.136 175.061 19.6V26.512H177.521V28H171.089V26.512H173.333ZM185.343 28.228C184.023 28.228 182.879 27.948 181.911 27.388C180.943 26.828 180.195 26.056 179.667 25.072C179.139 24.08 178.875 22.94 178.875 21.652C178.875 20.348 179.139 19.196 179.667 18.196C180.203 17.196 180.947 16.412 181.899 15.844C182.859 15.276 183.975 14.992 185.247 14.992C186.527 14.992 187.635 15.272 188.571 15.832C189.507 16.392 190.227 17.168 190.731 18.16C191.235 19.152 191.487 20.296 191.487 21.592C191.487 21.744 191.483 21.864 191.475 21.952C191.475 22.04 191.467 22.116 191.451 22.18H189.747C189.755 22.084 189.759 21.98 189.759 21.868C189.767 21.748 189.771 21.612 189.771 21.46C189.771 20.508 189.587 19.664 189.219 18.928C188.859 18.184 188.343 17.6 187.671 17.176C186.999 16.752 186.191 16.54 185.247 16.54C184.327 16.54 183.519 16.76 182.823 17.2C182.127 17.632 181.587 18.232 181.203 19C180.819 19.76 180.627 20.644 180.627 21.652C180.627 22.628 180.815 23.492 181.191 24.244C181.575 24.988 182.119 25.572 182.823 25.996C183.527 26.42 184.363 26.632 185.331 26.632C186.339 26.632 187.211 26.396 187.947 25.924C188.691 25.444 189.243 24.792 189.603 23.968L191.235 24.58C190.763 25.708 190.007 26.6 188.967 27.256C187.935 27.904 186.727 28.228 185.343 28.228ZM179.967 22.18V20.848H190.935L191.439 22.18H179.967ZM200.147 28.228C198.819 28.228 197.663 27.948 196.679 27.388C195.703 26.828 194.943 26.056 194.399 25.072C193.863 24.08 193.595 22.94 193.595 21.652C193.595 20.676 193.743 19.784 194.039 18.976C194.335 18.16 194.759 17.456 195.311 16.864C195.863 16.264 196.519 15.804 197.279 15.484C198.039 15.156 198.887 14.992 199.823 14.992C200.727 14.992 201.479 15.14 202.079 15.436C202.687 15.724 203.159 16.124 203.495 16.636C203.831 17.14 204.047 17.72 204.143 18.376H204.563L204.215 20.188C204.111 19.468 203.875 18.836 203.507 18.292C203.139 17.74 202.659 17.312 202.067 17.008C201.475 16.696 200.791 16.54 200.015 16.54C199.087 16.54 198.271 16.76 197.567 17.2C196.871 17.632 196.327 18.232 195.935 19C195.551 19.76 195.359 20.644 195.359 21.652C195.359 22.628 195.555 23.492 195.947 24.244C196.347 24.988 196.903 25.572 197.615 25.996C198.335 26.42 199.183 26.632 200.159 26.632C201.167 26.632 202.035 26.412 202.763 25.972C203.491 25.524 204.023 24.924 204.359 24.172L205.955 24.88C205.499 25.912 204.767 26.728 203.759 27.328C202.759 27.928 201.555 28.228 200.147 28.228ZM204.215 20.188V15.22H205.943V20.188H204.215ZM211.907 26.512H214.175V28H207.611V26.512H210.179V10.528H207.611V9.04H211.907V26.512ZM216.371 19.9L221.447 26.512H223.115V28H216.539V26.512H219.311L215.147 20.944L216.371 19.9ZM211.391 24.556L211.031 23.176L218.867 16.708H214.967V15.22H222.911V16.708H221.111L211.391 24.556ZM228.526 26.512H231.154V28H224.17V26.512H226.798V10.528H224.17V9.04H228.526V26.512ZM242.901 28C242.573 28 242.321 27.896 242.145 27.688C241.977 27.48 241.893 27.188 241.893 26.812V22.972L242.049 22.576L241.965 21.124L241.893 20.368V19.396C241.893 18.74 241.757 18.204 241.485 17.788C241.221 17.372 240.837 17.064 240.333 16.864C239.829 16.664 239.221 16.564 238.509 16.564C237.445 16.564 236.621 16.776 236.037 17.2C235.461 17.616 235.077 18.244 234.885 19.084L233.229 18.736C233.389 17.896 233.689 17.2 234.129 16.648C234.569 16.088 235.153 15.672 235.881 15.4C236.617 15.12 237.513 14.98 238.569 14.98C239.673 14.98 240.597 15.136 241.341 15.448C242.093 15.752 242.661 16.22 243.045 16.852C243.429 17.484 243.621 18.3 243.621 19.3V26.512H245.505V28H242.901ZM236.877 28.168C235.549 28.168 234.541 27.876 233.853 27.292C233.165 26.7 232.821 25.832 232.821 24.688C232.821 23.632 233.125 22.828 233.733 22.276C234.341 21.716 235.317 21.296 236.661 21.016L242.409 19.792V21.028L236.949 22.264C236.165 22.448 235.577 22.72 235.185 23.08C234.801 23.432 234.609 23.932 234.609 24.58C234.609 25.284 234.825 25.812 235.257 26.164C235.689 26.508 236.321 26.68 237.153 26.68C238.073 26.68 238.897 26.468 239.625 26.044C240.353 25.62 240.925 24.996 241.341 24.172C241.757 23.348 241.965 22.332 241.965 21.124L242.421 23.956H241.809C241.609 25.292 241.089 26.328 240.249 27.064C239.417 27.8 238.293 28.168 236.877 28.168ZM253.68 28.228C252.352 28.228 251.196 27.948 250.212 27.388C249.236 26.828 248.476 26.056 247.932 25.072C247.396 24.08 247.128 22.94 247.128 21.652C247.128 20.676 247.276 19.784 247.572 18.976C247.868 18.16 248.292 17.456 248.844 16.864C249.396 16.264 250.052 15.804 250.812 15.484C251.572 15.156 252.42 14.992 253.356 14.992C254.26 14.992 255.012 15.14 255.612 15.436C256.22 15.724 256.692 16.124 257.028 16.636C257.364 17.14 257.58 17.72 257.676 18.376H258.096L257.748 20.188C257.644 19.468 257.408 18.836 257.04 18.292C256.672 17.74 256.192 17.312 255.6 17.008C255.008 16.696 254.324 16.54 253.548 16.54C252.62 16.54 251.804 16.76 251.1 17.2C250.404 17.632 249.86 18.232 249.468 19C249.084 19.76 248.892 20.644 248.892 21.652C248.892 22.628 249.088 23.492 249.48 24.244C249.88 24.988 250.436 25.572 251.148 25.996C251.868 26.42 252.716 26.632 253.692 26.632C254.7 26.632 255.568 26.412 256.296 25.972C257.024 25.524 257.556 24.924 257.892 24.172L259.488 24.88C259.032 25.912 258.3 26.728 257.292 27.328C256.292 27.928 255.088 28.228 253.68 28.228ZM257.748 20.188V15.22H259.476V20.188H257.748ZM268.104 28.228C266.784 28.228 265.64 27.948 264.672 27.388C263.704 26.828 262.956 26.056 262.428 25.072C261.9 24.08 261.636 22.94 261.636 21.652C261.636 20.348 261.9 19.196 262.428 18.196C262.964 17.196 263.708 16.412 264.66 15.844C265.62 15.276 266.736 14.992 268.008 14.992C269.288 14.992 270.396 15.272 271.332 15.832C272.268 16.392 272.988 17.168 273.492 18.16C273.996 19.152 274.248 20.296 274.248 21.592C274.248 21.744 274.244 21.864 274.236 21.952C274.236 22.04 274.228 22.116 274.212 22.18H272.508C272.516 22.084 272.52 21.98 272.52 21.868C272.528 21.748 272.532 21.612 272.532 21.46C272.532 20.508 272.348 19.664 271.98 18.928C271.62 18.184 271.104 17.6 270.432 17.176C269.76 16.752 268.952 16.54 268.008 16.54C267.088 16.54 266.28 16.76 265.584 17.2C264.888 17.632 264.348 18.232 263.964 19C263.58 19.76 263.388 20.644 263.388 21.652C263.388 22.628 263.576 23.492 263.952 24.244C264.336 24.988 264.88 25.572 265.584 25.996C266.288 26.42 267.124 26.632 268.092 26.632C269.1 26.632 269.972 26.396 270.708 25.924C271.452 25.444 272.004 24.792 272.364 23.968L273.996 24.58C273.524 25.708 272.768 26.6 271.728 27.256C270.696 27.904 269.488 28.228 268.104 28.228ZM262.728 22.18V20.848H273.696L274.2 22.18H262.728Z" fill="black"/>
<path d="M1 6.35211L6 1V39L1 33.6479V6.35211Z" fill="white"/>
<path d="M6 1L1 6.35211V33.6479L6 39" stroke="black" stroke-linecap="round"/>
<path d="M285 33.6479L280 39L280 1L285 6.35211L285 33.6479Z" fill="white"/>
<path d="M280 39L285 33.6479L285 6.35211L280 1" stroke="black" stroke-linecap="round"/>
</svg>
