<svg width="147" height="40" viewBox="0 0 147 40" fill="none" xmlns="http://www.w3.org/2000/svg">
<path d="M6 1H141V39H6V1Z" fill="white"/>
<path d="M6 1.5H141V0.5H6V1.5ZM141 38.5H6V39.5H141V38.5Z" fill="black"/>
<path d="M19.0814 28.228C17.7534 28.228 16.5894 27.948 15.5894 27.388C14.5894 26.82 13.8094 26.044 13.2494 25.06C12.6894 24.076 12.4094 22.94 12.4094 21.652C12.4094 20.356 12.6894 19.208 13.2494 18.208C13.8094 17.2 14.5894 16.412 15.5894 15.844C16.5894 15.276 17.7534 14.992 19.0814 14.992C20.4094 14.992 21.5734 15.276 22.5734 15.844C23.5734 16.412 24.3534 17.2 24.9134 18.208C25.4734 19.208 25.7534 20.356 25.7534 21.652C25.7534 22.94 25.4734 24.076 24.9134 25.06C24.3534 26.044 23.5734 26.82 22.5734 27.388C21.5734 27.948 20.4094 28.228 19.0814 28.228ZM19.0814 26.632C20.0414 26.632 20.8854 26.424 21.6134 26.008C22.3494 25.592 22.9214 25.012 23.3294 24.268C23.7454 23.516 23.9534 22.644 23.9534 21.652C23.9534 20.652 23.7454 19.772 23.3294 19.012C22.9214 18.252 22.3494 17.66 21.6134 17.236C20.8854 16.804 20.0414 16.588 19.0814 16.588C18.1214 16.588 17.2734 16.804 16.5374 17.236C15.8094 17.66 15.2374 18.252 14.8214 19.012C14.4134 19.772 14.2094 20.652 14.2094 21.652C14.2094 22.644 14.4134 23.516 14.8214 24.268C15.2374 25.012 15.8094 25.592 16.5374 26.008C17.2734 26.424 18.1214 26.632 19.0814 26.632ZM32.1023 26.512H34.5983V28H27.7463V26.512H30.3743V16.708H27.7463V15.22H32.1023V26.512ZM37.0103 17.056C36.8663 17.016 36.7103 16.984 36.5423 16.96C36.3823 16.936 36.2063 16.924 36.0143 16.924C34.8303 16.924 33.8823 17.368 33.1703 18.256C32.4583 19.136 32.1023 20.36 32.1023 21.928L31.6943 19.132H32.1863C32.2983 18.284 32.5303 17.556 32.8823 16.948C33.2343 16.332 33.6903 15.86 34.2503 15.532C34.8183 15.196 35.4823 15.028 36.2423 15.028C36.3863 15.028 36.5143 15.036 36.6263 15.052C36.7463 15.06 36.8743 15.076 37.0103 15.1V17.056ZM44.4162 33.304C43.2962 33.304 42.2802 33.196 41.3682 32.98C40.4642 32.772 39.7442 32.44 39.2082 31.984C38.6722 31.528 38.4042 30.924 38.4042 30.172C38.4042 29.42 38.6722 28.848 39.2082 28.456C39.7522 28.072 40.4522 27.82 41.3082 27.7V27.496L43.4442 27.7C42.5562 27.7 41.8602 27.804 41.3562 28.012C40.8522 28.228 40.4962 28.5 40.2882 28.828C40.0802 29.164 39.9762 29.508 39.9762 29.86C39.9762 30.404 40.1762 30.828 40.5762 31.132C40.9762 31.436 41.5122 31.652 42.1842 31.78C42.8642 31.908 43.6242 31.972 44.4642 31.972C46.1522 31.972 47.3842 31.744 48.1602 31.288C48.9442 30.84 49.3362 30.212 49.3362 29.404C49.3362 28.268 48.6002 27.7 47.1282 27.7H42.2322C41.2722 27.7 40.5162 27.528 39.9642 27.184C39.4202 26.832 39.1482 26.328 39.1482 25.672C39.1482 25.048 39.3962 24.572 39.8922 24.244C40.3882 23.908 41.0962 23.704 42.0162 23.632V23.272L44.2002 23.896H42.8922C42.2042 23.896 41.6802 23.992 41.3202 24.184C40.9602 24.368 40.7802 24.652 40.7802 25.036C40.7802 25.396 40.9442 25.656 41.2722 25.816C41.6082 25.968 42.1122 26.044 42.7842 26.044H47.0802C47.9042 26.044 48.6042 26.18 49.1802 26.452C49.7642 26.716 50.2042 27.096 50.5002 27.592C50.8042 28.088 50.9562 28.68 50.9562 29.368C50.9562 30.104 50.7482 30.768 50.3322 31.36C49.9162 31.96 49.2282 32.432 48.2682 32.776C47.3162 33.128 46.0322 33.304 44.4162 33.304ZM44.2002 23.896C43.1842 23.896 42.2802 23.712 41.4882 23.344C40.6962 22.976 40.0722 22.46 39.6162 21.796C39.1602 21.132 38.9322 20.352 38.9322 19.456C38.9322 18.56 39.1562 17.78 39.6042 17.116C40.0602 16.444 40.6802 15.924 41.4642 15.556C42.2562 15.18 43.1682 14.992 44.2002 14.992C45.2482 14.992 46.1722 15.188 46.9722 15.58C47.7802 15.972 48.3962 16.516 48.8202 17.212C49.0282 17.532 49.1802 17.88 49.2762 18.256C49.3802 18.624 49.4322 19.024 49.4322 19.456C49.4322 20.352 49.2082 21.132 48.7602 21.796C48.3122 22.46 47.6922 22.976 46.9002 23.344C46.1162 23.712 45.2162 23.896 44.2002 23.896ZM44.2002 22.48C44.8802 22.48 45.4842 22.356 46.0122 22.108C46.5482 21.86 46.9682 21.508 47.2722 21.052C47.5842 20.596 47.7402 20.064 47.7402 19.456C47.7402 18.848 47.5842 18.316 47.2722 17.86C46.9682 17.396 46.5482 17.04 46.0122 16.792C45.4842 16.536 44.8802 16.408 44.2002 16.408C43.5042 16.408 42.8882 16.536 42.3522 16.792C41.8162 17.04 41.3922 17.396 41.0802 17.86C40.7762 18.316 40.6242 18.848 40.6242 19.456C40.6242 20.064 40.7762 20.596 41.0802 21.052C41.3922 21.508 41.8162 21.86 42.3522 22.108C42.8962 22.356 43.5122 22.48 44.2002 22.48ZM49.4322 19.456L48.8322 18.052L48.3042 17.188L48.7842 16.996C48.7602 16.916 48.7402 16.836 48.7242 16.756C48.7162 16.668 48.7122 16.576 48.7122 16.48C48.7122 16.144 48.7922 15.84 48.9522 15.568C49.1122 15.296 49.3442 15.08 49.6482 14.92C49.9522 14.76 50.3242 14.68 50.7642 14.68C50.8762 14.68 50.9762 14.684 51.0642 14.692C51.1602 14.7 51.2522 14.716 51.3402 14.74V16.408C51.1882 16.384 51.0482 16.368 50.9202 16.36C50.7922 16.344 50.6642 16.336 50.5362 16.336C50.2002 16.336 49.9282 16.384 49.7202 16.48C49.5202 16.576 49.3762 16.7 49.2882 16.852C49.2002 16.996 49.1562 17.156 49.1562 17.332C49.1562 17.5 49.1802 17.684 49.2282 17.884C49.2762 18.076 49.3202 18.3 49.3602 18.556C49.4082 18.812 49.4322 19.112 49.4322 19.456ZM62.6663 28C62.3383 28 62.0863 27.896 61.9103 27.688C61.7423 27.48 61.6583 27.188 61.6583 26.812V22.972L61.8143 22.576L61.7303 21.124L61.6583 20.368V19.396C61.6583 18.74 61.5223 18.204 61.2503 17.788C60.9863 17.372 60.6023 17.064 60.0983 16.864C59.5943 16.664 58.9863 16.564 58.2743 16.564C57.2103 16.564 56.3863 16.776 55.8023 17.2C55.2263 17.616 54.8423 18.244 54.6503 19.084L52.9943 18.736C53.1543 17.896 53.4543 17.2 53.8943 16.648C54.3343 16.088 54.9183 15.672 55.6463 15.4C56.3823 15.12 57.2783 14.98 58.3343 14.98C59.4383 14.98 60.3623 15.136 61.1063 15.448C61.8583 15.752 62.4263 16.22 62.8103 16.852C63.1943 17.484 63.3863 18.3 63.3863 19.3V26.512H65.2703V28H62.6663ZM56.6423 28.168C55.3143 28.168 54.3063 27.876 53.6183 27.292C52.9303 26.7 52.5863 25.832 52.5863 24.688C52.5863 23.632 52.8903 22.828 53.4983 22.276C54.1063 21.716 55.0823 21.296 56.4263 21.016L62.1743 19.792V21.028L56.7143 22.264C55.9303 22.448 55.3423 22.72 54.9503 23.08C54.5663 23.432 54.3743 23.932 54.3743 24.58C54.3743 25.284 54.5903 25.812 55.0223 26.164C55.4543 26.508 56.0863 26.68 56.9183 26.68C57.8383 26.68 58.6623 26.468 59.3903 26.044C60.1183 25.62 60.6903 24.996 61.1063 24.172C61.5223 23.348 61.7303 22.332 61.7303 21.124L62.1863 23.956H61.5743C61.3743 25.292 60.8543 26.328 60.0143 27.064C59.1823 27.8 58.0583 28.168 56.6423 28.168ZM71.1155 26.512H73.3955V28H66.7595V26.512H69.3875V16.708H66.7595V15.22H71.1155V26.512ZM78.4835 26.512V19.828C78.4835 18.78 78.2475 17.956 77.7755 17.356C77.3035 16.756 76.5595 16.456 75.5435 16.456C74.7195 16.456 73.9715 16.66 73.2995 17.068C72.6275 17.476 72.0955 18.068 71.7035 18.844C71.3115 19.62 71.1155 20.56 71.1155 21.664L70.7195 19.108H71.1995C71.3515 18.236 71.6435 17.496 72.0755 16.888C72.5075 16.272 73.0595 15.804 73.7315 15.484C74.4115 15.156 75.1915 14.992 76.0715 14.992C77.4635 14.992 78.4995 15.396 79.1795 16.204C79.8675 17.004 80.2115 18.136 80.2115 19.6V26.512H82.6715V28H76.2395V26.512H78.4835ZM88.3805 26.512H90.8405V28H84.0605V26.512H86.6525V16.708H84.0605V15.22H88.3805V26.512ZM86.3285 9.832H88.5365V12.124H86.3285V9.832ZM92.3821 26.572L101.142 16.708V16.192L103.41 16.648L94.6621 26.5V27.076L92.3821 26.572ZM103.41 15.22V16.648H94.3621V19.276H92.6461V15.22H103.41ZM101.802 23.932H103.506V28H92.3821V26.572H101.802V23.932ZM112.104 28.228C110.784 28.228 109.64 27.948 108.672 27.388C107.704 26.828 106.956 26.056 106.428 25.072C105.9 24.08 105.636 22.94 105.636 21.652C105.636 20.348 105.9 19.196 106.428 18.196C106.964 17.196 107.708 16.412 108.66 15.844C109.62 15.276 110.736 14.992 112.008 14.992C113.288 14.992 114.396 15.272 115.332 15.832C116.268 16.392 116.988 17.168 117.492 18.16C117.996 19.152 118.248 20.296 118.248 21.592C118.248 21.744 118.244 21.864 118.236 21.952C118.236 22.04 118.228 22.116 118.212 22.18H116.508C116.516 22.084 116.52 21.98 116.52 21.868C116.528 21.748 116.532 21.612 116.532 21.46C116.532 20.508 116.348 19.664 115.98 18.928C115.62 18.184 115.104 17.6 114.432 17.176C113.76 16.752 112.952 16.54 112.008 16.54C111.088 16.54 110.28 16.76 109.584 17.2C108.888 17.632 108.348 18.232 107.964 19C107.58 19.76 107.388 20.644 107.388 21.652C107.388 22.628 107.576 23.492 107.952 24.244C108.336 24.988 108.88 25.572 109.584 25.996C110.288 26.42 111.124 26.632 112.092 26.632C113.1 26.632 113.972 26.396 114.708 25.924C115.452 25.444 116.004 24.792 116.364 23.968L117.996 24.58C117.524 25.708 116.768 26.6 115.728 27.256C114.696 27.904 113.488 28.228 112.104 28.228ZM106.728 22.18V20.848H117.696L118.2 22.18H106.728ZM131.408 28V23.224L131.48 22.288V20.764L131.408 19.084V10.528H127.964V9.04H133.136V26.512H135.584V28H131.408ZM126.596 14.98C127.652 14.98 128.596 15.212 129.428 15.676C130.268 16.14 130.96 16.804 131.504 17.668C132.048 18.524 132.408 19.552 132.584 20.752L131.48 21.58C131.48 20.596 131.288 19.724 130.904 18.964C130.528 18.204 129.988 17.612 129.284 17.188C128.58 16.756 127.744 16.54 126.776 16.54C125.824 16.54 124.996 16.756 124.292 17.188C123.588 17.62 123.044 18.216 122.66 18.976C122.284 19.736 122.096 20.616 122.096 21.616C122.096 22.608 122.292 23.484 122.684 24.244C123.076 25.004 123.624 25.604 124.328 26.044C125.04 26.476 125.856 26.692 126.776 26.692C127.736 26.692 128.564 26.476 129.26 26.044C129.964 25.604 130.508 25 130.892 24.232C131.284 23.464 131.48 22.58 131.48 21.58L131.744 24.304H131.336C131.192 25.008 130.912 25.66 130.496 26.26C130.08 26.852 129.532 27.332 128.852 27.7C128.172 28.06 127.356 28.24 126.404 28.24C125.516 28.24 124.7 28.08 123.956 27.76C123.212 27.432 122.568 26.972 122.024 26.38C121.48 25.78 121.056 25.076 120.752 24.268C120.456 23.46 120.308 22.576 120.308 21.616C120.308 20.32 120.568 19.172 121.088 18.172C121.608 17.172 122.336 16.392 123.272 15.832C124.216 15.264 125.324 14.98 126.596 14.98Z" fill="black"/>
<path d="M1 6.35211L6 1V39L1 33.6479V6.35211Z" fill="white"/>
<path d="M6 1L1 6.35211V33.6479L6 39" stroke="black" stroke-linecap="round"/>
<path d="M146 33.6479L141 39L141 1L146 6.35211L146 33.6479Z" fill="white"/>
<path d="M141 39L146 33.6479L146 6.35211L141 1" stroke="black" stroke-linecap="round"/>
</svg>
