<svg width="88" height="40" viewBox="0 0 88 40" fill="none" xmlns="http://www.w3.org/2000/svg">
<path d="M6 1H82V39H6V1Z" fill="white"/>
<path d="M6 1.5H82V0.5H6V1.5ZM82 38.5H6V39.5H82V38.5Z" fill="black"/>
<path d="M25.6097 31.552H28.1297V33.04H21.0977V31.552H23.8817V23.14L23.9417 22.156V21.268L23.8817 19.864V17.956L25.4537 14.956H25.6097V31.552ZM19.1297 14.98C20.2017 14.98 21.1577 15.184 21.9977 15.592C22.8457 15.992 23.5457 16.568 24.0977 17.32C24.6497 18.064 25.0177 18.952 25.2017 19.984L23.9537 21.616C23.9537 20.624 23.7617 19.748 23.3777 18.988C23.0017 18.228 22.4617 17.632 21.7577 17.2C21.0537 16.76 20.2177 16.54 19.2497 16.54C18.2737 16.54 17.4337 16.752 16.7297 17.176C16.0257 17.6 15.4857 18.196 15.1097 18.964C14.7417 19.724 14.5577 20.612 14.5577 21.628C14.5577 22.62 14.7537 23.496 15.1457 24.256C15.5457 25.016 16.0977 25.612 16.8017 26.044C17.5137 26.476 18.3297 26.692 19.2497 26.692C20.2097 26.692 21.0377 26.476 21.7337 26.044C22.4377 25.612 22.9817 25.016 23.3657 24.256C23.7577 23.488 23.9537 22.608 23.9537 21.616L24.2177 24.304H23.8097C23.6657 25.008 23.3857 25.66 22.9697 26.26C22.5537 26.852 22.0057 27.332 21.3257 27.7C20.6457 28.06 19.8297 28.24 18.8777 28.24C17.9897 28.24 17.1737 28.08 16.4297 27.76C15.6857 27.432 15.0417 26.972 14.4977 26.38C13.9537 25.78 13.5297 25.076 13.2257 24.268C12.9297 23.452 12.7817 22.56 12.7817 21.592C12.7817 20.296 13.0457 19.152 13.5737 18.16C14.1017 17.168 14.8377 16.392 15.7817 15.832C16.7337 15.264 17.8497 14.98 19.1297 14.98ZM39.3698 16.708H36.8978V15.22H41.0978V26.512H43.5938V28H39.3698V16.708ZM32.2298 15.22V23.368C32.2298 24.416 32.4618 25.244 32.9258 25.852C33.3978 26.452 34.1378 26.752 35.1458 26.752C35.9538 26.752 36.6738 26.548 37.3058 26.14C37.9458 25.724 38.4498 25.128 38.8178 24.352C39.1858 23.576 39.3698 22.644 39.3698 21.556L39.7898 24.112H39.2858C39.0698 25.488 38.5338 26.528 37.6778 27.232C36.8298 27.928 35.7858 28.276 34.5458 28.276C33.1698 28.276 32.1498 27.868 31.4858 27.052C30.8298 26.236 30.5018 25.104 30.5018 23.656V16.708H28.1858V15.22H32.2298ZM49.423 26.512H51.883V28H45.103V26.512H47.695V16.708H45.103V15.22H49.423V26.512ZM47.371 9.832H49.579V12.124H47.371V9.832ZM59.8926 28.228C58.5726 28.228 57.4286 27.948 56.4606 27.388C55.4926 26.828 54.7446 26.056 54.2166 25.072C53.6886 24.08 53.4246 22.94 53.4246 21.652C53.4246 20.348 53.6886 19.196 54.2166 18.196C54.7526 17.196 55.4966 16.412 56.4486 15.844C57.4086 15.276 58.5246 14.992 59.7966 14.992C61.0766 14.992 62.1846 15.272 63.1206 15.832C64.0566 16.392 64.7766 17.168 65.2806 18.16C65.7846 19.152 66.0366 20.296 66.0366 21.592C66.0366 21.744 66.0326 21.864 66.0246 21.952C66.0246 22.04 66.0166 22.116 66.0006 22.18H64.2966C64.3046 22.084 64.3086 21.98 64.3086 21.868C64.3166 21.748 64.3206 21.612 64.3206 21.46C64.3206 20.508 64.1366 19.664 63.7686 18.928C63.4086 18.184 62.8926 17.6 62.2206 17.176C61.5486 16.752 60.7406 16.54 59.7966 16.54C58.8766 16.54 58.0686 16.76 57.3726 17.2C56.6766 17.632 56.1366 18.232 55.7526 19C55.3686 19.76 55.1766 20.644 55.1766 21.652C55.1766 22.628 55.3646 23.492 55.7406 24.244C56.1246 24.988 56.6686 25.572 57.3726 25.996C58.0766 26.42 58.9126 26.632 59.8806 26.632C60.8886 26.632 61.7606 26.396 62.4966 25.924C63.2406 25.444 63.7926 24.792 64.1526 23.968L65.7846 24.58C65.3126 25.708 64.5566 26.6 63.5166 27.256C62.4846 27.904 61.2766 28.228 59.8926 28.228ZM54.5166 22.18V20.848H65.4846L65.9886 22.18H54.5166ZM71.3601 24.616C71.3601 25.288 71.4881 25.796 71.7441 26.14C72.0001 26.476 72.3921 26.644 72.9201 26.644C73.4401 26.644 73.8321 26.472 74.0961 26.128C74.3601 25.776 74.4921 25.272 74.4921 24.616V23.428H76.0521V24.604C76.0521 25.372 75.9361 26.028 75.7041 26.572C75.4801 27.108 75.1361 27.52 74.6721 27.808C74.2081 28.088 73.6121 28.228 72.8841 28.228C72.1401 28.228 71.5281 28.084 71.0481 27.796C70.5681 27.5 70.2121 27.084 69.9801 26.548C69.7481 26.012 69.6321 25.368 69.6321 24.616L69.6441 16.708H67.3641V15.22H69.6441V11.98H71.3721V15.22H75.8841L75.8721 16.708H71.3721L71.3601 24.616Z" fill="black"/>
<path d="M1 6.35211L6 1V39L1 33.6479V6.35211Z" fill="white"/>
<path d="M6 1L1 6.35211V33.6479L6 39" stroke="black" stroke-linecap="round"/>
<path d="M87 33.6479L82 39L82 1L87 6.35211L87 33.6479Z" fill="white"/>
<path d="M82 39L87 33.6479L87 6.35211L82 1" stroke="black" stroke-linecap="round"/>
</svg>
