<svg width="85" height="40" viewBox="0 0 85 40" fill="none" xmlns="http://www.w3.org/2000/svg">
<path d="M6 1H79V39H6V1Z" fill="white"/>
<path d="M6 1.5H79V0.5H6V1.5ZM79 38.5H6V39.5H79V38.5Z" fill="black"/>
<path d="M19.2237 28.228C17.8957 28.228 16.7397 27.948 15.7557 27.388C14.7797 26.828 14.0197 26.056 13.4757 25.072C12.9397 24.08 12.6717 22.94 12.6717 21.652C12.6717 20.676 12.8197 19.784 13.1157 18.976C13.4117 18.16 13.8357 17.456 14.3877 16.864C14.9397 16.264 15.5957 15.804 16.3557 15.484C17.1157 15.156 17.9637 14.992 18.8997 14.992C19.8037 14.992 20.5557 15.14 21.1557 15.436C21.7637 15.724 22.2357 16.124 22.5717 16.636C22.9077 17.14 23.1237 17.72 23.2197 18.376H23.6397L23.2917 20.188C23.1877 19.468 22.9517 18.836 22.5837 18.292C22.2157 17.74 21.7357 17.312 21.1437 17.008C20.5517 16.696 19.8677 16.54 19.0917 16.54C18.1637 16.54 17.3477 16.76 16.6437 17.2C15.9477 17.632 15.4037 18.232 15.0117 19C14.6277 19.76 14.4357 20.644 14.4357 21.652C14.4357 22.628 14.6317 23.492 15.0237 24.244C15.4237 24.988 15.9797 25.572 16.6917 25.996C17.4117 26.42 18.2597 26.632 19.2357 26.632C20.2437 26.632 21.1117 26.412 21.8397 25.972C22.5677 25.524 23.0997 24.924 23.4357 24.172L25.0317 24.88C24.5757 25.912 23.8437 26.728 22.8357 27.328C21.8357 27.928 20.6317 28.228 19.2237 28.228ZM23.2917 20.188V15.22H25.0197V20.188H23.2917ZM37.3678 28C37.0398 28 36.7878 27.896 36.6118 27.688C36.4437 27.48 36.3597 27.188 36.3597 26.812V22.972L36.5157 22.576L36.4318 21.124L36.3597 20.368V19.396C36.3597 18.74 36.2237 18.204 35.9518 17.788C35.6878 17.372 35.3038 17.064 34.7997 16.864C34.2958 16.664 33.6878 16.564 32.9757 16.564C31.9117 16.564 31.0877 16.776 30.5037 17.2C29.9277 17.616 29.5437 18.244 29.3517 19.084L27.6957 18.736C27.8557 17.896 28.1557 17.2 28.5957 16.648C29.0357 16.088 29.6197 15.672 30.3477 15.4C31.0837 15.12 31.9797 14.98 33.0357 14.98C34.1397 14.98 35.0637 15.136 35.8077 15.448C36.5598 15.752 37.1278 16.22 37.5117 16.852C37.8958 17.484 38.0878 18.3 38.0878 19.3V26.512H39.9717V28H37.3678ZM31.3437 28.168C30.0157 28.168 29.0077 27.876 28.3197 27.292C27.6317 26.7 27.2877 25.832 27.2877 24.688C27.2877 23.632 27.5917 22.828 28.1997 22.276C28.8077 21.716 29.7837 21.296 31.1277 21.016L36.8758 19.792V21.028L31.4157 22.264C30.6317 22.448 30.0437 22.72 29.6517 23.08C29.2677 23.432 29.0757 23.932 29.0757 24.58C29.0757 25.284 29.2917 25.812 29.7237 26.164C30.1557 26.508 30.7877 26.68 31.6197 26.68C32.5397 26.68 33.3637 26.468 34.0917 26.044C34.8197 25.62 35.3917 24.996 35.8077 24.172C36.2238 23.348 36.4318 22.332 36.4318 21.124L36.8878 23.956H36.2758C36.0757 25.292 35.5557 26.328 34.7158 27.064C33.8837 27.8 32.7597 28.168 31.3437 28.168ZM45.5169 26.512H48.1449V28H41.1609V26.512H43.7889V10.528H41.1609V9.04H45.5169V26.512ZM67.2001 28V26.512H69.4561V19.804C69.4561 18.756 69.2241 17.936 68.7601 17.344C68.2961 16.752 67.5721 16.456 66.5881 16.456C65.7961 16.456 65.0921 16.664 64.4761 17.08C63.8601 17.496 63.3761 18.092 63.0241 18.868C62.6721 19.644 62.4961 20.576 62.4961 21.664L62.0761 19.096H62.5681C62.7681 17.704 63.2841 16.664 64.1161 15.976C64.9561 15.288 65.9761 14.944 67.1761 14.944C68.5281 14.944 69.5321 15.344 70.1881 16.144C70.8521 16.944 71.1841 18.072 71.1841 19.528V26.512H73.6321V28H67.2001ZM49.5121 28V26.512H52.0681V16.708H49.5121V15.22H53.7961V26.512H56.0641V28H49.5121ZM58.5121 28V26.512H60.7681V19.804C60.7681 18.756 60.5361 17.936 60.0721 17.344C59.6081 16.752 58.8841 16.456 57.9001 16.456C57.1081 16.456 56.4041 16.664 55.7881 17.08C55.1721 17.496 54.6841 18.092 54.3241 18.868C53.9721 19.644 53.7961 20.576 53.7961 21.664L53.3881 19.096H53.8801C54.0721 17.704 54.5881 16.664 55.4281 15.976C56.2681 15.288 57.2881 14.944 58.4881 14.944C59.8401 14.944 60.8441 15.344 61.5001 16.144C62.1641 16.944 62.4961 18.072 62.4961 19.528V26.512H64.9441V28H58.5121Z" fill="black"/>
<path d="M1 6.35211L6 1V39L1 33.6479V6.35211Z" fill="white"/>
<path d="M6 1L1 6.35211V33.6479L6 39" stroke="black" stroke-linecap="round"/>
<path d="M84 33.6479L79 39L79 1L84 6.35211L84 33.6479Z" fill="white"/>
<path d="M79 39L84 33.6479L84 6.35211L79 1" stroke="black" stroke-linecap="round"/>
</svg>
