<svg width="132" height="40" viewBox="0 0 132 40" fill="none" xmlns="http://www.w3.org/2000/svg">
<path d="M6 1H126V39H6V1Z" fill="white"/>
<path d="M6 1.5H126V0.5H6V1.5ZM126 38.5H6V39.5H126V38.5Z" fill="black"/>
<path d="M15.8026 24.616C15.8026 25.288 15.9306 25.796 16.1866 26.14C16.4426 26.476 16.8346 26.644 17.3626 26.644C17.8826 26.644 18.2746 26.472 18.5386 26.128C18.8026 25.776 18.9346 25.272 18.9346 24.616V23.428H20.4946V24.604C20.4946 25.372 20.3786 26.028 20.1466 26.572C19.9226 27.108 19.5786 27.52 19.1146 27.808C18.6506 28.088 18.0546 28.228 17.3266 28.228C16.5826 28.228 15.9706 28.084 15.4906 27.796C15.0106 27.5 14.6546 27.084 14.4226 26.548C14.1906 26.012 14.0746 25.368 14.0746 24.616L14.0866 16.708H11.8066V15.22H14.0866V11.98H15.8146V15.22H20.3266L20.3146 16.708H15.8146L15.8026 24.616ZM32.5248 28C32.1968 28 31.9448 27.896 31.7688 27.688C31.6008 27.48 31.5168 27.188 31.5168 26.812V22.972L31.6728 22.576L31.5888 21.124L31.5168 20.368V19.396C31.5168 18.74 31.3808 18.204 31.1088 17.788C30.8448 17.372 30.4608 17.064 29.9568 16.864C29.4528 16.664 28.8448 16.564 28.1328 16.564C27.0688 16.564 26.2448 16.776 25.6608 17.2C25.0848 17.616 24.7008 18.244 24.5088 19.084L22.8528 18.736C23.0128 17.896 23.3128 17.2 23.7528 16.648C24.1928 16.088 24.7768 15.672 25.5048 15.4C26.2408 15.12 27.1368 14.98 28.1928 14.98C29.2968 14.98 30.2208 15.136 30.9648 15.448C31.7168 15.752 32.2848 16.22 32.6688 16.852C33.0528 17.484 33.2448 18.3 33.2448 19.3V26.512H35.1288V28H32.5248ZM26.5008 28.168C25.1728 28.168 24.1648 27.876 23.4768 27.292C22.7888 26.7 22.4448 25.832 22.4448 24.688C22.4448 23.632 22.7488 22.828 23.3568 22.276C23.9648 21.716 24.9408 21.296 26.2848 21.016L32.0328 19.792V21.028L26.5728 22.264C25.7888 22.448 25.2008 22.72 24.8088 23.08C24.4248 23.432 24.2328 23.932 24.2328 24.58C24.2328 25.284 24.4488 25.812 24.8808 26.164C25.3128 26.508 25.9448 26.68 26.7768 26.68C27.6968 26.68 28.5208 26.468 29.2488 26.044C29.9768 25.62 30.5488 24.996 30.9648 24.172C31.3808 23.348 31.5888 22.332 31.5888 21.124L32.0448 23.956H31.4328C31.2328 25.292 30.7128 26.328 29.8728 27.064C29.0408 27.8 27.9168 28.168 26.5008 28.168ZM40.6739 26.512H43.3019V28H36.3179V26.512H38.9459V10.528H36.3179V9.04H40.6739V26.512ZM48.6652 26.512H50.9332V28H44.3692V26.512H46.9372V10.528H44.3692V9.04H48.6652V26.512ZM53.1292 19.9L58.2052 26.512H59.8732V28H53.2972V26.512H56.0692L51.9052 20.944L53.1292 19.9ZM48.1492 24.556L47.7892 23.176L55.6252 16.708H51.7252V15.22H59.6692V16.708H57.8692L48.1492 24.556ZM71.6082 28C71.2802 28 71.0282 27.896 70.8522 27.688C70.6842 27.48 70.6002 27.188 70.6002 26.812V22.972L70.7562 22.576L70.6722 21.124L70.6002 20.368V19.396C70.6002 18.74 70.4642 18.204 70.1922 17.788C69.9282 17.372 69.5442 17.064 69.0402 16.864C68.5362 16.664 67.9282 16.564 67.2162 16.564C66.1522 16.564 65.3282 16.776 64.7442 17.2C64.1682 17.616 63.7842 18.244 63.5922 19.084L61.9362 18.736C62.0962 17.896 62.3962 17.2 62.8362 16.648C63.2762 16.088 63.8602 15.672 64.5882 15.4C65.3242 15.12 66.2202 14.98 67.2762 14.98C68.3802 14.98 69.3042 15.136 70.0482 15.448C70.8002 15.752 71.3682 16.22 71.7522 16.852C72.1362 17.484 72.3282 18.3 72.3282 19.3V26.512H74.2122V28H71.6082ZM65.5842 28.168C64.2562 28.168 63.2482 27.876 62.5602 27.292C61.8722 26.7 61.5282 25.832 61.5282 24.688C61.5282 23.632 61.8322 22.828 62.4402 22.276C63.0482 21.716 64.0242 21.296 65.3682 21.016L71.1162 19.792V21.028L65.6562 22.264C64.8722 22.448 64.2842 22.72 63.8922 23.08C63.5082 23.432 63.3162 23.932 63.3162 24.58C63.3162 25.284 63.5322 25.812 63.9642 26.164C64.3962 26.508 65.0282 26.68 65.8602 26.68C66.7802 26.68 67.6042 26.468 68.3322 26.044C69.0602 25.62 69.6322 24.996 70.0482 24.172C70.4642 23.348 70.6722 22.332 70.6722 21.124L71.1282 23.956H70.5162C70.3162 25.292 69.7962 26.328 68.9562 27.064C68.1242 27.8 67.0002 28.168 65.5842 28.168ZM79.1213 24.616C79.1213 25.288 79.2493 25.796 79.5053 26.14C79.7613 26.476 80.1533 26.644 80.6813 26.644C81.2013 26.644 81.5933 26.472 81.8573 26.128C82.1213 25.776 82.2533 25.272 82.2533 24.616V23.428H83.8133V24.604C83.8133 25.372 83.6973 26.028 83.4653 26.572C83.2413 27.108 82.8973 27.52 82.4333 27.808C81.9693 28.088 81.3733 28.228 80.6453 28.228C79.9013 28.228 79.2893 28.084 78.8093 27.796C78.3293 27.5 77.9733 27.084 77.7413 26.548C77.5093 26.012 77.3933 25.368 77.3933 24.616L77.4053 16.708H75.1253V15.22H77.4053V11.98H79.1333V15.22H83.6453L83.6333 16.708H79.1333L79.1213 24.616ZM89.9864 26.512H92.4464V28H85.6664V26.512H88.2584V16.708H85.6664V15.22H89.9864V26.512ZM87.9344 9.832H90.1424V12.124H87.9344V9.832ZM101.152 15.22H106.816V16.708H105.376L100.672 28H98.8004L93.9404 16.708H92.5124V15.22H98.3084V16.708H95.8124L100.528 28L98.9084 26.188H100.552L99.1484 28L103.648 16.708H101.152V15.22ZM113.898 28.228C112.578 28.228 111.434 27.948 110.466 27.388C109.498 26.828 108.75 26.056 108.222 25.072C107.694 24.08 107.43 22.94 107.43 21.652C107.43 20.348 107.694 19.196 108.222 18.196C108.758 17.196 109.502 16.412 110.454 15.844C111.414 15.276 112.53 14.992 113.802 14.992C115.082 14.992 116.19 15.272 117.126 15.832C118.062 16.392 118.782 17.168 119.286 18.16C119.79 19.152 120.042 20.296 120.042 21.592C120.042 21.744 120.038 21.864 120.03 21.952C120.03 22.04 120.022 22.116 120.006 22.18H118.302C118.31 22.084 118.314 21.98 118.314 21.868C118.322 21.748 118.326 21.612 118.326 21.46C118.326 20.508 118.142 19.664 117.774 18.928C117.414 18.184 116.898 17.6 116.226 17.176C115.554 16.752 114.746 16.54 113.802 16.54C112.882 16.54 112.074 16.76 111.378 17.2C110.682 17.632 110.142 18.232 109.758 19C109.374 19.76 109.182 20.644 109.182 21.652C109.182 22.628 109.37 23.492 109.746 24.244C110.13 24.988 110.674 25.572 111.378 25.996C112.082 26.42 112.918 26.632 113.886 26.632C114.894 26.632 115.766 26.396 116.502 25.924C117.246 25.444 117.798 24.792 118.158 23.968L119.79 24.58C119.318 25.708 118.562 26.6 117.522 27.256C116.49 27.904 115.282 28.228 113.898 28.228ZM108.522 22.18V20.848H119.49L119.994 22.18H108.522Z" fill="black"/>
<path d="M1 6.35211L6 1V39L1 33.6479V6.35211Z" fill="white"/>
<path d="M6 1L1 6.35211V33.6479L6 39" stroke="black" stroke-linecap="round"/>
<path d="M131 33.6479L126 39L126 1L131 6.35211L131 33.6479Z" fill="white"/>
<path d="M126 39L131 33.6479L131 6.35211L126 1" stroke="black" stroke-linecap="round"/>
</svg>
