<svg width="119" height="40" viewBox="0 0 119 40" fill="none" xmlns="http://www.w3.org/2000/svg">
<path d="M6 1H113V39H6V1Z" fill="white"/>
<path d="M6 1.5H113V0.5H6V1.5ZM113 38.5H6V39.5H113V38.5Z" fill="black"/>
<path d="M16.4125 26.512H18.6805V28H12.1165V26.512H14.6845V10.528H12.1165V9.04H16.4125V26.512ZM23.7805 26.512V19.792C23.7805 18.752 23.5445 17.936 23.0725 17.344C22.6085 16.752 21.8765 16.456 20.8765 16.456C20.0365 16.456 19.2805 16.672 18.6085 17.104C17.9365 17.528 17.4005 18.148 17.0005 18.964C16.6085 19.772 16.4125 20.748 16.4125 21.892L16.0045 19.336H16.4845C16.6445 18.4 16.9445 17.608 17.3845 16.96C17.8325 16.304 18.4005 15.804 19.0885 15.46C19.7765 15.116 20.5645 14.944 21.4525 14.944C22.8445 14.944 23.8685 15.344 24.5245 16.144C25.1805 16.944 25.5085 18.068 25.5085 19.516V26.512H27.9565V28H21.5245V26.512H23.7805ZM39.6059 16.708H37.1339V15.22H41.3339V26.512H43.8299V28H39.6059V16.708ZM32.4659 15.22V23.368C32.4659 24.416 32.6979 25.244 33.1619 25.852C33.6339 26.452 34.3739 26.752 35.3819 26.752C36.1899 26.752 36.9099 26.548 37.5419 26.14C38.1819 25.724 38.6859 25.128 39.0539 24.352C39.4219 23.576 39.6059 22.644 39.6059 21.556L40.0259 24.112H39.5219C39.3059 25.488 38.7699 26.528 37.9139 27.232C37.0659 27.928 36.0219 28.276 34.7819 28.276C33.4059 28.276 32.3859 27.868 31.7219 27.052C31.0659 26.236 30.7379 25.104 30.7379 23.656V16.708H28.4219V15.22H32.4659ZM62.8711 28V26.512H65.1271V19.804C65.1271 18.756 64.8951 17.936 64.4311 17.344C63.9671 16.752 63.2431 16.456 62.2591 16.456C61.4671 16.456 60.7631 16.664 60.1471 17.08C59.5311 17.496 59.0471 18.092 58.6951 18.868C58.3431 19.644 58.1671 20.576 58.1671 21.664L57.7471 19.096H58.2391C58.4391 17.704 58.9551 16.664 59.7871 15.976C60.6271 15.288 61.6471 14.944 62.8471 14.944C64.1991 14.944 65.2031 15.344 65.8591 16.144C66.5231 16.944 66.8551 18.072 66.8551 19.528V26.512H69.3031V28H62.8711ZM45.1831 28V26.512H47.7391V16.708H45.1831V15.22H49.4671V26.512H51.7351V28H45.1831ZM54.1831 28V26.512H56.4391V19.804C56.4391 18.756 56.2071 17.936 55.7431 17.344C55.2791 16.752 54.5551 16.456 53.5711 16.456C52.7791 16.456 52.0751 16.664 51.4591 17.08C50.8431 17.496 50.3551 18.092 49.9951 18.868C49.6431 19.644 49.4671 20.576 49.4671 21.664L49.0591 19.096H49.5511C49.7431 17.704 50.2591 16.664 51.0991 15.976C51.9391 15.288 52.9591 14.944 54.1591 14.944C55.5111 14.944 56.5151 15.344 57.1711 16.144C57.8351 16.944 58.1671 18.072 58.1671 19.528V26.512H60.6151V28H54.1831ZM71.9232 28.264V10.528H69.3552V9.04H73.6512V19.696L73.5792 21.196V22.792L73.6512 25.12L72.0792 28.264H71.9232ZM78.3912 28.24C77.3192 28.24 76.3592 28.04 75.5112 27.64C74.6712 27.232 73.9752 26.656 73.4232 25.912C72.8792 25.16 72.5152 24.268 72.3312 23.236L73.5792 21.616C73.5792 22.6 73.7672 23.472 74.1432 24.232C74.5192 24.992 75.0592 25.592 75.7632 26.032C76.4672 26.464 77.3032 26.68 78.2712 26.68C79.2552 26.68 80.0952 26.468 80.7912 26.044C81.4952 25.62 82.0312 25.028 82.3992 24.268C82.7752 23.5 82.9632 22.608 82.9632 21.592C82.9632 20.6 82.7632 19.724 82.3632 18.964C81.9712 18.204 81.4232 17.608 80.7192 17.176C80.0152 16.744 79.1992 16.528 78.2712 16.528C77.3192 16.528 76.4912 16.744 75.7872 17.176C75.0832 17.608 74.5392 18.204 74.1552 18.964C73.7712 19.724 73.5792 20.608 73.5792 21.616L73.3032 18.916H73.7112C73.8632 18.212 74.1432 17.564 74.5512 16.972C74.9672 16.372 75.5152 15.892 76.1952 15.532C76.8832 15.164 77.7032 14.98 78.6552 14.98C79.5432 14.98 80.3592 15.144 81.1032 15.472C81.8472 15.792 82.4912 16.252 83.0352 16.852C83.5792 17.444 83.9992 18.148 84.2952 18.964C84.5912 19.772 84.7392 20.66 84.7392 21.628C84.7392 22.916 84.4752 24.06 83.9472 25.06C83.4272 26.052 82.6912 26.832 81.7392 27.4C80.7872 27.96 79.6712 28.24 78.3912 28.24ZM90.4666 26.512H93.0946V28H86.1106V26.512H88.7386V10.528H86.1106V9.04H90.4666V26.512ZM100.864 28.228C99.544 28.228 98.4 27.948 97.432 27.388C96.464 26.828 95.716 26.056 95.188 25.072C94.66 24.08 94.396 22.94 94.396 21.652C94.396 20.348 94.66 19.196 95.188 18.196C95.724 17.196 96.468 16.412 97.42 15.844C98.38 15.276 99.496 14.992 100.768 14.992C102.048 14.992 103.156 15.272 104.092 15.832C105.028 16.392 105.748 17.168 106.252 18.16C106.756 19.152 107.008 20.296 107.008 21.592C107.008 21.744 107.004 21.864 106.996 21.952C106.996 22.04 106.988 22.116 106.972 22.18H105.268C105.276 22.084 105.28 21.98 105.28 21.868C105.288 21.748 105.292 21.612 105.292 21.46C105.292 20.508 105.108 19.664 104.74 18.928C104.38 18.184 103.864 17.6 103.192 17.176C102.52 16.752 101.712 16.54 100.768 16.54C99.848 16.54 99.04 16.76 98.344 17.2C97.648 17.632 97.108 18.232 96.724 19C96.34 19.76 96.148 20.644 96.148 21.652C96.148 22.628 96.336 23.492 96.712 24.244C97.096 24.988 97.64 25.572 98.344 25.996C99.048 26.42 99.884 26.632 100.852 26.632C101.86 26.632 102.732 26.396 103.468 25.924C104.212 25.444 104.764 24.792 105.124 23.968L106.756 24.58C106.284 25.708 105.528 26.6 104.488 27.256C103.456 27.904 102.248 28.228 100.864 28.228ZM95.488 22.18V20.848H106.456L106.96 22.18H95.488Z" fill="black"/>
<path d="M1 6.35211L6 1V39L1 33.6479V6.35211Z" fill="white"/>
<path d="M6 1L1 6.35211V33.6479L6 39" stroke="black" stroke-linecap="round"/>
<path d="M118 33.6479L113 39L113 1L118 6.35211L118 33.6479Z" fill="white"/>
<path d="M113 39L118 33.6479L118 6.35211L113 1" stroke="black" stroke-linecap="round"/>
</svg>
