<svg width="159" height="40" viewBox="0 0 159 40" fill="none" xmlns="http://www.w3.org/2000/svg">
<path d="M6 1H153V39H6V1Z" fill="white"/>
<path d="M6 1.5H153V0.5H6V1.5ZM153 38.5H6V39.5H153V38.5Z" fill="black"/>
<path d="M12.0305 33.04V31.552H14.5865V16.708H12.0305V15.22H16.3145V19.792L16.2665 21.16V21.916L16.3145 22.996V31.552H18.8225V33.04H12.0305ZM21.1385 28.24C20.0825 28.24 19.1345 28.008 18.2945 27.544C17.4625 27.08 16.7745 26.42 16.2305 25.564C15.6865 24.7 15.3265 23.668 15.1505 22.468L16.2665 21.64C16.2665 22.624 16.4545 23.496 16.8305 24.256C17.2065 25.008 17.7465 25.6 18.4505 26.032C19.1545 26.464 19.9905 26.68 20.9585 26.68C21.9105 26.68 22.7385 26.464 23.4425 26.032C24.1465 25.6 24.6865 25.004 25.0625 24.244C25.4465 23.476 25.6385 22.6 25.6385 21.616C25.6385 20.616 25.4425 19.736 25.0505 18.976C24.6585 18.216 24.1105 17.62 23.4065 17.188C22.7025 16.748 21.8865 16.528 20.9585 16.528C20.0065 16.528 19.1785 16.748 18.4745 17.188C17.7705 17.62 17.2265 18.22 16.8425 18.988C16.4585 19.756 16.2665 20.64 16.2665 21.64L15.9905 18.916H16.3985C16.5425 18.212 16.8225 17.564 17.2385 16.972C17.6545 16.372 18.2025 15.892 18.8825 15.532C19.5705 15.164 20.3865 14.98 21.3305 14.98C22.2265 14.98 23.0465 15.144 23.7905 15.472C24.5345 15.792 25.1745 16.252 25.7105 16.852C26.2545 17.444 26.6745 18.144 26.9705 18.952C27.2745 19.76 27.4265 20.648 27.4265 21.616C27.4265 22.904 27.1665 24.048 26.6465 25.048C26.1265 26.048 25.3945 26.832 24.4505 27.4C23.5145 27.96 22.4105 28.24 21.1385 28.24ZM39.796 28C39.468 28 39.216 27.896 39.04 27.688C38.872 27.48 38.788 27.188 38.788 26.812V22.972L38.944 22.576L38.86 21.124L38.788 20.368V19.396C38.788 18.74 38.652 18.204 38.38 17.788C38.116 17.372 37.732 17.064 37.228 16.864C36.724 16.664 36.116 16.564 35.404 16.564C34.34 16.564 33.516 16.776 32.932 17.2C32.356 17.616 31.972 18.244 31.78 19.084L30.124 18.736C30.284 17.896 30.584 17.2 31.024 16.648C31.464 16.088 32.048 15.672 32.776 15.4C33.512 15.12 34.408 14.98 35.464 14.98C36.568 14.98 37.492 15.136 38.236 15.448C38.988 15.752 39.556 16.22 39.94 16.852C40.324 17.484 40.516 18.3 40.516 19.3V26.512H42.4V28H39.796ZM33.772 28.168C32.444 28.168 31.436 27.876 30.748 27.292C30.06 26.7 29.716 25.832 29.716 24.688C29.716 23.632 30.02 22.828 30.628 22.276C31.236 21.716 32.212 21.296 33.556 21.016L39.304 19.792V21.028L33.844 22.264C33.06 22.448 32.472 22.72 32.08 23.08C31.696 23.432 31.504 23.932 31.504 24.58C31.504 25.284 31.72 25.812 32.152 26.164C32.584 26.508 33.216 26.68 34.048 26.68C34.968 26.68 35.792 26.468 36.52 26.044C37.248 25.62 37.82 24.996 38.236 24.172C38.652 23.348 38.86 22.332 38.86 21.124L39.316 23.956H38.704C38.504 25.292 37.984 26.328 37.144 27.064C36.312 27.8 35.188 28.168 33.772 28.168ZM50.2492 28.228C49.3932 28.228 48.6692 28.1 48.0772 27.844C47.4932 27.588 47.0292 27.248 46.6852 26.824C46.3412 26.392 46.1172 25.912 46.0132 25.384H45.5812L45.9292 23.968C46.0812 24.808 46.4972 25.492 47.1772 26.02C47.8652 26.548 48.7572 26.812 49.8532 26.812C50.7892 26.812 51.5132 26.624 52.0252 26.248C52.5452 25.864 52.8052 25.308 52.8052 24.58C52.8052 23.916 52.5492 23.4 52.0372 23.032C51.5252 22.664 50.6292 22.384 49.3492 22.192C47.5172 21.904 46.2132 21.452 45.4372 20.836C44.6612 20.212 44.2732 19.392 44.2732 18.376C44.2732 17.352 44.6292 16.532 45.3412 15.916C46.0532 15.3 47.0452 14.992 48.3172 14.992C49.1572 14.992 49.8492 15.12 50.3932 15.376C50.9452 15.632 51.3692 15.976 51.6652 16.408C51.9612 16.832 52.1532 17.3 52.2412 17.812H52.6732L52.3252 19.168C52.1812 18.352 51.7892 17.688 51.1492 17.176C50.5092 16.656 49.6732 16.396 48.6412 16.396C47.8092 16.396 47.1572 16.572 46.6852 16.924C46.2212 17.276 45.9892 17.744 45.9892 18.328C45.9892 18.944 46.2812 19.428 46.8652 19.78C47.4492 20.124 48.3692 20.396 49.6252 20.596C51.4012 20.876 52.6612 21.336 53.4052 21.976C54.1492 22.616 54.5212 23.48 54.5212 24.568C54.5212 25.712 54.1532 26.608 53.4172 27.256C52.6892 27.904 51.6332 28.228 50.2492 28.228ZM44.2012 28V23.968H45.9292V28H44.2012ZM52.3252 19.168V15.22H54.0532V19.168H52.3252ZM62.8942 28.228C62.0382 28.228 61.3142 28.1 60.7222 27.844C60.1382 27.588 59.6742 27.248 59.3302 26.824C58.9862 26.392 58.7622 25.912 58.6582 25.384H58.2262L58.5742 23.968C58.7262 24.808 59.1422 25.492 59.8222 26.02C60.5102 26.548 61.4022 26.812 62.4982 26.812C63.4342 26.812 64.1582 26.624 64.6702 26.248C65.1902 25.864 65.4502 25.308 65.4502 24.58C65.4502 23.916 65.1942 23.4 64.6822 23.032C64.1702 22.664 63.2742 22.384 61.9942 22.192C60.1622 21.904 58.8582 21.452 58.0822 20.836C57.3062 20.212 56.9182 19.392 56.9182 18.376C56.9182 17.352 57.2742 16.532 57.9862 15.916C58.6982 15.3 59.6902 14.992 60.9622 14.992C61.8022 14.992 62.4942 15.12 63.0382 15.376C63.5902 15.632 64.0142 15.976 64.3102 16.408C64.6062 16.832 64.7982 17.3 64.8862 17.812H65.3182L64.9702 19.168C64.8262 18.352 64.4342 17.688 63.7942 17.176C63.1542 16.656 62.3182 16.396 61.2862 16.396C60.4542 16.396 59.8022 16.572 59.3302 16.924C58.8662 17.276 58.6342 17.744 58.6342 18.328C58.6342 18.944 58.9262 19.428 59.5102 19.78C60.0942 20.124 61.0142 20.396 62.2702 20.596C64.0462 20.876 65.3062 21.336 66.0502 21.976C66.7942 22.616 67.1662 23.48 67.1662 24.568C67.1662 25.712 66.7982 26.608 66.0622 27.256C65.3342 27.904 64.2782 28.228 62.8942 28.228ZM56.8462 28V23.968H58.5742V28H56.8462ZM64.9702 19.168V15.22H66.6982V19.168H64.9702ZM73.6552 26.512H76.1152V28H69.3352V26.512H71.9272V16.708H69.3352V15.22H73.6552V26.512ZM71.6032 9.832H73.8112V12.124H71.6032V9.832ZM84.2808 28.228C82.9528 28.228 81.7888 27.948 80.7888 27.388C79.7888 26.82 79.0088 26.044 78.4488 25.06C77.8888 24.076 77.6088 22.94 77.6088 21.652C77.6088 20.356 77.8888 19.208 78.4488 18.208C79.0088 17.2 79.7888 16.412 80.7888 15.844C81.7888 15.276 82.9528 14.992 84.2808 14.992C85.6088 14.992 86.7728 15.276 87.7728 15.844C88.7728 16.412 89.5528 17.2 90.1128 18.208C90.6728 19.208 90.9528 20.356 90.9528 21.652C90.9528 22.94 90.6728 24.076 90.1128 25.06C89.5528 26.044 88.7728 26.82 87.7728 27.388C86.7728 27.948 85.6088 28.228 84.2808 28.228ZM84.2808 26.632C85.2408 26.632 86.0848 26.424 86.8128 26.008C87.5488 25.592 88.1208 25.012 88.5288 24.268C88.9448 23.516 89.1528 22.644 89.1528 21.652C89.1528 20.652 88.9448 19.772 88.5288 19.012C88.1208 18.252 87.5488 17.66 86.8128 17.236C86.0848 16.804 85.2408 16.588 84.2808 16.588C83.3208 16.588 82.4728 16.804 81.7368 17.236C81.0088 17.66 80.4368 18.252 80.0208 19.012C79.6128 19.772 79.4088 20.652 79.4088 21.652C79.4088 22.644 79.6128 23.516 80.0208 24.268C80.4368 25.012 81.0088 25.592 81.7368 26.008C82.4728 26.424 83.3208 26.632 84.2808 26.632ZM97.3017 26.512H99.5817V28H92.9457V26.512H95.5737V16.708H92.9457V15.22H97.3017V26.512ZM104.67 26.512V19.828C104.67 18.78 104.434 17.956 103.962 17.356C103.49 16.756 102.746 16.456 101.73 16.456C100.906 16.456 100.158 16.66 99.4857 17.068C98.8137 17.476 98.2817 18.068 97.8897 18.844C97.4977 19.62 97.3017 20.56 97.3017 21.664L96.9057 19.108H97.3857C97.5377 18.236 97.8297 17.496 98.2617 16.888C98.6937 16.272 99.2457 15.804 99.9177 15.484C100.598 15.156 101.378 14.992 102.258 14.992C103.65 14.992 104.686 15.396 105.366 16.204C106.054 17.004 106.398 18.136 106.398 19.6V26.512H108.858V28H102.426V26.512H104.67ZM120.471 28C120.143 28 119.891 27.896 119.715 27.688C119.547 27.48 119.463 27.188 119.463 26.812V22.972L119.619 22.576L119.535 21.124L119.463 20.368V19.396C119.463 18.74 119.327 18.204 119.055 17.788C118.791 17.372 118.407 17.064 117.903 16.864C117.399 16.664 116.791 16.564 116.079 16.564C115.015 16.564 114.191 16.776 113.607 17.2C113.031 17.616 112.647 18.244 112.455 19.084L110.799 18.736C110.959 17.896 111.259 17.2 111.699 16.648C112.139 16.088 112.723 15.672 113.451 15.4C114.187 15.12 115.083 14.98 116.139 14.98C117.243 14.98 118.167 15.136 118.911 15.448C119.663 15.752 120.231 16.22 120.615 16.852C120.999 17.484 121.191 18.3 121.191 19.3V26.512H123.075V28H120.471ZM114.447 28.168C113.119 28.168 112.111 27.876 111.423 27.292C110.735 26.7 110.391 25.832 110.391 24.688C110.391 23.632 110.695 22.828 111.303 22.276C111.911 21.716 112.887 21.296 114.231 21.016L119.979 19.792V21.028L114.519 22.264C113.735 22.448 113.147 22.72 112.755 23.08C112.371 23.432 112.179 23.932 112.179 24.58C112.179 25.284 112.395 25.812 112.827 26.164C113.259 26.508 113.891 26.68 114.723 26.68C115.643 26.68 116.467 26.468 117.195 26.044C117.923 25.62 118.495 24.996 118.911 24.172C119.327 23.348 119.535 22.332 119.535 21.124L119.991 23.956H119.379C119.179 25.292 118.659 26.328 117.819 27.064C116.987 27.8 115.863 28.168 114.447 28.168ZM127.984 24.616C127.984 25.288 128.112 25.796 128.368 26.14C128.624 26.476 129.016 26.644 129.544 26.644C130.064 26.644 130.456 26.472 130.72 26.128C130.984 25.776 131.116 25.272 131.116 24.616V23.428H132.676V24.604C132.676 25.372 132.56 26.028 132.328 26.572C132.104 27.108 131.76 27.52 131.296 27.808C130.832 28.088 130.236 28.228 129.508 28.228C128.764 28.228 128.152 28.084 127.672 27.796C127.192 27.5 126.836 27.084 126.604 26.548C126.372 26.012 126.256 25.368 126.256 24.616L126.268 16.708H123.988V15.22H126.268V11.98H127.996V15.22H132.508L132.496 16.708H127.996L127.984 24.616ZM140.986 28.228C139.666 28.228 138.522 27.948 137.554 27.388C136.586 26.828 135.838 26.056 135.31 25.072C134.782 24.08 134.518 22.94 134.518 21.652C134.518 20.348 134.782 19.196 135.31 18.196C135.846 17.196 136.59 16.412 137.542 15.844C138.502 15.276 139.618 14.992 140.89 14.992C142.17 14.992 143.278 15.272 144.214 15.832C145.15 16.392 145.87 17.168 146.374 18.16C146.878 19.152 147.13 20.296 147.13 21.592C147.13 21.744 147.126 21.864 147.118 21.952C147.118 22.04 147.11 22.116 147.094 22.18H145.39C145.398 22.084 145.402 21.98 145.402 21.868C145.41 21.748 145.414 21.612 145.414 21.46C145.414 20.508 145.23 19.664 144.862 18.928C144.502 18.184 143.986 17.6 143.314 17.176C142.642 16.752 141.834 16.54 140.89 16.54C139.97 16.54 139.162 16.76 138.466 17.2C137.77 17.632 137.23 18.232 136.846 19C136.462 19.76 136.27 20.644 136.27 21.652C136.27 22.628 136.458 23.492 136.834 24.244C137.218 24.988 137.762 25.572 138.466 25.996C139.17 26.42 140.006 26.632 140.974 26.632C141.982 26.632 142.854 26.396 143.59 25.924C144.334 25.444 144.886 24.792 145.246 23.968L146.878 24.58C146.406 25.708 145.65 26.6 144.61 27.256C143.578 27.904 142.37 28.228 140.986 28.228ZM135.61 22.18V20.848H146.578L147.082 22.18H135.61Z" fill="black"/>
<path d="M1 6.35211L6 1V39L1 33.6479V6.35211Z" fill="white"/>
<path d="M6 1L1 6.35211V33.6479L6 39" stroke="black" stroke-linecap="round"/>
<path d="M158 33.6479L153 39L153 1L158 6.35211L158 33.6479Z" fill="white"/>
<path d="M153 39L158 33.6479L158 6.35211L153 1" stroke="black" stroke-linecap="round"/>
</svg>
