<svg width="220" height="40" viewBox="0 0 220 40" fill="none" xmlns="http://www.w3.org/2000/svg">
<path d="M6 1H214V39H6V1Z" fill="white"/>
<path d="M6 1.5H214V0.5H6V1.5ZM214 38.5H6V39.5H214V38.5Z" fill="black"/>
<path d="M19.2392 28.228C17.9112 28.228 16.7552 27.948 15.7712 27.388C14.7952 26.828 14.0352 26.056 13.4912 25.072C12.9552 24.08 12.6872 22.94 12.6872 21.652C12.6872 20.676 12.8352 19.784 13.1312 18.976C13.4272 18.16 13.8512 17.456 14.4032 16.864C14.9552 16.264 15.6112 15.804 16.3712 15.484C17.1312 15.156 17.9792 14.992 18.9152 14.992C19.8192 14.992 20.5712 15.14 21.1712 15.436C21.7792 15.724 22.2512 16.124 22.5872 16.636C22.9232 17.14 23.1392 17.72 23.2352 18.376H23.6552L23.3072 20.188C23.2032 19.468 22.9672 18.836 22.5992 18.292C22.2312 17.74 21.7512 17.312 21.1592 17.008C20.5672 16.696 19.8832 16.54 19.1072 16.54C18.1792 16.54 17.3632 16.76 16.6592 17.2C15.9632 17.632 15.4192 18.232 15.0272 19C14.6432 19.76 14.4512 20.644 14.4512 21.652C14.4512 22.628 14.6472 23.492 15.0392 24.244C15.4392 24.988 15.9952 25.572 16.7072 25.996C17.4272 26.42 18.2752 26.632 19.2512 26.632C20.2592 26.632 21.1272 26.412 21.8552 25.972C22.5832 25.524 23.1152 24.924 23.4512 24.172L25.0472 24.88C24.5912 25.912 23.8592 26.728 22.8512 27.328C21.8512 27.928 20.6472 28.228 19.2392 28.228ZM23.3072 20.188V15.22H25.0352V20.188H23.3072ZM33.8192 28.228C32.4912 28.228 31.3272 27.948 30.3272 27.388C29.3272 26.82 28.5472 26.044 27.9872 25.06C27.4272 24.076 27.1472 22.94 27.1472 21.652C27.1472 20.356 27.4272 19.208 27.9872 18.208C28.5472 17.2 29.3272 16.412 30.3272 15.844C31.3272 15.276 32.4912 14.992 33.8192 14.992C35.1472 14.992 36.3112 15.276 37.3112 15.844C38.3112 16.412 39.0912 17.2 39.6512 18.208C40.2112 19.208 40.4912 20.356 40.4912 21.652C40.4912 22.94 40.2112 24.076 39.6512 25.06C39.0912 26.044 38.3112 26.82 37.3112 27.388C36.3112 27.948 35.1472 28.228 33.8192 28.228ZM33.8192 26.632C34.7792 26.632 35.6232 26.424 36.3512 26.008C37.0872 25.592 37.6592 25.012 38.0672 24.268C38.4832 23.516 38.6912 22.644 38.6912 21.652C38.6912 20.652 38.4832 19.772 38.0672 19.012C37.6592 18.252 37.0872 17.66 36.3512 17.236C35.6232 16.804 34.7792 16.588 33.8192 16.588C32.8592 16.588 32.0112 16.804 31.2752 17.236C30.5472 17.66 29.9752 18.252 29.5592 19.012C29.1512 19.772 28.9472 20.652 28.9472 21.652C28.9472 22.644 29.1512 23.516 29.5592 24.268C29.9752 25.012 30.5472 25.592 31.2752 26.008C32.0112 26.424 32.8592 26.632 33.8192 26.632ZM60.1722 28V26.512H62.4282V19.804C62.4282 18.756 62.1962 17.936 61.7322 17.344C61.2682 16.752 60.5442 16.456 59.5602 16.456C58.7682 16.456 58.0642 16.664 57.4482 17.08C56.8322 17.496 56.3482 18.092 55.9962 18.868C55.6442 19.644 55.4682 20.576 55.4682 21.664L55.0482 19.096H55.5402C55.7402 17.704 56.2562 16.664 57.0882 15.976C57.9282 15.288 58.9482 14.944 60.1482 14.944C61.5002 14.944 62.5042 15.344 63.1602 16.144C63.8242 16.944 64.1562 18.072 64.1562 19.528V26.512H66.6042V28H60.1722ZM42.4842 28V26.512H45.0402V16.708H42.4842V15.22H46.7682V26.512H49.0362V28H42.4842ZM51.4842 28V26.512H53.7402V19.804C53.7402 18.756 53.5082 17.936 53.0442 17.344C52.5802 16.752 51.8562 16.456 50.8722 16.456C50.0802 16.456 49.3762 16.664 48.7602 17.08C48.1442 17.496 47.6562 18.092 47.2962 18.868C46.9442 19.644 46.7682 20.576 46.7682 21.664L46.3602 19.096H46.8522C47.0442 17.704 47.5602 16.664 48.4002 15.976C49.2402 15.288 50.2602 14.944 51.4602 14.944C52.8122 14.944 53.8162 15.344 54.4722 16.144C55.1362 16.944 55.4682 18.072 55.4682 19.528V26.512H57.9162V28H51.4842ZM85.5203 28V26.512H87.7763V19.804C87.7763 18.756 87.5443 17.936 87.0803 17.344C86.6163 16.752 85.8923 16.456 84.9083 16.456C84.1163 16.456 83.4123 16.664 82.7963 17.08C82.1803 17.496 81.6963 18.092 81.3443 18.868C80.9923 19.644 80.8163 20.576 80.8163 21.664L80.3963 19.096H80.8883C81.0883 17.704 81.6043 16.664 82.4363 15.976C83.2763 15.288 84.2963 14.944 85.4963 14.944C86.8483 14.944 87.8523 15.344 88.5083 16.144C89.1723 16.944 89.5043 18.072 89.5043 19.528V26.512H91.9523V28H85.5203ZM67.8323 28V26.512H70.3883V16.708H67.8323V15.22H72.1163V26.512H74.3843V28H67.8323ZM76.8323 28V26.512H79.0883V19.804C79.0883 18.756 78.8563 17.936 78.3923 17.344C77.9283 16.752 77.2043 16.456 76.2203 16.456C75.4283 16.456 74.7243 16.664 74.1083 17.08C73.4923 17.496 73.0043 18.092 72.6443 18.868C72.2923 19.644 72.1163 20.576 72.1163 21.664L71.7083 19.096H72.2003C72.3923 17.704 72.9083 16.664 73.7483 15.976C74.5883 15.288 75.6083 14.944 76.8083 14.944C78.1603 14.944 79.1643 15.344 79.8203 16.144C80.4843 16.944 80.8163 18.072 80.8163 19.528V26.512H83.2643V28H76.8323ZM103.6 16.708H101.128V15.22H105.328V26.512H107.824V28H103.6V16.708ZM96.4598 15.22V23.368C96.4598 24.416 96.6918 25.244 97.1558 25.852C97.6278 26.452 98.3678 26.752 99.3758 26.752C100.184 26.752 100.904 26.548 101.536 26.14C102.176 25.724 102.68 25.128 103.048 24.352C103.416 23.576 103.6 22.644 103.6 21.556L104.02 24.112H103.516C103.3 25.488 102.764 26.528 101.908 27.232C101.06 27.928 100.016 28.276 98.7758 28.276C97.3998 28.276 96.3798 27.868 95.7158 27.052C95.0598 26.236 94.7318 25.104 94.7318 23.656V16.708H92.4158V15.22H96.4598ZM113.533 26.512H115.813V28H109.177V26.512H111.805V16.708H109.177V15.22H113.533V26.512ZM120.901 26.512V19.828C120.901 18.78 120.665 17.956 120.193 17.356C119.721 16.756 118.977 16.456 117.961 16.456C117.137 16.456 116.389 16.66 115.717 17.068C115.045 17.476 114.513 18.068 114.121 18.844C113.729 19.62 113.533 20.56 113.533 21.664L113.137 19.108H113.617C113.769 18.236 114.061 17.496 114.493 16.888C114.925 16.272 115.477 15.804 116.149 15.484C116.829 15.156 117.609 14.992 118.489 14.992C119.881 14.992 120.917 15.396 121.597 16.204C122.285 17.004 122.629 18.136 122.629 19.6V26.512H125.089V28H118.657V26.512H120.901ZM130.798 26.512H133.258V28H126.478V26.512H129.07V16.708H126.478V15.22H130.798V26.512ZM128.746 9.832H130.954V12.124H128.746V9.832ZM141.364 28.228C140.036 28.228 138.88 27.948 137.896 27.388C136.92 26.828 136.16 26.056 135.616 25.072C135.08 24.08 134.812 22.94 134.812 21.652C134.812 20.676 134.96 19.784 135.256 18.976C135.552 18.16 135.976 17.456 136.528 16.864C137.08 16.264 137.736 15.804 138.496 15.484C139.256 15.156 140.104 14.992 141.04 14.992C141.944 14.992 142.696 15.14 143.296 15.436C143.904 15.724 144.376 16.124 144.712 16.636C145.048 17.14 145.264 17.72 145.36 18.376H145.78L145.432 20.188C145.328 19.468 145.092 18.836 144.724 18.292C144.356 17.74 143.876 17.312 143.284 17.008C142.692 16.696 142.008 16.54 141.232 16.54C140.304 16.54 139.488 16.76 138.784 17.2C138.088 17.632 137.544 18.232 137.152 19C136.768 19.76 136.576 20.644 136.576 21.652C136.576 22.628 136.772 23.492 137.164 24.244C137.564 24.988 138.12 25.572 138.832 25.996C139.552 26.42 140.4 26.632 141.376 26.632C142.384 26.632 143.252 26.412 143.98 25.972C144.708 25.524 145.24 24.924 145.576 24.172L147.172 24.88C146.716 25.912 145.984 26.728 144.976 27.328C143.976 27.928 142.772 28.228 141.364 28.228ZM145.432 20.188V15.22H147.16V20.188H145.432ZM159.508 28C159.18 28 158.928 27.896 158.752 27.688C158.584 27.48 158.5 27.188 158.5 26.812V22.972L158.656 22.576L158.572 21.124L158.5 20.368V19.396C158.5 18.74 158.364 18.204 158.092 17.788C157.828 17.372 157.444 17.064 156.94 16.864C156.436 16.664 155.828 16.564 155.116 16.564C154.052 16.564 153.228 16.776 152.644 17.2C152.068 17.616 151.684 18.244 151.492 19.084L149.836 18.736C149.996 17.896 150.296 17.2 150.736 16.648C151.176 16.088 151.76 15.672 152.488 15.4C153.224 15.12 154.12 14.98 155.176 14.98C156.28 14.98 157.204 15.136 157.948 15.448C158.7 15.752 159.268 16.22 159.652 16.852C160.036 17.484 160.228 18.3 160.228 19.3V26.512H162.112V28H159.508ZM153.484 28.168C152.156 28.168 151.148 27.876 150.46 27.292C149.772 26.7 149.428 25.832 149.428 24.688C149.428 23.632 149.732 22.828 150.34 22.276C150.948 21.716 151.924 21.296 153.268 21.016L159.016 19.792V21.028L153.556 22.264C152.772 22.448 152.184 22.72 151.792 23.08C151.408 23.432 151.216 23.932 151.216 24.58C151.216 25.284 151.432 25.812 151.864 26.164C152.296 26.508 152.928 26.68 153.76 26.68C154.68 26.68 155.504 26.468 156.232 26.044C156.96 25.62 157.532 24.996 157.948 24.172C158.364 23.348 158.572 22.332 158.572 21.124L159.028 23.956H158.416C158.216 25.292 157.696 26.328 156.856 27.064C156.024 27.8 154.9 28.168 153.484 28.168ZM167.021 24.616C167.021 25.288 167.149 25.796 167.405 26.14C167.661 26.476 168.053 26.644 168.581 26.644C169.101 26.644 169.493 26.472 169.757 26.128C170.021 25.776 170.153 25.272 170.153 24.616V23.428H171.713V24.604C171.713 25.372 171.597 26.028 171.365 26.572C171.141 27.108 170.797 27.52 170.333 27.808C169.869 28.088 169.273 28.228 168.545 28.228C167.801 28.228 167.189 28.084 166.709 27.796C166.229 27.5 165.873 27.084 165.641 26.548C165.409 26.012 165.293 25.368 165.293 24.616L165.305 16.708H163.025V15.22H165.305V11.98H167.033V15.22H171.545L171.533 16.708H167.033L167.021 24.616ZM177.886 26.512H180.346V28H173.566V26.512H176.158V16.708H173.566V15.22H177.886V26.512ZM175.834 9.832H178.042V12.124H175.834V9.832ZM189.052 15.22H194.716V16.708H193.276L188.572 28H186.7L181.84 16.708H180.412V15.22H186.208V16.708H183.712L188.428 28L186.808 26.188H188.452L187.048 28L191.548 16.708H189.052V15.22ZM201.797 28.228C200.477 28.228 199.333 27.948 198.365 27.388C197.397 26.828 196.649 26.056 196.121 25.072C195.593 24.08 195.329 22.94 195.329 21.652C195.329 20.348 195.593 19.196 196.121 18.196C196.657 17.196 197.401 16.412 198.353 15.844C199.313 15.276 200.429 14.992 201.701 14.992C202.981 14.992 204.089 15.272 205.025 15.832C205.961 16.392 206.681 17.168 207.185 18.16C207.689 19.152 207.941 20.296 207.941 21.592C207.941 21.744 207.937 21.864 207.929 21.952C207.929 22.04 207.921 22.116 207.905 22.18H206.201C206.209 22.084 206.213 21.98 206.213 21.868C206.221 21.748 206.225 21.612 206.225 21.46C206.225 20.508 206.041 19.664 205.673 18.928C205.313 18.184 204.797 17.6 204.125 17.176C203.453 16.752 202.645 16.54 201.701 16.54C200.781 16.54 199.973 16.76 199.277 17.2C198.581 17.632 198.041 18.232 197.657 19C197.273 19.76 197.081 20.644 197.081 21.652C197.081 22.628 197.269 23.492 197.645 24.244C198.029 24.988 198.573 25.572 199.277 25.996C199.981 26.42 200.817 26.632 201.785 26.632C202.793 26.632 203.665 26.396 204.401 25.924C205.145 25.444 205.697 24.792 206.057 23.968L207.689 24.58C207.217 25.708 206.461 26.6 205.421 27.256C204.389 27.904 203.181 28.228 201.797 28.228ZM196.421 22.18V20.848H207.389L207.893 22.18H196.421Z" fill="black"/>
<path d="M1 6.35211L6 1V39L1 33.6479V6.35211Z" fill="white"/>
<path d="M6 1L1 6.35211V33.6479L6 39" stroke="black" stroke-linecap="round"/>
<path d="M219 33.6479L214 39L214 1L219 6.35211L219 33.6479Z" fill="white"/>
<path d="M214 39L219 33.6479L219 6.35211L214 1" stroke="black" stroke-linecap="round"/>
</svg>
