<svg width="287" height="40" viewBox="0 0 287 40" fill="none" xmlns="http://www.w3.org/2000/svg">
<path d="M6 1H281V39H6V1Z" fill="white"/>
<path d="M6 1.5H281V0.5H6V1.5ZM281 38.5H6V39.5H281V38.5Z" fill="black"/>
<path d="M18.6295 33.304C17.5095 33.304 16.4935 33.196 15.5815 32.98C14.6775 32.772 13.9575 32.44 13.4215 31.984C12.8855 31.528 12.6175 30.924 12.6175 30.172C12.6175 29.42 12.8855 28.848 13.4215 28.456C13.9655 28.072 14.6655 27.82 15.5215 27.7V27.496L17.6575 27.7C16.7695 27.7 16.0735 27.804 15.5695 28.012C15.0655 28.228 14.7095 28.5 14.5015 28.828C14.2935 29.164 14.1895 29.508 14.1895 29.86C14.1895 30.404 14.3895 30.828 14.7895 31.132C15.1895 31.436 15.7255 31.652 16.3975 31.78C17.0775 31.908 17.8375 31.972 18.6775 31.972C20.3655 31.972 21.5975 31.744 22.3735 31.288C23.1575 30.84 23.5495 30.212 23.5495 29.404C23.5495 28.268 22.8135 27.7 21.3415 27.7H16.4455C15.4855 27.7 14.7295 27.528 14.1775 27.184C13.6335 26.832 13.3615 26.328 13.3615 25.672C13.3615 25.048 13.6095 24.572 14.1055 24.244C14.6015 23.908 15.3095 23.704 16.2295 23.632V23.272L18.4135 23.896H17.1055C16.4175 23.896 15.8935 23.992 15.5335 24.184C15.1735 24.368 14.9935 24.652 14.9935 25.036C14.9935 25.396 15.1575 25.656 15.4855 25.816C15.8215 25.968 16.3255 26.044 16.9975 26.044H21.2935C22.1175 26.044 22.8175 26.18 23.3935 26.452C23.9775 26.716 24.4175 27.096 24.7135 27.592C25.0175 28.088 25.1695 28.68 25.1695 29.368C25.1695 30.104 24.9615 30.768 24.5455 31.36C24.1295 31.96 23.4415 32.432 22.4815 32.776C21.5295 33.128 20.2455 33.304 18.6295 33.304ZM18.4135 23.896C17.3975 23.896 16.4935 23.712 15.7015 23.344C14.9095 22.976 14.2855 22.46 13.8295 21.796C13.3735 21.132 13.1455 20.352 13.1455 19.456C13.1455 18.56 13.3695 17.78 13.8175 17.116C14.2735 16.444 14.8935 15.924 15.6775 15.556C16.4695 15.18 17.3815 14.992 18.4135 14.992C19.4615 14.992 20.3855 15.188 21.1855 15.58C21.9935 15.972 22.6095 16.516 23.0335 17.212C23.2415 17.532 23.3935 17.88 23.4895 18.256C23.5935 18.624 23.6455 19.024 23.6455 19.456C23.6455 20.352 23.4215 21.132 22.9735 21.796C22.5255 22.46 21.9055 22.976 21.1135 23.344C20.3295 23.712 19.4295 23.896 18.4135 23.896ZM18.4135 22.48C19.0935 22.48 19.6975 22.356 20.2255 22.108C20.7615 21.86 21.1815 21.508 21.4855 21.052C21.7975 20.596 21.9535 20.064 21.9535 19.456C21.9535 18.848 21.7975 18.316 21.4855 17.86C21.1815 17.396 20.7615 17.04 20.2255 16.792C19.6975 16.536 19.0935 16.408 18.4135 16.408C17.7175 16.408 17.1015 16.536 16.5655 16.792C16.0295 17.04 15.6055 17.396 15.2935 17.86C14.9895 18.316 14.8375 18.848 14.8375 19.456C14.8375 20.064 14.9895 20.596 15.2935 21.052C15.6055 21.508 16.0295 21.86 16.5655 22.108C17.1095 22.356 17.7255 22.48 18.4135 22.48ZM23.6455 19.456L23.0455 18.052L22.5175 17.188L22.9975 16.996C22.9735 16.916 22.9535 16.836 22.9375 16.756C22.9295 16.668 22.9255 16.576 22.9255 16.48C22.9255 16.144 23.0055 15.84 23.1655 15.568C23.3255 15.296 23.5575 15.08 23.8615 14.92C24.1655 14.76 24.5375 14.68 24.9775 14.68C25.0895 14.68 25.1895 14.684 25.2775 14.692C25.3735 14.7 25.4655 14.716 25.5535 14.74V16.408C25.4015 16.384 25.2615 16.368 25.1335 16.36C25.0055 16.344 24.8775 16.336 24.7495 16.336C24.4135 16.336 24.1415 16.384 23.9335 16.48C23.7335 16.576 23.5895 16.7 23.5015 16.852C23.4135 16.996 23.3695 17.156 23.3695 17.332C23.3695 17.5 23.3935 17.684 23.4415 17.884C23.4895 18.076 23.5335 18.3 23.5735 18.556C23.6215 18.812 23.6455 19.112 23.6455 19.456ZM33.2534 28.228C31.9334 28.228 30.7894 27.948 29.8214 27.388C28.8534 26.828 28.1054 26.056 27.5774 25.072C27.0494 24.08 26.7854 22.94 26.7854 21.652C26.7854 20.348 27.0494 19.196 27.5774 18.196C28.1134 17.196 28.8574 16.412 29.8094 15.844C30.7694 15.276 31.8854 14.992 33.1574 14.992C34.4374 14.992 35.5454 15.272 36.4814 15.832C37.4174 16.392 38.1374 17.168 38.6414 18.16C39.1454 19.152 39.3974 20.296 39.3974 21.592C39.3974 21.744 39.3934 21.864 39.3854 21.952C39.3854 22.04 39.3774 22.116 39.3614 22.18H37.6574C37.6654 22.084 37.6694 21.98 37.6694 21.868C37.6774 21.748 37.6814 21.612 37.6814 21.46C37.6814 20.508 37.4974 19.664 37.1294 18.928C36.7694 18.184 36.2534 17.6 35.5814 17.176C34.9094 16.752 34.1014 16.54 33.1574 16.54C32.2374 16.54 31.4294 16.76 30.7334 17.2C30.0374 17.632 29.4974 18.232 29.1134 19C28.7294 19.76 28.5374 20.644 28.5374 21.652C28.5374 22.628 28.7254 23.492 29.1014 24.244C29.4854 24.988 30.0294 25.572 30.7334 25.996C31.4374 26.42 32.2734 26.632 33.2414 26.632C34.2494 26.632 35.1214 26.396 35.8574 25.924C36.6014 25.444 37.1534 24.792 37.5134 23.968L39.1454 24.58C38.6734 25.708 37.9174 26.6 36.8774 27.256C35.8454 27.904 34.6374 28.228 33.2534 28.228ZM27.8774 22.18V20.848H38.8454L39.3494 22.18H27.8774ZM45.6569 26.512H47.9369V28H41.3009V26.512H43.9289V16.708H41.3009V15.22H45.6569V26.512ZM53.0249 26.512V19.828C53.0249 18.78 52.7889 17.956 52.3169 17.356C51.8449 16.756 51.1009 16.456 50.0849 16.456C49.2609 16.456 48.5129 16.66 47.8409 17.068C47.1689 17.476 46.6369 18.068 46.2449 18.844C45.8529 19.62 45.6569 20.56 45.6569 21.664L45.2609 19.108H45.7409C45.8929 18.236 46.1849 17.496 46.6169 16.888C47.0489 16.272 47.6009 15.804 48.2729 15.484C48.9529 15.156 49.7329 14.992 50.6129 14.992C52.0049 14.992 53.0409 15.396 53.7209 16.204C54.4089 17.004 54.7529 18.136 54.7529 19.6V26.512H57.2129V28H50.7809V26.512H53.0249ZM65.0356 28.228C63.7156 28.228 62.5716 27.948 61.6036 27.388C60.6356 26.828 59.8876 26.056 59.3596 25.072C58.8316 24.08 58.5676 22.94 58.5676 21.652C58.5676 20.348 58.8316 19.196 59.3596 18.196C59.8956 17.196 60.6396 16.412 61.5916 15.844C62.5516 15.276 63.6676 14.992 64.9396 14.992C66.2196 14.992 67.3276 15.272 68.2636 15.832C69.1996 16.392 69.9196 17.168 70.4236 18.16C70.9276 19.152 71.1796 20.296 71.1796 21.592C71.1796 21.744 71.1756 21.864 71.1676 21.952C71.1676 22.04 71.1596 22.116 71.1436 22.18H69.4396C69.4476 22.084 69.4516 21.98 69.4516 21.868C69.4596 21.748 69.4636 21.612 69.4636 21.46C69.4636 20.508 69.2796 19.664 68.9116 18.928C68.5516 18.184 68.0356 17.6 67.3636 17.176C66.6916 16.752 65.8836 16.54 64.9396 16.54C64.0196 16.54 63.2116 16.76 62.5156 17.2C61.8196 17.632 61.2796 18.232 60.8956 19C60.5116 19.76 60.3196 20.644 60.3196 21.652C60.3196 22.628 60.5076 23.492 60.8836 24.244C61.2676 24.988 61.8116 25.572 62.5156 25.996C63.2196 26.42 64.0556 26.632 65.0236 26.632C66.0316 26.632 66.9036 26.396 67.6396 25.924C68.3836 25.444 68.9356 24.792 69.2956 23.968L70.9276 24.58C70.4556 25.708 69.6996 26.6 68.6596 27.256C67.6276 27.904 66.4196 28.228 65.0356 28.228ZM59.6596 22.18V20.848H70.6276L71.1316 22.18H59.6596ZM77.4391 26.512H79.9351V28H73.0831V26.512H75.7111V16.708H73.0831V15.22H77.4391V26.512ZM82.3471 17.056C82.2031 17.016 82.0471 16.984 81.8791 16.96C81.7191 16.936 81.5431 16.924 81.3511 16.924C80.1671 16.924 79.2191 17.368 78.5071 18.256C77.7951 19.136 77.4391 20.36 77.4391 21.928L77.0311 19.132H77.5231C77.6351 18.284 77.8671 17.556 78.2191 16.948C78.5711 16.332 79.0271 15.86 79.5871 15.532C80.1551 15.196 80.8191 15.028 81.5791 15.028C81.7231 15.028 81.8511 15.036 81.9631 15.052C82.0831 15.06 82.2111 15.076 82.3471 15.1V17.056ZM90.0597 28.228C88.7317 28.228 87.5677 27.948 86.5677 27.388C85.5677 26.82 84.7877 26.044 84.2277 25.06C83.6677 24.076 83.3877 22.94 83.3877 21.652C83.3877 20.356 83.6677 19.208 84.2277 18.208C84.7877 17.2 85.5677 16.412 86.5677 15.844C87.5677 15.276 88.7317 14.992 90.0597 14.992C91.3877 14.992 92.5517 15.276 93.5517 15.844C94.5517 16.412 95.3317 17.2 95.8917 18.208C96.4517 19.208 96.7317 20.356 96.7317 21.652C96.7317 22.94 96.4517 24.076 95.8917 25.06C95.3317 26.044 94.5517 26.82 93.5517 27.388C92.5517 27.948 91.3877 28.228 90.0597 28.228ZM90.0597 26.632C91.0197 26.632 91.8637 26.424 92.5917 26.008C93.3277 25.592 93.8997 25.012 94.3077 24.268C94.7237 23.516 94.9317 22.644 94.9317 21.652C94.9317 20.652 94.7237 19.772 94.3077 19.012C93.8997 18.252 93.3277 17.66 92.5917 17.236C91.8637 16.804 91.0197 16.588 90.0597 16.588C89.0997 16.588 88.2517 16.804 87.5157 17.236C86.7877 17.66 86.2157 18.252 85.7997 19.012C85.3917 19.772 85.1877 20.652 85.1877 21.652C85.1877 22.644 85.3917 23.516 85.7997 24.268C86.2157 25.012 86.7877 25.592 87.5157 26.008C88.2517 26.424 89.0997 26.632 90.0597 26.632ZM109.285 16.708H106.813V15.22H111.013V26.512H113.509V28H109.285V16.708ZM102.145 15.22V23.368C102.145 24.416 102.377 25.244 102.841 25.852C103.313 26.452 104.053 26.752 105.061 26.752C105.869 26.752 106.589 26.548 107.221 26.14C107.861 25.724 108.365 25.128 108.733 24.352C109.101 23.576 109.285 22.644 109.285 21.556L109.705 24.112H109.201C108.985 25.488 108.449 26.528 107.593 27.232C106.745 27.928 105.701 28.276 104.461 28.276C103.085 28.276 102.065 27.868 101.401 27.052C100.745 26.236 100.417 25.104 100.417 23.656V16.708H98.1006V15.22H102.145ZM121.222 28.228C120.366 28.228 119.642 28.1 119.05 27.844C118.466 27.588 118.002 27.248 117.658 26.824C117.314 26.392 117.09 25.912 116.986 25.384H116.554L116.902 23.968C117.054 24.808 117.47 25.492 118.15 26.02C118.838 26.548 119.73 26.812 120.826 26.812C121.762 26.812 122.486 26.624 122.998 26.248C123.518 25.864 123.778 25.308 123.778 24.58C123.778 23.916 123.522 23.4 123.01 23.032C122.498 22.664 121.602 22.384 120.322 22.192C118.49 21.904 117.186 21.452 116.41 20.836C115.634 20.212 115.246 19.392 115.246 18.376C115.246 17.352 115.602 16.532 116.314 15.916C117.026 15.3 118.018 14.992 119.29 14.992C120.13 14.992 120.822 15.12 121.366 15.376C121.918 15.632 122.342 15.976 122.638 16.408C122.934 16.832 123.126 17.3 123.214 17.812H123.646L123.298 19.168C123.154 18.352 122.762 17.688 122.122 17.176C121.482 16.656 120.646 16.396 119.614 16.396C118.782 16.396 118.13 16.572 117.658 16.924C117.194 17.276 116.962 17.744 116.962 18.328C116.962 18.944 117.254 19.428 117.838 19.78C118.422 20.124 119.342 20.396 120.598 20.596C122.374 20.876 123.634 21.336 124.378 21.976C125.122 22.616 125.494 23.48 125.494 24.568C125.494 25.712 125.126 26.608 124.39 27.256C123.662 27.904 122.606 28.228 121.222 28.228ZM115.174 28V23.968H116.902V28H115.174ZM123.298 19.168V15.22H125.026V19.168H123.298ZM134.052 33.04V31.552H136.608V16.708H134.052V15.22H138.336V19.792L138.288 21.16V21.916L138.336 22.996V31.552H140.844V33.04H134.052ZM143.16 28.24C142.104 28.24 141.156 28.008 140.316 27.544C139.484 27.08 138.796 26.42 138.252 25.564C137.708 24.7 137.348 23.668 137.172 22.468L138.288 21.64C138.288 22.624 138.476 23.496 138.852 24.256C139.228 25.008 139.768 25.6 140.472 26.032C141.176 26.464 142.012 26.68 142.98 26.68C143.932 26.68 144.76 26.464 145.464 26.032C146.168 25.6 146.708 25.004 147.084 24.244C147.468 23.476 147.66 22.6 147.66 21.616C147.66 20.616 147.464 19.736 147.072 18.976C146.68 18.216 146.132 17.62 145.428 17.188C144.724 16.748 143.908 16.528 142.98 16.528C142.028 16.528 141.2 16.748 140.496 17.188C139.792 17.62 139.248 18.22 138.864 18.988C138.48 19.756 138.288 20.64 138.288 21.64L138.012 18.916H138.42C138.564 18.212 138.844 17.564 139.26 16.972C139.676 16.372 140.224 15.892 140.904 15.532C141.592 15.164 142.408 14.98 143.352 14.98C144.248 14.98 145.068 15.144 145.812 15.472C146.556 15.792 147.196 16.252 147.732 16.852C148.276 17.444 148.696 18.144 148.992 18.952C149.296 19.76 149.448 20.648 149.448 21.616C149.448 22.904 149.188 24.048 148.668 25.048C148.148 26.048 147.416 26.832 146.472 27.4C145.536 27.96 144.432 28.24 143.16 28.24ZM158.097 28.228C156.777 28.228 155.633 27.948 154.665 27.388C153.697 26.828 152.949 26.056 152.421 25.072C151.893 24.08 151.629 22.94 151.629 21.652C151.629 20.348 151.893 19.196 152.421 18.196C152.957 17.196 153.701 16.412 154.653 15.844C155.613 15.276 156.729 14.992 158.001 14.992C159.281 14.992 160.389 15.272 161.325 15.832C162.261 16.392 162.981 17.168 163.485 18.16C163.989 19.152 164.241 20.296 164.241 21.592C164.241 21.744 164.237 21.864 164.229 21.952C164.229 22.04 164.221 22.116 164.205 22.18H162.501C162.509 22.084 162.513 21.98 162.513 21.868C162.521 21.748 162.525 21.612 162.525 21.46C162.525 20.508 162.341 19.664 161.973 18.928C161.613 18.184 161.097 17.6 160.425 17.176C159.753 16.752 158.945 16.54 158.001 16.54C157.081 16.54 156.273 16.76 155.577 17.2C154.881 17.632 154.341 18.232 153.957 19C153.573 19.76 153.381 20.644 153.381 21.652C153.381 22.628 153.569 23.492 153.945 24.244C154.329 24.988 154.873 25.572 155.577 25.996C156.281 26.42 157.117 26.632 158.085 26.632C159.093 26.632 159.965 26.396 160.701 25.924C161.445 25.444 161.997 24.792 162.357 23.968L163.989 24.58C163.517 25.708 162.761 26.6 161.721 27.256C160.689 27.904 159.481 28.228 158.097 28.228ZM152.721 22.18V20.848H163.689L164.193 22.18H152.721ZM170.501 26.512H172.997V28H166.145V26.512H168.773V16.708H166.145V15.22H170.501V26.512ZM175.409 17.056C175.265 17.016 175.109 16.984 174.941 16.96C174.781 16.936 174.605 16.924 174.413 16.924C173.229 16.924 172.281 17.368 171.569 18.256C170.857 19.136 170.501 20.36 170.501 21.928L170.093 19.132H170.585C170.697 18.284 170.929 17.556 171.281 16.948C171.633 16.332 172.089 15.86 172.649 15.532C173.217 15.196 173.881 15.028 174.641 15.028C174.785 15.028 174.913 15.036 175.025 15.052C175.145 15.06 175.273 15.076 175.409 15.1V17.056ZM183.064 28.228C182.208 28.228 181.484 28.1 180.892 27.844C180.308 27.588 179.844 27.248 179.5 26.824C179.156 26.392 178.932 25.912 178.828 25.384H178.396L178.744 23.968C178.896 24.808 179.312 25.492 179.992 26.02C180.68 26.548 181.572 26.812 182.668 26.812C183.604 26.812 184.328 26.624 184.84 26.248C185.36 25.864 185.62 25.308 185.62 24.58C185.62 23.916 185.364 23.4 184.852 23.032C184.34 22.664 183.444 22.384 182.164 22.192C180.332 21.904 179.028 21.452 178.252 20.836C177.476 20.212 177.088 19.392 177.088 18.376C177.088 17.352 177.444 16.532 178.156 15.916C178.868 15.3 179.86 14.992 181.132 14.992C181.972 14.992 182.664 15.12 183.208 15.376C183.76 15.632 184.184 15.976 184.48 16.408C184.776 16.832 184.968 17.3 185.056 17.812H185.488L185.14 19.168C184.996 18.352 184.604 17.688 183.964 17.176C183.324 16.656 182.488 16.396 181.456 16.396C180.624 16.396 179.972 16.572 179.5 16.924C179.036 17.276 178.804 17.744 178.804 18.328C178.804 18.944 179.096 19.428 179.68 19.78C180.264 20.124 181.184 20.396 182.44 20.596C184.216 20.876 185.476 21.336 186.22 21.976C186.964 22.616 187.336 23.48 187.336 24.568C187.336 25.712 186.968 26.608 186.232 27.256C185.504 27.904 184.448 28.228 183.064 28.228ZM177.016 28V23.968H178.744V28H177.016ZM185.14 19.168V15.22H186.868V19.168H185.14ZM196.165 28.228C194.837 28.228 193.673 27.948 192.673 27.388C191.673 26.82 190.893 26.044 190.333 25.06C189.773 24.076 189.493 22.94 189.493 21.652C189.493 20.356 189.773 19.208 190.333 18.208C190.893 17.2 191.673 16.412 192.673 15.844C193.673 15.276 194.837 14.992 196.165 14.992C197.493 14.992 198.657 15.276 199.657 15.844C200.657 16.412 201.437 17.2 201.997 18.208C202.557 19.208 202.837 20.356 202.837 21.652C202.837 22.94 202.557 24.076 201.997 25.06C201.437 26.044 200.657 26.82 199.657 27.388C198.657 27.948 197.493 28.228 196.165 28.228ZM196.165 26.632C197.125 26.632 197.969 26.424 198.697 26.008C199.433 25.592 200.005 25.012 200.413 24.268C200.829 23.516 201.037 22.644 201.037 21.652C201.037 20.652 200.829 19.772 200.413 19.012C200.005 18.252 199.433 17.66 198.697 17.236C197.969 16.804 197.125 16.588 196.165 16.588C195.205 16.588 194.357 16.804 193.621 17.236C192.893 17.66 192.321 18.252 191.905 19.012C191.497 19.772 191.293 20.652 191.293 21.652C191.293 22.644 191.497 23.516 191.905 24.268C192.321 25.012 192.893 25.592 193.621 26.008C194.357 26.424 195.205 26.632 196.165 26.632ZM209.186 26.512H211.466V28H204.83V26.512H207.458V16.708H204.83V15.22H209.186V26.512ZM216.554 26.512V19.828C216.554 18.78 216.318 17.956 215.846 17.356C215.374 16.756 214.63 16.456 213.614 16.456C212.79 16.456 212.042 16.66 211.37 17.068C210.698 17.476 210.166 18.068 209.774 18.844C209.382 19.62 209.186 20.56 209.186 21.664L208.79 19.108H209.27C209.422 18.236 209.714 17.496 210.146 16.888C210.578 16.272 211.13 15.804 211.802 15.484C212.482 15.156 213.262 14.992 214.142 14.992C215.534 14.992 216.57 15.396 217.25 16.204C217.938 17.004 218.282 18.136 218.282 19.6V26.512H220.742V28H214.31V26.512H216.554ZM232.355 28C232.027 28 231.775 27.896 231.599 27.688C231.431 27.48 231.347 27.188 231.347 26.812V22.972L231.503 22.576L231.419 21.124L231.347 20.368V19.396C231.347 18.74 231.211 18.204 230.939 17.788C230.675 17.372 230.291 17.064 229.787 16.864C229.283 16.664 228.675 16.564 227.963 16.564C226.899 16.564 226.075 16.776 225.491 17.2C224.915 17.616 224.531 18.244 224.339 19.084L222.683 18.736C222.843 17.896 223.143 17.2 223.583 16.648C224.023 16.088 224.607 15.672 225.335 15.4C226.071 15.12 226.967 14.98 228.023 14.98C229.127 14.98 230.051 15.136 230.795 15.448C231.547 15.752 232.115 16.22 232.499 16.852C232.883 17.484 233.075 18.3 233.075 19.3V26.512H234.959V28H232.355ZM226.331 28.168C225.003 28.168 223.995 27.876 223.307 27.292C222.619 26.7 222.275 25.832 222.275 24.688C222.275 23.632 222.579 22.828 223.187 22.276C223.795 21.716 224.771 21.296 226.115 21.016L231.863 19.792V21.028L226.403 22.264C225.619 22.448 225.031 22.72 224.639 23.08C224.255 23.432 224.063 23.932 224.063 24.58C224.063 25.284 224.279 25.812 224.711 26.164C225.143 26.508 225.775 26.68 226.607 26.68C227.527 26.68 228.351 26.468 229.079 26.044C229.807 25.62 230.379 24.996 230.795 24.172C231.211 23.348 231.419 22.332 231.419 21.124L231.875 23.956H231.263C231.063 25.292 230.543 26.328 229.703 27.064C228.871 27.8 227.747 28.168 226.331 28.168ZM240.504 26.512H243.132V28H236.148V26.512H238.776V10.528H236.148V9.04H240.504V26.512ZM248.975 26.512H251.435V28H244.655V26.512H247.247V16.708H244.655V15.22H248.975V26.512ZM246.923 9.832H249.131V12.124H246.923V9.832ZM256.205 24.616C256.205 25.288 256.333 25.796 256.589 26.14C256.845 26.476 257.237 26.644 257.765 26.644C258.285 26.644 258.677 26.472 258.941 26.128C259.205 25.776 259.337 25.272 259.337 24.616V23.428H260.897V24.604C260.897 25.372 260.781 26.028 260.549 26.572C260.325 27.108 259.981 27.52 259.517 27.808C259.053 28.088 258.457 28.228 257.729 28.228C256.985 28.228 256.373 28.084 255.893 27.796C255.413 27.5 255.057 27.084 254.825 26.548C254.593 26.012 254.477 25.368 254.477 24.616L254.489 16.708H252.209V15.22H254.489V11.98H256.217V15.22H260.729L260.717 16.708H256.217L256.205 24.616ZM270.193 15.22H276.145V16.708H274.549L269.269 29.704C268.837 30.776 268.169 31.6 267.265 32.176C266.369 32.752 265.253 33.04 263.917 33.04H262.657V31.516H263.917C264.813 31.516 265.593 31.328 266.257 30.952C266.929 30.584 267.417 30.04 267.721 29.32L268.633 27.076L268.333 28.564L263.449 16.708H261.685V15.22H267.757V16.708H265.333L269.641 27.472L268.069 26.08H269.725L268.825 26.896L272.821 16.708H270.193V15.22Z" fill="black"/>
<path d="M1 6.35211L6 1V39L1 33.6479V6.35211Z" fill="white"/>
<path d="M6 1L1 6.35211V33.6479L6 39" stroke="black" stroke-linecap="round"/>
<path d="M286 33.6479L281 39L281 1L286 6.35211L286 33.6479Z" fill="white"/>
<path d="M281 39L286 33.6479L286 6.35211L281 1" stroke="black" stroke-linecap="round"/>
</svg>
