<svg width="375" height="40" viewBox="0 0 375 40" fill="none" xmlns="http://www.w3.org/2000/svg">
<path d="M6 1H369V39H6V1Z" fill="white"/>
<path d="M6 1.5H369V0.5H6V1.5ZM369 38.5H6V39.5H369V38.5Z" fill="black"/>
<path d="M18.3954 33.304C17.2754 33.304 16.2594 33.196 15.3474 32.98C14.4434 32.772 13.7234 32.44 13.1874 31.984C12.6514 31.528 12.3834 30.924 12.3834 30.172C12.3834 29.42 12.6514 28.848 13.1874 28.456C13.7314 28.072 14.4314 27.82 15.2874 27.7V27.496L17.4234 27.7C16.5354 27.7 15.8394 27.804 15.3354 28.012C14.8314 28.228 14.4754 28.5 14.2674 28.828C14.0594 29.164 13.9554 29.508 13.9554 29.86C13.9554 30.404 14.1554 30.828 14.5554 31.132C14.9554 31.436 15.4914 31.652 16.1634 31.78C16.8434 31.908 17.6034 31.972 18.4434 31.972C20.1314 31.972 21.3634 31.744 22.1394 31.288C22.9234 30.84 23.3154 30.212 23.3154 29.404C23.3154 28.268 22.5794 27.7 21.1074 27.7H16.2114C15.2514 27.7 14.4954 27.528 13.9434 27.184C13.3994 26.832 13.1274 26.328 13.1274 25.672C13.1274 25.048 13.3754 24.572 13.8714 24.244C14.3674 23.908 15.0754 23.704 15.9954 23.632V23.272L18.1794 23.896H16.8714C16.1834 23.896 15.6594 23.992 15.2994 24.184C14.9394 24.368 14.7594 24.652 14.7594 25.036C14.7594 25.396 14.9234 25.656 15.2514 25.816C15.5874 25.968 16.0914 26.044 16.7634 26.044H21.0594C21.8834 26.044 22.5834 26.18 23.1594 26.452C23.7434 26.716 24.1834 27.096 24.4794 27.592C24.7834 28.088 24.9354 28.68 24.9354 29.368C24.9354 30.104 24.7274 30.768 24.3114 31.36C23.8954 31.96 23.2074 32.432 22.2474 32.776C21.2954 33.128 20.0114 33.304 18.3954 33.304ZM18.1794 23.896C17.1634 23.896 16.2594 23.712 15.4674 23.344C14.6754 22.976 14.0514 22.46 13.5954 21.796C13.1394 21.132 12.9114 20.352 12.9114 19.456C12.9114 18.56 13.1354 17.78 13.5834 17.116C14.0394 16.444 14.6594 15.924 15.4434 15.556C16.2354 15.18 17.1474 14.992 18.1794 14.992C19.2274 14.992 20.1514 15.188 20.9514 15.58C21.7594 15.972 22.3754 16.516 22.7994 17.212C23.0074 17.532 23.1594 17.88 23.2554 18.256C23.3594 18.624 23.4114 19.024 23.4114 19.456C23.4114 20.352 23.1874 21.132 22.7394 21.796C22.2914 22.46 21.6714 22.976 20.8794 23.344C20.0954 23.712 19.1954 23.896 18.1794 23.896ZM18.1794 22.48C18.8594 22.48 19.4634 22.356 19.9914 22.108C20.5274 21.86 20.9474 21.508 21.2514 21.052C21.5634 20.596 21.7194 20.064 21.7194 19.456C21.7194 18.848 21.5634 18.316 21.2514 17.86C20.9474 17.396 20.5274 17.04 19.9914 16.792C19.4634 16.536 18.8594 16.408 18.1794 16.408C17.4834 16.408 16.8674 16.536 16.3314 16.792C15.7954 17.04 15.3714 17.396 15.0594 17.86C14.7554 18.316 14.6034 18.848 14.6034 19.456C14.6034 20.064 14.7554 20.596 15.0594 21.052C15.3714 21.508 15.7954 21.86 16.3314 22.108C16.8754 22.356 17.4914 22.48 18.1794 22.48ZM23.4114 19.456L22.8114 18.052L22.2834 17.188L22.7634 16.996C22.7394 16.916 22.7194 16.836 22.7034 16.756C22.6954 16.668 22.6914 16.576 22.6914 16.48C22.6914 16.144 22.7714 15.84 22.9314 15.568C23.0914 15.296 23.3234 15.08 23.6274 14.92C23.9314 14.76 24.3034 14.68 24.7434 14.68C24.8554 14.68 24.9554 14.684 25.0434 14.692C25.1394 14.7 25.2314 14.716 25.3194 14.74V16.408C25.1674 16.384 25.0274 16.368 24.8994 16.36C24.7714 16.344 24.6434 16.336 24.5154 16.336C24.1794 16.336 23.9074 16.384 23.6994 16.48C23.4994 16.576 23.3554 16.7 23.2674 16.852C23.1794 16.996 23.1354 17.156 23.1354 17.332C23.1354 17.5 23.1594 17.684 23.2074 17.884C23.2554 18.076 23.2994 18.3 23.3394 18.556C23.3874 18.812 23.4114 19.112 23.4114 19.456ZM33.0193 28.228C31.6993 28.228 30.5553 27.948 29.5873 27.388C28.6193 26.828 27.8713 26.056 27.3433 25.072C26.8153 24.08 26.5513 22.94 26.5513 21.652C26.5513 20.348 26.8153 19.196 27.3433 18.196C27.8793 17.196 28.6233 16.412 29.5753 15.844C30.5353 15.276 31.6513 14.992 32.9233 14.992C34.2033 14.992 35.3113 15.272 36.2473 15.832C37.1833 16.392 37.9033 17.168 38.4073 18.16C38.9113 19.152 39.1633 20.296 39.1633 21.592C39.1633 21.744 39.1593 21.864 39.1513 21.952C39.1513 22.04 39.1433 22.116 39.1273 22.18H37.4233C37.4313 22.084 37.4353 21.98 37.4353 21.868C37.4433 21.748 37.4473 21.612 37.4473 21.46C37.4473 20.508 37.2633 19.664 36.8953 18.928C36.5353 18.184 36.0193 17.6 35.3473 17.176C34.6753 16.752 33.8673 16.54 32.9233 16.54C32.0033 16.54 31.1953 16.76 30.4993 17.2C29.8033 17.632 29.2633 18.232 28.8793 19C28.4953 19.76 28.3033 20.644 28.3033 21.652C28.3033 22.628 28.4913 23.492 28.8673 24.244C29.2513 24.988 29.7953 25.572 30.4993 25.996C31.2033 26.42 32.0393 26.632 33.0073 26.632C34.0153 26.632 34.8873 26.396 35.6233 25.924C36.3673 25.444 36.9193 24.792 37.2793 23.968L38.9113 24.58C38.4393 25.708 37.6833 26.6 36.6433 27.256C35.6113 27.904 34.4033 28.228 33.0193 28.228ZM27.6433 22.18V20.848H38.6113L39.1153 22.18H27.6433ZM44.4868 24.616C44.4868 25.288 44.6148 25.796 44.8708 26.14C45.1268 26.476 45.5188 26.644 46.0468 26.644C46.5668 26.644 46.9588 26.472 47.2228 26.128C47.4868 25.776 47.6188 25.272 47.6188 24.616V23.428H49.1788V24.604C49.1788 25.372 49.0628 26.028 48.8308 26.572C48.6068 27.108 48.2628 27.52 47.7988 27.808C47.3348 28.088 46.7388 28.228 46.0108 28.228C45.2668 28.228 44.6548 28.084 44.1748 27.796C43.6948 27.5 43.3388 27.084 43.1068 26.548C42.8748 26.012 42.7588 25.368 42.7588 24.616L42.7708 16.708H40.4908V15.22H42.7708V11.98H44.4988V15.22H49.0108L48.9988 16.708H44.4988L44.4868 24.616ZM68.0181 28C67.6901 28 67.4381 27.896 67.2621 27.688C67.0941 27.48 67.0101 27.188 67.0101 26.812V22.972L67.1661 22.576L67.0821 21.124L67.0101 20.368V19.396C67.0101 18.74 66.8741 18.204 66.6021 17.788C66.3381 17.372 65.9541 17.064 65.4501 16.864C64.9461 16.664 64.3381 16.564 63.6261 16.564C62.5621 16.564 61.7381 16.776 61.1541 17.2C60.5781 17.616 60.1941 18.244 60.0021 19.084L58.3461 18.736C58.5061 17.896 58.8061 17.2 59.2461 16.648C59.6861 16.088 60.2701 15.672 60.9981 15.4C61.7341 15.12 62.6301 14.98 63.6861 14.98C64.7901 14.98 65.7141 15.136 66.4581 15.448C67.2101 15.752 67.7781 16.22 68.1621 16.852C68.5461 17.484 68.7381 18.3 68.7381 19.3V26.512H70.6221V28H68.0181ZM61.9941 28.168C60.6661 28.168 59.6581 27.876 58.9701 27.292C58.2821 26.7 57.9381 25.832 57.9381 24.688C57.9381 23.632 58.2421 22.828 58.8501 22.276C59.4581 21.716 60.4341 21.296 61.7781 21.016L67.5261 19.792V21.028L62.0661 22.264C61.2821 22.448 60.6941 22.72 60.3021 23.08C59.9181 23.432 59.7261 23.932 59.7261 24.58C59.7261 25.284 59.9421 25.812 60.3741 26.164C60.8061 26.508 61.4381 26.68 62.2701 26.68C63.1901 26.68 64.0141 26.468 64.7421 26.044C65.4701 25.62 66.0421 24.996 66.4581 24.172C66.8741 23.348 67.0821 22.332 67.0821 21.124L67.5381 23.956H66.9261C66.7261 25.292 66.2061 26.328 65.3661 27.064C64.5341 27.8 63.4101 28.168 61.9941 28.168ZM76.1672 26.512H78.7952V28H71.8112V26.512H74.4392V10.528H71.8112V9.04H76.1672V26.512ZM86.7206 28.228C85.3926 28.228 84.2286 27.948 83.2286 27.388C82.2286 26.82 81.4486 26.044 80.8886 25.06C80.3286 24.076 80.0486 22.94 80.0486 21.652C80.0486 20.356 80.3286 19.208 80.8886 18.208C81.4486 17.2 82.2286 16.412 83.2286 15.844C84.2286 15.276 85.3926 14.992 86.7206 14.992C88.0486 14.992 89.2126 15.276 90.2126 15.844C91.2126 16.412 91.9926 17.2 92.5526 18.208C93.1126 19.208 93.3926 20.356 93.3926 21.652C93.3926 22.94 93.1126 24.076 92.5526 25.06C91.9926 26.044 91.2126 26.82 90.2126 27.388C89.2126 27.948 88.0486 28.228 86.7206 28.228ZM86.7206 26.632C87.6806 26.632 88.5246 26.424 89.2526 26.008C89.9886 25.592 90.5606 25.012 90.9686 24.268C91.3846 23.516 91.5926 22.644 91.5926 21.652C91.5926 20.652 91.3846 19.772 90.9686 19.012C90.5606 18.252 89.9886 17.66 89.2526 17.236C88.5246 16.804 87.6806 16.588 86.7206 16.588C85.7606 16.588 84.9126 16.804 84.1766 17.236C83.4486 17.66 82.8766 18.252 82.4606 19.012C82.0526 19.772 81.8486 20.652 81.8486 21.652C81.8486 22.644 82.0526 23.516 82.4606 24.268C82.8766 25.012 83.4486 25.592 84.1766 26.008C84.9126 26.424 85.7606 26.632 86.7206 26.632ZM99.7416 26.512H102.022V28H95.3856V26.512H98.0136V16.708H95.3856V15.22H99.7416V26.512ZM107.11 26.512V19.828C107.11 18.78 106.874 17.956 106.402 17.356C105.93 16.756 105.186 16.456 104.17 16.456C103.346 16.456 102.598 16.66 101.926 17.068C101.254 17.476 100.722 18.068 100.33 18.844C99.9376 19.62 99.7416 20.56 99.7416 21.664L99.3456 19.108H99.8256C99.9776 18.236 100.27 17.496 100.702 16.888C101.134 16.272 101.686 15.804 102.358 15.484C103.038 15.156 103.818 14.992 104.698 14.992C106.09 14.992 107.126 15.396 107.806 16.204C108.494 17.004 108.838 18.136 108.838 19.6V26.512H111.298V28H104.866V26.512H107.11ZM118.759 33.304C117.639 33.304 116.623 33.196 115.711 32.98C114.807 32.772 114.087 32.44 113.551 31.984C113.015 31.528 112.747 30.924 112.747 30.172C112.747 29.42 113.015 28.848 113.551 28.456C114.095 28.072 114.795 27.82 115.651 27.7V27.496L117.787 27.7C116.899 27.7 116.203 27.804 115.699 28.012C115.195 28.228 114.839 28.5 114.631 28.828C114.423 29.164 114.319 29.508 114.319 29.86C114.319 30.404 114.519 30.828 114.919 31.132C115.319 31.436 115.855 31.652 116.527 31.78C117.207 31.908 117.967 31.972 118.807 31.972C120.495 31.972 121.727 31.744 122.503 31.288C123.287 30.84 123.679 30.212 123.679 29.404C123.679 28.268 122.943 27.7 121.471 27.7H116.575C115.615 27.7 114.859 27.528 114.307 27.184C113.763 26.832 113.491 26.328 113.491 25.672C113.491 25.048 113.739 24.572 114.235 24.244C114.731 23.908 115.439 23.704 116.359 23.632V23.272L118.543 23.896H117.235C116.547 23.896 116.023 23.992 115.663 24.184C115.303 24.368 115.123 24.652 115.123 25.036C115.123 25.396 115.287 25.656 115.615 25.816C115.951 25.968 116.455 26.044 117.127 26.044H121.423C122.247 26.044 122.947 26.18 123.523 26.452C124.107 26.716 124.547 27.096 124.843 27.592C125.147 28.088 125.299 28.68 125.299 29.368C125.299 30.104 125.091 30.768 124.675 31.36C124.259 31.96 123.571 32.432 122.611 32.776C121.659 33.128 120.375 33.304 118.759 33.304ZM118.543 23.896C117.527 23.896 116.623 23.712 115.831 23.344C115.039 22.976 114.415 22.46 113.959 21.796C113.503 21.132 113.275 20.352 113.275 19.456C113.275 18.56 113.499 17.78 113.947 17.116C114.403 16.444 115.023 15.924 115.807 15.556C116.599 15.18 117.511 14.992 118.543 14.992C119.591 14.992 120.515 15.188 121.315 15.58C122.123 15.972 122.739 16.516 123.163 17.212C123.371 17.532 123.523 17.88 123.619 18.256C123.723 18.624 123.775 19.024 123.775 19.456C123.775 20.352 123.551 21.132 123.103 21.796C122.655 22.46 122.035 22.976 121.243 23.344C120.459 23.712 119.559 23.896 118.543 23.896ZM118.543 22.48C119.223 22.48 119.827 22.356 120.355 22.108C120.891 21.86 121.311 21.508 121.615 21.052C121.927 20.596 122.083 20.064 122.083 19.456C122.083 18.848 121.927 18.316 121.615 17.86C121.311 17.396 120.891 17.04 120.355 16.792C119.827 16.536 119.223 16.408 118.543 16.408C117.847 16.408 117.231 16.536 116.695 16.792C116.159 17.04 115.735 17.396 115.423 17.86C115.119 18.316 114.967 18.848 114.967 19.456C114.967 20.064 115.119 20.596 115.423 21.052C115.735 21.508 116.159 21.86 116.695 22.108C117.239 22.356 117.855 22.48 118.543 22.48ZM123.775 19.456L123.175 18.052L122.647 17.188L123.127 16.996C123.103 16.916 123.083 16.836 123.067 16.756C123.059 16.668 123.055 16.576 123.055 16.48C123.055 16.144 123.135 15.84 123.295 15.568C123.455 15.296 123.687 15.08 123.991 14.92C124.295 14.76 124.667 14.68 125.107 14.68C125.219 14.68 125.319 14.684 125.407 14.692C125.503 14.7 125.595 14.716 125.683 14.74V16.408C125.531 16.384 125.391 16.368 125.263 16.36C125.135 16.344 125.007 16.336 124.879 16.336C124.543 16.336 124.271 16.384 124.063 16.48C123.863 16.576 123.719 16.7 123.631 16.852C123.543 16.996 123.499 17.156 123.499 17.332C123.499 17.5 123.523 17.684 123.571 17.884C123.619 18.076 123.663 18.3 123.703 18.556C123.751 18.812 123.775 19.112 123.775 19.456ZM149.225 15.22H155.021V16.708H153.461L149.465 28H147.461L143.417 16.672L144.785 18.412H143.153L144.521 16.672L140.717 28H138.701L134.501 16.708H132.929V15.22H138.809V16.708H136.349L140.273 28L138.833 26.332H140.501L139.193 28L143.105 16.708H141.101V15.22H147.029V16.708H145.073L149.141 28L147.677 26.332H149.321L148.085 28L151.805 16.708H149.225V15.22ZM160.637 26.512H163.097V28H156.317V26.512H158.909V16.708H156.317V15.22H160.637V26.512ZM158.585 9.832H160.793V12.124H158.585V9.832ZM167.867 24.616C167.867 25.288 167.995 25.796 168.251 26.14C168.507 26.476 168.899 26.644 169.427 26.644C169.947 26.644 170.339 26.472 170.603 26.128C170.867 25.776 170.999 25.272 170.999 24.616V23.428H172.559V24.604C172.559 25.372 172.443 26.028 172.211 26.572C171.987 27.108 171.643 27.52 171.179 27.808C170.715 28.088 170.119 28.228 169.391 28.228C168.647 28.228 168.035 28.084 167.555 27.796C167.075 27.5 166.719 27.084 166.487 26.548C166.255 26.012 166.139 25.368 166.139 24.616L166.151 16.708H163.871V15.22H166.151V11.98H167.879V15.22H172.391L172.379 16.708H167.879L167.867 24.616ZM178.064 26.512H180.332V28H173.768V26.512H176.336V10.528H173.768V9.04H178.064V26.512ZM185.432 26.512V19.792C185.432 18.752 185.196 17.936 184.724 17.344C184.26 16.752 183.528 16.456 182.528 16.456C181.688 16.456 180.932 16.672 180.26 17.104C179.588 17.528 179.052 18.148 178.652 18.964C178.26 19.772 178.064 20.748 178.064 21.892L177.656 19.336H178.136C178.296 18.4 178.596 17.608 179.036 16.96C179.484 16.304 180.052 15.804 180.74 15.46C181.428 15.116 182.216 14.944 183.104 14.944C184.496 14.944 185.52 15.344 186.176 16.144C186.832 16.944 187.16 18.068 187.16 19.516V26.512H189.608V28H183.176V26.512H185.432ZM215.335 28V26.512H217.591V19.804C217.591 18.756 217.359 17.936 216.895 17.344C216.431 16.752 215.707 16.456 214.723 16.456C213.931 16.456 213.227 16.664 212.611 17.08C211.995 17.496 211.511 18.092 211.159 18.868C210.807 19.644 210.631 20.576 210.631 21.664L210.211 19.096H210.703C210.903 17.704 211.419 16.664 212.251 15.976C213.091 15.288 214.111 14.944 215.311 14.944C216.663 14.944 217.667 15.344 218.323 16.144C218.987 16.944 219.319 18.072 219.319 19.528V26.512H221.767V28H215.335ZM197.647 28V26.512H200.203V16.708H197.647V15.22H201.931V26.512H204.199V28H197.647ZM206.647 28V26.512H208.903V19.804C208.903 18.756 208.671 17.936 208.207 17.344C207.743 16.752 207.019 16.456 206.035 16.456C205.243 16.456 204.539 16.664 203.923 17.08C203.307 17.496 202.819 18.092 202.459 18.868C202.107 19.644 201.931 20.576 201.931 21.664L201.523 19.096H202.015C202.207 17.704 202.723 16.664 203.563 15.976C204.403 15.288 205.423 14.944 206.623 14.944C207.975 14.944 208.979 15.344 209.635 16.144C210.299 16.944 210.631 18.072 210.631 19.528V26.512H213.079V28H206.647ZM233.375 28C233.047 28 232.795 27.896 232.619 27.688C232.451 27.48 232.367 27.188 232.367 26.812V22.972L232.523 22.576L232.439 21.124L232.367 20.368V19.396C232.367 18.74 232.231 18.204 231.959 17.788C231.695 17.372 231.311 17.064 230.807 16.864C230.303 16.664 229.695 16.564 228.983 16.564C227.919 16.564 227.095 16.776 226.511 17.2C225.935 17.616 225.551 18.244 225.359 19.084L223.703 18.736C223.863 17.896 224.163 17.2 224.603 16.648C225.043 16.088 225.627 15.672 226.355 15.4C227.091 15.12 227.987 14.98 229.043 14.98C230.147 14.98 231.071 15.136 231.815 15.448C232.567 15.752 233.135 16.22 233.519 16.852C233.903 17.484 234.095 18.3 234.095 19.3V26.512H235.979V28H233.375ZM227.351 28.168C226.023 28.168 225.015 27.876 224.327 27.292C223.639 26.7 223.295 25.832 223.295 24.688C223.295 23.632 223.599 22.828 224.207 22.276C224.815 21.716 225.791 21.296 227.135 21.016L232.883 19.792V21.028L227.423 22.264C226.639 22.448 226.051 22.72 225.659 23.08C225.275 23.432 225.083 23.932 225.083 24.58C225.083 25.284 225.299 25.812 225.731 26.164C226.163 26.508 226.795 26.68 227.627 26.68C228.547 26.68 229.371 26.468 230.099 26.044C230.827 25.62 231.399 24.996 231.815 24.172C232.231 23.348 232.439 22.332 232.439 21.124L232.895 23.956H232.283C232.083 25.292 231.563 26.328 230.723 27.064C229.891 27.8 228.767 28.168 227.351 28.168ZM241.824 26.512H244.104V28H237.468V26.512H240.096V16.708H237.468V15.22H241.824V26.512ZM249.192 26.512V19.828C249.192 18.78 248.956 17.956 248.484 17.356C248.012 16.756 247.268 16.456 246.252 16.456C245.428 16.456 244.68 16.66 244.008 17.068C243.336 17.476 242.804 18.068 242.412 18.844C242.02 19.62 241.824 20.56 241.824 21.664L241.428 19.108H241.908C242.06 18.236 242.352 17.496 242.784 16.888C243.216 16.272 243.768 15.804 244.44 15.484C245.12 15.156 245.9 14.992 246.78 14.992C248.172 14.992 249.208 15.396 249.888 16.204C250.576 17.004 250.92 18.136 250.92 19.6V26.512H253.38V28H246.948V26.512H249.192ZM261.556 15.22H267.508V16.708H265.912L260.632 29.704C260.2 30.776 259.532 31.6 258.628 32.176C257.732 32.752 256.616 33.04 255.28 33.04H254.02V31.516H255.28C256.176 31.516 256.956 31.328 257.62 30.952C258.292 30.584 258.78 30.04 259.084 29.32L259.996 27.076L259.696 28.564L254.812 16.708H253.048V15.22H259.12V16.708H256.696L261.004 27.472L259.432 26.08H261.088L260.188 26.896L264.184 16.708H261.556V15.22ZM275.099 28V26.512H277.631V16.708H275.099V15.22H277.631V13.24C277.631 11.848 277.983 10.764 278.687 9.988C279.391 9.204 280.455 8.812 281.879 8.812C283.039 8.812 283.939 9.068 284.579 9.58C285.227 10.092 285.659 10.836 285.875 11.812L284.315 12.292C284.171 11.66 283.895 11.188 283.487 10.876C283.087 10.556 282.551 10.396 281.879 10.396C281.079 10.396 280.459 10.628 280.019 11.092C279.579 11.556 279.359 12.272 279.359 13.24V15.22H283.607V16.708H279.359V26.512H282.419V28H275.099ZM289.451 26.512H291.947V28H285.095V26.512H287.723V16.708H285.095V15.22H289.451V26.512ZM294.359 17.056C294.215 17.016 294.059 16.984 293.891 16.96C293.731 16.936 293.555 16.924 293.363 16.924C292.179 16.924 291.231 17.368 290.519 18.256C289.807 19.136 289.451 20.36 289.451 21.928L289.043 19.132H289.535C289.647 18.284 289.879 17.556 290.231 16.948C290.583 16.332 291.039 15.86 291.599 15.532C292.167 15.196 292.831 15.028 293.591 15.028C293.735 15.028 293.863 15.036 293.975 15.052C294.095 15.06 294.223 15.076 294.359 15.1V17.056ZM300.013 26.512H302.473V28H295.693V26.512H298.285V16.708H295.693V15.22H300.013V26.512ZM297.961 9.832H300.169V12.124H297.961V9.832ZM310.483 28.228C309.163 28.228 308.019 27.948 307.051 27.388C306.083 26.828 305.335 26.056 304.807 25.072C304.279 24.08 304.015 22.94 304.015 21.652C304.015 20.348 304.279 19.196 304.807 18.196C305.343 17.196 306.087 16.412 307.039 15.844C307.999 15.276 309.115 14.992 310.387 14.992C311.667 14.992 312.775 15.272 313.711 15.832C314.647 16.392 315.367 17.168 315.871 18.16C316.375 19.152 316.627 20.296 316.627 21.592C316.627 21.744 316.623 21.864 316.615 21.952C316.615 22.04 316.607 22.116 316.591 22.18H314.887C314.895 22.084 314.899 21.98 314.899 21.868C314.907 21.748 314.911 21.612 314.911 21.46C314.911 20.508 314.727 19.664 314.359 18.928C313.999 18.184 313.483 17.6 312.811 17.176C312.139 16.752 311.331 16.54 310.387 16.54C309.467 16.54 308.659 16.76 307.963 17.2C307.267 17.632 306.727 18.232 306.343 19C305.959 19.76 305.767 20.644 305.767 21.652C305.767 22.628 305.955 23.492 306.331 24.244C306.715 24.988 307.259 25.572 307.963 25.996C308.667 26.42 309.503 26.632 310.471 26.632C311.479 26.632 312.351 26.396 313.087 25.924C313.831 25.444 314.383 24.792 314.743 23.968L316.375 24.58C315.903 25.708 315.147 26.6 314.107 27.256C313.075 27.904 311.867 28.228 310.483 28.228ZM305.107 22.18V20.848H316.075L316.579 22.18H305.107ZM322.886 26.512H325.166V28H318.53V26.512H321.158V16.708H318.53V15.22H322.886V26.512ZM330.254 26.512V19.828C330.254 18.78 330.018 17.956 329.546 17.356C329.074 16.756 328.33 16.456 327.314 16.456C326.49 16.456 325.742 16.66 325.07 17.068C324.398 17.476 323.866 18.068 323.474 18.844C323.082 19.62 322.886 20.56 322.886 21.664L322.49 19.108H322.97C323.122 18.236 323.414 17.496 323.846 16.888C324.278 16.272 324.83 15.804 325.502 15.484C326.182 15.156 326.962 14.992 327.842 14.992C329.234 14.992 330.27 15.396 330.95 16.204C331.638 17.004 331.982 18.136 331.982 19.6V26.512H334.442V28H328.01V26.512H330.254ZM346.861 28V23.224L346.933 22.288V20.764L346.861 19.084V10.528H343.417V9.04H348.589V26.512H351.037V28H346.861ZM342.049 14.98C343.105 14.98 344.049 15.212 344.881 15.676C345.721 16.14 346.413 16.804 346.957 17.668C347.501 18.524 347.861 19.552 348.037 20.752L346.933 21.58C346.933 20.596 346.741 19.724 346.357 18.964C345.981 18.204 345.441 17.612 344.737 17.188C344.033 16.756 343.197 16.54 342.229 16.54C341.277 16.54 340.449 16.756 339.745 17.188C339.041 17.62 338.497 18.216 338.113 18.976C337.737 19.736 337.549 20.616 337.549 21.616C337.549 22.608 337.745 23.484 338.137 24.244C338.529 25.004 339.077 25.604 339.781 26.044C340.493 26.476 341.309 26.692 342.229 26.692C343.189 26.692 344.017 26.476 344.713 26.044C345.417 25.604 345.961 25 346.345 24.232C346.737 23.464 346.933 22.58 346.933 21.58L347.197 24.304H346.789C346.645 25.008 346.365 25.66 345.949 26.26C345.533 26.852 344.985 27.332 344.305 27.7C343.625 28.06 342.809 28.24 341.857 28.24C340.969 28.24 340.153 28.08 339.409 27.76C338.665 27.432 338.021 26.972 337.477 26.38C336.933 25.78 336.509 25.076 336.205 24.268C335.909 23.46 335.761 22.576 335.761 21.616C335.761 20.32 336.021 19.172 336.541 18.172C337.061 17.172 337.789 16.392 338.725 15.832C339.669 15.264 340.777 14.98 342.049 14.98ZM358.876 28.228C358.02 28.228 357.296 28.1 356.704 27.844C356.12 27.588 355.656 27.248 355.312 26.824C354.968 26.392 354.744 25.912 354.64 25.384H354.208L354.556 23.968C354.708 24.808 355.124 25.492 355.804 26.02C356.492 26.548 357.384 26.812 358.48 26.812C359.416 26.812 360.14 26.624 360.652 26.248C361.172 25.864 361.432 25.308 361.432 24.58C361.432 23.916 361.176 23.4 360.664 23.032C360.152 22.664 359.256 22.384 357.976 22.192C356.144 21.904 354.84 21.452 354.064 20.836C353.288 20.212 352.9 19.392 352.9 18.376C352.9 17.352 353.256 16.532 353.968 15.916C354.68 15.3 355.672 14.992 356.944 14.992C357.784 14.992 358.476 15.12 359.02 15.376C359.572 15.632 359.996 15.976 360.292 16.408C360.588 16.832 360.78 17.3 360.868 17.812H361.3L360.952 19.168C360.808 18.352 360.416 17.688 359.776 17.176C359.136 16.656 358.3 16.396 357.268 16.396C356.436 16.396 355.784 16.572 355.312 16.924C354.848 17.276 354.616 17.744 354.616 18.328C354.616 18.944 354.908 19.428 355.492 19.78C356.076 20.124 356.996 20.396 358.252 20.596C360.028 20.876 361.288 21.336 362.032 21.976C362.776 22.616 363.148 23.48 363.148 24.568C363.148 25.712 362.78 26.608 362.044 27.256C361.316 27.904 360.26 28.228 358.876 28.228ZM352.828 28V23.968H354.556V28H352.828ZM360.952 19.168V15.22H362.68V19.168H360.952Z" fill="black"/>
<path d="M1 6.35211L6 1V39L1 33.6479V6.35211Z" fill="white"/>
<path d="M6 1L1 6.35211V33.6479L6 39" stroke="black" stroke-linecap="round"/>
<path d="M374 33.6479L369 39L369 1L374 6.35211L374 33.6479Z" fill="white"/>
<path d="M369 39L374 33.6479L374 6.35211L369 1" stroke="black" stroke-linecap="round"/>
</svg>
